<?xml version="1.0" encoding="UTF-8" standalone="no"?>
<svg
   width="567.429"
   height="384.969"
   viewBox="0 0 567.429 384.969"
   shape-rendering="crispEdges"
   version="1.1"
   id="svg239"
   sodipodi:docname="89_A_H_mc.svg"
   inkscape:version="1.4.2 (f4327f4, 2025-05-13)"
   xmlns:inkscape="http://www.inkscape.org/namespaces/inkscape"
   xmlns:sodipodi="http://sodipodi.sourceforge.net/DTD/sodipodi-0.dtd"
   xmlns="http://www.w3.org/2000/svg"
   xmlns:svg="http://www.w3.org/2000/svg"
   xmlns:rdf="http://www.w3.org/1999/02/22-rdf-syntax-ns#"
   xmlns:cc="http://creativecommons.org/ns#"
   xmlns:dc="http://purl.org/dc/elements/1.1/">
  <sodipodi:namedview
     id="namedview239"
     pagecolor="#ffffff"
     bordercolor="#000000"
     borderopacity="0.25"
     inkscape:showpageshadow="2"
     inkscape:pageopacity="0.0"
     inkscape:pagecheckerboard="0"
     inkscape:deskcolor="#d1d1d1"
     inkscape:zoom="1.496983"
     inkscape:cx="172.34665"
     inkscape:cy="177.35672"
     inkscape:window-width="1920"
     inkscape:window-height="1017"
     inkscape:window-x="-8"
     inkscape:window-y="-8"
     inkscape:window-maximized="1"
     inkscape:current-layer="svg239" />
  <title
     id="title1">
Output/plot.svg
</title>
  <desc
     id="desc1">
Creator: ROOT Version 6.24/06
CreationDate: Thu Mar 12 15:48:19 2026</desc>
  <defs
     id="defs1" />
  <rect
     x="0.5"
     y="0"
     width="566.929"
     height="384.469"
     fill="#fefefe"
     id="rect1" />
  <rect
     x="57.1929"
     y="38.4469"
     width="453.543"
     height="307.575"
     fill="#fefefe"
     id="rect2" />
  <rect
     x="57.1929"
     y="38.4469"
     width="453.543"
     height="307.575"
     fill="none"
     stroke="black"
     id="rect3" />
  <rect
     x="57.1929"
     y="38.4469"
     width="453.543"
     height="307.575"
     fill="#fefefe"
     id="rect4" />
  <rect
     x="57.1929"
     y="38.4469"
     width="453.543"
     height="307.575"
     fill="none"
     stroke="black"
     id="rect5" />
  <path
     d="M154.705,258.085v -12.7352"
     fill="none"
     stroke="#000099"
     id="path5" />
  <path
     d="M154.705,232.317v -12.7352"
     fill="none"
     stroke="#000099"
     id="path6" />
  <g
     fill="#ff0000"
     id="g6">
    <circle
       cx="154.705"
       cy="238.833"
       r="6.51643"
       id="circle6" />
  </g>
  <path
     d="M159.24,267.503v -11.78"
     fill="none"
     stroke="#000099"
     id="path7" />
  <path
     d="M159.24,242.69v -11.78"
     fill="none"
     stroke="#000099"
     id="path8" />
  <g
     fill="#ff0000"
     id="g8">
    <circle
       cx="159.24"
       cy="249.207"
       r="6.51643"
       id="circle8" />
  </g>
  <path
     d="M163.776,279.977v -10.4228"
     fill="none"
     stroke="#000099"
     id="path9" />
  <path
     d="M163.776,256.521v -10.4228"
     fill="none"
     stroke="#000099"
     id="path10" />
  <g
     fill="#ff0000"
     id="g10">
    <circle
       cx="163.776"
       cy="263.037"
       r="6.51643"
       id="circle10" />
  </g>
  <path
     d="M168.311,226.397v -15.6237"
     fill="none"
     stroke="#000099"
     id="path11" />
  <path
     d="M168.311,197.74v -15.6237"
     fill="none"
     stroke="#000099"
     id="path12" />
  <g
     fill="#ff0000"
     id="g12">
    <circle
       cx="168.311"
       cy="204.256"
       r="6.51643"
       id="circle12" />
  </g>
  <path
     d="M172.846,210.419v -16.9348"
     fill="none"
     stroke="#000099"
     id="path13" />
  <path
     d="M172.846,180.452v -16.9348"
     fill="none"
     stroke="#000099"
     id="path14" />
  <g
     fill="#ff0000"
     id="g14">
    <circle
       cx="172.846"
       cy="186.968"
       r="6.51643"
       id="circle14" />
  </g>
  <path
     d="M177.382,226.397v -15.6237"
     fill="none"
     stroke="#000099"
     id="path15" />
  <path
     d="M177.382,197.74v -15.6237"
     fill="none"
     stroke="#000099"
     id="path16" />
  <g
     fill="#ff0000"
     id="g16">
    <circle
       cx="177.382"
       cy="204.256"
       r="6.51643"
       id="circle16" />
  </g>
  <path
     d="M181.917,194.372v -18.1765"
     fill="none"
     stroke="#000099"
     id="path17" />
  <path
     d="M181.917,163.163v -18.1765"
     fill="none"
     stroke="#000099"
     id="path18" />
  <g
     fill="#ff0000"
     id="g18">
    <circle
       cx="181.917"
       cy="169.679"
       r="6.51643"
       id="circle18" />
  </g>
  <path
     d="M186.453,204.008v -17.4392"
     fill="none"
     stroke="#000099"
     id="path19" />
  <path
     d="M186.453,173.536v -17.4392"
     fill="none"
     stroke="#000099"
     id="path20" />
  <g
     fill="#ff0000"
     id="g20">
    <circle
       cx="186.453"
       cy="180.053"
       r="6.51643"
       id="circle20" />
  </g>
  <path
     d="M190.988,139.411v -21.9965"
     fill="none"
     stroke="#000099"
     id="path21" />
  <path
     d="M190.988,104.382v -21.9965"
     fill="none"
     stroke="#000099"
     id="path22" />
  <g
     fill="#ff0000"
     id="g22">
    <circle
       cx="190.988"
       cy="110.899"
       r="6.51643"
       id="circle22" />
  </g>
  <path
     d="M195.524,162.108v -20.4891"
     fill="none"
     stroke="#000099"
     id="path23" />
  <path
     d="M195.524,128.586v -20.4891"
     fill="none"
     stroke="#000099"
     id="path24" />
  <g
     fill="#ff0000"
     id="g24">
    <circle
       cx="195.524"
       cy="135.102"
       r="6.51643"
       id="circle24" />
  </g>
  <path
     d="M200.059,162.108v -20.4891"
     fill="none"
     stroke="#000099"
     id="path25" />
  <path
     d="M200.059,128.586v -20.4891"
     fill="none"
     stroke="#000099"
     id="path26" />
  <g
     fill="#ff0000"
     id="g26">
    <circle
       cx="200.059"
       cy="135.102"
       r="6.51643"
       id="circle26" />
  </g>
  <path
     d="M204.594,184.715v -18.8924"
     fill="none"
     stroke="#000099"
     id="path27" />
  <path
     d="M204.594,152.79v -18.8924"
     fill="none"
     stroke="#000099"
     id="path28" />
  <g
     fill="#ff0000"
     id="g28">
    <circle
       cx="204.594"
       cy="159.306"
       r="6.51643"
       id="circle28" />
  </g>
  <path
     d="M209.13,113.38v -23.6271"
     fill="none"
     stroke="#000099"
     id="path29" />
  <path
     d="M209.13,76.7205v -23.6271"
     fill="none"
     stroke="#000099"
     id="path30" />
  <g
     fill="#ff0000"
     id="g30">
    <circle
       cx="209.13"
       cy="83.2369"
       r="6.51643"
       id="circle30" />
  </g>
  <path
     d="M213.665,119.897v -23.2278"
     fill="none"
     stroke="#000099"
     id="path31" />
  <path
     d="M213.665,83.6359v -23.2278"
     fill="none"
     stroke="#000099"
     id="path32" />
  <g
     fill="#ff0000"
     id="g32">
    <circle
       cx="213.665"
       cy="90.1523"
       r="6.51643"
       id="circle32" />
  </g>
  <path
     d="M218.201,191.156v -18.4174"
     fill="none"
     stroke="#000099"
     id="path33" />
  <path
     d="M218.201,159.705v -18.4174"
     fill="none"
     stroke="#000099"
     id="path34" />
  <g
     fill="#ff0000"
     id="g34">
    <circle
       cx="218.201"
       cy="166.222"
       r="6.51643"
       id="circle34" />
  </g>
  <path
     d="M222.736,145.904v -21.5741"
     fill="none"
     stroke="#000099"
     id="path35" />
  <path
     d="M222.736,111.298v -21.5741"
     fill="none"
     stroke="#000099"
     id="path36" />
  <g
     fill="#ff0000"
     id="g36">
    <circle
       cx="222.736"
       cy="117.814"
       r="6.51643"
       id="circle36" />
  </g>
  <path
     d="M227.272,119.897v -23.2278"
     fill="none"
     stroke="#000099"
     id="path37" />
  <path
     d="M227.272,83.6359v -23.2278"
     fill="none"
     stroke="#000099"
     id="path38" />
  <g
     fill="#ff0000"
     id="g38">
    <circle
       cx="227.272"
       cy="90.1523"
       r="6.51643"
       id="circle38" />
  </g>
  <path
     d="M231.807,187.937v -18.656"
     fill="none"
     stroke="#000099"
     id="path39" />
  <path
     d="M231.807,156.248v -18.656"
     fill="none"
     stroke="#000099"
     id="path40" />
  <g
     fill="#ff0000"
     id="g40">
    <circle
       cx="231.807"
       cy="162.764"
       r="6.51643"
       id="circle40" />
  </g>
  <path
     d="M236.343,165.343v -20.2668"
     fill="none"
     stroke="#000099"
     id="path41" />
  <path
     d="M236.343,132.044v -20.2668"
     fill="none"
     stroke="#000099"
     id="path42" />
  <g
     fill="#ff0000"
     id="g42">
    <circle
       cx="236.343"
       cy="138.56"
       r="6.51643"
       id="circle42" />
  </g>
  <path
     d="M240.878,155.632v -20.9282"
     fill="none"
     stroke="#000099"
     id="path43" />
  <path
     d="M240.878,121.671v -20.9282"
     fill="none"
     stroke="#000099"
     id="path44" />
  <g
     fill="#ff0000"
     id="g44">
    <circle
       cx="240.878"
       cy="128.187"
       r="6.51643"
       id="circle44" />
  </g>
  <path
     d="M245.413,200.799v -17.6875"
     fill="none"
     stroke="#000099"
     id="path45" />
  <path
     d="M245.413,170.078v -17.6875"
     fill="none"
     stroke="#000099"
     id="path46" />
  <g
     fill="#ff0000"
     id="g46">
    <circle
       cx="245.413"
       cy="176.595"
       r="6.51643"
       id="circle46" />
  </g>
  <path
     d="M249.949,220.015v -16.1572"
     fill="none"
     stroke="#000099"
     id="path47" />
  <path
     d="M249.949,190.825v -16.1572"
     fill="none"
     stroke="#000099"
     id="path48" />
  <g
     fill="#ff0000"
     id="g48">
    <circle
       cx="249.949"
       cy="197.341"
       r="6.51643"
       id="circle48" />
  </g>
  <path
     d="M254.484,187.937v -18.656"
     fill="none"
     stroke="#000099"
     id="path49" />
  <path
     d="M254.484,156.248v -18.656"
     fill="none"
     stroke="#000099"
     id="path50" />
  <g
     fill="#ff0000"
     id="g50">
    <circle
       cx="254.484"
       cy="162.764"
       r="6.51643"
       id="circle50" />
  </g>
  <path
     d="M259.02,207.215v -17.1884"
     fill="none"
     stroke="#000099"
     id="path51" />
  <path
     d="M259.02,176.994v -17.1884"
     fill="none"
     stroke="#000099"
     id="path52" />
  <g
     fill="#ff0000"
     id="g52">
    <circle
       cx="259.02"
       cy="183.51"
       r="6.51643"
       id="circle52" />
  </g>
  <path
     d="M263.555,158.871v -20.7095"
     fill="none"
     stroke="#000099"
     id="path53" />
  <path
     d="M263.555,125.128v -20.7095"
     fill="none"
     stroke="#000099"
     id="path54" />
  <g
     fill="#ff0000"
     id="g54">
    <circle
       cx="263.555"
       cy="131.645"
       r="6.51643"
       id="circle54" />
  </g>
  <path
     d="M268.091,223.207v -15.892"
     fill="none"
     stroke="#000099"
     id="path55" />
  <path
     d="M268.091,194.282v -15.892"
     fill="none"
     stroke="#000099"
     id="path56" />
  <g
     fill="#ff0000"
     id="g56">
    <circle
       cx="268.091"
       cy="200.799"
       r="6.51643"
       id="circle56" />
  </g>
  <path
     d="M272.626,171.809v -19.8166"
     fill="none"
     stroke="#000099"
     id="path57" />
  <path
     d="M272.626,138.959v -19.8166"
     fill="none"
     stroke="#000099"
     id="path58" />
  <g
     fill="#ff0000"
     id="g58">
    <circle
       cx="272.626"
       cy="145.476"
       r="6.51643"
       id="circle58" />
  </g>
  <path
     d="M277.161,229.583v -15.352"
     fill="none"
     stroke="#000099"
     id="path59" />
  <path
     d="M277.161,201.198v -15.352"
     fill="none"
     stroke="#000099"
     id="path60" />
  <g
     fill="#ff0000"
     id="g60">
    <circle
       cx="277.161"
       cy="207.714"
       r="6.51643"
       id="circle60" />
  </g>
  <path
     d="M281.697,245.459v -13.9396"
     fill="none"
     stroke="#000099"
     id="path61" />
  <path
     d="M281.697,218.486v -13.9396"
     fill="none"
     stroke="#000099"
     id="path62" />
  <g
     fill="#ff0000"
     id="g62">
    <circle
       cx="281.697"
       cy="225.003"
       r="6.51643"
       id="circle62" />
  </g>
  <path
     d="M286.232,261.23v -12.4222"
     fill="none"
     stroke="#000099"
     id="path63" />
  <path
     d="M286.232,235.775v -12.4222"
     fill="none"
     stroke="#000099"
     id="path64" />
  <g
     fill="#ff0000"
     id="g64">
    <circle
       cx="286.232"
       cy="242.291"
       r="6.51643"
       id="circle64" />
  </g>
  <path
     d="M290.768,270.631v -11.4503"
     fill="none"
     stroke="#000099"
     id="path65" />
  <path
     d="M290.768,246.148v -11.4503"
     fill="none"
     stroke="#000099"
     id="path66" />
  <g
     fill="#ff0000"
     id="g66">
    <circle
       cx="290.768"
       cy="252.664"
       r="6.51643"
       id="circle66" />
  </g>
  <path
     d="M295.303,276.868v -10.7721"
     fill="none"
     stroke="#000099"
     id="path67" />
  <path
     d="M295.303,253.063v -10.7721"
     fill="none"
     stroke="#000099"
     id="path68" />
  <g
     fill="#ff0000"
     id="g68">
    <circle
       cx="295.303"
       cy="259.58"
       r="6.51643"
       id="circle68" />
  </g>
  <path
     d="M299.839,239.12v -14.516"
     fill="none"
     stroke="#000099"
     id="path69" />
  <path
     d="M299.839,211.571v -14.516"
     fill="none"
     stroke="#000099"
     id="path70" />
  <g
     fill="#ff0000"
     id="g70">
    <circle
       cx="299.839"
       cy="218.087"
       r="6.51643"
       id="circle70" />
  </g>
  <path
     d="M304.374,295.398v -8.55535"
     fill="none"
     stroke="#000099"
     id="path71" />
  <path
     d="M304.374,273.809v -8.55535"
     fill="none"
     stroke="#000099"
     id="path72" />
  <g
     fill="#ff0000"
     id="g72">
    <circle
       cx="304.374"
       cy="280.326"
       r="6.51643"
       id="circle72" />
  </g>
  <path
     d="M308.909,264.369v -12.1039"
     fill="none"
     stroke="#000099"
     id="path73" />
  <path
     d="M308.909,239.232v -12.1039"
     fill="none"
     stroke="#000099"
     id="path74" />
  <g
     fill="#ff0000"
     id="g74">
    <circle
       cx="308.909"
       cy="245.749"
       r="6.51643"
       id="circle74" />
  </g>
  <path
     d="M313.445,304.53v -7.31438"
     fill="none"
     stroke="#000099"
     id="path75" />
  <path
     d="M313.445,284.183v -7.31438"
     fill="none"
     stroke="#000099"
     id="path76" />
  <g
     fill="#ff0000"
     id="g76">
    <circle
       cx="313.445"
       cy="290.699"
       r="6.51643"
       id="circle76" />
  </g>
  <path
     d="M317.98,270.631v -11.4503"
     fill="none"
     stroke="#000099"
     id="path77" />
  <path
     d="M317.98,246.148v -11.4503"
     fill="none"
     stroke="#000099"
     id="path78" />
  <g
     fill="#ff0000"
     id="g78">
    <circle
       cx="317.98"
       cy="252.664"
       r="6.51643"
       id="circle78" />
  </g>
  <path
     d="M322.516,307.548v -6.8752"
     fill="none"
     stroke="#000099"
     id="path79" />
  <path
     d="M322.516,287.64v -6.8752"
     fill="none"
     stroke="#000099"
     id="path80" />
  <g
     fill="#ff0000"
     id="g80">
    <circle
       cx="322.516"
       cy="294.157"
       r="6.51643"
       id="circle80" />
  </g>
  <path
     d="M327.051,276.868v -10.7721"
     fill="none"
     stroke="#000099"
     id="path81" />
  <path
     d="M327.051,253.063v -10.7721"
     fill="none"
     stroke="#000099"
     id="path82" />
  <g
     fill="#ff0000"
     id="g82">
    <circle
       cx="327.051"
       cy="259.58"
       r="6.51643"
       id="circle82" />
  </g>
  <path
     d="M331.587,316.508v -5.4614"
     fill="none"
     stroke="#000099"
     id="path83" />
  <path
     d="M331.587,298.013v -5.4614"
     fill="none"
     stroke="#000099"
     id="path84" />
  <g
     fill="#ff0000"
     id="g84">
    <circle
       cx="331.587"
       cy="304.53"
       r="6.51643"
       id="circle84" />
  </g>
  <path
     d="M336.122,310.552v -6.42111"
     fill="none"
     stroke="#000099"
     id="path85" />
  <path
     d="M336.122,291.098v -6.42111"
     fill="none"
     stroke="#000099"
     id="path86" />
  <g
     fill="#ff0000"
     id="g86">
    <circle
       cx="336.122"
       cy="297.614"
       r="6.51643"
       id="circle86" />
  </g>
  <path
     d="M340.657,279.977v -10.4228"
     fill="none"
     stroke="#000099"
     id="path87" />
  <path
     d="M340.657,256.521v -10.4228"
     fill="none"
     stroke="#000099"
     id="path88" />
  <g
     fill="#ff0000"
     id="g88">
    <circle
       cx="340.657"
       cy="263.037"
       r="6.51643"
       id="circle88" />
  </g>
  <path
     d="M345.193,310.552v -6.42111"
     fill="none"
     stroke="#000099"
     id="path89" />
  <path
     d="M345.193,291.098v -6.42111"
     fill="none"
     stroke="#000099"
     id="path90" />
  <g
     fill="#ff0000"
     id="g90">
    <circle
       cx="345.193"
       cy="297.614"
       r="6.51643"
       id="circle90" />
  </g>
  <path
     d="M349.728,316.508v -5.4614"
     fill="none"
     stroke="#000099"
     id="path91" />
  <path
     d="M349.728,298.013v -5.4614"
     fill="none"
     stroke="#000099"
     id="path92" />
  <g
     fill="#ff0000"
     id="g92">
    <circle
       cx="349.728"
       cy="304.53"
       r="6.51643"
       id="circle92" />
  </g>
  <path
     d="M354.264,325.276v -3.85668"
     fill="none"
     stroke="#000099"
     id="path93" />
  <path
     d="M354.264,308.387v -3.85668"
     fill="none"
     stroke="#000099"
     id="path94" />
  <g
     fill="#ff0000"
     id="g94">
    <circle
       cx="354.264"
       cy="314.903"
       r="6.51643"
       id="circle94" />
  </g>
  <path
     d="M358.799,330.967v -2.63179"
     fill="none"
     stroke="#000099"
     id="path95" />
  <path
     d="M358.799,315.302v -2.63179"
     fill="none"
     stroke="#000099"
     id="path96" />
  <g
     fill="#ff0000"
     id="g96">
    <circle
       cx="358.799"
       cy="321.818"
       r="6.51643"
       id="circle96" />
  </g>
  <path
     d="M363.335,325.276v -3.85668"
     fill="none"
     stroke="#000099"
     id="path97" />
  <path
     d="M363.335,308.387v -3.85668"
     fill="none"
     stroke="#000099"
     id="path98" />
  <g
     fill="#ff0000"
     id="g98">
    <circle
       cx="363.335"
       cy="314.903"
       r="6.51643"
       id="circle98" />
  </g>
  <path
     d="M367.87,325.276v -3.85668"
     fill="none"
     stroke="#000099"
     id="path99" />
  <path
     d="M367.87,308.387v -3.85668"
     fill="none"
     stroke="#000099"
     id="path100" />
  <g
     fill="#ff0000"
     id="g100">
    <circle
       cx="367.87"
       cy="314.903"
       r="6.51643"
       id="circle100" />
  </g>
  <path
     d="M372.406,328.141v -3.26343"
     fill="none"
     stroke="#000099"
     id="path101" />
  <path
     d="M372.406,311.844v -3.26343"
     fill="none"
     stroke="#000099"
     id="path102" />
  <g
     fill="#ff0000"
     id="g102">
    <circle
       cx="372.406"
       cy="318.361"
       r="6.51643"
       id="circle102" />
  </g>
  <path
     d="M376.941,328.141v -3.26343"
     fill="none"
     stroke="#000099"
     id="path103" />
  <path
     d="M376.941,311.844v -3.26343"
     fill="none"
     stroke="#000099"
     id="path104" />
  <g
     fill="#ff0000"
     id="g104">
    <circle
       cx="376.941"
       cy="318.361"
       r="6.51643"
       id="circle104" />
  </g>
  <g
     fill="#ff0000"
     id="g105">
    <circle
       cx="381.476"
       cy="335.649"
       r="6.51643"
       id="circle105" />
  </g>
  <g
     fill="#ff0000"
     id="g106">
    <circle
       cx="386.012"
       cy="335.649"
       r="6.51643"
       id="circle106" />
  </g>
  <path
     d="M390.547,336.465v -1.21523"
     fill="none"
     stroke="#000099"
     id="path106" />
  <path
     d="M390.547,322.217v -1.21523"
     fill="none"
     stroke="#000099"
     id="path107" />
  <g
     fill="#ff0000"
     id="g107">
    <circle
       cx="390.547"
       cy="328.734"
       r="6.51643"
       id="circle107" />
  </g>
  <g
     fill="#ff0000"
     id="g108">
    <circle
       cx="395.083"
       cy="335.649"
       r="6.51643"
       id="circle108" />
  </g>
  <g
     fill="#ff0000"
     id="g109">
    <circle
       cx="399.618"
       cy="335.649"
       r="6.51643"
       id="circle109" />
  </g>
  <path
     d="M404.154,339.107v -0.398977"
     fill="none"
     stroke="#000099"
     id="path109" />
  <path
     d="M404.154,325.675v -0.398977"
     fill="none"
     stroke="#000099"
     id="path110" />
  <g
     fill="#ff0000"
     id="g110">
    <circle
       cx="404.154"
       cy="332.191"
       r="6.51643"
       id="circle110" />
  </g>
  <g
     fill="#ff0000"
     id="g111">
    <circle
       cx="408.689"
       cy="342.565"
       r="6.51643"
       id="circle111" />
  </g>
  <g
     fill="#ff0000"
     id="g112">
    <circle
       cx="413.224"
       cy="339.107"
       r="6.51643"
       id="circle112" />
  </g>
  <g
     fill="#ff0000"
     id="g113">
    <circle
       cx="417.76"
       cy="342.565"
       r="6.51643"
       id="circle113" />
  </g>
  <path
     d="M422.295,339.107v -0.398977"
     fill="none"
     stroke="#000099"
     id="path113" />
  <path
     d="M422.295,325.675v -0.398977"
     fill="none"
     stroke="#000099"
     id="path114" />
  <g
     fill="#ff0000"
     id="g114">
    <circle
       cx="422.295"
       cy="332.191"
       r="6.51643"
       id="circle114" />
  </g>
  <g
     fill="#ff0000"
     id="g115">
    <circle
       cx="426.831"
       cy="342.565"
       r="6.51643"
       id="circle115" />
  </g>
  <g
     fill="#ff0000"
     id="g116">
    <circle
       cx="435.902"
       cy="342.565"
       r="6.51643"
       id="circle116" />
  </g>
  <path
     d="M57.1929,346.022h 453.543"
     fill="none"
     stroke="black"
     id="path116" />
  <path
     d="M57.1929,336.795v 9.22726"
     fill="none"
     stroke="black"
     id="path117" />
  <path
     d="M66.2638,341.409v 4.61363"
     fill="none"
     stroke="black"
     id="path118" />
  <path
     d="M75.3346,341.409v 4.61363"
     fill="none"
     stroke="black"
     id="path119" />
  <path
     d="M84.4055,341.409v 4.61363"
     fill="none"
     stroke="black"
     id="path120" />
  <path
     d="M93.4764,341.409v 4.61363"
     fill="none"
     stroke="black"
     id="path121" />
  <path
     d="M102.547,336.795v 9.22726"
     fill="none"
     stroke="black"
     id="path122" />
  <path
     d="M111.618,341.409v 4.61363"
     fill="none"
     stroke="black"
     id="path123" />
  <path
     d="M120.689,341.409v 4.61363"
     fill="none"
     stroke="black"
     id="path124" />
  <path
     d="M129.76,341.409v 4.61363"
     fill="none"
     stroke="black"
     id="path125" />
  <path
     d="M138.831,341.409v 4.61363"
     fill="none"
     stroke="black"
     id="path126" />
  <path
     d="M147.902,336.795v 9.22726"
     fill="none"
     stroke="black"
     id="path127" />
  <path
     d="M156.972,341.409v 4.61363"
     fill="none"
     stroke="black"
     id="path128" />
  <path
     d="M166.043,341.409v 4.61363"
     fill="none"
     stroke="black"
     id="path129" />
  <path
     d="M175.114,341.409v 4.61363"
     fill="none"
     stroke="black"
     id="path130" />
  <path
     d="M184.185,341.409v 4.61363"
     fill="none"
     stroke="black"
     id="path131" />
  <path
     d="M193.256,336.795v 9.22726"
     fill="none"
     stroke="black"
     id="path132" />
  <path
     d="M202.327,341.409v 4.61363"
     fill="none"
     stroke="black"
     id="path133" />
  <path
     d="M211.398,341.409v 4.61363"
     fill="none"
     stroke="black"
     id="path134" />
  <path
     d="M220.469,341.409v 4.61363"
     fill="none"
     stroke="black"
     id="path135" />
  <path
     d="M229.539,341.409v 4.61363"
     fill="none"
     stroke="black"
     id="path136" />
  <path
     d="M238.61,336.795v 9.22726"
     fill="none"
     stroke="black"
     id="path137" />
  <path
     d="M247.681,341.409v 4.61363"
     fill="none"
     stroke="black"
     id="path138" />
  <path
     d="M256.752,341.409v 4.61363"
     fill="none"
     stroke="black"
     id="path139" />
  <path
     d="M265.823,341.409v 4.61363"
     fill="none"
     stroke="black"
     id="path140" />
  <path
     d="M274.894,341.409v 4.61363"
     fill="none"
     stroke="black"
     id="path141" />
  <path
     d="M283.965,336.795v 9.22726"
     fill="none"
     stroke="black"
     id="path142" />
  <path
     d="M293.035,341.409v 4.61363"
     fill="none"
     stroke="black"
     id="path143" />
  <path
     d="M302.106,341.409v 4.61363"
     fill="none"
     stroke="black"
     id="path144" />
  <path
     d="M311.177,341.409v 4.61363"
     fill="none"
     stroke="black"
     id="path145" />
  <path
     d="M320.248,341.409v 4.61363"
     fill="none"
     stroke="black"
     id="path146" />
  <path
     d="M329.319,336.795v 9.22726"
     fill="none"
     stroke="black"
     id="path147" />
  <path
     d="M338.39,341.409v 4.61363"
     fill="none"
     stroke="black"
     id="path148" />
  <path
     d="M347.461,341.409v 4.61363"
     fill="none"
     stroke="black"
     id="path149" />
  <path
     d="M356.531,341.409v 4.61363"
     fill="none"
     stroke="black"
     id="path150" />
  <path
     d="M365.602,341.409v 4.61363"
     fill="none"
     stroke="black"
     id="path151" />
  <path
     d="M374.673,336.795v 9.22726"
     fill="none"
     stroke="black"
     id="path152" />
  <path
     d="M383.744,341.409v 4.61363"
     fill="none"
     stroke="black"
     id="path153" />
  <path
     d="M392.815,341.409v 4.61363"
     fill="none"
     stroke="black"
     id="path154" />
  <path
     d="M401.886,341.409v 4.61363"
     fill="none"
     stroke="black"
     id="path155" />
  <path
     d="M410.957,341.409v 4.61363"
     fill="none"
     stroke="black"
     id="path156" />
  <path
     d="M420.028,336.795v 9.22726"
     fill="none"
     stroke="black"
     id="path157" />
  <path
     d="M429.098,341.409v 4.61363"
     fill="none"
     stroke="black"
     id="path158" />
  <path
     d="M438.169,341.409v 4.61363"
     fill="none"
     stroke="black"
     id="path159" />
  <path
     d="M447.24,341.409v 4.61363"
     fill="none"
     stroke="black"
     id="path160" />
  <path
     d="M456.311,341.409v 4.61363"
     fill="none"
     stroke="black"
     id="path161" />
  <path
     d="M465.382,336.795v 9.22726"
     fill="none"
     stroke="black"
     id="path162" />
  <path
     d="M474.453,341.409v 4.61363"
     fill="none"
     stroke="black"
     id="path163" />
  <path
     d="M483.524,341.409v 4.61363"
     fill="none"
     stroke="black"
     id="path164" />
  <path
     d="M492.594,341.409v 4.61363"
     fill="none"
     stroke="black"
     id="path165" />
  <path
     d="M501.665,341.409v 4.61363"
     fill="none"
     stroke="black"
     id="path166" />
  <path
     d="M510.736,336.795v 9.22726"
     fill="none"
     stroke="black"
     id="path167" />
  <text
     xml:space="preserve"
     x="53.446"
     y="358.403"
     fill="black"
     font-size="12.8453"
     font-family="Helvetica"
     id="text167">0</text>
  <text
     xml:space="preserve"
     x="95.8027"
     y="358.403"
     fill="black"
     font-size="12.8453"
     font-family="Helvetica"
     id="text168">10</text>
  <text
     xml:space="preserve"
     x="140.603"
     y="358.403"
     fill="black"
     font-size="12.8453"
     font-family="Helvetica"
     id="text169">20</text>
  <text
     xml:space="preserve"
     x="186.218"
     y="358.403"
     fill="black"
     font-size="12.8453"
     font-family="Helvetica"
     id="text170">30</text>
  <text
     xml:space="preserve"
     x="231.833"
     y="358.403"
     fill="black"
     font-size="12.8453"
     font-family="Helvetica"
     id="text171">40</text>
  <text
     xml:space="preserve"
     x="277.448"
     y="358.403"
     fill="black"
     font-size="12.8453"
     font-family="Helvetica"
     id="text172">50</text>
  <text
     xml:space="preserve"
     x="322.249"
     y="358.403"
     fill="black"
     font-size="12.8453"
     font-family="Helvetica"
     id="text173">60</text>
  <text
     xml:space="preserve"
     x="367.864"
     y="358.403"
     fill="black"
     font-size="12.8453"
     font-family="Helvetica"
     id="text174">70</text>
  <text
     xml:space="preserve"
     x="413.479"
     y="358.403"
     fill="black"
     font-size="12.8453"
     font-family="Helvetica"
     id="text175">80</text>
  <text
     xml:space="preserve"
     x="458.279"
     y="358.403"
     fill="black"
     font-size="12.8453"
     font-family="Helvetica"
     id="text176">90</text>
  <text
     xml:space="preserve"
     x="499.821"
     y="358.403"
     fill="black"
     font-size="12.8453"
     font-family="Helvetica"
     id="text177">100</text>
  <text
     xml:space="preserve"
     x="214.10887"
     y="373.29404"
     fill="#000000"
     font-size="12.8453px"
     font-family="Helvetica"
     id="text178"> Teilchenanzahl pro Ereignis </text>
  <path
     d="M57.1929,346.022v -307.575"
     fill="none"
     stroke="black"
     id="path178" />
  <path
     d="M70.7992,346.022h -13.6063"
     fill="none"
     stroke="black"
     id="path179" />
  <path
     d="M63.9961,339.425h -6.80315"
     fill="none"
     stroke="black"
     id="path180" />
  <path
     d="M63.9961,332.828h -6.80315"
     fill="none"
     stroke="black"
     id="path181" />
  <path
     d="M63.9961,326.23h -6.80315"
     fill="none"
     stroke="black"
     id="path182" />
  <path
     d="M63.9961,319.633h -6.80315"
     fill="none"
     stroke="black"
     id="path183" />
  <path
     d="M70.7992,313.036h -13.6063"
     fill="none"
     stroke="black"
     id="path184" />
  <path
     d="M63.9961,306.438h -6.80315"
     fill="none"
     stroke="black"
     id="path185" />
  <path
     d="M63.9961,299.841h -6.80315"
     fill="none"
     stroke="black"
     id="path186" />
  <path
     d="M63.9961,293.244h -6.80315"
     fill="none"
     stroke="black"
     id="path187" />
  <path
     d="M63.9961,286.647h -6.80315"
     fill="none"
     stroke="black"
     id="path188" />
  <path
     d="M70.7992,280.049h -13.6063"
     fill="none"
     stroke="black"
     id="path189" />
  <path
     d="M63.9961,273.452h -6.80315"
     fill="none"
     stroke="black"
     id="path190" />
  <path
     d="M63.9961,266.855h -6.80315"
     fill="none"
     stroke="black"
     id="path191" />
  <path
     d="M63.9961,260.257h -6.80315"
     fill="none"
     stroke="black"
     id="path192" />
  <path
     d="M63.9961,253.66h -6.80315"
     fill="none"
     stroke="black"
     id="path193" />
  <path
     d="M70.7992,247.063h -13.6063"
     fill="none"
     stroke="black"
     id="path194" />
  <path
     d="M63.9961,240.466h -6.80315"
     fill="none"
     stroke="black"
     id="path195" />
  <path
     d="M63.9961,233.868h -6.80315"
     fill="none"
     stroke="black"
     id="path196" />
  <path
     d="M63.9961,227.271h -6.80315"
     fill="none"
     stroke="black"
     id="path197" />
  <path
     d="M63.9961,220.674h -6.80315"
     fill="none"
     stroke="black"
     id="path198" />
  <path
     d="M70.7992,214.076h -13.6063"
     fill="none"
     stroke="black"
     id="path199" />
  <path
     d="M63.9961,207.479h -6.80315"
     fill="none"
     stroke="black"
     id="path200" />
  <path
     d="M63.9961,200.882h -6.80315"
     fill="none"
     stroke="black"
     id="path201" />
  <path
     d="M63.9961,194.284h -6.80315"
     fill="none"
     stroke="black"
     id="path202" />
  <path
     d="M63.9961,187.687h -6.80315"
     fill="none"
     stroke="black"
     id="path203" />
  <path
     d="M70.7992,181.09h -13.6063"
     fill="none"
     stroke="black"
     id="path204" />
  <path
     d="M63.9961,174.493h -6.80315"
     fill="none"
     stroke="black"
     id="path205" />
  <path
     d="M63.9961,167.895h -6.80315"
     fill="none"
     stroke="black"
     id="path206" />
  <path
     d="M63.9961,161.298h -6.80315"
     fill="none"
     stroke="black"
     id="path207" />
  <path
     d="M63.9961,154.701h -6.80315"
     fill="none"
     stroke="black"
     id="path208" />
  <path
     d="M70.7992,148.103h -13.6063"
     fill="none"
     stroke="black"
     id="path209" />
  <path
     d="M63.9961,141.506h -6.80315"
     fill="none"
     stroke="black"
     id="path210" />
  <path
     d="M63.9961,134.909h -6.80315"
     fill="none"
     stroke="black"
     id="path211" />
  <path
     d="M63.9961,128.312h -6.80315"
     fill="none"
     stroke="black"
     id="path212" />
  <path
     d="M63.9961,121.714h -6.80315"
     fill="none"
     stroke="black"
     id="path213" />
  <path
     d="M70.7992,115.117h -13.6063"
     fill="none"
     stroke="black"
     id="path214" />
  <path
     d="M63.9961,108.52h -6.80315"
     fill="none"
     stroke="black"
     id="path215" />
  <path
     d="M63.9961,101.922h -6.80315"
     fill="none"
     stroke="black"
     id="path216" />
  <path
     d="M63.9961,95.325h -6.80315"
     fill="none"
     stroke="black"
     id="path217" />
  <path
     d="M63.9961,88.7277h -6.80315"
     fill="none"
     stroke="black"
     id="path218" />
  <path
     d="M70.7992,82.1304h -13.6063"
     fill="none"
     stroke="black"
     id="path219" />
  <path
     d="M63.9961,75.5331h -6.80315"
     fill="none"
     stroke="black"
     id="path220" />
  <path
     d="M63.9961,68.9359h -6.80315"
     fill="none"
     stroke="black"
     id="path221" />
  <path
     d="M63.9961,62.3386h -6.80315"
     fill="none"
     stroke="black"
     id="path222" />
  <path
     d="M63.9961,55.7413h -6.80315"
     fill="none"
     stroke="black"
     id="path223" />
  <path
     d="M70.7992,49.144h -13.6063"
     fill="none"
     stroke="black"
     id="path224" />
  <path
     d="M70.7992,49.144h -13.6063"
     fill="none"
     stroke="black"
     id="path225" />
  <path
     d="M63.9961,42.5467h -6.80315"
     fill="none"
     stroke="black"
     id="path226" />
  <text
     xml:space="preserve"
     x="47.7441"
     y="350.258"
     fill="black"
     font-size="12.8453"
     font-family="Helvetica"
     id="text226">0</text>
  <text
     xml:space="preserve"
     x="24.122"
     y="317.676"
     fill="black"
     font-size="12.8453"
     font-family="Helvetica"
     id="text227">0.005</text>
  <text
     xml:space="preserve"
     x="32.2676"
     y="284.279"
     fill="black"
     font-size="12.8453"
     font-family="Helvetica"
     id="text228">0.01</text>
  <text
     xml:space="preserve"
     x="24.122"
     y="251.697"
     fill="black"
     font-size="12.8453"
     font-family="Helvetica"
     id="text229">0.015</text>
  <text
     xml:space="preserve"
     x="30.6385"
     y="218.3"
     fill="black"
     font-size="12.8453"
     font-family="Helvetica"
     id="text230">0.02</text>
  <text
     xml:space="preserve"
     x="24.122"
     y="185.718"
     fill="black"
     font-size="12.8453"
     font-family="Helvetica"
     id="text231">0.025</text>
  <text
     xml:space="preserve"
     x="30.6385"
     y="152.321"
     fill="black"
     font-size="12.8453"
     font-family="Helvetica"
     id="text232">0.03</text>
  <text
     xml:space="preserve"
     x="24.122"
     y="119.739"
     fill="black"
     font-size="12.8453"
     font-family="Helvetica"
     id="text233">0.035</text>
  <text
     xml:space="preserve"
     x="30.6385"
     y="86.3427"
     fill="black"
     font-size="12.8453"
     font-family="Helvetica"
     id="text234">0.04</text>
  <text
     xml:space="preserve"
     x="24.122"
     y="53.7605"
     fill="black"
     font-size="12.8453"
     font-family="Helvetica"
     id="text235">0.045</text>
  <g
     transform="rotate(-90,11.0892,143.361)"
     id="g236">
    <text
       xml:space="preserve"
       x="-71.744072"
       y="148.03706"
       fill="#000000"
       font-size="12.8453px"
       font-family="Helvetica"
       id="text236"> Wahrscheinlichkeit</text>
  </g>
  <path
     d="M57.1929,346.022h 95.2441v -54.3899h 4.53543v -12.7581h 4.53543v -9.40073h 4.53543v -27.5307h 4.53543v 2.68592h 4.53543v -26.8592h 4.53543v -2.68592h 4.53543v -28.8737h 4.53543v -12.0866h 4.53543v 3.3574h 4.53543v -13.4296h 4.53543v 1.34296h  4.53543v -38.9459h 4.53543v -6.7148h 4.53543v 1.34296h 4.53543v -14.1011h 4.53543v 30.2166h 4.53543v -3.3574h 4.53543v -9.40073h 4.53543v -16.1155h 4.53543v 29.5451h 4.53543v 14.1011h 4.53543v -31.5596h 4.53543v 21.4874h 4.53543v 18.8015h 4.53543v  -1.34296h 4.53543v 8.05777h 4.53543v 21.4874h 4.53543v 6.7148h 4.53543v 16.1155h 4.53543v 3.3574h 4.53543v 5.37184h 9.07087v 24.8448h 4.53543v -10.7437h 4.53543v 8.72925h 4.53543v 21.4874h 9.07087v 22.8303h 4.53543v -4.70036h 4.53543v 5.37184h  4.53543v 2.01444h 4.53543v 12.0866h 4.53543v 11.4152h 4.53543v -3.3574h 4.53543v -8.72925h 4.53543v 14.1011h 4.53543v 5.37184h 4.53543v 2.01444h 4.53543v 0.67148h 4.53543v 8.72925h 4.53543v -6.04332h 4.53543v 4.70036h 4.53543v 4.70036h 4.53543v  4.02888h 4.53543v -6.04332h 4.53543v 8.72925h 4.53543v -1.34296h 4.53543v -1.34296h 4.53543v 2.01444h 9.07087v 2.01444h 4.53543v 0.67148h 4.53543v -0.67148h 4.53543v 1.34296h 9.07087v 0.67148h 4.53543v -0.67148h 13.6063v 0.67148h 40.8189"
     fill="none"
     stroke="#00ff00"
     stroke-width="2"
     id="path236" />
  <text
     xml:space="preserve"
     x="100.90478"
     y="19.275444"
     fill="#000000"
     font-size="14.3761px"
     font-family="Helvetica"
     id="text237"
     transform="scale(0.75002033,1.3332972)"
     style="stroke-width:1.45006"> Histogramm der Wahrscheinlichkeit der Teilchenanzahl pro Ereignis mit cut (89 GeV)</text>
  <text
     xml:space="preserve"
     x="370.27795"
     y="134.26131"
     fill="#ff0000"
     font-size="18.1362px"
     font-family="Helvetica"
     font-weight="bold"
     id="text238">L3</text>
  <text
     xml:space="preserve"
     x="342.31305"
     y="166.57695"
     fill="#00ff00"
     font-size="18.1362px"
     font-family="Helvetica"
     font-weight="bold"
     id="text239">Monte Carlo</text>
  <metadata
     id="metadata1">
    <rdf:RDF>
      <cc:Work
         rdf:about="">
        <dc:title>
Output/plot.svg
</dc:title>
      </cc:Work>
    </rdf:RDF>
  </metadata>
</svg>
