<?xml version="1.0" encoding="UTF-8" standalone="no"?>
<svg
   width="567.429"
   height="384.969"
   viewBox="0 0 567.429 384.969"
   shape-rendering="crispEdges"
   version="1.1"
   id="svg197"
   sodipodi:docname="89_E_M_oc.svg"
   inkscape:version="1.4.2 (f4327f4, 2025-05-13)"
   xmlns:inkscape="http://www.inkscape.org/namespaces/inkscape"
   xmlns:sodipodi="http://sodipodi.sourceforge.net/DTD/sodipodi-0.dtd"
   xmlns="http://www.w3.org/2000/svg"
   xmlns:svg="http://www.w3.org/2000/svg">
  <sodipodi:namedview
     id="namedview197"
     pagecolor="#ffffff"
     bordercolor="#000000"
     borderopacity="0.25"
     inkscape:showpageshadow="2"
     inkscape:pageopacity="0.0"
     inkscape:pagecheckerboard="0"
     inkscape:deskcolor="#d1d1d1"
     inkscape:zoom="0.8"
     inkscape:cx="217.5"
     inkscape:cy="-33.125"
     inkscape:window-width="1920"
     inkscape:window-height="1017"
     inkscape:window-x="-8"
     inkscape:window-y="-8"
     inkscape:window-maximized="1"
     inkscape:current-layer="svg197" />
  <title
     id="title1">
Output/plot.svg
</title>
  <desc
     id="desc1">
Creator: ROOT Version 6.24/06
CreationDate: Fri Mar 13 11:42:56 2026</desc>
  <defs
     id="defs1" />
  <rect
     x="0.5"
     y="0"
     width="566.929"
     height="384.469"
     fill="#fefefe"
     id="rect1" />
  <rect
     x="57.1929"
     y="38.4469"
     width="453.543"
     height="307.575"
     fill="#fefefe"
     id="rect2" />
  <rect
     x="57.1929"
     y="38.4469"
     width="453.543"
     height="307.575"
     fill="none"
     stroke="black"
     id="rect3" />
  <rect
     x="57.1929"
     y="38.4469"
     width="453.543"
     height="307.575"
     fill="#fefefe"
     id="rect4" />
  <rect
     x="57.1929"
     y="38.4469"
     width="453.543"
     height="307.575"
     fill="none"
     stroke="black"
     id="rect5" />
  <path
     d="M61.7284,309.387v -4.78168"
     fill="none"
     stroke="#000099"
     id="path5" />
  <path
     d="M61.7284,291.572v -4.78168"
     fill="none"
     stroke="#000099"
     id="path6" />
  <g
     fill="#ff0000"
     id="g6">
    <circle
       cx="61.7284"
       cy="298.088"
       r="6.51643"
       id="circle6" />
  </g>
  <path
     d="M70.7992,199.391v -14.6204"
     fill="none"
     stroke="#000099"
     id="path7" />
  <path
     d="M70.7992,171.737v -14.6204"
     fill="none"
     stroke="#000099"
     id="path8" />
  <g
     fill="#ff0000"
     id="g8">
    <circle
       cx="70.7992"
       cy="178.254"
       r="6.51643"
       id="circle8" />
  </g>
  <path
     d="M79.8701,106.353v -20.1135"
     fill="none"
     stroke="#000099"
     id="path9" />
  <path
     d="M79.8701,73.2068v -20.1135"
     fill="none"
     stroke="#000099"
     id="path10" />
  <g
     fill="#ff0000"
     id="g10">
    <circle
       cx="79.8701"
       cy="79.7233"
       r="6.51643"
       id="circle10" />
  </g>
  <path
     d="M88.9409,174.377v -16.2362"
     fill="none"
     stroke="#000099"
     id="path11" />
  <path
     d="M88.9409,145.108v -16.2362"
     fill="none"
     stroke="#000099"
     id="path12" />
  <g
     fill="#ff0000"
     id="g12">
    <circle
       cx="88.9409"
       cy="151.624"
       r="6.51643"
       id="circle12" />
  </g>
  <path
     d="M98.0118,189.399v -15.2811"
     fill="none"
     stroke="#000099"
     id="path13" />
  <path
     d="M98.0118,161.086v -15.2811"
     fill="none"
     stroke="#000099"
     id="path14" />
  <g
     fill="#ff0000"
     id="g14">
    <circle
       cx="98.0118"
       cy="167.602"
       r="6.51643"
       id="circle14" />
  </g>
  <path
     d="M107.083,141.701v -18.1791"
     fill="none"
     stroke="#000099"
     id="path15" />
  <path
     d="M107.083,110.489v -18.1791"
     fill="none"
     stroke="#000099"
     id="path16" />
  <g
     fill="#ff0000"
     id="g16">
    <circle
       cx="107.083"
       cy="117.005"
       r="6.51643"
       id="circle16" />
  </g>
  <path
     d="M116.154,221.79v -13.0525"
     fill="none"
     stroke="#000099"
     id="path17" />
  <path
     d="M116.154,195.704v -13.0525"
     fill="none"
     stroke="#000099"
     id="path18" />
  <g
     fill="#ff0000"
     id="g18">
    <circle
       cx="116.154"
       cy="202.221"
       r="6.51643"
       id="circle18" />
  </g>
  <path
     d="M125.224,204.378v -14.2822"
     fill="none"
     stroke="#000099"
     id="path19" />
  <path
     d="M125.224,177.063v -14.2822"
     fill="none"
     stroke="#000099"
     id="path20" />
  <g
     fill="#ff0000"
     id="g20">
    <circle
       cx="125.224"
       cy="183.58"
       r="6.51643"
       id="circle20" />
  </g>
  <path
     d="M134.295,211.85v -13.7643"
     fill="none"
     stroke="#000099"
     id="path21" />
  <path
     d="M134.295,185.052v -13.7643"
     fill="none"
     stroke="#000099"
     id="path22" />
  <g
     fill="#ff0000"
     id="g22">
    <circle
       cx="134.295"
       cy="191.569"
       r="6.51643"
       id="circle22" />
  </g>
  <path
     d="M143.366,239.118v -11.7401"
     fill="none"
     stroke="#000099"
     id="path23" />
  <path
     d="M143.366,214.345v -11.7401"
     fill="none"
     stroke="#000099"
     id="path24" />
  <g
     fill="#ff0000"
     id="g24">
    <circle
       cx="143.366"
       cy="220.862"
       r="6.51643"
       id="circle24" />
  </g>
  <path
     d="M152.437,268.572v -9.23803"
     fill="none"
     stroke="#000099"
     id="path25" />
  <path
     d="M152.437,246.301v -9.23803"
     fill="none"
     stroke="#000099"
     id="path26" />
  <g
     fill="#ff0000"
     id="g26">
    <circle
       cx="152.437"
       cy="252.818"
       r="6.51643"
       id="circle26" />
  </g>
  <path
     d="M161.508,251.435v -10.7417"
     fill="none"
     stroke="#000099"
     id="path27" />
  <path
     d="M161.508,227.66v -10.7417"
     fill="none"
     stroke="#000099"
     id="path28" />
  <g
     fill="#ff0000"
     id="g28">
    <circle
       cx="161.508"
       cy="234.177"
       r="6.51643"
       id="circle28" />
  </g>
  <path
     d="M170.579,244.052v -11.3475"
     fill="none"
     stroke="#000099"
     id="path29" />
  <path
     d="M170.579,219.671v -11.3475"
     fill="none"
     stroke="#000099"
     id="path30" />
  <g
     fill="#ff0000"
     id="g30">
    <circle
       cx="170.579"
       cy="226.188"
       r="6.51643"
       id="circle30" />
  </g>
  <path
     d="M179.65,285.55v -7.57479"
     fill="none"
     stroke="#000099"
     id="path31" />
  <path
     d="M179.65,264.942v -7.57479"
     fill="none"
     stroke="#000099"
     id="path32" />
  <g
     fill="#ff0000"
     id="g32">
    <circle
       cx="179.65"
       cy="271.459"
       r="6.51643"
       id="circle32" />
  </g>
  <path
     d="M188.72,285.55v -7.57479"
     fill="none"
     stroke="#000099"
     id="path33" />
  <path
     d="M188.72,264.942v -7.57479"
     fill="none"
     stroke="#000099"
     id="path34" />
  <g
     fill="#ff0000"
     id="g34">
    <circle
       cx="188.72"
       cy="271.459"
       r="6.51643"
       id="circle34" />
  </g>
  <path
     d="M197.791,268.572v -9.23803"
     fill="none"
     stroke="#000099"
     id="path35" />
  <path
     d="M197.791,246.301v -9.23803"
     fill="none"
     stroke="#000099"
     id="path36" />
  <g
     fill="#ff0000"
     id="g36">
    <circle
       cx="197.791"
       cy="252.818"
       r="6.51643"
       id="circle36" />
  </g>
  <path
     d="M206.862,309.387v -4.78168"
     fill="none"
     stroke="#000099"
     id="path37" />
  <path
     d="M206.862,291.572v -4.78168"
     fill="none"
     stroke="#000099"
     id="path38" />
  <g
     fill="#ff0000"
     id="g38">
    <circle
       cx="206.862"
       cy="298.088"
       r="6.51643"
       id="circle38" />
  </g>
  <path
     d="M215.933,299.927v -5.9741"
     fill="none"
     stroke="#000099"
     id="path39" />
  <path
     d="M215.933,280.92v -5.9741"
     fill="none"
     stroke="#000099"
     id="path40" />
  <g
     fill="#ff0000"
     id="g40">
    <circle
       cx="215.933"
       cy="287.436"
       r="6.51643"
       id="circle40" />
  </g>
  <path
     d="M225.004,299.927v -5.9741"
     fill="none"
     stroke="#000099"
     id="path41" />
  <path
     d="M225.004,280.92v -5.9741"
     fill="none"
     stroke="#000099"
     id="path42" />
  <g
     fill="#ff0000"
     id="g42">
    <circle
       cx="225.004"
       cy="287.436"
       r="6.51643"
       id="circle42" />
  </g>
  <path
     d="M234.075,307.033v -5.09128"
     fill="none"
     stroke="#000099"
     id="path43" />
  <path
     d="M234.075,288.909v -5.09128"
     fill="none"
     stroke="#000099"
     id="path44" />
  <g
     fill="#ff0000"
     id="g44">
    <circle
       cx="234.075"
       cy="295.425"
       r="6.51643"
       id="circle44" />
  </g>
  <path
     d="M243.146,325.561v -2.31571"
     fill="none"
     stroke="#000099"
     id="path45" />
  <path
     d="M243.146,310.213v -2.31571"
     fill="none"
     stroke="#000099"
     id="path46" />
  <g
     fill="#ff0000"
     id="g46">
    <circle
       cx="243.146"
       cy="316.729"
       r="6.51643"
       id="circle46" />
  </g>
  <path
     d="M252.217,318.704v -3.44757"
     fill="none"
     stroke="#000099"
     id="path47" />
  <path
     d="M252.217,302.224v -3.44757"
     fill="none"
     stroke="#000099"
     id="path48" />
  <g
     fill="#ff0000"
     id="g48">
    <circle
       cx="252.217"
       cy="308.74"
       r="6.51643"
       id="circle48" />
  </g>
  <path
     d="M261.287,332.25v -1.01565"
     fill="none"
     stroke="#000099"
     id="path49" />
  <path
     d="M261.287,318.202v -1.01565"
     fill="none"
     stroke="#000099"
     id="path50" />
  <g
     fill="#ff0000"
     id="g50">
    <circle
       cx="261.287"
       cy="324.718"
       r="6.51643"
       id="circle50" />
  </g>
  <path
     d="M270.358,318.704v -3.44757"
     fill="none"
     stroke="#000099"
     id="path51" />
  <path
     d="M270.358,302.224v -3.44757"
     fill="none"
     stroke="#000099"
     id="path52" />
  <g
     fill="#ff0000"
     id="g52">
    <circle
       cx="270.358"
       cy="308.74"
       r="6.51643"
       id="circle52" />
  </g>
  <path
     d="M279.429,327.813v -1.90469"
     fill="none"
     stroke="#000099"
     id="path53" />
  <path
     d="M279.429,312.876v -1.90469"
     fill="none"
     stroke="#000099"
     id="path54" />
  <g
     fill="#ff0000"
     id="g54">
    <circle
       cx="279.429"
       cy="319.392"
       r="6.51643"
       id="circle54" />
  </g>
  <path
     d="M288.5,327.813v -1.90469"
     fill="none"
     stroke="#000099"
     id="path55" />
  <path
     d="M288.5,312.876v -1.90469"
     fill="none"
     stroke="#000099"
     id="path56" />
  <g
     fill="#ff0000"
     id="g56">
    <circle
       cx="288.5"
       cy="319.392"
       r="6.51643"
       id="circle56" />
  </g>
  <path
     d="M297.571,334.427v -0.529182"
     fill="none"
     stroke="#000099"
     id="path57" />
  <path
     d="M297.571,320.865v -0.529182"
     fill="none"
     stroke="#000099"
     id="path58" />
  <g
     fill="#ff0000"
     id="g58">
    <circle
       cx="297.571"
       cy="327.381"
       r="6.51643"
       id="circle58" />
  </g>
  <path
     d="M306.642,314.066v -4.13553"
     fill="none"
     stroke="#000099"
     id="path59" />
  <path
     d="M306.642,296.898v -4.13553"
     fill="none"
     stroke="#000099"
     id="path60" />
  <g
     fill="#ff0000"
     id="g60">
    <circle
       cx="306.642"
       cy="303.414"
       r="6.51643"
       id="circle60" />
  </g>
  <path
     d="M315.713,323.291v -2.70844"
     fill="none"
     stroke="#000099"
     id="path61" />
  <path
     d="M315.713,307.55v -2.70844"
     fill="none"
     stroke="#000099"
     id="path62" />
  <g
     fill="#ff0000"
     id="g62">
    <circle
       cx="315.713"
       cy="314.066"
       r="6.51643"
       id="circle62" />
  </g>
  <path
     d="M324.783,332.25v -1.01565"
     fill="none"
     stroke="#000099"
     id="path63" />
  <path
     d="M324.783,318.202v -1.01565"
     fill="none"
     stroke="#000099"
     id="path64" />
  <g
     fill="#ff0000"
     id="g64">
    <circle
       cx="324.783"
       cy="324.718"
       r="6.51643"
       id="circle64" />
  </g>
  <path
     d="M333.854,325.561v -2.31571"
     fill="none"
     stroke="#000099"
     id="path65" />
  <path
     d="M333.854,310.213v -2.31571"
     fill="none"
     stroke="#000099"
     id="path66" />
  <g
     fill="#ff0000"
     id="g66">
    <circle
       cx="333.854"
       cy="316.729"
       r="6.51643"
       id="circle66" />
  </g>
  <path
     d="M342.925,330.044v -1.47254"
     fill="none"
     stroke="#000099"
     id="path67" />
  <path
     d="M342.925,315.539v -1.47254"
     fill="none"
     stroke="#000099"
     id="path68" />
  <g
     fill="#ff0000"
     id="g68">
    <circle
       cx="342.925"
       cy="322.055"
       r="6.51643"
       id="circle68" />
  </g>
  <path
     d="M351.996,327.813v -1.90469"
     fill="none"
     stroke="#000099"
     id="path69" />
  <path
     d="M351.996,312.876v -1.90469"
     fill="none"
     stroke="#000099"
     id="path70" />
  <g
     fill="#ff0000"
     id="g70">
    <circle
       cx="351.996"
       cy="319.392"
       r="6.51643"
       id="circle70" />
  </g>
  <path
     d="M361.067,327.813v -1.90469"
     fill="none"
     stroke="#000099"
     id="path71" />
  <path
     d="M361.067,312.876v -1.90469"
     fill="none"
     stroke="#000099"
     id="path72" />
  <g
     fill="#ff0000"
     id="g72">
    <circle
       cx="361.067"
       cy="319.392"
       r="6.51643"
       id="circle72" />
  </g>
  <path
     d="M370.138,307.033v -5.09128"
     fill="none"
     stroke="#000099"
     id="path73" />
  <path
     d="M370.138,288.909v -5.09128"
     fill="none"
     stroke="#000099"
     id="path74" />
  <g
     fill="#ff0000"
     id="g74">
    <circle
       cx="370.138"
       cy="295.425"
       r="6.51643"
       id="circle74" />
  </g>
  <path
     d="M379.209,268.572v -9.23803"
     fill="none"
     stroke="#000099"
     id="path75" />
  <path
     d="M379.209,246.301v -9.23803"
     fill="none"
     stroke="#000099"
     id="path76" />
  <g
     fill="#ff0000"
     id="g76">
    <circle
       cx="379.209"
       cy="252.818"
       r="6.51643"
       id="circle76" />
  </g>
  <path
     d="M388.28,309.387v -4.78168"
     fill="none"
     stroke="#000099"
     id="path77" />
  <path
     d="M388.28,291.572v -4.78168"
     fill="none"
     stroke="#000099"
     id="path78" />
  <g
     fill="#ff0000"
     id="g78">
    <circle
       cx="388.28"
       cy="298.088"
       r="6.51643"
       id="circle78" />
  </g>
  <path
     d="M397.35,332.25v -1.01565"
     fill="none"
     stroke="#000099"
     id="path79" />
  <path
     d="M397.35,318.202v -1.01565"
     fill="none"
     stroke="#000099"
     id="path80" />
  <g
     fill="#ff0000"
     id="g80">
    <circle
       cx="397.35"
       cy="324.718"
       r="6.51643"
       id="circle80" />
  </g>
  <path
     d="M406.421,323.291v -2.70844"
     fill="none"
     stroke="#000099"
     id="path81" />
  <path
     d="M406.421,307.55v -2.70844"
     fill="none"
     stroke="#000099"
     id="path82" />
  <g
     fill="#ff0000"
     id="g82">
    <circle
       cx="406.421"
       cy="314.066"
       r="6.51643"
       id="circle82" />
  </g>
  <path
     d="M415.492,330.044v -1.47254"
     fill="none"
     stroke="#000099"
     id="path83" />
  <path
     d="M415.492,315.539v -1.47254"
     fill="none"
     stroke="#000099"
     id="path84" />
  <g
     fill="#ff0000"
     id="g84">
    <circle
       cx="415.492"
       cy="322.055"
       r="6.51643"
       id="circle84" />
  </g>
  <path
     d="M424.563,336.567v -0.00653979"
     fill="none"
     stroke="#000099"
     id="path85" />
  <path
     d="M424.563,323.528v -0.00653979"
     fill="none"
     stroke="#000099"
     id="path86" />
  <g
     fill="#ff0000"
     id="g86">
    <circle
       cx="424.563"
       cy="330.044"
       r="6.51643"
       id="circle86" />
  </g>
  <path
     d="M433.634,332.25v -1.01565"
     fill="none"
     stroke="#000099"
     id="path87" />
  <path
     d="M433.634,318.202v -1.01565"
     fill="none"
     stroke="#000099"
     id="path88" />
  <g
     fill="#ff0000"
     id="g88">
    <circle
       cx="433.634"
       cy="324.718"
       r="6.51643"
       id="circle88" />
  </g>
  <path
     d="M442.705,336.567v -0.00653979"
     fill="none"
     stroke="#000099"
     id="path89" />
  <path
     d="M442.705,323.528v -0.00653979"
     fill="none"
     stroke="#000099"
     id="path90" />
  <g
     fill="#ff0000"
     id="g90">
    <circle
       cx="442.705"
       cy="330.044"
       r="6.51643"
       id="circle90" />
  </g>
  <g
     fill="#ff0000"
     id="g91">
    <circle
       cx="451.776"
       cy="335.37"
       r="6.51643"
       id="circle91" />
  </g>
  <g
     fill="#ff0000"
     id="g92">
    <circle
       cx="469.917"
       cy="338.033"
       r="6.51643"
       id="circle92" />
  </g>
  <path
     d="M478.988,330.044v -1.47254"
     fill="none"
     stroke="#000099"
     id="path92" />
  <path
     d="M478.988,315.539v -1.47254"
     fill="none"
     stroke="#000099"
     id="path93" />
  <g
     fill="#ff0000"
     id="g93">
    <circle
       cx="478.988"
       cy="322.055"
       r="6.51643"
       id="circle93" />
  </g>
  <g
     fill="#ff0000"
     id="g94">
    <circle
       cx="488.059"
       cy="340.696"
       r="6.51643"
       id="circle94" />
  </g>
  <g
     fill="#ff0000"
     id="g95">
    <circle
       cx="497.13"
       cy="340.696"
       r="6.51643"
       id="circle95" />
  </g>
  <g
     fill="#ff0000"
     id="g96">
    <circle
       cx="506.201"
       cy="340.696"
       r="6.51643"
       id="circle96" />
  </g>
  <path
     d="M57.1929,346.022h 453.543"
     fill="none"
     stroke="black"
     id="path96" />
  <path
     d="M57.1929,336.795v 9.22726"
     fill="none"
     stroke="black"
     id="path97" />
  <path
     d="M73.3909,341.409v 4.61363"
     fill="none"
     stroke="black"
     id="path98" />
  <path
     d="M89.5889,341.409v 4.61363"
     fill="none"
     stroke="black"
     id="path99" />
  <path
     d="M105.787,341.409v 4.61363"
     fill="none"
     stroke="black"
     id="path100" />
  <path
     d="M121.985,336.795v 9.22726"
     fill="none"
     stroke="black"
     id="path101" />
  <path
     d="M138.183,341.409v 4.61363"
     fill="none"
     stroke="black"
     id="path102" />
  <path
     d="M154.381,341.409v 4.61363"
     fill="none"
     stroke="black"
     id="path103" />
  <path
     d="M170.579,341.409v 4.61363"
     fill="none"
     stroke="black"
     id="path104" />
  <path
     d="M186.777,336.795v 9.22726"
     fill="none"
     stroke="black"
     id="path105" />
  <path
     d="M202.975,341.409v 4.61363"
     fill="none"
     stroke="black"
     id="path106" />
  <path
     d="M219.173,341.409v 4.61363"
     fill="none"
     stroke="black"
     id="path107" />
  <path
     d="M235.371,341.409v 4.61363"
     fill="none"
     stroke="black"
     id="path108" />
  <path
     d="M251.569,336.795v 9.22726"
     fill="none"
     stroke="black"
     id="path109" />
  <path
     d="M267.767,341.409v 4.61363"
     fill="none"
     stroke="black"
     id="path110" />
  <path
     d="M283.965,341.409v 4.61363"
     fill="none"
     stroke="black"
     id="path111" />
  <path
     d="M300.163,341.409v 4.61363"
     fill="none"
     stroke="black"
     id="path112" />
  <path
     d="M316.361,336.795v 9.22726"
     fill="none"
     stroke="black"
     id="path113" />
  <path
     d="M332.559,341.409v 4.61363"
     fill="none"
     stroke="black"
     id="path114" />
  <path
     d="M348.756,341.409v 4.61363"
     fill="none"
     stroke="black"
     id="path115" />
  <path
     d="M364.954,341.409v 4.61363"
     fill="none"
     stroke="black"
     id="path116" />
  <path
     d="M381.152,336.795v 9.22726"
     fill="none"
     stroke="black"
     id="path117" />
  <path
     d="M397.35,341.409v 4.61363"
     fill="none"
     stroke="black"
     id="path118" />
  <path
     d="M413.548,341.409v 4.61363"
     fill="none"
     stroke="black"
     id="path119" />
  <path
     d="M429.746,341.409v 4.61363"
     fill="none"
     stroke="black"
     id="path120" />
  <path
     d="M445.944,336.795v 9.22726"
     fill="none"
     stroke="black"
     id="path121" />
  <path
     d="M462.142,341.409v 4.61363"
     fill="none"
     stroke="black"
     id="path122" />
  <path
     d="M478.34,341.409v 4.61363"
     fill="none"
     stroke="black"
     id="path123" />
  <path
     d="M494.538,341.409v 4.61363"
     fill="none"
     stroke="black"
     id="path124" />
  <path
     d="M510.736,336.795v 9.22726"
     fill="none"
     stroke="black"
     id="path125" />
  <path
     d="M510.736,336.795v 9.22726"
     fill="none"
     stroke="black"
     id="path126" />
  <text
     xml:space="preserve"
     x="53.446"
     y="358.403"
     fill="black"
     font-size="12.8453"
     font-family="Helvetica"
     id="text126">0</text>
  <text
     xml:space="preserve"
     x="112.908"
     y="358.403"
     fill="black"
     font-size="12.8453"
     font-family="Helvetica"
     id="text127">0.2</text>
  <text
     xml:space="preserve"
     x="177.258"
     y="358.403"
     fill="black"
     font-size="12.8453"
     font-family="Helvetica"
     id="text128">0.4</text>
  <text
     xml:space="preserve"
     x="242.422"
     y="358.403"
     fill="black"
     font-size="12.8453"
     font-family="Helvetica"
     id="text129">0.6</text>
  <text
     xml:space="preserve"
     x="306.772"
     y="358.403"
     fill="black"
     font-size="12.8453"
     font-family="Helvetica"
     id="text130">0.8</text>
  <text
     xml:space="preserve"
     x="378.453"
     y="358.403"
     fill="black"
     font-size="12.8453"
     font-family="Helvetica"
     id="text131">1</text>
  <text
     xml:space="preserve"
     x="436.286"
     y="358.403"
     fill="black"
     font-size="12.8453"
     font-family="Helvetica"
     id="text132">1.2</text>
  <text
     xml:space="preserve"
     x="501.45"
     y="358.403"
     fill="black"
     font-size="12.8453"
     font-family="Helvetica"
     id="text133">1.4</text>
  <text
     xml:space="preserve"
     x="177.258"
     y="371.436"
     fill="black"
     font-size="12.8453"
     font-family="Helvetica"
     id="text134"> Teilchenenergie normiert auf die halbe Schwerpunktsenergie</text>
  <path
     d="M57.1929,346.022v -307.575"
     fill="none"
     stroke="black"
     id="path134" />
  <path
     d="M70.7992,346.022h -13.6063"
     fill="none"
     stroke="black"
     id="path135" />
  <path
     d="M63.9961,339.557h -6.80315"
     fill="none"
     stroke="black"
     id="path136" />
  <path
     d="M63.9961,333.091h -6.80315"
     fill="none"
     stroke="black"
     id="path137" />
  <path
     d="M63.9961,326.625h -6.80315"
     fill="none"
     stroke="black"
     id="path138" />
  <path
     d="M63.9961,320.159h -6.80315"
     fill="none"
     stroke="black"
     id="path139" />
  <path
     d="M70.7992,313.694h -13.6063"
     fill="none"
     stroke="black"
     id="path140" />
  <path
     d="M63.9961,307.228h -6.80315"
     fill="none"
     stroke="black"
     id="path141" />
  <path
     d="M63.9961,300.762h -6.80315"
     fill="none"
     stroke="black"
     id="path142" />
  <path
     d="M63.9961,294.296h -6.80315"
     fill="none"
     stroke="black"
     id="path143" />
  <path
     d="M63.9961,287.831h -6.80315"
     fill="none"
     stroke="black"
     id="path144" />
  <path
     d="M70.7992,281.365h -13.6063"
     fill="none"
     stroke="black"
     id="path145" />
  <path
     d="M63.9961,274.899h -6.80315"
     fill="none"
     stroke="black"
     id="path146" />
  <path
     d="M63.9961,268.433h -6.80315"
     fill="none"
     stroke="black"
     id="path147" />
  <path
     d="M63.9961,261.968h -6.80315"
     fill="none"
     stroke="black"
     id="path148" />
  <path
     d="M63.9961,255.502h -6.80315"
     fill="none"
     stroke="black"
     id="path149" />
  <path
     d="M70.7992,249.036h -13.6063"
     fill="none"
     stroke="black"
     id="path150" />
  <path
     d="M63.9961,242.57h -6.80315"
     fill="none"
     stroke="black"
     id="path151" />
  <path
     d="M63.9961,236.105h -6.80315"
     fill="none"
     stroke="black"
     id="path152" />
  <path
     d="M63.9961,229.639h -6.80315"
     fill="none"
     stroke="black"
     id="path153" />
  <path
     d="M63.9961,223.173h -6.80315"
     fill="none"
     stroke="black"
     id="path154" />
  <path
     d="M70.7992,216.707h -13.6063"
     fill="none"
     stroke="black"
     id="path155" />
  <path
     d="M63.9961,210.242h -6.80315"
     fill="none"
     stroke="black"
     id="path156" />
  <path
     d="M63.9961,203.776h -6.80315"
     fill="none"
     stroke="black"
     id="path157" />
  <path
     d="M63.9961,197.31h -6.80315"
     fill="none"
     stroke="black"
     id="path158" />
  <path
     d="M63.9961,190.845h -6.80315"
     fill="none"
     stroke="black"
     id="path159" />
  <path
     d="M70.7992,184.379h -13.6063"
     fill="none"
     stroke="black"
     id="path160" />
  <path
     d="M63.9961,177.913h -6.80315"
     fill="none"
     stroke="black"
     id="path161" />
  <path
     d="M63.9961,171.447h -6.80315"
     fill="none"
     stroke="black"
     id="path162" />
  <path
     d="M63.9961,164.982h -6.80315"
     fill="none"
     stroke="black"
     id="path163" />
  <path
     d="M63.9961,158.516h -6.80315"
     fill="none"
     stroke="black"
     id="path164" />
  <path
     d="M70.7992,152.05h -13.6063"
     fill="none"
     stroke="black"
     id="path165" />
  <path
     d="M63.9961,145.584h -6.80315"
     fill="none"
     stroke="black"
     id="path166" />
  <path
     d="M63.9961,139.119h -6.80315"
     fill="none"
     stroke="black"
     id="path167" />
  <path
     d="M63.9961,132.653h -6.80315"
     fill="none"
     stroke="black"
     id="path168" />
  <path
     d="M63.9961,126.187h -6.80315"
     fill="none"
     stroke="black"
     id="path169" />
  <path
     d="M70.7992,119.721h -13.6063"
     fill="none"
     stroke="black"
     id="path170" />
  <path
     d="M63.9961,113.256h -6.80315"
     fill="none"
     stroke="black"
     id="path171" />
  <path
     d="M63.9961,106.79h -6.80315"
     fill="none"
     stroke="black"
     id="path172" />
  <path
     d="M63.9961,100.324h -6.80315"
     fill="none"
     stroke="black"
     id="path173" />
  <path
     d="M63.9961,93.8584h -6.80315"
     fill="none"
     stroke="black"
     id="path174" />
  <path
     d="M70.7992,87.3927h -13.6063"
     fill="none"
     stroke="black"
     id="path175" />
  <path
     d="M63.9961,80.9269h -6.80315"
     fill="none"
     stroke="black"
     id="path176" />
  <path
     d="M63.9961,74.4612h -6.80315"
     fill="none"
     stroke="black"
     id="path177" />
  <path
     d="M63.9961,67.9955h -6.80315"
     fill="none"
     stroke="black"
     id="path178" />
  <path
     d="M63.9961,61.5297h -6.80315"
     fill="none"
     stroke="black"
     id="path179" />
  <path
     d="M70.7992,55.064h -13.6063"
     fill="none"
     stroke="black"
     id="path180" />
  <path
     d="M70.7992,55.064h -13.6063"
     fill="none"
     stroke="black"
     id="path181" />
  <path
     d="M63.9961,48.5982h -6.80315"
     fill="none"
     stroke="black"
     id="path182" />
  <path
     d="M63.9961,42.1325h -6.80315"
     fill="none"
     stroke="black"
     id="path183" />
  <text
     xml:space="preserve"
     x="47.7441"
     y="350.258"
     fill="black"
     font-size="12.8453"
     font-family="Helvetica"
     id="text183">0</text>
  <text
     xml:space="preserve"
     x="32.2676"
     y="318.49"
     fill="black"
     font-size="12.8453"
     font-family="Helvetica"
     id="text184">0.01</text>
  <text
     xml:space="preserve"
     x="30.6385"
     y="285.908"
     fill="black"
     font-size="12.8453"
     font-family="Helvetica"
     id="text185">0.02</text>
  <text
     xml:space="preserve"
     x="30.6385"
     y="253.326"
     fill="black"
     font-size="12.8453"
     font-family="Helvetica"
     id="text186">0.03</text>
  <text
     xml:space="preserve"
     x="30.6385"
     y="221.559"
     fill="black"
     font-size="12.8453"
     font-family="Helvetica"
     id="text187">0.04</text>
  <text
     xml:space="preserve"
     x="30.6385"
     y="188.976"
     fill="black"
     font-size="12.8453"
     font-family="Helvetica"
     id="text188">0.05</text>
  <text
     xml:space="preserve"
     x="30.6385"
     y="156.394"
     fill="black"
     font-size="12.8453"
     font-family="Helvetica"
     id="text189">0.06</text>
  <text
     xml:space="preserve"
     x="30.6385"
     y="123.812"
     fill="black"
     font-size="12.8453"
     font-family="Helvetica"
     id="text190">0.07</text>
  <text
     xml:space="preserve"
     x="30.6385"
     y="92.0445"
     fill="black"
     font-size="12.8453"
     font-family="Helvetica"
     id="text191">0.08</text>
  <text
     xml:space="preserve"
     x="30.6385"
     y="59.4624"
     fill="black"
     font-size="12.8453"
     font-family="Helvetica"
     id="text192">0.09</text>
  <g
     transform="rotate(-90,17.6056,143.361)"
     id="g193">
    <text
       xml:space="preserve"
       x="17.6056"
       y="143.361"
       fill="black"
       font-size="12.8453"
       font-family="Helvetica"
       id="text193"> Wahrscheinlichkeit</text>
  </g>
  <path
     d="M57.1929,346.022h 9.07087v -0.799226h 9.07087v -0.799226h 9.07087v -0.266409h 9.07087v 0.532817h 9.07087v -1.59845h 9.07087v -0.532817h 9.07087v 2.39768h 9.07087v -1.59845h 9.07087v -2.9305h 9.07087v 2.39768h 9.07087v 0.266409h 18.1417v  -1.86486h 9.07087v 1.59845h 9.07087v 0.532817h 9.07087v 0.799226h 9.07087v -7.19304h 9.07087v 5.32817h 9.07087v -3.99613h 9.07087v 1.06563h 9.07087v -1.33204h 9.07087v 2.13127h 9.07087v -6.39381h 9.07087v -0.532817h 9.07087v -6.66022h 9.07087v  0.799226h 9.07087v -4.26254h 9.07087v -12.2548h 9.07087v -9.85712h 9.07087v -20.5135h 9.07087v -8.79149h 9.07087v -17.0502h 9.07087v -67.6678h 9.07087v -148.529"
     fill="none"
     stroke="#00ff00"
     stroke-width="2"
     id="path193" />
  <path
     d="M392.815,38.4469v 167.444"
     fill="none"
     stroke="#00ff00"
     stroke-width="2"
     id="path194" />
  <path
     d="M392.815,205.891h 9.07087v 108.428h 9.07087v 5.32817h 9.07087v 5.32817h 9.07087v 2.9305h 9.07087v 3.72972h 9.07087v 3.72972h 9.07087v -2.9305h 9.07087v 5.86099h 9.07087v 3.72972h 18.1417v 1.33204h 18.1417"
     fill="none"
     stroke="#00ff00"
     stroke-width="2"
     id="path195" />
  <text
     xml:space="preserve"
     x="96.6173"
     y="16.2911"
     fill="black"
     font-size="12.1143"
     font-family="Helvetica"
     id="text195">Histogramm der Einteilchenenergien der Teilchen mit Myonenmasse </text>
  <text
     xml:space="preserve"
     x="256.88107"
     y="107.50774"
     fill="#ff0000"
     font-size="18.1362px"
     font-family="Helvetica"
     font-weight="bold"
     id="text156">L3</text>
  <text
     xml:space="preserve"
     x="219.561"
     y="143.67076"
     fill="#00ff00"
     font-size="18.1362px"
     font-family="Helvetica"
     font-weight="bold"
     id="text157">Monte Carlo</text>
</svg>
