<?xml version="1.0" encoding="UTF-8" standalone="no"?>
<svg
   width="567.429"
   height="384.969"
   viewBox="0 0 567.429 384.969"
   shape-rendering="crispEdges"
   version="1.1"
   id="svg241"
   sodipodi:docname="91_A_H_mc.svg"
   inkscape:version="1.4.2 (f4327f4, 2025-05-13)"
   xmlns:inkscape="http://www.inkscape.org/namespaces/inkscape"
   xmlns:sodipodi="http://sodipodi.sourceforge.net/DTD/sodipodi-0.dtd"
   xmlns="http://www.w3.org/2000/svg"
   xmlns:svg="http://www.w3.org/2000/svg">
  <sodipodi:namedview
     id="namedview241"
     pagecolor="#ffffff"
     bordercolor="#000000"
     borderopacity="0.25"
     inkscape:showpageshadow="2"
     inkscape:pageopacity="0.0"
     inkscape:pagecheckerboard="0"
     inkscape:deskcolor="#d1d1d1"
     inkscape:zoom="2.1170536"
     inkscape:cx="320.72877"
     inkscape:cy="199.56982"
     inkscape:window-width="1920"
     inkscape:window-height="1017"
     inkscape:window-x="-8"
     inkscape:window-y="-8"
     inkscape:window-maximized="1"
     inkscape:current-layer="svg241" />
  <title
     id="title1">
Output/plot.svg
</title>
  <desc
     id="desc1">
Creator: ROOT Version 6.24/06
CreationDate: Thu Mar 12 18:18:43 2026</desc>
  <defs
     id="defs1" />
  <rect
     x="0.5"
     y="0"
     width="566.929"
     height="384.469"
     fill="#fefefe"
     id="rect1" />
  <rect
     x="57.1929"
     y="38.4469"
     width="453.543"
     height="307.575"
     fill="#fefefe"
     id="rect2" />
  <rect
     x="57.1929"
     y="38.4469"
     width="453.543"
     height="307.575"
     fill="none"
     stroke="black"
     id="rect3" />
  <rect
     x="57.1929"
     y="38.4469"
     width="453.543"
     height="307.575"
     fill="#fefefe"
     id="rect4" />
  <text
     xml:space="preserve"
     x="388.37912"
     y="153.0354"
     fill="#ff0000"
     font-size="18.1362px"
     font-family="Helvetica"
     font-weight="bold"
     id="text240">L3</text>
  <text
     xml:space="preserve"
     x="346.71594"
     y="188.45264"
     fill="#00ff00"
     font-size="18.1362px"
     font-family="Helvetica"
     font-weight="bold"
     id="text241">Monte Carlo</text>
  <rect
     x="57.1929"
     y="38.4469"
     width="453.543"
     height="307.575"
     fill="none"
     stroke="black"
     id="rect5" />
  <path
     d="M150.169,283.377v -4.60412"
     fill="none"
     stroke="#000099"
     id="path5" />
  <path
     d="M150.169,265.74v -4.60412"
     fill="none"
     stroke="#000099"
     id="path6" />
  <g
     fill="#ff0000"
     id="g6">
    <circle
       cx="150.169"
       cy="272.257"
       r="6.51643"
       id="circle6" />
  </g>
  <path
     d="M154.705,272.494v -5.45608"
     fill="none"
     stroke="#000099"
     id="path7" />
  <path
     d="M154.705,254.005v -5.45608"
     fill="none"
     stroke="#000099"
     id="path8" />
  <g
     fill="#ff0000"
     id="g8">
    <circle
       cx="154.705"
       cy="260.521"
       r="6.51643"
       id="circle8" />
  </g>
  <path
     d="M159.24,270.934v -5.57288"
     fill="none"
     stroke="#000099"
     id="path9" />
  <path
     d="M159.24,252.329v -5.57288"
     fill="none"
     stroke="#000099"
     id="path10" />
  <g
     fill="#ff0000"
     id="g10">
    <circle
       cx="159.24"
       cy="258.845"
       r="6.51643"
       id="circle10" />
  </g>
  <path
     d="M163.776,241.118v -7.60989"
     fill="none"
     stroke="#000099"
     id="path11" />
  <path
     d="M163.776,220.475v -7.60989"
     fill="none"
     stroke="#000099"
     id="path12" />
  <g
     fill="#ff0000"
     id="g12">
    <circle
       cx="163.776"
       cy="226.992"
       r="6.51643"
       id="circle12" />
  </g>
  <path
     d="M168.311,247.42v -7.2062"
     fill="none"
     stroke="#000099"
     id="path13" />
  <path
     d="M168.311,227.181v -7.2062"
     fill="none"
     stroke="#000099"
     id="path14" />
  <g
     fill="#ff0000"
     id="g14">
    <circle
       cx="168.311"
       cy="233.698"
       r="6.51643"
       id="circle14" />
  </g>
  <path
     d="M172.846,233.225v -8.09884"
     fill="none"
     stroke="#000099"
     id="path15" />
  <path
     d="M172.846,212.093v -8.09884"
     fill="none"
     stroke="#000099"
     id="path16" />
  <g
     fill="#ff0000"
     id="g16">
    <circle
       cx="172.846"
       cy="218.609"
       r="6.51643"
       id="circle16" />
  </g>
  <path
     d="M177.382,237.963v -7.80747"
     fill="none"
     stroke="#000099"
     id="path17" />
  <path
     d="M177.382,217.122v -7.80747"
     fill="none"
     stroke="#000099"
     id="path18" />
  <g
     fill="#ff0000"
     id="g18">
    <circle
       cx="177.382"
       cy="223.639"
       r="6.51643"
       id="circle18" />
  </g>
  <path
     d="M181.917,203.096v -9.82394"
     fill="none"
     stroke="#000099"
     id="path19" />
  <path
     d="M181.917,180.24v -9.82394"
     fill="none"
     stroke="#000099"
     id="path20" />
  <g
     fill="#ff0000"
     id="g20">
    <circle
       cx="181.917"
       cy="186.756"
       r="6.51643"
       id="circle20" />
  </g>
  <path
     d="M186.453,190.359v -10.498"
     fill="none"
     stroke="#000099"
     id="path21" />
  <path
     d="M186.453,166.828v -10.498"
     fill="none"
     stroke="#000099"
     id="path22" />
  <g
     fill="#ff0000"
     id="g22">
    <circle
       cx="186.453"
       cy="173.344"
       r="6.51643"
       id="circle22" />
  </g>
  <path
     d="M190.988,195.139v -10.2484"
     fill="none"
     stroke="#000099"
     id="path23" />
  <path
     d="M190.988,171.857v -10.2484"
     fill="none"
     stroke="#000099"
     id="path24" />
  <g
     fill="#ff0000"
     id="g24">
    <circle
       cx="190.988"
       cy="178.374"
       r="6.51643"
       id="circle24" />
  </g>
  <path
     d="M195.524,190.359v -10.498"
     fill="none"
     stroke="#000099"
     id="path25" />
  <path
     d="M195.524,166.828v -10.498"
     fill="none"
     stroke="#000099"
     id="path26" />
  <g
     fill="#ff0000"
     id="g26">
    <circle
       cx="195.524"
       cy="173.344"
       r="6.51643"
       id="circle26" />
  </g>
  <path
     d="M200.059,193.546v -10.332"
     fill="none"
     stroke="#000099"
     id="path27" />
  <path
     d="M200.059,170.181v -10.332"
     fill="none"
     stroke="#000099"
     id="path28" />
  <g
     fill="#ff0000"
     id="g28">
    <circle
       cx="200.059"
       cy="176.697"
       r="6.51643"
       id="circle28" />
  </g>
  <path
     d="M204.594,161.609v -11.9249"
     fill="none"
     stroke="#000099"
     id="path29" />
  <path
     d="M204.594,136.651v -11.9249"
     fill="none"
     stroke="#000099"
     id="path30" />
  <g
     fill="#ff0000"
     id="g30">
    <circle
       cx="204.594"
       cy="143.167"
       r="6.51643"
       id="circle30" />
  </g>
  <path
     d="M209.13,177.595v -11.1464"
     fill="none"
     stroke="#000099"
     id="path31" />
  <path
     d="M209.13,153.416v -11.1464"
     fill="none"
     stroke="#000099"
     id="path32" />
  <g
     fill="#ff0000"
     id="g32">
    <circle
       cx="209.13"
       cy="159.932"
       r="6.51643"
       id="circle32" />
  </g>
  <path
     d="M213.665,137.571v -13.0346"
     fill="none"
     stroke="#000099"
     id="path33" />
  <path
     d="M213.665,111.504v -13.0346"
     fill="none"
     stroke="#000099"
     id="path34" />
  <g
     fill="#ff0000"
     id="g34">
    <circle
       cx="213.665"
       cy="118.02"
       r="6.51643"
       id="circle34" />
  </g>
  <path
     d="M218.201,145.591v -12.6718"
     fill="none"
     stroke="#000099"
     id="path35" />
  <path
     d="M218.201,119.886v -12.6718"
     fill="none"
     stroke="#000099"
     id="path36" />
  <g
     fill="#ff0000"
     id="g36">
    <circle
       cx="218.201"
       cy="126.403"
       r="6.51643"
       id="circle36" />
  </g>
  <path
     d="M222.736,95.7697v -14.8218"
     fill="none"
     stroke="#000099"
     id="path37" />
  <path
     d="M222.736,67.9151v -14.8218"
     fill="none"
     stroke="#000099"
     id="path38" />
  <g
     fill="#ff0000"
     id="g38">
    <circle
       cx="222.736"
       cy="74.4315"
       r="6.51643"
       id="circle38" />
  </g>
  <path
     d="M227.272,153.604v -12.3021"
     fill="none"
     stroke="#000099"
     id="path39" />
  <path
     d="M227.272,128.269v -12.3021"
     fill="none"
     stroke="#000099"
     id="path40" />
  <g
     fill="#ff0000"
     id="g40">
    <circle
       cx="227.272"
       cy="134.785"
       r="6.51643"
       id="circle40" />
  </g>
  <path
     d="M231.807,160.008v -12.001"
     fill="none"
     stroke="#000099"
     id="path41" />
  <path
     d="M231.807,134.975v -12.001"
     fill="none"
     stroke="#000099"
     id="path42" />
  <g
     fill="#ff0000"
     id="g42">
    <circle
       cx="231.807"
       cy="141.491"
       r="6.51643"
       id="circle42" />
  </g>
  <path
     d="M236.343,129.545v -13.3907"
     fill="none"
     stroke="#000099"
     id="path43" />
  <path
     d="M236.343,103.121v -13.3907"
     fill="none"
     stroke="#000099"
     id="path44" />
  <g
     fill="#ff0000"
     id="g44">
    <circle
       cx="236.343"
       cy="109.638"
       r="6.51643"
       id="circle44" />
  </g>
  <path
     d="M240.878,118.298v -13.8789"
     fill="none"
     stroke="#000099"
     id="path45" />
  <path
     d="M240.878,91.3859v -13.8789"
     fill="none"
     stroke="#000099"
     id="path46" />
  <g
     fill="#ff0000"
     id="g46">
    <circle
       cx="240.878"
       cy="97.9024"
       r="6.51643"
       id="circle46" />
  </g>
  <path
     d="M245.413,169.606v -11.5399"
     fill="none"
     stroke="#000099"
     id="path47" />
  <path
     d="M245.413,145.033v -11.5399"
     fill="none"
     stroke="#000099"
     id="path48" />
  <g
     fill="#ff0000"
     id="g48">
    <circle
       cx="245.413"
       cy="151.55"
       r="6.51643"
       id="circle48" />
  </g>
  <path
     d="M249.949,153.604v -12.3021"
     fill="none"
     stroke="#000099"
     id="path49" />
  <path
     d="M249.949,128.269v -12.3021"
     fill="none"
     stroke="#000099"
     id="path50" />
  <g
     fill="#ff0000"
     id="g50">
    <circle
       cx="249.949"
       cy="134.785"
       r="6.51643"
       id="circle50" />
  </g>
  <path
     d="M254.484,188.765v -10.5804"
     fill="none"
     stroke="#000099"
     id="path51" />
  <path
     d="M254.484,165.151v -10.5804"
     fill="none"
     stroke="#000099"
     id="path52" />
  <g
     fill="#ff0000"
     id="g52">
    <circle
       cx="254.484"
       cy="171.668"
       r="6.51643"
       id="circle52" />
  </g>
  <path
     d="M259.02,171.205v -11.4619"
     fill="none"
     stroke="#000099"
     id="path53" />
  <path
     d="M259.02,146.71v -11.4619"
     fill="none"
     stroke="#000099"
     id="path54" />
  <g
     fill="#ff0000"
     id="g54">
    <circle
       cx="259.02"
       cy="153.226"
       r="6.51643"
       id="circle54" />
  </g>
  <path
     d="M263.555,199.915v -9.99504"
     fill="none"
     stroke="#000099"
     id="path55" />
  <path
     d="M263.555,176.887v -9.99504"
     fill="none"
     stroke="#000099"
     id="path56" />
  <g
     fill="#ff0000"
     id="g56">
    <circle
       cx="263.555"
       cy="183.403"
       r="6.51643"
       id="circle56" />
  </g>
  <path
     d="M268.091,199.915v -9.99504"
     fill="none"
     stroke="#000099"
     id="path57" />
  <path
     d="M268.091,176.887v -9.99504"
     fill="none"
     stroke="#000099"
     id="path58" />
  <g
     fill="#ff0000"
     id="g58">
    <circle
       cx="268.091"
       cy="183.403"
       r="6.51643"
       id="circle58" />
  </g>
  <path
     d="M272.626,177.595v -11.1464"
     fill="none"
     stroke="#000099"
     id="path59" />
  <path
     d="M272.626,153.416v -11.1464"
     fill="none"
     stroke="#000099"
     id="path60" />
  <g
     fill="#ff0000"
     id="g60">
    <circle
       cx="272.626"
       cy="159.932"
       r="6.51643"
       id="circle60" />
  </g>
  <path
     d="M277.161,185.575v -10.7441"
     fill="none"
     stroke="#000099"
     id="path61" />
  <path
     d="M277.161,161.798v -10.7441"
     fill="none"
     stroke="#000099"
     id="path62" />
  <g
     fill="#ff0000"
     id="g62">
    <circle
       cx="277.161"
       cy="168.315"
       r="6.51643"
       id="circle62" />
  </g>
  <path
     d="M281.697,207.866v -9.56386"
     fill="none"
     stroke="#000099"
     id="path63" />
  <path
     d="M281.697,185.269v -9.56386"
     fill="none"
     stroke="#000099"
     id="path64" />
  <g
     fill="#ff0000"
     id="g64">
    <circle
       cx="281.697"
       cy="191.786"
       r="6.51643"
       id="circle64" />
  </g>
  <path
     d="M286.232,237.963v -7.80747"
     fill="none"
     stroke="#000099"
     id="path65" />
  <path
     d="M286.232,217.122v -7.80747"
     fill="none"
     stroke="#000099"
     id="path66" />
  <g
     fill="#ff0000"
     id="g66">
    <circle
       cx="286.232"
       cy="223.639"
       r="6.51643"
       id="circle66" />
  </g>
  <path
     d="M290.768,201.506v -9.90971"
     fill="none"
     stroke="#000099"
     id="path67" />
  <path
     d="M290.768,178.563v -9.90971"
     fill="none"
     stroke="#000099"
     id="path68" />
  <g
     fill="#ff0000"
     id="g68">
    <circle
       cx="290.768"
       cy="185.08"
       r="6.51643"
       id="circle68" />
  </g>
  <path
     d="M295.303,256.85v -6.57735"
     fill="none"
     stroke="#000099"
     id="path69" />
  <path
     d="M295.303,237.24v -6.57735"
     fill="none"
     stroke="#000099"
     id="path70" />
  <g
     fill="#ff0000"
     id="g70">
    <circle
       cx="295.303"
       cy="243.757"
       r="6.51643"
       id="circle70" />
  </g>
  <path
     d="M299.839,242.695v -7.51006"
     fill="none"
     stroke="#000099"
     id="path71" />
  <path
     d="M299.839,222.152v -7.51006"
     fill="none"
     stroke="#000099"
     id="path72" />
  <g
     fill="#ff0000"
     id="g72">
    <circle
       cx="299.839"
       cy="228.668"
       r="6.51643"
       id="circle72" />
  </g>
  <path
     d="M304.374,245.846v -7.30823"
     fill="none"
     stroke="#000099"
     id="path73" />
  <path
     d="M304.374,225.505v -7.30823"
     fill="none"
     stroke="#000099"
     id="path74" />
  <g
     fill="#ff0000"
     id="g74">
    <circle
       cx="304.374"
       cy="232.021"
       r="6.51643"
       id="circle74" />
  </g>
  <path
     d="M308.909,252.139v -6.89546"
     fill="none"
     stroke="#000099"
     id="path75" />
  <path
     d="M308.909,232.211v -6.89546"
     fill="none"
     stroke="#000099"
     id="path76" />
  <g
     fill="#ff0000"
     id="g76">
    <circle
       cx="308.909"
       cy="238.727"
       r="6.51643"
       id="circle76" />
  </g>
  <path
     d="M313.445,267.812v -5.80318"
     fill="none"
     stroke="#000099"
     id="path77" />
  <path
     d="M313.445,248.976v -5.80318"
     fill="none"
     stroke="#000099"
     id="path78" />
  <g
     fill="#ff0000"
     id="g78">
    <circle
       cx="313.445"
       cy="255.492"
       r="6.51643"
       id="circle78" />
  </g>
  <path
     d="M317.98,274.053v -5.33812"
     fill="none"
     stroke="#000099"
     id="path79" />
  <path
     d="M317.98,255.682v -5.33812"
     fill="none"
     stroke="#000099"
     id="path80" />
  <g
     fill="#ff0000"
     id="g80">
    <circle
       cx="317.98"
       cy="262.198"
       r="6.51643"
       id="circle80" />
  </g>
  <path
     d="M322.516,286.475v -4.34844"
     fill="none"
     stroke="#000099"
     id="path81" />
  <path
     d="M322.516,269.093v -4.34844"
     fill="none"
     stroke="#000099"
     id="path82" />
  <g
     fill="#ff0000"
     id="g82">
    <circle
       cx="322.516"
       cy="275.61"
       r="6.51643"
       id="circle82" />
  </g>
  <path
     d="M327.051,278.721v -4.97698"
     fill="none"
     stroke="#000099"
     id="path83" />
  <path
     d="M327.051,260.711v -4.97698"
     fill="none"
     stroke="#000099"
     id="path84" />
  <g
     fill="#ff0000"
     id="g84">
    <circle
       cx="327.051"
       cy="267.227"
       r="6.51643"
       id="circle84" />
  </g>
  <path
     d="M331.587,309.468v -2.19485"
     fill="none"
     stroke="#000099"
     id="path85" />
  <path
     d="M331.587,294.241v -2.19485"
     fill="none"
     stroke="#000099"
     id="path86" />
  <g
     fill="#ff0000"
     id="g86">
    <circle
       cx="331.587"
       cy="300.757"
       r="6.51643"
       id="circle86" />
  </g>
  <path
     d="M336.122,298.797v -3.25908"
     fill="none"
     stroke="#000099"
     id="path87" />
  <path
     d="M336.122,282.505v -3.25908"
     fill="none"
     stroke="#000099"
     id="path88" />
  <g
     fill="#ff0000"
     id="g88">
    <circle
       cx="336.122"
       cy="289.022"
       r="6.51643"
       id="circle88" />
  </g>
  <path
     d="M340.657,303.385v -2.81785"
     fill="none"
     stroke="#000099"
     id="path89" />
  <path
     d="M340.657,287.535v -2.81785"
     fill="none"
     stroke="#000099"
     id="path90" />
  <g
     fill="#ff0000"
     id="g90">
    <circle
       cx="340.657"
       cy="294.051"
       r="6.51643"
       id="circle90" />
  </g>
  <g
     fill="#ff0000"
     id="g91">
    <circle
       cx="345.193"
       cy="320.875"
       r="6.51643"
       id="circle91" />
  </g>
  <path
     d="M349.728,301.858v -2.96721"
     fill="none"
     stroke="#000099"
     id="path91" />
  <path
     d="M349.728,285.858v -2.96721"
     fill="none"
     stroke="#000099"
     id="path92" />
  <g
     fill="#ff0000"
     id="g92">
    <circle
       cx="349.728"
       cy="292.375"
       r="6.51643"
       id="circle92" />
  </g>
  <path
     d="M354.264,310.982v -2.03201"
     fill="none"
     stroke="#000099"
     id="path93" />
  <path
     d="M354.264,295.917v -2.03201"
     fill="none"
     stroke="#000099"
     id="path94" />
  <g
     fill="#ff0000"
     id="g94">
    <circle
       cx="354.264"
       cy="302.434"
       r="6.51643"
       id="circle94" />
  </g>
  <path
     d="M358.799,314v -1.69664"
     fill="none"
     stroke="#000099"
     id="path95" />
  <path
     d="M358.799,299.27v -1.69664"
     fill="none"
     stroke="#000099"
     id="path96" />
  <g
     fill="#ff0000"
     id="g96">
    <circle
       cx="358.799"
       cy="305.787"
       r="6.51643"
       id="circle96" />
  </g>
  <path
     d="M363.335,310.982v -2.03201"
     fill="none"
     stroke="#000099"
     id="path97" />
  <path
     d="M363.335,295.917v -2.03201"
     fill="none"
     stroke="#000099"
     id="path98" />
  <g
     fill="#ff0000"
     id="g98">
    <circle
       cx="363.335"
       cy="302.434"
       r="6.51643"
       id="circle98" />
  </g>
  <path
     d="M367.87,319.99v -0.981046"
     fill="none"
     stroke="#000099"
     id="path99" />
  <path
     d="M367.87,305.976v -0.981046"
     fill="none"
     stroke="#000099"
     id="path100" />
  <g
     fill="#ff0000"
     id="g100">
    <circle
       cx="367.87"
       cy="312.493"
       r="6.51643"
       id="circle100" />
  </g>
  <path
     d="M372.406,322.958v -0.5963"
     fill="none"
     stroke="#000099"
     id="path101" />
  <path
     d="M372.406,309.329v -0.5963"
     fill="none"
     stroke="#000099"
     id="path102" />
  <g
     fill="#ff0000"
     id="g102">
    <circle
       cx="372.406"
       cy="315.846"
       r="6.51643"
       id="circle102" />
  </g>
  <g
     fill="#ff0000"
     id="g103">
    <circle
       cx="376.941"
       cy="324.228"
       r="6.51643"
       id="circle103" />
  </g>
  <g
     fill="#ff0000"
     id="g104">
    <circle
       cx="381.476"
       cy="327.581"
       r="6.51643"
       id="circle104" />
  </g>
  <path
     d="M386.012,324.434v -0.395902"
     fill="none"
     stroke="#000099"
     id="path104" />
  <path
     d="M386.012,311.006v -0.395902"
     fill="none"
     stroke="#000099"
     id="path105" />
  <g
     fill="#ff0000"
     id="g105">
    <circle
       cx="386.012"
       cy="317.522"
       r="6.51643"
       id="circle105" />
  </g>
  <g
     fill="#ff0000"
     id="g106">
    <circle
       cx="390.547"
       cy="330.934"
       r="6.51643"
       id="circle106" />
  </g>
  <g
     fill="#ff0000"
     id="g107">
    <circle
       cx="395.083"
       cy="339.316"
       r="6.51643"
       id="circle107" />
  </g>
  <g
     fill="#ff0000"
     id="g108">
    <circle
       cx="399.618"
       cy="332.61"
       r="6.51643"
       id="circle108" />
  </g>
  <g
     fill="#ff0000"
     id="g109">
    <circle
       cx="404.154"
       cy="325.904"
       r="6.51643"
       id="circle109" />
  </g>
  <g
     fill="#ff0000"
     id="g110">
    <circle
       cx="408.689"
       cy="334.287"
       r="6.51643"
       id="circle110" />
  </g>
  <g
     fill="#ff0000"
     id="g111">
    <circle
       cx="413.224"
       cy="339.316"
       r="6.51643"
       id="circle111" />
  </g>
  <g
     fill="#ff0000"
     id="g112">
    <circle
       cx="417.76"
       cy="340.993"
       r="6.51643"
       id="circle112" />
  </g>
  <g
     fill="#ff0000"
     id="g113">
    <circle
       cx="422.295"
       cy="330.934"
       r="6.51643"
       id="circle113" />
  </g>
  <g
     fill="#ff0000"
     id="g114">
    <circle
       cx="426.831"
       cy="340.993"
       r="6.51643"
       id="circle114" />
  </g>
  <g
     fill="#ff0000"
     id="g115">
    <circle
       cx="431.366"
       cy="339.316"
       r="6.51643"
       id="circle115" />
  </g>
  <g
     fill="#ff0000"
     id="g116">
    <circle
       cx="435.902"
       cy="339.316"
       r="6.51643"
       id="circle116" />
  </g>
  <g
     fill="#ff0000"
     id="g117">
    <circle
       cx="440.437"
       cy="340.993"
       r="6.51643"
       id="circle117" />
  </g>
  <g
     fill="#ff0000"
     id="g118">
    <circle
       cx="444.972"
       cy="344.346"
       r="6.51643"
       id="circle118" />
  </g>
  <g
     fill="#ff0000"
     id="g119">
    <circle
       cx="449.508"
       cy="340.993"
       r="6.51643"
       id="circle119" />
  </g>
  <g
     fill="#ff0000"
     id="g120">
    <circle
       cx="476.72"
       cy="342.669"
       r="6.51643"
       id="circle120" />
  </g>
  <g
     fill="#ff0000"
     id="g121">
    <circle
       cx="490.327"
       cy="344.346"
       r="6.51643"
       id="circle121" />
  </g>
  <path
     d="M57.1929,346.022h 453.543"
     fill="none"
     stroke="black"
     id="path121" />
  <path
     d="M59.4606,336.795v 9.22726"
     fill="none"
     stroke="black"
     id="path122" />
  <path
     d="M68.5315,341.409v 4.61363"
     fill="none"
     stroke="black"
     id="path123" />
  <path
     d="M77.6024,341.409v 4.61363"
     fill="none"
     stroke="black"
     id="path124" />
  <path
     d="M86.6732,341.409v 4.61363"
     fill="none"
     stroke="black"
     id="path125" />
  <path
     d="M95.7441,341.409v 4.61363"
     fill="none"
     stroke="black"
     id="path126" />
  <path
     d="M104.815,336.795v 9.22726"
     fill="none"
     stroke="black"
     id="path127" />
  <path
     d="M113.886,341.409v 4.61363"
     fill="none"
     stroke="black"
     id="path128" />
  <path
     d="M122.957,341.409v 4.61363"
     fill="none"
     stroke="black"
     id="path129" />
  <path
     d="M132.028,341.409v 4.61363"
     fill="none"
     stroke="black"
     id="path130" />
  <path
     d="M141.098,341.409v 4.61363"
     fill="none"
     stroke="black"
     id="path131" />
  <path
     d="M150.169,336.795v 9.22726"
     fill="none"
     stroke="black"
     id="path132" />
  <path
     d="M159.24,341.409v 4.61363"
     fill="none"
     stroke="black"
     id="path133" />
  <path
     d="M168.311,341.409v 4.61363"
     fill="none"
     stroke="black"
     id="path134" />
  <path
     d="M177.382,341.409v 4.61363"
     fill="none"
     stroke="black"
     id="path135" />
  <path
     d="M186.453,341.409v 4.61363"
     fill="none"
     stroke="black"
     id="path136" />
  <path
     d="M195.524,336.795v 9.22726"
     fill="none"
     stroke="black"
     id="path137" />
  <path
     d="M204.594,341.409v 4.61363"
     fill="none"
     stroke="black"
     id="path138" />
  <path
     d="M213.665,341.409v 4.61363"
     fill="none"
     stroke="black"
     id="path139" />
  <path
     d="M222.736,341.409v 4.61363"
     fill="none"
     stroke="black"
     id="path140" />
  <path
     d="M231.807,341.409v 4.61363"
     fill="none"
     stroke="black"
     id="path141" />
  <path
     d="M240.878,336.795v 9.22726"
     fill="none"
     stroke="black"
     id="path142" />
  <path
     d="M249.949,341.409v 4.61363"
     fill="none"
     stroke="black"
     id="path143" />
  <path
     d="M259.02,341.409v 4.61363"
     fill="none"
     stroke="black"
     id="path144" />
  <path
     d="M268.091,341.409v 4.61363"
     fill="none"
     stroke="black"
     id="path145" />
  <path
     d="M277.161,341.409v 4.61363"
     fill="none"
     stroke="black"
     id="path146" />
  <path
     d="M286.232,336.795v 9.22726"
     fill="none"
     stroke="black"
     id="path147" />
  <path
     d="M295.303,341.409v 4.61363"
     fill="none"
     stroke="black"
     id="path148" />
  <path
     d="M304.374,341.409v 4.61363"
     fill="none"
     stroke="black"
     id="path149" />
  <path
     d="M313.445,341.409v 4.61363"
     fill="none"
     stroke="black"
     id="path150" />
  <path
     d="M322.516,341.409v 4.61363"
     fill="none"
     stroke="black"
     id="path151" />
  <path
     d="M331.587,336.795v 9.22726"
     fill="none"
     stroke="black"
     id="path152" />
  <path
     d="M340.657,341.409v 4.61363"
     fill="none"
     stroke="black"
     id="path153" />
  <path
     d="M349.728,341.409v 4.61363"
     fill="none"
     stroke="black"
     id="path154" />
  <path
     d="M358.799,341.409v 4.61363"
     fill="none"
     stroke="black"
     id="path155" />
  <path
     d="M367.87,341.409v 4.61363"
     fill="none"
     stroke="black"
     id="path156" />
  <path
     d="M376.941,336.795v 9.22726"
     fill="none"
     stroke="black"
     id="path157" />
  <path
     d="M386.012,341.409v 4.61363"
     fill="none"
     stroke="black"
     id="path158" />
  <path
     d="M395.083,341.409v 4.61363"
     fill="none"
     stroke="black"
     id="path159" />
  <path
     d="M404.154,341.409v 4.61363"
     fill="none"
     stroke="black"
     id="path160" />
  <path
     d="M413.224,341.409v 4.61363"
     fill="none"
     stroke="black"
     id="path161" />
  <path
     d="M422.295,336.795v 9.22726"
     fill="none"
     stroke="black"
     id="path162" />
  <path
     d="M431.366,341.409v 4.61363"
     fill="none"
     stroke="black"
     id="path163" />
  <path
     d="M440.437,341.409v 4.61363"
     fill="none"
     stroke="black"
     id="path164" />
  <path
     d="M449.508,341.409v 4.61363"
     fill="none"
     stroke="black"
     id="path165" />
  <path
     d="M458.579,341.409v 4.61363"
     fill="none"
     stroke="black"
     id="path166" />
  <path
     d="M467.65,336.795v 9.22726"
     fill="none"
     stroke="black"
     id="path167" />
  <path
     d="M59.4606,336.795v 9.22726"
     fill="none"
     stroke="black"
     id="path168" />
  <path
     d="M467.65,336.795v 9.22726"
     fill="none"
     stroke="black"
     id="path169" />
  <path
     d="M476.72,341.409v 4.61363"
     fill="none"
     stroke="black"
     id="path170" />
  <path
     d="M485.791,341.409v 4.61363"
     fill="none"
     stroke="black"
     id="path171" />
  <path
     d="M494.862,341.409v 4.61363"
     fill="none"
     stroke="black"
     id="path172" />
  <path
     d="M503.933,341.409v 4.61363"
     fill="none"
     stroke="black"
     id="path173" />
  <text
     xml:space="preserve"
     x="55.8896"
     y="358.403"
     fill="black"
     font-size="12.8453"
     font-family="Helvetica"
     id="text173">0</text>
  <text
     xml:space="preserve"
     x="98.2464"
     y="358.403"
     fill="black"
     font-size="12.8453"
     font-family="Helvetica"
     id="text174">10</text>
  <text
     xml:space="preserve"
     x="143.047"
     y="358.403"
     fill="black"
     font-size="12.8453"
     font-family="Helvetica"
     id="text175">20</text>
  <text
     xml:space="preserve"
     x="188.662"
     y="358.403"
     fill="black"
     font-size="12.8453"
     font-family="Helvetica"
     id="text176">30</text>
  <text
     xml:space="preserve"
     x="234.277"
     y="358.403"
     fill="black"
     font-size="12.8453"
     font-family="Helvetica"
     id="text177">40</text>
  <text
     xml:space="preserve"
     x="279.077"
     y="358.403"
     fill="black"
     font-size="12.8453"
     font-family="Helvetica"
     id="text178">50</text>
  <text
     xml:space="preserve"
     x="324.692"
     y="358.403"
     fill="black"
     font-size="12.8453"
     font-family="Helvetica"
     id="text179">60</text>
  <text
     xml:space="preserve"
     x="370.307"
     y="358.403"
     fill="black"
     font-size="12.8453"
     font-family="Helvetica"
     id="text180">70</text>
  <text
     xml:space="preserve"
     x="415.108"
     y="358.403"
     fill="black"
     font-size="12.8453"
     font-family="Helvetica"
     id="text181">80</text>
  <text
     xml:space="preserve"
     x="460.723"
     y="358.403"
     fill="black"
     font-size="12.8453"
     font-family="Helvetica"
     id="text182">90</text>
  <text
     xml:space="preserve"
     x="356.46"
     y="370.622"
     fill="black"
     font-size="12.8453"
     font-family="Helvetica"
     id="text183"> Teilchenanzahl pro Ereignis</text>
  <path
     d="M57.1929,346.022v -307.575"
     fill="none"
     stroke="black"
     id="path183" />
  <path
     d="M70.7992,346.022h -13.6063"
     fill="none"
     stroke="black"
     id="path184" />
  <path
     d="M63.9961,339.159h -6.80315"
     fill="none"
     stroke="black"
     id="path185" />
  <path
     d="M63.9961,332.295h -6.80315"
     fill="none"
     stroke="black"
     id="path186" />
  <path
     d="M63.9961,325.432h -6.80315"
     fill="none"
     stroke="black"
     id="path187" />
  <path
     d="M63.9961,318.568h -6.80315"
     fill="none"
     stroke="black"
     id="path188" />
  <path
     d="M70.7992,311.705h -13.6063"
     fill="none"
     stroke="black"
     id="path189" />
  <path
     d="M63.9961,304.841h -6.80315"
     fill="none"
     stroke="black"
     id="path190" />
  <path
     d="M63.9961,297.978h -6.80315"
     fill="none"
     stroke="black"
     id="path191" />
  <path
     d="M63.9961,291.114h -6.80315"
     fill="none"
     stroke="black"
     id="path192" />
  <path
     d="M63.9961,284.25h -6.80315"
     fill="none"
     stroke="black"
     id="path193" />
  <path
     d="M70.7992,277.387h -13.6063"
     fill="none"
     stroke="black"
     id="path194" />
  <path
     d="M63.9961,270.523h -6.80315"
     fill="none"
     stroke="black"
     id="path195" />
  <path
     d="M63.9961,263.66h -6.80315"
     fill="none"
     stroke="black"
     id="path196" />
  <path
     d="M63.9961,256.796h -6.80315"
     fill="none"
     stroke="black"
     id="path197" />
  <path
     d="M63.9961,249.933h -6.80315"
     fill="none"
     stroke="black"
     id="path198" />
  <path
     d="M70.7992,243.069h -13.6063"
     fill="none"
     stroke="black"
     id="path199" />
  <path
     d="M63.9961,236.206h -6.80315"
     fill="none"
     stroke="black"
     id="path200" />
  <path
     d="M63.9961,229.342h -6.80315"
     fill="none"
     stroke="black"
     id="path201" />
  <path
     d="M63.9961,222.479h -6.80315"
     fill="none"
     stroke="black"
     id="path202" />
  <path
     d="M63.9961,215.615h -6.80315"
     fill="none"
     stroke="black"
     id="path203" />
  <path
     d="M70.7992,208.752h -13.6063"
     fill="none"
     stroke="black"
     id="path204" />
  <path
     d="M63.9961,201.888h -6.80315"
     fill="none"
     stroke="black"
     id="path205" />
  <path
     d="M63.9961,195.025h -6.80315"
     fill="none"
     stroke="black"
     id="path206" />
  <path
     d="M63.9961,188.161h -6.80315"
     fill="none"
     stroke="black"
     id="path207" />
  <path
     d="M63.9961,181.297h -6.80315"
     fill="none"
     stroke="black"
     id="path208" />
  <path
     d="M70.7992,174.434h -13.6063"
     fill="none"
     stroke="black"
     id="path209" />
  <path
     d="M63.9961,167.57h -6.80315"
     fill="none"
     stroke="black"
     id="path210" />
  <path
     d="M63.9961,160.707h -6.80315"
     fill="none"
     stroke="black"
     id="path211" />
  <path
     d="M63.9961,153.843h -6.80315"
     fill="none"
     stroke="black"
     id="path212" />
  <path
     d="M63.9961,146.98h -6.80315"
     fill="none"
     stroke="black"
     id="path213" />
  <path
     d="M70.7992,140.116h -13.6063"
     fill="none"
     stroke="black"
     id="path214" />
  <path
     d="M63.9961,133.253h -6.80315"
     fill="none"
     stroke="black"
     id="path215" />
  <path
     d="M63.9961,126.389h -6.80315"
     fill="none"
     stroke="black"
     id="path216" />
  <path
     d="M63.9961,119.526h -6.80315"
     fill="none"
     stroke="black"
     id="path217" />
  <path
     d="M63.9961,112.662h -6.80315"
     fill="none"
     stroke="black"
     id="path218" />
  <path
     d="M70.7992,105.799h -13.6063"
     fill="none"
     stroke="black"
     id="path219" />
  <path
     d="M63.9961,98.9351h -6.80315"
     fill="none"
     stroke="black"
     id="path220" />
  <path
     d="M63.9961,92.0715h -6.80315"
     fill="none"
     stroke="black"
     id="path221" />
  <path
     d="M63.9961,85.208h -6.80315"
     fill="none"
     stroke="black"
     id="path222" />
  <path
     d="M63.9961,78.3445h -6.80315"
     fill="none"
     stroke="black"
     id="path223" />
  <path
     d="M70.7992,71.4809h -13.6063"
     fill="none"
     stroke="black"
     id="path224" />
  <path
     d="M70.7992,71.4809h -13.6063"
     fill="none"
     stroke="black"
     id="path225" />
  <path
     d="M63.9961,64.6174h -6.80315"
     fill="none"
     stroke="black"
     id="path226" />
  <path
     d="M63.9961,57.7539h -6.80315"
     fill="none"
     stroke="black"
     id="path227" />
  <path
     d="M63.9961,50.8903h -6.80315"
     fill="none"
     stroke="black"
     id="path228" />
  <path
     d="M63.9961,44.0268h -6.80315"
     fill="none"
     stroke="black"
     id="path229" />
  <text
     xml:space="preserve"
     x="47.7441"
     y="350.258"
     fill="black"
     font-size="12.8453"
     font-family="Helvetica"
     id="text229">0</text>
  <text
     xml:space="preserve"
     x="24.122"
     y="316.047"
     fill="black"
     font-size="12.8453"
     font-family="Helvetica"
     id="text230">0.005</text>
  <text
     xml:space="preserve"
     x="32.2676"
     y="281.835"
     fill="black"
     font-size="12.8453"
     font-family="Helvetica"
     id="text231">0.01</text>
  <text
     xml:space="preserve"
     x="24.122"
     y="247.624"
     fill="black"
     font-size="12.8453"
     font-family="Helvetica"
     id="text232">0.015</text>
  <text
     xml:space="preserve"
     x="30.6385"
     y="213.413"
     fill="black"
     font-size="12.8453"
     font-family="Helvetica"
     id="text233">0.02</text>
  <text
     xml:space="preserve"
     x="24.122"
     y="179.202"
     fill="black"
     font-size="12.8453"
     font-family="Helvetica"
     id="text234">0.025</text>
  <text
     xml:space="preserve"
     x="30.6385"
     y="144.99"
     fill="black"
     font-size="12.8453"
     font-family="Helvetica"
     id="text235">0.03</text>
  <text
     xml:space="preserve"
     x="24.122"
     y="109.965"
     fill="black"
     font-size="12.8453"
     font-family="Helvetica"
     id="text236">0.035</text>
  <text
     xml:space="preserve"
     x="30.6385"
     y="75.7535"
     fill="black"
     font-size="12.8453"
     font-family="Helvetica"
     id="text237">0.04</text>
  <g
     transform="rotate(-90,11.0892,143.361)"
     id="g238">
    <text
       xml:space="preserve"
       x="11.0892"
       y="143.361"
       fill="black"
       font-size="12.8453"
       font-family="Helvetica"
       id="text238"> Wahrscheinlichkeit</text>
  </g>
  <path
     d="M57.1929,346.022h 90.7087v -31.9849h 4.53543v -24.3363h 4.53543v -13.2111h 4.53543v -9.73452h 4.53543v -28.5082h 4.53543v 2.78129h 4.53543v -27.8129h 4.53543v -2.78129h 4.53543v -29.8989h 4.53543v -12.5158h 4.53543v 3.47661h 4.53543v  -13.9065h 4.53543v 1.39065h 4.53543v -40.3287h 4.53543v -6.95323h 4.53543v 1.39065h 4.53543v -14.6018h 4.53543v 31.2895h 4.53543v -3.47661h 4.53543v -9.73452h 4.53543v -16.6878h 4.53543v 30.5942h 4.53543v 14.6018h 4.53543v -32.6802h 4.53543v  22.2503h 4.53543v 19.469h 4.53543v -1.39065h 4.53543v 8.34388h 4.53543v 22.2503h 4.53543v 6.95323h 4.53543v 16.6878h 4.53543v 3.47661h 4.53543v 5.56258h 9.07087v 25.7269h 4.53543v -11.1252h 4.53543v 9.0392h 4.53543v 22.2503h 9.07087v 23.641h  4.53543v -4.86726h 4.53543v 5.56258h 4.53543v 2.08597h 4.53543v 12.5158h 4.53543v 11.8205h 4.53543v -3.47661h 4.53543v -9.0392h 4.53543v 14.6018h 4.53543v 5.56258h 4.53543v 2.08597h 4.53543v 0.695323h 4.53543v 9.0392h 4.53543v -6.25791h 4.53543v  4.86726h 4.53543v 4.86726h 4.53543v 4.17194h 4.53543v -6.25791h 4.53543v 9.0392h 4.53543v -1.39065h 4.53543v -1.39065h 4.53543v 2.08597h 9.07087v 2.08597h 4.53543v 0.695323h 4.53543v -0.695323h 4.53543v 1.39065h 9.07087v 0.695323h 4.53543v  -0.695323h 13.6063v 0.695323h 40.8189"
     fill="none"
     stroke="#00ff00"
     stroke-width="2"
     id="path238" />
  <text
     xml:space="preserve"
     x="99.061"
     y="16.2911"
     fill="black"
     font-size="9.91416"
     font-family="Helvetica"
     id="text239"> Histogramm der Wahrscheinlichkeit der Teilchenanzahl pro Ereignis mit cut (91 GeV)</text>
</svg>
