<?xml version="1.0" encoding="UTF-8" standalone="no"?>
<svg
   width="567.429"
   height="384.969"
   viewBox="0 0 567.429 384.969"
   shape-rendering="crispEdges"
   version="1.1"
   id="svg191"
   sodipodi:docname="91_A_H_oc.svg"
   inkscape:version="1.4.2 (f4327f4, 2025-05-13)"
   xmlns:inkscape="http://www.inkscape.org/namespaces/inkscape"
   xmlns:sodipodi="http://sodipodi.sourceforge.net/DTD/sodipodi-0.dtd"
   xmlns="http://www.w3.org/2000/svg"
   xmlns:svg="http://www.w3.org/2000/svg"
   xmlns:rdf="http://www.w3.org/1999/02/22-rdf-syntax-ns#"
   xmlns:cc="http://creativecommons.org/ns#"
   xmlns:dc="http://purl.org/dc/elements/1.1/">
  <sodipodi:namedview
     id="namedview191"
     pagecolor="#ffffff"
     bordercolor="#000000"
     borderopacity="0.25"
     inkscape:showpageshadow="2"
     inkscape:pageopacity="0.0"
     inkscape:pagecheckerboard="0"
     inkscape:deskcolor="#d1d1d1"
     inkscape:zoom="2.1170536"
     inkscape:cx="271.60389"
     inkscape:cy="192.01214"
     inkscape:window-width="1920"
     inkscape:window-height="1017"
     inkscape:window-x="-8"
     inkscape:window-y="-8"
     inkscape:window-maximized="1"
     inkscape:current-layer="svg191" />
  <title
     id="title1">
Output/plot.svg
</title>
  <desc
     id="desc1">
Creator: ROOT Version 6.24/06
CreationDate: Thu Mar 12 18:16:53 2026</desc>
  <defs
     id="defs1" />
  <rect
     x="0.5"
     y="0"
     width="566.929"
     height="384.469"
     fill="#fefefe"
     id="rect1" />
  <rect
     x="57.1929"
     y="38.4469"
     width="453.543"
     height="307.575"
     fill="#fefefe"
     id="rect2" />
  <rect
     x="57.1929"
     y="38.4469"
     width="453.543"
     height="307.575"
     fill="none"
     stroke="black"
     id="rect3" />
  <rect
     x="57.1929"
     y="38.4469"
     width="453.543"
     height="307.575"
     fill="#fefefe"
     id="rect4" />
  <rect
     x="57.1929"
     y="38.4469"
     width="453.543"
     height="307.575"
     fill="none"
     stroke="black"
     id="rect5" />
  <path
     d="M63.9961,163.949v -0.70566"
     fill="none"
     stroke="#000099"
     id="path5" />
  <path
     d="M63.9961,150.21v -0.70566"
     fill="none"
     stroke="#000099"
     id="path6" />
  <g
     fill="#ff0000"
     id="g6">
    <circle
       cx="63.9961"
       cy="156.726"
       r="6.51643"
       id="circle6" />
  </g>
  <path
     d="M68.5315,70.7881v -2.33093"
     fill="none"
     stroke="#000099"
     id="path7" />
  <path
     d="M68.5315,55.4243v -2.33093"
     fill="none"
     stroke="#000099"
     id="path8" />
  <g
     fill="#ff0000"
     id="g8">
    <circle
       cx="68.5315"
       cy="61.9407"
       r="6.51643"
       id="circle8" />
  </g>
  <path
     d="M73.0669,81.3652v -2.16198"
     fill="none"
     stroke="#000099"
     id="path9" />
  <path
     d="M73.0669,66.1703v -2.16198"
     fill="none"
     stroke="#000099"
     id="path10" />
  <g
     fill="#ff0000"
     id="g10">
    <circle
       cx="73.0669"
       cy="72.6868"
       r="6.51643"
       id="circle10" />
  </g>
  <path
     d="M77.6024,124.721v -1.43136"
     fill="none"
     stroke="#000099"
     id="path11" />
  <path
     d="M77.6024,110.257v -1.43136"
     fill="none"
     stroke="#000099"
     id="path12" />
  <g
     fill="#ff0000"
     id="g12">
    <circle
       cx="77.6024"
       cy="116.773"
       r="6.51643"
       id="circle12" />
  </g>
  <g
     fill="#ff0000"
     id="g13">
    <circle
       cx="82.1378"
       cy="192.271"
       r="6.51643"
       id="circle13" />
  </g>
  <g
     fill="#ff0000"
     id="g14">
    <circle
       cx="86.6732"
       cy="225.336"
       r="6.51643"
       id="circle14" />
  </g>
  <g
     fill="#ff0000"
     id="g15">
    <circle
       cx="91.2087"
       cy="269.147"
       r="6.51643"
       id="circle15" />
  </g>
  <g
     fill="#ff0000"
     id="g16">
    <circle
       cx="95.7441"
       cy="279.617"
       r="6.51643"
       id="circle16" />
  </g>
  <g
     fill="#ff0000"
     id="g17">
    <circle
       cx="100.28"
       cy="301.385"
       r="6.51643"
       id="circle17" />
  </g>
  <g
     fill="#ff0000"
     id="g18">
    <circle
       cx="104.815"
       cy="316.815"
       r="6.51643"
       id="circle18" />
  </g>
  <g
     fill="#ff0000"
     id="g19">
    <circle
       cx="109.35"
       cy="324.806"
       r="6.51643"
       id="circle19" />
  </g>
  <g
     fill="#ff0000"
     id="g20">
    <circle
       cx="113.886"
       cy="325.908"
       r="6.51643"
       id="circle20" />
  </g>
  <g
     fill="#ff0000"
     id="g21">
    <circle
       cx="118.421"
       cy="328.388"
       r="6.51643"
       id="circle21" />
  </g>
  <g
     fill="#ff0000"
     id="g22">
    <circle
       cx="122.957"
       cy="329.765"
       r="6.51643"
       id="circle22" />
  </g>
  <g
     fill="#ff0000"
     id="g23">
    <circle
       cx="127.492"
       cy="334.174"
       r="6.51643"
       id="circle23" />
  </g>
  <g
     fill="#ff0000"
     id="g24">
    <circle
       cx="132.028"
       cy="335.552"
       r="6.51643"
       id="circle24" />
  </g>
  <g
     fill="#ff0000"
     id="g25">
    <circle
       cx="136.563"
       cy="337.756"
       r="6.51643"
       id="circle25" />
  </g>
  <g
     fill="#ff0000"
     id="g26">
    <circle
       cx="141.098"
       cy="335.827"
       r="6.51643"
       id="circle26" />
  </g>
  <g
     fill="#ff0000"
     id="g27">
    <circle
       cx="145.634"
       cy="333.347"
       r="6.51643"
       id="circle27" />
  </g>
  <g
     fill="#ff0000"
     id="g28">
    <circle
       cx="150.169"
       cy="333.898"
       r="6.51643"
       id="circle28" />
  </g>
  <g
     fill="#ff0000"
     id="g29">
    <circle
       cx="154.705"
       cy="331.97"
       r="6.51643"
       id="circle29" />
  </g>
  <g
     fill="#ff0000"
     id="g30">
    <circle
       cx="159.24"
       cy="331.694"
       r="6.51643"
       id="circle30" />
  </g>
  <g
     fill="#ff0000"
     id="g31">
    <circle
       cx="163.776"
       cy="326.459"
       r="6.51643"
       id="circle31" />
  </g>
  <g
     fill="#ff0000"
     id="g32">
    <circle
       cx="168.311"
       cy="327.561"
       r="6.51643"
       id="circle32" />
  </g>
  <g
     fill="#ff0000"
     id="g33">
    <circle
       cx="172.846"
       cy="325.081"
       r="6.51643"
       id="circle33" />
  </g>
  <g
     fill="#ff0000"
     id="g34">
    <circle
       cx="177.382"
       cy="325.908"
       r="6.51643"
       id="circle34" />
  </g>
  <g
     fill="#ff0000"
     id="g35">
    <circle
       cx="181.917"
       cy="319.846"
       r="6.51643"
       id="circle35" />
  </g>
  <g
     fill="#ff0000"
     id="g36">
    <circle
       cx="186.453"
       cy="317.642"
       r="6.51643"
       id="circle36" />
  </g>
  <g
     fill="#ff0000"
     id="g37">
    <circle
       cx="190.988"
       cy="318.468"
       r="6.51643"
       id="circle37" />
  </g>
  <g
     fill="#ff0000"
     id="g38">
    <circle
       cx="195.524"
       cy="317.642"
       r="6.51643"
       id="circle38" />
  </g>
  <g
     fill="#ff0000"
     id="g39">
    <circle
       cx="200.059"
       cy="318.193"
       r="6.51643"
       id="circle39" />
  </g>
  <g
     fill="#ff0000"
     id="g40">
    <circle
       cx="204.594"
       cy="312.682"
       r="6.51643"
       id="circle40" />
  </g>
  <g
     fill="#ff0000"
     id="g41">
    <circle
       cx="209.13"
       cy="315.437"
       r="6.51643"
       id="circle41" />
  </g>
  <g
     fill="#ff0000"
     id="g42">
    <circle
       cx="213.665"
       cy="308.549"
       r="6.51643"
       id="circle42" />
  </g>
  <g
     fill="#ff0000"
     id="g43">
    <circle
       cx="218.201"
       cy="309.927"
       r="6.51643"
       id="circle43" />
  </g>
  <g
     fill="#ff0000"
     id="g44">
    <circle
       cx="222.736"
       cy="301.385"
       r="6.51643"
       id="circle44" />
  </g>
  <g
     fill="#ff0000"
     id="g45">
    <circle
       cx="227.272"
       cy="311.304"
       r="6.51643"
       id="circle45" />
  </g>
  <g
     fill="#ff0000"
     id="g46">
    <circle
       cx="231.807"
       cy="312.406"
       r="6.51643"
       id="circle46" />
  </g>
  <g
     fill="#ff0000"
     id="g47">
    <circle
       cx="236.343"
       cy="307.171"
       r="6.51643"
       id="circle47" />
  </g>
  <g
     fill="#ff0000"
     id="g48">
    <circle
       cx="240.878"
       cy="305.242"
       r="6.51643"
       id="circle48" />
  </g>
  <g
     fill="#ff0000"
     id="g49">
    <circle
       cx="245.413"
       cy="314.06"
       r="6.51643"
       id="circle49" />
  </g>
  <g
     fill="#ff0000"
     id="g50">
    <circle
       cx="249.949"
       cy="311.304"
       r="6.51643"
       id="circle50" />
  </g>
  <g
     fill="#ff0000"
     id="g51">
    <circle
       cx="254.484"
       cy="317.366"
       r="6.51643"
       id="circle51" />
  </g>
  <g
     fill="#ff0000"
     id="g52">
    <circle
       cx="259.02"
       cy="314.335"
       r="6.51643"
       id="circle52" />
  </g>
  <g
     fill="#ff0000"
     id="g53">
    <circle
       cx="263.555"
       cy="319.295"
       r="6.51643"
       id="circle53" />
  </g>
  <g
     fill="#ff0000"
     id="g54">
    <circle
       cx="268.091"
       cy="319.295"
       r="6.51643"
       id="circle54" />
  </g>
  <g
     fill="#ff0000"
     id="g55">
    <circle
       cx="272.626"
       cy="315.437"
       r="6.51643"
       id="circle55" />
  </g>
  <g
     fill="#ff0000"
     id="g56">
    <circle
       cx="277.161"
       cy="316.815"
       r="6.51643"
       id="circle56" />
  </g>
  <g
     fill="#ff0000"
     id="g57">
    <circle
       cx="281.697"
       cy="320.673"
       r="6.51643"
       id="circle57" />
  </g>
  <g
     fill="#ff0000"
     id="g58">
    <circle
       cx="286.232"
       cy="325.908"
       r="6.51643"
       id="circle58" />
  </g>
  <g
     fill="#ff0000"
     id="g59">
    <circle
       cx="290.768"
       cy="319.57"
       r="6.51643"
       id="circle59" />
  </g>
  <g
     fill="#ff0000"
     id="g60">
    <circle
       cx="295.303"
       cy="329.214"
       r="6.51643"
       id="circle60" />
  </g>
  <g
     fill="#ff0000"
     id="g61">
    <circle
       cx="299.839"
       cy="326.734"
       r="6.51643"
       id="circle61" />
  </g>
  <g
     fill="#ff0000"
     id="g62">
    <circle
       cx="304.374"
       cy="327.286"
       r="6.51643"
       id="circle62" />
  </g>
  <g
     fill="#ff0000"
     id="g63">
    <circle
       cx="308.909"
       cy="328.388"
       r="6.51643"
       id="circle63" />
  </g>
  <g
     fill="#ff0000"
     id="g64">
    <circle
       cx="313.445"
       cy="331.143"
       r="6.51643"
       id="circle64" />
  </g>
  <g
     fill="#ff0000"
     id="g65">
    <circle
       cx="317.98"
       cy="332.245"
       r="6.51643"
       id="circle65" />
  </g>
  <g
     fill="#ff0000"
     id="g66">
    <circle
       cx="322.516"
       cy="334.45"
       r="6.51643"
       id="circle66" />
  </g>
  <g
     fill="#ff0000"
     id="g67">
    <circle
       cx="327.051"
       cy="333.072"
       r="6.51643"
       id="circle67" />
  </g>
  <g
     fill="#ff0000"
     id="g68">
    <circle
       cx="331.587"
       cy="338.583"
       r="6.51643"
       id="circle68" />
  </g>
  <g
     fill="#ff0000"
     id="g69">
    <circle
       cx="336.122"
       cy="336.654"
       r="6.51643"
       id="circle69" />
  </g>
  <g
     fill="#ff0000"
     id="g70">
    <circle
       cx="340.657"
       cy="337.481"
       r="6.51643"
       id="circle70" />
  </g>
  <g
     fill="#ff0000"
     id="g71">
    <circle
       cx="345.193"
       cy="341.889"
       r="6.51643"
       id="circle71" />
  </g>
  <g
     fill="#ff0000"
     id="g72">
    <circle
       cx="349.728"
       cy="337.205"
       r="6.51643"
       id="circle72" />
  </g>
  <g
     fill="#ff0000"
     id="g73">
    <circle
       cx="354.264"
       cy="338.858"
       r="6.51643"
       id="circle73" />
  </g>
  <g
     fill="#ff0000"
     id="g74">
    <circle
       cx="358.799"
       cy="339.409"
       r="6.51643"
       id="circle74" />
  </g>
  <g
     fill="#ff0000"
     id="g75">
    <circle
       cx="363.335"
       cy="338.858"
       r="6.51643"
       id="circle75" />
  </g>
  <g
     fill="#ff0000"
     id="g76">
    <circle
       cx="367.87"
       cy="340.511"
       r="6.51643"
       id="circle76" />
  </g>
  <g
     fill="#ff0000"
     id="g77">
    <circle
       cx="372.406"
       cy="341.063"
       r="6.51643"
       id="circle77" />
  </g>
  <g
     fill="#ff0000"
     id="g78">
    <circle
       cx="376.941"
       cy="342.44"
       r="6.51643"
       id="circle78" />
  </g>
  <g
     fill="#ff0000"
     id="g79">
    <circle
       cx="381.476"
       cy="342.991"
       r="6.51643"
       id="circle79" />
  </g>
  <g
     fill="#ff0000"
     id="g80">
    <circle
       cx="386.012"
       cy="341.338"
       r="6.51643"
       id="circle80" />
  </g>
  <g
     fill="#ff0000"
     id="g81">
    <circle
       cx="390.547"
       cy="343.542"
       r="6.51643"
       id="circle81" />
  </g>
  <g
     fill="#ff0000"
     id="g82">
    <circle
       cx="395.083"
       cy="344.92"
       r="6.51643"
       id="circle82" />
  </g>
  <g
     fill="#ff0000"
     id="g83">
    <circle
       cx="399.618"
       cy="343.818"
       r="6.51643"
       id="circle83" />
  </g>
  <g
     fill="#ff0000"
     id="g84">
    <circle
       cx="404.154"
       cy="342.716"
       r="6.51643"
       id="circle84" />
  </g>
  <g
     fill="#ff0000"
     id="g85">
    <circle
       cx="408.689"
       cy="344.093"
       r="6.51643"
       id="circle85" />
  </g>
  <g
     fill="#ff0000"
     id="g86">
    <circle
       cx="413.224"
       cy="344.92"
       r="6.51643"
       id="circle86" />
  </g>
  <g
     fill="#ff0000"
     id="g87">
    <circle
       cx="417.76"
       cy="345.196"
       r="6.51643"
       id="circle87" />
  </g>
  <g
     fill="#ff0000"
     id="g88">
    <circle
       cx="422.295"
       cy="343.542"
       r="6.51643"
       id="circle88" />
  </g>
  <g
     fill="#ff0000"
     id="g89">
    <circle
       cx="426.831"
       cy="345.196"
       r="6.51643"
       id="circle89" />
  </g>
  <g
     fill="#ff0000"
     id="g90">
    <circle
       cx="431.366"
       cy="344.92"
       r="6.51643"
       id="circle90" />
  </g>
  <g
     fill="#ff0000"
     id="g91">
    <circle
       cx="435.902"
       cy="344.92"
       r="6.51643"
       id="circle91" />
  </g>
  <g
     fill="#ff0000"
     id="g92">
    <circle
       cx="440.437"
       cy="345.196"
       r="6.51643"
       id="circle92" />
  </g>
  <g
     fill="#ff0000"
     id="g93">
    <circle
       cx="444.972"
       cy="345.747"
       r="6.51643"
       id="circle93" />
  </g>
  <g
     fill="#ff0000"
     id="g94">
    <circle
       cx="449.508"
       cy="345.196"
       r="6.51643"
       id="circle94" />
  </g>
  <g
     fill="#ff0000"
     id="g95">
    <circle
       cx="476.72"
       cy="345.471"
       r="6.51643"
       id="circle95" />
  </g>
  <g
     fill="#ff0000"
     id="g96">
    <circle
       cx="490.327"
       cy="345.747"
       r="6.51643"
       id="circle96" />
  </g>
  <path
     d="M57.1929,346.022h 453.543"
     fill="none"
     stroke="black"
     id="path96" />
  <path
     d="M59.4606,336.795v 9.22726"
     fill="none"
     stroke="black"
     id="path97" />
  <path
     d="M68.5315,341.409v 4.61363"
     fill="none"
     stroke="black"
     id="path98" />
  <path
     d="M77.6024,341.409v 4.61363"
     fill="none"
     stroke="black"
     id="path99" />
  <path
     d="M86.6732,341.409v 4.61363"
     fill="none"
     stroke="black"
     id="path100" />
  <path
     d="M95.7441,341.409v 4.61363"
     fill="none"
     stroke="black"
     id="path101" />
  <path
     d="M104.815,336.795v 9.22726"
     fill="none"
     stroke="black"
     id="path102" />
  <path
     d="M113.886,341.409v 4.61363"
     fill="none"
     stroke="black"
     id="path103" />
  <path
     d="M122.957,341.409v 4.61363"
     fill="none"
     stroke="black"
     id="path104" />
  <path
     d="M132.028,341.409v 4.61363"
     fill="none"
     stroke="black"
     id="path105" />
  <path
     d="M141.098,341.409v 4.61363"
     fill="none"
     stroke="black"
     id="path106" />
  <path
     d="M150.169,336.795v 9.22726"
     fill="none"
     stroke="black"
     id="path107" />
  <path
     d="M159.24,341.409v 4.61363"
     fill="none"
     stroke="black"
     id="path108" />
  <path
     d="M168.311,341.409v 4.61363"
     fill="none"
     stroke="black"
     id="path109" />
  <path
     d="M177.382,341.409v 4.61363"
     fill="none"
     stroke="black"
     id="path110" />
  <path
     d="M186.453,341.409v 4.61363"
     fill="none"
     stroke="black"
     id="path111" />
  <path
     d="M195.524,336.795v 9.22726"
     fill="none"
     stroke="black"
     id="path112" />
  <path
     d="M204.594,341.409v 4.61363"
     fill="none"
     stroke="black"
     id="path113" />
  <path
     d="M213.665,341.409v 4.61363"
     fill="none"
     stroke="black"
     id="path114" />
  <path
     d="M222.736,341.409v 4.61363"
     fill="none"
     stroke="black"
     id="path115" />
  <path
     d="M231.807,341.409v 4.61363"
     fill="none"
     stroke="black"
     id="path116" />
  <path
     d="M240.878,336.795v 9.22726"
     fill="none"
     stroke="black"
     id="path117" />
  <path
     d="M249.949,341.409v 4.61363"
     fill="none"
     stroke="black"
     id="path118" />
  <path
     d="M259.02,341.409v 4.61363"
     fill="none"
     stroke="black"
     id="path119" />
  <path
     d="M268.091,341.409v 4.61363"
     fill="none"
     stroke="black"
     id="path120" />
  <path
     d="M277.161,341.409v 4.61363"
     fill="none"
     stroke="black"
     id="path121" />
  <path
     d="M286.232,336.795v 9.22726"
     fill="none"
     stroke="black"
     id="path122" />
  <path
     d="M295.303,341.409v 4.61363"
     fill="none"
     stroke="black"
     id="path123" />
  <path
     d="M304.374,341.409v 4.61363"
     fill="none"
     stroke="black"
     id="path124" />
  <path
     d="M313.445,341.409v 4.61363"
     fill="none"
     stroke="black"
     id="path125" />
  <path
     d="M322.516,341.409v 4.61363"
     fill="none"
     stroke="black"
     id="path126" />
  <path
     d="M331.587,336.795v 9.22726"
     fill="none"
     stroke="black"
     id="path127" />
  <path
     d="M340.657,341.409v 4.61363"
     fill="none"
     stroke="black"
     id="path128" />
  <path
     d="M349.728,341.409v 4.61363"
     fill="none"
     stroke="black"
     id="path129" />
  <path
     d="M358.799,341.409v 4.61363"
     fill="none"
     stroke="black"
     id="path130" />
  <path
     d="M367.87,341.409v 4.61363"
     fill="none"
     stroke="black"
     id="path131" />
  <path
     d="M376.941,336.795v 9.22726"
     fill="none"
     stroke="black"
     id="path132" />
  <path
     d="M386.012,341.409v 4.61363"
     fill="none"
     stroke="black"
     id="path133" />
  <path
     d="M395.083,341.409v 4.61363"
     fill="none"
     stroke="black"
     id="path134" />
  <path
     d="M404.154,341.409v 4.61363"
     fill="none"
     stroke="black"
     id="path135" />
  <path
     d="M413.224,341.409v 4.61363"
     fill="none"
     stroke="black"
     id="path136" />
  <path
     d="M422.295,336.795v 9.22726"
     fill="none"
     stroke="black"
     id="path137" />
  <path
     d="M431.366,341.409v 4.61363"
     fill="none"
     stroke="black"
     id="path138" />
  <path
     d="M440.437,341.409v 4.61363"
     fill="none"
     stroke="black"
     id="path139" />
  <path
     d="M449.508,341.409v 4.61363"
     fill="none"
     stroke="black"
     id="path140" />
  <path
     d="M458.579,341.409v 4.61363"
     fill="none"
     stroke="black"
     id="path141" />
  <path
     d="M467.65,336.795v 9.22726"
     fill="none"
     stroke="black"
     id="path142" />
  <path
     d="M59.4606,336.795v 9.22726"
     fill="none"
     stroke="black"
     id="path143" />
  <path
     d="M467.65,336.795v 9.22726"
     fill="none"
     stroke="black"
     id="path144" />
  <path
     d="M476.72,341.409v 4.61363"
     fill="none"
     stroke="black"
     id="path145" />
  <path
     d="M485.791,341.409v 4.61363"
     fill="none"
     stroke="black"
     id="path146" />
  <path
     d="M494.862,341.409v 4.61363"
     fill="none"
     stroke="black"
     id="path147" />
  <path
     d="M503.933,341.409v 4.61363"
     fill="none"
     stroke="black"
     id="path148" />
  <text
     xml:space="preserve"
     x="55.8896"
     y="358.403"
     fill="black"
     font-size="12.8453"
     font-family="Helvetica"
     id="text148">0</text>
  <text
     xml:space="preserve"
     x="98.2464"
     y="358.403"
     fill="black"
     font-size="12.8453"
     font-family="Helvetica"
     id="text149">10</text>
  <text
     xml:space="preserve"
     x="143.047"
     y="358.403"
     fill="black"
     font-size="12.8453"
     font-family="Helvetica"
     id="text150">20</text>
  <text
     xml:space="preserve"
     x="188.662"
     y="358.403"
     fill="black"
     font-size="12.8453"
     font-family="Helvetica"
     id="text151">30</text>
  <text
     xml:space="preserve"
     x="234.277"
     y="358.403"
     fill="black"
     font-size="12.8453"
     font-family="Helvetica"
     id="text152">40</text>
  <text
     xml:space="preserve"
     x="279.077"
     y="358.403"
     fill="black"
     font-size="12.8453"
     font-family="Helvetica"
     id="text153">50</text>
  <text
     xml:space="preserve"
     x="324.692"
     y="358.403"
     fill="black"
     font-size="12.8453"
     font-family="Helvetica"
     id="text154">60</text>
  <text
     xml:space="preserve"
     x="370.307"
     y="358.403"
     fill="black"
     font-size="12.8453"
     font-family="Helvetica"
     id="text155">70</text>
  <text
     xml:space="preserve"
     x="415.108"
     y="358.403"
     fill="black"
     font-size="12.8453"
     font-family="Helvetica"
     id="text156">80</text>
  <text
     xml:space="preserve"
     x="460.723"
     y="358.403"
     fill="black"
     font-size="12.8453"
     font-family="Helvetica"
     id="text157">90</text>
  <text
     xml:space="preserve"
     x="187.82941"
     y="374.40085"
     fill="#000000"
     font-size="12.8453px"
     font-family="Helvetica"
     id="text158"> Teilchenanzahl pro Ereignis</text>
  <path
     d="M57.1929,346.022v -307.575"
     fill="none"
     stroke="black"
     id="path158" />
  <path
     d="M70.7992,346.022h -13.6063"
     fill="none"
     stroke="black"
     id="path159" />
  <path
     d="M63.9961,332.401h -6.80315"
     fill="none"
     stroke="black"
     id="path160" />
  <path
     d="M63.9961,318.78h -6.80315"
     fill="none"
     stroke="black"
     id="path161" />
  <path
     d="M63.9961,305.158h -6.80315"
     fill="none"
     stroke="black"
     id="path162" />
  <path
     d="M70.7992,291.537h -13.6063"
     fill="none"
     stroke="black"
     id="path163" />
  <path
     d="M63.9961,277.916h -6.80315"
     fill="none"
     stroke="black"
     id="path164" />
  <path
     d="M63.9961,264.294h -6.80315"
     fill="none"
     stroke="black"
     id="path165" />
  <path
     d="M63.9961,250.673h -6.80315"
     fill="none"
     stroke="black"
     id="path166" />
  <path
     d="M70.7992,237.052h -13.6063"
     fill="none"
     stroke="black"
     id="path167" />
  <path
     d="M63.9961,223.43h -6.80315"
     fill="none"
     stroke="black"
     id="path168" />
  <path
     d="M63.9961,209.809h -6.80315"
     fill="none"
     stroke="black"
     id="path169" />
  <path
     d="M63.9961,196.188h -6.80315"
     fill="none"
     stroke="black"
     id="path170" />
  <path
     d="M70.7992,182.567h -13.6063"
     fill="none"
     stroke="black"
     id="path171" />
  <path
     d="M63.9961,168.945h -6.80315"
     fill="none"
     stroke="black"
     id="path172" />
  <path
     d="M63.9961,155.324h -6.80315"
     fill="none"
     stroke="black"
     id="path173" />
  <path
     d="M63.9961,141.703h -6.80315"
     fill="none"
     stroke="black"
     id="path174" />
  <path
     d="M70.7992,128.081h -13.6063"
     fill="none"
     stroke="black"
     id="path175" />
  <path
     d="M63.9961,114.46h -6.80315"
     fill="none"
     stroke="black"
     id="path176" />
  <path
     d="M63.9961,100.839h -6.80315"
     fill="none"
     stroke="black"
     id="path177" />
  <path
     d="M63.9961,87.2174h -6.80315"
     fill="none"
     stroke="black"
     id="path178" />
  <path
     d="M70.7992,73.5961h -13.6063"
     fill="none"
     stroke="black"
     id="path179" />
  <path
     d="M70.7992,73.5961h -13.6063"
     fill="none"
     stroke="black"
     id="path180" />
  <path
     d="M63.9961,59.9747h -6.80315"
     fill="none"
     stroke="black"
     id="path181" />
  <path
     d="M63.9961,46.3534h -6.80315"
     fill="none"
     stroke="black"
     id="path182" />
  <text
     xml:space="preserve"
     x="47.7441"
     y="350.258"
     fill="black"
     font-size="12.8453"
     font-family="Helvetica"
     id="text182">0</text>
  <text
     xml:space="preserve"
     x="30.6385"
     y="295.683"
     fill="black"
     font-size="12.8453"
     font-family="Helvetica"
     id="text183">0.02</text>
  <text
     xml:space="preserve"
     x="30.6385"
     y="241.922"
     fill="black"
     font-size="12.8453"
     font-family="Helvetica"
     id="text184">0.04</text>
  <text
     xml:space="preserve"
     x="30.6385"
     y="187.347"
     fill="black"
     font-size="12.8453"
     font-family="Helvetica"
     id="text185">0.06</text>
  <text
     xml:space="preserve"
     x="30.6385"
     y="132.772"
     fill="black"
     font-size="12.8453"
     font-family="Helvetica"
     id="text186">0.08</text>
  <text
     xml:space="preserve"
     x="39.5986"
     y="78.1971"
     fill="black"
     font-size="12.8453"
     font-family="Helvetica"
     id="text187">0.1</text>
  <g
     transform="rotate(-90,68.147542,189.1794)"
     id="g188">
    <text
       xml:space="preserve"
       x="17.6056"
       y="143.36099"
       fill="#000000"
       font-size="12.8453px"
       font-family="Helvetica"
       id="text188"> Wahrscheinlichkeit</text>
  </g>
  <path
     d="M57.1929,346.022h 36.2835v -0.272426h 4.53543v 0.272426h 4.53543v -0.272426h 9.07087v -0.544852h 4.53543v -1.0897h 4.53543v 0.817279h 4.53543v -0.544852h 4.53543v -1.90698h 4.53543v -1.36213h 4.53543v -3.26911h 4.53543v -4.08639h 4.53543v  -0.272426h 4.53543v -9.53492h 4.53543v -5.1761h 4.53543v -3.81397h 4.53543v -11.1695h 4.53543v 1.0897h 4.53543v -10.897h 4.53543v -1.0897h 4.53543v -11.7143h 4.53543v -4.90367h 4.53543v 1.36213h 4.53543v -5.44852h 4.53543v 0.544852h 4.53543v  -15.8007h 4.53543v -2.72426h 4.53543v 0.544852h 4.53543v -5.72095h 4.53543v 12.2592h 4.53543v -1.36213h 4.53543v -3.81397h 4.53543v -6.53823h 4.53543v 11.9868h 4.53543v 5.72095h 4.53543v -12.804h 4.53543v 8.71764h 4.53543v 7.62793h 4.53543v  -0.544852h 4.53543v 3.26911h 4.53543v 8.71764h 4.53543v 2.72426h 4.53543v 6.53823h 4.53543v 1.36213h 4.53543v 2.17941h 9.07087v 10.0798h 4.53543v -4.35882h 4.53543v 3.54154h 4.53543v 8.71764h 9.07087v 9.26249h 4.53543v -1.90698h 4.53543v 2.17941h  4.53543v 0.817279h 4.53543v 4.90367h 4.53543v 4.63125h 4.53543v -1.36213h 4.53543v -3.54154h 4.53543v 5.72095h 4.53543v 2.17941h 4.53543v 0.817279h 4.53543v 0.272426h 4.53543v 3.54154h 4.53543v -2.45184h 4.53543v 1.90698h 4.53543v 1.90698h 4.53543v  1.63456h 4.53543v -2.45184h 4.53543v 3.54154h 4.53543v -0.544852h 4.53543v -0.544852h 4.53543v 0.817279h 9.07087v 0.817279h 4.53543v 0.272426h 4.53543v -0.272426h 4.53543v 0.544852h 9.07087v 0.272426h 4.53543v -0.272426h 13.6063v 0.272426h 40.8189"
     fill="none"
     stroke="#00ff00"
     stroke-width="2"
     id="path188" />
  <text
     xml:space="preserve"
     x="99.329224"
     y="21.538919"
     fill="#000000"
     font-size="14.4321px"
     font-family="Helvetica"
     id="text189"
     transform="scale(0.80921555,1.2357647)"
     style="stroke-width:1.33777"> Histogramm der Wahrscheinlichkeit der Teilchenanzahl pro Ereignis (91 GeV)</text>
  <text
     xml:space="preserve"
     x="398.37912"
     y="169.0354"
     fill="#ff0000"
     font-size="18.1362px"
     font-family="Helvetica"
     font-weight="bold"
     id="text240">L3</text>
  <text
     xml:space="preserve"
     x="356.71594"
     y="204.45264"
     fill="#00ff00"
     font-size="18.1362px"
     font-family="Helvetica"
     font-weight="bold"
     id="text241">Monte Carlo</text>
  <metadata
     id="metadata1">
    <rdf:RDF>
      <cc:Work
         rdf:about="">
        <dc:title>
Output/plot.svg
</dc:title>
      </cc:Work>
    </rdf:RDF>
  </metadata>
</svg>
