<?xml version="1.0" encoding="UTF-8" standalone="no"?>
<svg
   width="567.429"
   height="384.969"
   viewBox="0 0 567.429 384.969"
   shape-rendering="crispEdges"
   version="1.1"
   id="svg126"
   sodipodi:docname="91_E_H_bc.svg"
   inkscape:version="1.4.2 (f4327f4, 2025-05-13)"
   xmlns:inkscape="http://www.inkscape.org/namespaces/inkscape"
   xmlns:sodipodi="http://sodipodi.sourceforge.net/DTD/sodipodi-0.dtd"
   xmlns="http://www.w3.org/2000/svg"
   xmlns:svg="http://www.w3.org/2000/svg">
  <sodipodi:namedview
     id="namedview126"
     pagecolor="#ffffff"
     bordercolor="#000000"
     borderopacity="0.25"
     inkscape:showpageshadow="2"
     inkscape:pageopacity="0.0"
     inkscape:pagecheckerboard="0"
     inkscape:deskcolor="#d1d1d1"
     inkscape:zoom="2.1170536"
     inkscape:cx="3380.1695"
     inkscape:cy="-217.99165"
     inkscape:window-width="1920"
     inkscape:window-height="1017"
     inkscape:window-x="-8"
     inkscape:window-y="-8"
     inkscape:window-maximized="1"
     inkscape:current-layer="svg126" />
  <title
     id="title1">
Output/plot.svg
</title>
  <desc
     id="desc1">
Creator: ROOT Version 6.24/06
CreationDate: Thu Mar 12 18:08:16 2026</desc>
  <defs
     id="defs1" />
  <rect
     x="0.5"
     y="0"
     width="566.929"
     height="384.469"
     fill="#fefefe"
     id="rect1" />
  <rect
     x="57.1929"
     y="38.4469"
     width="453.543"
     height="307.575"
     fill="#fefefe"
     id="rect2" />
  <rect
     x="57.1929"
     y="38.4469"
     width="453.543"
     height="307.575"
     fill="none"
     stroke="black"
     id="rect3" />
  <rect
     x="57.1929"
     y="38.4469"
     width="453.543"
     height="307.575"
     fill="#fefefe"
     id="rect4" />
  <text
     xml:space="preserve"
     x="148.52591"
     y="139.45247"
     fill="#ff0000"
     font-size="18.1362px"
     font-family="Helvetica"
     font-weight="bold"
     id="text240">L3</text>
  <text
     xml:space="preserve"
     x="106.86275"
     y="174.86971"
     fill="#00ff00"
     font-size="18.1362px"
     font-family="Helvetica"
     font-weight="bold"
     id="text241">Monte Carlo</text>
  <rect
     x="57.1929"
     y="38.4469"
     width="453.543"
     height="307.575"
     fill="none"
     stroke="black"
     id="rect5" />
  <g
     fill="#ff0000"
     id="g5">
    <circle
       cx="170.579"
       cy="343.888"
       r="6.51643"
       id="circle5" />
  </g>
  <g
     fill="#ff0000"
     id="g6">
    <circle
       cx="179.65"
       cy="327.527"
       r="6.51643"
       id="circle6" />
  </g>
  <g
     fill="#ff0000"
     id="g7">
    <circle
       cx="188.72"
       cy="333.218"
       r="6.51643"
       id="circle7" />
  </g>
  <g
     fill="#ff0000"
     id="g8">
    <circle
       cx="197.791"
       cy="327.527"
       r="6.51643"
       id="circle8" />
  </g>
  <g
     fill="#ff0000"
     id="g9">
    <circle
       cx="206.862"
       cy="306.899"
       r="6.51643"
       id="circle9" />
  </g>
  <g
     fill="#ff0000"
     id="g10">
    <circle
       cx="215.933"
       cy="297.651"
       r="6.51643"
       id="circle10" />
  </g>
  <path
     d="M225.004,283.353v -0.525475"
     fill="none"
     stroke="#000099"
     id="path10" />
  <path
     d="M225.004,269.795v -0.525475"
     fill="none"
     stroke="#000099"
     id="path11" />
  <g
     fill="#ff0000"
     id="g11">
    <circle
       cx="225.004"
       cy="276.311"
       r="6.51643"
       id="circle11" />
  </g>
  <path
     d="M234.075,267.775v -1.30831"
     fill="none"
     stroke="#000099"
     id="path12" />
  <path
     d="M234.075,253.434v -1.30831"
     fill="none"
     stroke="#000099"
     id="path13" />
  <g
     fill="#ff0000"
     id="g13">
    <circle
       cx="234.075"
       cy="259.95"
       r="6.51643"
       id="circle13" />
  </g>
  <path
     d="M243.146,230.263v -2.92056"
     fill="none"
     stroke="#000099"
     id="path14" />
  <path
     d="M243.146,214.31v -2.92056"
     fill="none"
     stroke="#000099"
     id="path15" />
  <g
     fill="#ff0000"
     id="g15">
    <circle
       cx="243.146"
       cy="220.827"
       r="6.51643"
       id="circle15" />
  </g>
  <path
     d="M252.217,200.078v -4.03444"
     fill="none"
     stroke="#000099"
     id="path16" />
  <path
     d="M252.217,183.011v -4.03444"
     fill="none"
     stroke="#000099"
     id="path17" />
  <g
     fill="#ff0000"
     id="g17">
    <circle
       cx="252.217"
       cy="189.528"
       r="6.51643"
       id="circle17" />
  </g>
  <path
     d="M261.287,141.487v -5.90658"
     fill="none"
     stroke="#000099"
     id="path18" />
  <path
     d="M261.287,122.547v -5.90658"
     fill="none"
     stroke="#000099"
     id="path19" />
  <g
     fill="#ff0000"
     id="g19">
    <circle
       cx="261.287"
       cy="129.064"
       r="6.51643"
       id="circle19" />
  </g>
  <path
     d="M270.358,100.666v -7.05507"
     fill="none"
     stroke="#000099"
     id="path20" />
  <path
     d="M270.358,80.5782v -7.05507"
     fill="none"
     stroke="#000099"
     id="path21" />
  <g
     fill="#ff0000"
     id="g21">
    <circle
       cx="270.358"
       cy="87.0947"
       r="6.51643"
       id="circle21" />
  </g>
  <path
     d="M279.429,97.2024v -7.14796"
     fill="none"
     stroke="#000099"
     id="path22" />
  <path
     d="M279.429,77.0216v -7.14796"
     fill="none"
     stroke="#000099"
     id="path23" />
  <g
     fill="#ff0000"
     id="g23">
    <circle
       cx="279.429"
       cy="83.538"
       r="6.51643"
       id="circle23" />
  </g>
  <path
     d="M288.5,81.261v -7.56738"
     fill="none"
     stroke="#000099"
     id="path24" />
  <path
     d="M288.5,60.6607v -7.56738"
     fill="none"
     stroke="#000099"
     id="path25" />
  <g
     fill="#ff0000"
     id="g25">
    <circle
       cx="288.5"
       cy="67.1772"
       r="6.51643"
       id="circle25" />
  </g>
  <path
     d="M297.571,126.969v -6.32714"
     fill="none"
     stroke="#000099"
     id="path26" />
  <path
     d="M297.571,107.609v -6.32714"
     fill="none"
     stroke="#000099"
     id="path27" />
  <g
     fill="#ff0000"
     id="g27">
    <circle
       cx="297.571"
       cy="114.126"
       r="6.51643"
       id="circle27" />
  </g>
  <path
     d="M306.642,113.823v -6.69612"
     fill="none"
     stroke="#000099"
     id="path28" />
  <path
     d="M306.642,94.0937v -6.69612"
     fill="none"
     stroke="#000099"
     id="path29" />
  <g
     fill="#ff0000"
     id="g29">
    <circle
       cx="306.642"
       cy="100.61"
       r="6.51643"
       id="circle29" />
  </g>
  <path
     d="M315.713,159.44v -5.36529"
     fill="none"
     stroke="#000099"
     id="path30" />
  <path
     d="M315.713,141.042v -5.36529"
     fill="none"
     stroke="#000099"
     id="path31" />
  <g
     fill="#ff0000"
     id="g31">
    <circle
       cx="315.713"
       cy="147.559"
       r="6.51643"
       id="circle31" />
  </g>
  <path
     d="M324.783,216.558v -3.44233"
     fill="none"
     stroke="#000099"
     id="path32" />
  <path
     d="M324.783,200.083v -3.44233"
     fill="none"
     stroke="#000099"
     id="path33" />
  <g
     fill="#ff0000"
     id="g33">
    <circle
       cx="324.783"
       cy="206.6"
       r="6.51643"
       id="circle33" />
  </g>
  <path
     d="M333.854,232.317v -2.83978"
     fill="none"
     stroke="#000099"
     id="path34" />
  <path
     d="M333.854,216.444v -2.83978"
     fill="none"
     stroke="#000099"
     id="path35" />
  <g
     fill="#ff0000"
     id="g35">
    <circle
       cx="333.854"
       cy="222.961"
       r="6.51643"
       id="circle35" />
  </g>
  <path
     d="M342.925,272.525v -1.0786"
     fill="none"
     stroke="#000099"
     id="path36" />
  <path
     d="M342.925,258.413v -1.0786"
     fill="none"
     stroke="#000099"
     id="path37" />
  <g
     fill="#ff0000"
     id="g37">
    <circle
       cx="342.925"
       cy="264.93"
       r="6.51643"
       id="circle37" />
  </g>
  <g
     fill="#ff0000"
     id="g38">
    <circle
       cx="351.996"
       cy="290.538"
       r="6.51643"
       id="circle38" />
  </g>
  <g
     fill="#ff0000"
     id="g39">
    <circle
       cx="361.067"
       cy="303.342"
       r="6.51643"
       id="circle39" />
  </g>
  <g
     fill="#ff0000"
     id="g40">
    <circle
       cx="370.138"
       cy="324.682"
       r="6.51643"
       id="circle40" />
  </g>
  <g
     fill="#ff0000"
     id="g41">
    <circle
       cx="379.209"
       cy="332.507"
       r="6.51643"
       id="circle41" />
  </g>
  <g
     fill="#ff0000"
     id="g42">
    <circle
       cx="388.28"
       cy="335.352"
       r="6.51643"
       id="circle42" />
  </g>
  <g
     fill="#ff0000"
     id="g43">
    <circle
       cx="397.35"
       cy="340.332"
       r="6.51643"
       id="circle43" />
  </g>
  <g
     fill="#ff0000"
     id="g44">
    <circle
       cx="406.421"
       cy="343.177"
       r="6.51643"
       id="circle44" />
  </g>
  <g
     fill="#ff0000"
     id="g45">
    <circle
       cx="415.492"
       cy="343.888"
       r="6.51643"
       id="circle45" />
  </g>
  <g
     fill="#ff0000"
     id="g46">
    <circle
       cx="424.563"
       cy="343.888"
       r="6.51643"
       id="circle46" />
  </g>
  <g
     fill="#ff0000"
     id="g47">
    <circle
       cx="433.634"
       cy="343.177"
       r="6.51643"
       id="circle47" />
  </g>
  <g
     fill="#ff0000"
     id="g48">
    <circle
       cx="442.705"
       cy="345.311"
       r="6.51643"
       id="circle48" />
  </g>
  <g
     fill="#ff0000"
     id="g49">
    <circle
       cx="451.776"
       cy="345.311"
       r="6.51643"
       id="circle49" />
  </g>
  <g
     fill="#ff0000"
     id="g50">
    <circle
       cx="478.988"
       cy="345.311"
       r="6.51643"
       id="circle50" />
  </g>
  <g
     fill="#ff0000"
     id="g51">
    <circle
       cx="506.201"
       cy="345.311"
       r="6.51643"
       id="circle51" />
  </g>
  <path
     d="M57.1929,346.022h 453.543"
     fill="none"
     stroke="black"
     id="path51" />
  <path
     d="M57.1929,336.795v 9.22726"
     fill="none"
     stroke="black"
     id="path52" />
  <path
     d="M71.3661,341.409v 4.61363"
     fill="none"
     stroke="black"
     id="path53" />
  <path
     d="M85.5394,341.409v 4.61363"
     fill="none"
     stroke="black"
     id="path54" />
  <path
     d="M99.7126,341.409v 4.61363"
     fill="none"
     stroke="black"
     id="path55" />
  <path
     d="M113.886,336.795v 9.22726"
     fill="none"
     stroke="black"
     id="path56" />
  <path
     d="M128.059,341.409v 4.61363"
     fill="none"
     stroke="black"
     id="path57" />
  <path
     d="M142.232,341.409v 4.61363"
     fill="none"
     stroke="black"
     id="path58" />
  <path
     d="M156.406,341.409v 4.61363"
     fill="none"
     stroke="black"
     id="path59" />
  <path
     d="M170.579,336.795v 9.22726"
     fill="none"
     stroke="black"
     id="path60" />
  <path
     d="M184.752,341.409v 4.61363"
     fill="none"
     stroke="black"
     id="path61" />
  <path
     d="M198.925,341.409v 4.61363"
     fill="none"
     stroke="black"
     id="path62" />
  <path
     d="M213.098,341.409v 4.61363"
     fill="none"
     stroke="black"
     id="path63" />
  <path
     d="M227.272,336.795v 9.22726"
     fill="none"
     stroke="black"
     id="path64" />
  <path
     d="M241.445,341.409v 4.61363"
     fill="none"
     stroke="black"
     id="path65" />
  <path
     d="M255.618,341.409v 4.61363"
     fill="none"
     stroke="black"
     id="path66" />
  <path
     d="M269.791,341.409v 4.61363"
     fill="none"
     stroke="black"
     id="path67" />
  <path
     d="M283.965,336.795v 9.22726"
     fill="none"
     stroke="black"
     id="path68" />
  <path
     d="M298.138,341.409v 4.61363"
     fill="none"
     stroke="black"
     id="path69" />
  <path
     d="M312.311,341.409v 4.61363"
     fill="none"
     stroke="black"
     id="path70" />
  <path
     d="M326.484,341.409v 4.61363"
     fill="none"
     stroke="black"
     id="path71" />
  <path
     d="M340.657,336.795v 9.22726"
     fill="none"
     stroke="black"
     id="path72" />
  <path
     d="M354.831,341.409v 4.61363"
     fill="none"
     stroke="black"
     id="path73" />
  <path
     d="M369.004,341.409v 4.61363"
     fill="none"
     stroke="black"
     id="path74" />
  <path
     d="M383.177,341.409v 4.61363"
     fill="none"
     stroke="black"
     id="path75" />
  <path
     d="M397.35,336.795v 9.22726"
     fill="none"
     stroke="black"
     id="path76" />
  <path
     d="M411.524,341.409v 4.61363"
     fill="none"
     stroke="black"
     id="path77" />
  <path
     d="M425.697,341.409v 4.61363"
     fill="none"
     stroke="black"
     id="path78" />
  <path
     d="M439.87,341.409v 4.61363"
     fill="none"
     stroke="black"
     id="path79" />
  <path
     d="M454.043,336.795v 9.22726"
     fill="none"
     stroke="black"
     id="path80" />
  <path
     d="M468.217,341.409v 4.61363"
     fill="none"
     stroke="black"
     id="path81" />
  <path
     d="M482.39,341.409v 4.61363"
     fill="none"
     stroke="black"
     id="path82" />
  <path
     d="M496.563,341.409v 4.61363"
     fill="none"
     stroke="black"
     id="path83" />
  <path
     d="M510.736,336.795v 9.22726"
     fill="none"
     stroke="black"
     id="path84" />
  <text
     xml:space="preserve"
     x="47.7441"
     y="358.403"
     fill="black"
     font-size="12.8453"
     font-family="Helvetica"
     id="text84">0.2</text>
  <text
     xml:space="preserve"
     x="104.763"
     y="358.403"
     fill="black"
     font-size="12.8453"
     font-family="Helvetica"
     id="text85">0.4</text>
  <text
     xml:space="preserve"
     x="160.967"
     y="358.403"
     fill="black"
     font-size="12.8453"
     font-family="Helvetica"
     id="text86">0.6</text>
  <text
     xml:space="preserve"
     x="217.986"
     y="358.403"
     fill="black"
     font-size="12.8453"
     font-family="Helvetica"
     id="text87">0.8</text>
  <text
     xml:space="preserve"
     x="281.521"
     y="358.403"
     fill="black"
     font-size="12.8453"
     font-family="Helvetica"
     id="text88">1</text>
  <text
     xml:space="preserve"
     x="331.209"
     y="358.403"
     fill="black"
     font-size="12.8453"
     font-family="Helvetica"
     id="text89">1.2</text>
  <text
     xml:space="preserve"
     x="388.227"
     y="358.403"
     fill="black"
     font-size="12.8453"
     font-family="Helvetica"
     id="text90">1.4</text>
  <text
     xml:space="preserve"
     x="444.432"
     y="358.403"
     fill="black"
     font-size="12.8453"
     font-family="Helvetica"
     id="text91">1.6</text>
  <text
     xml:space="preserve"
     x="501.45"
     y="358.403"
     fill="black"
     font-size="12.8453"
     font-family="Helvetica"
     id="text92">1.8</text>
  <text
     xml:space="preserve"
     x="368.678"
     y="371.436"
     fill="black"
     font-size="12.8453"
     font-family="Helvetica"
     id="text93"> normierte Gesamtenergie</text>
  <path
     d="M57.1929,346.022v -307.575"
     fill="none"
     stroke="black"
     id="path93" />
  <path
     d="M70.7992,346.022h -13.6063"
     fill="none"
     stroke="black"
     id="path94" />
  <path
     d="M63.9961,332.144h -6.80315"
     fill="none"
     stroke="black"
     id="path95" />
  <path
     d="M63.9961,318.266h -6.80315"
     fill="none"
     stroke="black"
     id="path96" />
  <path
     d="M63.9961,304.388h -6.80315"
     fill="none"
     stroke="black"
     id="path97" />
  <path
     d="M70.7992,290.509h -13.6063"
     fill="none"
     stroke="black"
     id="path98" />
  <path
     d="M63.9961,276.631h -6.80315"
     fill="none"
     stroke="black"
     id="path99" />
  <path
     d="M63.9961,262.753h -6.80315"
     fill="none"
     stroke="black"
     id="path100" />
  <path
     d="M63.9961,248.875h -6.80315"
     fill="none"
     stroke="black"
     id="path101" />
  <path
     d="M70.7992,234.996h -13.6063"
     fill="none"
     stroke="black"
     id="path102" />
  <path
     d="M63.9961,221.118h -6.80315"
     fill="none"
     stroke="black"
     id="path103" />
  <path
     d="M63.9961,207.24h -6.80315"
     fill="none"
     stroke="black"
     id="path104" />
  <path
     d="M63.9961,193.362h -6.80315"
     fill="none"
     stroke="black"
     id="path105" />
  <path
     d="M70.7992,179.483h -13.6063"
     fill="none"
     stroke="black"
     id="path106" />
  <path
     d="M63.9961,165.605h -6.80315"
     fill="none"
     stroke="black"
     id="path107" />
  <path
     d="M63.9961,151.727h -6.80315"
     fill="none"
     stroke="black"
     id="path108" />
  <path
     d="M63.9961,137.849h -6.80315"
     fill="none"
     stroke="black"
     id="path109" />
  <path
     d="M70.7992,123.971h -13.6063"
     fill="none"
     stroke="black"
     id="path110" />
  <path
     d="M63.9961,110.092h -6.80315"
     fill="none"
     stroke="black"
     id="path111" />
  <path
     d="M63.9961,96.2141h -6.80315"
     fill="none"
     stroke="black"
     id="path112" />
  <path
     d="M63.9961,82.3358h -6.80315"
     fill="none"
     stroke="black"
     id="path113" />
  <path
     d="M70.7992,68.4576h -13.6063"
     fill="none"
     stroke="black"
     id="path114" />
  <path
     d="M70.7992,68.4576h -13.6063"
     fill="none"
     stroke="black"
     id="path115" />
  <path
     d="M63.9961,54.5793h -6.80315"
     fill="none"
     stroke="black"
     id="path116" />
  <path
     d="M63.9961,40.7011h -6.80315"
     fill="none"
     stroke="black"
     id="path117" />
  <text
     xml:space="preserve"
     x="47.7441"
     y="350.258"
     fill="black"
     font-size="12.8453"
     font-family="Helvetica"
     id="text117">0</text>
  <text
     xml:space="preserve"
     x="30.6385"
     y="294.868"
     fill="black"
     font-size="12.8453"
     font-family="Helvetica"
     id="text118">0.02</text>
  <text
     xml:space="preserve"
     x="30.6385"
     y="239.479"
     fill="black"
     font-size="12.8453"
     font-family="Helvetica"
     id="text119">0.04</text>
  <text
     xml:space="preserve"
     x="30.6385"
     y="184.089"
     fill="black"
     font-size="12.8453"
     font-family="Helvetica"
     id="text120">0.06</text>
  <text
     xml:space="preserve"
     x="30.6385"
     y="128.699"
     fill="black"
     font-size="12.8453"
     font-family="Helvetica"
     id="text121">0.08</text>
  <text
     xml:space="preserve"
     x="39.5986"
     y="73.3098"
     fill="black"
     font-size="12.8453"
     font-family="Helvetica"
     id="text122">0.1</text>
  <g
     transform="rotate(-90,17.6056,143.361)"
     id="g123">
    <text
       xml:space="preserve"
       x="17.6056"
       y="143.361"
       fill="black"
       font-size="12.8453"
       font-family="Helvetica"
       id="text123"> Wahrscheinlichkeit</text>
  </g>
  <path
     d="M57.1929,346.022h 108.85v -3.68649h 9.07087v -6.23868h 9.07087v -3.40292h 9.07087v -5.38795h 9.07087v -10.2088h 9.07087v -21.2682h 9.07087v -17.2982h 9.07087v -39.1336h 9.07087v -30.0591h 9.07087v -22.4025h 9.07087v -56.4317h 9.07087v  -38.2828h 9.07087v -28.3576h 9.07087v 23.8204h 9.07087v -10.4923h 9.07087v 38.5664h 9.07087v 31.7606h 9.07087v 37.9993h 9.07087v 42.82h 9.07087v 46.5065h 9.07087v 24.104h 9.07087v 17.2982h 9.07087v 8.79087h 9.07087v 10.4923h 9.07087v 3.11934h  9.07087v 4.53722h 9.07087v 0.567153h 9.07087v 1.70146h 9.07087v -0.283576h 9.07087v 0.567153h 18.1417v 0.283576h 9.07087v -0.283576h 9.07087v -0.283576h 9.07087v 0.567153h 27.2126v -0.567153h 9.07087"
     fill="none"
     stroke="#00ff00"
     stroke-width="2"
     id="path123" />
  <text
     xml:space="preserve"
     x="105.577"
     y="17.1056"
     fill="black"
     font-size="14.3275"
     font-family="Helvetica"
     id="text124"> Histogramm der Gesamtenergie mit beiden cuts (91 GeV)</text>
</svg>
