<?xml version="1.0" encoding="UTF-8" standalone="no"?>
<svg
   width="567.429"
   height="384.969"
   viewBox="0 0 567.429 384.969"
   shape-rendering="crispEdges"
   version="1.1"
   id="svg170"
   sodipodi:docname="91_E_M_oc.svg"
   inkscape:version="1.4.2 (f4327f4, 2025-05-13)"
   xmlns:inkscape="http://www.inkscape.org/namespaces/inkscape"
   xmlns:sodipodi="http://sodipodi.sourceforge.net/DTD/sodipodi-0.dtd"
   xmlns="http://www.w3.org/2000/svg"
   xmlns:svg="http://www.w3.org/2000/svg">
  <sodipodi:namedview
     id="namedview170"
     pagecolor="#ffffff"
     bordercolor="#000000"
     borderopacity="0.25"
     inkscape:showpageshadow="2"
     inkscape:pageopacity="0.0"
     inkscape:pagecheckerboard="0"
     inkscape:deskcolor="#d1d1d1"
     inkscape:zoom="2.1170536"
     inkscape:cx="2721.7072"
     inkscape:cy="-101.79242"
     inkscape:window-width="1920"
     inkscape:window-height="1017"
     inkscape:window-x="-8"
     inkscape:window-y="-8"
     inkscape:window-maximized="1"
     inkscape:current-layer="svg170" />
  <title
     id="title1">
Output/plot.svg
</title>
  <desc
     id="desc1">
Creator: ROOT Version 6.24/06
CreationDate: Fri Mar 13 11:25:05 2026</desc>
  <defs
     id="defs1" />
  <rect
     x="0.5"
     y="0"
     width="566.929"
     height="384.469"
     fill="#fefefe"
     id="rect1" />
  <rect
     x="57.1929"
     y="38.4469"
     width="453.543"
     height="307.575"
     fill="#fefefe"
     id="rect2" />
  <rect
     x="57.1929"
     y="38.4469"
     width="453.543"
     height="307.575"
     fill="none"
     stroke="black"
     id="rect3" />
  <rect
     x="57.1929"
     y="38.4469"
     width="453.543"
     height="307.575"
     fill="#fefefe"
     id="rect4" />
  <rect
     x="57.1929"
     y="38.4469"
     width="453.543"
     height="307.575"
     fill="none"
     stroke="black"
     id="rect5" />
  <path
     d="M61.7284,313.776v -1.97873"
     fill="none"
     stroke="#000099"
     id="path5" />
  <path
     d="M61.7284,298.764v -1.97873"
     fill="none"
     stroke="#000099"
     id="path6" />
  <g
     fill="#ff0000"
     id="g6">
    <circle
       cx="61.7284"
       cy="305.281"
       r="6.51643"
       id="circle6" />
  </g>
  <path
     d="M70.7992,96.9144v -15.3941"
     fill="none"
     stroke="#000099"
     id="path7" />
  <path
     d="M70.7992,68.4875v -15.3941"
     fill="none"
     stroke="#000099"
     id="path8" />
  <g
     fill="#ff0000"
     id="g8">
    <circle
       cx="70.7992"
       cy="75.0039"
       r="6.51643"
       id="circle8" />
  </g>
  <path
     d="M79.8701,152.863v -12.8879"
     fill="none"
     stroke="#000099"
     id="path9" />
  <path
     d="M79.8701,126.942v -12.8879"
     fill="none"
     stroke="#000099"
     id="path10" />
  <g
     fill="#ff0000"
     id="g10">
    <circle
       cx="79.8701"
       cy="133.459"
       r="6.51643"
       id="circle10" />
  </g>
  <path
     d="M88.9409,233.515v -8.51408"
     fill="none"
     stroke="#000099"
     id="path11" />
  <path
     d="M88.9409,211.968v -8.51408"
     fill="none"
     stroke="#000099"
     id="path12" />
  <g
     fill="#ff0000"
     id="g12">
    <circle
       cx="88.9409"
       cy="218.484"
       r="6.51643"
       id="circle12" />
  </g>
  <path
     d="M98.0118,226.841v -8.92595"
     fill="none"
     stroke="#000099"
     id="path13" />
  <path
     d="M98.0118,204.882v -8.92595"
     fill="none"
     stroke="#000099"
     id="path14" />
  <g
     fill="#ff0000"
     id="g14">
    <circle
       cx="98.0118"
       cy="211.399"
       r="6.51643"
       id="circle14" />
  </g>
  <path
     d="M107.083,273.269v -5.75593"
     fill="none"
     stroke="#000099"
     id="path15" />
  <path
     d="M107.083,254.48v -5.75593"
     fill="none"
     stroke="#000099"
     id="path16" />
  <g
     fill="#ff0000"
     id="g16">
    <circle
       cx="107.083"
       cy="260.997"
       r="6.51643"
       id="circle16" />
  </g>
  <path
     d="M116.154,274.912v -5.62742"
     fill="none"
     stroke="#000099"
     id="path17" />
  <path
     d="M116.154,256.252v -5.62742"
     fill="none"
     stroke="#000099"
     id="path18" />
  <g
     fill="#ff0000"
     id="g18">
    <circle
       cx="116.154"
       cy="262.768"
       r="6.51643"
       id="circle18" />
  </g>
  <path
     d="M125.224,288.001v -4.54572"
     fill="none"
     stroke="#000099"
     id="path19" />
  <path
     d="M125.224,270.423v -4.54572"
     fill="none"
     stroke="#000099"
     id="path20" />
  <g
     fill="#ff0000"
     id="g20">
    <circle
       cx="125.224"
       cy="276.939"
       r="6.51643"
       id="circle20" />
  </g>
  <path
     d="M134.295,315.361v -1.792"
     fill="none"
     stroke="#000099"
     id="path21" />
  <path
     d="M134.295,300.536v -1.792"
     fill="none"
     stroke="#000099"
     id="path22" />
  <g
     fill="#ff0000"
     id="g22">
    <circle
       cx="134.295"
       cy="307.052"
       r="6.51643"
       id="circle22" />
  </g>
  <path
     d="M143.366,299.359v -3.50391"
     fill="none"
     stroke="#000099"
     id="path23" />
  <path
     d="M143.366,282.822v -3.50391"
     fill="none"
     stroke="#000099"
     id="path24" />
  <g
     fill="#ff0000"
     id="g24">
    <circle
       cx="143.366"
       cy="289.339"
       r="6.51643"
       id="circle24" />
  </g>
  <path
     d="M152.437,307.4v -2.68784"
     fill="none"
     stroke="#000099"
     id="path25" />
  <path
     d="M152.437,291.679v -2.68784"
     fill="none"
     stroke="#000099"
     id="path26" />
  <g
     fill="#ff0000"
     id="g26">
    <circle
       cx="152.437"
       cy="298.195"
       r="6.51643"
       id="circle26" />
  </g>
  <path
     d="M161.508,318.517v -1.40534"
     fill="none"
     stroke="#000099"
     id="path27" />
  <path
     d="M161.508,304.079v -1.40534"
     fill="none"
     stroke="#000099"
     id="path28" />
  <g
     fill="#ff0000"
     id="g28">
    <circle
       cx="161.508"
       cy="310.595"
       r="6.51643"
       id="circle28" />
  </g>
  <path
     d="M170.579,304.192v -3.02265"
     fill="none"
     stroke="#000099"
     id="path29" />
  <path
     d="M170.579,288.136v -3.02265"
     fill="none"
     stroke="#000099"
     id="path30" />
  <g
     fill="#ff0000"
     id="g30">
    <circle
       cx="170.579"
       cy="294.653"
       r="6.51643"
       id="circle30" />
  </g>
  <path
     d="M179.65,313.776v -1.97873"
     fill="none"
     stroke="#000099"
     id="path31" />
  <path
     d="M179.65,298.764v -1.97873"
     fill="none"
     stroke="#000099"
     id="path32" />
  <g
     fill="#ff0000"
     id="g32">
    <circle
       cx="179.65"
       cy="305.281"
       r="6.51643"
       id="circle32" />
  </g>
  <g
     fill="#ff0000"
     id="g33">
    <circle
       cx="188.72"
       cy="322.995"
       r="6.51643"
       id="circle33" />
  </g>
  <path
     d="M197.791,321.653v -0.998825"
     fill="none"
     stroke="#000099"
     id="path33" />
  <path
     d="M197.791,307.621v -0.998825"
     fill="none"
     stroke="#000099"
     id="path34" />
  <g
     fill="#ff0000"
     id="g34">
    <circle
       cx="197.791"
       cy="314.138"
       r="6.51643"
       id="circle34" />
  </g>
  <g
     fill="#ff0000"
     id="g35">
    <circle
       cx="206.862"
       cy="330.08"
       r="6.51643"
       id="circle35" />
  </g>
  <path
     d="M215.933,321.653v -0.998825"
     fill="none"
     stroke="#000099"
     id="path35" />
  <path
     d="M215.933,307.621v -0.998825"
     fill="none"
     stroke="#000099"
     id="path36" />
  <g
     fill="#ff0000"
     id="g36">
    <circle
       cx="215.933"
       cy="314.138"
       r="6.51643"
       id="circle36" />
  </g>
  <path
     d="M225.004,318.517v -1.40534"
     fill="none"
     stroke="#000099"
     id="path37" />
  <path
     d="M225.004,304.079v -1.40534"
     fill="none"
     stroke="#000099"
     id="path38" />
  <g
     fill="#ff0000"
     id="g38">
    <circle
       cx="225.004"
       cy="310.595"
       r="6.51643"
       id="circle38" />
  </g>
  <g
     fill="#ff0000"
     id="g39">
    <circle
       cx="234.075"
       cy="322.995"
       r="6.51643"
       id="circle39" />
  </g>
  <path
     d="M243.146,323.213v -0.787085"
     fill="none"
     stroke="#000099"
     id="path39" />
  <path
     d="M243.146,309.393v -0.787085"
     fill="none"
     stroke="#000099"
     id="path40" />
  <g
     fill="#ff0000"
     id="g40">
    <circle
       cx="243.146"
       cy="315.909"
       r="6.51643"
       id="circle40" />
  </g>
  <path
     d="M252.217,321.653v -0.998825"
     fill="none"
     stroke="#000099"
     id="path41" />
  <path
     d="M252.217,307.621v -0.998825"
     fill="none"
     stroke="#000099"
     id="path42" />
  <g
     fill="#ff0000"
     id="g42">
    <circle
       cx="252.217"
       cy="314.138"
       r="6.51643"
       id="circle42" />
  </g>
  <path
     d="M261.287,323.213v -0.787085"
     fill="none"
     stroke="#000099"
     id="path43" />
  <path
     d="M261.287,309.393v -0.787085"
     fill="none"
     stroke="#000099"
     id="path44" />
  <g
     fill="#ff0000"
     id="g44">
    <circle
       cx="261.287"
       cy="315.909"
       r="6.51643"
       id="circle44" />
  </g>
  <path
     d="M270.358,300.973v -3.3461"
     fill="none"
     stroke="#000099"
     id="path45" />
  <path
     d="M270.358,284.594v -3.3461"
     fill="none"
     stroke="#000099"
     id="path46" />
  <g
     fill="#ff0000"
     id="g46">
    <circle
       cx="270.358"
       cy="291.11"
       r="6.51643"
       id="circle46" />
  </g>
  <path
     d="M279.429,243.503v -7.87418"
     fill="none"
     stroke="#000099"
     id="path47" />
  <path
     d="M279.429,222.596v -7.87418"
     fill="none"
     stroke="#000099"
     id="path48" />
  <g
     fill="#ff0000"
     id="g48">
    <circle
       cx="279.429"
       cy="229.112"
       r="6.51643"
       id="circle48" />
  </g>
  <path
     d="M288.5,235.181v -8.40933"
     fill="none"
     stroke="#000099"
     id="path49" />
  <path
     d="M288.5,213.739v -8.40933"
     fill="none"
     stroke="#000099"
     id="path50" />
  <g
     fill="#ff0000"
     id="g50">
    <circle
       cx="288.5"
       cy="220.256"
       r="6.51643"
       id="circle50" />
  </g>
  <path
     d="M297.571,313.776v -1.97873"
     fill="none"
     stroke="#000099"
     id="path51" />
  <path
     d="M297.571,298.764v -1.97873"
     fill="none"
     stroke="#000099"
     id="path52" />
  <g
     fill="#ff0000"
     id="g52">
    <circle
       cx="297.571"
       cy="305.281"
       r="6.51643"
       id="circle52" />
  </g>
  <g
     fill="#ff0000"
     id="g53">
    <circle
       cx="306.642"
       cy="328.309"
       r="6.51643"
       id="circle53" />
  </g>
  <g
     fill="#ff0000"
     id="g54">
    <circle
       cx="315.713"
       cy="330.08"
       r="6.51643"
       id="circle54" />
  </g>
  <g
     fill="#ff0000"
     id="g55">
    <circle
       cx="324.783"
       cy="331.851"
       r="6.51643"
       id="circle55" />
  </g>
  <g
     fill="#ff0000"
     id="g56">
    <circle
       cx="333.854"
       cy="333.623"
       r="6.51643"
       id="circle56" />
  </g>
  <g
     fill="#ff0000"
     id="g57">
    <circle
       cx="342.925"
       cy="337.165"
       r="6.51643"
       id="circle57" />
  </g>
  <g
     fill="#ff0000"
     id="g58">
    <circle
       cx="351.996"
       cy="340.708"
       r="6.51643"
       id="circle58" />
  </g>
  <g
     fill="#ff0000"
     id="g59">
    <circle
       cx="361.067"
       cy="344.251"
       r="6.51643"
       id="circle59" />
  </g>
  <g
     fill="#ff0000"
     id="g60">
    <circle
       cx="370.138"
       cy="342.48"
       r="6.51643"
       id="circle60" />
  </g>
  <g
     fill="#ff0000"
     id="g61">
    <circle
       cx="379.209"
       cy="340.708"
       r="6.51643"
       id="circle61" />
  </g>
  <g
     fill="#ff0000"
     id="g62">
    <circle
       cx="388.28"
       cy="337.165"
       r="6.51643"
       id="circle62" />
  </g>
  <g
     fill="#ff0000"
     id="g63">
    <circle
       cx="397.35"
       cy="337.165"
       r="6.51643"
       id="circle63" />
  </g>
  <g
     fill="#ff0000"
     id="g64">
    <circle
       cx="406.421"
       cy="340.708"
       r="6.51643"
       id="circle64" />
  </g>
  <g
     fill="#ff0000"
     id="g65">
    <circle
       cx="415.492"
       cy="338.937"
       r="6.51643"
       id="circle65" />
  </g>
  <g
     fill="#ff0000"
     id="g66">
    <circle
       cx="424.563"
       cy="340.708"
       r="6.51643"
       id="circle66" />
  </g>
  <g
     fill="#ff0000"
     id="g67">
    <circle
       cx="433.634"
       cy="340.708"
       r="6.51643"
       id="circle67" />
  </g>
  <g
     fill="#ff0000"
     id="g68">
    <circle
       cx="442.705"
       cy="344.251"
       r="6.51643"
       id="circle68" />
  </g>
  <g
     fill="#ff0000"
     id="g69">
    <circle
       cx="451.776"
       cy="342.48"
       r="6.51643"
       id="circle69" />
  </g>
  <g
     fill="#ff0000"
     id="g70">
    <circle
       cx="460.846"
       cy="344.251"
       r="6.51643"
       id="circle70" />
  </g>
  <g
     fill="#ff0000"
     id="g71">
    <circle
       cx="469.917"
       cy="344.251"
       r="6.51643"
       id="circle71" />
  </g>
  <g
     fill="#ff0000"
     id="g72">
    <circle
       cx="478.988"
       cy="342.48"
       r="6.51643"
       id="circle72" />
  </g>
  <g
     fill="#ff0000"
     id="g73">
    <circle
       cx="488.059"
       cy="338.937"
       r="6.51643"
       id="circle73" />
  </g>
  <g
     fill="#ff0000"
     id="g74">
    <circle
       cx="506.201"
       cy="344.251"
       r="6.51643"
       id="circle74" />
  </g>
  <path
     d="M57.1929,346.022h 453.543"
     fill="none"
     stroke="black"
     id="path74" />
  <path
     d="M57.1929,336.795v 9.22726"
     fill="none"
     stroke="black"
     id="path75" />
  <path
     d="M68.5315,341.409v 4.61363"
     fill="none"
     stroke="black"
     id="path76" />
  <path
     d="M79.8701,341.409v 4.61363"
     fill="none"
     stroke="black"
     id="path77" />
  <path
     d="M91.2087,341.409v 4.61363"
     fill="none"
     stroke="black"
     id="path78" />
  <path
     d="M102.547,336.795v 9.22726"
     fill="none"
     stroke="black"
     id="path79" />
  <path
     d="M113.886,341.409v 4.61363"
     fill="none"
     stroke="black"
     id="path80" />
  <path
     d="M125.224,341.409v 4.61363"
     fill="none"
     stroke="black"
     id="path81" />
  <path
     d="M136.563,341.409v 4.61363"
     fill="none"
     stroke="black"
     id="path82" />
  <path
     d="M147.902,336.795v 9.22726"
     fill="none"
     stroke="black"
     id="path83" />
  <path
     d="M159.24,341.409v 4.61363"
     fill="none"
     stroke="black"
     id="path84" />
  <path
     d="M170.579,341.409v 4.61363"
     fill="none"
     stroke="black"
     id="path85" />
  <path
     d="M181.917,341.409v 4.61363"
     fill="none"
     stroke="black"
     id="path86" />
  <path
     d="M193.256,336.795v 9.22726"
     fill="none"
     stroke="black"
     id="path87" />
  <path
     d="M204.594,341.409v 4.61363"
     fill="none"
     stroke="black"
     id="path88" />
  <path
     d="M215.933,341.409v 4.61363"
     fill="none"
     stroke="black"
     id="path89" />
  <path
     d="M227.272,341.409v 4.61363"
     fill="none"
     stroke="black"
     id="path90" />
  <path
     d="M238.61,336.795v 9.22726"
     fill="none"
     stroke="black"
     id="path91" />
  <path
     d="M249.949,341.409v 4.61363"
     fill="none"
     stroke="black"
     id="path92" />
  <path
     d="M261.287,341.409v 4.61363"
     fill="none"
     stroke="black"
     id="path93" />
  <path
     d="M272.626,341.409v 4.61363"
     fill="none"
     stroke="black"
     id="path94" />
  <path
     d="M283.965,336.795v 9.22726"
     fill="none"
     stroke="black"
     id="path95" />
  <path
     d="M295.303,341.409v 4.61363"
     fill="none"
     stroke="black"
     id="path96" />
  <path
     d="M306.642,341.409v 4.61363"
     fill="none"
     stroke="black"
     id="path97" />
  <path
     d="M317.98,341.409v 4.61363"
     fill="none"
     stroke="black"
     id="path98" />
  <path
     d="M329.319,336.795v 9.22726"
     fill="none"
     stroke="black"
     id="path99" />
  <path
     d="M340.657,341.409v 4.61363"
     fill="none"
     stroke="black"
     id="path100" />
  <path
     d="M351.996,341.409v 4.61363"
     fill="none"
     stroke="black"
     id="path101" />
  <path
     d="M363.335,341.409v 4.61363"
     fill="none"
     stroke="black"
     id="path102" />
  <path
     d="M374.673,336.795v 9.22726"
     fill="none"
     stroke="black"
     id="path103" />
  <path
     d="M386.012,341.409v 4.61363"
     fill="none"
     stroke="black"
     id="path104" />
  <path
     d="M397.35,341.409v 4.61363"
     fill="none"
     stroke="black"
     id="path105" />
  <path
     d="M408.689,341.409v 4.61363"
     fill="none"
     stroke="black"
     id="path106" />
  <path
     d="M420.028,336.795v 9.22726"
     fill="none"
     stroke="black"
     id="path107" />
  <path
     d="M431.366,341.409v 4.61363"
     fill="none"
     stroke="black"
     id="path108" />
  <path
     d="M442.705,341.409v 4.61363"
     fill="none"
     stroke="black"
     id="path109" />
  <path
     d="M454.043,341.409v 4.61363"
     fill="none"
     stroke="black"
     id="path110" />
  <path
     d="M465.382,336.795v 9.22726"
     fill="none"
     stroke="black"
     id="path111" />
  <path
     d="M476.72,341.409v 4.61363"
     fill="none"
     stroke="black"
     id="path112" />
  <path
     d="M488.059,341.409v 4.61363"
     fill="none"
     stroke="black"
     id="path113" />
  <path
     d="M499.398,341.409v 4.61363"
     fill="none"
     stroke="black"
     id="path114" />
  <path
     d="M510.736,336.795v 9.22726"
     fill="none"
     stroke="black"
     id="path115" />
  <text
     xml:space="preserve"
     x="53.446"
     y="358.403"
     fill="black"
     font-size="12.8453"
     font-family="Helvetica"
     id="text115">0</text>
  <text
     xml:space="preserve"
     x="93.3591"
     y="358.403"
     fill="black"
     font-size="12.8453"
     font-family="Helvetica"
     id="text116">0.2</text>
  <text
     xml:space="preserve"
     x="138.16"
     y="358.403"
     fill="black"
     font-size="12.8453"
     font-family="Helvetica"
     id="text117">0.4</text>
  <text
     xml:space="preserve"
     x="183.775"
     y="358.403"
     fill="black"
     font-size="12.8453"
     font-family="Helvetica"
     id="text118">0.6</text>
  <text
     xml:space="preserve"
     x="229.389"
     y="358.403"
     fill="black"
     font-size="12.8453"
     font-family="Helvetica"
     id="text119">0.8</text>
  <text
     xml:space="preserve"
     x="281.521"
     y="358.403"
     fill="black"
     font-size="12.8453"
     font-family="Helvetica"
     id="text120">1</text>
  <text
     xml:space="preserve"
     x="319.805"
     y="358.403"
     fill="black"
     font-size="12.8453"
     font-family="Helvetica"
     id="text121">1.2</text>
  <text
     xml:space="preserve"
     x="365.42"
     y="358.403"
     fill="black"
     font-size="12.8453"
     font-family="Helvetica"
     id="text122">1.4</text>
  <text
     xml:space="preserve"
     x="411.035"
     y="358.403"
     fill="black"
     font-size="12.8453"
     font-family="Helvetica"
     id="text123">1.6</text>
  <text
     xml:space="preserve"
     x="455.835"
     y="358.403"
     fill="black"
     font-size="12.8453"
     font-family="Helvetica"
     id="text124">1.8</text>
  <text
     xml:space="preserve"
     x="507.152"
     y="358.403"
     fill="black"
     font-size="12.8453"
     font-family="Helvetica"
     id="text125">2</text>
  <text
     xml:space="preserve"
     x="177.258"
     y="371.436"
     fill="black"
     font-size="12.8453"
     font-family="Helvetica"
     id="text126"> Teilchenenergie normiert auf die halbe Schwerpunktsenergie</text>
  <path
     d="M57.1929,346.022v -307.575"
     fill="none"
     stroke="black"
     id="path126" />
  <path
     d="M70.7992,346.022h -13.6063"
     fill="none"
     stroke="black"
     id="path127" />
  <path
     d="M63.9961,335.855h -6.80315"
     fill="none"
     stroke="black"
     id="path128" />
  <path
     d="M63.9961,325.687h -6.80315"
     fill="none"
     stroke="black"
     id="path129" />
  <path
     d="M63.9961,315.519h -6.80315"
     fill="none"
     stroke="black"
     id="path130" />
  <path
     d="M70.7992,305.352h -13.6063"
     fill="none"
     stroke="black"
     id="path131" />
  <path
     d="M63.9961,295.184h -6.80315"
     fill="none"
     stroke="black"
     id="path132" />
  <path
     d="M63.9961,285.017h -6.80315"
     fill="none"
     stroke="black"
     id="path133" />
  <path
     d="M63.9961,274.849h -6.80315"
     fill="none"
     stroke="black"
     id="path134" />
  <path
     d="M70.7992,264.681h -13.6063"
     fill="none"
     stroke="black"
     id="path135" />
  <path
     d="M63.9961,254.514h -6.80315"
     fill="none"
     stroke="black"
     id="path136" />
  <path
     d="M63.9961,244.346h -6.80315"
     fill="none"
     stroke="black"
     id="path137" />
  <path
     d="M63.9961,234.178h -6.80315"
     fill="none"
     stroke="black"
     id="path138" />
  <path
     d="M70.7992,224.011h -13.6063"
     fill="none"
     stroke="black"
     id="path139" />
  <path
     d="M63.9961,213.843h -6.80315"
     fill="none"
     stroke="black"
     id="path140" />
  <path
     d="M63.9961,203.676h -6.80315"
     fill="none"
     stroke="black"
     id="path141" />
  <path
     d="M63.9961,193.508h -6.80315"
     fill="none"
     stroke="black"
     id="path142" />
  <path
     d="M70.7992,183.34h -13.6063"
     fill="none"
     stroke="black"
     id="path143" />
  <path
     d="M63.9961,173.173h -6.80315"
     fill="none"
     stroke="black"
     id="path144" />
  <path
     d="M63.9961,163.005h -6.80315"
     fill="none"
     stroke="black"
     id="path145" />
  <path
     d="M63.9961,152.838h -6.80315"
     fill="none"
     stroke="black"
     id="path146" />
  <path
     d="M70.7992,142.67h -13.6063"
     fill="none"
     stroke="black"
     id="path147" />
  <path
     d="M63.9961,132.502h -6.80315"
     fill="none"
     stroke="black"
     id="path148" />
  <path
     d="M63.9961,122.335h -6.80315"
     fill="none"
     stroke="black"
     id="path149" />
  <path
     d="M63.9961,112.167h -6.80315"
     fill="none"
     stroke="black"
     id="path150" />
  <path
     d="M70.7992,101.999h -13.6063"
     fill="none"
     stroke="black"
     id="path151" />
  <path
     d="M63.9961,91.8318h -6.80315"
     fill="none"
     stroke="black"
     id="path152" />
  <path
     d="M63.9961,81.6642h -6.80315"
     fill="none"
     stroke="black"
     id="path153" />
  <path
     d="M63.9961,71.4966h -6.80315"
     fill="none"
     stroke="black"
     id="path154" />
  <path
     d="M70.7992,61.329h -13.6063"
     fill="none"
     stroke="black"
     id="path155" />
  <path
     d="M70.7992,61.329h -13.6063"
     fill="none"
     stroke="black"
     id="path156" />
  <path
     d="M63.9961,51.1614h -6.80315"
     fill="none"
     stroke="black"
     id="path157" />
  <path
     d="M63.9961,40.9938h -6.80315"
     fill="none"
     stroke="black"
     id="path158" />
  <text
     xml:space="preserve"
     x="47.7441"
     y="350.258"
     fill="black"
     font-size="12.8453"
     font-family="Helvetica"
     id="text158">0</text>
  <text
     xml:space="preserve"
     x="30.6385"
     y="309.53"
     fill="black"
     font-size="12.8453"
     font-family="Helvetica"
     id="text159">0.02</text>
  <text
     xml:space="preserve"
     x="30.6385"
     y="268.803"
     fill="black"
     font-size="12.8453"
     font-family="Helvetica"
     id="text160">0.04</text>
  <text
     xml:space="preserve"
     x="30.6385"
     y="228.889"
     fill="black"
     font-size="12.8453"
     font-family="Helvetica"
     id="text161">0.06</text>
  <text
     xml:space="preserve"
     x="30.6385"
     y="188.162"
     fill="black"
     font-size="12.8453"
     font-family="Helvetica"
     id="text162">0.08</text>
  <text
     xml:space="preserve"
     x="39.5986"
     y="147.434"
     fill="black"
     font-size="12.8453"
     font-family="Helvetica"
     id="text163">0.1</text>
  <text
     xml:space="preserve"
     x="30.6385"
     y="106.706"
     fill="black"
     font-size="12.8453"
     font-family="Helvetica"
     id="text164">0.12</text>
  <text
     xml:space="preserve"
     x="30.6385"
     y="65.9788"
     fill="black"
     font-size="12.8453"
     font-family="Helvetica"
     id="text165">0.14</text>
  <g
     transform="rotate(-90,17.6056,140.103)"
     id="g166">
    <text
       xml:space="preserve"
       x="17.6056"
       y="140.103"
       fill="black"
       font-size="12.8453"
       font-family="Helvetica"
       id="text166">Wahrscheinlichkeit</text>
  </g>
  <path
     d="M57.1929,346.022h 9.07087v -1.50149h 9.07087v -0.333665h 9.07087v 0.333665h 9.07087v -1.16783h 9.07087v 0.667331h 9.07087v -1.83516h 9.07087v 0.500498h 9.07087v 1.33466h 9.07087v -2.00199h 9.07087v 1.66833h 9.07087v -0.500498h 9.07087v  -3.00299h 9.07087v -0.166833h 9.07087v 0.166833h 9.07087v -0.667331h 9.07087v -3.33665h 9.07087v -4.83815h 9.07087v -2.66932h 9.07087v -7.00697h 9.07087v -14.0139h 9.07087v -25.1917h 9.07087v -8.1748h 9.07087v -80.4133h 9.07087v -155.424"
     fill="none"
     stroke="#00ff00"
     stroke-width="2"
     id="path166" />
  <path
     d="M293.035,38.4469v 236.171"
     fill="none"
     stroke="#00ff00"
     stroke-width="2"
     id="path167" />
  <path
     d="M293.035,274.618h 9.07087v 46.3795h 9.07087v 7.34064h 9.07087v 3.33665h 9.07087v 3.33665h 9.07087v 1.50149h 9.07087v 5.83914h 9.07087v 0.333665h 9.07087v 1.001h 9.07087v 0.500498h 9.07087v 0.166833h 9.07087v 0.333665h 18.1417v 0.667331h  9.07087v 0.333665h 9.07087v -0.333665h 9.07087v 0.166833h 9.07087v 0.166833h 9.07087v 0.166833h 18.1417v 0.166833h 36.2835"
     fill="none"
     stroke="#00ff00"
     stroke-width="2"
     id="path168" />
  <text
     xml:space="preserve"
     x="108.021"
     y="16.2911"
     fill="black"
     font-size="12.0165"
     font-family="Helvetica"
     id="text168"> Histogramm der Einteilchenenergien der Teilchen mit Myonenmasse </text>
  <text
     xml:space="preserve"
     x="400.05359"
     y="161.50775"
     fill="#ff0000"
     font-size="18.1362px"
     font-family="Helvetica"
     font-weight="bold"
     id="text240">L3</text>
  <text
     xml:space="preserve"
     x="358.39041"
     y="196.92499"
     fill="#00ff00"
     font-size="18.1362px"
     font-family="Helvetica"
     font-weight="bold"
     id="text241">Monte Carlo</text>
</svg>
