<?xml version="1.0" encoding="utf-8" standalone="no"?>
<!DOCTYPE svg PUBLIC "-//W3C//DTD SVG 1.1//EN"
  "http://www.w3.org/Graphics/SVG/1.1/DTD/svg11.dtd">
<svg xmlns:xlink="http://www.w3.org/1999/xlink" width="460.8pt" height="345.6pt" viewBox="0 0 460.8 345.6" xmlns="http://www.w3.org/2000/svg" version="1.1">
 <metadata>
  <rdf:RDF xmlns:dc="http://purl.org/dc/elements/1.1/" xmlns:cc="http://creativecommons.org/ns#" xmlns:rdf="http://www.w3.org/1999/02/22-rdf-syntax-ns#">
   <cc:Work>
    <dc:type rdf:resource="http://purl.org/dc/dcmitype/StillImage"/>
    <dc:date>2026-04-10T12:58:02.987891</dc:date>
    <dc:format>image/svg+xml</dc:format>
    <dc:creator>
     <cc:Agent>
      <dc:title>Matplotlib v3.10.6, https://matplotlib.org/</dc:title>
     </cc:Agent>
    </dc:creator>
   </cc:Work>
  </rdf:RDF>
 </metadata>
 <defs>
  <style type="text/css">*{stroke-linejoin: round; stroke-linecap: butt}</style>
 </defs>
 <g id="figure_1">
  <g id="patch_1">
   <path d="M 0 345.6 
L 460.8 345.6 
L 460.8 0 
L 0 0 
z
" style="fill: #ffffff"/>
  </g>
  <g id="axes_1">
   <g id="patch_2">
    <path d="M 57.6 307.584 
L 414.72 307.584 
L 414.72 41.472 
L 57.6 41.472 
z
" style="fill: #ffffff"/>
   </g>
   <g id="matplotlib.axis_1">
    <g id="xtick_1">
     <g id="line2d_1">
      <path d="M 69.064544 307.584 
L 69.064544 41.472 
" clip-path="url(#p7f79fb934c)" style="fill: none; stroke: #b0b0b0; stroke-width: 0.8; stroke-linecap: square"/>
     </g>
     <g id="line2d_2">
      <defs>
       <path id="m2a2fd61e04" d="M 0 0 
L 0 3.5 
" style="stroke: #000000; stroke-width: 0.8"/>
      </defs>
      <g>
       <use xlink:href="#m2a2fd61e04" x="69.064544" y="307.584" style="stroke: #000000; stroke-width: 0.8"/>
      </g>
     </g>
     <g id="text_1">
      <!-- 0 -->
      <g transform="translate(65.883294 322.182437) scale(0.1 -0.1)">
       <defs>
        <path id="DejaVuSans-30" d="M 2034 4250 
Q 1547 4250 1301 3770 
Q 1056 3291 1056 2328 
Q 1056 1369 1301 889 
Q 1547 409 2034 409 
Q 2525 409 2770 889 
Q 3016 1369 3016 2328 
Q 3016 3291 2770 3770 
Q 2525 4250 2034 4250 
z
M 2034 4750 
Q 2819 4750 3233 4129 
Q 3647 3509 3647 2328 
Q 3647 1150 3233 529 
Q 2819 -91 2034 -91 
Q 1250 -91 836 529 
Q 422 1150 422 2328 
Q 422 3509 836 4129 
Q 1250 4750 2034 4750 
z
" transform="scale(0.015625)"/>
       </defs>
       <use xlink:href="#DejaVuSans-30"/>
      </g>
     </g>
    </g>
    <g id="xtick_2">
     <g id="line2d_3">
      <path d="M 125.55961 307.584 
L 125.55961 41.472 
" clip-path="url(#p7f79fb934c)" style="fill: none; stroke: #b0b0b0; stroke-width: 0.8; stroke-linecap: square"/>
     </g>
     <g id="line2d_4">
      <g>
       <use xlink:href="#m2a2fd61e04" x="125.55961" y="307.584" style="stroke: #000000; stroke-width: 0.8"/>
      </g>
     </g>
     <g id="text_2">
      <!-- 50 -->
      <g transform="translate(119.19711 322.182437) scale(0.1 -0.1)">
       <defs>
        <path id="DejaVuSans-35" d="M 691 4666 
L 3169 4666 
L 3169 4134 
L 1269 4134 
L 1269 2991 
Q 1406 3038 1543 3061 
Q 1681 3084 1819 3084 
Q 2600 3084 3056 2656 
Q 3513 2228 3513 1497 
Q 3513 744 3044 326 
Q 2575 -91 1722 -91 
Q 1428 -91 1123 -41 
Q 819 9 494 109 
L 494 744 
Q 775 591 1075 516 
Q 1375 441 1709 441 
Q 2250 441 2565 725 
Q 2881 1009 2881 1497 
Q 2881 1984 2565 2268 
Q 2250 2553 1709 2553 
Q 1456 2553 1204 2497 
Q 953 2441 691 2322 
L 691 4666 
z
" transform="scale(0.015625)"/>
       </defs>
       <use xlink:href="#DejaVuSans-35"/>
       <use xlink:href="#DejaVuSans-30" transform="translate(63.623047 0)"/>
      </g>
     </g>
    </g>
    <g id="xtick_3">
     <g id="line2d_5">
      <path d="M 182.054675 307.584 
L 182.054675 41.472 
" clip-path="url(#p7f79fb934c)" style="fill: none; stroke: #b0b0b0; stroke-width: 0.8; stroke-linecap: square"/>
     </g>
     <g id="line2d_6">
      <g>
       <use xlink:href="#m2a2fd61e04" x="182.054675" y="307.584" style="stroke: #000000; stroke-width: 0.8"/>
      </g>
     </g>
     <g id="text_3">
      <!-- 100 -->
      <g transform="translate(172.510925 322.182437) scale(0.1 -0.1)">
       <defs>
        <path id="DejaVuSans-31" d="M 794 531 
L 1825 531 
L 1825 4091 
L 703 3866 
L 703 4441 
L 1819 4666 
L 2450 4666 
L 2450 531 
L 3481 531 
L 3481 0 
L 794 0 
L 794 531 
z
" transform="scale(0.015625)"/>
       </defs>
       <use xlink:href="#DejaVuSans-31"/>
       <use xlink:href="#DejaVuSans-30" transform="translate(63.623047 0)"/>
       <use xlink:href="#DejaVuSans-30" transform="translate(127.246094 0)"/>
      </g>
     </g>
    </g>
    <g id="xtick_4">
     <g id="line2d_7">
      <path d="M 238.549741 307.584 
L 238.549741 41.472 
" clip-path="url(#p7f79fb934c)" style="fill: none; stroke: #b0b0b0; stroke-width: 0.8; stroke-linecap: square"/>
     </g>
     <g id="line2d_8">
      <g>
       <use xlink:href="#m2a2fd61e04" x="238.549741" y="307.584" style="stroke: #000000; stroke-width: 0.8"/>
      </g>
     </g>
     <g id="text_4">
      <!-- 150 -->
      <g transform="translate(229.005991 322.182437) scale(0.1 -0.1)">
       <use xlink:href="#DejaVuSans-31"/>
       <use xlink:href="#DejaVuSans-35" transform="translate(63.623047 0)"/>
       <use xlink:href="#DejaVuSans-30" transform="translate(127.246094 0)"/>
      </g>
     </g>
    </g>
    <g id="xtick_5">
     <g id="line2d_9">
      <path d="M 295.044807 307.584 
L 295.044807 41.472 
" clip-path="url(#p7f79fb934c)" style="fill: none; stroke: #b0b0b0; stroke-width: 0.8; stroke-linecap: square"/>
     </g>
     <g id="line2d_10">
      <g>
       <use xlink:href="#m2a2fd61e04" x="295.044807" y="307.584" style="stroke: #000000; stroke-width: 0.8"/>
      </g>
     </g>
     <g id="text_5">
      <!-- 200 -->
      <g transform="translate(285.501057 322.182437) scale(0.1 -0.1)">
       <defs>
        <path id="DejaVuSans-32" d="M 1228 531 
L 3431 531 
L 3431 0 
L 469 0 
L 469 531 
Q 828 903 1448 1529 
Q 2069 2156 2228 2338 
Q 2531 2678 2651 2914 
Q 2772 3150 2772 3378 
Q 2772 3750 2511 3984 
Q 2250 4219 1831 4219 
Q 1534 4219 1204 4116 
Q 875 4013 500 3803 
L 500 4441 
Q 881 4594 1212 4672 
Q 1544 4750 1819 4750 
Q 2544 4750 2975 4387 
Q 3406 4025 3406 3419 
Q 3406 3131 3298 2873 
Q 3191 2616 2906 2266 
Q 2828 2175 2409 1742 
Q 1991 1309 1228 531 
z
" transform="scale(0.015625)"/>
       </defs>
       <use xlink:href="#DejaVuSans-32"/>
       <use xlink:href="#DejaVuSans-30" transform="translate(63.623047 0)"/>
       <use xlink:href="#DejaVuSans-30" transform="translate(127.246094 0)"/>
      </g>
     </g>
    </g>
    <g id="xtick_6">
     <g id="line2d_11">
      <path d="M 351.539873 307.584 
L 351.539873 41.472 
" clip-path="url(#p7f79fb934c)" style="fill: none; stroke: #b0b0b0; stroke-width: 0.8; stroke-linecap: square"/>
     </g>
     <g id="line2d_12">
      <g>
       <use xlink:href="#m2a2fd61e04" x="351.539873" y="307.584" style="stroke: #000000; stroke-width: 0.8"/>
      </g>
     </g>
     <g id="text_6">
      <!-- 250 -->
      <g transform="translate(341.996123 322.182437) scale(0.1 -0.1)">
       <use xlink:href="#DejaVuSans-32"/>
       <use xlink:href="#DejaVuSans-35" transform="translate(63.623047 0)"/>
       <use xlink:href="#DejaVuSans-30" transform="translate(127.246094 0)"/>
      </g>
     </g>
    </g>
    <g id="xtick_7">
     <g id="line2d_13">
      <path d="M 408.034939 307.584 
L 408.034939 41.472 
" clip-path="url(#p7f79fb934c)" style="fill: none; stroke: #b0b0b0; stroke-width: 0.8; stroke-linecap: square"/>
     </g>
     <g id="line2d_14">
      <g>
       <use xlink:href="#m2a2fd61e04" x="408.034939" y="307.584" style="stroke: #000000; stroke-width: 0.8"/>
      </g>
     </g>
     <g id="text_7">
      <!-- 300 -->
      <g transform="translate(398.491189 322.182437) scale(0.1 -0.1)">
       <defs>
        <path id="DejaVuSans-33" d="M 2597 2516 
Q 3050 2419 3304 2112 
Q 3559 1806 3559 1356 
Q 3559 666 3084 287 
Q 2609 -91 1734 -91 
Q 1441 -91 1130 -33 
Q 819 25 488 141 
L 488 750 
Q 750 597 1062 519 
Q 1375 441 1716 441 
Q 2309 441 2620 675 
Q 2931 909 2931 1356 
Q 2931 1769 2642 2001 
Q 2353 2234 1838 2234 
L 1294 2234 
L 1294 2753 
L 1863 2753 
Q 2328 2753 2575 2939 
Q 2822 3125 2822 3475 
Q 2822 3834 2567 4026 
Q 2313 4219 1838 4219 
Q 1578 4219 1281 4162 
Q 984 4106 628 3988 
L 628 4550 
Q 988 4650 1302 4700 
Q 1616 4750 1894 4750 
Q 2613 4750 3031 4423 
Q 3450 4097 3450 3541 
Q 3450 3153 3228 2886 
Q 3006 2619 2597 2516 
z
" transform="scale(0.015625)"/>
       </defs>
       <use xlink:href="#DejaVuSans-33"/>
       <use xlink:href="#DejaVuSans-30" transform="translate(63.623047 0)"/>
       <use xlink:href="#DejaVuSans-30" transform="translate(127.246094 0)"/>
      </g>
     </g>
    </g>
    <g id="text_8">
     <!-- $T$ / K -->
     <g transform="translate(224.96 335.860562) scale(0.1 -0.1)">
      <defs>
       <path id="DejaVuSans-Oblique-54" d="M 378 4666 
L 4325 4666 
L 4225 4134 
L 2559 4134 
L 1759 0 
L 1125 0 
L 1925 4134 
L 275 4134 
L 378 4666 
z
" transform="scale(0.015625)"/>
       <path id="DejaVuSans-20" transform="scale(0.015625)"/>
       <path id="DejaVuSans-2f" d="M 1625 4666 
L 2156 4666 
L 531 -594 
L 0 -594 
L 1625 4666 
z
" transform="scale(0.015625)"/>
       <path id="DejaVuSans-4b" d="M 628 4666 
L 1259 4666 
L 1259 2694 
L 3353 4666 
L 4166 4666 
L 1850 2491 
L 4331 0 
L 3500 0 
L 1259 2247 
L 1259 0 
L 628 0 
L 628 4666 
z
" transform="scale(0.015625)"/>
      </defs>
      <use xlink:href="#DejaVuSans-Oblique-54" transform="translate(0 0.09375)"/>
      <use xlink:href="#DejaVuSans-20" transform="translate(61.083984 0.09375)"/>
      <use xlink:href="#DejaVuSans-2f" transform="translate(92.871094 0.09375)"/>
      <use xlink:href="#DejaVuSans-20" transform="translate(126.5625 0.09375)"/>
      <use xlink:href="#DejaVuSans-4b" transform="translate(158.349609 0.09375)"/>
     </g>
    </g>
   </g>
   <g id="matplotlib.axis_2">
    <g id="ytick_1">
     <g id="line2d_15">
      <path d="M 57.6 301.41622 
L 414.72 301.41622 
" clip-path="url(#p7f79fb934c)" style="fill: none; stroke: #b0b0b0; stroke-width: 0.8; stroke-linecap: square"/>
     </g>
     <g id="line2d_16">
      <defs>
       <path id="m4948a6209f" d="M 0 0 
L -3.5 0 
" style="stroke: #000000; stroke-width: 0.8"/>
      </defs>
      <g>
       <use xlink:href="#m4948a6209f" x="57.6" y="301.41622" style="stroke: #000000; stroke-width: 0.8"/>
      </g>
     </g>
     <g id="text_9">
      <!-- 1000 -->
      <g transform="translate(25.15 305.215439) scale(0.1 -0.1)">
       <use xlink:href="#DejaVuSans-31"/>
       <use xlink:href="#DejaVuSans-30" transform="translate(63.623047 0)"/>
       <use xlink:href="#DejaVuSans-30" transform="translate(127.246094 0)"/>
       <use xlink:href="#DejaVuSans-30" transform="translate(190.869141 0)"/>
      </g>
     </g>
    </g>
    <g id="ytick_2">
     <g id="line2d_17">
      <path d="M 57.6 266.612886 
L 414.72 266.612886 
" clip-path="url(#p7f79fb934c)" style="fill: none; stroke: #b0b0b0; stroke-width: 0.8; stroke-linecap: square"/>
     </g>
     <g id="line2d_18">
      <g>
       <use xlink:href="#m4948a6209f" x="57.6" y="266.612886" style="stroke: #000000; stroke-width: 0.8"/>
      </g>
     </g>
     <g id="text_10">
      <!-- 1250 -->
      <g transform="translate(25.15 270.412105) scale(0.1 -0.1)">
       <use xlink:href="#DejaVuSans-31"/>
       <use xlink:href="#DejaVuSans-32" transform="translate(63.623047 0)"/>
       <use xlink:href="#DejaVuSans-35" transform="translate(127.246094 0)"/>
       <use xlink:href="#DejaVuSans-30" transform="translate(190.869141 0)"/>
      </g>
     </g>
    </g>
    <g id="ytick_3">
     <g id="line2d_19">
      <path d="M 57.6 231.809551 
L 414.72 231.809551 
" clip-path="url(#p7f79fb934c)" style="fill: none; stroke: #b0b0b0; stroke-width: 0.8; stroke-linecap: square"/>
     </g>
     <g id="line2d_20">
      <g>
       <use xlink:href="#m4948a6209f" x="57.6" y="231.809551" style="stroke: #000000; stroke-width: 0.8"/>
      </g>
     </g>
     <g id="text_11">
      <!-- 1500 -->
      <g transform="translate(25.15 235.60877) scale(0.1 -0.1)">
       <use xlink:href="#DejaVuSans-31"/>
       <use xlink:href="#DejaVuSans-35" transform="translate(63.623047 0)"/>
       <use xlink:href="#DejaVuSans-30" transform="translate(127.246094 0)"/>
       <use xlink:href="#DejaVuSans-30" transform="translate(190.869141 0)"/>
      </g>
     </g>
    </g>
    <g id="ytick_4">
     <g id="line2d_21">
      <path d="M 57.6 197.006217 
L 414.72 197.006217 
" clip-path="url(#p7f79fb934c)" style="fill: none; stroke: #b0b0b0; stroke-width: 0.8; stroke-linecap: square"/>
     </g>
     <g id="line2d_22">
      <g>
       <use xlink:href="#m4948a6209f" x="57.6" y="197.006217" style="stroke: #000000; stroke-width: 0.8"/>
      </g>
     </g>
     <g id="text_12">
      <!-- 1750 -->
      <g transform="translate(25.15 200.805435) scale(0.1 -0.1)">
       <defs>
        <path id="DejaVuSans-37" d="M 525 4666 
L 3525 4666 
L 3525 4397 
L 1831 0 
L 1172 0 
L 2766 4134 
L 525 4134 
L 525 4666 
z
" transform="scale(0.015625)"/>
       </defs>
       <use xlink:href="#DejaVuSans-31"/>
       <use xlink:href="#DejaVuSans-37" transform="translate(63.623047 0)"/>
       <use xlink:href="#DejaVuSans-35" transform="translate(127.246094 0)"/>
       <use xlink:href="#DejaVuSans-30" transform="translate(190.869141 0)"/>
      </g>
     </g>
    </g>
    <g id="ytick_5">
     <g id="line2d_23">
      <path d="M 57.6 162.202882 
L 414.72 162.202882 
" clip-path="url(#p7f79fb934c)" style="fill: none; stroke: #b0b0b0; stroke-width: 0.8; stroke-linecap: square"/>
     </g>
     <g id="line2d_24">
      <g>
       <use xlink:href="#m4948a6209f" x="57.6" y="162.202882" style="stroke: #000000; stroke-width: 0.8"/>
      </g>
     </g>
     <g id="text_13">
      <!-- 2000 -->
      <g transform="translate(25.15 166.002101) scale(0.1 -0.1)">
       <use xlink:href="#DejaVuSans-32"/>
       <use xlink:href="#DejaVuSans-30" transform="translate(63.623047 0)"/>
       <use xlink:href="#DejaVuSans-30" transform="translate(127.246094 0)"/>
       <use xlink:href="#DejaVuSans-30" transform="translate(190.869141 0)"/>
      </g>
     </g>
    </g>
    <g id="ytick_6">
     <g id="line2d_25">
      <path d="M 57.6 127.399548 
L 414.72 127.399548 
" clip-path="url(#p7f79fb934c)" style="fill: none; stroke: #b0b0b0; stroke-width: 0.8; stroke-linecap: square"/>
     </g>
     <g id="line2d_26">
      <g>
       <use xlink:href="#m4948a6209f" x="57.6" y="127.399548" style="stroke: #000000; stroke-width: 0.8"/>
      </g>
     </g>
     <g id="text_14">
      <!-- 2250 -->
      <g transform="translate(25.15 131.198766) scale(0.1 -0.1)">
       <use xlink:href="#DejaVuSans-32"/>
       <use xlink:href="#DejaVuSans-32" transform="translate(63.623047 0)"/>
       <use xlink:href="#DejaVuSans-35" transform="translate(127.246094 0)"/>
       <use xlink:href="#DejaVuSans-30" transform="translate(190.869141 0)"/>
      </g>
     </g>
    </g>
    <g id="ytick_7">
     <g id="line2d_27">
      <path d="M 57.6 92.596213 
L 414.72 92.596213 
" clip-path="url(#p7f79fb934c)" style="fill: none; stroke: #b0b0b0; stroke-width: 0.8; stroke-linecap: square"/>
     </g>
     <g id="line2d_28">
      <g>
       <use xlink:href="#m4948a6209f" x="57.6" y="92.596213" style="stroke: #000000; stroke-width: 0.8"/>
      </g>
     </g>
     <g id="text_15">
      <!-- 2500 -->
      <g transform="translate(25.15 96.395432) scale(0.1 -0.1)">
       <use xlink:href="#DejaVuSans-32"/>
       <use xlink:href="#DejaVuSans-35" transform="translate(63.623047 0)"/>
       <use xlink:href="#DejaVuSans-30" transform="translate(127.246094 0)"/>
       <use xlink:href="#DejaVuSans-30" transform="translate(190.869141 0)"/>
      </g>
     </g>
    </g>
    <g id="ytick_8">
     <g id="line2d_29">
      <path d="M 57.6 57.792878 
L 414.72 57.792878 
" clip-path="url(#p7f79fb934c)" style="fill: none; stroke: #b0b0b0; stroke-width: 0.8; stroke-linecap: square"/>
     </g>
     <g id="line2d_30">
      <g>
       <use xlink:href="#m4948a6209f" x="57.6" y="57.792878" style="stroke: #000000; stroke-width: 0.8"/>
      </g>
     </g>
     <g id="text_16">
      <!-- 2750 -->
      <g transform="translate(25.15 61.592097) scale(0.1 -0.1)">
       <use xlink:href="#DejaVuSans-32"/>
       <use xlink:href="#DejaVuSans-37" transform="translate(63.623047 0)"/>
       <use xlink:href="#DejaVuSans-35" transform="translate(127.246094 0)"/>
       <use xlink:href="#DejaVuSans-30" transform="translate(190.869141 0)"/>
      </g>
     </g>
    </g>
    <g id="text_17">
     <!-- $R$ / $\Omega$ -->
     <g transform="translate(19.070312 186.728) rotate(-90) scale(0.1 -0.1)">
      <defs>
       <path id="DejaVuSans-Oblique-52" d="M 1613 4147 
L 1294 2491 
L 2106 2491 
Q 2584 2491 2879 2755 
Q 3175 3019 3175 3444 
Q 3175 3784 2976 3965 
Q 2778 4147 2406 4147 
L 1613 4147 
z
M 2772 2241 
Q 2972 2194 3105 2009 
Q 3238 1825 3413 1275 
L 3809 0 
L 3144 0 
L 2778 1197 
Q 2638 1659 2453 1815 
Q 2269 1972 1888 1972 
L 1191 1972 
L 806 0 
L 172 0 
L 1081 4666 
L 2503 4666 
Q 3150 4666 3495 4373 
Q 3841 4081 3841 3531 
Q 3841 3044 3547 2687 
Q 3253 2331 2772 2241 
z
" transform="scale(0.015625)"/>
       <path id="DejaVuSans-3a9" d="M 4647 556 
L 4647 0 
L 2772 0 
L 2772 556 
Q 3325 859 3634 1378 
Q 3944 1897 3944 2528 
Q 3944 3278 3531 3731 
Q 3119 4184 2444 4184 
Q 1769 4184 1355 3729 
Q 941 3275 941 2528 
Q 941 1897 1250 1378 
Q 1563 859 2119 556 
L 2119 0 
L 244 0 
L 244 556 
L 1241 556 
Q 747 991 519 1456 
Q 294 1922 294 2497 
Q 294 3491 894 4106 
Q 1491 4722 2444 4722 
Q 3391 4722 3994 4106 
Q 4594 3494 4594 2528 
Q 4594 1922 4372 1459 
Q 4150 997 3647 556 
L 4647 556 
z
" transform="scale(0.015625)"/>
      </defs>
      <use xlink:href="#DejaVuSans-Oblique-52" transform="translate(0 0.21875)"/>
      <use xlink:href="#DejaVuSans-20" transform="translate(69.482422 0.21875)"/>
      <use xlink:href="#DejaVuSans-2f" transform="translate(101.269531 0.21875)"/>
      <use xlink:href="#DejaVuSans-20" transform="translate(134.960938 0.21875)"/>
      <use xlink:href="#DejaVuSans-3a9" transform="translate(166.748047 0.21875)"/>
     </g>
    </g>
   </g>
   <g id="LineCollection_1">
    <path d="M 73.832727 53.803665 
L 73.832727 53.803665 
" clip-path="url(#p7f79fb934c)" style="fill: none; stroke: #1f77b4; stroke-width: 1.5"/>
    <path d="M 156.462411 251.056298 
L 156.462411 251.056298 
" clip-path="url(#p7f79fb934c)" style="fill: none; stroke: #1f77b4; stroke-width: 1.5"/>
    <path d="M 398.487273 295.252335 
L 398.487273 295.252335 
" clip-path="url(#p7f79fb934c)" style="fill: none; stroke: #1f77b4; stroke-width: 1.5"/>
   </g>
   <g id="LineCollection_2">
    <path d="M 73.832727 54.039329 
L 73.832727 53.568 
" clip-path="url(#p7f79fb934c)" style="fill: none; stroke: #1f77b4; stroke-width: 1.5"/>
    <path d="M 156.462411 251.291962 
L 156.462411 250.820633 
" clip-path="url(#p7f79fb934c)" style="fill: none; stroke: #1f77b4; stroke-width: 1.5"/>
    <path d="M 398.487273 295.488 
L 398.487273 295.016671 
" clip-path="url(#p7f79fb934c)" style="fill: none; stroke: #1f77b4; stroke-width: 1.5"/>
   </g>
   <g id="line2d_31">
    <path d="M 73.832727 53.803665 
L 77.112066 65.53499 
L 80.391405 83.865955 
L 83.670744 103.104297 
L 86.950083 120.931327 
L 90.229421 136.746128 
L 93.50876 150.573787 
L 96.788099 162.631098 
L 100.067438 173.169348 
L 103.346777 182.421589 
L 106.626116 190.588391 
L 109.905455 197.837323 
L 113.184793 204.306811 
L 116.464132 210.110901 
L 119.743471 215.343707 
L 123.02281 220.083202 
L 126.302149 224.394306 
L 129.581488 228.331371 
L 132.860826 231.940164 
L 136.140165 235.259441 
L 139.419504 238.322204 
L 142.698843 241.156704 
L 145.978182 243.787253 
L 149.257521 246.234872 
L 152.53686 248.517824 
L 155.816198 250.652043 
L 159.095537 252.651493 
L 162.374876 254.528456 
L 165.654215 256.293779 
L 168.933554 257.957074 
L 172.212893 259.526887 
L 175.492231 261.010841 
L 178.77157 262.41576 
L 182.050909 263.747763 
L 185.330248 265.012359 
L 188.609587 266.214517 
L 191.888926 267.358734 
L 195.168264 268.449083 
L 198.447603 269.489269 
L 201.726942 270.482664 
L 205.006281 271.432347 
L 208.28562 272.341132 
L 211.564959 273.211597 
L 214.844298 274.046111 
L 218.123636 274.84685 
L 221.402975 275.615818 
L 224.682314 276.354866 
L 227.961653 277.065703 
L 231.240992 277.74991 
L 234.520331 278.408953 
L 237.799669 279.044194 
L 241.079008 279.656895 
L 244.358347 280.248234 
L 247.637686 280.819306 
L 250.917025 281.371136 
L 254.196364 281.904676 
L 257.475702 282.420821 
L 260.755041 282.920407 
L 264.03438 283.404215 
L 267.313719 283.872983 
L 270.593058 284.327398 
L 273.872397 284.768109 
L 277.151736 285.195727 
L 280.431074 285.610826 
L 283.710413 286.013946 
L 286.989752 286.405599 
L 290.269091 286.786266 
L 293.54843 287.156402 
L 296.827769 287.516439 
L 300.107107 287.866783 
L 303.386446 288.207821 
L 306.665785 288.539918 
L 309.945124 288.863421 
L 313.224463 289.178658 
L 316.503802 289.485943 
L 319.78314 289.785572 
L 323.062479 290.077828 
L 326.341818 290.362979 
L 329.621157 290.641281 
L 332.900496 290.912978 
L 336.179835 291.178302 
L 339.459174 291.437474 
L 342.738512 291.690706 
L 346.017851 291.938199 
L 349.29719 292.180147 
L 352.576529 292.416733 
L 355.855868 292.648133 
L 359.135207 292.874517 
L 362.414545 293.096046 
L 365.693884 293.312873 
L 368.973223 293.525147 
L 372.252562 293.73301 
L 375.531901 293.936598 
L 378.81124 294.136041 
L 382.090579 294.331464 
L 385.369917 294.522988 
L 388.649256 294.710729 
L 391.928595 294.894796 
L 395.207934 295.075298 
L 398.487273 295.252335 
" clip-path="url(#p7f79fb934c)" style="fill: none; stroke: #ff0000; stroke-width: 1.5; stroke-linecap: square"/>
   </g>
   <g id="line2d_32">
    <defs>
     <path id="mf26e9f4223" d="M 0 3 
C 0.795609 3 1.55874 2.683901 2.12132 2.12132 
C 2.683901 1.55874 3 0.795609 3 0 
C 3 -0.795609 2.683901 -1.55874 2.12132 -2.12132 
C 1.55874 -2.683901 0.795609 -3 0 -3 
C -0.795609 -3 -1.55874 -2.683901 -2.12132 -2.12132 
C -2.683901 -1.55874 -3 -0.795609 -3 0 
C -3 0.795609 -2.683901 1.55874 -2.12132 2.12132 
C -1.55874 2.683901 -0.795609 3 0 3 
z
" style="stroke: #1f77b4"/>
    </defs>
    <g clip-path="url(#p7f79fb934c)">
     <use xlink:href="#mf26e9f4223" x="73.832727" y="53.803665" style="fill: #1f77b4; stroke: #1f77b4"/>
     <use xlink:href="#mf26e9f4223" x="156.462411" y="251.056298" style="fill: #1f77b4; stroke: #1f77b4"/>
     <use xlink:href="#mf26e9f4223" x="398.487273" y="295.252335" style="fill: #1f77b4; stroke: #1f77b4"/>
    </g>
   </g>
   <g id="patch_3">
    <path d="M 57.6 307.584 
L 57.6 41.472 
" style="fill: none; stroke: #000000; stroke-width: 0.8; stroke-linejoin: miter; stroke-linecap: square"/>
   </g>
   <g id="patch_4">
    <path d="M 414.72 307.584 
L 414.72 41.472 
" style="fill: none; stroke: #000000; stroke-width: 0.8; stroke-linejoin: miter; stroke-linecap: square"/>
   </g>
   <g id="patch_5">
    <path d="M 57.6 307.584 
L 414.72 307.584 
" style="fill: none; stroke: #000000; stroke-width: 0.8; stroke-linejoin: miter; stroke-linecap: square"/>
   </g>
   <g id="patch_6">
    <path d="M 57.6 41.472 
L 414.72 41.472 
" style="fill: none; stroke: #000000; stroke-width: 0.8; stroke-linejoin: miter; stroke-linecap: square"/>
   </g>
   <g id="text_18">
    <!-- Fit-function= $a + b \cdot e^{\frac{c}{T}}$ -->
    <g transform="translate(271.872 138.793335) scale(0.12 -0.12)">
     <defs>
      <path id="DejaVuSans-46" d="M 628 4666 
L 3309 4666 
L 3309 4134 
L 1259 4134 
L 1259 2759 
L 3109 2759 
L 3109 2228 
L 1259 2228 
L 1259 0 
L 628 0 
L 628 4666 
z
" transform="scale(0.015625)"/>
      <path id="DejaVuSans-69" d="M 603 3500 
L 1178 3500 
L 1178 0 
L 603 0 
L 603 3500 
z
M 603 4863 
L 1178 4863 
L 1178 4134 
L 603 4134 
L 603 4863 
z
" transform="scale(0.015625)"/>
      <path id="DejaVuSans-74" d="M 1172 4494 
L 1172 3500 
L 2356 3500 
L 2356 3053 
L 1172 3053 
L 1172 1153 
Q 1172 725 1289 603 
Q 1406 481 1766 481 
L 2356 481 
L 2356 0 
L 1766 0 
Q 1100 0 847 248 
Q 594 497 594 1153 
L 594 3053 
L 172 3053 
L 172 3500 
L 594 3500 
L 594 4494 
L 1172 4494 
z
" transform="scale(0.015625)"/>
      <path id="DejaVuSans-2d" d="M 313 2009 
L 1997 2009 
L 1997 1497 
L 313 1497 
L 313 2009 
z
" transform="scale(0.015625)"/>
      <path id="DejaVuSans-66" d="M 2375 4863 
L 2375 4384 
L 1825 4384 
Q 1516 4384 1395 4259 
Q 1275 4134 1275 3809 
L 1275 3500 
L 2222 3500 
L 2222 3053 
L 1275 3053 
L 1275 0 
L 697 0 
L 697 3053 
L 147 3053 
L 147 3500 
L 697 3500 
L 697 3744 
Q 697 4328 969 4595 
Q 1241 4863 1831 4863 
L 2375 4863 
z
" transform="scale(0.015625)"/>
      <path id="DejaVuSans-75" d="M 544 1381 
L 544 3500 
L 1119 3500 
L 1119 1403 
Q 1119 906 1312 657 
Q 1506 409 1894 409 
Q 2359 409 2629 706 
Q 2900 1003 2900 1516 
L 2900 3500 
L 3475 3500 
L 3475 0 
L 2900 0 
L 2900 538 
Q 2691 219 2414 64 
Q 2138 -91 1772 -91 
Q 1169 -91 856 284 
Q 544 659 544 1381 
z
M 1991 3584 
L 1991 3584 
z
" transform="scale(0.015625)"/>
      <path id="DejaVuSans-6e" d="M 3513 2113 
L 3513 0 
L 2938 0 
L 2938 2094 
Q 2938 2591 2744 2837 
Q 2550 3084 2163 3084 
Q 1697 3084 1428 2787 
Q 1159 2491 1159 1978 
L 1159 0 
L 581 0 
L 581 3500 
L 1159 3500 
L 1159 2956 
Q 1366 3272 1645 3428 
Q 1925 3584 2291 3584 
Q 2894 3584 3203 3211 
Q 3513 2838 3513 2113 
z
" transform="scale(0.015625)"/>
      <path id="DejaVuSans-63" d="M 3122 3366 
L 3122 2828 
Q 2878 2963 2633 3030 
Q 2388 3097 2138 3097 
Q 1578 3097 1268 2742 
Q 959 2388 959 1747 
Q 959 1106 1268 751 
Q 1578 397 2138 397 
Q 2388 397 2633 464 
Q 2878 531 3122 666 
L 3122 134 
Q 2881 22 2623 -34 
Q 2366 -91 2075 -91 
Q 1284 -91 818 406 
Q 353 903 353 1747 
Q 353 2603 823 3093 
Q 1294 3584 2113 3584 
Q 2378 3584 2631 3529 
Q 2884 3475 3122 3366 
z
" transform="scale(0.015625)"/>
      <path id="DejaVuSans-6f" d="M 1959 3097 
Q 1497 3097 1228 2736 
Q 959 2375 959 1747 
Q 959 1119 1226 758 
Q 1494 397 1959 397 
Q 2419 397 2687 759 
Q 2956 1122 2956 1747 
Q 2956 2369 2687 2733 
Q 2419 3097 1959 3097 
z
M 1959 3584 
Q 2709 3584 3137 3096 
Q 3566 2609 3566 1747 
Q 3566 888 3137 398 
Q 2709 -91 1959 -91 
Q 1206 -91 779 398 
Q 353 888 353 1747 
Q 353 2609 779 3096 
Q 1206 3584 1959 3584 
z
" transform="scale(0.015625)"/>
      <path id="DejaVuSans-3d" d="M 678 2906 
L 4684 2906 
L 4684 2381 
L 678 2381 
L 678 2906 
z
M 678 1631 
L 4684 1631 
L 4684 1100 
L 678 1100 
L 678 1631 
z
" transform="scale(0.015625)"/>
      <path id="DejaVuSans-Oblique-61" d="M 3438 1997 
L 3047 0 
L 2472 0 
L 2578 531 
Q 2325 219 2001 64 
Q 1678 -91 1281 -91 
Q 834 -91 548 182 
Q 263 456 263 884 
Q 263 1497 752 1853 
Q 1241 2209 2100 2209 
L 2900 2209 
L 2931 2363 
Q 2938 2388 2941 2417 
Q 2944 2447 2944 2509 
Q 2944 2788 2717 2942 
Q 2491 3097 2081 3097 
Q 1800 3097 1504 3025 
Q 1209 2953 897 2809 
L 997 3341 
Q 1322 3463 1633 3523 
Q 1944 3584 2234 3584 
Q 2853 3584 3176 3315 
Q 3500 3047 3500 2534 
Q 3500 2431 3484 2292 
Q 3469 2153 3438 1997 
z
M 2816 1759 
L 2241 1759 
Q 1534 1759 1195 1570 
Q 856 1381 856 984 
Q 856 709 1029 553 
Q 1203 397 1509 397 
Q 1978 397 2328 733 
Q 2678 1069 2791 1631 
L 2816 1759 
z
" transform="scale(0.015625)"/>
      <path id="DejaVuSans-2b" d="M 2944 4013 
L 2944 2272 
L 4684 2272 
L 4684 1741 
L 2944 1741 
L 2944 0 
L 2419 0 
L 2419 1741 
L 678 1741 
L 678 2272 
L 2419 2272 
L 2419 4013 
L 2944 4013 
z
" transform="scale(0.015625)"/>
      <path id="DejaVuSans-Oblique-62" d="M 3169 2138 
Q 3169 2591 2961 2847 
Q 2753 3103 2388 3103 
Q 2122 3103 1889 2973 
Q 1656 2844 1484 2597 
Q 1303 2338 1198 1995 
Q 1094 1653 1094 1313 
Q 1094 881 1298 636 
Q 1503 391 1863 391 
Q 2134 391 2365 517 
Q 2597 644 2772 891 
Q 2950 1147 3059 1487 
Q 3169 1828 3169 2138 
z
M 1381 2969 
Q 1594 3256 1914 3420 
Q 2234 3584 2584 3584 
Q 3122 3584 3439 3221 
Q 3756 2859 3756 2241 
Q 3756 1734 3570 1259 
Q 3384 784 3041 416 
Q 2816 172 2522 40 
Q 2228 -91 1906 -91 
Q 1566 -91 1316 65 
Q 1066 222 909 531 
L 806 0 
L 231 0 
L 1178 4863 
L 1753 4863 
L 1381 2969 
z
" transform="scale(0.015625)"/>
      <path id="DejaVuSans-22c5" d="M 684 2619 
L 1344 2619 
L 1344 1825 
L 684 1825 
L 684 2619 
z
" transform="scale(0.015625)"/>
      <path id="DejaVuSans-Oblique-65" d="M 3078 2063 
Q 3088 2113 3092 2166 
Q 3097 2219 3097 2272 
Q 3097 2653 2873 2875 
Q 2650 3097 2266 3097 
Q 1838 3097 1509 2826 
Q 1181 2556 1013 2059 
L 3078 2063 
z
M 3578 1613 
L 903 1613 
Q 884 1494 878 1425 
Q 872 1356 872 1306 
Q 872 872 1139 634 
Q 1406 397 1894 397 
Q 2269 397 2603 481 
Q 2938 566 3225 728 
L 3116 159 
Q 2806 34 2476 -28 
Q 2147 -91 1806 -91 
Q 1078 -91 686 257 
Q 294 606 294 1247 
Q 294 1794 489 2264 
Q 684 2734 1063 3103 
Q 1306 3334 1642 3459 
Q 1978 3584 2356 3584 
Q 2950 3584 3301 3228 
Q 3653 2872 3653 2272 
Q 3653 2128 3634 1964 
Q 3616 1800 3578 1613 
z
" transform="scale(0.015625)"/>
      <path id="DejaVuSans-Oblique-63" d="M 3431 3366 
L 3316 2797 
Q 3109 2947 2876 3022 
Q 2644 3097 2394 3097 
Q 2119 3097 1870 3000 
Q 1622 2903 1453 2725 
Q 1184 2453 1037 2087 
Q 891 1722 891 1331 
Q 891 859 1127 628 
Q 1363 397 1844 397 
Q 2081 397 2348 469 
Q 2616 541 2906 684 
L 2797 116 
Q 2547 13 2283 -39 
Q 2019 -91 1741 -91 
Q 1044 -91 669 257 
Q 294 606 294 1253 
Q 294 1797 489 2255 
Q 684 2713 1069 3078 
Q 1331 3328 1684 3456 
Q 2038 3584 2456 3584 
Q 2700 3584 2940 3529 
Q 3181 3475 3431 3366 
z
" transform="scale(0.015625)"/>
     </defs>
     <use xlink:href="#DejaVuSans-46" transform="translate(0 0.924219)"/>
     <use xlink:href="#DejaVuSans-69" transform="translate(57.519531 0.924219)"/>
     <use xlink:href="#DejaVuSans-74" transform="translate(85.302734 0.924219)"/>
     <use xlink:href="#DejaVuSans-2d" transform="translate(124.511719 0.924219)"/>
     <use xlink:href="#DejaVuSans-66" transform="translate(160.595703 0.924219)"/>
     <use xlink:href="#DejaVuSans-75" transform="translate(195.800781 0.924219)"/>
     <use xlink:href="#DejaVuSans-6e" transform="translate(259.179688 0.924219)"/>
     <use xlink:href="#DejaVuSans-63" transform="translate(322.558594 0.924219)"/>
     <use xlink:href="#DejaVuSans-74" transform="translate(377.539062 0.924219)"/>
     <use xlink:href="#DejaVuSans-69" transform="translate(416.748047 0.924219)"/>
     <use xlink:href="#DejaVuSans-6f" transform="translate(444.53125 0.924219)"/>
     <use xlink:href="#DejaVuSans-6e" transform="translate(505.712891 0.924219)"/>
     <use xlink:href="#DejaVuSans-3d" transform="translate(569.091797 0.924219)"/>
     <use xlink:href="#DejaVuSans-20" transform="translate(652.880859 0.924219)"/>
     <use xlink:href="#DejaVuSans-Oblique-61" transform="translate(684.667969 0.924219)"/>
     <use xlink:href="#DejaVuSans-2b" transform="translate(765.429688 0.924219)"/>
     <use xlink:href="#DejaVuSans-Oblique-62" transform="translate(868.701172 0.924219)"/>
     <use xlink:href="#DejaVuSans-22c5" transform="translate(951.660156 0.924219)"/>
     <use xlink:href="#DejaVuSans-Oblique-65" transform="translate(1002.929688 0.924219)"/>
     <use xlink:href="#DejaVuSans-Oblique-63" transform="translate(1070.103021 70.56) scale(0.49)"/>
     <use xlink:href="#DejaVuSans-Oblique-54" transform="translate(1069.103021 12.264219) scale(0.49)"/>
     <path d="M 1069.103021 52.363281 
L 1069.103021 56.738281 
L 1099.034173 56.738281 
L 1099.034173 52.363281 
L 1069.103021 52.363281 
z
"/>
    </g>
   </g>
   <g id="text_19">
    <!-- a = 2791.27$\pm$ 1.84 -->
    <g transform="translate(271.872 155.515237) scale(0.1 -0.1)">
     <defs>
      <path id="DejaVuSans-61" d="M 2194 1759 
Q 1497 1759 1228 1600 
Q 959 1441 959 1056 
Q 959 750 1161 570 
Q 1363 391 1709 391 
Q 2188 391 2477 730 
Q 2766 1069 2766 1631 
L 2766 1759 
L 2194 1759 
z
M 3341 1997 
L 3341 0 
L 2766 0 
L 2766 531 
Q 2569 213 2275 61 
Q 1981 -91 1556 -91 
Q 1019 -91 701 211 
Q 384 513 384 1019 
Q 384 1609 779 1909 
Q 1175 2209 1959 2209 
L 2766 2209 
L 2766 2266 
Q 2766 2663 2505 2880 
Q 2244 3097 1772 3097 
Q 1472 3097 1187 3025 
Q 903 2953 641 2809 
L 641 3341 
Q 956 3463 1253 3523 
Q 1550 3584 1831 3584 
Q 2591 3584 2966 3190 
Q 3341 2797 3341 1997 
z
" transform="scale(0.015625)"/>
      <path id="DejaVuSans-39" d="M 703 97 
L 703 672 
Q 941 559 1184 500 
Q 1428 441 1663 441 
Q 2288 441 2617 861 
Q 2947 1281 2994 2138 
Q 2813 1869 2534 1725 
Q 2256 1581 1919 1581 
Q 1219 1581 811 2004 
Q 403 2428 403 3163 
Q 403 3881 828 4315 
Q 1253 4750 1959 4750 
Q 2769 4750 3195 4129 
Q 3622 3509 3622 2328 
Q 3622 1225 3098 567 
Q 2575 -91 1691 -91 
Q 1453 -91 1209 -44 
Q 966 3 703 97 
z
M 1959 2075 
Q 2384 2075 2632 2365 
Q 2881 2656 2881 3163 
Q 2881 3666 2632 3958 
Q 2384 4250 1959 4250 
Q 1534 4250 1286 3958 
Q 1038 3666 1038 3163 
Q 1038 2656 1286 2365 
Q 1534 2075 1959 2075 
z
" transform="scale(0.015625)"/>
      <path id="DejaVuSans-2e" d="M 684 794 
L 1344 794 
L 1344 0 
L 684 0 
L 684 794 
z
" transform="scale(0.015625)"/>
      <path id="DejaVuSans-b1" d="M 2944 4013 
L 2944 2803 
L 4684 2803 
L 4684 2272 
L 2944 2272 
L 2944 1063 
L 2419 1063 
L 2419 2272 
L 678 2272 
L 678 2803 
L 2419 2803 
L 2419 4013 
L 2944 4013 
z
M 678 531 
L 4684 531 
L 4684 0 
L 678 0 
L 678 531 
z
" transform="scale(0.015625)"/>
      <path id="DejaVuSans-38" d="M 2034 2216 
Q 1584 2216 1326 1975 
Q 1069 1734 1069 1313 
Q 1069 891 1326 650 
Q 1584 409 2034 409 
Q 2484 409 2743 651 
Q 3003 894 3003 1313 
Q 3003 1734 2745 1975 
Q 2488 2216 2034 2216 
z
M 1403 2484 
Q 997 2584 770 2862 
Q 544 3141 544 3541 
Q 544 4100 942 4425 
Q 1341 4750 2034 4750 
Q 2731 4750 3128 4425 
Q 3525 4100 3525 3541 
Q 3525 3141 3298 2862 
Q 3072 2584 2669 2484 
Q 3125 2378 3379 2068 
Q 3634 1759 3634 1313 
Q 3634 634 3220 271 
Q 2806 -91 2034 -91 
Q 1263 -91 848 271 
Q 434 634 434 1313 
Q 434 1759 690 2068 
Q 947 2378 1403 2484 
z
M 1172 3481 
Q 1172 3119 1398 2916 
Q 1625 2713 2034 2713 
Q 2441 2713 2670 2916 
Q 2900 3119 2900 3481 
Q 2900 3844 2670 4047 
Q 2441 4250 2034 4250 
Q 1625 4250 1398 4047 
Q 1172 3844 1172 3481 
z
" transform="scale(0.015625)"/>
      <path id="DejaVuSans-34" d="M 2419 4116 
L 825 1625 
L 2419 1625 
L 2419 4116 
z
M 2253 4666 
L 3047 4666 
L 3047 1625 
L 3713 1625 
L 3713 1100 
L 3047 1100 
L 3047 0 
L 2419 0 
L 2419 1100 
L 313 1100 
L 313 1709 
L 2253 4666 
z
" transform="scale(0.015625)"/>
     </defs>
     <use xlink:href="#DejaVuSans-61" transform="translate(0 0.78125)"/>
     <use xlink:href="#DejaVuSans-20" transform="translate(61.279297 0.78125)"/>
     <use xlink:href="#DejaVuSans-3d" transform="translate(93.066406 0.78125)"/>
     <use xlink:href="#DejaVuSans-20" transform="translate(176.855469 0.78125)"/>
     <use xlink:href="#DejaVuSans-32" transform="translate(208.642578 0.78125)"/>
     <use xlink:href="#DejaVuSans-37" transform="translate(272.265625 0.78125)"/>
     <use xlink:href="#DejaVuSans-39" transform="translate(335.888672 0.78125)"/>
     <use xlink:href="#DejaVuSans-31" transform="translate(399.511719 0.78125)"/>
     <use xlink:href="#DejaVuSans-2e" transform="translate(463.134766 0.78125)"/>
     <use xlink:href="#DejaVuSans-32" transform="translate(489.421875 0.78125)"/>
     <use xlink:href="#DejaVuSans-37" transform="translate(553.044922 0.78125)"/>
     <use xlink:href="#DejaVuSans-b1" transform="translate(616.667969 0.78125)"/>
     <use xlink:href="#DejaVuSans-20" transform="translate(700.457031 0.78125)"/>
     <use xlink:href="#DejaVuSans-31" transform="translate(732.244141 0.78125)"/>
     <use xlink:href="#DejaVuSans-2e" transform="translate(795.867188 0.78125)"/>
     <use xlink:href="#DejaVuSans-38" transform="translate(825.029297 0.78125)"/>
     <use xlink:href="#DejaVuSans-34" transform="translate(888.652344 0.78125)"/>
    </g>
    <!-- b = -1878.21$\pm$ 2.83 -->
    <g transform="translate(271.872 166.71305) scale(0.1 -0.1)">
     <defs>
      <path id="DejaVuSans-62" d="M 3116 1747 
Q 3116 2381 2855 2742 
Q 2594 3103 2138 3103 
Q 1681 3103 1420 2742 
Q 1159 2381 1159 1747 
Q 1159 1113 1420 752 
Q 1681 391 2138 391 
Q 2594 391 2855 752 
Q 3116 1113 3116 1747 
z
M 1159 2969 
Q 1341 3281 1617 3432 
Q 1894 3584 2278 3584 
Q 2916 3584 3314 3078 
Q 3713 2572 3713 1747 
Q 3713 922 3314 415 
Q 2916 -91 2278 -91 
Q 1894 -91 1617 61 
Q 1341 213 1159 525 
L 1159 0 
L 581 0 
L 581 4863 
L 1159 4863 
L 1159 2969 
z
" transform="scale(0.015625)"/>
     </defs>
     <use xlink:href="#DejaVuSans-62" transform="translate(0 0.015625)"/>
     <use xlink:href="#DejaVuSans-20" transform="translate(63.476562 0.015625)"/>
     <use xlink:href="#DejaVuSans-3d" transform="translate(95.263672 0.015625)"/>
     <use xlink:href="#DejaVuSans-20" transform="translate(179.052734 0.015625)"/>
     <use xlink:href="#DejaVuSans-2d" transform="translate(210.839844 0.015625)"/>
     <use xlink:href="#DejaVuSans-31" transform="translate(246.923828 0.015625)"/>
     <use xlink:href="#DejaVuSans-38" transform="translate(310.546875 0.015625)"/>
     <use xlink:href="#DejaVuSans-37" transform="translate(374.169922 0.015625)"/>
     <use xlink:href="#DejaVuSans-38" transform="translate(437.792969 0.015625)"/>
     <use xlink:href="#DejaVuSans-2e" transform="translate(501.416016 0.015625)"/>
     <use xlink:href="#DejaVuSans-32" transform="translate(527.703125 0.015625)"/>
     <use xlink:href="#DejaVuSans-31" transform="translate(591.326172 0.015625)"/>
     <use xlink:href="#DejaVuSans-b1" transform="translate(654.949219 0.015625)"/>
     <use xlink:href="#DejaVuSans-20" transform="translate(738.738281 0.015625)"/>
     <use xlink:href="#DejaVuSans-32" transform="translate(770.525391 0.015625)"/>
     <use xlink:href="#DejaVuSans-2e" transform="translate(834.148438 0.015625)"/>
     <use xlink:href="#DejaVuSans-38" transform="translate(863.310547 0.015625)"/>
     <use xlink:href="#DejaVuSans-33" transform="translate(926.933594 0.015625)"/>
    </g>
    <!-- c = -21.11$\pm$ 0.17 -->
    <g transform="translate(271.872 177.910863) scale(0.1 -0.1)">
     <use xlink:href="#DejaVuSans-63" transform="translate(0 0.78125)"/>
     <use xlink:href="#DejaVuSans-20" transform="translate(54.980469 0.78125)"/>
     <use xlink:href="#DejaVuSans-3d" transform="translate(86.767578 0.78125)"/>
     <use xlink:href="#DejaVuSans-20" transform="translate(170.556641 0.78125)"/>
     <use xlink:href="#DejaVuSans-2d" transform="translate(202.34375 0.78125)"/>
     <use xlink:href="#DejaVuSans-32" transform="translate(238.427734 0.78125)"/>
     <use xlink:href="#DejaVuSans-31" transform="translate(302.050781 0.78125)"/>
     <use xlink:href="#DejaVuSans-2e" transform="translate(365.673828 0.78125)"/>
     <use xlink:href="#DejaVuSans-31" transform="translate(397.460938 0.78125)"/>
     <use xlink:href="#DejaVuSans-31" transform="translate(461.083984 0.78125)"/>
     <use xlink:href="#DejaVuSans-b1" transform="translate(524.707031 0.78125)"/>
     <use xlink:href="#DejaVuSans-20" transform="translate(608.496094 0.78125)"/>
     <use xlink:href="#DejaVuSans-30" transform="translate(640.283203 0.78125)"/>
     <use xlink:href="#DejaVuSans-2e" transform="translate(703.90625 0.78125)"/>
     <use xlink:href="#DejaVuSans-31" transform="translate(735.693359 0.78125)"/>
     <use xlink:href="#DejaVuSans-37" transform="translate(799.316406 0.78125)"/>
    </g>
   </g>
   <g id="text_20">
    <!-- Exponential fit of the carbon resistance as a function of temperature -->
    <g transform="translate(29.875313 35.472) scale(0.12 -0.12)">
     <defs>
      <path id="DejaVuSans-45" d="M 628 4666 
L 3578 4666 
L 3578 4134 
L 1259 4134 
L 1259 2753 
L 3481 2753 
L 3481 2222 
L 1259 2222 
L 1259 531 
L 3634 531 
L 3634 0 
L 628 0 
L 628 4666 
z
" transform="scale(0.015625)"/>
      <path id="DejaVuSans-78" d="M 3513 3500 
L 2247 1797 
L 3578 0 
L 2900 0 
L 1881 1375 
L 863 0 
L 184 0 
L 1544 1831 
L 300 3500 
L 978 3500 
L 1906 2253 
L 2834 3500 
L 3513 3500 
z
" transform="scale(0.015625)"/>
      <path id="DejaVuSans-70" d="M 1159 525 
L 1159 -1331 
L 581 -1331 
L 581 3500 
L 1159 3500 
L 1159 2969 
Q 1341 3281 1617 3432 
Q 1894 3584 2278 3584 
Q 2916 3584 3314 3078 
Q 3713 2572 3713 1747 
Q 3713 922 3314 415 
Q 2916 -91 2278 -91 
Q 1894 -91 1617 61 
Q 1341 213 1159 525 
z
M 3116 1747 
Q 3116 2381 2855 2742 
Q 2594 3103 2138 3103 
Q 1681 3103 1420 2742 
Q 1159 2381 1159 1747 
Q 1159 1113 1420 752 
Q 1681 391 2138 391 
Q 2594 391 2855 752 
Q 3116 1113 3116 1747 
z
" transform="scale(0.015625)"/>
      <path id="DejaVuSans-65" d="M 3597 1894 
L 3597 1613 
L 953 1613 
Q 991 1019 1311 708 
Q 1631 397 2203 397 
Q 2534 397 2845 478 
Q 3156 559 3463 722 
L 3463 178 
Q 3153 47 2828 -22 
Q 2503 -91 2169 -91 
Q 1331 -91 842 396 
Q 353 884 353 1716 
Q 353 2575 817 3079 
Q 1281 3584 2069 3584 
Q 2775 3584 3186 3129 
Q 3597 2675 3597 1894 
z
M 3022 2063 
Q 3016 2534 2758 2815 
Q 2500 3097 2075 3097 
Q 1594 3097 1305 2825 
Q 1016 2553 972 2059 
L 3022 2063 
z
" transform="scale(0.015625)"/>
      <path id="DejaVuSans-6c" d="M 603 4863 
L 1178 4863 
L 1178 0 
L 603 0 
L 603 4863 
z
" transform="scale(0.015625)"/>
      <path id="DejaVuSans-68" d="M 3513 2113 
L 3513 0 
L 2938 0 
L 2938 2094 
Q 2938 2591 2744 2837 
Q 2550 3084 2163 3084 
Q 1697 3084 1428 2787 
Q 1159 2491 1159 1978 
L 1159 0 
L 581 0 
L 581 4863 
L 1159 4863 
L 1159 2956 
Q 1366 3272 1645 3428 
Q 1925 3584 2291 3584 
Q 2894 3584 3203 3211 
Q 3513 2838 3513 2113 
z
" transform="scale(0.015625)"/>
      <path id="DejaVuSans-72" d="M 2631 2963 
Q 2534 3019 2420 3045 
Q 2306 3072 2169 3072 
Q 1681 3072 1420 2755 
Q 1159 2438 1159 1844 
L 1159 0 
L 581 0 
L 581 3500 
L 1159 3500 
L 1159 2956 
Q 1341 3275 1631 3429 
Q 1922 3584 2338 3584 
Q 2397 3584 2469 3576 
Q 2541 3569 2628 3553 
L 2631 2963 
z
" transform="scale(0.015625)"/>
      <path id="DejaVuSans-73" d="M 2834 3397 
L 2834 2853 
Q 2591 2978 2328 3040 
Q 2066 3103 1784 3103 
Q 1356 3103 1142 2972 
Q 928 2841 928 2578 
Q 928 2378 1081 2264 
Q 1234 2150 1697 2047 
L 1894 2003 
Q 2506 1872 2764 1633 
Q 3022 1394 3022 966 
Q 3022 478 2636 193 
Q 2250 -91 1575 -91 
Q 1294 -91 989 -36 
Q 684 19 347 128 
L 347 722 
Q 666 556 975 473 
Q 1284 391 1588 391 
Q 1994 391 2212 530 
Q 2431 669 2431 922 
Q 2431 1156 2273 1281 
Q 2116 1406 1581 1522 
L 1381 1569 
Q 847 1681 609 1914 
Q 372 2147 372 2553 
Q 372 3047 722 3315 
Q 1072 3584 1716 3584 
Q 2034 3584 2315 3537 
Q 2597 3491 2834 3397 
z
" transform="scale(0.015625)"/>
      <path id="DejaVuSans-6d" d="M 3328 2828 
Q 3544 3216 3844 3400 
Q 4144 3584 4550 3584 
Q 5097 3584 5394 3201 
Q 5691 2819 5691 2113 
L 5691 0 
L 5113 0 
L 5113 2094 
Q 5113 2597 4934 2840 
Q 4756 3084 4391 3084 
Q 3944 3084 3684 2787 
Q 3425 2491 3425 1978 
L 3425 0 
L 2847 0 
L 2847 2094 
Q 2847 2600 2669 2842 
Q 2491 3084 2119 3084 
Q 1678 3084 1418 2786 
Q 1159 2488 1159 1978 
L 1159 0 
L 581 0 
L 581 3500 
L 1159 3500 
L 1159 2956 
Q 1356 3278 1631 3431 
Q 1906 3584 2284 3584 
Q 2666 3584 2933 3390 
Q 3200 3197 3328 2828 
z
" transform="scale(0.015625)"/>
     </defs>
     <use xlink:href="#DejaVuSans-45"/>
     <use xlink:href="#DejaVuSans-78" transform="translate(63.183594 0)"/>
     <use xlink:href="#DejaVuSans-70" transform="translate(122.363281 0)"/>
     <use xlink:href="#DejaVuSans-6f" transform="translate(185.839844 0)"/>
     <use xlink:href="#DejaVuSans-6e" transform="translate(247.021484 0)"/>
     <use xlink:href="#DejaVuSans-65" transform="translate(310.400391 0)"/>
     <use xlink:href="#DejaVuSans-6e" transform="translate(371.923828 0)"/>
     <use xlink:href="#DejaVuSans-74" transform="translate(435.302734 0)"/>
     <use xlink:href="#DejaVuSans-69" transform="translate(474.511719 0)"/>
     <use xlink:href="#DejaVuSans-61" transform="translate(502.294922 0)"/>
     <use xlink:href="#DejaVuSans-6c" transform="translate(563.574219 0)"/>
     <use xlink:href="#DejaVuSans-20" transform="translate(591.357422 0)"/>
     <use xlink:href="#DejaVuSans-66" transform="translate(623.144531 0)"/>
     <use xlink:href="#DejaVuSans-69" transform="translate(658.349609 0)"/>
     <use xlink:href="#DejaVuSans-74" transform="translate(686.132812 0)"/>
     <use xlink:href="#DejaVuSans-20" transform="translate(725.341797 0)"/>
     <use xlink:href="#DejaVuSans-6f" transform="translate(757.128906 0)"/>
     <use xlink:href="#DejaVuSans-66" transform="translate(818.310547 0)"/>
     <use xlink:href="#DejaVuSans-20" transform="translate(853.515625 0)"/>
     <use xlink:href="#DejaVuSans-74" transform="translate(885.302734 0)"/>
     <use xlink:href="#DejaVuSans-68" transform="translate(924.511719 0)"/>
     <use xlink:href="#DejaVuSans-65" transform="translate(987.890625 0)"/>
     <use xlink:href="#DejaVuSans-20" transform="translate(1049.414062 0)"/>
     <use xlink:href="#DejaVuSans-63" transform="translate(1081.201172 0)"/>
     <use xlink:href="#DejaVuSans-61" transform="translate(1136.181641 0)"/>
     <use xlink:href="#DejaVuSans-72" transform="translate(1197.460938 0)"/>
     <use xlink:href="#DejaVuSans-62" transform="translate(1238.574219 0)"/>
     <use xlink:href="#DejaVuSans-6f" transform="translate(1302.050781 0)"/>
     <use xlink:href="#DejaVuSans-6e" transform="translate(1363.232422 0)"/>
     <use xlink:href="#DejaVuSans-20" transform="translate(1426.611328 0)"/>
     <use xlink:href="#DejaVuSans-72" transform="translate(1458.398438 0)"/>
     <use xlink:href="#DejaVuSans-65" transform="translate(1497.261719 0)"/>
     <use xlink:href="#DejaVuSans-73" transform="translate(1558.785156 0)"/>
     <use xlink:href="#DejaVuSans-69" transform="translate(1610.884766 0)"/>
     <use xlink:href="#DejaVuSans-73" transform="translate(1638.667969 0)"/>
     <use xlink:href="#DejaVuSans-74" transform="translate(1690.767578 0)"/>
     <use xlink:href="#DejaVuSans-61" transform="translate(1729.976562 0)"/>
     <use xlink:href="#DejaVuSans-6e" transform="translate(1791.255859 0)"/>
     <use xlink:href="#DejaVuSans-63" transform="translate(1854.634766 0)"/>
     <use xlink:href="#DejaVuSans-65" transform="translate(1909.615234 0)"/>
     <use xlink:href="#DejaVuSans-20" transform="translate(1971.138672 0)"/>
     <use xlink:href="#DejaVuSans-61" transform="translate(2002.925781 0)"/>
     <use xlink:href="#DejaVuSans-73" transform="translate(2064.205078 0)"/>
     <use xlink:href="#DejaVuSans-20" transform="translate(2116.304688 0)"/>
     <use xlink:href="#DejaVuSans-61" transform="translate(2148.091797 0)"/>
     <use xlink:href="#DejaVuSans-20" transform="translate(2209.371094 0)"/>
     <use xlink:href="#DejaVuSans-66" transform="translate(2241.158203 0)"/>
     <use xlink:href="#DejaVuSans-75" transform="translate(2276.363281 0)"/>
     <use xlink:href="#DejaVuSans-6e" transform="translate(2339.742188 0)"/>
     <use xlink:href="#DejaVuSans-63" transform="translate(2403.121094 0)"/>
     <use xlink:href="#DejaVuSans-74" transform="translate(2458.101562 0)"/>
     <use xlink:href="#DejaVuSans-69" transform="translate(2497.310547 0)"/>
     <use xlink:href="#DejaVuSans-6f" transform="translate(2525.09375 0)"/>
     <use xlink:href="#DejaVuSans-6e" transform="translate(2586.275391 0)"/>
     <use xlink:href="#DejaVuSans-20" transform="translate(2649.654297 0)"/>
     <use xlink:href="#DejaVuSans-6f" transform="translate(2681.441406 0)"/>
     <use xlink:href="#DejaVuSans-66" transform="translate(2742.623047 0)"/>
     <use xlink:href="#DejaVuSans-20" transform="translate(2777.828125 0)"/>
     <use xlink:href="#DejaVuSans-74" transform="translate(2809.615234 0)"/>
     <use xlink:href="#DejaVuSans-65" transform="translate(2848.824219 0)"/>
     <use xlink:href="#DejaVuSans-6d" transform="translate(2910.347656 0)"/>
     <use xlink:href="#DejaVuSans-70" transform="translate(3007.759766 0)"/>
     <use xlink:href="#DejaVuSans-65" transform="translate(3071.236328 0)"/>
     <use xlink:href="#DejaVuSans-72" transform="translate(3132.759766 0)"/>
     <use xlink:href="#DejaVuSans-61" transform="translate(3173.873047 0)"/>
     <use xlink:href="#DejaVuSans-74" transform="translate(3235.152344 0)"/>
     <use xlink:href="#DejaVuSans-75" transform="translate(3274.361328 0)"/>
     <use xlink:href="#DejaVuSans-72" transform="translate(3337.740234 0)"/>
     <use xlink:href="#DejaVuSans-65" transform="translate(3376.603516 0)"/>
    </g>
   </g>
   <g id="legend_1">
    <g id="patch_7">
     <path d="M 275.093437 78.82825 
L 407.72 78.82825 
Q 409.72 78.82825 409.72 76.82825 
L 409.72 48.472 
Q 409.72 46.472 407.72 46.472 
L 275.093437 46.472 
Q 273.093437 46.472 273.093437 48.472 
L 273.093437 76.82825 
Q 273.093437 78.82825 275.093437 78.82825 
z
" style="fill: #ffffff; opacity: 0.8; stroke: #cccccc; stroke-linejoin: miter"/>
    </g>
    <g id="line2d_33">
     <path d="M 277.093437 54.570437 
L 287.093437 54.570437 
L 297.093437 54.570437 
" style="fill: none; stroke: #ff0000; stroke-width: 1.5; stroke-linecap: square"/>
    </g>
    <g id="text_21">
     <!-- ODR Fit -->
     <g transform="translate(305.093437 58.070437) scale(0.1 -0.1)">
      <defs>
       <path id="DejaVuSans-4f" d="M 2522 4238 
Q 1834 4238 1429 3725 
Q 1025 3213 1025 2328 
Q 1025 1447 1429 934 
Q 1834 422 2522 422 
Q 3209 422 3611 934 
Q 4013 1447 4013 2328 
Q 4013 3213 3611 3725 
Q 3209 4238 2522 4238 
z
M 2522 4750 
Q 3503 4750 4090 4092 
Q 4678 3434 4678 2328 
Q 4678 1225 4090 567 
Q 3503 -91 2522 -91 
Q 1538 -91 948 565 
Q 359 1222 359 2328 
Q 359 3434 948 4092 
Q 1538 4750 2522 4750 
z
" transform="scale(0.015625)"/>
       <path id="DejaVuSans-44" d="M 1259 4147 
L 1259 519 
L 2022 519 
Q 2988 519 3436 956 
Q 3884 1394 3884 2338 
Q 3884 3275 3436 3711 
Q 2988 4147 2022 4147 
L 1259 4147 
z
M 628 4666 
L 1925 4666 
Q 3281 4666 3915 4102 
Q 4550 3538 4550 2338 
Q 4550 1131 3912 565 
Q 3275 0 1925 0 
L 628 0 
L 628 4666 
z
" transform="scale(0.015625)"/>
       <path id="DejaVuSans-52" d="M 2841 2188 
Q 3044 2119 3236 1894 
Q 3428 1669 3622 1275 
L 4263 0 
L 3584 0 
L 2988 1197 
Q 2756 1666 2539 1819 
Q 2322 1972 1947 1972 
L 1259 1972 
L 1259 0 
L 628 0 
L 628 4666 
L 2053 4666 
Q 2853 4666 3247 4331 
Q 3641 3997 3641 3322 
Q 3641 2881 3436 2590 
Q 3231 2300 2841 2188 
z
M 1259 4147 
L 1259 2491 
L 2053 2491 
Q 2509 2491 2742 2702 
Q 2975 2913 2975 3322 
Q 2975 3731 2742 3939 
Q 2509 4147 2053 4147 
L 1259 4147 
z
" transform="scale(0.015625)"/>
      </defs>
      <use xlink:href="#DejaVuSans-4f"/>
      <use xlink:href="#DejaVuSans-44" transform="translate(78.710938 0)"/>
      <use xlink:href="#DejaVuSans-52" transform="translate(155.712891 0)"/>
      <use xlink:href="#DejaVuSans-20" transform="translate(225.195312 0)"/>
      <use xlink:href="#DejaVuSans-46" transform="translate(256.982422 0)"/>
      <use xlink:href="#DejaVuSans-69" transform="translate(307.251953 0)"/>
      <use xlink:href="#DejaVuSans-74" transform="translate(335.035156 0)"/>
     </g>
    </g>
    <g id="LineCollection_3">
     <path d="M 282.093437 69.248562 
L 292.093437 69.248562 
" style="fill: none; stroke: #1f77b4; stroke-width: 1.5"/>
    </g>
    <g id="LineCollection_4">
     <path d="M 287.093437 74.248562 
L 287.093437 64.248562 
" style="fill: none; stroke: #1f77b4; stroke-width: 1.5"/>
    </g>
    <g id="line2d_34"/>
    <g id="line2d_35">
     <g>
      <use xlink:href="#mf26e9f4223" x="287.093437" y="69.248562" style="fill: #1f77b4; stroke: #1f77b4"/>
     </g>
    </g>
    <g id="text_22">
     <!-- Data with error bars -->
     <g transform="translate(305.093437 72.748562) scale(0.1 -0.1)">
      <defs>
       <path id="DejaVuSans-77" d="M 269 3500 
L 844 3500 
L 1563 769 
L 2278 3500 
L 2956 3500 
L 3675 769 
L 4391 3500 
L 4966 3500 
L 4050 0 
L 3372 0 
L 2619 2869 
L 1863 0 
L 1184 0 
L 269 3500 
z
" transform="scale(0.015625)"/>
      </defs>
      <use xlink:href="#DejaVuSans-44"/>
      <use xlink:href="#DejaVuSans-61" transform="translate(77.001953 0)"/>
      <use xlink:href="#DejaVuSans-74" transform="translate(138.28125 0)"/>
      <use xlink:href="#DejaVuSans-61" transform="translate(177.490234 0)"/>
      <use xlink:href="#DejaVuSans-20" transform="translate(238.769531 0)"/>
      <use xlink:href="#DejaVuSans-77" transform="translate(270.556641 0)"/>
      <use xlink:href="#DejaVuSans-69" transform="translate(352.34375 0)"/>
      <use xlink:href="#DejaVuSans-74" transform="translate(380.126953 0)"/>
      <use xlink:href="#DejaVuSans-68" transform="translate(419.335938 0)"/>
      <use xlink:href="#DejaVuSans-20" transform="translate(482.714844 0)"/>
      <use xlink:href="#DejaVuSans-65" transform="translate(514.501953 0)"/>
      <use xlink:href="#DejaVuSans-72" transform="translate(576.025391 0)"/>
      <use xlink:href="#DejaVuSans-72" transform="translate(615.388672 0)"/>
      <use xlink:href="#DejaVuSans-6f" transform="translate(654.251953 0)"/>
      <use xlink:href="#DejaVuSans-72" transform="translate(715.433594 0)"/>
      <use xlink:href="#DejaVuSans-20" transform="translate(756.546875 0)"/>
      <use xlink:href="#DejaVuSans-62" transform="translate(788.333984 0)"/>
      <use xlink:href="#DejaVuSans-61" transform="translate(851.810547 0)"/>
      <use xlink:href="#DejaVuSans-72" transform="translate(913.089844 0)"/>
      <use xlink:href="#DejaVuSans-73" transform="translate(954.203125 0)"/>
     </g>
    </g>
   </g>
  </g>
 </g>
 <defs>
  <clipPath id="p7f79fb934c">
   <rect x="57.6" y="41.472" width="357.12" height="266.112"/>
  </clipPath>
 </defs>
</svg>
