<?xml version="1.0" encoding="utf-8" standalone="no"?>
<!DOCTYPE svg PUBLIC "-//W3C//DTD SVG 1.1//EN"
  "http://www.w3.org/Graphics/SVG/1.1/DTD/svg11.dtd">
<svg xmlns:xlink="http://www.w3.org/1999/xlink" width="576pt" height="468pt" viewBox="0 0 576 468" xmlns="http://www.w3.org/2000/svg" version="1.1">
 <metadata>
  <rdf:RDF xmlns:dc="http://purl.org/dc/elements/1.1/" xmlns:cc="http://creativecommons.org/ns#" xmlns:rdf="http://www.w3.org/1999/02/22-rdf-syntax-ns#">
   <cc:Work>
    <dc:type rdf:resource="http://purl.org/dc/dcmitype/StillImage"/>
    <dc:date>2026-03-14T13:18:51.596282</dc:date>
    <dc:format>image/svg+xml</dc:format>
    <dc:creator>
     <cc:Agent>
      <dc:title>Matplotlib v3.10.8, https://matplotlib.org/</dc:title>
     </cc:Agent>
    </dc:creator>
   </cc:Work>
  </rdf:RDF>
 </metadata>
 <defs>
  <style type="text/css">*{stroke-linejoin: round; stroke-linecap: butt}</style>
 </defs>
 <g id="figure_1">
  <g id="patch_1">
   <path d="M 0 468 
L 576 468 
L 576 0 
L 0 0 
z
" style="fill: #ffffff"/>
  </g>
  <g id="axes_1">
   <g id="patch_2">
    <path d="M 57.17 314.222055 
L 565.2 314.222055 
L 565.2 26.88 
L 57.17 26.88 
z
" style="fill: #ffffff"/>
   </g>
   <g id="FillBetweenPolyCollection_1">
    <defs>
     <path id="m5289020711" d="M 80.262273 -428.058997 
L 80.262273 -425.135231 
L 81.806906 -419.310271 
L 83.35154 -413.615434 
L 84.896174 -408.047792 
L 86.440807 -402.604484 
L 87.985441 -397.282712 
L 89.530074 -392.079749 
L 91.074708 -386.992929 
L 92.619342 -382.019648 
L 94.163975 -377.157365 
L 95.708609 -372.403602 
L 97.253243 -367.755935 
L 98.797876 -363.212004 
L 100.34251 -358.769501 
L 101.887144 -354.426177 
L 103.431777 -350.179836 
L 104.976411 -346.028335 
L 106.521044 -341.969582 
L 108.065678 -338.001534 
L 109.610312 -334.122197 
L 111.154945 -330.329625 
L 112.699579 -326.621914 
L 114.244213 -322.997208 
L 115.788846 -319.453689 
L 117.33348 -315.989582 
L 118.878113 -312.603151 
L 120.422747 -309.292697 
L 121.967381 -306.056559 
L 123.512014 -302.893111 
L 125.056648 -299.800762 
L 126.601282 -296.777955 
L 128.145915 -293.823164 
L 129.690549 -290.934896 
L 131.235182 -288.11169 
L 132.779816 -285.352114 
L 134.32445 -282.654765 
L 135.869083 -280.018272 
L 137.413717 -277.441288 
L 138.958351 -274.922499 
L 140.502984 -272.460614 
L 142.047618 -270.054372 
L 143.592251 -267.702536 
L 145.136885 -265.403896 
L 146.681519 -263.157268 
L 148.226152 -260.961493 
L 149.770786 -258.815435 
L 151.31542 -256.717984 
L 152.860053 -254.668052 
L 154.404687 -252.664575 
L 155.94932 -250.706514 
L 157.493954 -248.792848 
L 159.038588 -246.922582 
L 160.583221 -245.094739 
L 162.127855 -243.308368 
L 163.672489 -241.562534 
L 165.217122 -239.856325 
L 166.761756 -238.188849 
L 168.306389 -236.559232 
L 169.851023 -234.96662 
L 171.395657 -233.410179 
L 172.94029 -231.889091 
L 174.484924 -230.402559 
L 176.029558 -228.949802 
L 177.574191 -227.530055 
L 179.118825 -226.142574 
L 180.663458 -224.786626 
L 182.208092 -223.4615 
L 183.752726 -222.166497 
L 185.297359 -220.900936 
L 186.841993 -219.664149 
L 188.386627 -218.455484 
L 189.93126 -217.274304 
L 191.475894 -216.119987 
L 193.020528 -214.991922 
L 194.565161 -213.889515 
L 196.109795 -212.812184 
L 197.654428 -211.75936 
L 199.199062 -210.730486 
L 200.743696 -209.725019 
L 202.288329 -208.742428 
L 203.832963 -207.782194 
L 205.377597 -206.843809 
L 206.92223 -205.926776 
L 208.466864 -205.030611 
L 210.011497 -204.15484 
L 211.556131 -203.298999 
L 213.100765 -202.462636 
L 214.645398 -201.645308 
L 216.190032 -200.846582 
L 217.734666 -200.066037 
L 219.279299 -199.303258 
L 220.823933 -198.557841 
L 222.368566 -197.829392 
L 223.9132 -197.117526 
L 225.457834 -196.421865 
L 227.002467 -195.742041 
L 228.547101 -195.077693 
L 230.091735 -194.42847 
L 231.636368 -193.794027 
L 233.181002 -193.174029 
L 234.725635 -192.568147 
L 236.270269 -191.97606 
L 237.814903 -191.397454 
L 239.359536 -190.832023 
L 240.90417 -190.279466 
L 242.448804 -189.73949 
L 243.993437 -189.211811 
L 245.538071 -188.696147 
L 247.082704 -188.192225 
L 248.627338 -187.699778 
L 250.171972 -187.218546 
L 251.716605 -186.748272 
L 253.261239 -186.288707 
L 254.805873 -185.839609 
L 256.350506 -185.400737 
L 257.89514 -184.971861 
L 259.439773 -184.552752 
L 260.984407 -184.143187 
L 262.529041 -183.74295 
L 264.073674 -183.351829 
L 265.618308 -182.969615 
L 267.162942 -182.596107 
L 268.707575 -182.231105 
L 270.252209 -181.874417 
L 271.796843 -181.525852 
L 273.341476 -181.185227 
L 274.88611 -180.852359 
L 276.430743 -180.527074 
L 277.975377 -180.209197 
L 279.520011 -179.898561 
L 281.064644 -179.595 
L 282.609278 -179.298354 
L 284.153912 -179.008465 
L 285.698545 -178.725178 
L 287.243179 -178.448345 
L 288.787812 -178.177817 
L 290.332446 -177.913452 
L 291.87708 -177.655108 
L 293.421713 -177.40265 
L 294.966347 -177.155942 
L 296.510981 -176.914854 
L 298.055614 -176.679257 
L 299.600248 -176.449028 
L 301.144881 -176.224043 
L 302.689515 -176.004183 
L 304.234149 -175.789332 
L 305.778782 -175.579375 
L 307.323416 -175.374201 
L 308.86805 -175.1737 
L 310.412683 -174.977768 
L 311.957317 -174.786298 
L 313.50195 -174.599191 
L 315.046584 -174.416346 
L 316.591218 -174.237667 
L 318.135851 -174.063058 
L 319.680485 -173.892427 
L 321.225119 -173.725683 
L 322.769752 -173.562738 
L 324.314386 -173.403505 
L 325.859019 -173.247899 
L 327.403653 -173.095839 
L 328.948287 -172.947243 
L 330.49292 -172.802032 
L 332.037554 -172.66013 
L 333.582188 -172.52146 
L 335.126821 -172.38595 
L 336.671455 -172.253526 
L 338.216088 -172.12412 
L 339.760722 -171.997662 
L 341.305356 -171.874085 
L 342.849989 -171.753324 
L 344.394623 -171.635314 
L 345.939257 -171.519992 
L 347.48389 -171.407298 
L 349.028524 -171.297172 
L 350.573157 -171.189554 
L 352.117791 -171.084389 
L 353.662425 -170.981619 
L 355.207058 -170.881191 
L 356.751692 -170.783051 
L 358.296326 -170.687147 
L 359.840959 -170.593428 
L 361.385593 -170.501845 
L 362.930227 -170.412348 
L 364.47486 -170.32489 
L 366.019494 -170.239425 
L 367.564127 -170.155907 
L 369.108761 -170.074292 
L 370.653395 -169.994537 
L 372.198028 -169.916599 
L 373.742662 -169.840436 
L 375.287296 -169.766009 
L 376.831929 -169.693278 
L 378.376563 -169.622204 
L 379.921196 -169.552749 
L 381.46583 -169.484877 
L 383.010464 -169.418552 
L 384.555097 -169.353737 
L 386.099731 -169.2904 
L 387.644365 -169.228505 
L 389.188998 -169.168021 
L 390.733632 -169.108915 
L 392.278265 -169.051156 
L 393.822899 -168.994713 
L 395.367533 -168.939556 
L 396.912166 -168.885655 
L 398.4568 -168.832983 
L 400.001434 -168.781511 
L 401.546067 -168.731212 
L 403.090701 -168.682059 
L 404.635334 -168.634026 
L 406.179968 -168.587088 
L 407.724602 -168.541219 
L 409.269235 -168.496395 
L 410.813869 -168.452592 
L 412.358503 -168.409788 
L 413.903136 -168.367959 
L 415.44777 -168.327083 
L 416.992403 -168.287139 
L 418.537037 -168.248105 
L 420.081671 -168.20996 
L 421.626304 -168.172684 
L 423.170938 -168.136258 
L 424.715572 -168.100662 
L 426.260205 -168.065877 
L 427.804839 -168.031885 
L 429.349472 -167.998667 
L 430.894106 -167.966206 
L 432.43874 -167.934485 
L 433.983373 -167.903487 
L 435.528007 -167.873195 
L 437.072641 -167.843593 
L 438.617274 -167.814666 
L 440.161908 -167.786398 
L 441.706542 -167.758774 
L 443.251175 -167.73178 
L 444.795809 -167.7054 
L 446.340442 -167.679622 
L 447.885076 -167.654432 
L 449.42971 -167.629815 
L 450.974343 -167.605759 
L 452.518977 -167.582252 
L 454.063611 -167.55928 
L 455.608244 -167.536832 
L 457.152878 -167.514895 
L 458.697511 -167.493458 
L 460.242145 -167.472509 
L 461.786779 -167.452038 
L 463.331412 -167.432034 
L 464.876046 -167.412485 
L 466.42068 -167.393382 
L 467.965313 -167.374714 
L 469.509947 -167.356472 
L 471.05458 -167.338645 
L 472.599214 -167.321224 
L 474.143848 -167.304201 
L 475.688481 -167.287565 
L 477.233115 -167.271309 
L 478.777749 -167.255423 
L 480.322382 -167.239899 
L 481.867016 -167.224729 
L 483.411649 -167.209904 
L 484.956283 -167.195417 
L 486.500917 -167.181261 
L 488.04555 -167.167427 
L 489.590184 -167.153908 
L 491.134818 -167.140698 
L 492.679451 -167.127788 
L 494.224085 -167.115173 
L 495.768718 -167.102845 
L 497.313352 -167.090798 
L 498.857986 -167.079026 
L 500.402619 -167.067522 
L 501.947253 -167.05628 
L 503.491887 -167.045294 
L 505.03652 -167.034559 
L 506.581154 -167.024068 
L 508.125787 -167.013816 
L 509.670421 -167.003798 
L 511.215055 -166.994008 
L 512.759688 -166.984442 
L 514.304322 -166.975093 
L 515.848956 -166.965958 
L 517.393589 -166.95703 
L 518.938223 -166.948307 
L 520.482856 -166.939781 
L 522.02749 -166.931451 
L 523.572124 -166.92331 
L 525.116757 -166.915354 
L 526.661391 -166.90758 
L 528.206025 -166.899983 
L 529.750658 -166.89256 
L 531.295292 -166.885305 
L 532.839926 -166.878216 
L 534.384559 -166.871288 
L 535.929193 -166.864518 
L 537.473826 -166.857903 
L 539.01846 -166.851438 
L 540.563094 -166.845121 
L 542.107727 -166.838947 
L 542.107727 -166.867022 
L 542.107727 -166.867022 
L 540.563094 -166.873745 
L 539.01846 -166.880622 
L 537.473826 -166.887657 
L 535.929193 -166.894853 
L 534.384559 -166.902215 
L 532.839926 -166.909745 
L 531.295292 -166.917449 
L 529.750658 -166.925329 
L 528.206025 -166.933391 
L 526.661391 -166.941637 
L 525.116757 -166.950073 
L 523.572124 -166.958703 
L 522.02749 -166.96753 
L 520.482856 -166.976561 
L 518.938223 -166.985799 
L 517.393589 -166.995248 
L 515.848956 -167.004915 
L 514.304322 -167.014804 
L 512.759688 -167.02492 
L 511.215055 -167.035268 
L 509.670421 -167.045854 
L 508.125787 -167.056683 
L 506.581154 -167.06776 
L 505.03652 -167.079092 
L 503.491887 -167.090684 
L 501.947253 -167.102542 
L 500.402619 -167.114673 
L 498.857986 -167.127082 
L 497.313352 -167.139776 
L 495.768718 -167.152761 
L 494.224085 -167.166044 
L 492.679451 -167.179633 
L 491.134818 -167.193534 
L 489.590184 -167.207753 
L 488.04555 -167.222299 
L 486.500917 -167.23718 
L 484.956283 -167.252402 
L 483.411649 -167.267973 
L 481.867016 -167.283902 
L 480.322382 -167.300197 
L 478.777749 -167.316865 
L 477.233115 -167.333917 
L 475.688481 -167.35136 
L 474.143848 -167.369204 
L 472.599214 -167.387457 
L 471.05458 -167.406129 
L 469.509947 -167.42523 
L 467.965313 -167.44477 
L 466.42068 -167.464758 
L 464.876046 -167.485206 
L 463.331412 -167.506123 
L 461.786779 -167.52752 
L 460.242145 -167.549408 
L 458.697511 -167.571799 
L 457.152878 -167.594704 
L 455.608244 -167.618135 
L 454.063611 -167.642104 
L 452.518977 -167.666623 
L 450.974343 -167.691705 
L 449.42971 -167.717364 
L 447.885076 -167.743611 
L 446.340442 -167.770461 
L 444.795809 -167.797927 
L 443.251175 -167.826024 
L 441.706542 -167.854767 
L 440.161908 -167.884169 
L 438.617274 -167.914246 
L 437.072641 -167.945014 
L 435.528007 -167.976488 
L 433.983373 -168.008685 
L 432.43874 -168.041622 
L 430.894106 -168.075314 
L 429.349472 -168.10978 
L 427.804839 -168.145038 
L 426.260205 -168.181105 
L 424.715572 -168.218 
L 423.170938 -168.255742 
L 421.626304 -168.294351 
L 420.081671 -168.333846 
L 418.537037 -168.374248 
L 416.992403 -168.415578 
L 415.44777 -168.457857 
L 413.903136 -168.501106 
L 412.358503 -168.545349 
L 410.813869 -168.590607 
L 409.269235 -168.636905 
L 407.724602 -168.684265 
L 406.179968 -168.732713 
L 404.635334 -168.782274 
L 403.090701 -168.832972 
L 401.546067 -168.884834 
L 400.001434 -168.937888 
L 398.4568 -168.992159 
L 396.912166 -169.047676 
L 395.367533 -169.104468 
L 393.822899 -169.162564 
L 392.278265 -169.221994 
L 390.733632 -169.282789 
L 389.188998 -169.344979 
L 387.644365 -169.408598 
L 386.099731 -169.473677 
L 384.555097 -169.54025 
L 383.010464 -169.608352 
L 381.46583 -169.678017 
L 379.921196 -169.749283 
L 378.376563 -169.822184 
L 376.831929 -169.896759 
L 375.287296 -169.973047 
L 373.742662 -170.051086 
L 372.198028 -170.130917 
L 370.653395 -170.212581 
L 369.108761 -170.29612 
L 367.564127 -170.381577 
L 366.019494 -170.468996 
L 364.47486 -170.558423 
L 362.930227 -170.649903 
L 361.385593 -170.743483 
L 359.840959 -170.839212 
L 358.296326 -170.937139 
L 356.751692 -171.037315 
L 355.207058 -171.13979 
L 353.662425 -171.244619 
L 352.117791 -171.351854 
L 350.573157 -171.461552 
L 349.028524 -171.573768 
L 347.48389 -171.688561 
L 345.939257 -171.80599 
L 344.394623 -171.926115 
L 342.849989 -172.048999 
L 341.305356 -172.174704 
L 339.760722 -172.303295 
L 338.216088 -172.434839 
L 336.671455 -172.569403 
L 335.126821 -172.707057 
L 333.582188 -172.847872 
L 332.037554 -172.99192 
L 330.49292 -173.139275 
L 328.948287 -173.290014 
L 327.403653 -173.444215 
L 325.859019 -173.601956 
L 324.314386 -173.763319 
L 322.769752 -173.928387 
L 321.225119 -174.097245 
L 319.680485 -174.269981 
L 318.135851 -174.446683 
L 316.591218 -174.627442 
L 315.046584 -174.812352 
L 313.50195 -175.001508 
L 311.957317 -175.195008 
L 310.412683 -175.39295 
L 308.86805 -175.595438 
L 307.323416 -175.802575 
L 305.778782 -176.014469 
L 304.234149 -176.231228 
L 302.689515 -176.452965 
L 301.144881 -176.679794 
L 299.600248 -176.911831 
L 298.055614 -177.149196 
L 296.510981 -177.392012 
L 294.966347 -177.640403 
L 293.421713 -177.894499 
L 291.87708 -178.154429 
L 290.332446 -178.420328 
L 288.787812 -178.692334 
L 287.243179 -178.970585 
L 285.698545 -179.255226 
L 284.153912 -179.546404 
L 282.609278 -179.844268 
L 281.064644 -180.148973 
L 279.520011 -180.460674 
L 277.975377 -180.779534 
L 276.430743 -181.105717 
L 274.88611 -181.43939 
L 273.341476 -181.780725 
L 271.796843 -182.1299 
L 270.252209 -182.487094 
L 268.707575 -182.85249 
L 267.162942 -183.226279 
L 265.618308 -183.608651 
L 264.073674 -183.999806 
L 262.529041 -184.399943 
L 260.984407 -184.809271 
L 259.439773 -185.227999 
L 257.89514 -185.656344 
L 256.350506 -186.094527 
L 254.805873 -186.542774 
L 253.261239 -187.001317 
L 251.716605 -187.470391 
L 250.171972 -187.950239 
L 248.627338 -188.441108 
L 247.082704 -188.943253 
L 245.538071 -189.456931 
L 243.993437 -189.982408 
L 242.448804 -190.519955 
L 240.90417 -191.069849 
L 239.359536 -191.632376 
L 237.814903 -192.207824 
L 236.270269 -192.796491 
L 234.725635 -193.39868 
L 233.181002 -194.014704 
L 231.636368 -194.644879 
L 230.091735 -195.289531 
L 228.547101 -195.948993 
L 227.002467 -196.623606 
L 225.457834 -197.313718 
L 223.9132 -198.019686 
L 222.368566 -198.741874 
L 220.823933 -199.480655 
L 219.279299 -200.236411 
L 217.734666 -201.009533 
L 216.190032 -201.80042 
L 214.645398 -202.609481 
L 213.100765 -203.437135 
L 211.556131 -204.283808 
L 210.011497 -205.149939 
L 208.466864 -206.035977 
L 206.92223 -206.942378 
L 205.377597 -207.869613 
L 203.832963 -208.81816 
L 202.288329 -209.788511 
L 200.743696 -210.781167 
L 199.199062 -211.796644 
L 197.654428 -212.835466 
L 196.109795 -213.898172 
L 194.565161 -214.985312 
L 193.020528 -216.097449 
L 191.475894 -217.235161 
L 189.93126 -218.399036 
L 188.386627 -219.589678 
L 186.841993 -220.807706 
L 185.297359 -222.05375 
L 183.752726 -223.328458 
L 182.208092 -224.632492 
L 180.663458 -225.966529 
L 179.118825 -227.331262 
L 177.574191 -228.727401 
L 176.029558 -230.155672 
L 174.484924 -231.616819 
L 172.94029 -233.111601 
L 171.395657 -234.640798 
L 169.851023 -236.205208 
L 168.306389 -237.805644 
L 166.761756 -239.442944 
L 165.217122 -241.117962 
L 163.672489 -242.831573 
L 162.127855 -244.584673 
L 160.583221 -246.378181 
L 159.038588 -248.213036 
L 157.493954 -250.090199 
L 155.94932 -252.010657 
L 154.404687 -253.975417 
L 152.860053 -255.985515 
L 151.31542 -258.042007 
L 149.770786 -260.145978 
L 148.226152 -262.298539 
L 146.681519 -264.500827 
L 145.136885 -266.754009 
L 143.592251 -269.059277 
L 142.047618 -271.417857 
L 140.502984 -273.831001 
L 138.958351 -276.299995 
L 137.413717 -278.826157 
L 135.869083 -281.410835 
L 134.32445 -284.055413 
L 132.779816 -286.761309 
L 131.235182 -289.529977 
L 129.690549 -292.362906 
L 128.145915 -295.261623 
L 126.601282 -298.227694 
L 125.056648 -301.262723 
L 123.512014 -304.368352 
L 121.967381 -307.546268 
L 120.422747 -310.798195 
L 118.878113 -314.125902 
L 117.33348 -317.5312 
L 115.788846 -321.015942 
L 114.244213 -324.582029 
L 112.699579 -328.231402 
L 111.154945 -331.966051 
L 109.610312 -335.788011 
L 108.065678 -339.699361 
L 106.521044 -343.702231 
L 104.976411 -347.798796 
L 103.431777 -351.991279 
L 101.887144 -356.281953 
L 100.34251 -360.673141 
L 98.797876 -365.167216 
L 97.253243 -369.766601 
L 95.708609 -374.473774 
L 94.163975 -379.291265 
L 92.619342 -384.221661 
L 91.074708 -389.267603 
L 89.530074 -394.431792 
L 87.985441 -399.716986 
L 86.440807 -405.126007 
L 84.896174 -410.661737 
L 83.35154 -416.327124 
L 81.806906 -422.125184 
L 80.262273 -428.058997 
z
" style="stroke: #ffa500; stroke-opacity: 0.3"/>
    </defs>
    <g clip-path="url(#pe988d4e408)">
     <use xlink:href="#m5289020711" x="0" y="468" style="fill: #ffa500; fill-opacity: 0.3; stroke: #ffa500; stroke-opacity: 0.3"/>
    </g>
   </g>
   <g id="matplotlib.axis_1">
    <g id="xtick_1">
     <g id="line2d_1">
      <path d="M 76.222808 314.222055 
L 76.222808 26.88 
" clip-path="url(#pe988d4e408)" style="fill: none; stroke: #b0b0b0; stroke-width: 0.8; stroke-linecap: square"/>
     </g>
     <g id="line2d_2">
      <defs>
       <path id="m5b83f01661" d="M 0 0 
L 0 3.5 
" style="stroke: #000000; stroke-width: 0.8"/>
      </defs>
      <g>
       <use xlink:href="#m5b83f01661" x="76.222808" y="314.222055" style="stroke: #000000; stroke-width: 0.8"/>
      </g>
     </g>
    </g>
    <g id="xtick_2">
     <g id="line2d_3">
      <path d="M 143.547218 314.222055 
L 143.547218 26.88 
" clip-path="url(#pe988d4e408)" style="fill: none; stroke: #b0b0b0; stroke-width: 0.8; stroke-linecap: square"/>
     </g>
     <g id="line2d_4">
      <g>
       <use xlink:href="#m5b83f01661" x="143.547218" y="314.222055" style="stroke: #000000; stroke-width: 0.8"/>
      </g>
     </g>
    </g>
    <g id="xtick_3">
     <g id="line2d_5">
      <path d="M 210.871629 314.222055 
L 210.871629 26.88 
" clip-path="url(#pe988d4e408)" style="fill: none; stroke: #b0b0b0; stroke-width: 0.8; stroke-linecap: square"/>
     </g>
     <g id="line2d_6">
      <g>
       <use xlink:href="#m5b83f01661" x="210.871629" y="314.222055" style="stroke: #000000; stroke-width: 0.8"/>
      </g>
     </g>
    </g>
    <g id="xtick_4">
     <g id="line2d_7">
      <path d="M 278.196039 314.222055 
L 278.196039 26.88 
" clip-path="url(#pe988d4e408)" style="fill: none; stroke: #b0b0b0; stroke-width: 0.8; stroke-linecap: square"/>
     </g>
     <g id="line2d_8">
      <g>
       <use xlink:href="#m5b83f01661" x="278.196039" y="314.222055" style="stroke: #000000; stroke-width: 0.8"/>
      </g>
     </g>
    </g>
    <g id="xtick_5">
     <g id="line2d_9">
      <path d="M 345.520449 314.222055 
L 345.520449 26.88 
" clip-path="url(#pe988d4e408)" style="fill: none; stroke: #b0b0b0; stroke-width: 0.8; stroke-linecap: square"/>
     </g>
     <g id="line2d_10">
      <g>
       <use xlink:href="#m5b83f01661" x="345.520449" y="314.222055" style="stroke: #000000; stroke-width: 0.8"/>
      </g>
     </g>
    </g>
    <g id="xtick_6">
     <g id="line2d_11">
      <path d="M 412.84486 314.222055 
L 412.84486 26.88 
" clip-path="url(#pe988d4e408)" style="fill: none; stroke: #b0b0b0; stroke-width: 0.8; stroke-linecap: square"/>
     </g>
     <g id="line2d_12">
      <g>
       <use xlink:href="#m5b83f01661" x="412.84486" y="314.222055" style="stroke: #000000; stroke-width: 0.8"/>
      </g>
     </g>
    </g>
    <g id="xtick_7">
     <g id="line2d_13">
      <path d="M 480.16927 314.222055 
L 480.16927 26.88 
" clip-path="url(#pe988d4e408)" style="fill: none; stroke: #b0b0b0; stroke-width: 0.8; stroke-linecap: square"/>
     </g>
     <g id="line2d_14">
      <g>
       <use xlink:href="#m5b83f01661" x="480.16927" y="314.222055" style="stroke: #000000; stroke-width: 0.8"/>
      </g>
     </g>
    </g>
    <g id="xtick_8">
     <g id="line2d_15">
      <path d="M 547.49368 314.222055 
L 547.49368 26.88 
" clip-path="url(#pe988d4e408)" style="fill: none; stroke: #b0b0b0; stroke-width: 0.8; stroke-linecap: square"/>
     </g>
     <g id="line2d_16">
      <g>
       <use xlink:href="#m5b83f01661" x="547.49368" y="314.222055" style="stroke: #000000; stroke-width: 0.8"/>
      </g>
     </g>
    </g>
   </g>
   <g id="matplotlib.axis_2">
    <g id="ytick_1">
     <g id="line2d_17">
      <path d="M 57.17 301.425738 
L 565.2 301.425738 
" clip-path="url(#pe988d4e408)" style="fill: none; stroke: #b0b0b0; stroke-width: 0.8; stroke-linecap: square"/>
     </g>
     <g id="line2d_18">
      <defs>
       <path id="m96801e41c0" d="M 0 0 
L -3.5 0 
" style="stroke: #000000; stroke-width: 0.8"/>
      </defs>
      <g>
       <use xlink:href="#m96801e41c0" x="57.17" y="301.425738" style="stroke: #000000; stroke-width: 0.8"/>
      </g>
     </g>
     <g id="text_1">
      <!-- 0 -->
      <g transform="translate(43.8075 305.224957) scale(0.1 -0.1)">
       <defs>
        <path id="DejaVuSans-30" d="M 2034 4250 
Q 1547 4250 1301 3770 
Q 1056 3291 1056 2328 
Q 1056 1369 1301 889 
Q 1547 409 2034 409 
Q 2525 409 2770 889 
Q 3016 1369 3016 2328 
Q 3016 3291 2770 3770 
Q 2525 4250 2034 4250 
z
M 2034 4750 
Q 2819 4750 3233 4129 
Q 3647 3509 3647 2328 
Q 3647 1150 3233 529 
Q 2819 -91 2034 -91 
Q 1250 -91 836 529 
Q 422 1150 422 2328 
Q 422 3509 836 4129 
Q 1250 4750 2034 4750 
z
" transform="scale(0.015625)"/>
       </defs>
       <use xlink:href="#DejaVuSans-30"/>
      </g>
     </g>
    </g>
    <g id="ytick_2">
     <g id="line2d_19">
      <path d="M 57.17 266.5437 
L 565.2 266.5437 
" clip-path="url(#pe988d4e408)" style="fill: none; stroke: #b0b0b0; stroke-width: 0.8; stroke-linecap: square"/>
     </g>
     <g id="line2d_20">
      <g>
       <use xlink:href="#m96801e41c0" x="57.17" y="266.5437" style="stroke: #000000; stroke-width: 0.8"/>
      </g>
     </g>
     <g id="text_2">
      <!-- 200 -->
      <g transform="translate(31.0825 270.342919) scale(0.1 -0.1)">
       <defs>
        <path id="DejaVuSans-32" d="M 1228 531 
L 3431 531 
L 3431 0 
L 469 0 
L 469 531 
Q 828 903 1448 1529 
Q 2069 2156 2228 2338 
Q 2531 2678 2651 2914 
Q 2772 3150 2772 3378 
Q 2772 3750 2511 3984 
Q 2250 4219 1831 4219 
Q 1534 4219 1204 4116 
Q 875 4013 500 3803 
L 500 4441 
Q 881 4594 1212 4672 
Q 1544 4750 1819 4750 
Q 2544 4750 2975 4387 
Q 3406 4025 3406 3419 
Q 3406 3131 3298 2873 
Q 3191 2616 2906 2266 
Q 2828 2175 2409 1742 
Q 1991 1309 1228 531 
z
" transform="scale(0.015625)"/>
       </defs>
       <use xlink:href="#DejaVuSans-32"/>
       <use xlink:href="#DejaVuSans-30" transform="translate(63.623047 0)"/>
       <use xlink:href="#DejaVuSans-30" transform="translate(127.246094 0)"/>
      </g>
     </g>
    </g>
    <g id="ytick_3">
     <g id="line2d_21">
      <path d="M 57.17 231.661663 
L 565.2 231.661663 
" clip-path="url(#pe988d4e408)" style="fill: none; stroke: #b0b0b0; stroke-width: 0.8; stroke-linecap: square"/>
     </g>
     <g id="line2d_22">
      <g>
       <use xlink:href="#m96801e41c0" x="57.17" y="231.661663" style="stroke: #000000; stroke-width: 0.8"/>
      </g>
     </g>
     <g id="text_3">
      <!-- 400 -->
      <g transform="translate(31.0825 235.460881) scale(0.1 -0.1)">
       <defs>
        <path id="DejaVuSans-34" d="M 2419 4116 
L 825 1625 
L 2419 1625 
L 2419 4116 
z
M 2253 4666 
L 3047 4666 
L 3047 1625 
L 3713 1625 
L 3713 1100 
L 3047 1100 
L 3047 0 
L 2419 0 
L 2419 1100 
L 313 1100 
L 313 1709 
L 2253 4666 
z
" transform="scale(0.015625)"/>
       </defs>
       <use xlink:href="#DejaVuSans-34"/>
       <use xlink:href="#DejaVuSans-30" transform="translate(63.623047 0)"/>
       <use xlink:href="#DejaVuSans-30" transform="translate(127.246094 0)"/>
      </g>
     </g>
    </g>
    <g id="ytick_4">
     <g id="line2d_23">
      <path d="M 57.17 196.779625 
L 565.2 196.779625 
" clip-path="url(#pe988d4e408)" style="fill: none; stroke: #b0b0b0; stroke-width: 0.8; stroke-linecap: square"/>
     </g>
     <g id="line2d_24">
      <g>
       <use xlink:href="#m96801e41c0" x="57.17" y="196.779625" style="stroke: #000000; stroke-width: 0.8"/>
      </g>
     </g>
     <g id="text_4">
      <!-- 600 -->
      <g transform="translate(31.0825 200.578843) scale(0.1 -0.1)">
       <defs>
        <path id="DejaVuSans-36" d="M 2113 2584 
Q 1688 2584 1439 2293 
Q 1191 2003 1191 1497 
Q 1191 994 1439 701 
Q 1688 409 2113 409 
Q 2538 409 2786 701 
Q 3034 994 3034 1497 
Q 3034 2003 2786 2293 
Q 2538 2584 2113 2584 
z
M 3366 4563 
L 3366 3988 
Q 3128 4100 2886 4159 
Q 2644 4219 2406 4219 
Q 1781 4219 1451 3797 
Q 1122 3375 1075 2522 
Q 1259 2794 1537 2939 
Q 1816 3084 2150 3084 
Q 2853 3084 3261 2657 
Q 3669 2231 3669 1497 
Q 3669 778 3244 343 
Q 2819 -91 2113 -91 
Q 1303 -91 875 529 
Q 447 1150 447 2328 
Q 447 3434 972 4092 
Q 1497 4750 2381 4750 
Q 2619 4750 2861 4703 
Q 3103 4656 3366 4563 
z
" transform="scale(0.015625)"/>
       </defs>
       <use xlink:href="#DejaVuSans-36"/>
       <use xlink:href="#DejaVuSans-30" transform="translate(63.623047 0)"/>
       <use xlink:href="#DejaVuSans-30" transform="translate(127.246094 0)"/>
      </g>
     </g>
    </g>
    <g id="ytick_5">
     <g id="line2d_25">
      <path d="M 57.17 161.897587 
L 565.2 161.897587 
" clip-path="url(#pe988d4e408)" style="fill: none; stroke: #b0b0b0; stroke-width: 0.8; stroke-linecap: square"/>
     </g>
     <g id="line2d_26">
      <g>
       <use xlink:href="#m96801e41c0" x="57.17" y="161.897587" style="stroke: #000000; stroke-width: 0.8"/>
      </g>
     </g>
     <g id="text_5">
      <!-- 800 -->
      <g transform="translate(31.0825 165.696805) scale(0.1 -0.1)">
       <defs>
        <path id="DejaVuSans-38" d="M 2034 2216 
Q 1584 2216 1326 1975 
Q 1069 1734 1069 1313 
Q 1069 891 1326 650 
Q 1584 409 2034 409 
Q 2484 409 2743 651 
Q 3003 894 3003 1313 
Q 3003 1734 2745 1975 
Q 2488 2216 2034 2216 
z
M 1403 2484 
Q 997 2584 770 2862 
Q 544 3141 544 3541 
Q 544 4100 942 4425 
Q 1341 4750 2034 4750 
Q 2731 4750 3128 4425 
Q 3525 4100 3525 3541 
Q 3525 3141 3298 2862 
Q 3072 2584 2669 2484 
Q 3125 2378 3379 2068 
Q 3634 1759 3634 1313 
Q 3634 634 3220 271 
Q 2806 -91 2034 -91 
Q 1263 -91 848 271 
Q 434 634 434 1313 
Q 434 1759 690 2068 
Q 947 2378 1403 2484 
z
M 1172 3481 
Q 1172 3119 1398 2916 
Q 1625 2713 2034 2713 
Q 2441 2713 2670 2916 
Q 2900 3119 2900 3481 
Q 2900 3844 2670 4047 
Q 2441 4250 2034 4250 
Q 1625 4250 1398 4047 
Q 1172 3844 1172 3481 
z
" transform="scale(0.015625)"/>
       </defs>
       <use xlink:href="#DejaVuSans-38"/>
       <use xlink:href="#DejaVuSans-30" transform="translate(63.623047 0)"/>
       <use xlink:href="#DejaVuSans-30" transform="translate(127.246094 0)"/>
      </g>
     </g>
    </g>
    <g id="ytick_6">
     <g id="line2d_27">
      <path d="M 57.17 127.015549 
L 565.2 127.015549 
" clip-path="url(#pe988d4e408)" style="fill: none; stroke: #b0b0b0; stroke-width: 0.8; stroke-linecap: square"/>
     </g>
     <g id="line2d_28">
      <g>
       <use xlink:href="#m96801e41c0" x="57.17" y="127.015549" style="stroke: #000000; stroke-width: 0.8"/>
      </g>
     </g>
     <g id="text_6">
      <!-- 1000 -->
      <g transform="translate(24.72 130.814767) scale(0.1 -0.1)">
       <defs>
        <path id="DejaVuSans-31" d="M 794 531 
L 1825 531 
L 1825 4091 
L 703 3866 
L 703 4441 
L 1819 4666 
L 2450 4666 
L 2450 531 
L 3481 531 
L 3481 0 
L 794 0 
L 794 531 
z
" transform="scale(0.015625)"/>
       </defs>
       <use xlink:href="#DejaVuSans-31"/>
       <use xlink:href="#DejaVuSans-30" transform="translate(63.623047 0)"/>
       <use xlink:href="#DejaVuSans-30" transform="translate(127.246094 0)"/>
       <use xlink:href="#DejaVuSans-30" transform="translate(190.869141 0)"/>
      </g>
     </g>
    </g>
    <g id="ytick_7">
     <g id="line2d_29">
      <path d="M 57.17 92.133511 
L 565.2 92.133511 
" clip-path="url(#pe988d4e408)" style="fill: none; stroke: #b0b0b0; stroke-width: 0.8; stroke-linecap: square"/>
     </g>
     <g id="line2d_30">
      <g>
       <use xlink:href="#m96801e41c0" x="57.17" y="92.133511" style="stroke: #000000; stroke-width: 0.8"/>
      </g>
     </g>
     <g id="text_7">
      <!-- 1200 -->
      <g transform="translate(24.72 95.93273) scale(0.1 -0.1)">
       <use xlink:href="#DejaVuSans-31"/>
       <use xlink:href="#DejaVuSans-32" transform="translate(63.623047 0)"/>
       <use xlink:href="#DejaVuSans-30" transform="translate(127.246094 0)"/>
       <use xlink:href="#DejaVuSans-30" transform="translate(190.869141 0)"/>
      </g>
     </g>
    </g>
    <g id="ytick_8">
     <g id="line2d_31">
      <path d="M 57.17 57.251473 
L 565.2 57.251473 
" clip-path="url(#pe988d4e408)" style="fill: none; stroke: #b0b0b0; stroke-width: 0.8; stroke-linecap: square"/>
     </g>
     <g id="line2d_32">
      <g>
       <use xlink:href="#m96801e41c0" x="57.17" y="57.251473" style="stroke: #000000; stroke-width: 0.8"/>
      </g>
     </g>
     <g id="text_8">
      <!-- 1400 -->
      <g transform="translate(24.72 61.050692) scale(0.1 -0.1)">
       <use xlink:href="#DejaVuSans-31"/>
       <use xlink:href="#DejaVuSans-34" transform="translate(63.623047 0)"/>
       <use xlink:href="#DejaVuSans-30" transform="translate(127.246094 0)"/>
       <use xlink:href="#DejaVuSans-30" transform="translate(190.869141 0)"/>
      </g>
     </g>
    </g>
    <g id="text_9">
     <!-- Counts [Hz] -->
     <g transform="translate(18.640313 199.879153) rotate(-90) scale(0.1 -0.1)">
      <defs>
       <path id="DejaVuSans-43" d="M 4122 4306 
L 4122 3641 
Q 3803 3938 3442 4084 
Q 3081 4231 2675 4231 
Q 1875 4231 1450 3742 
Q 1025 3253 1025 2328 
Q 1025 1406 1450 917 
Q 1875 428 2675 428 
Q 3081 428 3442 575 
Q 3803 722 4122 1019 
L 4122 359 
Q 3791 134 3420 21 
Q 3050 -91 2638 -91 
Q 1578 -91 968 557 
Q 359 1206 359 2328 
Q 359 3453 968 4101 
Q 1578 4750 2638 4750 
Q 3056 4750 3426 4639 
Q 3797 4528 4122 4306 
z
" transform="scale(0.015625)"/>
       <path id="DejaVuSans-6f" d="M 1959 3097 
Q 1497 3097 1228 2736 
Q 959 2375 959 1747 
Q 959 1119 1226 758 
Q 1494 397 1959 397 
Q 2419 397 2687 759 
Q 2956 1122 2956 1747 
Q 2956 2369 2687 2733 
Q 2419 3097 1959 3097 
z
M 1959 3584 
Q 2709 3584 3137 3096 
Q 3566 2609 3566 1747 
Q 3566 888 3137 398 
Q 2709 -91 1959 -91 
Q 1206 -91 779 398 
Q 353 888 353 1747 
Q 353 2609 779 3096 
Q 1206 3584 1959 3584 
z
" transform="scale(0.015625)"/>
       <path id="DejaVuSans-75" d="M 544 1381 
L 544 3500 
L 1119 3500 
L 1119 1403 
Q 1119 906 1312 657 
Q 1506 409 1894 409 
Q 2359 409 2629 706 
Q 2900 1003 2900 1516 
L 2900 3500 
L 3475 3500 
L 3475 0 
L 2900 0 
L 2900 538 
Q 2691 219 2414 64 
Q 2138 -91 1772 -91 
Q 1169 -91 856 284 
Q 544 659 544 1381 
z
M 1991 3584 
L 1991 3584 
z
" transform="scale(0.015625)"/>
       <path id="DejaVuSans-6e" d="M 3513 2113 
L 3513 0 
L 2938 0 
L 2938 2094 
Q 2938 2591 2744 2837 
Q 2550 3084 2163 3084 
Q 1697 3084 1428 2787 
Q 1159 2491 1159 1978 
L 1159 0 
L 581 0 
L 581 3500 
L 1159 3500 
L 1159 2956 
Q 1366 3272 1645 3428 
Q 1925 3584 2291 3584 
Q 2894 3584 3203 3211 
Q 3513 2838 3513 2113 
z
" transform="scale(0.015625)"/>
       <path id="DejaVuSans-74" d="M 1172 4494 
L 1172 3500 
L 2356 3500 
L 2356 3053 
L 1172 3053 
L 1172 1153 
Q 1172 725 1289 603 
Q 1406 481 1766 481 
L 2356 481 
L 2356 0 
L 1766 0 
Q 1100 0 847 248 
Q 594 497 594 1153 
L 594 3053 
L 172 3053 
L 172 3500 
L 594 3500 
L 594 4494 
L 1172 4494 
z
" transform="scale(0.015625)"/>
       <path id="DejaVuSans-73" d="M 2834 3397 
L 2834 2853 
Q 2591 2978 2328 3040 
Q 2066 3103 1784 3103 
Q 1356 3103 1142 2972 
Q 928 2841 928 2578 
Q 928 2378 1081 2264 
Q 1234 2150 1697 2047 
L 1894 2003 
Q 2506 1872 2764 1633 
Q 3022 1394 3022 966 
Q 3022 478 2636 193 
Q 2250 -91 1575 -91 
Q 1294 -91 989 -36 
Q 684 19 347 128 
L 347 722 
Q 666 556 975 473 
Q 1284 391 1588 391 
Q 1994 391 2212 530 
Q 2431 669 2431 922 
Q 2431 1156 2273 1281 
Q 2116 1406 1581 1522 
L 1381 1569 
Q 847 1681 609 1914 
Q 372 2147 372 2553 
Q 372 3047 722 3315 
Q 1072 3584 1716 3584 
Q 2034 3584 2315 3537 
Q 2597 3491 2834 3397 
z
" transform="scale(0.015625)"/>
       <path id="DejaVuSans-20" transform="scale(0.015625)"/>
       <path id="DejaVuSans-5b" d="M 550 4863 
L 1875 4863 
L 1875 4416 
L 1125 4416 
L 1125 -397 
L 1875 -397 
L 1875 -844 
L 550 -844 
L 550 4863 
z
" transform="scale(0.015625)"/>
       <path id="DejaVuSans-48" d="M 628 4666 
L 1259 4666 
L 1259 2753 
L 3553 2753 
L 3553 4666 
L 4184 4666 
L 4184 0 
L 3553 0 
L 3553 2222 
L 1259 2222 
L 1259 0 
L 628 0 
L 628 4666 
z
" transform="scale(0.015625)"/>
       <path id="DejaVuSans-7a" d="M 353 3500 
L 3084 3500 
L 3084 2975 
L 922 459 
L 3084 459 
L 3084 0 
L 275 0 
L 275 525 
L 2438 3041 
L 353 3041 
L 353 3500 
z
" transform="scale(0.015625)"/>
       <path id="DejaVuSans-5d" d="M 1947 4863 
L 1947 -844 
L 622 -844 
L 622 -397 
L 1369 -397 
L 1369 4416 
L 622 4416 
L 622 4863 
L 1947 4863 
z
" transform="scale(0.015625)"/>
      </defs>
      <use xlink:href="#DejaVuSans-43"/>
      <use xlink:href="#DejaVuSans-6f" transform="translate(69.824219 0)"/>
      <use xlink:href="#DejaVuSans-75" transform="translate(131.005859 0)"/>
      <use xlink:href="#DejaVuSans-6e" transform="translate(194.384766 0)"/>
      <use xlink:href="#DejaVuSans-74" transform="translate(257.763672 0)"/>
      <use xlink:href="#DejaVuSans-73" transform="translate(296.972656 0)"/>
      <use xlink:href="#DejaVuSans-20" transform="translate(349.072266 0)"/>
      <use xlink:href="#DejaVuSans-5b" transform="translate(380.859375 0)"/>
      <use xlink:href="#DejaVuSans-48" transform="translate(419.873047 0)"/>
      <use xlink:href="#DejaVuSans-7a" transform="translate(495.068359 0)"/>
      <use xlink:href="#DejaVuSans-5d" transform="translate(547.558594 0)"/>
     </g>
    </g>
   </g>
   <g id="LineCollection_1">
    <path d="M 80.262273 47.901735 
L 80.262273 46.177778 
" clip-path="url(#pe988d4e408)" style="fill: none; stroke: #1f77b4; stroke-width: 1.5"/>
    <path d="M 82.955249 60.736715 
L 82.955249 59.056674 
" clip-path="url(#pe988d4e408)" style="fill: none; stroke: #1f77b4; stroke-width: 1.5"/>
    <path d="M 89.68769 82.490675 
L 89.68769 80.887819 
" clip-path="url(#pe988d4e408)" style="fill: none; stroke: #1f77b4; stroke-width: 1.5"/>
    <path d="M 109.885013 123.732544 
L 109.885013 122.287312 
" clip-path="url(#pe988d4e408)" style="fill: none; stroke: #1f77b4; stroke-width: 1.5"/>
    <path d="M 143.547218 185.609107 
L 143.547218 184.439648 
" clip-path="url(#pe988d4e408)" style="fill: none; stroke: #1f77b4; stroke-width: 1.5"/>
    <path d="M 187.981329 241.960554 
L 187.981329 241.117632 
" clip-path="url(#pe988d4e408)" style="fill: none; stroke: #1f77b4; stroke-width: 1.5"/>
    <path d="M 241.840857 280.09127 
L 241.840857 279.576243 
" clip-path="url(#pe988d4e408)" style="fill: none; stroke: #1f77b4; stroke-width: 1.5"/>
    <path d="M 287.621456 292.820465 
L 287.621456 292.479533 
" clip-path="url(#pe988d4e408)" style="fill: none; stroke: #1f77b4; stroke-width: 1.5"/>
    <path d="M 384.568607 300.166251 
L 384.568607 299.993496 
" clip-path="url(#pe988d4e408)" style="fill: none; stroke: #1f77b4; stroke-width: 1.5"/>
    <path d="M 542.107727 300.551797 
L 542.107727 300.392795 
" clip-path="url(#pe988d4e408)" style="fill: none; stroke: #1f77b4; stroke-width: 1.5"/>
   </g>
   <g id="line2d_33">
    <path d="M 80.262273 41.402886 
L 84.896174 58.645235 
L 89.530074 74.744229 
L 94.163975 89.775685 
L 98.797876 103.81039 
L 103.431777 116.914442 
L 108.065678 129.149553 
L 112.699579 140.573342 
L 117.33348 151.239609 
L 121.967381 161.198587 
L 126.601282 170.497175 
L 131.235182 179.179167 
L 135.869083 187.285447 
L 140.502984 194.854192 
L 145.136885 201.921048 
L 149.770786 208.519293 
L 154.404687 214.680004 
L 159.038588 220.432191 
L 163.672489 225.802946 
L 168.306389 230.817562 
L 172.94029 235.499654 
L 177.574191 239.871272 
L 182.208092 243.953004 
L 186.841993 247.764073 
L 191.475894 251.322426 
L 196.109795 254.644822 
L 200.743696 257.746907 
L 205.377597 260.643289 
L 211.556131 264.208596 
L 217.734666 267.462215 
L 223.9132 270.431394 
L 230.091735 273.141 
L 236.270269 275.613725 
L 242.448804 277.870277 
L 248.627338 279.929557 
L 256.350506 282.252368 
L 264.073674 284.324183 
L 271.796843 286.172124 
L 281.064644 288.128014 
L 290.332446 289.83311 
L 299.600248 291.319571 
L 310.412683 292.814641 
L 321.225119 294.088536 
L 333.582188 295.315334 
L 347.48389 296.45207 
L 362.930227 297.468875 
L 379.921196 298.348984 
L 398.4568 299.087429 
L 420.081671 299.728097 
L 446.340442 300.274958 
L 478.777749 300.713856 
L 520.482856 301.041829 
L 542.107727 301.147015 
L 542.107727 301.147015 
" clip-path="url(#pe988d4e408)" style="fill: none; stroke: #ff7f0e; stroke-width: 1.5; stroke-linecap: square"/>
   </g>
   <g id="line2d_34">
    <path d="M 80.262273 41.402886 
L 84.896174 58.645235 
L 89.530074 74.744229 
L 94.163975 89.775685 
L 98.797876 103.81039 
L 103.431777 116.914442 
L 108.065678 129.149553 
L 112.699579 140.573342 
L 117.33348 151.239609 
L 121.967381 161.198587 
L 126.601282 170.497175 
L 131.235182 179.179167 
L 135.869083 187.285447 
L 140.502984 194.854192 
L 145.136885 201.921048 
L 149.770786 208.519293 
L 154.404687 214.680004 
L 159.038588 220.432191 
L 163.672489 225.802946 
L 168.306389 230.817562 
L 172.94029 235.499654 
L 177.574191 239.871272 
L 182.208092 243.953004 
L 186.841993 247.764073 
L 191.475894 251.322426 
L 196.109795 254.644822 
L 200.743696 257.746907 
L 205.377597 260.643289 
L 211.556131 264.208596 
L 217.734666 267.462215 
L 223.9132 270.431394 
L 230.091735 273.141 
L 236.270269 275.613725 
L 242.448804 277.870277 
L 248.627338 279.929557 
L 256.350506 282.252368 
L 264.073674 284.324183 
L 271.796843 286.172124 
L 281.064644 288.128014 
L 290.332446 289.83311 
L 299.600248 291.319571 
L 310.412683 292.814641 
L 321.225119 294.088536 
L 333.582188 295.315334 
L 347.48389 296.45207 
L 362.930227 297.468875 
L 379.921196 298.348984 
L 398.4568 299.087429 
L 420.081671 299.728097 
L 446.340442 300.274958 
L 478.777749 300.713856 
L 520.482856 301.041829 
L 542.107727 301.147015 
L 542.107727 301.147015 
" clip-path="url(#pe988d4e408)" style="fill: none; stroke: #ffa500; stroke-width: 1.5; stroke-linecap: square"/>
   </g>
   <g id="line2d_35">
    <defs>
     <path id="m399b716756" d="M 0 3 
C 0.795609 3 1.55874 2.683901 2.12132 2.12132 
C 2.683901 1.55874 3 0.795609 3 0 
C 3 -0.795609 2.683901 -1.55874 2.12132 -2.12132 
C 1.55874 -2.683901 0.795609 -3 0 -3 
C -0.795609 -3 -1.55874 -2.683901 -2.12132 -2.12132 
C -2.683901 -1.55874 -3 -0.795609 -3 0 
C -3 0.795609 -2.683901 1.55874 -2.12132 2.12132 
C -1.55874 2.683901 -0.795609 3 0 3 
z
" style="stroke: #1f77b4"/>
    </defs>
    <g clip-path="url(#pe988d4e408)">
     <use xlink:href="#m399b716756" x="80.262273" y="47.039756" style="fill: #1f77b4; stroke: #1f77b4"/>
     <use xlink:href="#m399b716756" x="82.955249" y="59.896694" style="fill: #1f77b4; stroke: #1f77b4"/>
     <use xlink:href="#m399b716756" x="89.68769" y="81.689247" style="fill: #1f77b4; stroke: #1f77b4"/>
     <use xlink:href="#m399b716756" x="109.885013" y="123.009928" style="fill: #1f77b4; stroke: #1f77b4"/>
     <use xlink:href="#m399b716756" x="143.547218" y="185.024378" style="fill: #1f77b4; stroke: #1f77b4"/>
     <use xlink:href="#m399b716756" x="187.981329" y="241.539093" style="fill: #1f77b4; stroke: #1f77b4"/>
     <use xlink:href="#m399b716756" x="241.840857" y="279.833757" style="fill: #1f77b4; stroke: #1f77b4"/>
     <use xlink:href="#m399b716756" x="287.621456" y="292.649999" style="fill: #1f77b4; stroke: #1f77b4"/>
     <use xlink:href="#m399b716756" x="384.568607" y="300.079873" style="fill: #1f77b4; stroke: #1f77b4"/>
     <use xlink:href="#m399b716756" x="542.107727" y="300.472296" style="fill: #1f77b4; stroke: #1f77b4"/>
    </g>
   </g>
   <g id="patch_3">
    <path d="M 57.17 314.222055 
L 57.17 26.88 
" style="fill: none; stroke: #000000; stroke-width: 0.8; stroke-linejoin: miter; stroke-linecap: square"/>
   </g>
   <g id="patch_4">
    <path d="M 565.2 314.222055 
L 565.2 26.88 
" style="fill: none; stroke: #000000; stroke-width: 0.8; stroke-linejoin: miter; stroke-linecap: square"/>
   </g>
   <g id="patch_5">
    <path d="M 57.17 314.222055 
L 565.2 314.222055 
" style="fill: none; stroke: #000000; stroke-width: 0.8; stroke-linejoin: miter; stroke-linecap: square"/>
   </g>
   <g id="patch_6">
    <path d="M 57.17 26.88 
L 565.2 26.88 
" style="fill: none; stroke: #000000; stroke-width: 0.8; stroke-linejoin: miter; stroke-linecap: square"/>
   </g>
   <g id="text_10">
    <!-- Counts als Funktion der Aludicke -->
    <g transform="translate(213.18625 20.88) scale(0.12 -0.12)">
     <defs>
      <path id="DejaVuSans-61" d="M 2194 1759 
Q 1497 1759 1228 1600 
Q 959 1441 959 1056 
Q 959 750 1161 570 
Q 1363 391 1709 391 
Q 2188 391 2477 730 
Q 2766 1069 2766 1631 
L 2766 1759 
L 2194 1759 
z
M 3341 1997 
L 3341 0 
L 2766 0 
L 2766 531 
Q 2569 213 2275 61 
Q 1981 -91 1556 -91 
Q 1019 -91 701 211 
Q 384 513 384 1019 
Q 384 1609 779 1909 
Q 1175 2209 1959 2209 
L 2766 2209 
L 2766 2266 
Q 2766 2663 2505 2880 
Q 2244 3097 1772 3097 
Q 1472 3097 1187 3025 
Q 903 2953 641 2809 
L 641 3341 
Q 956 3463 1253 3523 
Q 1550 3584 1831 3584 
Q 2591 3584 2966 3190 
Q 3341 2797 3341 1997 
z
" transform="scale(0.015625)"/>
      <path id="DejaVuSans-6c" d="M 603 4863 
L 1178 4863 
L 1178 0 
L 603 0 
L 603 4863 
z
" transform="scale(0.015625)"/>
      <path id="DejaVuSans-46" d="M 628 4666 
L 3309 4666 
L 3309 4134 
L 1259 4134 
L 1259 2759 
L 3109 2759 
L 3109 2228 
L 1259 2228 
L 1259 0 
L 628 0 
L 628 4666 
z
" transform="scale(0.015625)"/>
      <path id="DejaVuSans-6b" d="M 581 4863 
L 1159 4863 
L 1159 1991 
L 2875 3500 
L 3609 3500 
L 1753 1863 
L 3688 0 
L 2938 0 
L 1159 1709 
L 1159 0 
L 581 0 
L 581 4863 
z
" transform="scale(0.015625)"/>
      <path id="DejaVuSans-69" d="M 603 3500 
L 1178 3500 
L 1178 0 
L 603 0 
L 603 3500 
z
M 603 4863 
L 1178 4863 
L 1178 4134 
L 603 4134 
L 603 4863 
z
" transform="scale(0.015625)"/>
      <path id="DejaVuSans-64" d="M 2906 2969 
L 2906 4863 
L 3481 4863 
L 3481 0 
L 2906 0 
L 2906 525 
Q 2725 213 2448 61 
Q 2172 -91 1784 -91 
Q 1150 -91 751 415 
Q 353 922 353 1747 
Q 353 2572 751 3078 
Q 1150 3584 1784 3584 
Q 2172 3584 2448 3432 
Q 2725 3281 2906 2969 
z
M 947 1747 
Q 947 1113 1208 752 
Q 1469 391 1925 391 
Q 2381 391 2643 752 
Q 2906 1113 2906 1747 
Q 2906 2381 2643 2742 
Q 2381 3103 1925 3103 
Q 1469 3103 1208 2742 
Q 947 2381 947 1747 
z
" transform="scale(0.015625)"/>
      <path id="DejaVuSans-65" d="M 3597 1894 
L 3597 1613 
L 953 1613 
Q 991 1019 1311 708 
Q 1631 397 2203 397 
Q 2534 397 2845 478 
Q 3156 559 3463 722 
L 3463 178 
Q 3153 47 2828 -22 
Q 2503 -91 2169 -91 
Q 1331 -91 842 396 
Q 353 884 353 1716 
Q 353 2575 817 3079 
Q 1281 3584 2069 3584 
Q 2775 3584 3186 3129 
Q 3597 2675 3597 1894 
z
M 3022 2063 
Q 3016 2534 2758 2815 
Q 2500 3097 2075 3097 
Q 1594 3097 1305 2825 
Q 1016 2553 972 2059 
L 3022 2063 
z
" transform="scale(0.015625)"/>
      <path id="DejaVuSans-72" d="M 2631 2963 
Q 2534 3019 2420 3045 
Q 2306 3072 2169 3072 
Q 1681 3072 1420 2755 
Q 1159 2438 1159 1844 
L 1159 0 
L 581 0 
L 581 3500 
L 1159 3500 
L 1159 2956 
Q 1341 3275 1631 3429 
Q 1922 3584 2338 3584 
Q 2397 3584 2469 3576 
Q 2541 3569 2628 3553 
L 2631 2963 
z
" transform="scale(0.015625)"/>
      <path id="DejaVuSans-41" d="M 2188 4044 
L 1331 1722 
L 3047 1722 
L 2188 4044 
z
M 1831 4666 
L 2547 4666 
L 4325 0 
L 3669 0 
L 3244 1197 
L 1141 1197 
L 716 0 
L 50 0 
L 1831 4666 
z
" transform="scale(0.015625)"/>
      <path id="DejaVuSans-63" d="M 3122 3366 
L 3122 2828 
Q 2878 2963 2633 3030 
Q 2388 3097 2138 3097 
Q 1578 3097 1268 2742 
Q 959 2388 959 1747 
Q 959 1106 1268 751 
Q 1578 397 2138 397 
Q 2388 397 2633 464 
Q 2878 531 3122 666 
L 3122 134 
Q 2881 22 2623 -34 
Q 2366 -91 2075 -91 
Q 1284 -91 818 406 
Q 353 903 353 1747 
Q 353 2603 823 3093 
Q 1294 3584 2113 3584 
Q 2378 3584 2631 3529 
Q 2884 3475 3122 3366 
z
" transform="scale(0.015625)"/>
     </defs>
     <use xlink:href="#DejaVuSans-43"/>
     <use xlink:href="#DejaVuSans-6f" transform="translate(69.824219 0)"/>
     <use xlink:href="#DejaVuSans-75" transform="translate(131.005859 0)"/>
     <use xlink:href="#DejaVuSans-6e" transform="translate(194.384766 0)"/>
     <use xlink:href="#DejaVuSans-74" transform="translate(257.763672 0)"/>
     <use xlink:href="#DejaVuSans-73" transform="translate(296.972656 0)"/>
     <use xlink:href="#DejaVuSans-20" transform="translate(349.072266 0)"/>
     <use xlink:href="#DejaVuSans-61" transform="translate(380.859375 0)"/>
     <use xlink:href="#DejaVuSans-6c" transform="translate(442.138672 0)"/>
     <use xlink:href="#DejaVuSans-73" transform="translate(469.921875 0)"/>
     <use xlink:href="#DejaVuSans-20" transform="translate(522.021484 0)"/>
     <use xlink:href="#DejaVuSans-46" transform="translate(553.808594 0)"/>
     <use xlink:href="#DejaVuSans-75" transform="translate(605.828125 0)"/>
     <use xlink:href="#DejaVuSans-6e" transform="translate(669.207031 0)"/>
     <use xlink:href="#DejaVuSans-6b" transform="translate(732.585938 0)"/>
     <use xlink:href="#DejaVuSans-74" transform="translate(790.496094 0)"/>
     <use xlink:href="#DejaVuSans-69" transform="translate(829.705078 0)"/>
     <use xlink:href="#DejaVuSans-6f" transform="translate(857.488281 0)"/>
     <use xlink:href="#DejaVuSans-6e" transform="translate(918.669922 0)"/>
     <use xlink:href="#DejaVuSans-20" transform="translate(982.048828 0)"/>
     <use xlink:href="#DejaVuSans-64" transform="translate(1013.835938 0)"/>
     <use xlink:href="#DejaVuSans-65" transform="translate(1077.3125 0)"/>
     <use xlink:href="#DejaVuSans-72" transform="translate(1138.835938 0)"/>
     <use xlink:href="#DejaVuSans-20" transform="translate(1179.949219 0)"/>
     <use xlink:href="#DejaVuSans-41" transform="translate(1211.736328 0)"/>
     <use xlink:href="#DejaVuSans-6c" transform="translate(1280.144531 0)"/>
     <use xlink:href="#DejaVuSans-75" transform="translate(1307.927734 0)"/>
     <use xlink:href="#DejaVuSans-64" transform="translate(1371.306641 0)"/>
     <use xlink:href="#DejaVuSans-69" transform="translate(1434.783203 0)"/>
     <use xlink:href="#DejaVuSans-63" transform="translate(1462.566406 0)"/>
     <use xlink:href="#DejaVuSans-6b" transform="translate(1517.546875 0)"/>
     <use xlink:href="#DejaVuSans-65" transform="translate(1571.832031 0)"/>
    </g>
   </g>
   <g id="legend_1">
    <g id="patch_7">
     <path d="M 399.83125 78.914375 
L 558.2 78.914375 
Q 560.2 78.914375 560.2 76.914375 
L 560.2 33.88 
Q 560.2 31.88 558.2 31.88 
L 399.83125 31.88 
Q 397.83125 31.88 397.83125 33.88 
L 397.83125 76.914375 
Q 397.83125 78.914375 399.83125 78.914375 
z
" style="fill: #ffffff; opacity: 0.8; stroke: #cccccc; stroke-linejoin: miter"/>
    </g>
    <g id="patch_8">
     <path d="M 401.83125 43.478438 
L 421.83125 43.478438 
L 421.83125 36.478438 
L 401.83125 36.478438 
z
" style="fill: #ffa500; fill-opacity: 0.3; stroke: #ffa500; stroke-opacity: 0.3; stroke-linejoin: miter"/>
    </g>
    <g id="text_11">
     <!-- 3$\sigma$  Unsicherheitsbereich -->
     <g transform="translate(429.83125 43.478438) scale(0.1 -0.1)">
      <defs>
       <path id="DejaVuSans-33" d="M 2597 2516 
Q 3050 2419 3304 2112 
Q 3559 1806 3559 1356 
Q 3559 666 3084 287 
Q 2609 -91 1734 -91 
Q 1441 -91 1130 -33 
Q 819 25 488 141 
L 488 750 
Q 750 597 1062 519 
Q 1375 441 1716 441 
Q 2309 441 2620 675 
Q 2931 909 2931 1356 
Q 2931 1769 2642 2001 
Q 2353 2234 1838 2234 
L 1294 2234 
L 1294 2753 
L 1863 2753 
Q 2328 2753 2575 2939 
Q 2822 3125 2822 3475 
Q 2822 3834 2567 4026 
Q 2313 4219 1838 4219 
Q 1578 4219 1281 4162 
Q 984 4106 628 3988 
L 628 4550 
Q 988 4650 1302 4700 
Q 1616 4750 1894 4750 
Q 2613 4750 3031 4423 
Q 3450 4097 3450 3541 
Q 3450 3153 3228 2886 
Q 3006 2619 2597 2516 
z
" transform="scale(0.015625)"/>
       <path id="DejaVuSans-Oblique-3c3" d="M 2219 3044 
Q 1744 3044 1422 2700 
Q 1081 2341 969 1747 
Q 844 1119 1044 756 
Q 1241 397 1706 397 
Q 2166 397 2503 759 
Q 2844 1122 2966 1747 
Q 3075 2319 2881 2700 
Q 2700 3044 2219 3044 
z
M 2309 3503 
L 4219 3500 
L 4106 2925 
L 3463 2925 
Q 3706 2438 3575 1747 
Q 3406 888 2884 400 
Q 2359 -91 1609 -91 
Q 856 -91 525 400 
Q 194 888 363 1747 
Q 528 2609 1050 3097 
Q 1484 3503 2309 3503 
z
" transform="scale(0.015625)"/>
       <path id="DejaVuSans-55" d="M 556 4666 
L 1191 4666 
L 1191 1831 
Q 1191 1081 1462 751 
Q 1734 422 2344 422 
Q 2950 422 3222 751 
Q 3494 1081 3494 1831 
L 3494 4666 
L 4128 4666 
L 4128 1753 
Q 4128 841 3676 375 
Q 3225 -91 2344 -91 
Q 1459 -91 1007 375 
Q 556 841 556 1753 
L 556 4666 
z
" transform="scale(0.015625)"/>
       <path id="DejaVuSans-68" d="M 3513 2113 
L 3513 0 
L 2938 0 
L 2938 2094 
Q 2938 2591 2744 2837 
Q 2550 3084 2163 3084 
Q 1697 3084 1428 2787 
Q 1159 2491 1159 1978 
L 1159 0 
L 581 0 
L 581 4863 
L 1159 4863 
L 1159 2956 
Q 1366 3272 1645 3428 
Q 1925 3584 2291 3584 
Q 2894 3584 3203 3211 
Q 3513 2838 3513 2113 
z
" transform="scale(0.015625)"/>
       <path id="DejaVuSans-62" d="M 3116 1747 
Q 3116 2381 2855 2742 
Q 2594 3103 2138 3103 
Q 1681 3103 1420 2742 
Q 1159 2381 1159 1747 
Q 1159 1113 1420 752 
Q 1681 391 2138 391 
Q 2594 391 2855 752 
Q 3116 1113 3116 1747 
z
M 1159 2969 
Q 1341 3281 1617 3432 
Q 1894 3584 2278 3584 
Q 2916 3584 3314 3078 
Q 3713 2572 3713 1747 
Q 3713 922 3314 415 
Q 2916 -91 2278 -91 
Q 1894 -91 1617 61 
Q 1341 213 1159 525 
L 1159 0 
L 581 0 
L 581 4863 
L 1159 4863 
L 1159 2969 
z
" transform="scale(0.015625)"/>
      </defs>
      <use xlink:href="#DejaVuSans-33" transform="translate(0 0.015625)"/>
      <use xlink:href="#DejaVuSans-Oblique-3c3" transform="translate(63.623047 0.015625)"/>
      <use xlink:href="#DejaVuSans-20" transform="translate(127.001953 0.015625)"/>
      <use xlink:href="#DejaVuSans-20" transform="translate(158.789062 0.015625)"/>
      <use xlink:href="#DejaVuSans-55" transform="translate(190.576172 0.015625)"/>
      <use xlink:href="#DejaVuSans-6e" transform="translate(263.769531 0.015625)"/>
      <use xlink:href="#DejaVuSans-73" transform="translate(327.148438 0.015625)"/>
      <use xlink:href="#DejaVuSans-69" transform="translate(379.248047 0.015625)"/>
      <use xlink:href="#DejaVuSans-63" transform="translate(407.03125 0.015625)"/>
      <use xlink:href="#DejaVuSans-68" transform="translate(462.011719 0.015625)"/>
      <use xlink:href="#DejaVuSans-65" transform="translate(525.390625 0.015625)"/>
      <use xlink:href="#DejaVuSans-72" transform="translate(586.914062 0.015625)"/>
      <use xlink:href="#DejaVuSans-68" transform="translate(628.027344 0.015625)"/>
      <use xlink:href="#DejaVuSans-65" transform="translate(691.40625 0.015625)"/>
      <use xlink:href="#DejaVuSans-69" transform="translate(752.929688 0.015625)"/>
      <use xlink:href="#DejaVuSans-74" transform="translate(780.712891 0.015625)"/>
      <use xlink:href="#DejaVuSans-73" transform="translate(819.921875 0.015625)"/>
      <use xlink:href="#DejaVuSans-62" transform="translate(872.021484 0.015625)"/>
      <use xlink:href="#DejaVuSans-65" transform="translate(935.498047 0.015625)"/>
      <use xlink:href="#DejaVuSans-72" transform="translate(997.021484 0.015625)"/>
      <use xlink:href="#DejaVuSans-65" transform="translate(1038.134766 0.015625)"/>
      <use xlink:href="#DejaVuSans-69" transform="translate(1099.658203 0.015625)"/>
      <use xlink:href="#DejaVuSans-63" transform="translate(1127.441406 0.015625)"/>
      <use xlink:href="#DejaVuSans-68" transform="translate(1182.421875 0.015625)"/>
     </g>
    </g>
    <g id="line2d_36">
     <path d="M 401.83125 54.656563 
L 411.83125 54.656563 
L 421.83125 54.656563 
" style="fill: none; stroke: #ffa500; stroke-width: 1.5; stroke-linecap: square"/>
    </g>
    <g id="text_12">
     <!-- Exponentielle Anpassung -->
     <g transform="translate(429.83125 58.156563) scale(0.1 -0.1)">
      <defs>
       <path id="DejaVuSans-45" d="M 628 4666 
L 3578 4666 
L 3578 4134 
L 1259 4134 
L 1259 2753 
L 3481 2753 
L 3481 2222 
L 1259 2222 
L 1259 531 
L 3634 531 
L 3634 0 
L 628 0 
L 628 4666 
z
" transform="scale(0.015625)"/>
       <path id="DejaVuSans-78" d="M 3513 3500 
L 2247 1797 
L 3578 0 
L 2900 0 
L 1881 1375 
L 863 0 
L 184 0 
L 1544 1831 
L 300 3500 
L 978 3500 
L 1906 2253 
L 2834 3500 
L 3513 3500 
z
" transform="scale(0.015625)"/>
       <path id="DejaVuSans-70" d="M 1159 525 
L 1159 -1331 
L 581 -1331 
L 581 3500 
L 1159 3500 
L 1159 2969 
Q 1341 3281 1617 3432 
Q 1894 3584 2278 3584 
Q 2916 3584 3314 3078 
Q 3713 2572 3713 1747 
Q 3713 922 3314 415 
Q 2916 -91 2278 -91 
Q 1894 -91 1617 61 
Q 1341 213 1159 525 
z
M 3116 1747 
Q 3116 2381 2855 2742 
Q 2594 3103 2138 3103 
Q 1681 3103 1420 2742 
Q 1159 2381 1159 1747 
Q 1159 1113 1420 752 
Q 1681 391 2138 391 
Q 2594 391 2855 752 
Q 3116 1113 3116 1747 
z
" transform="scale(0.015625)"/>
       <path id="DejaVuSans-67" d="M 2906 1791 
Q 2906 2416 2648 2759 
Q 2391 3103 1925 3103 
Q 1463 3103 1205 2759 
Q 947 2416 947 1791 
Q 947 1169 1205 825 
Q 1463 481 1925 481 
Q 2391 481 2648 825 
Q 2906 1169 2906 1791 
z
M 3481 434 
Q 3481 -459 3084 -895 
Q 2688 -1331 1869 -1331 
Q 1566 -1331 1297 -1286 
Q 1028 -1241 775 -1147 
L 775 -588 
Q 1028 -725 1275 -790 
Q 1522 -856 1778 -856 
Q 2344 -856 2625 -561 
Q 2906 -266 2906 331 
L 2906 616 
Q 2728 306 2450 153 
Q 2172 0 1784 0 
Q 1141 0 747 490 
Q 353 981 353 1791 
Q 353 2603 747 3093 
Q 1141 3584 1784 3584 
Q 2172 3584 2450 3431 
Q 2728 3278 2906 2969 
L 2906 3500 
L 3481 3500 
L 3481 434 
z
" transform="scale(0.015625)"/>
      </defs>
      <use xlink:href="#DejaVuSans-45"/>
      <use xlink:href="#DejaVuSans-78" transform="translate(63.183594 0)"/>
      <use xlink:href="#DejaVuSans-70" transform="translate(122.363281 0)"/>
      <use xlink:href="#DejaVuSans-6f" transform="translate(185.839844 0)"/>
      <use xlink:href="#DejaVuSans-6e" transform="translate(247.021484 0)"/>
      <use xlink:href="#DejaVuSans-65" transform="translate(310.400391 0)"/>
      <use xlink:href="#DejaVuSans-6e" transform="translate(371.923828 0)"/>
      <use xlink:href="#DejaVuSans-74" transform="translate(435.302734 0)"/>
      <use xlink:href="#DejaVuSans-69" transform="translate(474.511719 0)"/>
      <use xlink:href="#DejaVuSans-65" transform="translate(502.294922 0)"/>
      <use xlink:href="#DejaVuSans-6c" transform="translate(563.818359 0)"/>
      <use xlink:href="#DejaVuSans-6c" transform="translate(591.601562 0)"/>
      <use xlink:href="#DejaVuSans-65" transform="translate(619.384766 0)"/>
      <use xlink:href="#DejaVuSans-20" transform="translate(680.908203 0)"/>
      <use xlink:href="#DejaVuSans-41" transform="translate(712.695312 0)"/>
      <use xlink:href="#DejaVuSans-6e" transform="translate(781.103516 0)"/>
      <use xlink:href="#DejaVuSans-70" transform="translate(844.482422 0)"/>
      <use xlink:href="#DejaVuSans-61" transform="translate(907.958984 0)"/>
      <use xlink:href="#DejaVuSans-73" transform="translate(969.238281 0)"/>
      <use xlink:href="#DejaVuSans-73" transform="translate(1021.337891 0)"/>
      <use xlink:href="#DejaVuSans-75" transform="translate(1073.4375 0)"/>
      <use xlink:href="#DejaVuSans-6e" transform="translate(1136.816406 0)"/>
      <use xlink:href="#DejaVuSans-67" transform="translate(1200.195312 0)"/>
     </g>
    </g>
    <g id="LineCollection_2">
     <path d="M 411.83125 74.334688 
L 411.83125 64.334688 
" style="fill: none; stroke: #1f77b4; stroke-width: 1.5"/>
    </g>
    <g id="line2d_37"/>
    <g id="line2d_38">
     <g>
      <use xlink:href="#m399b716756" x="411.83125" y="69.334688" style="fill: #1f77b4; stroke: #1f77b4"/>
     </g>
    </g>
    <g id="text_13">
     <!-- Daten mit Fehlern -->
     <g transform="translate(429.83125 72.834688) scale(0.1 -0.1)">
      <defs>
       <path id="DejaVuSans-44" d="M 1259 4147 
L 1259 519 
L 2022 519 
Q 2988 519 3436 956 
Q 3884 1394 3884 2338 
Q 3884 3275 3436 3711 
Q 2988 4147 2022 4147 
L 1259 4147 
z
M 628 4666 
L 1925 4666 
Q 3281 4666 3915 4102 
Q 4550 3538 4550 2338 
Q 4550 1131 3912 565 
Q 3275 0 1925 0 
L 628 0 
L 628 4666 
z
" transform="scale(0.015625)"/>
       <path id="DejaVuSans-6d" d="M 3328 2828 
Q 3544 3216 3844 3400 
Q 4144 3584 4550 3584 
Q 5097 3584 5394 3201 
Q 5691 2819 5691 2113 
L 5691 0 
L 5113 0 
L 5113 2094 
Q 5113 2597 4934 2840 
Q 4756 3084 4391 3084 
Q 3944 3084 3684 2787 
Q 3425 2491 3425 1978 
L 3425 0 
L 2847 0 
L 2847 2094 
Q 2847 2600 2669 2842 
Q 2491 3084 2119 3084 
Q 1678 3084 1418 2786 
Q 1159 2488 1159 1978 
L 1159 0 
L 581 0 
L 581 3500 
L 1159 3500 
L 1159 2956 
Q 1356 3278 1631 3431 
Q 1906 3584 2284 3584 
Q 2666 3584 2933 3390 
Q 3200 3197 3328 2828 
z
" transform="scale(0.015625)"/>
      </defs>
      <use xlink:href="#DejaVuSans-44"/>
      <use xlink:href="#DejaVuSans-61" transform="translate(77.001953 0)"/>
      <use xlink:href="#DejaVuSans-74" transform="translate(138.28125 0)"/>
      <use xlink:href="#DejaVuSans-65" transform="translate(177.490234 0)"/>
      <use xlink:href="#DejaVuSans-6e" transform="translate(239.013672 0)"/>
      <use xlink:href="#DejaVuSans-20" transform="translate(302.392578 0)"/>
      <use xlink:href="#DejaVuSans-6d" transform="translate(334.179688 0)"/>
      <use xlink:href="#DejaVuSans-69" transform="translate(431.591797 0)"/>
      <use xlink:href="#DejaVuSans-74" transform="translate(459.375 0)"/>
      <use xlink:href="#DejaVuSans-20" transform="translate(498.583984 0)"/>
      <use xlink:href="#DejaVuSans-46" transform="translate(530.371094 0)"/>
      <use xlink:href="#DejaVuSans-65" transform="translate(582.390625 0)"/>
      <use xlink:href="#DejaVuSans-68" transform="translate(643.914062 0)"/>
      <use xlink:href="#DejaVuSans-6c" transform="translate(707.292969 0)"/>
      <use xlink:href="#DejaVuSans-65" transform="translate(735.076172 0)"/>
      <use xlink:href="#DejaVuSans-72" transform="translate(796.599609 0)"/>
      <use xlink:href="#DejaVuSans-6e" transform="translate(835.962891 0)"/>
     </g>
    </g>
   </g>
  </g>
  <g id="axes_2">
   <g id="patch_9">
    <path d="M 57.17 426.04 
L 565.2 426.04 
L 565.2 330.259315 
L 57.17 330.259315 
z
" style="fill: #ffffff"/>
   </g>
   <g id="matplotlib.axis_3">
    <g id="xtick_9">
     <g id="line2d_39">
      <path d="M 76.222808 426.04 
L 76.222808 330.259315 
" clip-path="url(#pb7e471fbf4)" style="fill: none; stroke: #b0b0b0; stroke-width: 0.8; stroke-linecap: square"/>
     </g>
     <g id="line2d_40">
      <g>
       <use xlink:href="#m5b83f01661" x="76.222808" y="426.04" style="stroke: #000000; stroke-width: 0.8"/>
      </g>
     </g>
     <g id="text_14">
      <!-- 0.0 -->
      <g transform="translate(68.271246 440.638438) scale(0.1 -0.1)">
       <defs>
        <path id="DejaVuSans-2e" d="M 684 794 
L 1344 794 
L 1344 0 
L 684 0 
L 684 794 
z
" transform="scale(0.015625)"/>
       </defs>
       <use xlink:href="#DejaVuSans-30"/>
       <use xlink:href="#DejaVuSans-2e" transform="translate(63.623047 0)"/>
       <use xlink:href="#DejaVuSans-30" transform="translate(95.410156 0)"/>
      </g>
     </g>
    </g>
    <g id="xtick_10">
     <g id="line2d_41">
      <path d="M 143.547218 426.04 
L 143.547218 330.259315 
" clip-path="url(#pb7e471fbf4)" style="fill: none; stroke: #b0b0b0; stroke-width: 0.8; stroke-linecap: square"/>
     </g>
     <g id="line2d_42">
      <g>
       <use xlink:href="#m5b83f01661" x="143.547218" y="426.04" style="stroke: #000000; stroke-width: 0.8"/>
      </g>
     </g>
     <g id="text_15">
      <!-- 0.5 -->
      <g transform="translate(135.595656 440.638438) scale(0.1 -0.1)">
       <defs>
        <path id="DejaVuSans-35" d="M 691 4666 
L 3169 4666 
L 3169 4134 
L 1269 4134 
L 1269 2991 
Q 1406 3038 1543 3061 
Q 1681 3084 1819 3084 
Q 2600 3084 3056 2656 
Q 3513 2228 3513 1497 
Q 3513 744 3044 326 
Q 2575 -91 1722 -91 
Q 1428 -91 1123 -41 
Q 819 9 494 109 
L 494 744 
Q 775 591 1075 516 
Q 1375 441 1709 441 
Q 2250 441 2565 725 
Q 2881 1009 2881 1497 
Q 2881 1984 2565 2268 
Q 2250 2553 1709 2553 
Q 1456 2553 1204 2497 
Q 953 2441 691 2322 
L 691 4666 
z
" transform="scale(0.015625)"/>
       </defs>
       <use xlink:href="#DejaVuSans-30"/>
       <use xlink:href="#DejaVuSans-2e" transform="translate(63.623047 0)"/>
       <use xlink:href="#DejaVuSans-35" transform="translate(95.410156 0)"/>
      </g>
     </g>
    </g>
    <g id="xtick_11">
     <g id="line2d_43">
      <path d="M 210.871629 426.04 
L 210.871629 330.259315 
" clip-path="url(#pb7e471fbf4)" style="fill: none; stroke: #b0b0b0; stroke-width: 0.8; stroke-linecap: square"/>
     </g>
     <g id="line2d_44">
      <g>
       <use xlink:href="#m5b83f01661" x="210.871629" y="426.04" style="stroke: #000000; stroke-width: 0.8"/>
      </g>
     </g>
     <g id="text_16">
      <!-- 1.0 -->
      <g transform="translate(202.920066 440.638438) scale(0.1 -0.1)">
       <use xlink:href="#DejaVuSans-31"/>
       <use xlink:href="#DejaVuSans-2e" transform="translate(63.623047 0)"/>
       <use xlink:href="#DejaVuSans-30" transform="translate(95.410156 0)"/>
      </g>
     </g>
    </g>
    <g id="xtick_12">
     <g id="line2d_45">
      <path d="M 278.196039 426.04 
L 278.196039 330.259315 
" clip-path="url(#pb7e471fbf4)" style="fill: none; stroke: #b0b0b0; stroke-width: 0.8; stroke-linecap: square"/>
     </g>
     <g id="line2d_46">
      <g>
       <use xlink:href="#m5b83f01661" x="278.196039" y="426.04" style="stroke: #000000; stroke-width: 0.8"/>
      </g>
     </g>
     <g id="text_17">
      <!-- 1.5 -->
      <g transform="translate(270.244476 440.638438) scale(0.1 -0.1)">
       <use xlink:href="#DejaVuSans-31"/>
       <use xlink:href="#DejaVuSans-2e" transform="translate(63.623047 0)"/>
       <use xlink:href="#DejaVuSans-35" transform="translate(95.410156 0)"/>
      </g>
     </g>
    </g>
    <g id="xtick_13">
     <g id="line2d_47">
      <path d="M 345.520449 426.04 
L 345.520449 330.259315 
" clip-path="url(#pb7e471fbf4)" style="fill: none; stroke: #b0b0b0; stroke-width: 0.8; stroke-linecap: square"/>
     </g>
     <g id="line2d_48">
      <g>
       <use xlink:href="#m5b83f01661" x="345.520449" y="426.04" style="stroke: #000000; stroke-width: 0.8"/>
      </g>
     </g>
     <g id="text_18">
      <!-- 2.0 -->
      <g transform="translate(337.568887 440.638438) scale(0.1 -0.1)">
       <use xlink:href="#DejaVuSans-32"/>
       <use xlink:href="#DejaVuSans-2e" transform="translate(63.623047 0)"/>
       <use xlink:href="#DejaVuSans-30" transform="translate(95.410156 0)"/>
      </g>
     </g>
    </g>
    <g id="xtick_14">
     <g id="line2d_49">
      <path d="M 412.84486 426.04 
L 412.84486 330.259315 
" clip-path="url(#pb7e471fbf4)" style="fill: none; stroke: #b0b0b0; stroke-width: 0.8; stroke-linecap: square"/>
     </g>
     <g id="line2d_50">
      <g>
       <use xlink:href="#m5b83f01661" x="412.84486" y="426.04" style="stroke: #000000; stroke-width: 0.8"/>
      </g>
     </g>
     <g id="text_19">
      <!-- 2.5 -->
      <g transform="translate(404.893297 440.638438) scale(0.1 -0.1)">
       <use xlink:href="#DejaVuSans-32"/>
       <use xlink:href="#DejaVuSans-2e" transform="translate(63.623047 0)"/>
       <use xlink:href="#DejaVuSans-35" transform="translate(95.410156 0)"/>
      </g>
     </g>
    </g>
    <g id="xtick_15">
     <g id="line2d_51">
      <path d="M 480.16927 426.04 
L 480.16927 330.259315 
" clip-path="url(#pb7e471fbf4)" style="fill: none; stroke: #b0b0b0; stroke-width: 0.8; stroke-linecap: square"/>
     </g>
     <g id="line2d_52">
      <g>
       <use xlink:href="#m5b83f01661" x="480.16927" y="426.04" style="stroke: #000000; stroke-width: 0.8"/>
      </g>
     </g>
     <g id="text_20">
      <!-- 3.0 -->
      <g transform="translate(472.217707 440.638438) scale(0.1 -0.1)">
       <use xlink:href="#DejaVuSans-33"/>
       <use xlink:href="#DejaVuSans-2e" transform="translate(63.623047 0)"/>
       <use xlink:href="#DejaVuSans-30" transform="translate(95.410156 0)"/>
      </g>
     </g>
    </g>
    <g id="xtick_16">
     <g id="line2d_53">
      <path d="M 547.49368 426.04 
L 547.49368 330.259315 
" clip-path="url(#pb7e471fbf4)" style="fill: none; stroke: #b0b0b0; stroke-width: 0.8; stroke-linecap: square"/>
     </g>
     <g id="line2d_54">
      <g>
       <use xlink:href="#m5b83f01661" x="547.49368" y="426.04" style="stroke: #000000; stroke-width: 0.8"/>
      </g>
     </g>
     <g id="text_21">
      <!-- 3.5 -->
      <g transform="translate(539.542118 440.638438) scale(0.1 -0.1)">
       <use xlink:href="#DejaVuSans-33"/>
       <use xlink:href="#DejaVuSans-2e" transform="translate(63.623047 0)"/>
       <use xlink:href="#DejaVuSans-35" transform="translate(95.410156 0)"/>
      </g>
     </g>
    </g>
    <g id="text_22">
     <!-- Aludicke [mm] -->
     <g transform="translate(274.8725 454.316563) scale(0.1 -0.1)">
      <use xlink:href="#DejaVuSans-41"/>
      <use xlink:href="#DejaVuSans-6c" transform="translate(68.408203 0)"/>
      <use xlink:href="#DejaVuSans-75" transform="translate(96.191406 0)"/>
      <use xlink:href="#DejaVuSans-64" transform="translate(159.570312 0)"/>
      <use xlink:href="#DejaVuSans-69" transform="translate(223.046875 0)"/>
      <use xlink:href="#DejaVuSans-63" transform="translate(250.830078 0)"/>
      <use xlink:href="#DejaVuSans-6b" transform="translate(305.810547 0)"/>
      <use xlink:href="#DejaVuSans-65" transform="translate(360.095703 0)"/>
      <use xlink:href="#DejaVuSans-20" transform="translate(421.619141 0)"/>
      <use xlink:href="#DejaVuSans-5b" transform="translate(453.40625 0)"/>
      <use xlink:href="#DejaVuSans-6d" transform="translate(492.419922 0)"/>
      <use xlink:href="#DejaVuSans-6d" transform="translate(589.832031 0)"/>
      <use xlink:href="#DejaVuSans-5d" transform="translate(687.244141 0)"/>
     </g>
    </g>
   </g>
   <g id="matplotlib.axis_4">
    <g id="ytick_9">
     <g id="line2d_55">
      <path d="M 57.17 412.632039 
L 565.2 412.632039 
" clip-path="url(#pb7e471fbf4)" style="fill: none; stroke: #b0b0b0; stroke-width: 0.8; stroke-linecap: square"/>
     </g>
     <g id="line2d_56">
      <g>
       <use xlink:href="#m96801e41c0" x="57.17" y="412.632039" style="stroke: #000000; stroke-width: 0.8"/>
      </g>
     </g>
     <g id="text_23">
      <!-- −50 -->
      <g transform="translate(29.065313 416.431258) scale(0.1 -0.1)">
       <defs>
        <path id="DejaVuSans-2212" d="M 678 2272 
L 4684 2272 
L 4684 1741 
L 678 1741 
L 678 2272 
z
" transform="scale(0.015625)"/>
       </defs>
       <use xlink:href="#DejaVuSans-2212"/>
       <use xlink:href="#DejaVuSans-35" transform="translate(83.789062 0)"/>
       <use xlink:href="#DejaVuSans-30" transform="translate(147.412109 0)"/>
      </g>
     </g>
    </g>
    <g id="ytick_10">
     <g id="line2d_57">
      <path d="M 57.17 386.04095 
L 565.2 386.04095 
" clip-path="url(#pb7e471fbf4)" style="fill: none; stroke: #b0b0b0; stroke-width: 0.8; stroke-linecap: square"/>
     </g>
     <g id="line2d_58">
      <g>
       <use xlink:href="#m96801e41c0" x="57.17" y="386.04095" style="stroke: #000000; stroke-width: 0.8"/>
      </g>
     </g>
     <g id="text_24">
      <!-- 0 -->
      <g transform="translate(43.8075 389.840169) scale(0.1 -0.1)">
       <use xlink:href="#DejaVuSans-30"/>
      </g>
     </g>
    </g>
    <g id="ytick_11">
     <g id="line2d_59">
      <path d="M 57.17 359.449862 
L 565.2 359.449862 
" clip-path="url(#pb7e471fbf4)" style="fill: none; stroke: #b0b0b0; stroke-width: 0.8; stroke-linecap: square"/>
     </g>
     <g id="line2d_60">
      <g>
       <use xlink:href="#m96801e41c0" x="57.17" y="359.449862" style="stroke: #000000; stroke-width: 0.8"/>
      </g>
     </g>
     <g id="text_25">
      <!-- 50 -->
      <g transform="translate(37.445 363.24908) scale(0.1 -0.1)">
       <use xlink:href="#DejaVuSans-35"/>
       <use xlink:href="#DejaVuSans-30" transform="translate(63.623047 0)"/>
      </g>
     </g>
    </g>
    <g id="ytick_12">
     <g id="line2d_61">
      <path d="M 57.17 332.858773 
L 565.2 332.858773 
" clip-path="url(#pb7e471fbf4)" style="fill: none; stroke: #b0b0b0; stroke-width: 0.8; stroke-linecap: square"/>
     </g>
     <g id="line2d_62">
      <g>
       <use xlink:href="#m96801e41c0" x="57.17" y="332.858773" style="stroke: #000000; stroke-width: 0.8"/>
      </g>
     </g>
     <g id="text_26">
      <!-- 100 -->
      <g transform="translate(31.0825 336.657992) scale(0.1 -0.1)">
       <use xlink:href="#DejaVuSans-31"/>
       <use xlink:href="#DejaVuSans-30" transform="translate(63.623047 0)"/>
       <use xlink:href="#DejaVuSans-30" transform="translate(127.246094 0)"/>
      </g>
     </g>
    </g>
    <g id="text_27">
     <!-- Residuen [Hz] -->
     <g transform="translate(22.985625 412.93247) rotate(-90) scale(0.1 -0.1)">
      <defs>
       <path id="DejaVuSans-52" d="M 2841 2188 
Q 3044 2119 3236 1894 
Q 3428 1669 3622 1275 
L 4263 0 
L 3584 0 
L 2988 1197 
Q 2756 1666 2539 1819 
Q 2322 1972 1947 1972 
L 1259 1972 
L 1259 0 
L 628 0 
L 628 4666 
L 2053 4666 
Q 2853 4666 3247 4331 
Q 3641 3997 3641 3322 
Q 3641 2881 3436 2590 
Q 3231 2300 2841 2188 
z
M 1259 4147 
L 1259 2491 
L 2053 2491 
Q 2509 2491 2742 2702 
Q 2975 2913 2975 3322 
Q 2975 3731 2742 3939 
Q 2509 4147 2053 4147 
L 1259 4147 
z
" transform="scale(0.015625)"/>
      </defs>
      <use xlink:href="#DejaVuSans-52"/>
      <use xlink:href="#DejaVuSans-65" transform="translate(64.982422 0)"/>
      <use xlink:href="#DejaVuSans-73" transform="translate(126.505859 0)"/>
      <use xlink:href="#DejaVuSans-69" transform="translate(178.605469 0)"/>
      <use xlink:href="#DejaVuSans-64" transform="translate(206.388672 0)"/>
      <use xlink:href="#DejaVuSans-75" transform="translate(269.865234 0)"/>
      <use xlink:href="#DejaVuSans-65" transform="translate(333.244141 0)"/>
      <use xlink:href="#DejaVuSans-6e" transform="translate(394.767578 0)"/>
      <use xlink:href="#DejaVuSans-20" transform="translate(458.146484 0)"/>
      <use xlink:href="#DejaVuSans-5b" transform="translate(489.933594 0)"/>
      <use xlink:href="#DejaVuSans-48" transform="translate(528.947266 0)"/>
      <use xlink:href="#DejaVuSans-7a" transform="translate(604.142578 0)"/>
      <use xlink:href="#DejaVuSans-5d" transform="translate(656.632812 0)"/>
     </g>
    </g>
   </g>
   <g id="LineCollection_3">
    <path d="M 80.262273 413.742811 
L 80.262273 392.715642 
" clip-path="url(#pb7e471fbf4)" style="fill: none; stroke: #ff0000; stroke-width: 1.5"/>
    <path d="M 82.955249 421.686332 
L 82.955249 401.194816 
" clip-path="url(#pb7e471fbf4)" style="fill: none; stroke: #ff0000; stroke-width: 1.5"/>
    <path d="M 89.68769 415.381931 
L 89.68769 395.83184 
" clip-path="url(#pb7e471fbf4)" style="fill: none; stroke: #ff0000; stroke-width: 1.5"/>
    <path d="M 109.885013 362.171421 
L 109.885013 344.543867 
" clip-path="url(#pb7e471fbf4)" style="fill: none; stroke: #ff0000; stroke-width: 1.5"/>
    <path d="M 143.547218 348.876914 
L 143.547218 334.612982 
" clip-path="url(#pb7e471fbf4)" style="fill: none; stroke: #ff0000; stroke-width: 1.5"/>
    <path d="M 187.981329 369.462769 
L 187.981329 359.181615 
" clip-path="url(#pb7e471fbf4)" style="fill: none; stroke: #ff0000; stroke-width: 1.5"/>
    <path d="M 241.840857 395.818478 
L 241.840857 389.536675 
" clip-path="url(#pb7e471fbf4)" style="fill: none; stroke: #ff0000; stroke-width: 1.5"/>
    <path d="M 287.621456 398.157324 
L 287.621456 393.998975 
" clip-path="url(#pb7e471fbf4)" style="fill: none; stroke: #ff0000; stroke-width: 1.5"/>
    <path d="M 384.568607 391.74856 
L 384.568607 389.64146 
" clip-path="url(#pb7e471fbf4)" style="fill: none; stroke: #ff0000; stroke-width: 1.5"/>
    <path d="M 542.107727 384.95323 
L 542.107727 383.013883 
" clip-path="url(#pb7e471fbf4)" style="fill: none; stroke: #ff0000; stroke-width: 1.5"/>
   </g>
   <g id="line2d_63">
    <path d="M 57.17 386.04095 
L 565.2 386.04095 
" clip-path="url(#pb7e471fbf4)" style="fill: none; stroke-dasharray: 5.55,2.4; stroke-dashoffset: 0; stroke: #000000; stroke-width: 1.5"/>
   </g>
   <g id="line2d_64">
    <defs>
     <path id="m70f85e49c0" d="M 0 3 
C 0.795609 3 1.55874 2.683901 2.12132 2.12132 
C 2.683901 1.55874 3 0.795609 3 0 
C 3 -0.795609 2.683901 -1.55874 2.12132 -2.12132 
C 1.55874 -2.683901 0.795609 -3 0 -3 
C -0.795609 -3 -1.55874 -2.683901 -2.12132 -2.12132 
C -2.683901 -1.55874 -3 -0.795609 -3 0 
C -3 0.795609 -2.683901 1.55874 -2.12132 2.12132 
C -1.55874 2.683901 -0.795609 3 0 3 
z
" style="stroke: #ff0000"/>
    </defs>
    <g clip-path="url(#pb7e471fbf4)">
     <use xlink:href="#m70f85e49c0" x="80.262273" y="403.229226" style="fill: #ff0000; stroke: #ff0000"/>
     <use xlink:href="#m70f85e49c0" x="82.955249" y="411.440574" style="fill: #ff0000; stroke: #ff0000"/>
     <use xlink:href="#m70f85e49c0" x="89.68769" y="405.606886" style="fill: #ff0000; stroke: #ff0000"/>
     <use xlink:href="#m70f85e49c0" x="109.885013" y="353.357644" style="fill: #ff0000; stroke: #ff0000"/>
     <use xlink:href="#m70f85e49c0" x="143.547218" y="341.744948" style="fill: #ff0000; stroke: #ff0000"/>
     <use xlink:href="#m70f85e49c0" x="187.981329" y="364.322192" style="fill: #ff0000; stroke: #ff0000"/>
     <use xlink:href="#m70f85e49c0" x="241.840857" y="392.677577" style="fill: #ff0000; stroke: #ff0000"/>
     <use xlink:href="#m70f85e49c0" x="287.621456" y="396.07815" style="fill: #ff0000; stroke: #ff0000"/>
     <use xlink:href="#m70f85e49c0" x="384.568607" y="390.69501" style="fill: #ff0000; stroke: #ff0000"/>
     <use xlink:href="#m70f85e49c0" x="542.107727" y="383.983557" style="fill: #ff0000; stroke: #ff0000"/>
    </g>
   </g>
   <g id="patch_10">
    <path d="M 57.17 426.04 
L 57.17 330.259315 
" style="fill: none; stroke: #000000; stroke-width: 0.8; stroke-linejoin: miter; stroke-linecap: square"/>
   </g>
   <g id="patch_11">
    <path d="M 565.2 426.04 
L 565.2 330.259315 
" style="fill: none; stroke: #000000; stroke-width: 0.8; stroke-linejoin: miter; stroke-linecap: square"/>
   </g>
   <g id="patch_12">
    <path d="M 57.17 426.04 
L 565.2 426.04 
" style="fill: none; stroke: #000000; stroke-width: 0.8; stroke-linejoin: miter; stroke-linecap: square"/>
   </g>
   <g id="patch_13">
    <path d="M 57.17 330.259315 
L 565.2 330.259315 
" style="fill: none; stroke: #000000; stroke-width: 0.8; stroke-linejoin: miter; stroke-linecap: square"/>
   </g>
   <g id="legend_2">
    <g id="patch_14">
     <path d="M 402.3 354.459315 
L 558.2 354.459315 
Q 560.2 354.459315 560.2 352.459315 
L 560.2 337.259315 
Q 560.2 335.259315 558.2 335.259315 
L 402.3 335.259315 
Q 400.3 335.259315 400.3 337.259315 
L 400.3 352.459315 
Q 400.3 354.459315 402.3 354.459315 
z
" style="fill: #ffffff; opacity: 0.8; stroke: #cccccc; stroke-linejoin: miter"/>
    </g>
    <g id="LineCollection_4">
     <path d="M 414.3 349.859315 
L 414.3 339.859315 
" style="fill: none; stroke: #ff0000; stroke-width: 1.5"/>
    </g>
    <g id="line2d_65"/>
    <g id="line2d_66">
     <g>
      <use xlink:href="#m70f85e49c0" x="414.3" y="344.859315" style="fill: #ff0000; stroke: #ff0000"/>
     </g>
    </g>
    <g id="text_28">
     <!-- Residuen ($\chi^2$ = 2156.59) -->
     <g transform="translate(432.3 348.359315) scale(0.1 -0.1)">
      <defs>
       <path id="DejaVuSans-28" d="M 1984 4856 
Q 1566 4138 1362 3434 
Q 1159 2731 1159 2009 
Q 1159 1288 1364 580 
Q 1569 -128 1984 -844 
L 1484 -844 
Q 1016 -109 783 600 
Q 550 1309 550 2009 
Q 550 2706 781 3412 
Q 1013 4119 1484 4856 
L 1984 4856 
z
" transform="scale(0.015625)"/>
       <path id="DejaVuSans-Oblique-3c7" d="M 1922 -781 
L 1691 416 
L 394 -1334 
L -284 -1334 
L 1553 1141 
L 1269 2613 
Q 1194 3006 713 3006 
L 559 3006 
L 653 3500 
L 872 3494 
Q 1675 3472 1775 2950 
L 2006 1753 
L 3303 3503 
L 3981 3503 
L 2144 1028 
L 2428 -444 
Q 2503 -838 2984 -838 
L 3138 -838 
L 3044 -1331 
L 2825 -1325 
Q 2022 -1303 1922 -781 
z
" transform="scale(0.015625)"/>
       <path id="DejaVuSans-3d" d="M 678 2906 
L 4684 2906 
L 4684 2381 
L 678 2381 
L 678 2906 
z
M 678 1631 
L 4684 1631 
L 4684 1100 
L 678 1100 
L 678 1631 
z
" transform="scale(0.015625)"/>
       <path id="DejaVuSans-39" d="M 703 97 
L 703 672 
Q 941 559 1184 500 
Q 1428 441 1663 441 
Q 2288 441 2617 861 
Q 2947 1281 2994 2138 
Q 2813 1869 2534 1725 
Q 2256 1581 1919 1581 
Q 1219 1581 811 2004 
Q 403 2428 403 3163 
Q 403 3881 828 4315 
Q 1253 4750 1959 4750 
Q 2769 4750 3195 4129 
Q 3622 3509 3622 2328 
Q 3622 1225 3098 567 
Q 2575 -91 1691 -91 
Q 1453 -91 1209 -44 
Q 966 3 703 97 
z
M 1959 2075 
Q 2384 2075 2632 2365 
Q 2881 2656 2881 3163 
Q 2881 3666 2632 3958 
Q 2384 4250 1959 4250 
Q 1534 4250 1286 3958 
Q 1038 3666 1038 3163 
Q 1038 2656 1286 2365 
Q 1534 2075 1959 2075 
z
" transform="scale(0.015625)"/>
       <path id="DejaVuSans-29" d="M 513 4856 
L 1013 4856 
Q 1481 4119 1714 3412 
Q 1947 2706 1947 2009 
Q 1947 1309 1714 600 
Q 1481 -109 1013 -844 
L 513 -844 
Q 928 -128 1133 580 
Q 1338 1288 1338 2009 
Q 1338 2731 1133 3434 
Q 928 4138 513 4856 
z
" transform="scale(0.015625)"/>
      </defs>
      <use xlink:href="#DejaVuSans-52" transform="translate(0 0.765625)"/>
      <use xlink:href="#DejaVuSans-65" transform="translate(69.482422 0.765625)"/>
      <use xlink:href="#DejaVuSans-73" transform="translate(131.005859 0.765625)"/>
      <use xlink:href="#DejaVuSans-69" transform="translate(183.105469 0.765625)"/>
      <use xlink:href="#DejaVuSans-64" transform="translate(210.888672 0.765625)"/>
      <use xlink:href="#DejaVuSans-75" transform="translate(274.365234 0.765625)"/>
      <use xlink:href="#DejaVuSans-65" transform="translate(337.744141 0.765625)"/>
      <use xlink:href="#DejaVuSans-6e" transform="translate(399.267578 0.765625)"/>
      <use xlink:href="#DejaVuSans-20" transform="translate(462.646484 0.765625)"/>
      <use xlink:href="#DejaVuSans-28" transform="translate(494.433594 0.765625)"/>
      <use xlink:href="#DejaVuSans-Oblique-3c7" transform="translate(533.447266 0.765625)"/>
      <use xlink:href="#DejaVuSans-32" transform="translate(597.099661 39.046875) scale(0.7)"/>
      <use xlink:href="#DejaVuSans-20" transform="translate(644.370169 0.765625)"/>
      <use xlink:href="#DejaVuSans-3d" transform="translate(676.157279 0.765625)"/>
      <use xlink:href="#DejaVuSans-20" transform="translate(759.946341 0.765625)"/>
      <use xlink:href="#DejaVuSans-32" transform="translate(791.733451 0.765625)"/>
      <use xlink:href="#DejaVuSans-31" transform="translate(855.356497 0.765625)"/>
      <use xlink:href="#DejaVuSans-35" transform="translate(918.979544 0.765625)"/>
      <use xlink:href="#DejaVuSans-36" transform="translate(982.602591 0.765625)"/>
      <use xlink:href="#DejaVuSans-2e" transform="translate(1046.225638 0.765625)"/>
      <use xlink:href="#DejaVuSans-35" transform="translate(1078.012747 0.765625)"/>
      <use xlink:href="#DejaVuSans-39" transform="translate(1136.135794 0.765625)"/>
      <use xlink:href="#DejaVuSans-29" transform="translate(1199.758841 0.765625)"/>
     </g>
    </g>
   </g>
  </g>
 </g>
 <defs>
  <clipPath id="pe988d4e408">
   <rect x="57.17" y="26.88" width="508.03" height="287.342055"/>
  </clipPath>
  <clipPath id="pb7e471fbf4">
   <rect x="57.17" y="330.259315" width="508.03" height="95.780685"/>
  </clipPath>
 </defs>
</svg>
