
<!DOCTYPE svg PUBLIC "-//W3C//DTD SVG 1.1//EN" "http://www.w3.org/Graphics/SVG/1.1/DTD/svg11.dtd">
<svg xmlns:xlink="http://www.w3.org/1999/xlink" width="576pt" height="468pt" viewBox="0 0 576 468" xmlns="http://www.w3.org/2000/svg" version="1.1">
 <metadata>
  <rdf:RDF xmlns:dc="http://purl.org/dc/elements/1.1/" xmlns:cc="http://creativecommons.org/ns#" xmlns:rdf="http://www.w3.org/1999/02/22-rdf-syntax-ns#">
   <cc:Work>
    <dc:type rdf:resource="http://purl.org/dc/dcmitype/StillImage"/>
    <dc:date>2026-03-14T12:54:48.998802</dc:date>
    <dc:format>image/svg+xml</dc:format>
    <dc:creator>
     <cc:Agent>
      <dc:title>Matplotlib v3.10.8, https://matplotlib.org/</dc:title>
     </cc:Agent>
    </dc:creator>
   </cc:Work>
  </rdf:RDF>
 </metadata>
 <defs>
  <style type="text/css">*{stroke-linejoin: round; stroke-linecap: butt}</style>
 </defs>
 <g id="figure_1">
  <g id="patch_1">
   <path d="M 0 468  L 576 468  L 576 0  L 0 0  z " style="fill: #ffffff"/>
  </g>
  <g id="axes_1">
   <g id="patch_2">
    <path d="M 47.72 315.525  L 565.2 315.525  L 565.2 26.88  L 47.72 26.88  z " style="fill: #ffffff"/>
   </g>
   <g id="FillBetweenPolyCollection_1">
    <defs>
     <path id="m5fbc007fae" d="M 128.107752 -400.619149  L 128.107752 -365.474724  L 128.626444 -364.390202  L 129.145136 -363.311191  L 129.663828 -362.237663  L 130.18252 -361.169588  L 130.701212 -360.106936  L 131.219904 -359.049678  L 131.738596 -357.997784  L 132.257288 -356.951225  L 132.77598 -355.909972  L 133.294672 -354.873997  L 133.813364 -353.84327  L 134.332056 -352.817764  L 134.850748 -351.797448  L 135.36944 -350.782296  L 135.888132 -349.772279  L 136.406824 -348.767369  L 136.925516 -347.767537  L 137.444208 -346.772757  L 137.9629 -345.783  L 138.481592 -344.798239  L 139.000284 -343.818447  L 139.518976 -342.843596  L 140.037668 -341.87366  L 140.55636 -340.908611  L 141.075053 -339.948422  L 141.593745 -338.993067  L 142.112437 -338.042519  L 142.631129 -337.096751  L 143.149821 -336.155739  L 143.668513 -335.219454  L 144.187205 -334.287872  L 144.705897 -333.360966  L 145.224589 -332.438711  L 145.743281 -331.521081  L 146.261973 -330.60805  L 146.780665 -329.699593  L 147.299357 -328.795686  L 147.818049 -327.896302  L 148.336741 -327.001417  L 148.855433 -326.111007  L 149.374125 -325.225045  L 149.892817 -324.343509  L 150.411509 -323.466374  L 150.930201 -322.593615  L 151.448893 -321.725208  L 151.967585 -320.86113  L 152.486277 -320.001356  L 153.004969 -319.145863  L 153.523661 -318.294627  L 154.042353 -317.447626  L 154.561045 -316.604835  L 155.079737 -315.766232  L 155.598429 -314.931793  L 156.117121 -314.101497  L 156.635813 -313.27532  L 157.154505 -312.453239  L 157.673197 -311.635233  L 158.191889 -310.82128  L 158.710581 -310.011356  L 159.229273 -309.205441  L 159.747965 -308.403513  L 160.266657 -307.605549  L 160.785349 -306.81153  L 161.304041 -306.021432  L 161.822733 -305.235236  L 162.341425 -304.45292  L 162.860117 -303.674464  L 163.378809 -302.899847  L 163.897501 -302.129048  L 164.416193 -301.362048  L 164.934885 -300.598825  L 165.453577 -299.839361  L 165.972269 -299.083635  L 166.490961 -298.331627  L 167.009653 -297.583319  L 167.528345 -296.838691  L 168.047037 -296.097724  L 168.565729 -295.360399  L 169.084421 -294.626697  L 169.603113 -293.896599  L 170.121805 -293.170088  L 170.640497 -292.447145  L 171.159189 -291.727751  L 171.677881 -291.01189  L 172.196573 -290.299543  L 172.715265 -289.590693  L 173.233957 -288.885322  L 173.752649 -288.183413  L 174.271341 -287.48495  L 174.790033 -286.789915  L 175.308725 -286.098292  L 175.827417 -285.410064  L 176.346109 -284.725216  L 176.864801 -284.04373  L 177.383493 -283.365592  L 177.902185 -282.690785  L 178.420877 -282.019294  L 178.939569 -281.351104  L 179.458261 -280.686198  L 179.976953 -280.024564  L 180.495645 -279.366184  L 181.014337 -278.711045  L 181.533029 -278.059133  L 182.051721 -277.410432  L 182.570413 -276.76493  L 183.089105 -276.122611  L 183.607797 -275.483462  L 184.126489 -274.84747  L 184.645181 -274.21462  L 185.163873 -273.5849  L 185.682565 -272.958297  L 186.201257 -272.334797  L 186.719949 -271.714387  L 187.238641 -271.097056  L 187.757333 -270.48279  L 188.276025 -269.871577  L 188.794717 -269.263404  L 189.313409 -268.658261  L 189.832101 -268.056134  L 190.350793 -267.457011  L 190.869485 -266.860882  L 191.388178 -266.267735  L 191.90687 -265.677558  L 192.425562 -265.09034  L 192.944254 -264.506069  L 193.462946 -263.924735  L 193.981638 -263.346327  L 194.50033 -262.770833  L 195.019022 -262.198243  L 195.537714 -261.628547  L 196.056406 -261.061734  L 196.575098 -260.497793  L 197.09379 -259.936715  L 197.612482 -259.378488  L 198.131174 -258.823103  L 198.649866 -258.270549  L 199.168558 -257.720817  L 199.68725 -257.173896  L 200.205942 -256.629777  L 200.724634 -256.08845  L 201.243326 -255.549905  L 201.762018 -255.014132  L 202.28071 -254.481122  L 202.799402 -253.950865  L 203.318094 -253.423352  L 203.836786 -252.898573  L 204.355478 -252.376518  L 204.87417 -251.857179  L 205.392862 -251.340545  L 205.911554 -250.826608  L 206.430246 -250.315359  L 206.948938 -249.806787  L 207.46763 -249.300883  L 207.986322 -248.797639  L 208.505014 -248.297045  L 209.023706 -247.799092  L 209.542398 -247.303771  L 210.06109 -246.811072  L 210.579782 -246.320986  L 211.098474 -245.833504  L 211.617166 -245.348618  L 212.135858 -244.866317  L 212.65455 -244.386592  L 213.173242 -243.909435  L 213.691934 -243.434837  L 214.210626 -242.962787  L 214.729318 -242.493277  L 215.24801 -242.026298  L 215.766702 -241.56184  L 216.285394 -241.099894  L 216.804086 -240.640451  L 217.322778 -240.183502  L 217.84147 -239.729038  L 218.360162 -239.277049  L 218.878854 -238.827525  L 219.397546 -238.380459  L 219.916238 -237.935839  L 220.43493 -237.493658  L 220.953622 -237.053905  L 221.472314 -236.616572  L 221.991006 -236.181649  L 222.509698 -235.749126  L 223.02839 -235.318995  L 223.547082 -234.891245  L 224.065774 -234.465867  L 224.584466 -234.042852  L 225.103158 -233.622191  L 225.62185 -233.203873  L 226.140542 -232.78789  L 226.659234 -232.374232  L 227.177926 -231.962889  L 227.696618 -231.553852  L 228.21531 -231.14711  L 228.734002 -230.742656  L 229.252694 -230.340478  L 229.771386 -229.940568  L 230.290078 -229.542916  L 230.80877 -229.147512  L 231.327462 -228.754346  L 231.846154 -228.363409  L 232.364846 -227.974691  L 232.883538 -227.588182  L 233.40223 -227.203874  L 233.920922 -226.821755  L 234.439614 -226.441817  L 234.958306 -226.064049  L 235.476998 -225.688443  L 235.99569 -225.314987  L 236.514382 -224.943673  L 237.033074 -224.574491  L 237.551766 -224.207431  L 238.070458 -223.842483  L 238.58915 -223.479638  L 239.107842 -223.118885  L 239.626534 -222.760216  L 240.145226 -222.40362  L 240.663918 -222.049087  L 241.18261 -221.696609  L 241.701303 -221.346174  L 242.219995 -220.997774  L 242.738687 -220.651399  L 243.257379 -220.307038  L 243.776071 -219.964683  L 244.294763 -219.624324  L 244.813455 -219.28595  L 245.332147 -218.949553  L 245.850839 -218.615122  L 246.369531 -218.282648  L 246.888223 -217.952122  L 247.406915 -217.623533  L 247.925607 -217.296872  L 248.444299 -216.972129  L 248.962991 -216.649295  L 249.481683 -216.328361  L 250.000375 -216.009315  L 250.519067 -215.692151  L 251.037759 -215.376856  L 251.556451 -215.063423  L 252.075143 -214.751841  L 252.593835 -214.442101  L 253.112527 -214.134194  L 253.631219 -213.82811  L 254.149911 -213.52384  L 254.668603 -213.221374  L 255.187295 -212.920703  L 255.705987 -212.621818  L 256.224679 -212.324709  L 256.743371 -212.029367  L 257.262063 -211.735783  L 257.780755 -211.443947  L 258.299447 -211.15385  L 258.818139 -210.865484  L 259.336831 -210.578838  L 259.855523 -210.293904  L 260.374215 -210.010673  L 260.892907 -209.729135  L 261.411599 -209.449281  L 261.930291 -209.171103  L 262.448983 -208.894591  L 262.967675 -208.619736  L 263.486367 -208.34653  L 264.005059 -208.074963  L 264.523751 -207.805026  L 265.042443 -207.536712  L 265.561135 -207.27001  L 266.079827 -207.004912  L 266.598519 -206.741409  L 267.117211 -206.479493  L 267.635903 -206.219154  L 268.154595 -205.960385  L 268.673287 -205.703175  L 269.191979 -205.447518  L 269.710671 -205.193404  L 270.229363 -204.940824  L 270.748055 -204.689771  L 271.266747 -204.440235  L 271.785439 -204.192209  L 272.304131 -203.945683  L 272.822823 -203.700649  L 273.341515 -203.457099  L 273.860207 -203.215025  L 274.378899 -202.974419  L 274.897591 -202.735271  L 275.416283 -202.497575  L 275.934975 -202.261321  L 276.453667 -202.026501  L 276.972359 -201.793108  L 277.491051 -201.561134  L 278.009743 -201.330569  L 278.528435 -201.101407  L 279.047127 -200.873639  L 279.565819 -200.647258  L 280.084511 -200.422254  L 280.603203 -200.198622  L 281.121895 -199.976352  L 281.640587 -199.755437  L 282.159279 -199.535869  L 282.677971 -199.317641  L 283.196663 -199.100745  L 283.196663 -207.19295  L 283.196663 -207.19295  L 282.677971 -207.424429  L 282.159279 -207.657185  L 281.640587 -207.891227  L 281.121895 -208.126563  L 280.603203 -208.363199  L 280.084511 -208.601143  L 279.565819 -208.840404  L 279.047127 -209.080988  L 278.528435 -209.322904  L 278.009743 -209.56616  L 277.491051 -209.810763  L 276.972359 -210.056722  L 276.453667 -210.304045  L 275.934975 -210.552739  L 275.416283 -210.802813  L 274.897591 -211.054274  L 274.378899 -211.307133  L 273.860207 -211.561396  L 273.341515 -211.817072  L 272.822823 -212.074169  L 272.304131 -212.332697  L 271.785439 -212.592664  L 271.266747 -212.854078  L 270.748055 -213.116948  L 270.229363 -213.381283  L 269.710671 -213.647092  L 269.191979 -213.914383  L 268.673287 -214.183166  L 268.154595 -214.453451  L 267.635903 -214.725245  L 267.117211 -214.998558  L 266.598519 -215.2734  L 266.079827 -215.549779  L 265.561135 -215.827706  L 265.042443 -216.107189  L 264.523751 -216.388239  L 264.005059 -216.670865  L 263.486367 -216.955077  L 262.967675 -217.240884  L 262.448983 -217.528297  L 261.930291 -217.817325  L 261.411599 -218.107979  L 260.892907 -218.400268  L 260.374215 -218.694204  L 259.855523 -218.989795  L 259.336831 -219.287053  L 258.818139 -219.585988  L 258.299447 -219.886611  L 257.780755 -220.188932  L 257.262063 -220.492962  L 256.743371 -220.798712  L 256.224679 -221.106192  L 255.705987 -221.415415  L 255.187295 -221.72639  L 254.668603 -222.03913  L 254.149911 -222.353645  L 253.631219 -222.669947  L 253.112527 -222.988048  L 252.593835 -223.307958  L 252.075143 -223.62969  L 251.556451 -223.953256  L 251.037759 -224.278667  L 250.519067 -224.605935  L 250.000375 -224.935073  L 249.481683 -225.266093  L 248.962991 -225.599007  L 248.444299 -225.933828  L 247.925607 -226.270568  L 247.406915 -226.609239  L 246.888223 -226.949856  L 246.369531 -227.29243  L 245.850839 -227.636975  L 245.332147 -227.983503  L 244.813455 -228.332029  L 244.294763 -228.682565  L 243.776071 -229.035125  L 243.257379 -229.389723  L 242.738687 -229.746372  L 242.219995 -230.105087  L 241.701303 -230.465881  L 241.18261 -230.828768  L 240.663918 -231.193763  L 240.145226 -231.560881  L 239.626534 -231.930136  L 239.107842 -232.301542  L 238.58915 -232.675114  L 238.070458 -233.050868  L 237.551766 -233.428819  L 237.033074 -233.808981  L 236.514382 -234.191371  L 235.99569 -234.576004  L 235.476998 -234.962895  L 234.958306 -235.352061  L 234.439614 -235.743517  L 233.920922 -236.13728  L 233.40223 -236.533366  L 232.883538 -236.931792  L 232.364846 -237.332574  L 231.846154 -237.735729  L 231.327462 -238.141274  L 230.80877 -238.549227  L 230.290078 -238.959604  L 229.771386 -239.372423  L 229.252694 -239.787702  L 228.734002 -240.205458  L 228.21531 -240.62571  L 227.696618 -241.048475  L 227.177926 -241.473773  L 226.659234 -241.901622  L 226.140542 -242.332039  L 225.62185 -242.765045  L 225.103158 -243.200659  L 224.584466 -243.638899  L 224.065774 -244.079785  L 223.547082 -244.523336  L 223.02839 -244.969573  L 222.509698 -245.418516  L 221.991006 -245.870184  L 221.472314 -246.324598  L 220.953622 -246.781779  L 220.43493 -247.241747  L 219.916238 -247.704523  L 219.397546 -248.170129  L 218.878854 -248.638585  L 218.360162 -249.109914  L 217.84147 -249.584137  L 217.322778 -250.061276  L 216.804086 -250.541353  L 216.285394 -251.02439  L 215.766702 -251.51041  L 215.24801 -251.999435  L 214.729318 -252.49149  L 214.210626 -252.986595  L 213.691934 -253.484776  L 213.173242 -253.986055  L 212.65455 -254.490456  L 212.135858 -254.998003  L 211.617166 -255.50872  L 211.098474 -256.022631  L 210.579782 -256.539761  L 210.06109 -257.060134  L 209.542398 -257.583776  L 209.023706 -258.110711  L 208.505014 -258.640964  L 207.986322 -259.174562  L 207.46763 -259.711529  L 206.948938 -260.251891  L 206.430246 -260.795675  L 205.911554 -261.342907  L 205.392862 -261.893612  L 204.87417 -262.447818  L 204.355478 -263.005551  L 203.836786 -263.566837  L 203.318094 -264.131706  L 202.799402 -264.700182  L 202.28071 -265.272294  L 201.762018 -265.84807  L 201.243326 -266.427536  L 200.724634 -267.010722  L 200.205942 -267.597655  L 199.68725 -268.188363  L 199.168558 -268.782875  L 198.649866 -269.38122  L 198.131174 -269.983425  L 197.612482 -270.589521  L 197.09379 -271.199535  L 196.575098 -271.813498  L 196.056406 -272.431437  L 195.537714 -273.053384  L 195.019022 -273.679368  L 194.50033 -274.309417  L 193.981638 -274.943563  L 193.462946 -275.581834  L 192.944254 -276.224262  L 192.425562 -276.870877  L 191.90687 -277.521708  L 191.388178 -278.176787  L 190.869485 -278.836144  L 190.350793 -279.499809  L 189.832101 -280.167814  L 189.313409 -280.84019  L 188.794717 -281.516968  L 188.276025 -282.198178  L 187.757333 -282.883853  L 187.238641 -283.574024  L 186.719949 -284.268722  L 186.201257 -284.967979  L 185.682565 -285.671827  L 185.163873 -286.380297  L 184.645181 -287.093422  L 184.126489 -287.811233  L 183.607797 -288.533764  L 183.089105 -289.261045  L 182.570413 -289.99311  L 182.051721 -290.729991  L 181.533029 -291.47172  L 181.014337 -292.218331  L 180.495645 -292.969856  L 179.976953 -293.726327  L 179.458261 -294.487779  L 178.939569 -295.254244  L 178.420877 -296.025754  L 177.902185 -296.802345  L 177.383493 -297.584048  L 176.864801 -298.370898  L 176.346109 -299.162928  L 175.827417 -299.960171  L 175.308725 -300.762662  L 174.790033 -301.570435  L 174.271341 -302.383524  L 173.752649 -303.201962  L 173.233957 -304.025784  L 172.715265 -304.855025  L 172.196573 -305.689719  L 171.677881 -306.5299  L 171.159189 -307.375604  L 170.640497 -308.226865  L 170.121805 -309.083719  L 169.603113 -309.9462  L 169.084421 -310.814344  L 168.565729 -311.688186  L 168.047037 -312.567762  L 167.528345 -313.453108  L 167.009653 -314.344258  L 166.490961 -315.241251  L 165.972269 -316.14412  L 165.453577 -317.052903  L 164.934885 -317.967637  L 164.416193 -318.888357  L 163.897501 -319.815101  L 163.378809 -320.747906  L 162.860117 -321.686808  L 162.341425 -322.631844  L 161.822733 -323.583054  L 161.304041 -324.540473  L 160.785349 -325.50414  L 160.266657 -326.474092  L 159.747965 -327.450369  L 159.229273 -328.433007  L 158.710581 -329.422046  L 158.191889 -330.417525  L 157.673197 -331.419482  L 157.154505 -332.427957  L 156.635813 -333.442989  L 156.117121 -334.464617  L 155.598429 -335.492881  L 155.079737 -336.527821  L 154.561045 -337.569477  L 154.042353 -338.617891  L 153.523661 -339.673101  L 153.004969 -340.73515  L 152.486277 -341.804078  L 151.967585 -342.879926  L 151.448893 -343.962736  L 150.930201 -345.052551  L 150.411509 -346.149411  L 149.892817 -347.253359  L 149.374125 -348.364438  L 148.855433 -349.48269  L 148.336741 -350.608158  L 147.818049 -351.740886  L 147.299357 -352.880917  L 146.780665 -354.028295  L 146.261973 -355.183064  L 145.743281 -356.345268  L 145.224589 -357.514952  L 144.705897 -358.69216  L 144.187205 -359.876938  L 143.668513 -361.069331  L 143.149821 -362.269384  L 142.631129 -363.477144  L 142.112437 -364.692658  L 141.593745 -365.91597  L 141.075053 -367.147129  L 140.55636 -368.38618  L 140.037668 -369.633173  L 139.518976 -370.888153  L 139.000284 -372.15117  L 138.481592 -373.422272  L 137.9629 -374.701506  L 137.444208 -375.988923  L 136.925516 -377.28457  L 136.406824 -378.588498  L 135.888132 -379.900757  L 135.36944 -381.221396  L 134.850748 -382.550467  L 134.332056 -383.888019  L 133.813364 -385.234104  L 133.294672 -386.588773  L 132.77598 -387.952078  L 132.257288 -389.324072  L 131.738596 -390.704805  L 131.219904 -392.094332  L 130.701212 -393.492706  L 130.18252 -394.899979  L 129.663828 -396.316206  L 129.145136 -397.74144  L 128.626444 -399.175736  L 128.107752 -400.619149  z " style="stroke: #ffa500; stroke-opacity: 0.3"/>
    </defs>
    <g clip-path="url(#p699301064c)">
     <use xlink:href="#m5fbc007fae" x="0" y="468" style="fill: #ffa500; fill-opacity: 0.3; stroke: #ffa500; stroke-opacity: 0.3"/>
    </g>
   </g>
   <g id="FillBetweenPolyCollection_2">
    <defs>
     <path id="m72e5537c36" d="M 71.241818 -405.875325  L 71.241818 -395.192766  L 86.750709 -395.192766  L 107.429231 -395.192766  L 128.107752 -395.192766  L 148.786274 -395.192766  L 169.464795 -395.192766  L 190.143317 -395.192766  L 210.821838 -395.192766  L 231.50036 -395.192766  L 283.196663 -395.192766  L 334.892967 -395.192766  L 386.589271 -395.192766  L 489.981878 -395.192766  L 541.678182 -395.192766  L 541.678182 -405.875325  L 541.678182 -405.875325  L 489.981878 -405.875325  L 386.589271 -405.875325  L 334.892967 -405.875325  L 283.196663 -405.875325  L 231.50036 -405.875325  L 210.821838 -405.875325  L 190.143317 -405.875325  L 169.464795 -405.875325  L 148.786274 -405.875325  L 128.107752 -405.875325  L 107.429231 -405.875325  L 86.750709 -405.875325  L 71.241818 -405.875325  z " style="stroke: #32cd32; stroke-opacity: 0.3"/>
    </defs>
    <g clip-path="url(#p699301064c)">
     <use xlink:href="#m72e5537c36" x="0" y="468" style="fill: #32cd32; fill-opacity: 0.3; stroke: #32cd32; stroke-opacity: 0.3"/>
    </g>
   </g>
   <g id="FillBetweenPolyCollection_3">
    <defs>
     <path id="maaecbc9091" d="M 71.241818 -197.691691  L 71.241818 -195.385329  L 86.750709 -195.385329  L 107.429231 -195.385329  L 128.107752 -195.385329  L 148.786274 -195.385329  L 169.464795 -195.385329  L 190.143317 -195.385329  L 210.821838 -195.385329  L 231.50036 -195.385329  L 283.196663 -195.385329  L 334.892967 -195.385329  L 386.589271 -195.385329  L 489.981878 -195.385329  L 541.678182 -195.385329  L 541.678182 -197.691691  L 541.678182 -197.691691  L 489.981878 -197.691691  L 386.589271 -197.691691  L 334.892967 -197.691691  L 283.196663 -197.691691  L 231.50036 -197.691691  L 210.821838 -197.691691  L 190.143317 -197.691691  L 169.464795 -197.691691  L 148.786274 -197.691691  L 128.107752 -197.691691  L 107.429231 -197.691691  L 86.750709 -197.691691  L 71.241818 -197.691691  z " style="stroke: #006400; stroke-opacity: 0.3"/>
    </defs>
    <g clip-path="url(#p699301064c)">
     <use xlink:href="#maaecbc9091" x="0" y="468" style="fill: #006400; fill-opacity: 0.3; stroke: #006400; stroke-opacity: 0.3"/>
    </g>
   </g>
   <g id="matplotlib.axis_1">
    <g id="xtick_1">
     <g id="line2d_1">
      <path d="M 71.241818 315.525  L 71.241818 26.88  " clip-path="url(#p699301064c)" style="fill: none; stroke: #b0b0b0; stroke-width: 0.8; stroke-linecap: square"/>
     </g>
     <g id="line2d_2">
      <defs>
       <path id="mc892fd01a9" d="M 0 0  L 0 3.5  " style="stroke: #000000; stroke-width: 0.8"/>
      </defs>
      <g>
       <use xlink:href="#mc892fd01a9" x="71.241818" y="315.525" style="stroke: #000000; stroke-width: 0.8"/>
      </g>
     </g>
    </g>
    <g id="xtick_2">
     <g id="line2d_3">
      <path d="M 174.634426 315.525  L 174.634426 26.88  " clip-path="url(#p699301064c)" style="fill: none; stroke: #b0b0b0; stroke-width: 0.8; stroke-linecap: square"/>
     </g>
     <g id="line2d_4">
      <g>
       <use xlink:href="#mc892fd01a9" x="174.634426" y="315.525" style="stroke: #000000; stroke-width: 0.8"/>
      </g>
     </g>
    </g>
    <g id="xtick_3">
     <g id="line2d_5">
      <path d="M 278.027033 315.525  L 278.027033 26.88  " clip-path="url(#p699301064c)" style="fill: none; stroke: #b0b0b0; stroke-width: 0.8; stroke-linecap: square"/>
     </g>
     <g id="line2d_6">
      <g>
       <use xlink:href="#mc892fd01a9" x="278.027033" y="315.525" style="stroke: #000000; stroke-width: 0.8"/>
      </g>
     </g>
    </g>
    <g id="xtick_4">
     <g id="line2d_7">
      <path d="M 381.41964 315.525  L 381.41964 26.88  " clip-path="url(#p699301064c)" style="fill: none; stroke: #b0b0b0; stroke-width: 0.8; stroke-linecap: square"/>
     </g>
     <g id="line2d_8">
      <g>
       <use xlink:href="#mc892fd01a9" x="381.41964" y="315.525" style="stroke: #000000; stroke-width: 0.8"/>
      </g>
     </g>
    </g>
    <g id="xtick_5">
     <g id="line2d_9">
      <path d="M 484.812248 315.525  L 484.812248 26.88  " clip-path="url(#p699301064c)" style="fill: none; stroke: #b0b0b0; stroke-width: 0.8; stroke-linecap: square"/>
     </g>
     <g id="line2d_10">
      <g>
       <use xlink:href="#mc892fd01a9" x="484.812248" y="315.525" style="stroke: #000000; stroke-width: 0.8"/>
      </g>
     </g>
    </g>
   </g>
   <g id="matplotlib.axis_2">
    <g id="ytick_1">
     <g id="line2d_11">
      <path d="M 47.72 303.368968  L 565.2 303.368968  " clip-path="url(#p699301064c)" style="fill: none; stroke: #b0b0b0; stroke-width: 0.8; stroke-linecap: square"/>
     </g>
     <g id="line2d_12">
      <defs>
       <path id="m6da6fe3f7c" d="M 0 0  L -3.5 0  " style="stroke: #000000; stroke-width: 0.8"/>
      </defs>
      <g>
       <use xlink:href="#m6da6fe3f7c" x="47.72" y="303.368968" style="stroke: #000000; stroke-width: 0.8"/>
      </g>
     </g>
     <g id="text_1">
      <!-- 0.0 -->
      <g transform="translate(24.816875 307.168187) scale(0.1 -0.1)">
       <defs>
        <path id="DejaVuSans-30" d="M 2034 4250  Q 1547 4250 1301 3770  Q 1056 3291 1056 2328  Q 1056 1369 1301 889  Q 1547 409 2034 409  Q 2525 409 2770 889  Q 3016 1369 3016 2328  Q 3016 3291 2770 3770  Q 2525 4250 2034 4250  z M 2034 4750  Q 2819 4750 3233 4129  Q 3647 3509 3647 2328  Q 3647 1150 3233 529  Q 2819 -91 2034 -91  Q 1250 -91 836 529  Q 422 1150 422 2328  Q 422 3509 836 4129  Q 1250 4750 2034 4750  z " transform="scale(0.015625)"/>
        <path id="DejaVuSans-2e" d="M 684 794  L 1344 794  L 1344 0  L 684 0  L 684 794  z " transform="scale(0.015625)"/>
       </defs>
       <use xlink:href="#DejaVuSans-30"/>
       <use xlink:href="#DejaVuSans-2e" transform="translate(63.623047 0)"/>
       <use xlink:href="#DejaVuSans-30" transform="translate(95.410156 0)"/>
      </g>
     </g>
    </g>
    <g id="ytick_2">
     <g id="line2d_13">
      <path d="M 47.72 259.357212  L 565.2 259.357212  " clip-path="url(#p699301064c)" style="fill: none; stroke: #b0b0b0; stroke-width: 0.8; stroke-linecap: square"/>
     </g>
     <g id="line2d_14">
      <g>
       <use xlink:href="#m6da6fe3f7c" x="47.72" y="259.357212" style="stroke: #000000; stroke-width: 0.8"/>
      </g>
     </g>
     <g id="text_2">
      <!-- 0.5 -->
      <g transform="translate(24.816875 263.15643) scale(0.1 -0.1)">
       <defs>
        <path id="DejaVuSans-35" d="M 691 4666  L 3169 4666  L 3169 4134  L 1269 4134  L 1269 2991  Q 1406 3038 1543 3061  Q 1681 3084 1819 3084  Q 2600 3084 3056 2656  Q 3513 2228 3513 1497  Q 3513 744 3044 326  Q 2575 -91 1722 -91  Q 1428 -91 1123 -41  Q 819 9 494 109  L 494 744  Q 775 591 1075 516  Q 1375 441 1709 441  Q 2250 441 2565 725  Q 2881 1009 2881 1497  Q 2881 1984 2565 2268  Q 2250 2553 1709 2553  Q 1456 2553 1204 2497  Q 953 2441 691 2322  L 691 4666  z " transform="scale(0.015625)"/>
       </defs>
       <use xlink:href="#DejaVuSans-30"/>
       <use xlink:href="#DejaVuSans-2e" transform="translate(63.623047 0)"/>
       <use xlink:href="#DejaVuSans-35" transform="translate(95.410156 0)"/>
      </g>
     </g>
    </g>
    <g id="ytick_3">
     <g id="line2d_15">
      <path d="M 47.72 215.345455  L 565.2 215.345455  " clip-path="url(#p699301064c)" style="fill: none; stroke: #b0b0b0; stroke-width: 0.8; stroke-linecap: square"/>
     </g>
     <g id="line2d_16">
      <g>
       <use xlink:href="#m6da6fe3f7c" x="47.72" y="215.345455" style="stroke: #000000; stroke-width: 0.8"/>
      </g>
     </g>
     <g id="text_3">
      <!-- 1.0 -->
      <g transform="translate(24.816875 219.144674) scale(0.1 -0.1)">
       <defs>
        <path id="DejaVuSans-31" d="M 794 531  L 1825 531  L 1825 4091  L 703 3866  L 703 4441  L 1819 4666  L 2450 4666  L 2450 531  L 3481 531  L 3481 0  L 794 0  L 794 531  z " transform="scale(0.015625)"/>
       </defs>
       <use xlink:href="#DejaVuSans-31"/>
       <use xlink:href="#DejaVuSans-2e" transform="translate(63.623047 0)"/>
       <use xlink:href="#DejaVuSans-30" transform="translate(95.410156 0)"/>
      </g>
     </g>
    </g>
    <g id="ytick_4">
     <g id="line2d_17">
      <path d="M 47.72 171.333699  L 565.2 171.333699  " clip-path="url(#p699301064c)" style="fill: none; stroke: #b0b0b0; stroke-width: 0.8; stroke-linecap: square"/>
     </g>
     <g id="line2d_18">
      <g>
       <use xlink:href="#m6da6fe3f7c" x="47.72" y="171.333699" style="stroke: #000000; stroke-width: 0.8"/>
      </g>
     </g>
     <g id="text_4">
      <!-- 1.5 -->
      <g transform="translate(24.816875 175.132918) scale(0.1 -0.1)">
       <use xlink:href="#DejaVuSans-31"/>
       <use xlink:href="#DejaVuSans-2e" transform="translate(63.623047 0)"/>
       <use xlink:href="#DejaVuSans-35" transform="translate(95.410156 0)"/>
      </g>
     </g>
    </g>
    <g id="ytick_5">
     <g id="line2d_19">
      <path d="M 47.72 127.321943  L 565.2 127.321943  " clip-path="url(#p699301064c)" style="fill: none; stroke: #b0b0b0; stroke-width: 0.8; stroke-linecap: square"/>
     </g>
     <g id="line2d_20">
      <g>
       <use xlink:href="#m6da6fe3f7c" x="47.72" y="127.321943" style="stroke: #000000; stroke-width: 0.8"/>
      </g>
     </g>
     <g id="text_5">
      <!-- 2.0 -->
      <g transform="translate(24.816875 131.121162) scale(0.1 -0.1)">
       <defs>
        <path id="DejaVuSans-32" d="M 1228 531  L 3431 531  L 3431 0  L 469 0  L 469 531  Q 828 903 1448 1529  Q 2069 2156 2228 2338  Q 2531 2678 2651 2914  Q 2772 3150 2772 3378  Q 2772 3750 2511 3984  Q 2250 4219 1831 4219  Q 1534 4219 1204 4116  Q 875 4013 500 3803  L 500 4441  Q 881 4594 1212 4672  Q 1544 4750 1819 4750  Q 2544 4750 2975 4387  Q 3406 4025 3406 3419  Q 3406 3131 3298 2873  Q 3191 2616 2906 2266  Q 2828 2175 2409 1742  Q 1991 1309 1228 531  z " transform="scale(0.015625)"/>
       </defs>
       <use xlink:href="#DejaVuSans-32"/>
       <use xlink:href="#DejaVuSans-2e" transform="translate(63.623047 0)"/>
       <use xlink:href="#DejaVuSans-30" transform="translate(95.410156 0)"/>
      </g>
     </g>
    </g>
    <g id="ytick_6">
     <g id="line2d_21">
      <path d="M 47.72 83.310187  L 565.2 83.310187  " clip-path="url(#p699301064c)" style="fill: none; stroke: #b0b0b0; stroke-width: 0.8; stroke-linecap: square"/>
     </g>
     <g id="line2d_22">
      <g>
       <use xlink:href="#m6da6fe3f7c" x="47.72" y="83.310187" style="stroke: #000000; stroke-width: 0.8"/>
      </g>
     </g>
     <g id="text_6">
      <!-- 2.5 -->
      <g transform="translate(24.816875 87.109406) scale(0.1 -0.1)">
       <use xlink:href="#DejaVuSans-32"/>
       <use xlink:href="#DejaVuSans-2e" transform="translate(63.623047 0)"/>
       <use xlink:href="#DejaVuSans-35" transform="translate(95.410156 0)"/>
      </g>
     </g>
    </g>
    <g id="ytick_7">
     <g id="line2d_23">
      <path d="M 47.72 39.298431  L 565.2 39.298431  " clip-path="url(#p699301064c)" style="fill: none; stroke: #b0b0b0; stroke-width: 0.8; stroke-linecap: square"/>
     </g>
     <g id="line2d_24">
      <g>
       <use xlink:href="#m6da6fe3f7c" x="47.72" y="39.298431" style="stroke: #000000; stroke-width: 0.8"/>
      </g>
     </g>
     <g id="text_7">
      <!-- 3.0 -->
      <g transform="translate(24.816875 43.09765) scale(0.1 -0.1)">
       <defs>
        <path id="DejaVuSans-33" d="M 2597 2516  Q 3050 2419 3304 2112  Q 3559 1806 3559 1356  Q 3559 666 3084 287  Q 2609 -91 1734 -91  Q 1441 -91 1130 -33  Q 819 25 488 141  L 488 750  Q 750 597 1062 519  Q 1375 441 1716 441  Q 2309 441 2620 675  Q 2931 909 2931 1356  Q 2931 1769 2642 2001  Q 2353 2234 1838 2234  L 1294 2234  L 1294 2753  L 1863 2753  Q 2328 2753 2575 2939  Q 2822 3125 2822 3475  Q 2822 3834 2567 4026  Q 2313 4219 1838 4219  Q 1578 4219 1281 4162  Q 984 4106 628 3988  L 628 4550  Q 988 4650 1302 4700  Q 1616 4750 1894 4750  Q 2613 4750 3031 4423  Q 3450 4097 3450 3541  Q 3450 3153 3228 2886  Q 3006 2619 2597 2516  z " transform="scale(0.015625)"/>
       </defs>
       <use xlink:href="#DejaVuSans-33"/>
       <use xlink:href="#DejaVuSans-2e" transform="translate(63.623047 0)"/>
       <use xlink:href="#DejaVuSans-30" transform="translate(95.410156 0)"/>
      </g>
     </g>
    </g>
    <g id="text_8">
     <!-- Strom [nA] -->
     <g transform="translate(18.737187 198.289219) rotate(-90) scale(0.1 -0.1)">
      <defs>
       <path id="DejaVuSans-53" d="M 3425 4513  L 3425 3897  Q 3066 4069 2747 4153  Q 2428 4238 2131 4238  Q 1616 4238 1336 4038  Q 1056 3838 1056 3469  Q 1056 3159 1242 3001  Q 1428 2844 1947 2747  L 2328 2669  Q 3034 2534 3370 2195  Q 3706 1856 3706 1288  Q 3706 609 3251 259  Q 2797 -91 1919 -91  Q 1588 -91 1214 -16  Q 841 59 441 206  L 441 856  Q 825 641 1194 531  Q 1563 422 1919 422  Q 2459 422 2753 634  Q 3047 847 3047 1241  Q 3047 1584 2836 1778  Q 2625 1972 2144 2069  L 1759 2144  Q 1053 2284 737 2584  Q 422 2884 422 3419  Q 422 4038 858 4394  Q 1294 4750 2059 4750  Q 2388 4750 2728 4690  Q 3069 4631 3425 4513  z " transform="scale(0.015625)"/>
       <path id="DejaVuSans-74" d="M 1172 4494  L 1172 3500  L 2356 3500  L 2356 3053  L 1172 3053  L 1172 1153  Q 1172 725 1289 603  Q 1406 481 1766 481  L 2356 481  L 2356 0  L 1766 0  Q 1100 0 847 248  Q 594 497 594 1153  L 594 3053  L 172 3053  L 172 3500  L 594 3500  L 594 4494  L 1172 4494  z " transform="scale(0.015625)"/>
       <path id="DejaVuSans-72" d="M 2631 2963  Q 2534 3019 2420 3045  Q 2306 3072 2169 3072  Q 1681 3072 1420 2755  Q 1159 2438 1159 1844  L 1159 0  L 581 0  L 581 3500  L 1159 3500  L 1159 2956  Q 1341 3275 1631 3429  Q 1922 3584 2338 3584  Q 2397 3584 2469 3576  Q 2541 3569 2628 3553  L 2631 2963  z " transform="scale(0.015625)"/>
       <path id="DejaVuSans-6f" d="M 1959 3097  Q 1497 3097 1228 2736  Q 959 2375 959 1747  Q 959 1119 1226 758  Q 1494 397 1959 397  Q 2419 397 2687 759  Q 2956 1122 2956 1747  Q 2956 2369 2687 2733  Q 2419 3097 1959 3097  z M 1959 3584  Q 2709 3584 3137 3096  Q 3566 2609 3566 1747  Q 3566 888 3137 398  Q 2709 -91 1959 -91  Q 1206 -91 779 398  Q 353 888 353 1747  Q 353 2609 779 3096  Q 1206 3584 1959 3584  z " transform="scale(0.015625)"/>
       <path id="DejaVuSans-6d" d="M 3328 2828  Q 3544 3216 3844 3400  Q 4144 3584 4550 3584  Q 5097 3584 5394 3201  Q 5691 2819 5691 2113  L 5691 0  L 5113 0  L 5113 2094  Q 5113 2597 4934 2840  Q 4756 3084 4391 3084  Q 3944 3084 3684 2787  Q 3425 2491 3425 1978  L 3425 0  L 2847 0  L 2847 2094  Q 2847 2600 2669 2842  Q 2491 3084 2119 3084  Q 1678 3084 1418 2786  Q 1159 2488 1159 1978  L 1159 0  L 581 0  L 581 3500  L 1159 3500  L 1159 2956  Q 1356 3278 1631 3431  Q 1906 3584 2284 3584  Q 2666 3584 2933 3390  Q 3200 3197 3328 2828  z " transform="scale(0.015625)"/>
       <path id="DejaVuSans-20" transform="scale(0.015625)"/>
       <path id="DejaVuSans-5b" d="M 550 4863  L 1875 4863  L 1875 4416  L 1125 4416  L 1125 -397  L 1875 -397  L 1875 -844  L 550 -844  L 550 4863  z " transform="scale(0.015625)"/>
       <path id="DejaVuSans-6e" d="M 3513 2113  L 3513 0  L 2938 0  L 2938 2094  Q 2938 2591 2744 2837  Q 2550 3084 2163 3084  Q 1697 3084 1428 2787  Q 1159 2491 1159 1978  L 1159 0  L 581 0  L 581 3500  L 1159 3500  L 1159 2956  Q 1366 3272 1645 3428  Q 1925 3584 2291 3584  Q 2894 3584 3203 3211  Q 3513 2838 3513 2113  z " transform="scale(0.015625)"/>
       <path id="DejaVuSans-41" d="M 2188 4044  L 1331 1722  L 3047 1722  L 2188 4044  z M 1831 4666  L 2547 4666  L 4325 0  L 3669 0  L 3244 1197  L 1141 1197  L 716 0  L 50 0  L 1831 4666  z " transform="scale(0.015625)"/>
       <path id="DejaVuSans-5d" d="M 1947 4863  L 1947 -844  L 622 -844  L 622 -397  L 1369 -397  L 1369 4416  L 622 4416  L 622 4863  L 1947 4863  z " transform="scale(0.015625)"/>
      </defs>
      <use xlink:href="#DejaVuSans-53"/>
      <use xlink:href="#DejaVuSans-74" transform="translate(63.476562 0)"/>
      <use xlink:href="#DejaVuSans-72" transform="translate(102.685547 0)"/>
      <use xlink:href="#DejaVuSans-6f" transform="translate(141.548828 0)"/>
      <use xlink:href="#DejaVuSans-6d" transform="translate(202.730469 0)"/>
      <use xlink:href="#DejaVuSans-20" transform="translate(300.142578 0)"/>
      <use xlink:href="#DejaVuSans-5b" transform="translate(331.929688 0)"/>
      <use xlink:href="#DejaVuSans-6e" transform="translate(370.943359 0)"/>
      <use xlink:href="#DejaVuSans-41" transform="translate(434.322266 0)"/>
      <use xlink:href="#DejaVuSans-5d" transform="translate(502.730469 0)"/>
     </g>
    </g>
   </g>
   <g id="LineCollection_1">
    <path d="M 71.241818 56.201337  L 71.241818 40.000227  " clip-path="url(#p699301064c)" style="fill: none; stroke: #1f77b4; stroke-width: 1.5"/>
    <path d="M 86.750709 75.019665  L 86.750709 59.912245  " clip-path="url(#p699301064c)" style="fill: none; stroke: #1f77b4; stroke-width: 1.5"/>
    <path d="M 107.429231 75.019665  L 107.429231 59.912245  " clip-path="url(#p699301064c)" style="fill: none; stroke: #1f77b4; stroke-width: 1.5"/>
    <path d="M 128.107752 99.828541  L 128.107752 84.396535  " clip-path="url(#p699301064c)" style="fill: none; stroke: #1f77b4; stroke-width: 1.5"/>
    <path d="M 148.786274 130.236623  L 148.786274 117.365382  " clip-path="url(#p699301064c)" style="fill: none; stroke: #1f77b4; stroke-width: 1.5"/>
    <path d="M 169.464795 173.644551  L 169.464795 137.334383  " clip-path="url(#p699301064c)" style="fill: none; stroke: #1f77b4; stroke-width: 1.5"/>
    <path d="M 190.143317 205.124404  L 190.143317 169.231459  " clip-path="url(#p699301064c)" style="fill: none; stroke: #1f77b4; stroke-width: 1.5"/>
    <path d="M 210.821838 227.060451  L 210.821838 200.10952  " clip-path="url(#p699301064c)" style="fill: none; stroke: #1f77b4; stroke-width: 1.5"/>
    <path d="M 231.50036 237.586251  L 231.50036 232.715241  " clip-path="url(#p699301064c)" style="fill: none; stroke: #1f77b4; stroke-width: 1.5"/>
    <path d="M 283.196663 266.828842  L 283.196663 263.328637  " clip-path="url(#p699301064c)" style="fill: none; stroke: #1f77b4; stroke-width: 1.5"/>
    <path d="M 334.892967 272.875119  L 334.892967 269.605653  " clip-path="url(#p699301064c)" style="fill: none; stroke: #1f77b4; stroke-width: 1.5"/>
    <path d="M 386.589271 273.307486  L 386.589271 270.05352  " clip-path="url(#p699301064c)" style="fill: none; stroke: #1f77b4; stroke-width: 1.5"/>
    <path d="M 489.981878 294.177412  L 489.981878 292.315116  " clip-path="url(#p699301064c)" style="fill: none; stroke: #1f77b4; stroke-width: 1.5"/>
    <path d="M 541.678182 302.404773  L 541.678182 302.132575  " clip-path="url(#p699301064c)" style="fill: none; stroke: #1f77b4; stroke-width: 1.5"/>
   </g>
   <g id="line2d_25">
    <path d="M 128.107752 84.953063  L 132.77598 96.068975  L 137.444208 106.61916  L 142.112437 116.632412  L 146.780665 126.136056  L 151.448893 135.156028  L 156.117121 143.716943  L 160.785349 151.842165  L 165.453577 159.553868  L 170.121805 166.873096  L 174.790033 173.819825  L 179.976953 181.124555  L 185.163873 188.017401  L 190.350793 194.52159  L 195.537714 200.659034  L 200.724634 206.450414  L 205.911554 211.915243  L 211.098474 217.071932  L 216.285394 221.937858  L 221.991006 226.974084  L 227.696618 231.698836  L 233.40223 236.13138  L 239.107842 240.289787  L 244.813455 244.19101  L 251.037759 248.172239  L 257.262063 251.885628  L 263.486367 255.349197  L 270.229363 258.838946  L 276.972359 262.075085  L 283.196663 264.853153  L 283.196663 264.853153  " clip-path="url(#p699301064c)" style="fill: none; stroke: #ff7f0e; stroke-width: 1.5; stroke-linecap: square"/>
   </g>
   <g id="line2d_26">
    <path d="M 128.107752 84.953063  L 132.77598 96.068975  L 137.444208 106.61916  L 142.112437 116.632412  L 146.780665 126.136056  L 151.448893 135.156028  L 156.117121 143.716943  L 160.785349 151.842165  L 165.453577 159.553868  L 170.121805 166.873096  L 174.790033 173.819825  L 179.976953 181.124555  L 185.163873 188.017401  L 190.350793 194.52159  L 195.537714 200.659034  L 200.724634 206.450414  L 205.911554 211.915243  L 211.098474 217.071932  L 216.285394 221.937858  L 221.991006 226.974084  L 227.696618 231.698836  L 233.40223 236.13138  L 239.107842 240.289787  L 244.813455 244.19101  L 251.037759 248.172239  L 257.262063 251.885628  L 263.486367 255.349197  L 270.229363 258.838946  L 276.972359 262.075085  L 283.196663 264.853153  L 283.196663 264.853153  " clip-path="url(#p699301064c)" style="fill: none; stroke: #ffa500; stroke-width: 1.5; stroke-linecap: square"/>
   </g>
   <g id="line2d_27">
    <path d="M 47.72 67.465955  L 565.2 67.465955  " clip-path="url(#p699301064c)" style="fill: none; stroke-dasharray: 5.55,2.4; stroke-dashoffset: 0; stroke: #32cd32; stroke-width: 1.5"/>
   </g>
   <g id="line2d_28">
    <path d="M 47.72 271.46149  L 565.2 271.46149  " clip-path="url(#p699301064c)" style="fill: none; stroke-dasharray: 5.55,2.4; stroke-dashoffset: 0; stroke: #006400; stroke-width: 1.5"/>
   </g>
   <g id="line2d_29">
    <defs>
     <path id="m9579c124dc" d="M 0 3  C 0.795609 3 1.55874 2.683901 2.12132 2.12132  C 2.683901 1.55874 3 0.795609 3 0  C 3 -0.795609 2.683901 -1.55874 2.12132 -2.12132  C 1.55874 -2.683901 0.795609 -3 0 -3  C -0.795609 -3 -1.55874 -2.683901 -2.12132 -2.12132  C -2.683901 -1.55874 -3 -0.795609 -3 0  C -3 0.795609 -2.683901 1.55874 -2.12132 2.12132  C -1.55874 2.683901 -0.795609 3 0 3  z " style="stroke: #1f77b4"/>
    </defs>
    <g clip-path="url(#p699301064c)">
     <use xlink:href="#m9579c124dc" x="71.241818" y="48.100782" style="fill: #1f77b4; stroke: #1f77b4"/>
     <use xlink:href="#m9579c124dc" x="86.750709" y="67.465955" style="fill: #1f77b4; stroke: #1f77b4"/>
     <use xlink:href="#m9579c124dc" x="107.429231" y="67.465955" style="fill: #1f77b4; stroke: #1f77b4"/>
     <use xlink:href="#m9579c124dc" x="128.107752" y="92.112538" style="fill: #1f77b4; stroke: #1f77b4"/>
     <use xlink:href="#m9579c124dc" x="148.786274" y="123.801003" style="fill: #1f77b4; stroke: #1f77b4"/>
     <use xlink:href="#m9579c124dc" x="169.464795" y="155.489467" style="fill: #1f77b4; stroke: #1f77b4"/>
     <use xlink:href="#m9579c124dc" x="190.143317" y="187.177931" style="fill: #1f77b4; stroke: #1f77b4"/>
     <use xlink:href="#m9579c124dc" x="210.821838" y="213.584985" style="fill: #1f77b4; stroke: #1f77b4"/>
     <use xlink:href="#m9579c124dc" x="231.50036" y="235.150746" style="fill: #1f77b4; stroke: #1f77b4"/>
     <use xlink:href="#m9579c124dc" x="283.196663" y="265.07874" style="fill: #1f77b4; stroke: #1f77b4"/>
     <use xlink:href="#m9579c124dc" x="334.892967" y="271.240386" style="fill: #1f77b4; stroke: #1f77b4"/>
     <use xlink:href="#m9579c124dc" x="386.589271" y="271.680503" style="fill: #1f77b4; stroke: #1f77b4"/>
     <use xlink:href="#m9579c124dc" x="489.981878" y="293.246264" style="fill: #1f77b4; stroke: #1f77b4"/>
     <use xlink:href="#m9579c124dc" x="541.678182" y="302.268674" style="fill: #1f77b4; stroke: #1f77b4"/>
    </g>
   </g>
   <g id="patch_3">
    <path d="M 47.72 315.525  L 47.72 26.88  " style="fill: none; stroke: #000000; stroke-width: 0.8; stroke-linejoin: miter; stroke-linecap: square"/>
   </g>
   <g id="patch_4">
    <path d="M 565.2 315.525  L 565.2 26.88  " style="fill: none; stroke: #000000; stroke-width: 0.8; stroke-linejoin: miter; stroke-linecap: square"/>
   </g>
   <g id="patch_5">
    <path d="M 47.72 315.525  L 565.2 315.525  " style="fill: none; stroke: #000000; stroke-width: 0.8; stroke-linejoin: miter; stroke-linecap: square"/>
   </g>
   <g id="patch_6">
    <path d="M 47.72 26.88  L 565.2 26.88  " style="fill: none; stroke: #000000; stroke-width: 0.8; stroke-linejoin: miter; stroke-linecap: square"/>
   </g>
   <g id="text_9">
    <!-- Strom als Funktion des Abstands -->
    <g transform="translate(208.229687 20.88) scale(0.12 -0.12)">
     <defs>
      <path id="DejaVuSans-61" d="M 2194 1759  Q 1497 1759 1228 1600  Q 959 1441 959 1056  Q 959 750 1161 570  Q 1363 391 1709 391  Q 2188 391 2477 730  Q 2766 1069 2766 1631  L 2766 1759  L 2194 1759  z M 3341 1997  L 3341 0  L 2766 0  L 2766 531  Q 2569 213 2275 61  Q 1981 -91 1556 -91  Q 1019 -91 701 211  Q 384 513 384 1019  Q 384 1609 779 1909  Q 1175 2209 1959 2209  L 2766 2209  L 2766 2266  Q 2766 2663 2505 2880  Q 2244 3097 1772 3097  Q 1472 3097 1187 3025  Q 903 2953 641 2809  L 641 3341  Q 956 3463 1253 3523  Q 1550 3584 1831 3584  Q 2591 3584 2966 3190  Q 3341 2797 3341 1997  z " transform="scale(0.015625)"/>
      <path id="DejaVuSans-6c" d="M 603 4863  L 1178 4863  L 1178 0  L 603 0  L 603 4863  z " transform="scale(0.015625)"/>
      <path id="DejaVuSans-73" d="M 2834 3397  L 2834 2853  Q 2591 2978 2328 3040  Q 2066 3103 1784 3103  Q 1356 3103 1142 2972  Q 928 2841 928 2578  Q 928 2378 1081 2264  Q 1234 2150 1697 2047  L 1894 2003  Q 2506 1872 2764 1633  Q 3022 1394 3022 966  Q 3022 478 2636 193  Q 2250 -91 1575 -91  Q 1294 -91 989 -36  Q 684 19 347 128  L 347 722  Q 666 556 975 473  Q 1284 391 1588 391  Q 1994 391 2212 530  Q 2431 669 2431 922  Q 2431 1156 2273 1281  Q 2116 1406 1581 1522  L 1381 1569  Q 847 1681 609 1914  Q 372 2147 372 2553  Q 372 3047 722 3315  Q 1072 3584 1716 3584  Q 2034 3584 2315 3537  Q 2597 3491 2834 3397  z " transform="scale(0.015625)"/>
      <path id="DejaVuSans-46" d="M 628 4666  L 3309 4666  L 3309 4134  L 1259 4134  L 1259 2759  L 3109 2759  L 3109 2228  L 1259 2228  L 1259 0  L 628 0  L 628 4666  z " transform="scale(0.015625)"/>
      <path id="DejaVuSans-75" d="M 544 1381  L 544 3500  L 1119 3500  L 1119 1403  Q 1119 906 1312 657  Q 1506 409 1894 409  Q 2359 409 2629 706  Q 2900 1003 2900 1516  L 2900 3500  L 3475 3500  L 3475 0  L 2900 0  L 2900 538  Q 2691 219 2414 64  Q 2138 -91 1772 -91  Q 1169 -91 856 284  Q 544 659 544 1381  z M 1991 3584  L 1991 3584  z " transform="scale(0.015625)"/>
      <path id="DejaVuSans-6b" d="M 581 4863  L 1159 4863  L 1159 1991  L 2875 3500  L 3609 3500  L 1753 1863  L 3688 0  L 2938 0  L 1159 1709  L 1159 0  L 581 0  L 581 4863  z " transform="scale(0.015625)"/>
      <path id="DejaVuSans-69" d="M 603 3500  L 1178 3500  L 1178 0  L 603 0  L 603 3500  z M 603 4863  L 1178 4863  L 1178 4134  L 603 4134  L 603 4863  z " transform="scale(0.015625)"/>
      <path id="DejaVuSans-64" d="M 2906 2969  L 2906 4863  L 3481 4863  L 3481 0  L 2906 0  L 2906 525  Q 2725 213 2448 61  Q 2172 -91 1784 -91  Q 1150 -91 751 415  Q 353 922 353 1747  Q 353 2572 751 3078  Q 1150 3584 1784 3584  Q 2172 3584 2448 3432  Q 2725 3281 2906 2969  z M 947 1747  Q 947 1113 1208 752  Q 1469 391 1925 391  Q 2381 391 2643 752  Q 2906 1113 2906 1747  Q 2906 2381 2643 2742  Q 2381 3103 1925 3103  Q 1469 3103 1208 2742  Q 947 2381 947 1747  z " transform="scale(0.015625)"/>
      <path id="DejaVuSans-65" d="M 3597 1894  L 3597 1613  L 953 1613  Q 991 1019 1311 708  Q 1631 397 2203 397  Q 2534 397 2845 478  Q 3156 559 3463 722  L 3463 178  Q 3153 47 2828 -22  Q 2503 -91 2169 -91  Q 1331 -91 842 396  Q 353 884 353 1716  Q 353 2575 817 3079  Q 1281 3584 2069 3584  Q 2775 3584 3186 3129  Q 3597 2675 3597 1894  z M 3022 2063  Q 3016 2534 2758 2815  Q 2500 3097 2075 3097  Q 1594 3097 1305 2825  Q 1016 2553 972 2059  L 3022 2063  z " transform="scale(0.015625)"/>
      <path id="DejaVuSans-62" d="M 3116 1747  Q 3116 2381 2855 2742  Q 2594 3103 2138 3103  Q 1681 3103 1420 2742  Q 1159 2381 1159 1747  Q 1159 1113 1420 752  Q 1681 391 2138 391  Q 2594 391 2855 752  Q 3116 1113 3116 1747  z M 1159 2969  Q 1341 3281 1617 3432  Q 1894 3584 2278 3584  Q 2916 3584 3314 3078  Q 3713 2572 3713 1747  Q 3713 922 3314 415  Q 2916 -91 2278 -91  Q 1894 -91 1617 61  Q 1341 213 1159 525  L 1159 0  L 581 0  L 581 4863  L 1159 4863  L 1159 2969  z " transform="scale(0.015625)"/>
     </defs>
     <use xlink:href="#DejaVuSans-53"/>
     <use xlink:href="#DejaVuSans-74" transform="translate(63.476562 0)"/>
     <use xlink:href="#DejaVuSans-72" transform="translate(102.685547 0)"/>
     <use xlink:href="#DejaVuSans-6f" transform="translate(141.548828 0)"/>
     <use xlink:href="#DejaVuSans-6d" transform="translate(202.730469 0)"/>
     <use xlink:href="#DejaVuSans-20" transform="translate(300.142578 0)"/>
     <use xlink:href="#DejaVuSans-61" transform="translate(331.929688 0)"/>
     <use xlink:href="#DejaVuSans-6c" transform="translate(393.208984 0)"/>
     <use xlink:href="#DejaVuSans-73" transform="translate(420.992188 0)"/>
     <use xlink:href="#DejaVuSans-20" transform="translate(473.091797 0)"/>
     <use xlink:href="#DejaVuSans-46" transform="translate(504.878906 0)"/>
     <use xlink:href="#DejaVuSans-75" transform="translate(556.898438 0)"/>
     <use xlink:href="#DejaVuSans-6e" transform="translate(620.277344 0)"/>
     <use xlink:href="#DejaVuSans-6b" transform="translate(683.65625 0)"/>
     <use xlink:href="#DejaVuSans-74" transform="translate(741.566406 0)"/>
     <use xlink:href="#DejaVuSans-69" transform="translate(780.775391 0)"/>
     <use xlink:href="#DejaVuSans-6f" transform="translate(808.558594 0)"/>
     <use xlink:href="#DejaVuSans-6e" transform="translate(869.740234 0)"/>
     <use xlink:href="#DejaVuSans-20" transform="translate(933.119141 0)"/>
     <use xlink:href="#DejaVuSans-64" transform="translate(964.90625 0)"/>
     <use xlink:href="#DejaVuSans-65" transform="translate(1028.382812 0)"/>
     <use xlink:href="#DejaVuSans-73" transform="translate(1089.90625 0)"/>
     <use xlink:href="#DejaVuSans-20" transform="translate(1142.005859 0)"/>
     <use xlink:href="#DejaVuSans-41" transform="translate(1173.792969 0)"/>
     <use xlink:href="#DejaVuSans-62" transform="translate(1242.201172 0)"/>
     <use xlink:href="#DejaVuSans-73" transform="translate(1305.677734 0)"/>
     <use xlink:href="#DejaVuSans-74" transform="translate(1357.777344 0)"/>
     <use xlink:href="#DejaVuSans-61" transform="translate(1396.986328 0)"/>
     <use xlink:href="#DejaVuSans-6e" transform="translate(1458.265625 0)"/>
     <use xlink:href="#DejaVuSans-64" transform="translate(1521.644531 0)"/>
     <use xlink:href="#DejaVuSans-73" transform="translate(1585.121094 0)"/>
    </g>
   </g>
   <g id="legend_1">
    <g id="patch_7">
     <path d="M 399.83125 216.736875  L 558.2 216.736875  Q 560.2 216.736875 560.2 214.736875  L 560.2 127.668125  Q 560.2 125.668125 558.2 125.668125  L 399.83125 125.668125  Q 397.83125 125.668125 397.83125 127.668125  L 397.83125 214.736875  Q 397.83125 216.736875 399.83125 216.736875  z " style="fill: #ffffff; opacity: 0.8; stroke: #cccccc; stroke-linejoin: miter"/>
    </g>
    <g id="patch_8">
     <path d="M 401.83125 137.266563  L 421.83125 137.266563  L 421.83125 130.266563  L 401.83125 130.266563  z " style="fill: #ffa500; fill-opacity: 0.3; stroke: #ffa500; stroke-opacity: 0.3; stroke-linejoin: miter"/>
    </g>
    <g id="text_10">
     <!-- 3$\sigma$  Unsicherheitsbereich -->
     <g transform="translate(429.83125 137.266563) scale(0.1 -0.1)">
      <defs>
       <path id="DejaVuSans-Oblique-3c3" d="M 2219 3044  Q 1744 3044 1422 2700  Q 1081 2341 969 1747  Q 844 1119 1044 756  Q 1241 397 1706 397  Q 2166 397 2503 759  Q 2844 1122 2966 1747  Q 3075 2319 2881 2700  Q 2700 3044 2219 3044  z M 2309 3503  L 4219 3500  L 4106 2925  L 3463 2925  Q 3706 2438 3575 1747  Q 3406 888 2884 400  Q 2359 -91 1609 -91  Q 856 -91 525 400  Q 194 888 363 1747  Q 528 2609 1050 3097  Q 1484 3503 2309 3503  z " transform="scale(0.015625)"/>
       <path id="DejaVuSans-55" d="M 556 4666  L 1191 4666  L 1191 1831  Q 1191 1081 1462 751  Q 1734 422 2344 422  Q 2950 422 3222 751  Q 3494 1081 3494 1831  L 3494 4666  L 4128 4666  L 4128 1753  Q 4128 841 3676 375  Q 3225 -91 2344 -91  Q 1459 -91 1007 375  Q 556 841 556 1753  L 556 4666  z " transform="scale(0.015625)"/>
       <path id="DejaVuSans-63" d="M 3122 3366  L 3122 2828  Q 2878 2963 2633 3030  Q 2388 3097 2138 3097  Q 1578 3097 1268 2742  Q 959 2388 959 1747  Q 959 1106 1268 751  Q 1578 397 2138 397  Q 2388 397 2633 464  Q 2878 531 3122 666  L 3122 134  Q 2881 22 2623 -34  Q 2366 -91 2075 -91  Q 1284 -91 818 406  Q 353 903 353 1747  Q 353 2603 823 3093  Q 1294 3584 2113 3584  Q 2378 3584 2631 3529  Q 2884 3475 3122 3366  z " transform="scale(0.015625)"/>
       <path id="DejaVuSans-68" d="M 3513 2113  L 3513 0  L 2938 0  L 2938 2094  Q 2938 2591 2744 2837  Q 2550 3084 2163 3084  Q 1697 3084 1428 2787  Q 1159 2491 1159 1978  L 1159 0  L 581 0  L 581 4863  L 1159 4863  L 1159 2956  Q 1366 3272 1645 3428  Q 1925 3584 2291 3584  Q 2894 3584 3203 3211  Q 3513 2838 3513 2113  z " transform="scale(0.015625)"/>
      </defs>
      <use xlink:href="#DejaVuSans-33" transform="translate(0 0.015625)"/>
      <use xlink:href="#DejaVuSans-Oblique-3c3" transform="translate(63.623047 0.015625)"/>
      <use xlink:href="#DejaVuSans-20" transform="translate(127.001953 0.015625)"/>
      <use xlink:href="#DejaVuSans-20" transform="translate(158.789062 0.015625)"/>
      <use xlink:href="#DejaVuSans-55" transform="translate(190.576172 0.015625)"/>
      <use xlink:href="#DejaVuSans-6e" transform="translate(263.769531 0.015625)"/>
      <use xlink:href="#DejaVuSans-73" transform="translate(327.148438 0.015625)"/>
      <use xlink:href="#DejaVuSans-69" transform="translate(379.248047 0.015625)"/>
      <use xlink:href="#DejaVuSans-63" transform="translate(407.03125 0.015625)"/>
      <use xlink:href="#DejaVuSans-68" transform="translate(462.011719 0.015625)"/>
      <use xlink:href="#DejaVuSans-65" transform="translate(525.390625 0.015625)"/>
      <use xlink:href="#DejaVuSans-72" transform="translate(586.914062 0.015625)"/>
      <use xlink:href="#DejaVuSans-68" transform="translate(628.027344 0.015625)"/>
      <use xlink:href="#DejaVuSans-65" transform="translate(691.40625 0.015625)"/>
      <use xlink:href="#DejaVuSans-69" transform="translate(752.929688 0.015625)"/>
      <use xlink:href="#DejaVuSans-74" transform="translate(780.712891 0.015625)"/>
      <use xlink:href="#DejaVuSans-73" transform="translate(819.921875 0.015625)"/>
      <use xlink:href="#DejaVuSans-62" transform="translate(872.021484 0.015625)"/>
      <use xlink:href="#DejaVuSans-65" transform="translate(935.498047 0.015625)"/>
      <use xlink:href="#DejaVuSans-72" transform="translate(997.021484 0.015625)"/>
      <use xlink:href="#DejaVuSans-65" transform="translate(1038.134766 0.015625)"/>
      <use xlink:href="#DejaVuSans-69" transform="translate(1099.658203 0.015625)"/>
      <use xlink:href="#DejaVuSans-63" transform="translate(1127.441406 0.015625)"/>
      <use xlink:href="#DejaVuSans-68" transform="translate(1182.421875 0.015625)"/>
     </g>
    </g>
    <g id="line2d_30">
     <path d="M 401.83125 148.444688  L 411.83125 148.444688  L 421.83125 148.444688  " style="fill: none; stroke: #ffa500; stroke-width: 1.5; stroke-linecap: square"/>
    </g>
    <g id="text_11">
     <!-- Exponentielle Anpassung -->
     <g transform="translate(429.83125 151.944688) scale(0.1 -0.1)">
      <defs>
       <path id="DejaVuSans-45" d="M 628 4666  L 3578 4666  L 3578 4134  L 1259 4134  L 1259 2753  L 3481 2753  L 3481 2222  L 1259 2222  L 1259 531  L 3634 531  L 3634 0  L 628 0  L 628 4666  z " transform="scale(0.015625)"/>
       <path id="DejaVuSans-78" d="M 3513 3500  L 2247 1797  L 3578 0  L 2900 0  L 1881 1375  L 863 0  L 184 0  L 1544 1831  L 300 3500  L 978 3500  L 1906 2253  L 2834 3500  L 3513 3500  z " transform="scale(0.015625)"/>
       <path id="DejaVuSans-70" d="M 1159 525  L 1159 -1331  L 581 -1331  L 581 3500  L 1159 3500  L 1159 2969  Q 1341 3281 1617 3432  Q 1894 3584 2278 3584  Q 2916 3584 3314 3078  Q 3713 2572 3713 1747  Q 3713 922 3314 415  Q 2916 -91 2278 -91  Q 1894 -91 1617 61  Q 1341 213 1159 525  z M 3116 1747  Q 3116 2381 2855 2742  Q 2594 3103 2138 3103  Q 1681 3103 1420 2742  Q 1159 2381 1159 1747  Q 1159 1113 1420 752  Q 1681 391 2138 391  Q 2594 391 2855 752  Q 3116 1113 3116 1747  z " transform="scale(0.015625)"/>
       <path id="DejaVuSans-67" d="M 2906 1791  Q 2906 2416 2648 2759  Q 2391 3103 1925 3103  Q 1463 3103 1205 2759  Q 947 2416 947 1791  Q 947 1169 1205 825  Q 1463 481 1925 481  Q 2391 481 2648 825  Q 2906 1169 2906 1791  z M 3481 434  Q 3481 -459 3084 -895  Q 2688 -1331 1869 -1331  Q 1566 -1331 1297 -1286  Q 1028 -1241 775 -1147  L 775 -588  Q 1028 -725 1275 -790  Q 1522 -856 1778 -856  Q 2344 -856 2625 -561  Q 2906 -266 2906 331  L 2906 616  Q 2728 306 2450 153  Q 2172 0 1784 0  Q 1141 0 747 490  Q 353 981 353 1791  Q 353 2603 747 3093  Q 1141 3584 1784 3584  Q 2172 3584 2450 3431  Q 2728 3278 2906 2969  L 2906 3500  L 3481 3500  L 3481 434  z " transform="scale(0.015625)"/>
      </defs>
      <use xlink:href="#DejaVuSans-45"/>
      <use xlink:href="#DejaVuSans-78" transform="translate(63.183594 0)"/>
      <use xlink:href="#DejaVuSans-70" transform="translate(122.363281 0)"/>
      <use xlink:href="#DejaVuSans-6f" transform="translate(185.839844 0)"/>
      <use xlink:href="#DejaVuSans-6e" transform="translate(247.021484 0)"/>
      <use xlink:href="#DejaVuSans-65" transform="translate(310.400391 0)"/>
      <use xlink:href="#DejaVuSans-6e" transform="translate(371.923828 0)"/>
      <use xlink:href="#DejaVuSans-74" transform="translate(435.302734 0)"/>
      <use xlink:href="#DejaVuSans-69" transform="translate(474.511719 0)"/>
      <use xlink:href="#DejaVuSans-65" transform="translate(502.294922 0)"/>
      <use xlink:href="#DejaVuSans-6c" transform="translate(563.818359 0)"/>
      <use xlink:href="#DejaVuSans-6c" transform="translate(591.601562 0)"/>
      <use xlink:href="#DejaVuSans-65" transform="translate(619.384766 0)"/>
      <use xlink:href="#DejaVuSans-20" transform="translate(680.908203 0)"/>
      <use xlink:href="#DejaVuSans-41" transform="translate(712.695312 0)"/>
      <use xlink:href="#DejaVuSans-6e" transform="translate(781.103516 0)"/>
      <use xlink:href="#DejaVuSans-70" transform="translate(844.482422 0)"/>
      <use xlink:href="#DejaVuSans-61" transform="translate(907.958984 0)"/>
      <use xlink:href="#DejaVuSans-73" transform="translate(969.238281 0)"/>
      <use xlink:href="#DejaVuSans-73" transform="translate(1021.337891 0)"/>
      <use xlink:href="#DejaVuSans-75" transform="translate(1073.4375 0)"/>
      <use xlink:href="#DejaVuSans-6e" transform="translate(1136.816406 0)"/>
      <use xlink:href="#DejaVuSans-67" transform="translate(1200.195312 0)"/>
     </g>
    </g>
    <g id="line2d_31">
     <path d="M 401.83125 163.122813  L 411.83125 163.122813  L 421.83125 163.122813  " style="fill: none; stroke-dasharray: 5.55,2.4; stroke-dashoffset: 0; stroke: #32cd32; stroke-width: 1.5"/>
    </g>
    <g id="text_12">
     <!-- Plateau 1 -->
     <g transform="translate(429.83125 166.622813) scale(0.1 -0.1)">
      <defs>
       <path id="DejaVuSans-50" d="M 1259 4147  L 1259 2394  L 2053 2394  Q 2494 2394 2734 2622  Q 2975 2850 2975 3272  Q 2975 3691 2734 3919  Q 2494 4147 2053 4147  L 1259 4147  z M 628 4666  L 2053 4666  Q 2838 4666 3239 4311  Q 3641 3956 3641 3272  Q 3641 2581 3239 2228  Q 2838 1875 2053 1875  L 1259 1875  L 1259 0  L 628 0  L 628 4666  z " transform="scale(0.015625)"/>
      </defs>
      <use xlink:href="#DejaVuSans-50"/>
      <use xlink:href="#DejaVuSans-6c" transform="translate(60.302734 0)"/>
      <use xlink:href="#DejaVuSans-61" transform="translate(88.085938 0)"/>
      <use xlink:href="#DejaVuSans-74" transform="translate(149.365234 0)"/>
      <use xlink:href="#DejaVuSans-65" transform="translate(188.574219 0)"/>
      <use xlink:href="#DejaVuSans-61" transform="translate(250.097656 0)"/>
      <use xlink:href="#DejaVuSans-75" transform="translate(311.376953 0)"/>
      <use xlink:href="#DejaVuSans-20" transform="translate(374.755859 0)"/>
      <use xlink:href="#DejaVuSans-31" transform="translate(406.542969 0)"/>
     </g>
    </g>
    <g id="patch_9">
     <path d="M 401.83125 181.300938  L 421.83125 181.300938  L 421.83125 174.300938  L 401.83125 174.300938  z " style="fill: #32cd32; fill-opacity: 0.3; stroke: #32cd32; stroke-opacity: 0.3; stroke-linejoin: miter"/>
    </g>
    <g id="text_13">
     <!-- 1 $\sigma$ Unsicherheitsbereich -->
     <g transform="translate(429.83125 181.300938) scale(0.1 -0.1)">
      <use xlink:href="#DejaVuSans-31" transform="translate(0 0.015625)"/>
      <use xlink:href="#DejaVuSans-20" transform="translate(63.623047 0.015625)"/>
      <use xlink:href="#DejaVuSans-Oblique-3c3" transform="translate(95.410156 0.015625)"/>
      <use xlink:href="#DejaVuSans-20" transform="translate(158.789062 0.015625)"/>
      <use xlink:href="#DejaVuSans-55" transform="translate(190.576172 0.015625)"/>
      <use xlink:href="#DejaVuSans-6e" transform="translate(263.769531 0.015625)"/>
      <use xlink:href="#DejaVuSans-73" transform="translate(327.148438 0.015625)"/>
      <use xlink:href="#DejaVuSans-69" transform="translate(379.248047 0.015625)"/>
      <use xlink:href="#DejaVuSans-63" transform="translate(407.03125 0.015625)"/>
      <use xlink:href="#DejaVuSans-68" transform="translate(462.011719 0.015625)"/>
      <use xlink:href="#DejaVuSans-65" transform="translate(525.390625 0.015625)"/>
      <use xlink:href="#DejaVuSans-72" transform="translate(586.914062 0.015625)"/>
      <use xlink:href="#DejaVuSans-68" transform="translate(628.027344 0.015625)"/>
      <use xlink:href="#DejaVuSans-65" transform="translate(691.40625 0.015625)"/>
      <use xlink:href="#DejaVuSans-69" transform="translate(752.929688 0.015625)"/>
      <use xlink:href="#DejaVuSans-74" transform="translate(780.712891 0.015625)"/>
      <use xlink:href="#DejaVuSans-73" transform="translate(819.921875 0.015625)"/>
      <use xlink:href="#DejaVuSans-62" transform="translate(872.021484 0.015625)"/>
      <use xlink:href="#DejaVuSans-65" transform="translate(935.498047 0.015625)"/>
      <use xlink:href="#DejaVuSans-72" transform="translate(997.021484 0.015625)"/>
      <use xlink:href="#DejaVuSans-65" transform="translate(1038.134766 0.015625)"/>
      <use xlink:href="#DejaVuSans-69" transform="translate(1099.658203 0.015625)"/>
      <use xlink:href="#DejaVuSans-63" transform="translate(1127.441406 0.015625)"/>
      <use xlink:href="#DejaVuSans-68" transform="translate(1182.421875 0.015625)"/>
     </g>
    </g>
    <g id="line2d_32">
     <path d="M 401.83125 192.479063  L 411.83125 192.479063  L 421.83125 192.479063  " style="fill: none; stroke-dasharray: 5.55,2.4; stroke-dashoffset: 0; stroke: #006400; stroke-width: 1.5"/>
    </g>
    <g id="text_14">
     <!-- Plateau 2 -->
     <g transform="translate(429.83125 195.979063) scale(0.1 -0.1)">
      <use xlink:href="#DejaVuSans-50"/>
      <use xlink:href="#DejaVuSans-6c" transform="translate(60.302734 0)"/>
      <use xlink:href="#DejaVuSans-61" transform="translate(88.085938 0)"/>
      <use xlink:href="#DejaVuSans-74" transform="translate(149.365234 0)"/>
      <use xlink:href="#DejaVuSans-65" transform="translate(188.574219 0)"/>
      <use xlink:href="#DejaVuSans-61" transform="translate(250.097656 0)"/>
      <use xlink:href="#DejaVuSans-75" transform="translate(311.376953 0)"/>
      <use xlink:href="#DejaVuSans-20" transform="translate(374.755859 0)"/>
      <use xlink:href="#DejaVuSans-32" transform="translate(406.542969 0)"/>
     </g>
    </g>
    <g id="LineCollection_2">
     <path d="M 411.83125 212.157188  L 411.83125 202.157188  " style="fill: none; stroke: #1f77b4; stroke-width: 1.5"/>
    </g>
    <g id="line2d_33"/>
    <g id="line2d_34">
     <g>
      <use xlink:href="#m9579c124dc" x="411.83125" y="207.157188" style="fill: #1f77b4; stroke: #1f77b4"/>
     </g>
    </g>
    <g id="text_15">
     <!-- Daten mit Fehlern -->
     <g transform="translate(429.83125 210.657188) scale(0.1 -0.1)">
      <defs>
       <path id="DejaVuSans-44" d="M 1259 4147  L 1259 519  L 2022 519  Q 2988 519 3436 956  Q 3884 1394 3884 2338  Q 3884 3275 3436 3711  Q 2988 4147 2022 4147  L 1259 4147  z M 628 4666  L 1925 4666  Q 3281 4666 3915 4102  Q 4550 3538 4550 2338  Q 4550 1131 3912 565  Q 3275 0 1925 0  L 628 0  L 628 4666  z " transform="scale(0.015625)"/>
      </defs>
      <use xlink:href="#DejaVuSans-44"/>
      <use xlink:href="#DejaVuSans-61" transform="translate(77.001953 0)"/>
      <use xlink:href="#DejaVuSans-74" transform="translate(138.28125 0)"/>
      <use xlink:href="#DejaVuSans-65" transform="translate(177.490234 0)"/>
      <use xlink:href="#DejaVuSans-6e" transform="translate(239.013672 0)"/>
      <use xlink:href="#DejaVuSans-20" transform="translate(302.392578 0)"/>
      <use xlink:href="#DejaVuSans-6d" transform="translate(334.179688 0)"/>
      <use xlink:href="#DejaVuSans-69" transform="translate(431.591797 0)"/>
      <use xlink:href="#DejaVuSans-74" transform="translate(459.375 0)"/>
      <use xlink:href="#DejaVuSans-20" transform="translate(498.583984 0)"/>
      <use xlink:href="#DejaVuSans-46" transform="translate(530.371094 0)"/>
      <use xlink:href="#DejaVuSans-65" transform="translate(582.390625 0)"/>
      <use xlink:href="#DejaVuSans-68" transform="translate(643.914062 0)"/>
      <use xlink:href="#DejaVuSans-6c" transform="translate(707.292969 0)"/>
      <use xlink:href="#DejaVuSans-65" transform="translate(735.076172 0)"/>
      <use xlink:href="#DejaVuSans-72" transform="translate(796.599609 0)"/>
      <use xlink:href="#DejaVuSans-6e" transform="translate(835.962891 0)"/>
     </g>
    </g>
   </g>
  </g>
  <g id="axes_2">
   <g id="patch_10">
    <path d="M 47.72 426.04  L 565.2 426.04  L 565.2 329.825  L 47.72 329.825  z " style="fill: #ffffff"/>
   </g>
   <g id="matplotlib.axis_3">
    <g id="xtick_6">
     <g id="line2d_35">
      <path d="M 71.241818 426.04  L 71.241818 329.825  " clip-path="url(#p594edbd86f)" style="fill: none; stroke: #b0b0b0; stroke-width: 0.8; stroke-linecap: square"/>
     </g>
     <g id="line2d_36">
      <g>
       <use xlink:href="#mc892fd01a9" x="71.241818" y="426.04" style="stroke: #000000; stroke-width: 0.8"/>
      </g>
     </g>
     <g id="text_16">
      <!-- 0 -->
      <g transform="translate(68.060568 440.638438) scale(0.1 -0.1)">
       <use xlink:href="#DejaVuSans-30"/>
      </g>
     </g>
    </g>
    <g id="xtick_7">
     <g id="line2d_37">
      <path d="M 174.634426 426.04  L 174.634426 329.825  " clip-path="url(#p594edbd86f)" style="fill: none; stroke: #b0b0b0; stroke-width: 0.8; stroke-linecap: square"/>
     </g>
     <g id="line2d_38">
      <g>
       <use xlink:href="#mc892fd01a9" x="174.634426" y="426.04" style="stroke: #000000; stroke-width: 0.8"/>
      </g>
     </g>
     <g id="text_17">
      <!-- 1 -->
      <g transform="translate(171.453176 440.638438) scale(0.1 -0.1)">
       <use xlink:href="#DejaVuSans-31"/>
      </g>
     </g>
    </g>
    <g id="xtick_8">
     <g id="line2d_39">
      <path d="M 278.027033 426.04  L 278.027033 329.825  " clip-path="url(#p594edbd86f)" style="fill: none; stroke: #b0b0b0; stroke-width: 0.8; stroke-linecap: square"/>
     </g>
     <g id="line2d_40">
      <g>
       <use xlink:href="#mc892fd01a9" x="278.027033" y="426.04" style="stroke: #000000; stroke-width: 0.8"/>
      </g>
     </g>
     <g id="text_18">
      <!-- 2 -->
      <g transform="translate(274.845783 440.638438) scale(0.1 -0.1)">
       <use xlink:href="#DejaVuSans-32"/>
      </g>
     </g>
    </g>
    <g id="xtick_9">
     <g id="line2d_41">
      <path d="M 381.41964 426.04  L 381.41964 329.825  " clip-path="url(#p594edbd86f)" style="fill: none; stroke: #b0b0b0; stroke-width: 0.8; stroke-linecap: square"/>
     </g>
     <g id="line2d_42">
      <g>
       <use xlink:href="#mc892fd01a9" x="381.41964" y="426.04" style="stroke: #000000; stroke-width: 0.8"/>
      </g>
     </g>
     <g id="text_19">
      <!-- 3 -->
      <g transform="translate(378.23839 440.638438) scale(0.1 -0.1)">
       <use xlink:href="#DejaVuSans-33"/>
      </g>
     </g>
    </g>
    <g id="xtick_10">
     <g id="line2d_43">
      <path d="M 484.812248 426.04  L 484.812248 329.825  " clip-path="url(#p594edbd86f)" style="fill: none; stroke: #b0b0b0; stroke-width: 0.8; stroke-linecap: square"/>
     </g>
     <g id="line2d_44">
      <g>
       <use xlink:href="#mc892fd01a9" x="484.812248" y="426.04" style="stroke: #000000; stroke-width: 0.8"/>
      </g>
     </g>
     <g id="text_20">
      <!-- 4 -->
      <g transform="translate(481.630998 440.638438) scale(0.1 -0.1)">
       <defs>
        <path id="DejaVuSans-34" d="M 2419 4116  L 825 1625  L 2419 1625  L 2419 4116  z M 2253 4666  L 3047 4666  L 3047 1625  L 3713 1625  L 3713 1100  L 3047 1100  L 3047 0  L 2419 0  L 2419 1100  L 313 1100  L 313 1709  L 2253 4666  z " transform="scale(0.015625)"/>
       </defs>
       <use xlink:href="#DejaVuSans-34"/>
      </g>
     </g>
    </g>
    <g id="text_21">
     <!-- Abstand [cm] -->
     <g transform="translate(272.783437 454.316563) scale(0.1 -0.1)">
      <use xlink:href="#DejaVuSans-41"/>
      <use xlink:href="#DejaVuSans-62" transform="translate(68.408203 0)"/>
      <use xlink:href="#DejaVuSans-73" transform="translate(131.884766 0)"/>
      <use xlink:href="#DejaVuSans-74" transform="translate(183.984375 0)"/>
      <use xlink:href="#DejaVuSans-61" transform="translate(223.193359 0)"/>
      <use xlink:href="#DejaVuSans-6e" transform="translate(284.472656 0)"/>
      <use xlink:href="#DejaVuSans-64" transform="translate(347.851562 0)"/>
      <use xlink:href="#DejaVuSans-20" transform="translate(411.328125 0)"/>
      <use xlink:href="#DejaVuSans-5b" transform="translate(443.115234 0)"/>
      <use xlink:href="#DejaVuSans-63" transform="translate(482.128906 0)"/>
      <use xlink:href="#DejaVuSans-6d" transform="translate(537.109375 0)"/>
      <use xlink:href="#DejaVuSans-5d" transform="translate(634.521484 0)"/>
     </g>
    </g>
   </g>
   <g id="matplotlib.axis_4">
    <g id="ytick_8">
     <g id="line2d_45">
      <path d="M 47.72 391.691483  L 565.2 391.691483  " clip-path="url(#p594edbd86f)" style="fill: none; stroke: #b0b0b0; stroke-width: 0.8; stroke-linecap: square"/>
     </g>
     <g id="line2d_46">
      <g>
       <use xlink:href="#m6da6fe3f7c" x="47.72" y="391.691483" style="stroke: #000000; stroke-width: 0.8"/>
      </g>
     </g>
     <g id="text_22">
      <!-- 0.0 -->
      <g transform="translate(24.816875 395.490702) scale(0.1 -0.1)">
       <use xlink:href="#DejaVuSans-30"/>
       <use xlink:href="#DejaVuSans-2e" transform="translate(63.623047 0)"/>
       <use xlink:href="#DejaVuSans-30" transform="translate(95.410156 0)"/>
      </g>
     </g>
    </g>
    <g id="ytick_9">
     <g id="line2d_47">
      <path d="M 47.72 356.216799  L 565.2 356.216799  " clip-path="url(#p594edbd86f)" style="fill: none; stroke: #b0b0b0; stroke-width: 0.8; stroke-linecap: square"/>
     </g>
     <g id="line2d_48">
      <g>
       <use xlink:href="#m6da6fe3f7c" x="47.72" y="356.216799" style="stroke: #000000; stroke-width: 0.8"/>
      </g>
     </g>
     <g id="text_23">
      <!-- 0.2 -->
      <g transform="translate(24.816875 360.016018) scale(0.1 -0.1)">
       <use xlink:href="#DejaVuSans-30"/>
       <use xlink:href="#DejaVuSans-2e" transform="translate(63.623047 0)"/>
       <use xlink:href="#DejaVuSans-32" transform="translate(95.410156 0)"/>
      </g>
     </g>
    </g>
    <g id="text_24">
     <!-- Residuen [nA] -->
     <g transform="translate(18.737187 412.92) rotate(-90) scale(0.1 -0.1)">
      <defs>
       <path id="DejaVuSans-52" d="M 2841 2188  Q 3044 2119 3236 1894  Q 3428 1669 3622 1275  L 4263 0  L 3584 0  L 2988 1197  Q 2756 1666 2539 1819  Q 2322 1972 1947 1972  L 1259 1972  L 1259 0  L 628 0  L 628 4666  L 2053 4666  Q 2853 4666 3247 4331  Q 3641 3997 3641 3322  Q 3641 2881 3436 2590  Q 3231 2300 2841 2188  z M 1259 4147  L 1259 2491  L 2053 2491  Q 2509 2491 2742 2702  Q 2975 2913 2975 3322  Q 2975 3731 2742 3939  Q 2509 4147 2053 4147  L 1259 4147  z " transform="scale(0.015625)"/>
      </defs>
      <use xlink:href="#DejaVuSans-52"/>
      <use xlink:href="#DejaVuSans-65" transform="translate(64.982422 0)"/>
      <use xlink:href="#DejaVuSans-73" transform="translate(126.505859 0)"/>
      <use xlink:href="#DejaVuSans-69" transform="translate(178.605469 0)"/>
      <use xlink:href="#DejaVuSans-64" transform="translate(206.388672 0)"/>
      <use xlink:href="#DejaVuSans-75" transform="translate(269.865234 0)"/>
      <use xlink:href="#DejaVuSans-65" transform="translate(333.244141 0)"/>
      <use xlink:href="#DejaVuSans-6e" transform="translate(394.767578 0)"/>
      <use xlink:href="#DejaVuSans-20" transform="translate(458.146484 0)"/>
      <use xlink:href="#DejaVuSans-5b" transform="translate(489.933594 0)"/>
      <use xlink:href="#DejaVuSans-6e" transform="translate(528.947266 0)"/>
      <use xlink:href="#DejaVuSans-41" transform="translate(592.326172 0)"/>
      <use xlink:href="#DejaVuSans-5d" transform="translate(660.734375 0)"/>
     </g>
    </g>
   </g>
   <g id="LineCollection_3">
    <path d="M 86.750709 406.912727  L 86.750709 376.470239  " clip-path="url(#p594edbd86f)" style="fill: none; stroke: #32cd32; stroke-width: 1.5"/>
    <path d="M 107.429231 406.912727  L 107.429231 376.470239  " clip-path="url(#p594edbd86f)" style="fill: none; stroke: #32cd32; stroke-width: 1.5"/>
   </g>
   <g id="LineCollection_4">
    <path d="M 334.892967 394.540042  L 334.892967 387.951843  " clip-path="url(#p594edbd86f)" style="fill: none; stroke: #006400; stroke-width: 1.5"/>
    <path d="M 386.589271 395.411292  L 386.589271 388.854327  " clip-path="url(#p594edbd86f)" style="fill: none; stroke: #006400; stroke-width: 1.5"/>
   </g>
   <g id="LineCollection_5">
    <path d="M 128.107752 421.666591  L 128.107752 390.570041  " clip-path="url(#p594edbd86f)" style="fill: none; stroke: #ff0000; stroke-width: 1.5"/>
    <path d="M 148.786274 392.029058  L 148.786274 366.092624  " clip-path="url(#p594edbd86f)" style="fill: none; stroke: #ff0000; stroke-width: 1.5"/>
    <path d="M 169.464795 407.365888  L 169.464795 334.198409  " clip-path="url(#p594edbd86f)" style="fill: none; stroke: #ff0000; stroke-width: 1.5"/>
    <path d="M 190.143317 413.566662  L 190.143317 341.239915  " clip-path="url(#p594edbd86f)" style="fill: none; stroke: #ff0000; stroke-width: 1.5"/>
    <path d="M 210.821838 412.358131  L 210.821838 358.050156  " clip-path="url(#p594edbd86f)" style="fill: none; stroke: #ff0000; stroke-width: 1.5"/>
    <path d="M 231.50036 397.537311  L 231.50036 387.721892  " clip-path="url(#p594edbd86f)" style="fill: none; stroke: #ff0000; stroke-width: 1.5"/>
    <path d="M 283.196663 395.672634  L 283.196663 388.619481  " clip-path="url(#p594edbd86f)" style="fill: none; stroke: #ff0000; stroke-width: 1.5"/>
   </g>
   <g id="line2d_49">
    <path d="M 47.72 391.691483  L 565.2 391.691483  " clip-path="url(#p594edbd86f)" style="fill: none; stroke-dasharray: 5.55,2.4; stroke-dashoffset: 0; stroke: #000000; stroke-width: 1.5"/>
   </g>
   <g id="line2d_50">
    <defs>
     <path id="mb9987ad6b9" d="M 0 3  C 0.795609 3 1.55874 2.683901 2.12132 2.12132  C 2.683901 1.55874 3 0.795609 3 0  C 3 -0.795609 2.683901 -1.55874 2.12132 -2.12132  C 1.55874 -2.683901 0.795609 -3 0 -3  C -0.795609 -3 -1.55874 -2.683901 -2.12132 -2.12132  C -2.683901 -1.55874 -3 -0.795609 -3 0  C -3 0.795609 -2.683901 1.55874 -2.12132 2.12132  C -1.55874 2.683901 -0.795609 3 0 3  z " style="stroke: #32cd32"/>
    </defs>
    <g clip-path="url(#p594edbd86f)">
     <use xlink:href="#mb9987ad6b9" x="86.750709" y="391.691483" style="fill: #32cd32; stroke: #32cd32"/>
     <use xlink:href="#mb9987ad6b9" x="107.429231" y="391.691483" style="fill: #32cd32; stroke: #32cd32"/>
    </g>
   </g>
   <g id="line2d_51">
    <defs>
     <path id="m2d25c6079a" d="M 0 3  C 0.795609 3 1.55874 2.683901 2.12132 2.12132  C 2.683901 1.55874 3 0.795609 3 0  C 3 -0.795609 2.683901 -1.55874 2.12132 -2.12132  C 1.55874 -2.683901 0.795609 -3 0 -3  C -0.795609 -3 -1.55874 -2.683901 -2.12132 -2.12132  C -2.683901 -1.55874 -3 -0.795609 -3 0  C -3 0.795609 -2.683901 1.55874 -2.12132 2.12132  C -1.55874 2.683901 -0.795609 3 0 3  z " style="stroke: #006400"/>
    </defs>
    <g clip-path="url(#p594edbd86f)">
     <use xlink:href="#m2d25c6079a" x="334.892967" y="391.245942" style="fill: #006400; stroke: #006400"/>
     <use xlink:href="#m2d25c6079a" x="386.589271" y="392.132809" style="fill: #006400; stroke: #006400"/>
    </g>
   </g>
   <g id="line2d_52">
    <defs>
     <path id="m438ae62b97" d="M 0 3  C 0.795609 3 1.55874 2.683901 2.12132 2.12132  C 2.683901 1.55874 3 0.795609 3 0  C 3 -0.795609 2.683901 -1.55874 2.12132 -2.12132  C 1.55874 -2.683901 0.795609 -3 0 -3  C -0.795609 -3 -1.55874 -2.683901 -2.12132 -2.12132  C -2.683901 -1.55874 -3 -0.795609 -3 0  C -3 0.795609 -2.683901 1.55874 -2.12132 2.12132  C -1.55874 2.683901 -0.795609 3 0 3  z " style="stroke: #ff0000"/>
    </defs>
    <g clip-path="url(#p594edbd86f)">
     <use xlink:href="#m438ae62b97" x="128.107752" y="406.118316" style="fill: #ff0000; stroke: #ff0000"/>
     <use xlink:href="#m438ae62b97" x="148.786274" y="379.060841" style="fill: #ff0000; stroke: #ff0000"/>
     <use xlink:href="#m438ae62b97" x="169.464795" y="370.782149" style="fill: #ff0000; stroke: #ff0000"/>
     <use xlink:href="#m438ae62b97" x="190.143317" y="377.403289" style="fill: #ff0000; stroke: #ff0000"/>
     <use xlink:href="#m438ae62b97" x="210.821838" y="385.204144" style="fill: #ff0000; stroke: #ff0000"/>
     <use xlink:href="#m438ae62b97" x="231.50036" y="392.629602" style="fill: #ff0000; stroke: #ff0000"/>
     <use xlink:href="#m438ae62b97" x="283.196663" y="392.146057" style="fill: #ff0000; stroke: #ff0000"/>
    </g>
   </g>
   <g id="patch_11">
    <path d="M 47.72 426.04  L 47.72 329.825  " style="fill: none; stroke: #000000; stroke-width: 0.8; stroke-linejoin: miter; stroke-linecap: square"/>
   </g>
   <g id="patch_12">
    <path d="M 565.2 426.04  L 565.2 329.825  " style="fill: none; stroke: #000000; stroke-width: 0.8; stroke-linejoin: miter; stroke-linecap: square"/>
   </g>
   <g id="patch_13">
    <path d="M 47.72 426.04  L 565.2 426.04  " style="fill: none; stroke: #000000; stroke-width: 0.8; stroke-linejoin: miter; stroke-linecap: square"/>
   </g>
   <g id="patch_14">
    <path d="M 47.72 329.825  L 565.2 329.825  " style="fill: none; stroke: #000000; stroke-width: 0.8; stroke-linejoin: miter; stroke-linecap: square"/>
   </g>
   <g id="legend_2">
    <g id="patch_15">
     <path d="M 420.8 383.38125  L 558.2 383.38125  Q 560.2 383.38125 560.2 381.38125  L 560.2 336.825  Q 560.2 334.825 558.2 334.825  L 420.8 334.825  Q 418.8 334.825 418.8 336.825  L 418.8 381.38125  Q 418.8 383.38125 420.8 383.38125  z " style="fill: #ffffff; opacity: 0.8; stroke: #cccccc; stroke-linejoin: miter"/>
    </g>
    <g id="LineCollection_6">
     <path d="M 432.8 347.923438  L 432.8 337.923438  " style="fill: none; stroke: #32cd32; stroke-width: 1.5"/>
    </g>
    <g id="line2d_53"/>
    <g id="line2d_54">
     <g>
      <use xlink:href="#mb9987ad6b9" x="432.8" y="342.923438" style="fill: #32cd32; stroke: #32cd32"/>
     </g>
    </g>
    <g id="text_25">
     <!-- Residuen Plateau 1 -->
     <g transform="translate(450.8 346.423438) scale(0.1 -0.1)">
      <use xlink:href="#DejaVuSans-52"/>
      <use xlink:href="#DejaVuSans-65" transform="translate(64.982422 0)"/>
      <use xlink:href="#DejaVuSans-73" transform="translate(126.505859 0)"/>
      <use xlink:href="#DejaVuSans-69" transform="translate(178.605469 0)"/>
      <use xlink:href="#DejaVuSans-64" transform="translate(206.388672 0)"/>
      <use xlink:href="#DejaVuSans-75" transform="translate(269.865234 0)"/>
      <use xlink:href="#DejaVuSans-65" transform="translate(333.244141 0)"/>
      <use xlink:href="#DejaVuSans-6e" transform="translate(394.767578 0)"/>
      <use xlink:href="#DejaVuSans-20" transform="translate(458.146484 0)"/>
      <use xlink:href="#DejaVuSans-50" transform="translate(489.933594 0)"/>
      <use xlink:href="#DejaVuSans-6c" transform="translate(550.236328 0)"/>
      <use xlink:href="#DejaVuSans-61" transform="translate(578.019531 0)"/>
      <use xlink:href="#DejaVuSans-74" transform="translate(639.298828 0)"/>
      <use xlink:href="#DejaVuSans-65" transform="translate(678.507812 0)"/>
      <use xlink:href="#DejaVuSans-61" transform="translate(740.03125 0)"/>
      <use xlink:href="#DejaVuSans-75" transform="translate(801.310547 0)"/>
      <use xlink:href="#DejaVuSans-20" transform="translate(864.689453 0)"/>
      <use xlink:href="#DejaVuSans-31" transform="translate(896.476562 0)"/>
     </g>
    </g>
    <g id="LineCollection_7">
     <path d="M 432.8 362.601562  L 432.8 352.601562  " style="fill: none; stroke: #006400; stroke-width: 1.5"/>
    </g>
    <g id="line2d_55"/>
    <g id="line2d_56">
     <g>
      <use xlink:href="#m2d25c6079a" x="432.8" y="357.601562" style="fill: #006400; stroke: #006400"/>
     </g>
    </g>
    <g id="text_26">
     <!-- Residuen Plateau 2 -->
     <g transform="translate(450.8 361.101562) scale(0.1 -0.1)">
      <use xlink:href="#DejaVuSans-52"/>
      <use xlink:href="#DejaVuSans-65" transform="translate(64.982422 0)"/>
      <use xlink:href="#DejaVuSans-73" transform="translate(126.505859 0)"/>
      <use xlink:href="#DejaVuSans-69" transform="translate(178.605469 0)"/>
      <use xlink:href="#DejaVuSans-64" transform="translate(206.388672 0)"/>
      <use xlink:href="#DejaVuSans-75" transform="translate(269.865234 0)"/>
      <use xlink:href="#DejaVuSans-65" transform="translate(333.244141 0)"/>
      <use xlink:href="#DejaVuSans-6e" transform="translate(394.767578 0)"/>
      <use xlink:href="#DejaVuSans-20" transform="translate(458.146484 0)"/>
      <use xlink:href="#DejaVuSans-50" transform="translate(489.933594 0)"/>
      <use xlink:href="#DejaVuSans-6c" transform="translate(550.236328 0)"/>
      <use xlink:href="#DejaVuSans-61" transform="translate(578.019531 0)"/>
      <use xlink:href="#DejaVuSans-74" transform="translate(639.298828 0)"/>
      <use xlink:href="#DejaVuSans-65" transform="translate(678.507812 0)"/>
      <use xlink:href="#DejaVuSans-61" transform="translate(740.03125 0)"/>
      <use xlink:href="#DejaVuSans-75" transform="translate(801.310547 0)"/>
      <use xlink:href="#DejaVuSans-20" transform="translate(864.689453 0)"/>
      <use xlink:href="#DejaVuSans-32" transform="translate(896.476562 0)"/>
     </g>
    </g>
    <g id="LineCollection_8">
     <path d="M 432.8 378.78125  L 432.8 368.78125  " style="fill: none; stroke: #ff0000; stroke-width: 1.5"/>
    </g>
    <g id="line2d_57"/>
    <g id="line2d_58">
     <g>
      <use xlink:href="#m438ae62b97" x="432.8" y="373.78125" style="fill: #ff0000; stroke: #ff0000"/>
     </g>
    </g>
    <g id="text_27">
     <!-- Residuen ($\chi^2$ = 2.40) -->
     <g transform="translate(450.8 377.28125) scale(0.1 -0.1)">
      <defs>
       <path id="DejaVuSans-28" d="M 1984 4856  Q 1566 4138 1362 3434  Q 1159 2731 1159 2009  Q 1159 1288 1364 580  Q 1569 -128 1984 -844  L 1484 -844  Q 1016 -109 783 600  Q 550 1309 550 2009  Q 550 2706 781 3412  Q 1013 4119 1484 4856  L 1984 4856  z " transform="scale(0.015625)"/>
       <path id="DejaVuSans-Oblique-3c7" d="M 1922 -781  L 1691 416  L 394 -1334  L -284 -1334  L 1553 1141  L 1269 2613  Q 1194 3006 713 3006  L 559 3006  L 653 3500  L 872 3494  Q 1675 3472 1775 2950  L 2006 1753  L 3303 3503  L 3981 3503  L 2144 1028  L 2428 -444  Q 2503 -838 2984 -838  L 3138 -838  L 3044 -1331  L 2825 -1325  Q 2022 -1303 1922 -781  z " transform="scale(0.015625)"/>
       <path id="DejaVuSans-3d" d="M 678 2906  L 4684 2906  L 4684 2381  L 678 2381  L 678 2906  z M 678 1631  L 4684 1631  L 4684 1100  L 678 1100  L 678 1631  z " transform="scale(0.015625)"/>
       <path id="DejaVuSans-29" d="M 513 4856  L 1013 4856  Q 1481 4119 1714 3412  Q 1947 2706 1947 2009  Q 1947 1309 1714 600  Q 1481 -109 1013 -844  L 513 -844  Q 928 -128 1133 580  Q 1338 1288 1338 2009  Q 1338 2731 1133 3434  Q 928 4138 513 4856  z " transform="scale(0.015625)"/>
      </defs>
      <use xlink:href="#DejaVuSans-52" transform="translate(0 0.765625)"/>
      <use xlink:href="#DejaVuSans-65" transform="translate(69.482422 0.765625)"/>
      <use xlink:href="#DejaVuSans-73" transform="translate(131.005859 0.765625)"/>
      <use xlink:href="#DejaVuSans-69" transform="translate(183.105469 0.765625)"/>
      <use xlink:href="#DejaVuSans-64" transform="translate(210.888672 0.765625)"/>
      <use xlink:href="#DejaVuSans-75" transform="translate(274.365234 0.765625)"/>
      <use xlink:href="#DejaVuSans-65" transform="translate(337.744141 0.765625)"/>
      <use xlink:href="#DejaVuSans-6e" transform="translate(399.267578 0.765625)"/>
      <use xlink:href="#DejaVuSans-20" transform="translate(462.646484 0.765625)"/>
      <use xlink:href="#DejaVuSans-28" transform="translate(494.433594 0.765625)"/>
      <use xlink:href="#DejaVuSans-Oblique-3c7" transform="translate(533.447266 0.765625)"/>
      <use xlink:href="#DejaVuSans-32" transform="translate(597.099661 39.046875) scale(0.7)"/>
      <use xlink:href="#DejaVuSans-20" transform="translate(644.370169 0.765625)"/>
      <use xlink:href="#DejaVuSans-3d" transform="translate(676.157279 0.765625)"/>
      <use xlink:href="#DejaVuSans-20" transform="translate(759.946341 0.765625)"/>
      <use xlink:href="#DejaVuSans-32" transform="translate(791.733451 0.765625)"/>
      <use xlink:href="#DejaVuSans-2e" transform="translate(855.356497 0.765625)"/>
      <use xlink:href="#DejaVuSans-34" transform="translate(887.143607 0.765625)"/>
      <use xlink:href="#DejaVuSans-30" transform="translate(950.766654 0.765625)"/>
      <use xlink:href="#DejaVuSans-29" transform="translate(1014.389701 0.765625)"/>
     </g>
    </g>
   </g>
  </g>
 </g>
 <defs>
  <clipPath id="p699301064c">
   <rect x="47.72" y="26.88" width="517.48" height="288.645"/>
  </clipPath>
  <clipPath id="p594edbd86f">
   <rect x="47.72" y="329.825" width="517.48" height="96.215"/>
  </clipPath>
 </defs>
</svg>