
<!DOCTYPE svg PUBLIC "-//W3C//DTD SVG 1.1//EN" "http://www.w3.org/Graphics/SVG/1.1/DTD/svg11.dtd">
<svg xmlns:xlink="http://www.w3.org/1999/xlink" width="720pt" height="576pt" viewBox="0 0 720 576" xmlns="http://www.w3.org/2000/svg" version="1.1">
 <metadata>
  <rdf:RDF xmlns:dc="http://purl.org/dc/elements/1.1/" xmlns:cc="http://creativecommons.org/ns#" xmlns:rdf="http://www.w3.org/1999/02/22-rdf-syntax-ns#">
   <cc:Work>
    <dc:type rdf:resource="http://purl.org/dc/dcmitype/StillImage"/>
    <dc:date>2026-03-13T16:38:33.888718</dc:date>
    <dc:format>image/svg+xml</dc:format>
    <dc:creator>
     <cc:Agent>
      <dc:title>Matplotlib v3.9.0, https://matplotlib.org/</dc:title>
     </cc:Agent>
    </dc:creator>
   </cc:Work>
  </rdf:RDF>
 </metadata>
 <defs>
  <style type="text/css">*{stroke-linejoin: round; stroke-linecap: butt}</style>
 </defs>
 <g id="figure_1">
  <g id="patch_1">
   <path d="M 0 576  L 720 576  L 720 0  L 0 0  z " style="fill: #ffffff"/>
  </g>
  <g id="axes_1">
   <g id="patch_2">
    <path d="M 68.157896 518.81875  L 702.72 518.81875  L 702.72 36.96  L 68.157896 36.96  z " style="fill: #ffffff"/>
   </g>
   <g id="matplotlib.axis_1">
    <g id="xtick_1">
     <g id="line2d_1">
      <path d="M 97.001628 518.81875  L 97.001628 36.96  " clip-path="url(#pc07c3d22c9)" style="fill: none; stroke: #b0b0b0; stroke-width: 0.8; stroke-linecap: square"/>
     </g>
     <g id="line2d_2">
      <defs>
       <path id="m71c92c0645" d="M 0 0  L 0 3.5  " style="stroke: #000000; stroke-width: 0.8"/>
      </defs>
      <g>
       <use xlink:href="#m71c92c0645" x="97.001628" y="518.81875" style="stroke: #000000; stroke-width: 0.8"/>
      </g>
     </g>
     <g id="text_1">
      <!-- 60.0 -->
      <g transform="translate(81.432878 537.27125) scale(0.16 -0.16)">
       <defs>
        <path id="Arial-BoldMT-36" d="M 3247 3459  L 2397 3366  Q 2366 3628 2234 3753  Q 2103 3878 1894 3878  Q 1616 3878 1423 3628  Q 1231 3378 1181 2588  Q 1509 2975 1997 2975  Q 2547 2975 2939 2556  Q 3331 2138 3331 1475  Q 3331 772 2918 347  Q 2506 -78 1859 -78  Q 1166 -78 719 461  Q 272 1000 272 2228  Q 272 3488 737 4044  Q 1203 4600 1947 4600  Q 2469 4600 2811 4308  Q 3153 4016 3247 3459  z M 1256 1544  Q 1256 1116 1453 883  Q 1650 650 1903 650  Q 2147 650 2309 840  Q 2472 1031 2472 1466  Q 2472 1913 2297 2120  Q 2122 2328 1859 2328  Q 1606 2328 1431 2129  Q 1256 1931 1256 1544  z " transform="scale(0.015625)"/>
        <path id="Arial-BoldMT-30" d="M 1756 4600  Q 2422 4600 2797 4125  Q 3244 3563 3244 2259  Q 3244 959 2794 391  Q 2422 -78 1756 -78  Q 1088 -78 678 436  Q 269 950 269 2269  Q 269 3563 719 4131  Q 1091 4600 1756 4600  z M 1756 3872  Q 1597 3872 1472 3770  Q 1347 3669 1278 3406  Q 1188 3066 1188 2259  Q 1188 1453 1269 1151  Q 1350 850 1473 750  Q 1597 650 1756 650  Q 1916 650 2041 751  Q 2166 853 2234 1116  Q 2325 1453 2325 2259  Q 2325 3066 2244 3367  Q 2163 3669 2039 3770  Q 1916 3872 1756 3872  z " transform="scale(0.015625)"/>
        <path id="Arial-BoldMT-2e" d="M 459 0  L 459 878  L 1338 878  L 1338 0  L 459 0  z " transform="scale(0.015625)"/>
       </defs>
       <use xlink:href="#Arial-BoldMT-36"/>
       <use xlink:href="#Arial-BoldMT-30" x="55.615234"/>
       <use xlink:href="#Arial-BoldMT-2e" x="111.230469"/>
       <use xlink:href="#Arial-BoldMT-30" x="139.013672"/>
      </g>
     </g>
    </g>
    <g id="xtick_2">
     <g id="line2d_3">
      <path d="M 169.110958 518.81875  L 169.110958 36.96  " clip-path="url(#pc07c3d22c9)" style="fill: none; stroke: #b0b0b0; stroke-width: 0.8; stroke-linecap: square"/>
     </g>
     <g id="line2d_4">
      <g>
       <use xlink:href="#m71c92c0645" x="169.110958" y="518.81875" style="stroke: #000000; stroke-width: 0.8"/>
      </g>
     </g>
     <g id="text_2">
      <!-- 62.5 -->
      <g transform="translate(153.542208 537.27125) scale(0.16 -0.16)">
       <defs>
        <path id="Arial-BoldMT-32" d="M 3238 816  L 3238 0  L 159 0  Q 209 463 459 877  Q 709 1291 1447 1975  Q 2041 2528 2175 2725  Q 2356 2997 2356 3263  Q 2356 3556 2198 3714  Q 2041 3872 1763 3872  Q 1488 3872 1325 3706  Q 1163 3541 1138 3156  L 263 3244  Q 341 3969 753 4284  Q 1166 4600 1784 4600  Q 2463 4600 2850 4234  Q 3238 3869 3238 3325  Q 3238 3016 3127 2736  Q 3016 2456 2775 2150  Q 2616 1947 2200 1565  Q 1784 1184 1673 1059  Q 1563 934 1494 816  L 3238 816  z " transform="scale(0.015625)"/>
        <path id="Arial-BoldMT-35" d="M 284 1178  L 1159 1269  Q 1197 972 1381 798  Q 1566 625 1806 625  Q 2081 625 2272 848  Q 2463 1072 2463 1522  Q 2463 1944 2273 2155  Q 2084 2366 1781 2366  Q 1403 2366 1103 2031  L 391 2134  L 841 4519  L 3163 4519  L 3163 3697  L 1506 3697  L 1369 2919  Q 1663 3066 1969 3066  Q 2553 3066 2959 2641  Q 3366 2216 3366 1538  Q 3366 972 3038 528  Q 2591 -78 1797 -78  Q 1163 -78 763 262  Q 363 603 284 1178  z " transform="scale(0.015625)"/>
       </defs>
       <use xlink:href="#Arial-BoldMT-36"/>
       <use xlink:href="#Arial-BoldMT-32" x="55.615234"/>
       <use xlink:href="#Arial-BoldMT-2e" x="111.230469"/>
       <use xlink:href="#Arial-BoldMT-35" x="139.013672"/>
      </g>
     </g>
    </g>
    <g id="xtick_3">
     <g id="line2d_5">
      <path d="M 241.220288 518.81875  L 241.220288 36.96  " clip-path="url(#pc07c3d22c9)" style="fill: none; stroke: #b0b0b0; stroke-width: 0.8; stroke-linecap: square"/>
     </g>
     <g id="line2d_6">
      <g>
       <use xlink:href="#m71c92c0645" x="241.220288" y="518.81875" style="stroke: #000000; stroke-width: 0.8"/>
      </g>
     </g>
     <g id="text_3">
      <!-- 65.0 -->
      <g transform="translate(225.651538 537.27125) scale(0.16 -0.16)">
       <use xlink:href="#Arial-BoldMT-36"/>
       <use xlink:href="#Arial-BoldMT-35" x="55.615234"/>
       <use xlink:href="#Arial-BoldMT-2e" x="111.230469"/>
       <use xlink:href="#Arial-BoldMT-30" x="139.013672"/>
      </g>
     </g>
    </g>
    <g id="xtick_4">
     <g id="line2d_7">
      <path d="M 313.329618 518.81875  L 313.329618 36.96  " clip-path="url(#pc07c3d22c9)" style="fill: none; stroke: #b0b0b0; stroke-width: 0.8; stroke-linecap: square"/>
     </g>
     <g id="line2d_8">
      <g>
       <use xlink:href="#m71c92c0645" x="313.329618" y="518.81875" style="stroke: #000000; stroke-width: 0.8"/>
      </g>
     </g>
     <g id="text_4">
      <!-- 67.5 -->
      <g transform="translate(297.760868 537.27125) scale(0.16 -0.16)">
       <defs>
        <path id="Arial-BoldMT-37" d="M 272 3703  L 272 4519  L 3275 4519  L 3275 3881  Q 2903 3516 2518 2831  Q 2134 2147 1932 1376  Q 1731 606 1734 0  L 888 0  Q 909 950 1279 1937  Q 1650 2925 2269 3703  L 272 3703  z " transform="scale(0.015625)"/>
       </defs>
       <use xlink:href="#Arial-BoldMT-36"/>
       <use xlink:href="#Arial-BoldMT-37" x="55.615234"/>
       <use xlink:href="#Arial-BoldMT-2e" x="111.230469"/>
       <use xlink:href="#Arial-BoldMT-35" x="139.013672"/>
      </g>
     </g>
    </g>
    <g id="xtick_5">
     <g id="line2d_9">
      <path d="M 385.438948 518.81875  L 385.438948 36.96  " clip-path="url(#pc07c3d22c9)" style="fill: none; stroke: #b0b0b0; stroke-width: 0.8; stroke-linecap: square"/>
     </g>
     <g id="line2d_10">
      <g>
       <use xlink:href="#m71c92c0645" x="385.438948" y="518.81875" style="stroke: #000000; stroke-width: 0.8"/>
      </g>
     </g>
     <g id="text_5">
      <!-- 70.0 -->
      <g transform="translate(369.870198 537.27125) scale(0.16 -0.16)">
       <use xlink:href="#Arial-BoldMT-37"/>
       <use xlink:href="#Arial-BoldMT-30" x="55.615234"/>
       <use xlink:href="#Arial-BoldMT-2e" x="111.230469"/>
       <use xlink:href="#Arial-BoldMT-30" x="139.013672"/>
      </g>
     </g>
    </g>
    <g id="xtick_6">
     <g id="line2d_11">
      <path d="M 457.548278 518.81875  L 457.548278 36.96  " clip-path="url(#pc07c3d22c9)" style="fill: none; stroke: #b0b0b0; stroke-width: 0.8; stroke-linecap: square"/>
     </g>
     <g id="line2d_12">
      <g>
       <use xlink:href="#m71c92c0645" x="457.548278" y="518.81875" style="stroke: #000000; stroke-width: 0.8"/>
      </g>
     </g>
     <g id="text_6">
      <!-- 72.5 -->
      <g transform="translate(441.979528 537.27125) scale(0.16 -0.16)">
       <use xlink:href="#Arial-BoldMT-37"/>
       <use xlink:href="#Arial-BoldMT-32" x="55.615234"/>
       <use xlink:href="#Arial-BoldMT-2e" x="111.230469"/>
       <use xlink:href="#Arial-BoldMT-35" x="139.013672"/>
      </g>
     </g>
    </g>
    <g id="xtick_7">
     <g id="line2d_13">
      <path d="M 529.657608 518.81875  L 529.657608 36.96  " clip-path="url(#pc07c3d22c9)" style="fill: none; stroke: #b0b0b0; stroke-width: 0.8; stroke-linecap: square"/>
     </g>
     <g id="line2d_14">
      <g>
       <use xlink:href="#m71c92c0645" x="529.657608" y="518.81875" style="stroke: #000000; stroke-width: 0.8"/>
      </g>
     </g>
     <g id="text_7">
      <!-- 75.0 -->
      <g transform="translate(514.088858 537.27125) scale(0.16 -0.16)">
       <use xlink:href="#Arial-BoldMT-37"/>
       <use xlink:href="#Arial-BoldMT-35" x="55.615234"/>
       <use xlink:href="#Arial-BoldMT-2e" x="111.230469"/>
       <use xlink:href="#Arial-BoldMT-30" x="139.013672"/>
      </g>
     </g>
    </g>
    <g id="xtick_8">
     <g id="line2d_15">
      <path d="M 601.766938 518.81875  L 601.766938 36.96  " clip-path="url(#pc07c3d22c9)" style="fill: none; stroke: #b0b0b0; stroke-width: 0.8; stroke-linecap: square"/>
     </g>
     <g id="line2d_16">
      <g>
       <use xlink:href="#m71c92c0645" x="601.766938" y="518.81875" style="stroke: #000000; stroke-width: 0.8"/>
      </g>
     </g>
     <g id="text_8">
      <!-- 77.5 -->
      <g transform="translate(586.198188 537.27125) scale(0.16 -0.16)">
       <use xlink:href="#Arial-BoldMT-37"/>
       <use xlink:href="#Arial-BoldMT-37" x="55.615234"/>
       <use xlink:href="#Arial-BoldMT-2e" x="111.230469"/>
       <use xlink:href="#Arial-BoldMT-35" x="139.013672"/>
      </g>
     </g>
    </g>
    <g id="xtick_9">
     <g id="line2d_17">
      <path d="M 673.876268 518.81875  L 673.876268 36.96  " clip-path="url(#pc07c3d22c9)" style="fill: none; stroke: #b0b0b0; stroke-width: 0.8; stroke-linecap: square"/>
     </g>
     <g id="line2d_18">
      <g>
       <use xlink:href="#m71c92c0645" x="673.876268" y="518.81875" style="stroke: #000000; stroke-width: 0.8"/>
      </g>
     </g>
     <g id="text_9">
      <!-- 80.0 -->
      <g transform="translate(658.307518 537.27125) scale(0.16 -0.16)">
       <defs>
        <path id="Arial-BoldMT-38" d="M 1025 2472  Q 684 2616 529 2867  Q 375 3119 375 3419  Q 375 3931 733 4265  Q 1091 4600 1750 4600  Q 2403 4600 2764 4265  Q 3125 3931 3125 3419  Q 3125 3100 2959 2851  Q 2794 2603 2494 2472  Q 2875 2319 3073 2025  Q 3272 1731 3272 1347  Q 3272 713 2867 316  Q 2463 -81 1791 -81  Q 1166 -81 750 247  Q 259 634 259 1309  Q 259 1681 443 1992  Q 628 2303 1025 2472  z M 1206 3356  Q 1206 3094 1354 2947  Q 1503 2800 1750 2800  Q 2000 2800 2150 2948  Q 2300 3097 2300 3359  Q 2300 3606 2151 3754  Q 2003 3903 1759 3903  Q 1506 3903 1356 3753  Q 1206 3603 1206 3356  z M 1125 1394  Q 1125 1031 1311 828  Q 1497 625 1775 625  Q 2047 625 2225 820  Q 2403 1016 2403 1384  Q 2403 1706 2222 1901  Q 2041 2097 1763 2097  Q 1441 2097 1283 1875  Q 1125 1653 1125 1394  z " transform="scale(0.015625)"/>
       </defs>
       <use xlink:href="#Arial-BoldMT-38"/>
       <use xlink:href="#Arial-BoldMT-30" x="55.615234"/>
       <use xlink:href="#Arial-BoldMT-2e" x="111.230469"/>
       <use xlink:href="#Arial-BoldMT-30" x="139.013672"/>
      </g>
     </g>
    </g>
    <g id="text_10">
     <!-- Argonanteil [%] -->
     <g transform="translate(326.332698 556.07625) scale(0.16 -0.16)">
      <defs>
       <path id="Arial-BoldMT-41" d="M 4597 0  L 3591 0  L 3191 1041  L 1359 1041  L 981 0  L 0 0  L 1784 4581  L 2763 4581  L 4597 0  z M 2894 1813  L 2263 3513  L 1644 1813  L 2894 1813  z " transform="scale(0.015625)"/>
       <path id="Arial-BoldMT-72" d="M 1300 0  L 422 0  L 422 3319  L 1238 3319  L 1238 2847  Q 1447 3181 1614 3287  Q 1781 3394 1994 3394  Q 2294 3394 2572 3228  L 2300 2463  Q 2078 2606 1888 2606  Q 1703 2606 1575 2504  Q 1447 2403 1373 2137  Q 1300 1872 1300 1025  L 1300 0  z " transform="scale(0.015625)"/>
       <path id="Arial-BoldMT-67" d="M 378 -219  L 1381 -341  Q 1406 -516 1497 -581  Q 1622 -675 1891 -675  Q 2234 -675 2406 -572  Q 2522 -503 2581 -350  Q 2622 -241 2622 53  L 2622 538  Q 2228 0 1628 0  Q 959 0 569 566  Q 263 1013 263 1678  Q 263 2513 664 2953  Q 1066 3394 1663 3394  Q 2278 3394 2678 2853  L 2678 3319  L 3500 3319  L 3500 341  Q 3500 -247 3403 -537  Q 3306 -828 3131 -993  Q 2956 -1159 2664 -1253  Q 2372 -1347 1925 -1347  Q 1081 -1347 728 -1058  Q 375 -769 375 -325  Q 375 -281 378 -219  z M 1163 1728  Q 1163 1200 1367 954  Q 1572 709 1872 709  Q 2194 709 2416 961  Q 2638 1213 2638 1706  Q 2638 2222 2425 2472  Q 2213 2722 1888 2722  Q 1572 2722 1367 2476  Q 1163 2231 1163 1728  z " transform="scale(0.015625)"/>
       <path id="Arial-BoldMT-6f" d="M 256 1706  Q 256 2144 472 2553  Q 688 2963 1083 3178  Q 1478 3394 1966 3394  Q 2719 3394 3200 2905  Q 3681 2416 3681 1669  Q 3681 916 3195 420  Q 2709 -75 1972 -75  Q 1516 -75 1102 131  Q 688 338 472 736  Q 256 1134 256 1706  z M 1156 1659  Q 1156 1166 1390 903  Q 1625 641 1969 641  Q 2313 641 2545 903  Q 2778 1166 2778 1666  Q 2778 2153 2545 2415  Q 2313 2678 1969 2678  Q 1625 2678 1390 2415  Q 1156 2153 1156 1659  z " transform="scale(0.015625)"/>
       <path id="Arial-BoldMT-6e" d="M 3478 0  L 2600 0  L 2600 1694  Q 2600 2231 2544 2389  Q 2488 2547 2361 2634  Q 2234 2722 2056 2722  Q 1828 2722 1647 2597  Q 1466 2472 1398 2265  Q 1331 2059 1331 1503  L 1331 0  L 453 0  L 453 3319  L 1269 3319  L 1269 2831  Q 1703 3394 2363 3394  Q 2653 3394 2893 3289  Q 3134 3184 3257 3021  Q 3381 2859 3429 2653  Q 3478 2447 3478 2063  L 3478 0  z " transform="scale(0.015625)"/>
       <path id="Arial-BoldMT-61" d="M 1116 2306  L 319 2450  Q 453 2931 781 3162  Q 1109 3394 1756 3394  Q 2344 3394 2631 3255  Q 2919 3116 3036 2902  Q 3153 2688 3153 2116  L 3144 1091  Q 3144 653 3186 445  Q 3228 238 3344 0  L 2475 0  Q 2441 88 2391 259  Q 2369 338 2359 363  Q 2134 144 1878 34  Q 1622 -75 1331 -75  Q 819 -75 523 203  Q 228 481 228 906  Q 228 1188 362 1408  Q 497 1628 739 1745  Q 981 1863 1438 1950  Q 2053 2066 2291 2166  L 2291 2253  Q 2291 2506 2166 2614  Q 2041 2722 1694 2722  Q 1459 2722 1328 2630  Q 1197 2538 1116 2306  z M 2291 1594  Q 2122 1538 1756 1459  Q 1391 1381 1278 1306  Q 1106 1184 1106 997  Q 1106 813 1243 678  Q 1381 544 1594 544  Q 1831 544 2047 700  Q 2206 819 2256 991  Q 2291 1103 2291 1419  L 2291 1594  z " transform="scale(0.015625)"/>
       <path id="Arial-BoldMT-74" d="M 1981 3319  L 1981 2619  L 1381 2619  L 1381 1281  Q 1381 875 1398 808  Q 1416 741 1477 697  Q 1538 653 1625 653  Q 1747 653 1978 738  L 2053 56  Q 1747 -75 1359 -75  Q 1122 -75 931 4  Q 741 84 652 211  Q 563 338 528 553  Q 500 706 500 1172  L 500 2619  L 97 2619  L 97 3319  L 500 3319  L 500 3978  L 1381 4491  L 1381 3319  L 1981 3319  z " transform="scale(0.015625)"/>
       <path id="Arial-BoldMT-65" d="M 2381 1056  L 3256 909  Q 3088 428 2723 176  Q 2359 -75 1813 -75  Q 947 -75 531 491  Q 203 944 203 1634  Q 203 2459 634 2926  Q 1066 3394 1725 3394  Q 2466 3394 2894 2905  Q 3322 2416 3303 1406  L 1103 1406  Q 1113 1016 1316 798  Q 1519 581 1822 581  Q 2028 581 2168 693  Q 2309 806 2381 1056  z M 2431 1944  Q 2422 2325 2234 2523  Q 2047 2722 1778 2722  Q 1491 2722 1303 2513  Q 1116 2303 1119 1944  L 2431 1944  z " transform="scale(0.015625)"/>
       <path id="Arial-BoldMT-69" d="M 459 3769  L 459 4581  L 1338 4581  L 1338 3769  L 459 3769  z M 459 0  L 459 3319  L 1338 3319  L 1338 0  L 459 0  z " transform="scale(0.015625)"/>
       <path id="Arial-BoldMT-6c" d="M 459 0  L 459 4581  L 1338 4581  L 1338 0  L 459 0  z " transform="scale(0.015625)"/>
       <path id="Arial-BoldMT-20" transform="scale(0.015625)"/>
       <path id="Arial-BoldMT-5b" d="M 456 -1291  L 456 4581  L 2013 4581  L 2013 3891  L 1291 3891  L 1291 -600  L 2013 -600  L 2013 -1291  L 456 -1291  z " transform="scale(0.015625)"/>
       <path id="Arial-BoldMT-25" d="M 278 3450  Q 278 4066 548 4362  Q 819 4659 1281 4659  Q 1759 4659 2029 4364  Q 2300 4069 2300 3450  Q 2300 2834 2029 2537  Q 1759 2241 1297 2241  Q 819 2241 548 2536  Q 278 2831 278 3450  z M 963 3456  Q 963 3009 1066 2856  Q 1144 2744 1281 2744  Q 1422 2744 1500 2856  Q 1600 3009 1600 3456  Q 1600 3903 1500 4053  Q 1422 4169 1281 4169  Q 1144 4169 1066 4056  Q 963 3903 963 3456  z M 1950 -175  L 1300 -175  L 3741 4659  L 4372 4659  L 1950 -175  z M 3369 1028  Q 3369 1644 3639 1941  Q 3909 2238 4378 2238  Q 4850 2238 5120 1941  Q 5391 1644 5391 1028  Q 5391 409 5120 112  Q 4850 -184 4388 -184  Q 3909 -184 3639 112  Q 3369 409 3369 1028  z M 4053 1031  Q 4053 584 4156 434  Q 4234 319 4372 319  Q 4513 319 4588 431  Q 4691 584 4691 1031  Q 4691 1478 4591 1631  Q 4513 1744 4372 1744  Q 4231 1744 4156 1631  Q 4053 1478 4053 1031  z " transform="scale(0.015625)"/>
       <path id="Arial-BoldMT-5d" d="M 1675 4581  L 1675 -1291  L 119 -1291  L 119 -600  L 841 -600  L 841 3897  L 119 3897  L 119 4581  L 1675 4581  z " transform="scale(0.015625)"/>
      </defs>
      <use xlink:href="#Arial-BoldMT-41"/>
      <use xlink:href="#Arial-BoldMT-72" x="72.216797"/>
      <use xlink:href="#Arial-BoldMT-67" x="111.132812"/>
      <use xlink:href="#Arial-BoldMT-6f" x="172.216797"/>
      <use xlink:href="#Arial-BoldMT-6e" x="233.300781"/>
      <use xlink:href="#Arial-BoldMT-61" x="294.384766"/>
      <use xlink:href="#Arial-BoldMT-6e" x="350"/>
      <use xlink:href="#Arial-BoldMT-74" x="411.083984"/>
      <use xlink:href="#Arial-BoldMT-65" x="444.384766"/>
      <use xlink:href="#Arial-BoldMT-69" x="500"/>
      <use xlink:href="#Arial-BoldMT-6c" x="527.783203"/>
      <use xlink:href="#Arial-BoldMT-20" x="555.566406"/>
      <use xlink:href="#Arial-BoldMT-5b" x="583.349609"/>
      <use xlink:href="#Arial-BoldMT-25" x="616.650391"/>
      <use xlink:href="#Arial-BoldMT-5d" x="705.566406"/>
     </g>
    </g>
   </g>
   <g id="matplotlib.axis_2">
    <g id="ytick_1">
     <g id="line2d_19">
      <path d="M 68.157896 478.001823  L 702.72 478.001823  " clip-path="url(#pc07c3d22c9)" style="fill: none; stroke: #b0b0b0; stroke-width: 0.8; stroke-linecap: square"/>
     </g>
     <g id="line2d_20">
      <defs>
       <path id="m6afb274fc0" d="M 0 0  L -3.5 0  " style="stroke: #000000; stroke-width: 0.8"/>
      </defs>
      <g>
       <use xlink:href="#m6afb274fc0" x="68.157896" y="478.001823" style="stroke: #000000; stroke-width: 0.8"/>
      </g>
     </g>
     <g id="text_11">
      <!-- $\mathdefault{10^{3}}$ -->
      <g transform="translate(36.037896 486.263073) scale(0.16 -0.16)">
       <defs>
        <path id="Arial-BoldMT-31" d="M 2519 0  L 1641 0  L 1641 3309  Q 1159 2859 506 2644  L 506 3441  Q 850 3553 1253 3867  Q 1656 4181 1806 4600  L 2519 4600  L 2519 0  z " transform="scale(0.015625)"/>
        <path id="Arial-BoldMT-33" d="M 241 1216  L 1091 1319  Q 1131 994 1309 822  Q 1488 650 1741 650  Q 2013 650 2198 856  Q 2384 1063 2384 1413  Q 2384 1744 2206 1937  Q 2028 2131 1772 2131  Q 1603 2131 1369 2066  L 1466 2781  Q 1822 2772 2009 2936  Q 2197 3100 2197 3372  Q 2197 3603 2059 3740  Q 1922 3878 1694 3878  Q 1469 3878 1309 3722  Q 1150 3566 1116 3266  L 306 3403  Q 391 3819 561 4067  Q 731 4316 1036 4458  Q 1341 4600 1719 4600  Q 2366 4600 2756 4188  Q 3078 3850 3078 3425  Q 3078 2822 2419 2463  Q 2813 2378 3048 2084  Q 3284 1791 3284 1375  Q 3284 772 2843 347  Q 2403 -78 1747 -78  Q 1125 -78 715 280  Q 306 638 241 1216  z " transform="scale(0.015625)"/>
       </defs>
       <use xlink:href="#Arial-BoldMT-31" transform="translate(0 0.99375)"/>
       <use xlink:href="#Arial-BoldMT-30" transform="translate(55.615234 0.99375)"/>
       <use xlink:href="#Arial-BoldMT-33" transform="translate(112.972813 70.6875) scale(0.7)"/>
      </g>
     </g>
    </g>
    <g id="ytick_2">
     <g id="line2d_21">
      <path d="M 68.157896 288.552493  L 702.72 288.552493  " clip-path="url(#pc07c3d22c9)" style="fill: none; stroke: #b0b0b0; stroke-width: 0.8; stroke-linecap: square"/>
     </g>
     <g id="line2d_22">
      <g>
       <use xlink:href="#m6afb274fc0" x="68.157896" y="288.552493" style="stroke: #000000; stroke-width: 0.8"/>
      </g>
     </g>
     <g id="text_12">
      <!-- $\mathdefault{10^{4}}$ -->
      <g transform="translate(36.037896 296.813743) scale(0.16 -0.16)">
       <defs>
        <path id="Arial-BoldMT-34" d="M 1994 0  L 1994 922  L 119 922  L 119 1691  L 2106 4600  L 2844 4600  L 2844 1694  L 3413 1694  L 3413 922  L 2844 922  L 2844 0  L 1994 0  z M 1994 1694  L 1994 3259  L 941 1694  L 1994 1694  z " transform="scale(0.015625)"/>
       </defs>
       <use xlink:href="#Arial-BoldMT-31" transform="translate(0 0.99375)"/>
       <use xlink:href="#Arial-BoldMT-30" transform="translate(55.615234 0.99375)"/>
       <use xlink:href="#Arial-BoldMT-34" transform="translate(112.972813 70.6875) scale(0.7)"/>
      </g>
     </g>
    </g>
    <g id="ytick_3">
     <g id="line2d_23">
      <path d="M 68.157896 99.103163  L 702.72 99.103163  " clip-path="url(#pc07c3d22c9)" style="fill: none; stroke: #b0b0b0; stroke-width: 0.8; stroke-linecap: square"/>
     </g>
     <g id="line2d_24">
      <g>
       <use xlink:href="#m6afb274fc0" x="68.157896" y="99.103163" style="stroke: #000000; stroke-width: 0.8"/>
      </g>
     </g>
     <g id="text_13">
      <!-- $\mathdefault{10^{5}}$ -->
      <g transform="translate(36.037896 107.284413) scale(0.16 -0.16)">
       <use xlink:href="#Arial-BoldMT-31" transform="translate(0 0.879688)"/>
       <use xlink:href="#Arial-BoldMT-30" transform="translate(55.615234 0.879688)"/>
       <use xlink:href="#Arial-BoldMT-35" transform="translate(112.972813 70.573438) scale(0.7)"/>
      </g>
     </g>
    </g>
    <g id="ytick_4">
     <g id="line2d_25">
      <defs>
       <path id="m5807f6bdbe" d="M 0 0  L -2 0  " style="stroke: #000000; stroke-width: 0.6"/>
      </defs>
      <g>
       <use xlink:href="#m5807f6bdbe" x="68.157896" y="507.347895" style="stroke: #000000; stroke-width: 0.6"/>
      </g>
     </g>
    </g>
    <g id="ytick_5">
     <g id="line2d_26">
      <g>
       <use xlink:href="#m5807f6bdbe" x="68.157896" y="496.36136" style="stroke: #000000; stroke-width: 0.6"/>
      </g>
     </g>
    </g>
    <g id="ytick_6">
     <g id="line2d_27">
      <g>
       <use xlink:href="#m5807f6bdbe" x="68.157896" y="486.670549" style="stroke: #000000; stroke-width: 0.6"/>
      </g>
     </g>
    </g>
    <g id="ytick_7">
     <g id="line2d_28">
      <g>
       <use xlink:href="#m5807f6bdbe" x="68.157896" y="420.971892" style="stroke: #000000; stroke-width: 0.6"/>
      </g>
     </g>
    </g>
    <g id="ytick_8">
     <g id="line2d_29">
      <g>
       <use xlink:href="#m5807f6bdbe" x="68.157896" y="387.611521" style="stroke: #000000; stroke-width: 0.6"/>
      </g>
     </g>
    </g>
    <g id="ytick_9">
     <g id="line2d_30">
      <g>
       <use xlink:href="#m5807f6bdbe" x="68.157896" y="363.941961" style="stroke: #000000; stroke-width: 0.6"/>
      </g>
     </g>
    </g>
    <g id="ytick_10">
     <g id="line2d_31">
      <g>
       <use xlink:href="#m5807f6bdbe" x="68.157896" y="345.582424" style="stroke: #000000; stroke-width: 0.6"/>
      </g>
     </g>
    </g>
    <g id="ytick_11">
     <g id="line2d_32">
      <g>
       <use xlink:href="#m5807f6bdbe" x="68.157896" y="330.58159" style="stroke: #000000; stroke-width: 0.6"/>
      </g>
     </g>
    </g>
    <g id="ytick_12">
     <g id="line2d_33">
      <g>
       <use xlink:href="#m5807f6bdbe" x="68.157896" y="317.898565" style="stroke: #000000; stroke-width: 0.6"/>
      </g>
     </g>
    </g>
    <g id="ytick_13">
     <g id="line2d_34">
      <g>
       <use xlink:href="#m5807f6bdbe" x="68.157896" y="306.91203" style="stroke: #000000; stroke-width: 0.6"/>
      </g>
     </g>
    </g>
    <g id="ytick_14">
     <g id="line2d_35">
      <g>
       <use xlink:href="#m5807f6bdbe" x="68.157896" y="297.221219" style="stroke: #000000; stroke-width: 0.6"/>
      </g>
     </g>
    </g>
    <g id="ytick_15">
     <g id="line2d_36">
      <g>
       <use xlink:href="#m5807f6bdbe" x="68.157896" y="231.522562" style="stroke: #000000; stroke-width: 0.6"/>
      </g>
     </g>
    </g>
    <g id="ytick_16">
     <g id="line2d_37">
      <g>
       <use xlink:href="#m5807f6bdbe" x="68.157896" y="198.162191" style="stroke: #000000; stroke-width: 0.6"/>
      </g>
     </g>
    </g>
    <g id="ytick_17">
     <g id="line2d_38">
      <g>
       <use xlink:href="#m5807f6bdbe" x="68.157896" y="174.492631" style="stroke: #000000; stroke-width: 0.6"/>
      </g>
     </g>
    </g>
    <g id="ytick_18">
     <g id="line2d_39">
      <g>
       <use xlink:href="#m5807f6bdbe" x="68.157896" y="156.133094" style="stroke: #000000; stroke-width: 0.6"/>
      </g>
     </g>
    </g>
    <g id="ytick_19">
     <g id="line2d_40">
      <g>
       <use xlink:href="#m5807f6bdbe" x="68.157896" y="141.13226" style="stroke: #000000; stroke-width: 0.6"/>
      </g>
     </g>
    </g>
    <g id="ytick_20">
     <g id="line2d_41">
      <g>
       <use xlink:href="#m5807f6bdbe" x="68.157896" y="128.449235" style="stroke: #000000; stroke-width: 0.6"/>
      </g>
     </g>
    </g>
    <g id="ytick_21">
     <g id="line2d_42">
      <g>
       <use xlink:href="#m5807f6bdbe" x="68.157896" y="117.4627" style="stroke: #000000; stroke-width: 0.6"/>
      </g>
     </g>
    </g>
    <g id="ytick_22">
     <g id="line2d_43">
      <g>
       <use xlink:href="#m5807f6bdbe" x="68.157896" y="107.771889" style="stroke: #000000; stroke-width: 0.6"/>
      </g>
     </g>
    </g>
    <g id="ytick_23">
     <g id="line2d_44">
      <g>
       <use xlink:href="#m5807f6bdbe" x="68.157896" y="42.073232" style="stroke: #000000; stroke-width: 0.6"/>
      </g>
     </g>
    </g>
    <g id="text_14">
     <!-- Gain -->
     <g transform="translate(28.880396 295.669375) rotate(-90) scale(0.16 -0.16)">
      <defs>
       <path id="Arial-BoldMT-47" d="M 2597 1684  L 2597 2456  L 4591 2456  L 4591 631  Q 4300 350 3748 136  Q 3197 -78 2631 -78  Q 1913 -78 1378 223  Q 844 525 575 1086  Q 306 1647 306 2306  Q 306 3022 606 3578  Q 906 4134 1484 4431  Q 1925 4659 2581 4659  Q 3434 4659 3914 4301  Q 4394 3944 4531 3313  L 3613 3141  Q 3516 3478 3248 3673  Q 2981 3869 2581 3869  Q 1975 3869 1617 3484  Q 1259 3100 1259 2344  Q 1259 1528 1621 1120  Q 1984 713 2572 713  Q 2863 713 3155 827  Q 3447 941 3656 1103  L 3656 1684  L 2597 1684  z " transform="scale(0.015625)"/>
      </defs>
      <use xlink:href="#Arial-BoldMT-47"/>
      <use xlink:href="#Arial-BoldMT-61" x="77.783203"/>
      <use xlink:href="#Arial-BoldMT-69" x="133.398438"/>
      <use xlink:href="#Arial-BoldMT-6e" x="161.181641"/>
     </g>
    </g>
   </g>
   <g id="LineCollection_1">
    <path d="M 97.001628 496.91608  L 97.001628 437.434263  " clip-path="url(#pc07c3d22c9)" style="fill: none; stroke: #1f77b4; stroke-width: 2"/>
    <path d="M 385.438948 325.506844  L 385.438948 306.453759  " clip-path="url(#pc07c3d22c9)" style="fill: none; stroke: #1f77b4; stroke-width: 2"/>
    <path d="M 673.876268 156.569632  L 673.876268 134.819129  " clip-path="url(#pc07c3d22c9)" style="fill: none; stroke: #1f77b4; stroke-width: 2"/>
   </g>
   <g id="LineCollection_2">
    <path d="M 97.001628 461.135654  L 97.001628 414.288064  " clip-path="url(#pc07c3d22c9)" style="fill: none; stroke: #ff7f0e; stroke-width: 2"/>
    <path d="M 385.438948 292.947424  L 385.438948 275.484116  " clip-path="url(#pc07c3d22c9)" style="fill: none; stroke: #ff7f0e; stroke-width: 2"/>
    <path d="M 673.876268 122.615881  L 673.876268 96.922829  " clip-path="url(#pc07c3d22c9)" style="fill: none; stroke: #ff7f0e; stroke-width: 2"/>
   </g>
   <g id="LineCollection_3">
    <path d="M 97.001628 426.639735  L 97.001628 391.041579  " clip-path="url(#pc07c3d22c9)" style="fill: none; stroke: #2ca02c; stroke-width: 2"/>
    <path d="M 385.438948 261.836756  L 385.438948 243.352472  " clip-path="url(#pc07c3d22c9)" style="fill: none; stroke: #2ca02c; stroke-width: 2"/>
    <path d="M 673.876268 89.01015  L 673.876268 58.86267  " clip-path="url(#pc07c3d22c9)" style="fill: none; stroke: #2ca02c; stroke-width: 2"/>
   </g>
   <g id="line2d_45">
    <path d="M 97.001628 461.913026  L 385.438948 315.430007  L 673.876268 144.977725  " clip-path="url(#pc07c3d22c9)" style="fill: none; stroke-dasharray: 12.8,3.2,2,3.2; stroke-dashoffset: 0; stroke: #1f77b4; stroke-width: 2"/>
    <defs>
     <path id="m04d7ccbe14" d="M 0 3  C 0.795609 3 1.55874 2.683901 2.12132 2.12132  C 2.683901 1.55874 3 0.795609 3 0  C 3 -0.795609 2.683901 -1.55874 2.12132 -2.12132  C 1.55874 -2.683901 0.795609 -3 0 -3  C -0.795609 -3 -1.55874 -2.683901 -2.12132 -2.12132  C -2.683901 -1.55874 -3 -0.795609 -3 0  C -3 0.795609 -2.683901 1.55874 -2.12132 2.12132  C -1.55874 2.683901 -0.795609 3 0 3  z " style="stroke: #1f77b4"/>
    </defs>
    <g clip-path="url(#pc07c3d22c9)">
     <use xlink:href="#m04d7ccbe14" x="97.001628" y="461.913026" style="fill: #1f77b4; stroke: #1f77b4"/>
     <use xlink:href="#m04d7ccbe14" x="385.438948" y="315.430007" style="fill: #1f77b4; stroke: #1f77b4"/>
     <use xlink:href="#m04d7ccbe14" x="673.876268" y="144.977725" style="fill: #1f77b4; stroke: #1f77b4"/>
    </g>
   </g>
   <g id="line2d_46">
    <path d="M 97.001628 434.421631  L 385.438948 283.753312  L 673.876268 108.770489  " clip-path="url(#pc07c3d22c9)" style="fill: none; stroke-dasharray: 12.8,3.2,2,3.2; stroke-dashoffset: 0; stroke: #ff7f0e; stroke-width: 2"/>
    <defs>
     <path id="me581ae5e52" d="M 0 3  C 0.795609 3 1.55874 2.683901 2.12132 2.12132  C 2.683901 1.55874 3 0.795609 3 0  C 3 -0.795609 2.683901 -1.55874 2.12132 -2.12132  C 1.55874 -2.683901 0.795609 -3 0 -3  C -0.795609 -3 -1.55874 -2.683901 -2.12132 -2.12132  C -2.683901 -1.55874 -3 -0.795609 -3 0  C -3 0.795609 -2.683901 1.55874 -2.12132 2.12132  C -1.55874 2.683901 -0.795609 3 0 3  z " style="stroke: #ff7f0e"/>
    </defs>
    <g clip-path="url(#pc07c3d22c9)">
     <use xlink:href="#me581ae5e52" x="97.001628" y="434.421631" style="fill: #ff7f0e; stroke: #ff7f0e"/>
     <use xlink:href="#me581ae5e52" x="385.438948" y="283.753312" style="fill: #ff7f0e; stroke: #ff7f0e"/>
     <use xlink:href="#me581ae5e52" x="673.876268" y="108.770489" style="fill: #ff7f0e; stroke: #ff7f0e"/>
    </g>
   </g>
   <g id="line2d_47">
    <path d="M 97.001628 406.930237  L 385.438948 252.076618  L 673.876268 72.563254  " clip-path="url(#pc07c3d22c9)" style="fill: none; stroke-dasharray: 12.8,3.2,2,3.2; stroke-dashoffset: 0; stroke: #2ca02c; stroke-width: 2"/>
    <defs>
     <path id="m56e454d340" d="M 0 3  C 0.795609 3 1.55874 2.683901 2.12132 2.12132  C 2.683901 1.55874 3 0.795609 3 0  C 3 -0.795609 2.683901 -1.55874 2.12132 -2.12132  C 1.55874 -2.683901 0.795609 -3 0 -3  C -0.795609 -3 -1.55874 -2.683901 -2.12132 -2.12132  C -2.683901 -1.55874 -3 -0.795609 -3 0  C -3 0.795609 -2.683901 1.55874 -2.12132 2.12132  C -1.55874 2.683901 -0.795609 3 0 3  z " style="stroke: #2ca02c"/>
    </defs>
    <g clip-path="url(#pc07c3d22c9)">
     <use xlink:href="#m56e454d340" x="97.001628" y="406.930237" style="fill: #2ca02c; stroke: #2ca02c"/>
     <use xlink:href="#m56e454d340" x="385.438948" y="252.076618" style="fill: #2ca02c; stroke: #2ca02c"/>
     <use xlink:href="#m56e454d340" x="673.876268" y="72.563254" style="fill: #2ca02c; stroke: #2ca02c"/>
    </g>
   </g>
   <g id="patch_3">
    <path d="M 68.157896 518.81875  L 68.157896 36.96  " style="fill: none; stroke: #000000; stroke-width: 1.2; stroke-linejoin: miter; stroke-linecap: square"/>
   </g>
   <g id="patch_4">
    <path d="M 702.72 518.81875  L 702.72 36.96  " style="fill: none; stroke: #000000; stroke-width: 1.2; stroke-linejoin: miter; stroke-linecap: square"/>
   </g>
   <g id="patch_5">
    <path d="M 68.157896 518.81875  L 702.72 518.81875  " style="fill: none; stroke: #000000; stroke-width: 1.2; stroke-linejoin: miter; stroke-linecap: square"/>
   </g>
   <g id="patch_6">
    <path d="M 68.157896 36.96  L 702.72 36.96  " style="fill: none; stroke: #000000; stroke-width: 1.2; stroke-linejoin: miter; stroke-linecap: square"/>
   </g>
   <g id="text_15">
    <!-- Gain als Funktion des Argonanteils bei verschiedenen Spannungen -->
    <g transform="translate(99.393448 30.96) scale(0.192 -0.192)">
     <defs>
      <path id="ArialMT-47" d="M 2638 1797  L 2638 2334  L 4578 2338  L 4578 638  Q 4131 281 3656 101  Q 3181 -78 2681 -78  Q 2006 -78 1454 211  Q 903 500 622 1047  Q 341 1594 341 2269  Q 341 2938 620 3517  Q 900 4097 1425 4378  Q 1950 4659 2634 4659  Q 3131 4659 3532 4498  Q 3934 4338 4162 4050  Q 4391 3763 4509 3300  L 3963 3150  Q 3859 3500 3706 3700  Q 3553 3900 3268 4020  Q 2984 4141 2638 4141  Q 2222 4141 1919 4014  Q 1616 3888 1430 3681  Q 1244 3475 1141 3228  Q 966 2803 966 2306  Q 966 1694 1177 1281  Q 1388 869 1791 669  Q 2194 469 2647 469  Q 3041 469 3416 620  Q 3791 772 3984 944  L 3984 1797  L 2638 1797  z " transform="scale(0.015625)"/>
      <path id="ArialMT-61" d="M 2588 409  Q 2275 144 1986 34  Q 1697 -75 1366 -75  Q 819 -75 525 192  Q 231 459 231 875  Q 231 1119 342 1320  Q 453 1522 633 1644  Q 813 1766 1038 1828  Q 1203 1872 1538 1913  Q 2219 1994 2541 2106  Q 2544 2222 2544 2253  Q 2544 2597 2384 2738  Q 2169 2928 1744 2928  Q 1347 2928 1158 2789  Q 969 2650 878 2297  L 328 2372  Q 403 2725 575 2942  Q 747 3159 1072 3276  Q 1397 3394 1825 3394  Q 2250 3394 2515 3294  Q 2781 3194 2906 3042  Q 3031 2891 3081 2659  Q 3109 2516 3109 2141  L 3109 1391  Q 3109 606 3145 398  Q 3181 191 3288 0  L 2700 0  Q 2613 175 2588 409  z M 2541 1666  Q 2234 1541 1622 1453  Q 1275 1403 1131 1340  Q 988 1278 909 1158  Q 831 1038 831 891  Q 831 666 1001 516  Q 1172 366 1500 366  Q 1825 366 2078 508  Q 2331 650 2450 897  Q 2541 1088 2541 1459  L 2541 1666  z " transform="scale(0.015625)"/>
      <path id="ArialMT-69" d="M 425 3934  L 425 4581  L 988 4581  L 988 3934  L 425 3934  z M 425 0  L 425 3319  L 988 3319  L 988 0  L 425 0  z " transform="scale(0.015625)"/>
      <path id="ArialMT-6e" d="M 422 0  L 422 3319  L 928 3319  L 928 2847  Q 1294 3394 1984 3394  Q 2284 3394 2536 3286  Q 2788 3178 2913 3003  Q 3038 2828 3088 2588  Q 3119 2431 3119 2041  L 3119 0  L 2556 0  L 2556 2019  Q 2556 2363 2490 2533  Q 2425 2703 2258 2804  Q 2091 2906 1866 2906  Q 1506 2906 1245 2678  Q 984 2450 984 1813  L 984 0  L 422 0  z " transform="scale(0.015625)"/>
      <path id="ArialMT-20" transform="scale(0.015625)"/>
      <path id="ArialMT-6c" d="M 409 0  L 409 4581  L 972 4581  L 972 0  L 409 0  z " transform="scale(0.015625)"/>
      <path id="ArialMT-73" d="M 197 991  L 753 1078  Q 800 744 1014 566  Q 1228 388 1613 388  Q 2000 388 2187 545  Q 2375 703 2375 916  Q 2375 1106 2209 1216  Q 2094 1291 1634 1406  Q 1016 1563 777 1677  Q 538 1791 414 1992  Q 291 2194 291 2438  Q 291 2659 392 2848  Q 494 3038 669 3163  Q 800 3259 1026 3326  Q 1253 3394 1513 3394  Q 1903 3394 2198 3281  Q 2494 3169 2634 2976  Q 2775 2784 2828 2463  L 2278 2388  Q 2241 2644 2061 2787  Q 1881 2931 1553 2931  Q 1166 2931 1000 2803  Q 834 2675 834 2503  Q 834 2394 903 2306  Q 972 2216 1119 2156  Q 1203 2125 1616 2013  Q 2213 1853 2448 1751  Q 2684 1650 2818 1456  Q 2953 1263 2953 975  Q 2953 694 2789 445  Q 2625 197 2315 61  Q 2006 -75 1616 -75  Q 969 -75 630 194  Q 291 463 197 991  z " transform="scale(0.015625)"/>
      <path id="ArialMT-46" d="M 525 0  L 525 4581  L 3616 4581  L 3616 4041  L 1131 4041  L 1131 2622  L 3281 2622  L 3281 2081  L 1131 2081  L 1131 0  L 525 0  z " transform="scale(0.015625)"/>
      <path id="ArialMT-75" d="M 2597 0  L 2597 488  Q 2209 -75 1544 -75  Q 1250 -75 995 37  Q 741 150 617 320  Q 494 491 444 738  Q 409 903 409 1263  L 409 3319  L 972 3319  L 972 1478  Q 972 1038 1006 884  Q 1059 663 1231 536  Q 1403 409 1656 409  Q 1909 409 2131 539  Q 2353 669 2445 892  Q 2538 1116 2538 1541  L 2538 3319  L 3100 3319  L 3100 0  L 2597 0  z " transform="scale(0.015625)"/>
      <path id="ArialMT-6b" d="M 425 0  L 425 4581  L 988 4581  L 988 1969  L 2319 3319  L 3047 3319  L 1778 2088  L 3175 0  L 2481 0  L 1384 1697  L 988 1316  L 988 0  L 425 0  z " transform="scale(0.015625)"/>
      <path id="ArialMT-74" d="M 1650 503  L 1731 6  Q 1494 -44 1306 -44  Q 1000 -44 831 53  Q 663 150 594 308  Q 525 466 525 972  L 525 2881  L 113 2881  L 113 3319  L 525 3319  L 525 4141  L 1084 4478  L 1084 3319  L 1650 3319  L 1650 2881  L 1084 2881  L 1084 941  Q 1084 700 1114 631  Q 1144 563 1211 522  Q 1278 481 1403 481  Q 1497 481 1650 503  z " transform="scale(0.015625)"/>
      <path id="ArialMT-6f" d="M 213 1659  Q 213 2581 725 3025  Q 1153 3394 1769 3394  Q 2453 3394 2887 2945  Q 3322 2497 3322 1706  Q 3322 1066 3130 698  Q 2938 331 2570 128  Q 2203 -75 1769 -75  Q 1072 -75 642 372  Q 213 819 213 1659  z M 791 1659  Q 791 1022 1069 705  Q 1347 388 1769 388  Q 2188 388 2466 706  Q 2744 1025 2744 1678  Q 2744 2294 2464 2611  Q 2184 2928 1769 2928  Q 1347 2928 1069 2612  Q 791 2297 791 1659  z " transform="scale(0.015625)"/>
      <path id="ArialMT-64" d="M 2575 0  L 2575 419  Q 2259 -75 1647 -75  Q 1250 -75 917 144  Q 584 363 401 755  Q 219 1147 219 1656  Q 219 2153 384 2558  Q 550 2963 881 3178  Q 1213 3394 1622 3394  Q 1922 3394 2156 3267  Q 2391 3141 2538 2938  L 2538 4581  L 3097 4581  L 3097 0  L 2575 0  z M 797 1656  Q 797 1019 1065 703  Q 1334 388 1700 388  Q 2069 388 2326 689  Q 2584 991 2584 1609  Q 2584 2291 2321 2609  Q 2059 2928 1675 2928  Q 1300 2928 1048 2622  Q 797 2316 797 1656  z " transform="scale(0.015625)"/>
      <path id="ArialMT-65" d="M 2694 1069  L 3275 997  Q 3138 488 2766 206  Q 2394 -75 1816 -75  Q 1088 -75 661 373  Q 234 822 234 1631  Q 234 2469 665 2931  Q 1097 3394 1784 3394  Q 2450 3394 2872 2941  Q 3294 2488 3294 1666  Q 3294 1616 3291 1516  L 816 1516  Q 847 969 1125 678  Q 1403 388 1819 388  Q 2128 388 2347 550  Q 2566 713 2694 1069  z M 847 1978  L 2700 1978  Q 2663 2397 2488 2606  Q 2219 2931 1791 2931  Q 1403 2931 1139 2672  Q 875 2413 847 1978  z " transform="scale(0.015625)"/>
      <path id="ArialMT-41" d="M -9 0  L 1750 4581  L 2403 4581  L 4278 0  L 3588 0  L 3053 1388  L 1138 1388  L 634 0  L -9 0  z M 1313 1881  L 2866 1881  L 2388 3150  Q 2169 3728 2063 4100  Q 1975 3659 1816 3225  L 1313 1881  z " transform="scale(0.015625)"/>
      <path id="ArialMT-72" d="M 416 0  L 416 3319  L 922 3319  L 922 2816  Q 1116 3169 1280 3281  Q 1444 3394 1641 3394  Q 1925 3394 2219 3213  L 2025 2691  Q 1819 2813 1613 2813  Q 1428 2813 1281 2702  Q 1134 2591 1072 2394  Q 978 2094 978 1738  L 978 0  L 416 0  z " transform="scale(0.015625)"/>
      <path id="ArialMT-67" d="M 319 -275  L 866 -356  Q 900 -609 1056 -725  Q 1266 -881 1628 -881  Q 2019 -881 2231 -725  Q 2444 -569 2519 -288  Q 2563 -116 2559 434  Q 2191 0 1641 0  Q 956 0 581 494  Q 206 988 206 1678  Q 206 2153 378 2554  Q 550 2956 876 3175  Q 1203 3394 1644 3394  Q 2231 3394 2613 2919  L 2613 3319  L 3131 3319  L 3131 450  Q 3131 -325 2973 -648  Q 2816 -972 2473 -1159  Q 2131 -1347 1631 -1347  Q 1038 -1347 672 -1080  Q 306 -813 319 -275  z M 784 1719  Q 784 1066 1043 766  Q 1303 466 1694 466  Q 2081 466 2343 764  Q 2606 1063 2606 1700  Q 2606 2309 2336 2618  Q 2066 2928 1684 2928  Q 1309 2928 1046 2623  Q 784 2319 784 1719  z " transform="scale(0.015625)"/>
      <path id="ArialMT-62" d="M 941 0  L 419 0  L 419 4581  L 981 4581  L 981 2947  Q 1338 3394 1891 3394  Q 2197 3394 2470 3270  Q 2744 3147 2920 2923  Q 3097 2700 3197 2384  Q 3297 2069 3297 1709  Q 3297 856 2875 390  Q 2453 -75 1863 -75  Q 1275 -75 941 416  L 941 0  z M 934 1684  Q 934 1088 1097 822  Q 1363 388 1816 388  Q 2184 388 2453 708  Q 2722 1028 2722 1663  Q 2722 2313 2464 2622  Q 2206 2931 1841 2931  Q 1472 2931 1203 2611  Q 934 2291 934 1684  z " transform="scale(0.015625)"/>
      <path id="ArialMT-76" d="M 1344 0  L 81 3319  L 675 3319  L 1388 1331  Q 1503 1009 1600 663  Q 1675 925 1809 1294  L 2547 3319  L 3125 3319  L 1869 0  L 1344 0  z " transform="scale(0.015625)"/>
      <path id="ArialMT-63" d="M 2588 1216  L 3141 1144  Q 3050 572 2676 248  Q 2303 -75 1759 -75  Q 1078 -75 664 370  Q 250 816 250 1647  Q 250 2184 428 2587  Q 606 2991 970 3192  Q 1334 3394 1763 3394  Q 2303 3394 2647 3120  Q 2991 2847 3088 2344  L 2541 2259  Q 2463 2594 2264 2762  Q 2066 2931 1784 2931  Q 1359 2931 1093 2626  Q 828 2322 828 1663  Q 828 994 1084 691  Q 1341 388 1753 388  Q 2084 388 2306 591  Q 2528 794 2588 1216  z " transform="scale(0.015625)"/>
      <path id="ArialMT-68" d="M 422 0  L 422 4581  L 984 4581  L 984 2938  Q 1378 3394 1978 3394  Q 2347 3394 2619 3248  Q 2891 3103 3008 2847  Q 3125 2591 3125 2103  L 3125 0  L 2563 0  L 2563 2103  Q 2563 2525 2380 2717  Q 2197 2909 1863 2909  Q 1613 2909 1392 2779  Q 1172 2650 1078 2428  Q 984 2206 984 1816  L 984 0  L 422 0  z " transform="scale(0.015625)"/>
      <path id="ArialMT-53" d="M 288 1472  L 859 1522  Q 900 1178 1048 958  Q 1197 738 1509 602  Q 1822 466 2213 466  Q 2559 466 2825 569  Q 3091 672 3220 851  Q 3350 1031 3350 1244  Q 3350 1459 3225 1620  Q 3100 1781 2813 1891  Q 2628 1963 1997 2114  Q 1366 2266 1113 2400  Q 784 2572 623 2826  Q 463 3081 463 3397  Q 463 3744 659 4045  Q 856 4347 1234 4503  Q 1613 4659 2075 4659  Q 2584 4659 2973 4495  Q 3363 4331 3572 4012  Q 3781 3694 3797 3291  L 3216 3247  Q 3169 3681 2898 3903  Q 2628 4125 2100 4125  Q 1550 4125 1298 3923  Q 1047 3722 1047 3438  Q 1047 3191 1225 3031  Q 1400 2872 2139 2705  Q 2878 2538 3153 2413  Q 3553 2228 3743 1945  Q 3934 1663 3934 1294  Q 3934 928 3725 604  Q 3516 281 3123 101  Q 2731 -78 2241 -78  Q 1619 -78 1198 103  Q 778 284 539 648  Q 300 1013 288 1472  z " transform="scale(0.015625)"/>
      <path id="ArialMT-70" d="M 422 -1272  L 422 3319  L 934 3319  L 934 2888  Q 1116 3141 1344 3267  Q 1572 3394 1897 3394  Q 2322 3394 2647 3175  Q 2972 2956 3137 2557  Q 3303 2159 3303 1684  Q 3303 1175 3120 767  Q 2938 359 2589 142  Q 2241 -75 1856 -75  Q 1575 -75 1351 44  Q 1128 163 984 344  L 984 -1272  L 422 -1272  z M 931 1641  Q 931 1000 1190 694  Q 1450 388 1819 388  Q 2194 388 2461 705  Q 2728 1022 2728 1688  Q 2728 2322 2467 2637  Q 2206 2953 1844 2953  Q 1484 2953 1207 2617  Q 931 2281 931 1641  z " transform="scale(0.015625)"/>
     </defs>
     <use xlink:href="#ArialMT-47"/>
     <use xlink:href="#ArialMT-61" x="77.783203"/>
     <use xlink:href="#ArialMT-69" x="133.398438"/>
     <use xlink:href="#ArialMT-6e" x="155.615234"/>
     <use xlink:href="#ArialMT-20" x="211.230469"/>
     <use xlink:href="#ArialMT-61" x="239.013672"/>
     <use xlink:href="#ArialMT-6c" x="294.628906"/>
     <use xlink:href="#ArialMT-73" x="316.845703"/>
     <use xlink:href="#ArialMT-20" x="366.845703"/>
     <use xlink:href="#ArialMT-46" x="394.628906"/>
     <use xlink:href="#ArialMT-75" x="455.712891"/>
     <use xlink:href="#ArialMT-6e" x="511.328125"/>
     <use xlink:href="#ArialMT-6b" x="566.943359"/>
     <use xlink:href="#ArialMT-74" x="616.943359"/>
     <use xlink:href="#ArialMT-69" x="644.726562"/>
     <use xlink:href="#ArialMT-6f" x="666.943359"/>
     <use xlink:href="#ArialMT-6e" x="722.558594"/>
     <use xlink:href="#ArialMT-20" x="778.173828"/>
     <use xlink:href="#ArialMT-64" x="805.957031"/>
     <use xlink:href="#ArialMT-65" x="861.572266"/>
     <use xlink:href="#ArialMT-73" x="917.1875"/>
     <use xlink:href="#ArialMT-20" x="967.1875"/>
     <use xlink:href="#ArialMT-41" x="989.470703"/>
     <use xlink:href="#ArialMT-72" x="1056.169922"/>
     <use xlink:href="#ArialMT-67" x="1089.470703"/>
     <use xlink:href="#ArialMT-6f" x="1145.085938"/>
     <use xlink:href="#ArialMT-6e" x="1200.701172"/>
     <use xlink:href="#ArialMT-61" x="1256.316406"/>
     <use xlink:href="#ArialMT-6e" x="1311.931641"/>
     <use xlink:href="#ArialMT-74" x="1367.546875"/>
     <use xlink:href="#ArialMT-65" x="1395.330078"/>
     <use xlink:href="#ArialMT-69" x="1450.945312"/>
     <use xlink:href="#ArialMT-6c" x="1473.162109"/>
     <use xlink:href="#ArialMT-73" x="1495.378906"/>
     <use xlink:href="#ArialMT-20" x="1545.378906"/>
     <use xlink:href="#ArialMT-62" x="1573.162109"/>
     <use xlink:href="#ArialMT-65" x="1628.777344"/>
     <use xlink:href="#ArialMT-69" x="1684.392578"/>
     <use xlink:href="#ArialMT-20" x="1706.609375"/>
     <use xlink:href="#ArialMT-76" x="1734.392578"/>
     <use xlink:href="#ArialMT-65" x="1784.392578"/>
     <use xlink:href="#ArialMT-72" x="1840.007812"/>
     <use xlink:href="#ArialMT-73" x="1873.308594"/>
     <use xlink:href="#ArialMT-63" x="1923.308594"/>
     <use xlink:href="#ArialMT-68" x="1973.308594"/>
     <use xlink:href="#ArialMT-69" x="2028.923828"/>
     <use xlink:href="#ArialMT-65" x="2051.140625"/>
     <use xlink:href="#ArialMT-64" x="2106.755859"/>
     <use xlink:href="#ArialMT-65" x="2162.371094"/>
     <use xlink:href="#ArialMT-6e" x="2217.986328"/>
     <use xlink:href="#ArialMT-65" x="2273.601562"/>
     <use xlink:href="#ArialMT-6e" x="2329.216797"/>
     <use xlink:href="#ArialMT-20" x="2384.832031"/>
     <use xlink:href="#ArialMT-53" x="2412.615234"/>
     <use xlink:href="#ArialMT-70" x="2479.314453"/>
     <use xlink:href="#ArialMT-61" x="2534.929688"/>
     <use xlink:href="#ArialMT-6e" x="2590.544922"/>
     <use xlink:href="#ArialMT-6e" x="2646.160156"/>
     <use xlink:href="#ArialMT-75" x="2701.775391"/>
     <use xlink:href="#ArialMT-6e" x="2757.390625"/>
     <use xlink:href="#ArialMT-67" x="2813.005859"/>
     <use xlink:href="#ArialMT-65" x="2868.621094"/>
     <use xlink:href="#ArialMT-6e" x="2924.236328"/>
    </g>
   </g>
   <g id="legend_1">
    <g id="patch_7">
     <path d="M 79.357896 117.59  L 211.055396 117.59  Q 214.255396 117.59 214.255396 114.39  L 214.255396 48.16  Q 214.255396 44.96 211.055396 44.96  L 79.357896 44.96  Q 76.157896 44.96 76.157896 48.16  L 76.157896 114.39  Q 76.157896 117.59 79.357896 117.59  z " style="fill: #ffffff; opacity: 0.8; stroke: #cccccc; stroke-linejoin: miter"/>
    </g>
    <g id="LineCollection_4">
     <path d="M 98.557896 65.2125  L 98.557896 49.2125  " style="fill: none; stroke: #1f77b4; stroke-width: 2"/>
    </g>
    <g id="line2d_48">
     <path d="M 82.557896 57.2125  L 114.557896 57.2125  " style="fill: none; stroke-dasharray: 12.8,3.2,2,3.2; stroke-dashoffset: 0; stroke: #1f77b4; stroke-width: 2"/>
    </g>
    <g id="line2d_49">
     <g>
      <use xlink:href="#m04d7ccbe14" x="98.557896" y="57.2125" style="fill: #1f77b4; stroke: #1f77b4"/>
     </g>
    </g>
    <g id="text_16">
     <!-- U = 3200 V -->
     <g transform="translate(127.357896 62.8125) scale(0.16 -0.16)">
      <defs>
       <path id="Arial-BoldMT-55" d="M 459 4581  L 1384 4581  L 1384 2100  Q 1384 1509 1419 1334  Q 1478 1053 1701 883  Q 1925 713 2313 713  Q 2706 713 2906 873  Q 3106 1034 3147 1268  Q 3188 1503 3188 2047  L 3188 4581  L 4113 4581  L 4113 2175  Q 4113 1350 4038 1009  Q 3963 669 3761 434  Q 3559 200 3221 61  Q 2884 -78 2341 -78  Q 1684 -78 1345 73  Q 1006 225 809 467  Q 613 709 550 975  Q 459 1369 459 2138  L 459 4581  z " transform="scale(0.015625)"/>
       <path id="Arial-BoldMT-3d" d="M 266 2550  L 266 3356  L 3469 3356  L 3469 2550  L 266 2550  z M 266 1163  L 266 1972  L 3469 1972  L 3469 1163  L 266 1163  z " transform="scale(0.015625)"/>
       <path id="Arial-BoldMT-56" d="M 1634 0  L -3 4581  L 1000 4581  L 2159 1191  L 3281 4581  L 4263 4581  L 2622 0  L 1634 0  z " transform="scale(0.015625)"/>
      </defs>
      <use xlink:href="#Arial-BoldMT-55"/>
      <use xlink:href="#Arial-BoldMT-20" x="72.216797"/>
      <use xlink:href="#Arial-BoldMT-3d" x="100"/>
      <use xlink:href="#Arial-BoldMT-20" x="158.398438"/>
      <use xlink:href="#Arial-BoldMT-33" x="186.181641"/>
      <use xlink:href="#Arial-BoldMT-32" x="241.796875"/>
      <use xlink:href="#Arial-BoldMT-30" x="297.412109"/>
      <use xlink:href="#Arial-BoldMT-30" x="353.027344"/>
      <use xlink:href="#Arial-BoldMT-20" x="408.642578"/>
      <use xlink:href="#Arial-BoldMT-56" x="436.425781"/>
     </g>
    </g>
    <g id="LineCollection_5">
     <path d="M 98.557896 87.8225  L 98.557896 71.8225  " style="fill: none; stroke: #ff7f0e; stroke-width: 2"/>
    </g>
    <g id="line2d_50">
     <path d="M 82.557896 79.8225  L 114.557896 79.8225  " style="fill: none; stroke-dasharray: 12.8,3.2,2,3.2; stroke-dashoffset: 0; stroke: #ff7f0e; stroke-width: 2"/>
    </g>
    <g id="line2d_51">
     <g>
      <use xlink:href="#me581ae5e52" x="98.557896" y="79.8225" style="fill: #ff7f0e; stroke: #ff7f0e"/>
     </g>
    </g>
    <g id="text_17">
     <!-- U = 3250 V -->
     <g transform="translate(127.357896 85.4225) scale(0.16 -0.16)">
      <use xlink:href="#Arial-BoldMT-55"/>
      <use xlink:href="#Arial-BoldMT-20" x="72.216797"/>
      <use xlink:href="#Arial-BoldMT-3d" x="100"/>
      <use xlink:href="#Arial-BoldMT-20" x="158.398438"/>
      <use xlink:href="#Arial-BoldMT-33" x="186.181641"/>
      <use xlink:href="#Arial-BoldMT-32" x="241.796875"/>
      <use xlink:href="#Arial-BoldMT-35" x="297.412109"/>
      <use xlink:href="#Arial-BoldMT-30" x="353.027344"/>
      <use xlink:href="#Arial-BoldMT-20" x="408.642578"/>
      <use xlink:href="#Arial-BoldMT-56" x="436.425781"/>
     </g>
    </g>
    <g id="LineCollection_6">
     <path d="M 98.557896 110.4325  L 98.557896 94.4325  " style="fill: none; stroke: #2ca02c; stroke-width: 2"/>
    </g>
    <g id="line2d_52">
     <path d="M 82.557896 102.4325  L 114.557896 102.4325  " style="fill: none; stroke-dasharray: 12.8,3.2,2,3.2; stroke-dashoffset: 0; stroke: #2ca02c; stroke-width: 2"/>
    </g>
    <g id="line2d_53">
     <g>
      <use xlink:href="#m56e454d340" x="98.557896" y="102.4325" style="fill: #2ca02c; stroke: #2ca02c"/>
     </g>
    </g>
    <g id="text_18">
     <!-- U = 3300 V -->
     <g transform="translate(127.357896 108.0325) scale(0.16 -0.16)">
      <use xlink:href="#Arial-BoldMT-55"/>
      <use xlink:href="#Arial-BoldMT-20" x="72.216797"/>
      <use xlink:href="#Arial-BoldMT-3d" x="100"/>
      <use xlink:href="#Arial-BoldMT-20" x="158.398438"/>
      <use xlink:href="#Arial-BoldMT-33" x="186.181641"/>
      <use xlink:href="#Arial-BoldMT-33" x="241.796875"/>
      <use xlink:href="#Arial-BoldMT-30" x="297.412109"/>
      <use xlink:href="#Arial-BoldMT-30" x="353.027344"/>
      <use xlink:href="#Arial-BoldMT-20" x="408.642578"/>
      <use xlink:href="#Arial-BoldMT-56" x="436.425781"/>
     </g>
    </g>
   </g>
  </g>
 </g>
 <defs>
  <clipPath id="pc07c3d22c9">
   <rect x="68.157896" y="36.96" width="634.562104" height="481.85875"/>
  </clipPath>
 </defs>
</svg>