<?xml version="1.0" encoding="utf-8" standalone="no"?>
<!DOCTYPE svg PUBLIC "-//W3C//DTD SVG 1.1//EN"
  "http://www.w3.org/Graphics/SVG/1.1/DTD/svg11.dtd">
<svg xmlns:xlink="http://www.w3.org/1999/xlink" width="720pt" height="864pt" viewBox="0 0 720 864" xmlns="http://www.w3.org/2000/svg" version="1.1">
 <metadata>
  <rdf:RDF xmlns:dc="http://purl.org/dc/elements/1.1/" xmlns:cc="http://creativecommons.org/ns#" xmlns:rdf="http://www.w3.org/1999/02/22-rdf-syntax-ns#">
   <cc:Work>
    <dc:type rdf:resource="http://purl.org/dc/dcmitype/StillImage"/>
    <dc:date>2026-03-10T20:01:57.737863</dc:date>
    <dc:format>image/svg+xml</dc:format>
    <dc:creator>
     <cc:Agent>
      <dc:title>Matplotlib v3.9.0, https://matplotlib.org/</dc:title>
     </cc:Agent>
    </dc:creator>
   </cc:Work>
  </rdf:RDF>
 </metadata>
 <defs>
  <style type="text/css">*{stroke-linejoin: round; stroke-linecap: butt}</style>
 </defs>
 <g id="figure_1">
  <g id="patch_1">
   <path d="M 0 864 
L 720 864 
L 720 0 
L 0 0 
z
" style="fill: #ffffff"/>
  </g>
  <g id="axes_1">
   <g id="patch_2">
    <path d="M 90 397.185882 
L 648 397.185882 
L 648 103.68 
L 90 103.68 
z
" style="fill: #ffffff"/>
   </g>
   <g id="PolyCollection_1">
    <defs>
     <path id="mab4a23e163" d="M 115.363636 -489.453077 
L 115.363636 -484.975182 
L 117.060201 -485.002981 
L 118.756765 -485.031282 
L 120.453329 -485.060093 
L 122.149894 -485.089423 
L 123.846458 -485.119279 
L 125.543022 -485.149671 
L 127.239587 -485.180609 
L 128.936151 -485.212099 
L 130.632715 -485.244153 
L 132.329279 -485.276778 
L 134.025844 -485.309985 
L 135.722408 -485.343783 
L 137.418972 -485.378182 
L 139.115537 -485.413191 
L 140.812101 -485.448821 
L 142.508665 -485.485082 
L 144.20523 -485.521983 
L 145.901794 -485.559536 
L 147.598358 -485.597752 
L 149.294922 -485.63664 
L 150.991487 -485.676212 
L 152.688051 -485.716479 
L 154.384615 -485.757452 
L 156.08118 -485.799142 
L 157.777744 -485.841562 
L 159.474308 -485.884723 
L 161.170873 -485.928637 
L 162.867437 -485.973317 
L 164.564001 -486.018774 
L 166.260566 -486.06502 
L 167.95713 -486.11207 
L 169.653694 -486.159935 
L 171.350258 -486.208629 
L 173.046823 -486.258165 
L 174.743387 -486.308556 
L 176.439951 -486.359817 
L 178.136516 -486.41196 
L 179.83308 -486.465001 
L 181.529644 -486.518952 
L 183.226209 -486.57383 
L 184.922773 -486.629648 
L 186.619337 -486.686421 
L 188.315901 -486.744165 
L 190.012466 -486.802895 
L 191.70903 -486.862626 
L 193.405594 -486.923375 
L 195.102159 -486.985157 
L 196.798723 -487.047988 
L 198.495287 -487.111885 
L 200.191852 -487.176865 
L 201.888416 -487.242944 
L 203.58498 -487.31014 
L 205.281545 -487.378471 
L 206.978109 -487.447953 
L 208.674673 -487.518606 
L 210.371237 -487.590446 
L 212.067802 -487.663492 
L 213.764366 -487.737764 
L 215.46093 -487.81328 
L 217.157495 -487.890059 
L 218.854059 -487.968121 
L 220.550623 -488.047486 
L 222.247188 -488.128172 
L 223.943752 -488.210202 
L 225.640316 -488.293595 
L 227.336881 -488.378372 
L 229.033445 -488.464555 
L 230.730009 -488.552164 
L 232.426573 -488.641221 
L 234.123138 -488.731749 
L 235.819702 -488.823769 
L 237.516266 -488.917305 
L 239.212831 -489.012378 
L 240.909395 -489.109013 
L 242.605959 -489.207232 
L 244.302524 -489.30706 
L 245.999088 -489.408519 
L 247.695652 -489.511636 
L 249.392216 -489.616434 
L 251.088781 -489.722938 
L 252.785345 -489.831174 
L 254.481909 -489.941168 
L 256.178474 -490.052944 
L 257.875038 -490.16653 
L 259.571602 -490.281952 
L 261.268167 -490.399237 
L 262.964731 -490.518412 
L 264.661295 -490.639504 
L 266.35786 -490.762542 
L 268.054424 -490.887554 
L 269.750988 -491.014568 
L 271.447552 -491.143613 
L 273.144117 -491.274718 
L 274.840681 -491.407912 
L 276.537245 -491.543227 
L 278.23381 -491.680691 
L 279.930374 -491.820335 
L 281.626938 -491.96219 
L 283.323503 -492.106287 
L 285.020067 -492.252658 
L 286.716631 -492.401334 
L 288.413196 -492.552348 
L 290.10976 -492.705732 
L 291.806324 -492.861519 
L 293.502888 -493.019742 
L 295.199453 -493.180434 
L 296.896017 -493.343629 
L 298.592581 -493.509362 
L 300.289146 -493.677666 
L 301.98571 -493.848576 
L 303.682274 -494.022128 
L 305.378839 -494.198357 
L 307.075403 -494.377298 
L 308.771967 -494.558987 
L 310.468531 -494.74346 
L 312.165096 -494.930755 
L 313.86166 -495.120907 
L 315.558224 -495.313954 
L 317.254789 -495.509933 
L 318.951353 -495.708881 
L 320.647917 -495.910837 
L 322.344482 -496.115839 
L 324.041046 -496.323924 
L 325.73761 -496.535132 
L 327.434175 -496.749501 
L 329.130739 -496.96707 
L 330.827303 -497.187879 
L 332.523867 -497.411966 
L 334.220432 -497.639372 
L 335.916996 -497.870136 
L 337.61356 -498.104297 
L 339.310125 -498.341897 
L 341.006689 -498.582974 
L 342.703253 -498.82757 
L 344.399818 -499.075724 
L 346.096382 -499.327478 
L 347.792946 -499.582871 
L 349.48951 -499.841944 
L 351.186075 -500.104739 
L 352.882639 -500.371294 
L 354.579203 -500.641652 
L 356.275768 -500.915852 
L 357.972332 -501.193935 
L 359.668896 -501.475942 
L 361.365461 -501.761913 
L 363.062025 -502.051888 
L 364.758589 -502.345908 
L 366.455154 -502.644013 
L 368.151718 -502.946242 
L 369.848282 -503.252635 
L 371.544846 -503.563232 
L 373.241411 -503.878071 
L 374.937975 -504.197193 
L 376.634539 -504.520635 
L 378.331104 -504.848437 
L 380.027668 -505.180635 
L 381.724232 -505.517268 
L 383.420797 -505.858374 
L 385.117361 -506.203988 
L 386.813925 -506.554148 
L 388.51049 -506.90889 
L 390.207054 -507.268249 
L 391.903618 -507.632261 
L 393.600182 -508.00096 
L 395.296747 -508.37438 
L 396.993311 -508.752554 
L 398.689875 -509.135516 
L 400.38644 -509.523299 
L 402.083004 -509.915933 
L 403.779568 -510.31345 
L 405.476133 -510.71588 
L 407.172697 -511.123254 
L 408.869261 -511.535601 
L 410.565825 -511.952948 
L 412.26239 -512.375325 
L 413.958954 -512.802758 
L 415.655518 -513.235275 
L 417.352083 -513.6729 
L 419.048647 -514.115659 
L 420.745211 -514.563577 
L 422.441776 -515.016677 
L 424.13834 -515.474983 
L 425.834904 -515.938518 
L 427.531469 -516.407304 
L 429.228033 -516.881361 
L 430.924597 -517.360711 
L 432.621161 -517.845374 
L 434.317726 -518.33537 
L 436.01429 -518.830719 
L 437.710854 -519.331438 
L 439.407419 -519.837547 
L 441.103983 -520.349063 
L 442.800547 -520.866004 
L 444.497112 -521.388388 
L 446.193676 -521.91623 
L 447.89024 -522.449549 
L 449.586804 -522.988361 
L 451.283369 -523.532681 
L 452.979933 -524.082528 
L 454.676497 -524.637916 
L 456.373062 -525.198863 
L 458.069626 -525.765384 
L 459.76619 -526.337497 
L 461.462755 -526.915217 
L 463.159319 -527.498562 
L 464.855883 -528.087549 
L 466.552448 -528.682195 
L 468.249012 -529.282518 
L 469.945576 -529.888536 
L 471.64214 -530.500268 
L 473.338705 -531.117733 
L 475.035269 -531.74095 
L 476.731833 -532.36994 
L 478.428398 -533.004723 
L 480.124962 -533.645322 
L 481.821526 -534.291756 
L 483.518091 -534.944051 
L 485.214655 -535.602228 
L 486.911219 -536.266313 
L 488.607784 -536.93633 
L 490.304348 -537.612305 
L 492.000912 -538.294264 
L 493.697476 -538.982236 
L 495.394041 -539.676247 
L 497.090605 -540.376327 
L 498.787169 -541.082506 
L 500.483734 -541.794815 
L 502.180298 -542.513285 
L 503.876862 -543.237948 
L 505.573427 -543.968837 
L 507.269991 -544.705987 
L 508.966555 -545.449432 
L 510.663119 -546.199208 
L 512.359684 -546.95535 
L 514.056248 -547.717897 
L 515.752812 -548.486886 
L 517.449377 -549.262356 
L 519.145941 -550.044345 
L 520.842505 -550.832895 
L 522.53907 -551.628044 
L 524.235634 -552.429836 
L 525.932198 -553.238311 
L 527.628763 -554.053513 
L 529.325327 -554.875483 
L 531.021891 -555.704267 
L 532.718455 -556.539908 
L 534.41502 -557.38245 
L 536.111584 -558.231939 
L 537.808148 -559.08842 
L 539.504713 -559.95194 
L 541.201277 -560.822544 
L 542.897841 -561.700279 
L 544.594406 -562.585193 
L 546.29097 -563.477332 
L 547.987534 -564.376743 
L 549.684099 -565.283476 
L 551.380663 -566.197578 
L 553.077227 -567.119096 
L 554.773791 -568.04808 
L 556.470356 -568.984578 
L 558.16692 -569.928638 
L 559.863484 -570.880309 
L 561.560049 -571.83964 
L 563.256613 -572.806679 
L 564.953177 -573.781476 
L 566.649742 -574.764078 
L 568.346306 -575.754535 
L 570.04287 -576.752895 
L 571.739434 -577.759206 
L 573.435999 -578.773517 
L 575.132563 -579.795876 
L 576.829127 -580.826331 
L 578.525692 -581.864929 
L 580.222256 -582.911719 
L 581.91882 -583.966746 
L 583.615385 -585.030059 
L 585.311949 -586.101704 
L 587.008513 -587.181727 
L 588.705078 -588.270174 
L 590.401642 -589.36709 
L 592.098206 -590.472521 
L 593.79477 -591.586512 
L 595.491335 -592.709106 
L 597.187899 -593.840347 
L 598.884463 -594.980279 
L 600.581028 -596.128943 
L 602.277592 -597.286383 
L 603.974156 -598.452639 
L 605.670721 -599.627753 
L 607.367285 -600.811764 
L 609.063849 -602.004713 
L 610.760413 -603.206637 
L 612.456978 -604.417574 
L 614.153542 -605.637563 
L 615.850106 -606.86664 
L 617.546671 -608.10484 
L 619.243235 -609.352197 
L 620.939799 -610.608747 
L 622.636364 -611.874521 
L 622.636364 -746.978824 
L 622.636364 -746.978824 
L 620.939799 -743.035922 
L 619.243235 -739.153082 
L 617.546671 -735.329414 
L 615.850106 -731.564044 
L 614.153542 -727.856109 
L 612.456978 -724.204758 
L 610.760413 -720.609156 
L 609.063849 -717.068477 
L 607.367285 -713.581908 
L 605.670721 -710.14865 
L 603.974156 -706.767914 
L 602.277592 -703.438922 
L 600.581028 -700.160911 
L 598.884463 -696.933125 
L 597.187899 -693.754821 
L 595.491335 -690.62527 
L 593.79477 -687.543748 
L 592.098206 -684.509546 
L 590.401642 -681.521965 
L 588.705078 -678.580314 
L 587.008513 -675.683916 
L 585.311949 -672.8321 
L 583.615385 -670.024208 
L 581.91882 -667.259589 
L 580.222256 -664.537606 
L 578.525692 -661.857626 
L 576.829127 -659.219028 
L 575.132563 -656.621202 
L 573.435999 -654.063544 
L 571.739434 -651.545459 
L 570.04287 -649.066363 
L 568.346306 -646.625678 
L 566.649742 -644.222838 
L 564.953177 -641.85728 
L 563.256613 -639.528454 
L 561.560049 -637.235816 
L 559.863484 -634.978831 
L 558.16692 -632.756969 
L 556.470356 -630.569711 
L 554.773791 -628.416543 
L 553.077227 -626.296961 
L 551.380663 -624.210465 
L 549.684099 -622.156566 
L 547.987534 -620.134778 
L 546.29097 -618.144625 
L 544.594406 -616.185637 
L 542.897841 -614.257348 
L 541.201277 -612.359303 
L 539.504713 -610.491051 
L 537.808148 -608.652146 
L 536.111584 -606.842152 
L 534.41502 -605.060634 
L 532.718455 -603.307168 
L 531.021891 -601.581333 
L 529.325327 -599.882713 
L 527.628763 -598.2109 
L 525.932198 -596.565491 
L 524.235634 -594.946087 
L 522.53907 -593.352294 
L 520.842505 -591.783727 
L 519.145941 -590.240001 
L 517.449377 -588.720739 
L 515.752812 -587.225569 
L 514.056248 -585.754123 
L 512.359684 -584.306037 
L 510.663119 -582.880953 
L 508.966555 -581.478517 
L 507.269991 -580.098379 
L 505.573427 -578.740194 
L 503.876862 -577.403621 
L 502.180298 -576.088323 
L 500.483734 -574.793968 
L 498.787169 -573.520226 
L 497.090605 -572.266774 
L 495.394041 -571.033289 
L 493.697476 -569.819457 
L 492.000912 -568.624962 
L 490.304348 -567.449497 
L 488.607784 -566.292754 
L 486.911219 -565.154433 
L 485.214655 -564.034234 
L 483.518091 -562.931862 
L 481.821526 -561.847027 
L 480.124962 -560.779439 
L 478.428398 -559.728815 
L 476.731833 -558.694872 
L 475.035269 -557.677334 
L 473.338705 -556.675926 
L 471.64214 -555.690376 
L 469.945576 -554.720416 
L 468.249012 -553.765783 
L 466.552448 -552.826214 
L 464.855883 -551.901452 
L 463.159319 -550.991242 
L 461.462755 -550.095333 
L 459.76619 -549.213476 
L 458.069626 -548.345427 
L 456.373062 -547.490944 
L 454.676497 -546.649789 
L 452.979933 -545.821726 
L 451.283369 -545.006524 
L 449.586804 -544.203954 
L 447.89024 -543.413792 
L 446.193676 -542.635815 
L 444.497112 -541.869805 
L 442.800547 -541.115546 
L 441.103983 -540.372827 
L 439.407419 -539.64144 
L 437.710854 -538.921178 
L 436.01429 -538.21184 
L 434.317726 -537.513227 
L 432.621161 -536.825145 
L 430.924597 -536.1474 
L 429.228033 -535.479805 
L 427.531469 -534.822174 
L 425.834904 -534.174324 
L 424.13834 -533.536078 
L 422.441776 -532.907259 
L 420.745211 -532.287695 
L 419.048647 -531.677217 
L 417.352083 -531.07566 
L 415.655518 -530.48286 
L 413.958954 -529.898658 
L 412.26239 -529.322898 
L 410.565825 -528.755425 
L 408.869261 -528.196091 
L 407.172697 -527.644747 
L 405.476133 -527.10125 
L 403.779568 -526.565458 
L 402.083004 -526.037233 
L 400.38644 -525.516439 
L 398.689875 -525.002944 
L 396.993311 -524.496618 
L 395.296747 -523.997333 
L 393.600182 -523.504966 
L 391.903618 -523.019394 
L 390.207054 -522.540499 
L 388.51049 -522.068164 
L 386.813925 -521.602275 
L 385.117361 -521.14272 
L 383.420797 -520.689391 
L 381.724232 -520.24218 
L 380.027668 -519.800983 
L 378.331104 -519.365698 
L 376.634539 -518.936225 
L 374.937975 -518.512466 
L 373.241411 -518.094327 
L 371.544846 -517.681712 
L 369.848282 -517.274531 
L 368.151718 -516.872694 
L 366.455154 -516.476114 
L 364.758589 -516.084706 
L 363.062025 -515.698384 
L 361.365461 -515.317068 
L 359.668896 -514.940678 
L 357.972332 -514.569134 
L 356.275768 -514.20236 
L 354.579203 -513.84028 
L 352.882639 -513.482822 
L 351.186075 -513.129914 
L 349.48951 -512.781484 
L 347.792946 -512.437463 
L 346.096382 -512.097785 
L 344.399818 -511.762384 
L 342.703253 -511.431193 
L 341.006689 -511.10415 
L 339.310125 -510.781193 
L 337.61356 -510.462261 
L 335.916996 -510.147294 
L 334.220432 -509.836233 
L 332.523867 -509.529022 
L 330.827303 -509.225604 
L 329.130739 -508.925925 
L 327.434175 -508.629929 
L 325.73761 -508.337565 
L 324.041046 -508.04878 
L 322.344482 -507.763524 
L 320.647917 -507.481746 
L 318.951353 -507.203398 
L 317.254789 -506.928432 
L 315.558224 -506.6568 
L 313.86166 -506.388456 
L 312.165096 -506.123355 
L 310.468531 -505.861452 
L 308.771967 -505.602703 
L 307.075403 -505.347066 
L 305.378839 -505.094498 
L 303.682274 -504.844958 
L 301.98571 -504.598404 
L 300.289146 -504.354797 
L 298.592581 -504.114099 
L 296.896017 -503.876269 
L 295.199453 -503.641269 
L 293.502888 -503.409064 
L 291.806324 -503.179616 
L 290.10976 -502.952888 
L 288.413196 -502.728846 
L 286.716631 -502.507454 
L 285.020067 -502.288679 
L 283.323503 -502.072486 
L 281.626938 -501.858842 
L 279.930374 -501.647715 
L 278.23381 -501.439072 
L 276.537245 -501.232882 
L 274.840681 -501.029114 
L 273.144117 -500.827736 
L 271.447552 -500.62872 
L 269.750988 -500.432034 
L 268.054424 -500.237651 
L 266.35786 -500.04554 
L 264.661295 -499.855674 
L 262.964731 -499.668025 
L 261.268167 -499.482566 
L 259.571602 -499.299268 
L 257.875038 -499.118106 
L 256.178474 -498.939053 
L 254.481909 -498.762084 
L 252.785345 -498.587172 
L 251.088781 -498.414292 
L 249.392216 -498.243421 
L 247.695652 -498.074533 
L 245.999088 -497.907604 
L 244.302524 -497.74261 
L 242.605959 -497.579528 
L 240.909395 -497.418336 
L 239.212831 -497.259009 
L 237.516266 -497.101527 
L 235.819702 -496.945865 
L 234.123138 -496.792004 
L 232.426573 -496.63992 
L 230.730009 -496.489594 
L 229.033445 -496.341003 
L 227.336881 -496.194128 
L 225.640316 -496.048948 
L 223.943752 -495.905442 
L 222.247188 -495.763592 
L 220.550623 -495.623376 
L 218.854059 -495.484777 
L 217.157495 -495.347774 
L 215.46093 -495.21235 
L 213.764366 -495.078485 
L 212.067802 -494.946161 
L 210.371237 -494.81536 
L 208.674673 -494.686064 
L 206.978109 -494.558256 
L 205.281545 -494.431918 
L 203.58498 -494.307033 
L 201.888416 -494.183584 
L 200.191852 -494.061554 
L 198.495287 -493.940926 
L 196.798723 -493.821685 
L 195.102159 -493.703814 
L 193.405594 -493.587297 
L 191.70903 -493.472119 
L 190.012466 -493.358264 
L 188.315901 -493.245716 
L 186.619337 -493.134461 
L 184.922773 -493.024484 
L 183.226209 -492.915769 
L 181.529644 -492.808302 
L 179.83308 -492.702069 
L 178.136516 -492.597055 
L 176.439951 -492.493247 
L 174.743387 -492.390631 
L 173.046823 -492.289192 
L 171.350258 -492.188917 
L 169.653694 -492.089793 
L 167.95713 -491.991807 
L 166.260566 -491.894946 
L 164.564001 -491.799195 
L 162.867437 -491.704544 
L 161.170873 -491.610979 
L 159.474308 -491.518488 
L 157.777744 -491.427058 
L 156.08118 -491.336677 
L 154.384615 -491.247334 
L 152.688051 -491.159016 
L 150.991487 -491.071712 
L 149.294922 -490.985409 
L 147.598358 -490.900097 
L 145.901794 -490.815765 
L 144.20523 -490.7324 
L 142.508665 -490.649993 
L 140.812101 -490.568531 
L 139.115537 -490.488005 
L 137.418972 -490.408403 
L 135.722408 -490.329716 
L 134.025844 -490.251931 
L 132.329279 -490.175041 
L 130.632715 -490.099033 
L 128.936151 -490.023898 
L 127.239587 -489.949626 
L 125.543022 -489.876208 
L 123.846458 -489.803633 
L 122.149894 -489.731891 
L 120.453329 -489.660974 
L 118.756765 -489.590872 
L 117.060201 -489.521576 
L 115.363636 -489.453077 
z
" style="stroke: #ffa500; stroke-opacity: 0.3"/>
    </defs>
    <g clip-path="url(#p170d9e26cd)">
     <use xlink:href="#mab4a23e163" x="0" y="864" style="fill: #ffa500; fill-opacity: 0.3; stroke: #ffa500; stroke-opacity: 0.3"/>
    </g>
   </g>
   <g id="matplotlib.axis_1">
    <g id="xtick_1">
     <g id="line2d_1">
      <path d="M 115.363636 397.185882 
L 115.363636 103.68 
" clip-path="url(#p170d9e26cd)" style="fill: none; stroke: #b0b0b0; stroke-width: 0.8; stroke-linecap: square"/>
     </g>
     <g id="line2d_2">
      <defs>
       <path id="m09fb16e94e" d="M 0 0 
L 0 3.5 
" style="stroke: #000000; stroke-width: 0.8"/>
      </defs>
      <g>
       <use xlink:href="#m09fb16e94e" x="115.363636" y="397.185882" style="stroke: #000000; stroke-width: 0.8"/>
      </g>
     </g>
    </g>
    <g id="xtick_2">
     <g id="line2d_3">
      <path d="M 212.916084 397.185882 
L 212.916084 103.68 
" clip-path="url(#p170d9e26cd)" style="fill: none; stroke: #b0b0b0; stroke-width: 0.8; stroke-linecap: square"/>
     </g>
     <g id="line2d_4">
      <g>
       <use xlink:href="#m09fb16e94e" x="212.916084" y="397.185882" style="stroke: #000000; stroke-width: 0.8"/>
      </g>
     </g>
    </g>
    <g id="xtick_3">
     <g id="line2d_5">
      <path d="M 310.468531 397.185882 
L 310.468531 103.68 
" clip-path="url(#p170d9e26cd)" style="fill: none; stroke: #b0b0b0; stroke-width: 0.8; stroke-linecap: square"/>
     </g>
     <g id="line2d_6">
      <g>
       <use xlink:href="#m09fb16e94e" x="310.468531" y="397.185882" style="stroke: #000000; stroke-width: 0.8"/>
      </g>
     </g>
    </g>
    <g id="xtick_4">
     <g id="line2d_7">
      <path d="M 408.020979 397.185882 
L 408.020979 103.68 
" clip-path="url(#p170d9e26cd)" style="fill: none; stroke: #b0b0b0; stroke-width: 0.8; stroke-linecap: square"/>
     </g>
     <g id="line2d_8">
      <g>
       <use xlink:href="#m09fb16e94e" x="408.020979" y="397.185882" style="stroke: #000000; stroke-width: 0.8"/>
      </g>
     </g>
    </g>
    <g id="xtick_5">
     <g id="line2d_9">
      <path d="M 505.573427 397.185882 
L 505.573427 103.68 
" clip-path="url(#p170d9e26cd)" style="fill: none; stroke: #b0b0b0; stroke-width: 0.8; stroke-linecap: square"/>
     </g>
     <g id="line2d_10">
      <g>
       <use xlink:href="#m09fb16e94e" x="505.573427" y="397.185882" style="stroke: #000000; stroke-width: 0.8"/>
      </g>
     </g>
    </g>
    <g id="xtick_6">
     <g id="line2d_11">
      <path d="M 603.125874 397.185882 
L 603.125874 103.68 
" clip-path="url(#p170d9e26cd)" style="fill: none; stroke: #b0b0b0; stroke-width: 0.8; stroke-linecap: square"/>
     </g>
     <g id="line2d_12">
      <g>
       <use xlink:href="#m09fb16e94e" x="603.125874" y="397.185882" style="stroke: #000000; stroke-width: 0.8"/>
      </g>
     </g>
    </g>
   </g>
   <g id="matplotlib.axis_2">
    <g id="ytick_1">
     <g id="line2d_13">
      <path d="M 90 380.357409 
L 648 380.357409 
" clip-path="url(#p170d9e26cd)" style="fill: none; stroke: #b0b0b0; stroke-width: 0.8; stroke-linecap: square"/>
     </g>
     <g id="line2d_14">
      <defs>
       <path id="m80accfb0b3" d="M 0 0 
L -3.5 0 
" style="stroke: #000000; stroke-width: 0.8"/>
      </defs>
      <g>
       <use xlink:href="#m80accfb0b3" x="90" y="380.357409" style="stroke: #000000; stroke-width: 0.8"/>
      </g>
     </g>
     <g id="text_1">
      <!-- 0 -->
      <g transform="translate(74.1025 386.083659) scale(0.16 -0.16)">
       <defs>
        <path id="Arial-BoldMT-30" d="M 1756 4600 
Q 2422 4600 2797 4125 
Q 3244 3563 3244 2259 
Q 3244 959 2794 391 
Q 2422 -78 1756 -78 
Q 1088 -78 678 436 
Q 269 950 269 2269 
Q 269 3563 719 4131 
Q 1091 4600 1756 4600 
z
M 1756 3872 
Q 1597 3872 1472 3770 
Q 1347 3669 1278 3406 
Q 1188 3066 1188 2259 
Q 1188 1453 1269 1151 
Q 1350 850 1473 750 
Q 1597 650 1756 650 
Q 1916 650 2041 751 
Q 2166 853 2234 1116 
Q 2325 1453 2325 2259 
Q 2325 3066 2244 3367 
Q 2163 3669 2039 3770 
Q 1916 3872 1756 3872 
z
" transform="scale(0.015625)"/>
       </defs>
       <use xlink:href="#Arial-BoldMT-30"/>
      </g>
     </g>
    </g>
    <g id="ytick_2">
     <g id="line2d_15">
      <path d="M 90 330.474548 
L 648 330.474548 
" clip-path="url(#p170d9e26cd)" style="fill: none; stroke: #b0b0b0; stroke-width: 0.8; stroke-linecap: square"/>
     </g>
     <g id="line2d_16">
      <g>
       <use xlink:href="#m80accfb0b3" x="90" y="330.474548" style="stroke: #000000; stroke-width: 0.8"/>
      </g>
     </g>
     <g id="text_2">
      <!-- 10000 -->
      <g transform="translate(38.5125 336.200798) scale(0.16 -0.16)">
       <defs>
        <path id="Arial-BoldMT-31" d="M 2519 0 
L 1641 0 
L 1641 3309 
Q 1159 2859 506 2644 
L 506 3441 
Q 850 3553 1253 3867 
Q 1656 4181 1806 4600 
L 2519 4600 
L 2519 0 
z
" transform="scale(0.015625)"/>
       </defs>
       <use xlink:href="#Arial-BoldMT-31"/>
       <use xlink:href="#Arial-BoldMT-30" x="55.615234"/>
       <use xlink:href="#Arial-BoldMT-30" x="111.230469"/>
       <use xlink:href="#Arial-BoldMT-30" x="166.845703"/>
       <use xlink:href="#Arial-BoldMT-30" x="222.460938"/>
      </g>
     </g>
    </g>
    <g id="ytick_3">
     <g id="line2d_17">
      <path d="M 90 280.591687 
L 648 280.591687 
" clip-path="url(#p170d9e26cd)" style="fill: none; stroke: #b0b0b0; stroke-width: 0.8; stroke-linecap: square"/>
     </g>
     <g id="line2d_18">
      <g>
       <use xlink:href="#m80accfb0b3" x="90" y="280.591687" style="stroke: #000000; stroke-width: 0.8"/>
      </g>
     </g>
     <g id="text_3">
      <!-- 20000 -->
      <g transform="translate(38.5125 286.317937) scale(0.16 -0.16)">
       <defs>
        <path id="Arial-BoldMT-32" d="M 3238 816 
L 3238 0 
L 159 0 
Q 209 463 459 877 
Q 709 1291 1447 1975 
Q 2041 2528 2175 2725 
Q 2356 2997 2356 3263 
Q 2356 3556 2198 3714 
Q 2041 3872 1763 3872 
Q 1488 3872 1325 3706 
Q 1163 3541 1138 3156 
L 263 3244 
Q 341 3969 753 4284 
Q 1166 4600 1784 4600 
Q 2463 4600 2850 4234 
Q 3238 3869 3238 3325 
Q 3238 3016 3127 2736 
Q 3016 2456 2775 2150 
Q 2616 1947 2200 1565 
Q 1784 1184 1673 1059 
Q 1563 934 1494 816 
L 3238 816 
z
" transform="scale(0.015625)"/>
       </defs>
       <use xlink:href="#Arial-BoldMT-32"/>
       <use xlink:href="#Arial-BoldMT-30" x="55.615234"/>
       <use xlink:href="#Arial-BoldMT-30" x="111.230469"/>
       <use xlink:href="#Arial-BoldMT-30" x="166.845703"/>
       <use xlink:href="#Arial-BoldMT-30" x="222.460938"/>
      </g>
     </g>
    </g>
    <g id="ytick_4">
     <g id="line2d_19">
      <path d="M 90 230.708826 
L 648 230.708826 
" clip-path="url(#p170d9e26cd)" style="fill: none; stroke: #b0b0b0; stroke-width: 0.8; stroke-linecap: square"/>
     </g>
     <g id="line2d_20">
      <g>
       <use xlink:href="#m80accfb0b3" x="90" y="230.708826" style="stroke: #000000; stroke-width: 0.8"/>
      </g>
     </g>
     <g id="text_4">
      <!-- 30000 -->
      <g transform="translate(38.5125 236.435076) scale(0.16 -0.16)">
       <defs>
        <path id="Arial-BoldMT-33" d="M 241 1216 
L 1091 1319 
Q 1131 994 1309 822 
Q 1488 650 1741 650 
Q 2013 650 2198 856 
Q 2384 1063 2384 1413 
Q 2384 1744 2206 1937 
Q 2028 2131 1772 2131 
Q 1603 2131 1369 2066 
L 1466 2781 
Q 1822 2772 2009 2936 
Q 2197 3100 2197 3372 
Q 2197 3603 2059 3740 
Q 1922 3878 1694 3878 
Q 1469 3878 1309 3722 
Q 1150 3566 1116 3266 
L 306 3403 
Q 391 3819 561 4067 
Q 731 4316 1036 4458 
Q 1341 4600 1719 4600 
Q 2366 4600 2756 4188 
Q 3078 3850 3078 3425 
Q 3078 2822 2419 2463 
Q 2813 2378 3048 2084 
Q 3284 1791 3284 1375 
Q 3284 772 2843 347 
Q 2403 -78 1747 -78 
Q 1125 -78 715 280 
Q 306 638 241 1216 
z
" transform="scale(0.015625)"/>
       </defs>
       <use xlink:href="#Arial-BoldMT-33"/>
       <use xlink:href="#Arial-BoldMT-30" x="55.615234"/>
       <use xlink:href="#Arial-BoldMT-30" x="111.230469"/>
       <use xlink:href="#Arial-BoldMT-30" x="166.845703"/>
       <use xlink:href="#Arial-BoldMT-30" x="222.460938"/>
      </g>
     </g>
    </g>
    <g id="ytick_5">
     <g id="line2d_21">
      <path d="M 90 180.825965 
L 648 180.825965 
" clip-path="url(#p170d9e26cd)" style="fill: none; stroke: #b0b0b0; stroke-width: 0.8; stroke-linecap: square"/>
     </g>
     <g id="line2d_22">
      <g>
       <use xlink:href="#m80accfb0b3" x="90" y="180.825965" style="stroke: #000000; stroke-width: 0.8"/>
      </g>
     </g>
     <g id="text_5">
      <!-- 40000 -->
      <g transform="translate(38.5125 186.552215) scale(0.16 -0.16)">
       <defs>
        <path id="Arial-BoldMT-34" d="M 1994 0 
L 1994 922 
L 119 922 
L 119 1691 
L 2106 4600 
L 2844 4600 
L 2844 1694 
L 3413 1694 
L 3413 922 
L 2844 922 
L 2844 0 
L 1994 0 
z
M 1994 1694 
L 1994 3259 
L 941 1694 
L 1994 1694 
z
" transform="scale(0.015625)"/>
       </defs>
       <use xlink:href="#Arial-BoldMT-34"/>
       <use xlink:href="#Arial-BoldMT-30" x="55.615234"/>
       <use xlink:href="#Arial-BoldMT-30" x="111.230469"/>
       <use xlink:href="#Arial-BoldMT-30" x="166.845703"/>
       <use xlink:href="#Arial-BoldMT-30" x="222.460938"/>
      </g>
     </g>
    </g>
    <g id="ytick_6">
     <g id="line2d_23">
      <path d="M 90 130.943104 
L 648 130.943104 
" clip-path="url(#p170d9e26cd)" style="fill: none; stroke: #b0b0b0; stroke-width: 0.8; stroke-linecap: square"/>
     </g>
     <g id="line2d_24">
      <g>
       <use xlink:href="#m80accfb0b3" x="90" y="130.943104" style="stroke: #000000; stroke-width: 0.8"/>
      </g>
     </g>
     <g id="text_6">
      <!-- 50000 -->
      <g transform="translate(38.5125 136.669354) scale(0.16 -0.16)">
       <defs>
        <path id="Arial-BoldMT-35" d="M 284 1178 
L 1159 1269 
Q 1197 972 1381 798 
Q 1566 625 1806 625 
Q 2081 625 2272 848 
Q 2463 1072 2463 1522 
Q 2463 1944 2273 2155 
Q 2084 2366 1781 2366 
Q 1403 2366 1103 2031 
L 391 2134 
L 841 4519 
L 3163 4519 
L 3163 3697 
L 1506 3697 
L 1369 2919 
Q 1663 3066 1969 3066 
Q 2553 3066 2959 2641 
Q 3366 2216 3366 1538 
Q 3366 972 3038 528 
Q 2591 -78 1797 -78 
Q 1163 -78 763 262 
Q 363 603 284 1178 
z
" transform="scale(0.015625)"/>
       </defs>
       <use xlink:href="#Arial-BoldMT-35"/>
       <use xlink:href="#Arial-BoldMT-30" x="55.615234"/>
       <use xlink:href="#Arial-BoldMT-30" x="111.230469"/>
       <use xlink:href="#Arial-BoldMT-30" x="166.845703"/>
       <use xlink:href="#Arial-BoldMT-30" x="222.460938"/>
      </g>
     </g>
    </g>
    <g id="text_7">
     <!-- Gain -->
     <g transform="translate(31.355 268.212941) rotate(-90) scale(0.16 -0.16)">
      <defs>
       <path id="Arial-BoldMT-47" d="M 2597 1684 
L 2597 2456 
L 4591 2456 
L 4591 631 
Q 4300 350 3748 136 
Q 3197 -78 2631 -78 
Q 1913 -78 1378 223 
Q 844 525 575 1086 
Q 306 1647 306 2306 
Q 306 3022 606 3578 
Q 906 4134 1484 4431 
Q 1925 4659 2581 4659 
Q 3434 4659 3914 4301 
Q 4394 3944 4531 3313 
L 3613 3141 
Q 3516 3478 3248 3673 
Q 2981 3869 2581 3869 
Q 1975 3869 1617 3484 
Q 1259 3100 1259 2344 
Q 1259 1528 1621 1120 
Q 1984 713 2572 713 
Q 2863 713 3155 827 
Q 3447 941 3656 1103 
L 3656 1684 
L 2597 1684 
z
" transform="scale(0.015625)"/>
       <path id="Arial-BoldMT-61" d="M 1116 2306 
L 319 2450 
Q 453 2931 781 3162 
Q 1109 3394 1756 3394 
Q 2344 3394 2631 3255 
Q 2919 3116 3036 2902 
Q 3153 2688 3153 2116 
L 3144 1091 
Q 3144 653 3186 445 
Q 3228 238 3344 0 
L 2475 0 
Q 2441 88 2391 259 
Q 2369 338 2359 363 
Q 2134 144 1878 34 
Q 1622 -75 1331 -75 
Q 819 -75 523 203 
Q 228 481 228 906 
Q 228 1188 362 1408 
Q 497 1628 739 1745 
Q 981 1863 1438 1950 
Q 2053 2066 2291 2166 
L 2291 2253 
Q 2291 2506 2166 2614 
Q 2041 2722 1694 2722 
Q 1459 2722 1328 2630 
Q 1197 2538 1116 2306 
z
M 2291 1594 
Q 2122 1538 1756 1459 
Q 1391 1381 1278 1306 
Q 1106 1184 1106 997 
Q 1106 813 1243 678 
Q 1381 544 1594 544 
Q 1831 544 2047 700 
Q 2206 819 2256 991 
Q 2291 1103 2291 1419 
L 2291 1594 
z
" transform="scale(0.015625)"/>
       <path id="Arial-BoldMT-69" d="M 459 3769 
L 459 4581 
L 1338 4581 
L 1338 3769 
L 459 3769 
z
M 459 0 
L 459 3319 
L 1338 3319 
L 1338 0 
L 459 0 
z
" transform="scale(0.015625)"/>
       <path id="Arial-BoldMT-6e" d="M 3478 0 
L 2600 0 
L 2600 1694 
Q 2600 2231 2544 2389 
Q 2488 2547 2361 2634 
Q 2234 2722 2056 2722 
Q 1828 2722 1647 2597 
Q 1466 2472 1398 2265 
Q 1331 2059 1331 1503 
L 1331 0 
L 453 0 
L 453 3319 
L 1269 3319 
L 1269 2831 
Q 1703 3394 2363 3394 
Q 2653 3394 2893 3289 
Q 3134 3184 3257 3021 
Q 3381 2859 3429 2653 
Q 3478 2447 3478 2063 
L 3478 0 
z
" transform="scale(0.015625)"/>
      </defs>
      <use xlink:href="#Arial-BoldMT-47"/>
      <use xlink:href="#Arial-BoldMT-61" x="77.783203"/>
      <use xlink:href="#Arial-BoldMT-69" x="133.398438"/>
      <use xlink:href="#Arial-BoldMT-6e" x="161.181641"/>
     </g>
    </g>
   </g>
   <g id="LineCollection_1">
    <path d="M 115.363636 383.844706 
L 115.363636 370.625558 
" clip-path="url(#p170d9e26cd)" style="fill: none; stroke: #00008b; stroke-width: 2"/>
    <path d="M 212.916084 378.741496 
L 212.916084 365.910153 
" clip-path="url(#p170d9e26cd)" style="fill: none; stroke: #00008b; stroke-width: 2"/>
    <path d="M 310.468531 372.473228 
L 310.468531 353.990542 
" clip-path="url(#p170d9e26cd)" style="fill: none; stroke: #00008b; stroke-width: 2"/>
    <path d="M 408.020979 362.828234 
L 408.020979 328.790493 
" clip-path="url(#p170d9e26cd)" style="fill: none; stroke: #00008b; stroke-width: 2"/>
    <path d="M 505.573427 339.564005 
L 505.573427 266.208975 
" clip-path="url(#p170d9e26cd)" style="fill: none; stroke: #00008b; stroke-width: 2"/>
    <path d="M 554.34965 321.733527 
L 554.34965 205.489022 
" clip-path="url(#p170d9e26cd)" style="fill: none; stroke: #00008b; stroke-width: 2"/>
    <path d="M 603.125874 291.045181 
L 603.125874 134.538826 
" clip-path="url(#p170d9e26cd)" style="fill: none; stroke: #00008b; stroke-width: 2"/>
   </g>
   <g id="line2d_25">
    <path d="M 115.363636 376.785871 
L 145.901794 375.812349 
L 173.046823 374.726322 
L 196.798723 373.565164 
L 218.854059 372.273551 
L 239.212831 370.864306 
L 257.875038 369.357682 
L 274.840681 367.781487 
L 291.806324 365.979433 
L 307.075403 364.137818 
L 322.344482 362.060319 
L 335.916996 359.991285 
L 349.48951 357.688286 
L 361.365461 355.460509 
L 373.241411 353.013801 
L 385.117361 350.326646 
L 395.296747 347.814144 
L 405.476133 345.091435 
L 415.655518 342.140933 
L 425.834904 338.943579 
L 436.01429 335.478721 
L 444.497112 332.370904 
L 452.979933 329.047873 
L 461.462755 325.494725 
L 469.945576 321.695524 
L 478.428398 317.633231 
L 486.911219 313.289627 
L 495.394041 308.645232 
L 502.180298 304.699196 
L 508.966555 300.536025 
L 515.752812 296.143772 
L 522.53907 291.509831 
L 529.325327 286.620902 
L 536.111584 281.462955 
L 542.897841 276.021186 
L 549.684099 270.279979 
L 556.470356 264.222856 
L 563.256613 257.832433 
L 570.04287 251.090371 
L 576.829127 243.97732 
L 583.615385 236.472867 
L 590.401642 228.555472 
L 597.187899 220.202416 
L 603.974156 211.389723 
L 610.760413 202.092104 
L 615.850106 194.784658 
L 620.939799 187.177666 
L 622.636364 184.573328 
L 622.636364 184.573328 
" clip-path="url(#p170d9e26cd)" style="fill: none; stroke: #1f77b4; stroke-width: 2; stroke-linecap: square"/>
   </g>
   <g id="line2d_26">
    <path d="M 115.363636 376.785871 
L 145.901794 375.812349 
L 173.046823 374.726322 
L 196.798723 373.565164 
L 218.854059 372.273551 
L 239.212831 370.864306 
L 257.875038 369.357682 
L 274.840681 367.781487 
L 291.806324 365.979433 
L 307.075403 364.137818 
L 322.344482 362.060319 
L 335.916996 359.991285 
L 349.48951 357.688286 
L 361.365461 355.460509 
L 373.241411 353.013801 
L 385.117361 350.326646 
L 395.296747 347.814144 
L 405.476133 345.091435 
L 415.655518 342.140933 
L 425.834904 338.943579 
L 436.01429 335.478721 
L 444.497112 332.370904 
L 452.979933 329.047873 
L 461.462755 325.494725 
L 469.945576 321.695524 
L 478.428398 317.633231 
L 486.911219 313.289627 
L 495.394041 308.645232 
L 502.180298 304.699196 
L 508.966555 300.536025 
L 515.752812 296.143772 
L 522.53907 291.509831 
L 529.325327 286.620902 
L 536.111584 281.462955 
L 542.897841 276.021186 
L 549.684099 270.279979 
L 556.470356 264.222856 
L 563.256613 257.832433 
L 570.04287 251.090371 
L 576.829127 243.97732 
L 583.615385 236.472867 
L 590.401642 228.555472 
L 597.187899 220.202416 
L 603.974156 211.389723 
L 610.760413 202.092104 
L 615.850106 194.784658 
L 620.939799 187.177666 
L 622.636364 184.573328 
L 622.636364 184.573328 
" clip-path="url(#p170d9e26cd)" style="fill: none; stroke: #ffa500; stroke-width: 2; stroke-linecap: square"/>
   </g>
   <g id="line2d_27">
    <path d="M 115.363636 377.235132 
L 212.916084 372.325824 
L 310.468531 363.231885 
L 408.020979 345.809364 
L 505.573427 302.88649 
L 554.34965 263.611275 
L 603.125874 212.792004 
" clip-path="url(#p170d9e26cd)" style="fill: none; stroke-dasharray: 12.8,3.2,2,3.2; stroke-dashoffset: 0; stroke: #00008b; stroke-width: 2"/>
    <defs>
     <path id="m883172daa7" d="M 0 3 
C 0.795609 3 1.55874 2.683901 2.12132 2.12132 
C 2.683901 1.55874 3 0.795609 3 0 
C 3 -0.795609 2.683901 -1.55874 2.12132 -2.12132 
C 1.55874 -2.683901 0.795609 -3 0 -3 
C -0.795609 -3 -1.55874 -2.683901 -2.12132 -2.12132 
C -2.683901 -1.55874 -3 -0.795609 -3 0 
C -3 0.795609 -2.683901 1.55874 -2.12132 2.12132 
C -1.55874 2.683901 -0.795609 3 0 3 
z
" style="stroke: #00008b"/>
    </defs>
    <g clip-path="url(#p170d9e26cd)">
     <use xlink:href="#m883172daa7" x="115.363636" y="377.235132" style="fill: #00008b; stroke: #00008b"/>
     <use xlink:href="#m883172daa7" x="212.916084" y="372.325824" style="fill: #00008b; stroke: #00008b"/>
     <use xlink:href="#m883172daa7" x="310.468531" y="363.231885" style="fill: #00008b; stroke: #00008b"/>
     <use xlink:href="#m883172daa7" x="408.020979" y="345.809364" style="fill: #00008b; stroke: #00008b"/>
     <use xlink:href="#m883172daa7" x="505.573427" y="302.88649" style="fill: #00008b; stroke: #00008b"/>
     <use xlink:href="#m883172daa7" x="554.34965" y="263.611275" style="fill: #00008b; stroke: #00008b"/>
     <use xlink:href="#m883172daa7" x="603.125874" y="212.792004" style="fill: #00008b; stroke: #00008b"/>
    </g>
   </g>
   <g id="patch_3">
    <path d="M 90 397.185882 
L 90 103.68 
" style="fill: none; stroke: #000000; stroke-width: 1.2; stroke-linejoin: miter; stroke-linecap: square"/>
   </g>
   <g id="patch_4">
    <path d="M 648 397.185882 
L 648 103.68 
" style="fill: none; stroke: #000000; stroke-width: 1.2; stroke-linejoin: miter; stroke-linecap: square"/>
   </g>
   <g id="patch_5">
    <path d="M 90 397.185882 
L 648 397.185882 
" style="fill: none; stroke: #000000; stroke-width: 1.2; stroke-linejoin: miter; stroke-linecap: square"/>
   </g>
   <g id="patch_6">
    <path d="M 90 103.68 
L 648 103.68 
" style="fill: none; stroke: #000000; stroke-width: 1.2; stroke-linejoin: miter; stroke-linecap: square"/>
   </g>
   <g id="text_8">
    <!-- Gain als Funktion von $V_{Drift}$ bei 70/30 (Ar/CO2) -->
    <g transform="translate(165.192 97.68) scale(0.192 -0.192)">
     <defs>
      <path id="ArialMT-47" d="M 2638 1797 
L 2638 2334 
L 4578 2338 
L 4578 638 
Q 4131 281 3656 101 
Q 3181 -78 2681 -78 
Q 2006 -78 1454 211 
Q 903 500 622 1047 
Q 341 1594 341 2269 
Q 341 2938 620 3517 
Q 900 4097 1425 4378 
Q 1950 4659 2634 4659 
Q 3131 4659 3532 4498 
Q 3934 4338 4162 4050 
Q 4391 3763 4509 3300 
L 3963 3150 
Q 3859 3500 3706 3700 
Q 3553 3900 3268 4020 
Q 2984 4141 2638 4141 
Q 2222 4141 1919 4014 
Q 1616 3888 1430 3681 
Q 1244 3475 1141 3228 
Q 966 2803 966 2306 
Q 966 1694 1177 1281 
Q 1388 869 1791 669 
Q 2194 469 2647 469 
Q 3041 469 3416 620 
Q 3791 772 3984 944 
L 3984 1797 
L 2638 1797 
z
" transform="scale(0.015625)"/>
      <path id="ArialMT-61" d="M 2588 409 
Q 2275 144 1986 34 
Q 1697 -75 1366 -75 
Q 819 -75 525 192 
Q 231 459 231 875 
Q 231 1119 342 1320 
Q 453 1522 633 1644 
Q 813 1766 1038 1828 
Q 1203 1872 1538 1913 
Q 2219 1994 2541 2106 
Q 2544 2222 2544 2253 
Q 2544 2597 2384 2738 
Q 2169 2928 1744 2928 
Q 1347 2928 1158 2789 
Q 969 2650 878 2297 
L 328 2372 
Q 403 2725 575 2942 
Q 747 3159 1072 3276 
Q 1397 3394 1825 3394 
Q 2250 3394 2515 3294 
Q 2781 3194 2906 3042 
Q 3031 2891 3081 2659 
Q 3109 2516 3109 2141 
L 3109 1391 
Q 3109 606 3145 398 
Q 3181 191 3288 0 
L 2700 0 
Q 2613 175 2588 409 
z
M 2541 1666 
Q 2234 1541 1622 1453 
Q 1275 1403 1131 1340 
Q 988 1278 909 1158 
Q 831 1038 831 891 
Q 831 666 1001 516 
Q 1172 366 1500 366 
Q 1825 366 2078 508 
Q 2331 650 2450 897 
Q 2541 1088 2541 1459 
L 2541 1666 
z
" transform="scale(0.015625)"/>
      <path id="ArialMT-69" d="M 425 3934 
L 425 4581 
L 988 4581 
L 988 3934 
L 425 3934 
z
M 425 0 
L 425 3319 
L 988 3319 
L 988 0 
L 425 0 
z
" transform="scale(0.015625)"/>
      <path id="ArialMT-6e" d="M 422 0 
L 422 3319 
L 928 3319 
L 928 2847 
Q 1294 3394 1984 3394 
Q 2284 3394 2536 3286 
Q 2788 3178 2913 3003 
Q 3038 2828 3088 2588 
Q 3119 2431 3119 2041 
L 3119 0 
L 2556 0 
L 2556 2019 
Q 2556 2363 2490 2533 
Q 2425 2703 2258 2804 
Q 2091 2906 1866 2906 
Q 1506 2906 1245 2678 
Q 984 2450 984 1813 
L 984 0 
L 422 0 
z
" transform="scale(0.015625)"/>
      <path id="ArialMT-20" transform="scale(0.015625)"/>
      <path id="ArialMT-6c" d="M 409 0 
L 409 4581 
L 972 4581 
L 972 0 
L 409 0 
z
" transform="scale(0.015625)"/>
      <path id="ArialMT-73" d="M 197 991 
L 753 1078 
Q 800 744 1014 566 
Q 1228 388 1613 388 
Q 2000 388 2187 545 
Q 2375 703 2375 916 
Q 2375 1106 2209 1216 
Q 2094 1291 1634 1406 
Q 1016 1563 777 1677 
Q 538 1791 414 1992 
Q 291 2194 291 2438 
Q 291 2659 392 2848 
Q 494 3038 669 3163 
Q 800 3259 1026 3326 
Q 1253 3394 1513 3394 
Q 1903 3394 2198 3281 
Q 2494 3169 2634 2976 
Q 2775 2784 2828 2463 
L 2278 2388 
Q 2241 2644 2061 2787 
Q 1881 2931 1553 2931 
Q 1166 2931 1000 2803 
Q 834 2675 834 2503 
Q 834 2394 903 2306 
Q 972 2216 1119 2156 
Q 1203 2125 1616 2013 
Q 2213 1853 2448 1751 
Q 2684 1650 2818 1456 
Q 2953 1263 2953 975 
Q 2953 694 2789 445 
Q 2625 197 2315 61 
Q 2006 -75 1616 -75 
Q 969 -75 630 194 
Q 291 463 197 991 
z
" transform="scale(0.015625)"/>
      <path id="ArialMT-46" d="M 525 0 
L 525 4581 
L 3616 4581 
L 3616 4041 
L 1131 4041 
L 1131 2622 
L 3281 2622 
L 3281 2081 
L 1131 2081 
L 1131 0 
L 525 0 
z
" transform="scale(0.015625)"/>
      <path id="ArialMT-75" d="M 2597 0 
L 2597 488 
Q 2209 -75 1544 -75 
Q 1250 -75 995 37 
Q 741 150 617 320 
Q 494 491 444 738 
Q 409 903 409 1263 
L 409 3319 
L 972 3319 
L 972 1478 
Q 972 1038 1006 884 
Q 1059 663 1231 536 
Q 1403 409 1656 409 
Q 1909 409 2131 539 
Q 2353 669 2445 892 
Q 2538 1116 2538 1541 
L 2538 3319 
L 3100 3319 
L 3100 0 
L 2597 0 
z
" transform="scale(0.015625)"/>
      <path id="ArialMT-6b" d="M 425 0 
L 425 4581 
L 988 4581 
L 988 1969 
L 2319 3319 
L 3047 3319 
L 1778 2088 
L 3175 0 
L 2481 0 
L 1384 1697 
L 988 1316 
L 988 0 
L 425 0 
z
" transform="scale(0.015625)"/>
      <path id="ArialMT-74" d="M 1650 503 
L 1731 6 
Q 1494 -44 1306 -44 
Q 1000 -44 831 53 
Q 663 150 594 308 
Q 525 466 525 972 
L 525 2881 
L 113 2881 
L 113 3319 
L 525 3319 
L 525 4141 
L 1084 4478 
L 1084 3319 
L 1650 3319 
L 1650 2881 
L 1084 2881 
L 1084 941 
Q 1084 700 1114 631 
Q 1144 563 1211 522 
Q 1278 481 1403 481 
Q 1497 481 1650 503 
z
" transform="scale(0.015625)"/>
      <path id="ArialMT-6f" d="M 213 1659 
Q 213 2581 725 3025 
Q 1153 3394 1769 3394 
Q 2453 3394 2887 2945 
Q 3322 2497 3322 1706 
Q 3322 1066 3130 698 
Q 2938 331 2570 128 
Q 2203 -75 1769 -75 
Q 1072 -75 642 372 
Q 213 819 213 1659 
z
M 791 1659 
Q 791 1022 1069 705 
Q 1347 388 1769 388 
Q 2188 388 2466 706 
Q 2744 1025 2744 1678 
Q 2744 2294 2464 2611 
Q 2184 2928 1769 2928 
Q 1347 2928 1069 2612 
Q 791 2297 791 1659 
z
" transform="scale(0.015625)"/>
      <path id="ArialMT-76" d="M 1344 0 
L 81 3319 
L 675 3319 
L 1388 1331 
Q 1503 1009 1600 663 
Q 1675 925 1809 1294 
L 2547 3319 
L 3125 3319 
L 1869 0 
L 1344 0 
z
" transform="scale(0.015625)"/>
      <path id="DejaVuSans-BoldOblique-56" d="M 488 4666 
L 1631 4666 
L 2203 1178 
L 4134 4666 
L 5375 4666 
L 2741 0 
L 1306 0 
L 488 4666 
z
" transform="scale(0.015625)"/>
      <path id="DejaVuSans-BoldOblique-44" d="M 2075 3756 
L 1516 909 
L 1947 909 
Q 2788 909 3278 1381 
Q 3769 1853 3769 2656 
Q 3769 3200 3448 3478 
Q 3128 3756 2497 3756 
L 2075 3756 
z
M 1044 4666 
L 2309 4666 
Q 3216 4666 3669 4558 
Q 4122 4450 4422 4197 
Q 4725 3944 4878 3583 
Q 5031 3222 5031 2766 
Q 5031 2131 4770 1570 
Q 4509 1009 4038 628 
Q 3625 288 3079 144 
Q 2534 0 1403 0 
L 134 0 
L 1044 4666 
z
" transform="scale(0.015625)"/>
      <path id="DejaVuSans-BoldOblique-72" d="M 3291 2547 
Q 3175 2613 3034 2647 
Q 2894 2681 2731 2681 
Q 2303 2681 2020 2406 
Q 1738 2131 1638 1613 
L 1319 0 
L 197 0 
L 878 3500 
L 2003 3500 
L 1881 2900 
Q 2103 3231 2436 3407 
Q 2769 3584 3175 3584 
Q 3234 3584 3309 3578 
Q 3384 3572 3488 3559 
L 3291 2547 
z
" transform="scale(0.015625)"/>
      <path id="DejaVuSans-BoldOblique-69" d="M 878 3500 
L 2003 3500 
L 1319 0 
L 197 0 
L 878 3500 
z
M 1141 4863 
L 2266 4863 
L 2088 3950 
L 959 3950 
L 1141 4863 
z
" transform="scale(0.015625)"/>
      <path id="DejaVuSans-BoldOblique-66" d="M 3456 4863 
L 3309 4128 
L 2694 4128 
Q 2459 4128 2351 4042 
Q 2244 3956 2203 3747 
L 2150 3500 
L 3097 3500 
L 2944 2700 
L 1997 2700 
L 1472 0 
L 347 0 
L 872 2700 
L 319 2700 
L 475 3500 
L 1025 3500 
L 1075 3744 
Q 1191 4325 1556 4594 
Q 1922 4863 2597 4863 
L 3456 4863 
z
" transform="scale(0.015625)"/>
      <path id="DejaVuSans-BoldOblique-74" d="M 2303 4494 
L 2113 3500 
L 3256 3500 
L 3097 2700 
L 1953 2700 
L 1666 1219 
Q 1653 1169 1648 1134 
Q 1644 1100 1644 1069 
Q 1644 925 1739 862 
Q 1834 800 2059 800 
L 2638 800 
L 2478 0 
L 1538 0 
Q 1031 0 765 212 
Q 500 425 500 825 
Q 500 913 509 1013 
Q 519 1113 538 1216 
L 825 2700 
L 275 2700 
L 428 3500 
L 984 3500 
L 1178 4494 
L 2303 4494 
z
" transform="scale(0.015625)"/>
      <path id="ArialMT-62" d="M 941 0 
L 419 0 
L 419 4581 
L 981 4581 
L 981 2947 
Q 1338 3394 1891 3394 
Q 2197 3394 2470 3270 
Q 2744 3147 2920 2923 
Q 3097 2700 3197 2384 
Q 3297 2069 3297 1709 
Q 3297 856 2875 390 
Q 2453 -75 1863 -75 
Q 1275 -75 941 416 
L 941 0 
z
M 934 1684 
Q 934 1088 1097 822 
Q 1363 388 1816 388 
Q 2184 388 2453 708 
Q 2722 1028 2722 1663 
Q 2722 2313 2464 2622 
Q 2206 2931 1841 2931 
Q 1472 2931 1203 2611 
Q 934 2291 934 1684 
z
" transform="scale(0.015625)"/>
      <path id="ArialMT-65" d="M 2694 1069 
L 3275 997 
Q 3138 488 2766 206 
Q 2394 -75 1816 -75 
Q 1088 -75 661 373 
Q 234 822 234 1631 
Q 234 2469 665 2931 
Q 1097 3394 1784 3394 
Q 2450 3394 2872 2941 
Q 3294 2488 3294 1666 
Q 3294 1616 3291 1516 
L 816 1516 
Q 847 969 1125 678 
Q 1403 388 1819 388 
Q 2128 388 2347 550 
Q 2566 713 2694 1069 
z
M 847 1978 
L 2700 1978 
Q 2663 2397 2488 2606 
Q 2219 2931 1791 2931 
Q 1403 2931 1139 2672 
Q 875 2413 847 1978 
z
" transform="scale(0.015625)"/>
      <path id="ArialMT-37" d="M 303 3981 
L 303 4522 
L 3269 4522 
L 3269 4084 
Q 2831 3619 2401 2847 
Q 1972 2075 1738 1259 
Q 1569 684 1522 0 
L 944 0 
Q 953 541 1156 1306 
Q 1359 2072 1739 2783 
Q 2119 3494 2547 3981 
L 303 3981 
z
" transform="scale(0.015625)"/>
      <path id="ArialMT-30" d="M 266 2259 
Q 266 3072 433 3567 
Q 600 4063 929 4331 
Q 1259 4600 1759 4600 
Q 2128 4600 2406 4451 
Q 2684 4303 2865 4023 
Q 3047 3744 3150 3342 
Q 3253 2941 3253 2259 
Q 3253 1453 3087 958 
Q 2922 463 2592 192 
Q 2263 -78 1759 -78 
Q 1097 -78 719 397 
Q 266 969 266 2259 
z
M 844 2259 
Q 844 1131 1108 757 
Q 1372 384 1759 384 
Q 2147 384 2411 759 
Q 2675 1134 2675 2259 
Q 2675 3391 2411 3762 
Q 2147 4134 1753 4134 
Q 1366 4134 1134 3806 
Q 844 3388 844 2259 
z
" transform="scale(0.015625)"/>
      <path id="ArialMT-2f" d="M 0 -78 
L 1328 4659 
L 1778 4659 
L 453 -78 
L 0 -78 
z
" transform="scale(0.015625)"/>
      <path id="ArialMT-33" d="M 269 1209 
L 831 1284 
Q 928 806 1161 595 
Q 1394 384 1728 384 
Q 2125 384 2398 659 
Q 2672 934 2672 1341 
Q 2672 1728 2419 1979 
Q 2166 2231 1775 2231 
Q 1616 2231 1378 2169 
L 1441 2663 
Q 1497 2656 1531 2656 
Q 1891 2656 2178 2843 
Q 2466 3031 2466 3422 
Q 2466 3731 2256 3934 
Q 2047 4138 1716 4138 
Q 1388 4138 1169 3931 
Q 950 3725 888 3313 
L 325 3413 
Q 428 3978 793 4289 
Q 1159 4600 1703 4600 
Q 2078 4600 2393 4439 
Q 2709 4278 2876 4000 
Q 3044 3722 3044 3409 
Q 3044 3113 2884 2869 
Q 2725 2625 2413 2481 
Q 2819 2388 3044 2092 
Q 3269 1797 3269 1353 
Q 3269 753 2831 336 
Q 2394 -81 1725 -81 
Q 1122 -81 723 278 
Q 325 638 269 1209 
z
" transform="scale(0.015625)"/>
      <path id="ArialMT-28" d="M 1497 -1347 
Q 1031 -759 709 28 
Q 388 816 388 1659 
Q 388 2403 628 3084 
Q 909 3875 1497 4659 
L 1900 4659 
Q 1522 4009 1400 3731 
Q 1209 3300 1100 2831 
Q 966 2247 966 1656 
Q 966 153 1900 -1347 
L 1497 -1347 
z
" transform="scale(0.015625)"/>
      <path id="ArialMT-41" d="M -9 0 
L 1750 4581 
L 2403 4581 
L 4278 0 
L 3588 0 
L 3053 1388 
L 1138 1388 
L 634 0 
L -9 0 
z
M 1313 1881 
L 2866 1881 
L 2388 3150 
Q 2169 3728 2063 4100 
Q 1975 3659 1816 3225 
L 1313 1881 
z
" transform="scale(0.015625)"/>
      <path id="ArialMT-72" d="M 416 0 
L 416 3319 
L 922 3319 
L 922 2816 
Q 1116 3169 1280 3281 
Q 1444 3394 1641 3394 
Q 1925 3394 2219 3213 
L 2025 2691 
Q 1819 2813 1613 2813 
Q 1428 2813 1281 2702 
Q 1134 2591 1072 2394 
Q 978 2094 978 1738 
L 978 0 
L 416 0 
z
" transform="scale(0.015625)"/>
      <path id="ArialMT-43" d="M 3763 1606 
L 4369 1453 
Q 4178 706 3683 314 
Q 3188 -78 2472 -78 
Q 1731 -78 1267 223 
Q 803 525 561 1097 
Q 319 1669 319 2325 
Q 319 3041 592 3573 
Q 866 4106 1370 4382 
Q 1875 4659 2481 4659 
Q 3169 4659 3637 4309 
Q 4106 3959 4291 3325 
L 3694 3184 
Q 3534 3684 3231 3912 
Q 2928 4141 2469 4141 
Q 1941 4141 1586 3887 
Q 1231 3634 1087 3207 
Q 944 2781 944 2328 
Q 944 1744 1114 1308 
Q 1284 872 1643 656 
Q 2003 441 2422 441 
Q 2931 441 3284 734 
Q 3638 1028 3763 1606 
z
" transform="scale(0.015625)"/>
      <path id="ArialMT-4f" d="M 309 2231 
Q 309 3372 921 4017 
Q 1534 4663 2503 4663 
Q 3138 4663 3647 4359 
Q 4156 4056 4423 3514 
Q 4691 2972 4691 2284 
Q 4691 1588 4409 1038 
Q 4128 488 3612 205 
Q 3097 -78 2500 -78 
Q 1853 -78 1343 234 
Q 834 547 571 1087 
Q 309 1628 309 2231 
z
M 934 2222 
Q 934 1394 1379 917 
Q 1825 441 2497 441 
Q 3181 441 3623 922 
Q 4066 1403 4066 2288 
Q 4066 2847 3877 3264 
Q 3688 3681 3323 3911 
Q 2959 4141 2506 4141 
Q 1863 4141 1398 3698 
Q 934 3256 934 2222 
z
" transform="scale(0.015625)"/>
      <path id="ArialMT-32" d="M 3222 541 
L 3222 0 
L 194 0 
Q 188 203 259 391 
Q 375 700 629 1000 
Q 884 1300 1366 1694 
Q 2113 2306 2375 2664 
Q 2638 3022 2638 3341 
Q 2638 3675 2398 3904 
Q 2159 4134 1775 4134 
Q 1369 4134 1125 3890 
Q 881 3647 878 3216 
L 300 3275 
Q 359 3922 746 4261 
Q 1134 4600 1788 4600 
Q 2447 4600 2831 4234 
Q 3216 3869 3216 3328 
Q 3216 3053 3103 2787 
Q 2991 2522 2730 2228 
Q 2469 1934 1863 1422 
Q 1356 997 1212 845 
Q 1069 694 975 541 
L 3222 541 
z
" transform="scale(0.015625)"/>
      <path id="ArialMT-29" d="M 791 -1347 
L 388 -1347 
Q 1322 153 1322 1656 
Q 1322 2244 1188 2822 
Q 1081 3291 891 3722 
Q 769 4003 388 4659 
L 791 4659 
Q 1378 3875 1659 3084 
Q 1900 2403 1900 1659 
Q 1900 816 1576 28 
Q 1253 -759 791 -1347 
z
" transform="scale(0.015625)"/>
     </defs>
     <use xlink:href="#ArialMT-47" transform="translate(0 0.09375)"/>
     <use xlink:href="#ArialMT-61" transform="translate(77.783203 0.09375)"/>
     <use xlink:href="#ArialMT-69" transform="translate(133.398438 0.09375)"/>
     <use xlink:href="#ArialMT-6e" transform="translate(155.615234 0.09375)"/>
     <use xlink:href="#ArialMT-20" transform="translate(211.230469 0.09375)"/>
     <use xlink:href="#ArialMT-61" transform="translate(239.013672 0.09375)"/>
     <use xlink:href="#ArialMT-6c" transform="translate(294.628906 0.09375)"/>
     <use xlink:href="#ArialMT-73" transform="translate(316.845703 0.09375)"/>
     <use xlink:href="#ArialMT-20" transform="translate(366.845703 0.09375)"/>
     <use xlink:href="#ArialMT-46" transform="translate(394.628906 0.09375)"/>
     <use xlink:href="#ArialMT-75" transform="translate(455.712891 0.09375)"/>
     <use xlink:href="#ArialMT-6e" transform="translate(511.328125 0.09375)"/>
     <use xlink:href="#ArialMT-6b" transform="translate(566.943359 0.09375)"/>
     <use xlink:href="#ArialMT-74" transform="translate(616.943359 0.09375)"/>
     <use xlink:href="#ArialMT-69" transform="translate(644.726562 0.09375)"/>
     <use xlink:href="#ArialMT-6f" transform="translate(666.943359 0.09375)"/>
     <use xlink:href="#ArialMT-6e" transform="translate(722.558594 0.09375)"/>
     <use xlink:href="#ArialMT-20" transform="translate(778.173828 0.09375)"/>
     <use xlink:href="#ArialMT-76" transform="translate(805.957031 0.09375)"/>
     <use xlink:href="#ArialMT-6f" transform="translate(855.957031 0.09375)"/>
     <use xlink:href="#ArialMT-6e" transform="translate(911.572266 0.09375)"/>
     <use xlink:href="#ArialMT-20" transform="translate(967.1875 0.09375)"/>
     <use xlink:href="#DejaVuSans-BoldOblique-56" transform="translate(994.970703 0.09375)"/>
     <use xlink:href="#DejaVuSans-BoldOblique-44" transform="translate(1072.363281 -16.3125) scale(0.7)"/>
     <use xlink:href="#DejaVuSans-BoldOblique-72" transform="translate(1130.46875 -16.3125) scale(0.7)"/>
     <use xlink:href="#DejaVuSans-BoldOblique-69" transform="translate(1164.990234 -16.3125) scale(0.7)"/>
     <use xlink:href="#DejaVuSans-BoldOblique-66" transform="translate(1188.984375 -16.3125) scale(0.7)"/>
     <use xlink:href="#DejaVuSans-BoldOblique-74" transform="translate(1219.438477 -16.3125) scale(0.7)"/>
     <use xlink:href="#ArialMT-20" transform="translate(1255.634766 0.09375)"/>
     <use xlink:href="#ArialMT-62" transform="translate(1283.417969 0.09375)"/>
     <use xlink:href="#ArialMT-65" transform="translate(1339.033203 0.09375)"/>
     <use xlink:href="#ArialMT-69" transform="translate(1394.648438 0.09375)"/>
     <use xlink:href="#ArialMT-20" transform="translate(1416.865234 0.09375)"/>
     <use xlink:href="#ArialMT-37" transform="translate(1444.648438 0.09375)"/>
     <use xlink:href="#ArialMT-30" transform="translate(1500.263672 0.09375)"/>
     <use xlink:href="#ArialMT-2f" transform="translate(1555.878906 0.09375)"/>
     <use xlink:href="#ArialMT-33" transform="translate(1583.662109 0.09375)"/>
     <use xlink:href="#ArialMT-30" transform="translate(1639.277344 0.09375)"/>
     <use xlink:href="#ArialMT-20" transform="translate(1694.892578 0.09375)"/>
     <use xlink:href="#ArialMT-28" transform="translate(1722.675781 0.09375)"/>
     <use xlink:href="#ArialMT-41" transform="translate(1755.976562 0.09375)"/>
     <use xlink:href="#ArialMT-72" transform="translate(1822.675781 0.09375)"/>
     <use xlink:href="#ArialMT-2f" transform="translate(1855.976562 0.09375)"/>
     <use xlink:href="#ArialMT-43" transform="translate(1883.759766 0.09375)"/>
     <use xlink:href="#ArialMT-4f" transform="translate(1955.976562 0.09375)"/>
     <use xlink:href="#ArialMT-32" transform="translate(2033.759766 0.09375)"/>
     <use xlink:href="#ArialMT-29" transform="translate(2089.375 0.09375)"/>
    </g>
   </g>
   <g id="legend_1">
    <g id="patch_7">
     <path d="M 101.2 184.52 
L 347.37 184.52 
Q 350.57 184.52 350.57 181.32 
L 350.57 114.88 
Q 350.57 111.68 347.37 111.68 
L 101.2 111.68 
Q 98 111.68 98 114.88 
L 98 181.32 
Q 98 184.52 101.2 184.52 
z
" style="fill: #ffffff; opacity: 0.8; stroke: #cccccc; stroke-linejoin: miter"/>
    </g>
    <g id="patch_8">
     <path d="M 104.4 129.5325 
L 136.4 129.5325 
L 136.4 118.3325 
L 104.4 118.3325 
z
" style="fill: #ffa500; fill-opacity: 0.3; stroke: #ffa500; stroke-opacity: 0.3; stroke-linejoin: miter"/>
    </g>
    <g id="text_9">
     <!-- 1σ Unsicherheitsbereich -->
     <g transform="translate(149.2 129.5325) scale(0.16 -0.16)">
      <defs>
       <path id="Arial-BoldMT-3c3" d="M 4228 3319 
L 4228 2591 
L 3425 2591 
Q 3669 2175 3669 1672 
Q 3669 947 3195 436 
Q 2722 -75 1944 -75 
Q 1184 -75 714 400 
Q 244 875 244 1644 
Q 244 2406 705 2900 
Q 1166 3394 1969 3394 
Q 2203 3394 2509 3319 
L 4228 3319 
z
M 1144 1659 
Q 1144 1184 1372 912 
Q 1600 641 1956 641 
Q 2300 641 2533 903 
Q 2766 1166 2766 1675 
Q 2766 2125 2544 2401 
Q 2322 2678 1956 2678 
Q 1597 2678 1370 2406 
Q 1144 2134 1144 1659 
z
" transform="scale(0.015625)"/>
       <path id="Arial-BoldMT-20" transform="scale(0.015625)"/>
       <path id="Arial-BoldMT-55" d="M 459 4581 
L 1384 4581 
L 1384 2100 
Q 1384 1509 1419 1334 
Q 1478 1053 1701 883 
Q 1925 713 2313 713 
Q 2706 713 2906 873 
Q 3106 1034 3147 1268 
Q 3188 1503 3188 2047 
L 3188 4581 
L 4113 4581 
L 4113 2175 
Q 4113 1350 4038 1009 
Q 3963 669 3761 434 
Q 3559 200 3221 61 
Q 2884 -78 2341 -78 
Q 1684 -78 1345 73 
Q 1006 225 809 467 
Q 613 709 550 975 
Q 459 1369 459 2138 
L 459 4581 
z
" transform="scale(0.015625)"/>
       <path id="Arial-BoldMT-73" d="M 150 947 
L 1031 1081 
Q 1088 825 1259 692 
Q 1431 559 1741 559 
Q 2081 559 2253 684 
Q 2369 772 2369 919 
Q 2369 1019 2306 1084 
Q 2241 1147 2013 1200 
Q 950 1434 666 1628 
Q 272 1897 272 2375 
Q 272 2806 612 3100 
Q 953 3394 1669 3394 
Q 2350 3394 2681 3172 
Q 3013 2950 3138 2516 
L 2309 2363 
Q 2256 2556 2107 2659 
Q 1959 2763 1684 2763 
Q 1338 2763 1188 2666 
Q 1088 2597 1088 2488 
Q 1088 2394 1175 2328 
Q 1294 2241 1995 2081 
Q 2697 1922 2975 1691 
Q 3250 1456 3250 1038 
Q 3250 581 2869 253 
Q 2488 -75 1741 -75 
Q 1063 -75 667 200 
Q 272 475 150 947 
z
" transform="scale(0.015625)"/>
       <path id="Arial-BoldMT-63" d="M 3353 2338 
L 2488 2181 
Q 2444 2441 2289 2572 
Q 2134 2703 1888 2703 
Q 1559 2703 1364 2476 
Q 1169 2250 1169 1719 
Q 1169 1128 1367 884 
Q 1566 641 1900 641 
Q 2150 641 2309 783 
Q 2469 925 2534 1272 
L 3397 1125 
Q 3263 531 2881 228 
Q 2500 -75 1859 -75 
Q 1131 -75 698 384 
Q 266 844 266 1656 
Q 266 2478 700 2936 
Q 1134 3394 1875 3394 
Q 2481 3394 2839 3133 
Q 3197 2872 3353 2338 
z
" transform="scale(0.015625)"/>
       <path id="Arial-BoldMT-68" d="M 1334 4581 
L 1334 2897 
Q 1759 3394 2350 3394 
Q 2653 3394 2897 3281 
Q 3141 3169 3264 2994 
Q 3388 2819 3433 2606 
Q 3478 2394 3478 1947 
L 3478 0 
L 2600 0 
L 2600 1753 
Q 2600 2275 2550 2415 
Q 2500 2556 2373 2639 
Q 2247 2722 2056 2722 
Q 1838 2722 1666 2615 
Q 1494 2509 1414 2295 
Q 1334 2081 1334 1663 
L 1334 0 
L 456 0 
L 456 4581 
L 1334 4581 
z
" transform="scale(0.015625)"/>
       <path id="Arial-BoldMT-65" d="M 2381 1056 
L 3256 909 
Q 3088 428 2723 176 
Q 2359 -75 1813 -75 
Q 947 -75 531 491 
Q 203 944 203 1634 
Q 203 2459 634 2926 
Q 1066 3394 1725 3394 
Q 2466 3394 2894 2905 
Q 3322 2416 3303 1406 
L 1103 1406 
Q 1113 1016 1316 798 
Q 1519 581 1822 581 
Q 2028 581 2168 693 
Q 2309 806 2381 1056 
z
M 2431 1944 
Q 2422 2325 2234 2523 
Q 2047 2722 1778 2722 
Q 1491 2722 1303 2513 
Q 1116 2303 1119 1944 
L 2431 1944 
z
" transform="scale(0.015625)"/>
       <path id="Arial-BoldMT-72" d="M 1300 0 
L 422 0 
L 422 3319 
L 1238 3319 
L 1238 2847 
Q 1447 3181 1614 3287 
Q 1781 3394 1994 3394 
Q 2294 3394 2572 3228 
L 2300 2463 
Q 2078 2606 1888 2606 
Q 1703 2606 1575 2504 
Q 1447 2403 1373 2137 
Q 1300 1872 1300 1025 
L 1300 0 
z
" transform="scale(0.015625)"/>
       <path id="Arial-BoldMT-74" d="M 1981 3319 
L 1981 2619 
L 1381 2619 
L 1381 1281 
Q 1381 875 1398 808 
Q 1416 741 1477 697 
Q 1538 653 1625 653 
Q 1747 653 1978 738 
L 2053 56 
Q 1747 -75 1359 -75 
Q 1122 -75 931 4 
Q 741 84 652 211 
Q 563 338 528 553 
Q 500 706 500 1172 
L 500 2619 
L 97 2619 
L 97 3319 
L 500 3319 
L 500 3978 
L 1381 4491 
L 1381 3319 
L 1981 3319 
z
" transform="scale(0.015625)"/>
       <path id="Arial-BoldMT-62" d="M 422 0 
L 422 4581 
L 1300 4581 
L 1300 2931 
Q 1706 3394 2263 3394 
Q 2869 3394 3266 2955 
Q 3663 2516 3663 1694 
Q 3663 844 3258 384 
Q 2853 -75 2275 -75 
Q 1991 -75 1714 67 
Q 1438 209 1238 488 
L 1238 0 
L 422 0 
z
M 1294 1731 
Q 1294 1216 1456 969 
Q 1684 619 2063 619 
Q 2353 619 2558 867 
Q 2763 1116 2763 1650 
Q 2763 2219 2556 2470 
Q 2350 2722 2028 2722 
Q 1713 2722 1503 2476 
Q 1294 2231 1294 1731 
z
" transform="scale(0.015625)"/>
      </defs>
      <use xlink:href="#Arial-BoldMT-31"/>
      <use xlink:href="#Arial-BoldMT-3c3" x="55.615234"/>
      <use xlink:href="#Arial-BoldMT-20" x="124.023438"/>
      <use xlink:href="#Arial-BoldMT-55" x="151.806641"/>
      <use xlink:href="#Arial-BoldMT-6e" x="224.023438"/>
      <use xlink:href="#Arial-BoldMT-73" x="285.107422"/>
      <use xlink:href="#Arial-BoldMT-69" x="340.722656"/>
      <use xlink:href="#Arial-BoldMT-63" x="368.505859"/>
      <use xlink:href="#Arial-BoldMT-68" x="424.121094"/>
      <use xlink:href="#Arial-BoldMT-65" x="485.205078"/>
      <use xlink:href="#Arial-BoldMT-72" x="540.820312"/>
      <use xlink:href="#Arial-BoldMT-68" x="579.736328"/>
      <use xlink:href="#Arial-BoldMT-65" x="640.820312"/>
      <use xlink:href="#Arial-BoldMT-69" x="696.435547"/>
      <use xlink:href="#Arial-BoldMT-74" x="724.21875"/>
      <use xlink:href="#Arial-BoldMT-73" x="757.519531"/>
      <use xlink:href="#Arial-BoldMT-62" x="813.134766"/>
      <use xlink:href="#Arial-BoldMT-65" x="874.21875"/>
      <use xlink:href="#Arial-BoldMT-72" x="929.833984"/>
      <use xlink:href="#Arial-BoldMT-65" x="968.75"/>
      <use xlink:href="#Arial-BoldMT-69" x="1024.365234"/>
      <use xlink:href="#Arial-BoldMT-63" x="1052.148438"/>
      <use xlink:href="#Arial-BoldMT-68" x="1107.763672"/>
     </g>
    </g>
    <g id="line2d_28">
     <path d="M 104.4 146.5425 
L 120.4 146.5425 
L 136.4 146.5425 
" style="fill: none; stroke: #ffa500; stroke-width: 2; stroke-linecap: square"/>
    </g>
    <g id="text_10">
     <!-- Exponentielle Anpassung -->
     <g transform="translate(149.2 152.1425) scale(0.16 -0.16)">
      <defs>
       <path id="Arial-BoldMT-45" d="M 466 0 
L 466 4581 
L 3863 4581 
L 3863 3806 
L 1391 3806 
L 1391 2791 
L 3691 2791 
L 3691 2019 
L 1391 2019 
L 1391 772 
L 3950 772 
L 3950 0 
L 466 0 
z
" transform="scale(0.015625)"/>
       <path id="Arial-BoldMT-78" d="M 38 0 
L 1234 1709 
L 88 3319 
L 1159 3319 
L 1747 2406 
L 2366 3319 
L 3397 3319 
L 2272 1747 
L 3500 0 
L 2422 0 
L 1747 1028 
L 1066 0 
L 38 0 
z
" transform="scale(0.015625)"/>
       <path id="Arial-BoldMT-70" d="M 434 3319 
L 1253 3319 
L 1253 2831 
Q 1413 3081 1684 3237 
Q 1956 3394 2288 3394 
Q 2866 3394 3269 2941 
Q 3672 2488 3672 1678 
Q 3672 847 3265 386 
Q 2859 -75 2281 -75 
Q 2006 -75 1782 34 
Q 1559 144 1313 409 
L 1313 -1263 
L 434 -1263 
L 434 3319 
z
M 1303 1716 
Q 1303 1156 1525 889 
Q 1747 622 2066 622 
Q 2372 622 2575 867 
Q 2778 1113 2778 1672 
Q 2778 2194 2568 2447 
Q 2359 2700 2050 2700 
Q 1728 2700 1515 2451 
Q 1303 2203 1303 1716 
z
" transform="scale(0.015625)"/>
       <path id="Arial-BoldMT-6f" d="M 256 1706 
Q 256 2144 472 2553 
Q 688 2963 1083 3178 
Q 1478 3394 1966 3394 
Q 2719 3394 3200 2905 
Q 3681 2416 3681 1669 
Q 3681 916 3195 420 
Q 2709 -75 1972 -75 
Q 1516 -75 1102 131 
Q 688 338 472 736 
Q 256 1134 256 1706 
z
M 1156 1659 
Q 1156 1166 1390 903 
Q 1625 641 1969 641 
Q 2313 641 2545 903 
Q 2778 1166 2778 1666 
Q 2778 2153 2545 2415 
Q 2313 2678 1969 2678 
Q 1625 2678 1390 2415 
Q 1156 2153 1156 1659 
z
" transform="scale(0.015625)"/>
       <path id="Arial-BoldMT-6c" d="M 459 0 
L 459 4581 
L 1338 4581 
L 1338 0 
L 459 0 
z
" transform="scale(0.015625)"/>
       <path id="Arial-BoldMT-41" d="M 4597 0 
L 3591 0 
L 3191 1041 
L 1359 1041 
L 981 0 
L 0 0 
L 1784 4581 
L 2763 4581 
L 4597 0 
z
M 2894 1813 
L 2263 3513 
L 1644 1813 
L 2894 1813 
z
" transform="scale(0.015625)"/>
       <path id="Arial-BoldMT-75" d="M 2644 0 
L 2644 497 
Q 2463 231 2167 78 
Q 1872 -75 1544 -75 
Q 1209 -75 943 72 
Q 678 219 559 484 
Q 441 750 441 1219 
L 441 3319 
L 1319 3319 
L 1319 1794 
Q 1319 1094 1367 936 
Q 1416 778 1544 686 
Q 1672 594 1869 594 
Q 2094 594 2272 717 
Q 2450 841 2515 1023 
Q 2581 1206 2581 1919 
L 2581 3319 
L 3459 3319 
L 3459 0 
L 2644 0 
z
" transform="scale(0.015625)"/>
       <path id="Arial-BoldMT-67" d="M 378 -219 
L 1381 -341 
Q 1406 -516 1497 -581 
Q 1622 -675 1891 -675 
Q 2234 -675 2406 -572 
Q 2522 -503 2581 -350 
Q 2622 -241 2622 53 
L 2622 538 
Q 2228 0 1628 0 
Q 959 0 569 566 
Q 263 1013 263 1678 
Q 263 2513 664 2953 
Q 1066 3394 1663 3394 
Q 2278 3394 2678 2853 
L 2678 3319 
L 3500 3319 
L 3500 341 
Q 3500 -247 3403 -537 
Q 3306 -828 3131 -993 
Q 2956 -1159 2664 -1253 
Q 2372 -1347 1925 -1347 
Q 1081 -1347 728 -1058 
Q 375 -769 375 -325 
Q 375 -281 378 -219 
z
M 1163 1728 
Q 1163 1200 1367 954 
Q 1572 709 1872 709 
Q 2194 709 2416 961 
Q 2638 1213 2638 1706 
Q 2638 2222 2425 2472 
Q 2213 2722 1888 2722 
Q 1572 2722 1367 2476 
Q 1163 2231 1163 1728 
z
" transform="scale(0.015625)"/>
      </defs>
      <use xlink:href="#Arial-BoldMT-45"/>
      <use xlink:href="#Arial-BoldMT-78" x="66.699219"/>
      <use xlink:href="#Arial-BoldMT-70" x="122.314453"/>
      <use xlink:href="#Arial-BoldMT-6f" x="183.398438"/>
      <use xlink:href="#Arial-BoldMT-6e" x="244.482422"/>
      <use xlink:href="#Arial-BoldMT-65" x="305.566406"/>
      <use xlink:href="#Arial-BoldMT-6e" x="361.181641"/>
      <use xlink:href="#Arial-BoldMT-74" x="422.265625"/>
      <use xlink:href="#Arial-BoldMT-69" x="455.566406"/>
      <use xlink:href="#Arial-BoldMT-65" x="483.349609"/>
      <use xlink:href="#Arial-BoldMT-6c" x="538.964844"/>
      <use xlink:href="#Arial-BoldMT-6c" x="566.748047"/>
      <use xlink:href="#Arial-BoldMT-65" x="594.53125"/>
      <use xlink:href="#Arial-BoldMT-20" x="650.146484"/>
      <use xlink:href="#Arial-BoldMT-41" x="674.179688"/>
      <use xlink:href="#Arial-BoldMT-6e" x="746.396484"/>
      <use xlink:href="#Arial-BoldMT-70" x="807.480469"/>
      <use xlink:href="#Arial-BoldMT-61" x="868.564453"/>
      <use xlink:href="#Arial-BoldMT-73" x="924.179688"/>
      <use xlink:href="#Arial-BoldMT-73" x="979.794922"/>
      <use xlink:href="#Arial-BoldMT-75" x="1035.410156"/>
      <use xlink:href="#Arial-BoldMT-6e" x="1096.494141"/>
      <use xlink:href="#Arial-BoldMT-67" x="1157.578125"/>
     </g>
    </g>
    <g id="LineCollection_2">
     <path d="M 120.4 177.3625 
L 120.4 161.3625 
" style="fill: none; stroke: #00008b; stroke-width: 2"/>
    </g>
    <g id="line2d_29">
     <path d="M 104.4 169.3625 
L 136.4 169.3625 
" style="fill: none; stroke-dasharray: 12.8,3.2,2,3.2; stroke-dashoffset: 0; stroke: #00008b; stroke-width: 2"/>
    </g>
    <g id="line2d_30">
     <g>
      <use xlink:href="#m883172daa7" x="120.4" y="169.3625" style="fill: #00008b; stroke: #00008b"/>
     </g>
    </g>
    <g id="text_11">
     <!-- Gain mit Unsicherheiten -->
     <g transform="translate(149.2 174.9625) scale(0.16 -0.16)">
      <defs>
       <path id="Arial-BoldMT-6d" d="M 394 3319 
L 1203 3319 
L 1203 2866 
Q 1638 3394 2238 3394 
Q 2556 3394 2790 3262 
Q 3025 3131 3175 2866 
Q 3394 3131 3647 3262 
Q 3900 3394 4188 3394 
Q 4553 3394 4806 3245 
Q 5059 3097 5184 2809 
Q 5275 2597 5275 2122 
L 5275 0 
L 4397 0 
L 4397 1897 
Q 4397 2391 4306 2534 
Q 4184 2722 3931 2722 
Q 3747 2722 3584 2609 
Q 3422 2497 3350 2280 
Q 3278 2063 3278 1594 
L 3278 0 
L 2400 0 
L 2400 1819 
Q 2400 2303 2353 2443 
Q 2306 2584 2207 2653 
Q 2109 2722 1941 2722 
Q 1738 2722 1575 2612 
Q 1413 2503 1342 2297 
Q 1272 2091 1272 1613 
L 1272 0 
L 394 0 
L 394 3319 
z
" transform="scale(0.015625)"/>
      </defs>
      <use xlink:href="#Arial-BoldMT-47"/>
      <use xlink:href="#Arial-BoldMT-61" x="77.783203"/>
      <use xlink:href="#Arial-BoldMT-69" x="133.398438"/>
      <use xlink:href="#Arial-BoldMT-6e" x="161.181641"/>
      <use xlink:href="#Arial-BoldMT-20" x="222.265625"/>
      <use xlink:href="#Arial-BoldMT-6d" x="250.048828"/>
      <use xlink:href="#Arial-BoldMT-69" x="338.964844"/>
      <use xlink:href="#Arial-BoldMT-74" x="366.748047"/>
      <use xlink:href="#Arial-BoldMT-20" x="400.048828"/>
      <use xlink:href="#Arial-BoldMT-55" x="427.832031"/>
      <use xlink:href="#Arial-BoldMT-6e" x="500.048828"/>
      <use xlink:href="#Arial-BoldMT-73" x="561.132812"/>
      <use xlink:href="#Arial-BoldMT-69" x="616.748047"/>
      <use xlink:href="#Arial-BoldMT-63" x="644.53125"/>
      <use xlink:href="#Arial-BoldMT-68" x="700.146484"/>
      <use xlink:href="#Arial-BoldMT-65" x="761.230469"/>
      <use xlink:href="#Arial-BoldMT-72" x="816.845703"/>
      <use xlink:href="#Arial-BoldMT-68" x="855.761719"/>
      <use xlink:href="#Arial-BoldMT-65" x="916.845703"/>
      <use xlink:href="#Arial-BoldMT-69" x="972.460938"/>
      <use xlink:href="#Arial-BoldMT-74" x="1000.244141"/>
      <use xlink:href="#Arial-BoldMT-65" x="1033.544922"/>
      <use xlink:href="#Arial-BoldMT-6e" x="1089.160156"/>
     </g>
    </g>
   </g>
  </g>
  <g id="axes_2">
   <g id="patch_9">
    <path d="M 90 583.072941 
L 648 583.072941 
L 648 436.32 
L 90 436.32 
z
" style="fill: #ffffff"/>
   </g>
   <g id="PathCollection_1">
    <defs>
     <path id="md476090916" d="M 0 3 
C 0.795609 3 1.55874 2.683901 2.12132 2.12132 
C 2.683901 1.55874 3 0.795609 3 0 
C 3 -0.795609 2.683901 -1.55874 2.12132 -2.12132 
C 1.55874 -2.683901 0.795609 -3 0 -3 
C -0.795609 -3 -1.55874 -2.683901 -2.12132 -2.12132 
C -2.683901 -1.55874 -3 -0.795609 -3 0 
C -3 0.795609 -2.683901 1.55874 -2.12132 2.12132 
C -1.55874 2.683901 -0.795609 3 0 3 
z
" style="stroke: #800000"/>
    </defs>
    <g clip-path="url(#p9c06577ef1)">
     <use xlink:href="#md476090916" x="115.363636" y="567.263877" style="fill: #800000; stroke: #800000"/>
     <use xlink:href="#md476090916" x="212.916084" y="576.402353" style="fill: #800000; stroke: #800000"/>
     <use xlink:href="#md476090916" x="310.468531" y="563.051343" style="fill: #800000; stroke: #800000"/>
     <use xlink:href="#md476090916" x="408.020979" y="529.344675" style="fill: #800000; stroke: #800000"/>
     <use xlink:href="#md476090916" x="505.573427" y="484.74846" style="fill: #800000; stroke: #800000"/>
     <use xlink:href="#md476090916" x="554.34965" y="450.672299" style="fill: #800000; stroke: #800000"/>
     <use xlink:href="#md476090916" x="603.125874" y="442.990588" style="fill: #800000; stroke: #800000"/>
    </g>
   </g>
   <g id="matplotlib.axis_3">
    <g id="xtick_7">
     <g id="line2d_31">
      <path d="M 115.363636 583.072941 
L 115.363636 436.32 
" clip-path="url(#p9c06577ef1)" style="fill: none; stroke: #b0b0b0; stroke-width: 0.8; stroke-linecap: square"/>
     </g>
     <g id="line2d_32">
      <g>
       <use xlink:href="#m09fb16e94e" x="115.363636" y="583.072941" style="stroke: #000000; stroke-width: 0.8"/>
      </g>
     </g>
    </g>
    <g id="xtick_8">
     <g id="line2d_33">
      <path d="M 212.916084 583.072941 
L 212.916084 436.32 
" clip-path="url(#p9c06577ef1)" style="fill: none; stroke: #b0b0b0; stroke-width: 0.8; stroke-linecap: square"/>
     </g>
     <g id="line2d_34">
      <g>
       <use xlink:href="#m09fb16e94e" x="212.916084" y="583.072941" style="stroke: #000000; stroke-width: 0.8"/>
      </g>
     </g>
    </g>
    <g id="xtick_9">
     <g id="line2d_35">
      <path d="M 310.468531 583.072941 
L 310.468531 436.32 
" clip-path="url(#p9c06577ef1)" style="fill: none; stroke: #b0b0b0; stroke-width: 0.8; stroke-linecap: square"/>
     </g>
     <g id="line2d_36">
      <g>
       <use xlink:href="#m09fb16e94e" x="310.468531" y="583.072941" style="stroke: #000000; stroke-width: 0.8"/>
      </g>
     </g>
    </g>
    <g id="xtick_10">
     <g id="line2d_37">
      <path d="M 408.020979 583.072941 
L 408.020979 436.32 
" clip-path="url(#p9c06577ef1)" style="fill: none; stroke: #b0b0b0; stroke-width: 0.8; stroke-linecap: square"/>
     </g>
     <g id="line2d_38">
      <g>
       <use xlink:href="#m09fb16e94e" x="408.020979" y="583.072941" style="stroke: #000000; stroke-width: 0.8"/>
      </g>
     </g>
    </g>
    <g id="xtick_11">
     <g id="line2d_39">
      <path d="M 505.573427 583.072941 
L 505.573427 436.32 
" clip-path="url(#p9c06577ef1)" style="fill: none; stroke: #b0b0b0; stroke-width: 0.8; stroke-linecap: square"/>
     </g>
     <g id="line2d_40">
      <g>
       <use xlink:href="#m09fb16e94e" x="505.573427" y="583.072941" style="stroke: #000000; stroke-width: 0.8"/>
      </g>
     </g>
    </g>
    <g id="xtick_12">
     <g id="line2d_41">
      <path d="M 603.125874 583.072941 
L 603.125874 436.32 
" clip-path="url(#p9c06577ef1)" style="fill: none; stroke: #b0b0b0; stroke-width: 0.8; stroke-linecap: square"/>
     </g>
     <g id="line2d_42">
      <g>
       <use xlink:href="#m09fb16e94e" x="603.125874" y="583.072941" style="stroke: #000000; stroke-width: 0.8"/>
      </g>
     </g>
    </g>
   </g>
   <g id="matplotlib.axis_4">
    <g id="ytick_7">
     <g id="line2d_43">
      <path d="M 90 567.054846 
L 648 567.054846 
" clip-path="url(#p9c06577ef1)" style="fill: none; stroke: #b0b0b0; stroke-width: 0.8; stroke-linecap: square"/>
     </g>
     <g id="line2d_44">
      <g>
       <use xlink:href="#m80accfb0b3" x="90" y="567.054846" style="stroke: #000000; stroke-width: 0.8"/>
      </g>
     </g>
     <g id="text_12">
      <!-- 10 -->
      <g transform="translate(65.205 572.781096) scale(0.16 -0.16)">
       <use xlink:href="#Arial-BoldMT-31"/>
       <use xlink:href="#Arial-BoldMT-30" x="55.615234"/>
      </g>
     </g>
    </g>
    <g id="ytick_8">
     <g id="line2d_45">
      <path d="M 90 512.843603 
L 648 512.843603 
" clip-path="url(#p9c06577ef1)" style="fill: none; stroke: #b0b0b0; stroke-width: 0.8; stroke-linecap: square"/>
     </g>
     <g id="line2d_46">
      <g>
       <use xlink:href="#m80accfb0b3" x="90" y="512.843603" style="stroke: #000000; stroke-width: 0.8"/>
      </g>
     </g>
     <g id="text_13">
      <!-- 20 -->
      <g transform="translate(65.205 518.569853) scale(0.16 -0.16)">
       <use xlink:href="#Arial-BoldMT-32"/>
       <use xlink:href="#Arial-BoldMT-30" x="55.615234"/>
      </g>
     </g>
    </g>
    <g id="ytick_9">
     <g id="line2d_47">
      <path d="M 90 458.632361 
L 648 458.632361 
" clip-path="url(#p9c06577ef1)" style="fill: none; stroke: #b0b0b0; stroke-width: 0.8; stroke-linecap: square"/>
     </g>
     <g id="line2d_48">
      <g>
       <use xlink:href="#m80accfb0b3" x="90" y="458.632361" style="stroke: #000000; stroke-width: 0.8"/>
      </g>
     </g>
     <g id="text_14">
      <!-- 30 -->
      <g transform="translate(65.205 464.358611) scale(0.16 -0.16)">
       <use xlink:href="#Arial-BoldMT-33"/>
       <use xlink:href="#Arial-BoldMT-30" x="55.615234"/>
      </g>
     </g>
    </g>
    <g id="text_15">
     <!-- Rel. Fehler I [%] -->
     <g transform="translate(57.9775 569.705221) rotate(-90) scale(0.16 -0.16)">
      <defs>
       <path id="Arial-BoldMT-52" d="M 469 0 
L 469 4581 
L 2416 4581 
Q 3150 4581 3483 4457 
Q 3816 4334 4016 4018 
Q 4216 3703 4216 3297 
Q 4216 2781 3912 2445 
Q 3609 2109 3006 2022 
Q 3306 1847 3501 1637 
Q 3697 1428 4028 894 
L 4588 0 
L 3481 0 
L 2813 997 
Q 2456 1531 2325 1670 
Q 2194 1809 2047 1861 
Q 1900 1913 1581 1913 
L 1394 1913 
L 1394 0 
L 469 0 
z
M 1394 2644 
L 2078 2644 
Q 2744 2644 2909 2700 
Q 3075 2756 3169 2893 
Q 3263 3031 3263 3238 
Q 3263 3469 3139 3611 
Q 3016 3753 2791 3791 
Q 2678 3806 2116 3806 
L 1394 3806 
L 1394 2644 
z
" transform="scale(0.015625)"/>
       <path id="Arial-BoldMT-2e" d="M 459 0 
L 459 878 
L 1338 878 
L 1338 0 
L 459 0 
z
" transform="scale(0.015625)"/>
       <path id="Arial-BoldMT-46" d="M 472 0 
L 472 4581 
L 3613 4581 
L 3613 3806 
L 1397 3806 
L 1397 2722 
L 3309 2722 
L 3309 1947 
L 1397 1947 
L 1397 0 
L 472 0 
z
" transform="scale(0.015625)"/>
       <path id="Arial-BoldMT-49" d="M 438 0 
L 438 4581 
L 1363 4581 
L 1363 0 
L 438 0 
z
" transform="scale(0.015625)"/>
       <path id="Arial-BoldMT-5b" d="M 456 -1291 
L 456 4581 
L 2013 4581 
L 2013 3891 
L 1291 3891 
L 1291 -600 
L 2013 -600 
L 2013 -1291 
L 456 -1291 
z
" transform="scale(0.015625)"/>
       <path id="Arial-BoldMT-25" d="M 278 3450 
Q 278 4066 548 4362 
Q 819 4659 1281 4659 
Q 1759 4659 2029 4364 
Q 2300 4069 2300 3450 
Q 2300 2834 2029 2537 
Q 1759 2241 1297 2241 
Q 819 2241 548 2536 
Q 278 2831 278 3450 
z
M 963 3456 
Q 963 3009 1066 2856 
Q 1144 2744 1281 2744 
Q 1422 2744 1500 2856 
Q 1600 3009 1600 3456 
Q 1600 3903 1500 4053 
Q 1422 4169 1281 4169 
Q 1144 4169 1066 4056 
Q 963 3903 963 3456 
z
M 1950 -175 
L 1300 -175 
L 3741 4659 
L 4372 4659 
L 1950 -175 
z
M 3369 1028 
Q 3369 1644 3639 1941 
Q 3909 2238 4378 2238 
Q 4850 2238 5120 1941 
Q 5391 1644 5391 1028 
Q 5391 409 5120 112 
Q 4850 -184 4388 -184 
Q 3909 -184 3639 112 
Q 3369 409 3369 1028 
z
M 4053 1031 
Q 4053 584 4156 434 
Q 4234 319 4372 319 
Q 4513 319 4588 431 
Q 4691 584 4691 1031 
Q 4691 1478 4591 1631 
Q 4513 1744 4372 1744 
Q 4231 1744 4156 1631 
Q 4053 1478 4053 1031 
z
" transform="scale(0.015625)"/>
       <path id="Arial-BoldMT-5d" d="M 1675 4581 
L 1675 -1291 
L 119 -1291 
L 119 -600 
L 841 -600 
L 841 3897 
L 119 3897 
L 119 4581 
L 1675 4581 
z
" transform="scale(0.015625)"/>
      </defs>
      <use xlink:href="#Arial-BoldMT-52"/>
      <use xlink:href="#Arial-BoldMT-65" x="72.216797"/>
      <use xlink:href="#Arial-BoldMT-6c" x="127.832031"/>
      <use xlink:href="#Arial-BoldMT-2e" x="155.615234"/>
      <use xlink:href="#Arial-BoldMT-20" x="183.398438"/>
      <use xlink:href="#Arial-BoldMT-46" x="211.181641"/>
      <use xlink:href="#Arial-BoldMT-65" x="272.265625"/>
      <use xlink:href="#Arial-BoldMT-68" x="327.880859"/>
      <use xlink:href="#Arial-BoldMT-6c" x="388.964844"/>
      <use xlink:href="#Arial-BoldMT-65" x="416.748047"/>
      <use xlink:href="#Arial-BoldMT-72" x="472.363281"/>
      <use xlink:href="#Arial-BoldMT-20" x="511.279297"/>
      <use xlink:href="#Arial-BoldMT-49" x="539.0625"/>
      <use xlink:href="#Arial-BoldMT-20" x="566.845703"/>
      <use xlink:href="#Arial-BoldMT-5b" x="594.628906"/>
      <use xlink:href="#Arial-BoldMT-25" x="627.929688"/>
      <use xlink:href="#Arial-BoldMT-5d" x="716.845703"/>
     </g>
    </g>
   </g>
   <g id="patch_10">
    <path d="M 90 583.072941 
L 90 436.32 
" style="fill: none; stroke: #000000; stroke-width: 1.2; stroke-linejoin: miter; stroke-linecap: square"/>
   </g>
   <g id="patch_11">
    <path d="M 648 583.072941 
L 648 436.32 
" style="fill: none; stroke: #000000; stroke-width: 1.2; stroke-linejoin: miter; stroke-linecap: square"/>
   </g>
   <g id="patch_12">
    <path d="M 90 583.072941 
L 648 583.072941 
" style="fill: none; stroke: #000000; stroke-width: 1.2; stroke-linejoin: miter; stroke-linecap: square"/>
   </g>
   <g id="patch_13">
    <path d="M 90 436.32 
L 648 436.32 
" style="fill: none; stroke: #000000; stroke-width: 1.2; stroke-linejoin: miter; stroke-linecap: square"/>
   </g>
   <g id="legend_2">
    <g id="patch_14">
     <path d="M 101.2 472.135 
L 371.99 472.135 
Q 375.19 472.135 375.19 468.935 
L 375.19 447.52 
Q 375.19 444.32 371.99 444.32 
L 101.2 444.32 
Q 98 444.32 98 447.52 
L 98 468.935 
Q 98 472.135 101.2 472.135 
z
" style="fill: #ffffff; opacity: 0.8; stroke: #cccccc; stroke-linejoin: miter"/>
    </g>
    <g id="PathCollection_2">
     <g>
      <use xlink:href="#md476090916" x="120.4" y="458.1675" style="fill: #800000; stroke: #800000"/>
     </g>
    </g>
    <g id="text_16">
     <!-- Rel. Fehler Strom (Quelle an) -->
     <g transform="translate(149.2 462.3675) scale(0.16 -0.16)">
      <defs>
       <path id="Arial-BoldMT-53" d="M 231 1491 
L 1131 1578 
Q 1213 1125 1461 912 
Q 1709 700 2131 700 
Q 2578 700 2804 889 
Q 3031 1078 3031 1331 
Q 3031 1494 2936 1608 
Q 2841 1722 2603 1806 
Q 2441 1863 1863 2006 
Q 1119 2191 819 2459 
Q 397 2838 397 3381 
Q 397 3731 595 4036 
Q 794 4341 1167 4500 
Q 1541 4659 2069 4659 
Q 2931 4659 3367 4281 
Q 3803 3903 3825 3272 
L 2900 3231 
Q 2841 3584 2645 3739 
Q 2450 3894 2059 3894 
Q 1656 3894 1428 3728 
Q 1281 3622 1281 3444 
Q 1281 3281 1419 3166 
Q 1594 3019 2269 2859 
Q 2944 2700 3267 2529 
Q 3591 2359 3773 2064 
Q 3956 1769 3956 1334 
Q 3956 941 3737 597 
Q 3519 253 3119 86 
Q 2719 -81 2122 -81 
Q 1253 -81 787 320 
Q 322 722 231 1491 
z
" transform="scale(0.015625)"/>
       <path id="Arial-BoldMT-28" d="M 1916 -1347 
L 1313 -1347 
Q 834 -625 584 153 
Q 334 931 334 1659 
Q 334 2563 644 3369 
Q 913 4069 1325 4659 
L 1925 4659 
Q 1497 3713 1336 3048 
Q 1175 2384 1175 1641 
Q 1175 1128 1270 590 
Q 1366 53 1531 -431 
Q 1641 -750 1916 -1347 
z
" transform="scale(0.015625)"/>
       <path id="Arial-BoldMT-51" d="M 4153 581 
Q 4494 338 4894 194 
L 4553 -459 
Q 4344 -397 4144 -288 
Q 4100 -266 3528 119 
Q 3078 -78 2531 -78 
Q 1475 -78 876 544 
Q 278 1166 278 2291 
Q 278 3413 878 4036 
Q 1478 4659 2506 4659 
Q 3525 4659 4122 4036 
Q 4719 3413 4719 2291 
Q 4719 1697 4553 1247 
Q 4428 903 4153 581 
z
M 3409 1103 
Q 3588 1313 3677 1609 
Q 3766 1906 3766 2291 
Q 3766 3084 3416 3476 
Q 3066 3869 2500 3869 
Q 1934 3869 1582 3475 
Q 1231 3081 1231 2291 
Q 1231 1488 1582 1089 
Q 1934 691 2472 691 
Q 2672 691 2850 756 
Q 2569 941 2278 1044 
L 2538 1572 
Q 2994 1416 3409 1103 
z
" transform="scale(0.015625)"/>
       <path id="Arial-BoldMT-29" d="M 216 -1347 
Q 475 -791 581 -494 
Q 688 -197 778 190 
Q 869 578 912 926 
Q 956 1275 956 1641 
Q 956 2384 797 3048 
Q 638 3713 209 4659 
L 806 4659 
Q 1278 3988 1539 3234 
Q 1800 2481 1800 1706 
Q 1800 1053 1594 306 
Q 1359 -531 822 -1347 
L 216 -1347 
z
" transform="scale(0.015625)"/>
      </defs>
      <use xlink:href="#Arial-BoldMT-52"/>
      <use xlink:href="#Arial-BoldMT-65" x="72.216797"/>
      <use xlink:href="#Arial-BoldMT-6c" x="127.832031"/>
      <use xlink:href="#Arial-BoldMT-2e" x="155.615234"/>
      <use xlink:href="#Arial-BoldMT-20" x="183.398438"/>
      <use xlink:href="#Arial-BoldMT-46" x="211.181641"/>
      <use xlink:href="#Arial-BoldMT-65" x="272.265625"/>
      <use xlink:href="#Arial-BoldMT-68" x="327.880859"/>
      <use xlink:href="#Arial-BoldMT-6c" x="388.964844"/>
      <use xlink:href="#Arial-BoldMT-65" x="416.748047"/>
      <use xlink:href="#Arial-BoldMT-72" x="472.363281"/>
      <use xlink:href="#Arial-BoldMT-20" x="511.279297"/>
      <use xlink:href="#Arial-BoldMT-53" x="539.0625"/>
      <use xlink:href="#Arial-BoldMT-74" x="605.761719"/>
      <use xlink:href="#Arial-BoldMT-72" x="639.0625"/>
      <use xlink:href="#Arial-BoldMT-6f" x="677.978516"/>
      <use xlink:href="#Arial-BoldMT-6d" x="739.0625"/>
      <use xlink:href="#Arial-BoldMT-20" x="827.978516"/>
      <use xlink:href="#Arial-BoldMT-28" x="855.761719"/>
      <use xlink:href="#Arial-BoldMT-51" x="889.0625"/>
      <use xlink:href="#Arial-BoldMT-75" x="966.845703"/>
      <use xlink:href="#Arial-BoldMT-65" x="1027.929688"/>
      <use xlink:href="#Arial-BoldMT-6c" x="1083.544922"/>
      <use xlink:href="#Arial-BoldMT-6c" x="1111.328125"/>
      <use xlink:href="#Arial-BoldMT-65" x="1139.111328"/>
      <use xlink:href="#Arial-BoldMT-20" x="1194.726562"/>
      <use xlink:href="#Arial-BoldMT-61" x="1222.509766"/>
      <use xlink:href="#Arial-BoldMT-6e" x="1278.125"/>
      <use xlink:href="#Arial-BoldMT-29" x="1339.208984"/>
     </g>
    </g>
   </g>
  </g>
  <g id="axes_3">
   <g id="patch_15">
    <path d="M 90 768.96 
L 648 768.96 
L 648 622.207059 
L 90 622.207059 
z
" style="fill: #ffffff"/>
   </g>
   <g id="PathCollection_3">
    <g clip-path="url(#p79f3a2bfe9)">
     <use xlink:href="#md476090916" x="115.363636" y="628.877647" style="fill: #800000; stroke: #800000"/>
     <use xlink:href="#md476090916" x="212.916084" y="671.810915" style="fill: #800000; stroke: #800000"/>
     <use xlink:href="#md476090916" x="310.468531" y="640.800701" style="fill: #800000; stroke: #800000"/>
     <use xlink:href="#md476090916" x="408.020979" y="752.51396" style="fill: #800000; stroke: #800000"/>
     <use xlink:href="#md476090916" x="505.573427" y="742.589694" style="fill: #800000; stroke: #800000"/>
     <use xlink:href="#md476090916" x="554.34965" y="762.289412" style="fill: #800000; stroke: #800000"/>
     <use xlink:href="#md476090916" x="603.125874" y="723.662989" style="fill: #800000; stroke: #800000"/>
    </g>
   </g>
   <g id="matplotlib.axis_5">
    <g id="xtick_13">
     <g id="line2d_49">
      <path d="M 115.363636 768.96 
L 115.363636 622.207059 
" clip-path="url(#p79f3a2bfe9)" style="fill: none; stroke: #b0b0b0; stroke-width: 0.8; stroke-linecap: square"/>
     </g>
     <g id="line2d_50">
      <g>
       <use xlink:href="#m09fb16e94e" x="115.363636" y="768.96" style="stroke: #000000; stroke-width: 0.8"/>
      </g>
     </g>
     <g id="text_17">
      <!-- 2900 -->
      <g transform="translate(97.568636 787.4125) scale(0.16 -0.16)">
       <defs>
        <path id="Arial-BoldMT-39" d="M 291 1059 
L 1141 1153 
Q 1172 894 1303 769 
Q 1434 644 1650 644 
Q 1922 644 2112 894 
Q 2303 1144 2356 1931 
Q 2025 1547 1528 1547 
Q 988 1547 595 1964 
Q 203 2381 203 3050 
Q 203 3747 617 4173 
Q 1031 4600 1672 4600 
Q 2369 4600 2816 4061 
Q 3263 3522 3263 2288 
Q 3263 1031 2797 475 
Q 2331 -81 1584 -81 
Q 1047 -81 715 205 
Q 384 491 291 1059 
z
M 2278 2978 
Q 2278 3403 2083 3637 
Q 1888 3872 1631 3872 
Q 1388 3872 1227 3680 
Q 1066 3488 1066 3050 
Q 1066 2606 1241 2398 
Q 1416 2191 1678 2191 
Q 1931 2191 2104 2391 
Q 2278 2591 2278 2978 
z
" transform="scale(0.015625)"/>
       </defs>
       <use xlink:href="#Arial-BoldMT-32"/>
       <use xlink:href="#Arial-BoldMT-39" x="55.615234"/>
       <use xlink:href="#Arial-BoldMT-30" x="111.230469"/>
       <use xlink:href="#Arial-BoldMT-30" x="166.845703"/>
      </g>
     </g>
    </g>
    <g id="xtick_14">
     <g id="line2d_51">
      <path d="M 212.916084 768.96 
L 212.916084 622.207059 
" clip-path="url(#p79f3a2bfe9)" style="fill: none; stroke: #b0b0b0; stroke-width: 0.8; stroke-linecap: square"/>
     </g>
     <g id="line2d_52">
      <g>
       <use xlink:href="#m09fb16e94e" x="212.916084" y="768.96" style="stroke: #000000; stroke-width: 0.8"/>
      </g>
     </g>
     <g id="text_18">
      <!-- 3000 -->
      <g transform="translate(195.121084 787.4125) scale(0.16 -0.16)">
       <use xlink:href="#Arial-BoldMT-33"/>
       <use xlink:href="#Arial-BoldMT-30" x="55.615234"/>
       <use xlink:href="#Arial-BoldMT-30" x="111.230469"/>
       <use xlink:href="#Arial-BoldMT-30" x="166.845703"/>
      </g>
     </g>
    </g>
    <g id="xtick_15">
     <g id="line2d_53">
      <path d="M 310.468531 768.96 
L 310.468531 622.207059 
" clip-path="url(#p79f3a2bfe9)" style="fill: none; stroke: #b0b0b0; stroke-width: 0.8; stroke-linecap: square"/>
     </g>
     <g id="line2d_54">
      <g>
       <use xlink:href="#m09fb16e94e" x="310.468531" y="768.96" style="stroke: #000000; stroke-width: 0.8"/>
      </g>
     </g>
     <g id="text_19">
      <!-- 3100 -->
      <g transform="translate(292.673531 787.4125) scale(0.16 -0.16)">
       <use xlink:href="#Arial-BoldMT-33"/>
       <use xlink:href="#Arial-BoldMT-31" x="55.615234"/>
       <use xlink:href="#Arial-BoldMT-30" x="111.230469"/>
       <use xlink:href="#Arial-BoldMT-30" x="166.845703"/>
      </g>
     </g>
    </g>
    <g id="xtick_16">
     <g id="line2d_55">
      <path d="M 408.020979 768.96 
L 408.020979 622.207059 
" clip-path="url(#p79f3a2bfe9)" style="fill: none; stroke: #b0b0b0; stroke-width: 0.8; stroke-linecap: square"/>
     </g>
     <g id="line2d_56">
      <g>
       <use xlink:href="#m09fb16e94e" x="408.020979" y="768.96" style="stroke: #000000; stroke-width: 0.8"/>
      </g>
     </g>
     <g id="text_20">
      <!-- 3200 -->
      <g transform="translate(390.225979 787.4125) scale(0.16 -0.16)">
       <use xlink:href="#Arial-BoldMT-33"/>
       <use xlink:href="#Arial-BoldMT-32" x="55.615234"/>
       <use xlink:href="#Arial-BoldMT-30" x="111.230469"/>
       <use xlink:href="#Arial-BoldMT-30" x="166.845703"/>
      </g>
     </g>
    </g>
    <g id="xtick_17">
     <g id="line2d_57">
      <path d="M 505.573427 768.96 
L 505.573427 622.207059 
" clip-path="url(#p79f3a2bfe9)" style="fill: none; stroke: #b0b0b0; stroke-width: 0.8; stroke-linecap: square"/>
     </g>
     <g id="line2d_58">
      <g>
       <use xlink:href="#m09fb16e94e" x="505.573427" y="768.96" style="stroke: #000000; stroke-width: 0.8"/>
      </g>
     </g>
     <g id="text_21">
      <!-- 3300 -->
      <g transform="translate(487.778427 787.4125) scale(0.16 -0.16)">
       <use xlink:href="#Arial-BoldMT-33"/>
       <use xlink:href="#Arial-BoldMT-33" x="55.615234"/>
       <use xlink:href="#Arial-BoldMT-30" x="111.230469"/>
       <use xlink:href="#Arial-BoldMT-30" x="166.845703"/>
      </g>
     </g>
    </g>
    <g id="xtick_18">
     <g id="line2d_59">
      <path d="M 603.125874 768.96 
L 603.125874 622.207059 
" clip-path="url(#p79f3a2bfe9)" style="fill: none; stroke: #b0b0b0; stroke-width: 0.8; stroke-linecap: square"/>
     </g>
     <g id="line2d_60">
      <g>
       <use xlink:href="#m09fb16e94e" x="603.125874" y="768.96" style="stroke: #000000; stroke-width: 0.8"/>
      </g>
     </g>
     <g id="text_22">
      <!-- 3400 -->
      <g transform="translate(585.330874 787.4125) scale(0.16 -0.16)">
       <use xlink:href="#Arial-BoldMT-33"/>
       <use xlink:href="#Arial-BoldMT-34" x="55.615234"/>
       <use xlink:href="#Arial-BoldMT-30" x="111.230469"/>
       <use xlink:href="#Arial-BoldMT-30" x="166.845703"/>
      </g>
     </g>
    </g>
    <g id="text_23">
     <!-- Spannung $V_{Drift}$ [V] -->
     <g transform="translate(293.88 806.25) scale(0.16 -0.16)">
      <defs>
       <path id="Arial-BoldMT-56" d="M 1634 0 
L -3 4581 
L 1000 4581 
L 2159 1191 
L 3281 4581 
L 4263 4581 
L 2622 0 
L 1634 0 
z
" transform="scale(0.015625)"/>
      </defs>
      <use xlink:href="#Arial-BoldMT-53" transform="translate(0 0.09375)"/>
      <use xlink:href="#Arial-BoldMT-70" transform="translate(66.699219 0.09375)"/>
      <use xlink:href="#Arial-BoldMT-61" transform="translate(127.783203 0.09375)"/>
      <use xlink:href="#Arial-BoldMT-6e" transform="translate(183.398438 0.09375)"/>
      <use xlink:href="#Arial-BoldMT-6e" transform="translate(244.482422 0.09375)"/>
      <use xlink:href="#Arial-BoldMT-75" transform="translate(305.566406 0.09375)"/>
      <use xlink:href="#Arial-BoldMT-6e" transform="translate(366.650391 0.09375)"/>
      <use xlink:href="#Arial-BoldMT-67" transform="translate(427.734375 0.09375)"/>
      <use xlink:href="#Arial-BoldMT-20" transform="translate(488.818359 0.09375)"/>
      <use xlink:href="#DejaVuSans-BoldOblique-56" transform="translate(516.601562 0.09375)"/>
      <use xlink:href="#DejaVuSans-BoldOblique-44" transform="translate(593.994141 -16.3125) scale(0.7)"/>
      <use xlink:href="#DejaVuSans-BoldOblique-72" transform="translate(652.099609 -16.3125) scale(0.7)"/>
      <use xlink:href="#DejaVuSans-BoldOblique-69" transform="translate(686.621094 -16.3125) scale(0.7)"/>
      <use xlink:href="#DejaVuSans-BoldOblique-66" transform="translate(710.615234 -16.3125) scale(0.7)"/>
      <use xlink:href="#DejaVuSans-BoldOblique-74" transform="translate(741.069336 -16.3125) scale(0.7)"/>
      <use xlink:href="#Arial-BoldMT-20" transform="translate(777.265625 0.09375)"/>
      <use xlink:href="#Arial-BoldMT-5b" transform="translate(805.048828 0.09375)"/>
      <use xlink:href="#Arial-BoldMT-56" transform="translate(838.349609 0.09375)"/>
      <use xlink:href="#Arial-BoldMT-5d" transform="translate(905.048828 0.09375)"/>
     </g>
    </g>
   </g>
   <g id="matplotlib.axis_6">
    <g id="ytick_10">
     <g id="line2d_61">
      <path d="M 90 725.636928 
L 648 725.636928 
" clip-path="url(#p79f3a2bfe9)" style="fill: none; stroke: #b0b0b0; stroke-width: 0.8; stroke-linecap: square"/>
     </g>
     <g id="line2d_62">
      <g>
       <use xlink:href="#m80accfb0b3" x="90" y="725.636928" style="stroke: #000000; stroke-width: 0.8"/>
      </g>
     </g>
     <g id="text_24">
      <!-- 5 -->
      <g transform="translate(74.1025 731.363178) scale(0.16 -0.16)">
       <use xlink:href="#Arial-BoldMT-35"/>
      </g>
     </g>
    </g>
    <g id="ytick_11">
     <g id="line2d_63">
      <path d="M 90 671.436012 
L 648 671.436012 
" clip-path="url(#p79f3a2bfe9)" style="fill: none; stroke: #b0b0b0; stroke-width: 0.8; stroke-linecap: square"/>
     </g>
     <g id="line2d_64">
      <g>
       <use xlink:href="#m80accfb0b3" x="90" y="671.436012" style="stroke: #000000; stroke-width: 0.8"/>
      </g>
     </g>
     <g id="text_25">
      <!-- 6 -->
      <g transform="translate(74.1025 677.162262) scale(0.16 -0.16)">
       <defs>
        <path id="Arial-BoldMT-36" d="M 3247 3459 
L 2397 3366 
Q 2366 3628 2234 3753 
Q 2103 3878 1894 3878 
Q 1616 3878 1423 3628 
Q 1231 3378 1181 2588 
Q 1509 2975 1997 2975 
Q 2547 2975 2939 2556 
Q 3331 2138 3331 1475 
Q 3331 772 2918 347 
Q 2506 -78 1859 -78 
Q 1166 -78 719 461 
Q 272 1000 272 2228 
Q 272 3488 737 4044 
Q 1203 4600 1947 4600 
Q 2469 4600 2811 4308 
Q 3153 4016 3247 3459 
z
M 1256 1544 
Q 1256 1116 1453 883 
Q 1650 650 1903 650 
Q 2147 650 2309 840 
Q 2472 1031 2472 1466 
Q 2472 1913 2297 2120 
Q 2122 2328 1859 2328 
Q 1606 2328 1431 2129 
Q 1256 1931 1256 1544 
z
" transform="scale(0.015625)"/>
       </defs>
       <use xlink:href="#Arial-BoldMT-36"/>
      </g>
     </g>
    </g>
    <g id="text_26">
     <!-- Rel. Fehler $I_{aus}$ [%] -->
     <g transform="translate(66.7425 767.743529) rotate(-90) scale(0.16 -0.16)">
      <defs>
       <path id="DejaVuSans-BoldOblique-49" d="M 1044 4666 
L 2247 4666 
L 1338 0 
L 134 0 
L 1044 4666 
z
" transform="scale(0.015625)"/>
       <path id="DejaVuSans-BoldOblique-61" d="M 2106 1575 
Q 1688 1575 1473 1445 
Q 1259 1316 1259 1063 
Q 1259 872 1386 762 
Q 1513 653 1734 653 
Q 2078 653 2309 861 
Q 2541 1069 2619 1447 
L 2644 1575 
L 2106 1575 
z
M 3853 1997 
L 3463 0 
L 2344 0 
L 2438 519 
Q 2163 206 1856 57 
Q 1550 -91 1191 -91 
Q 694 -91 401 167 
Q 109 425 109 863 
Q 109 1531 626 1886 
Q 1144 2241 2119 2241 
L 2778 2241 
L 2791 2328 
Q 2800 2372 2801 2390 
Q 2803 2409 2803 2425 
Q 2803 2631 2608 2736 
Q 2413 2841 2028 2841 
Q 1681 2841 1356 2769 
Q 1031 2697 728 2553 
L 897 3406 
Q 1247 3494 1614 3539 
Q 1981 3584 2375 3584 
Q 3153 3584 3531 3317 
Q 3909 3050 3909 2503 
Q 3909 2397 3895 2270 
Q 3881 2144 3853 1997 
z
" transform="scale(0.015625)"/>
       <path id="DejaVuSans-BoldOblique-75" d="M 434 1363 
L 844 3500 
L 1966 3500 
L 1613 1678 
Q 1575 1500 1556 1375 
Q 1538 1250 1538 1178 
Q 1538 981 1647 872 
Q 1756 763 1959 763 
Q 2306 763 2556 1031 
Q 2806 1300 2900 1778 
L 3238 3500 
L 4359 3500 
L 3681 0 
L 2553 0 
L 2656 513 
Q 2369 209 2053 59 
Q 1738 -91 1388 -91 
Q 909 -91 646 162 
Q 384 416 384 878 
Q 384 988 396 1109 
Q 409 1231 434 1363 
z
" transform="scale(0.015625)"/>
       <path id="DejaVuSans-BoldOblique-73" d="M 3584 3391 
L 3419 2522 
Q 3091 2678 2766 2759 
Q 2441 2841 2150 2841 
Q 1819 2841 1639 2755 
Q 1459 2669 1459 2509 
Q 1459 2416 1559 2359 
Q 1659 2303 1953 2241 
L 2156 2203 
Q 2834 2059 3106 1832 
Q 3378 1606 3378 1203 
Q 3378 594 2900 251 
Q 2422 -91 1563 -91 
Q 1203 -91 828 -34 
Q 453 22 63 134 
L 231 1013 
Q 534 834 879 743 
Q 1225 653 1588 653 
Q 1941 653 2119 737 
Q 2297 822 2297 984 
Q 2297 1097 2197 1159 
Q 2097 1222 1784 1288 
L 1581 1325 
Q 981 1450 725 1694 
Q 469 1938 469 2369 
Q 469 2953 911 3268 
Q 1353 3584 2175 3584 
Q 2534 3584 2882 3536 
Q 3231 3488 3584 3391 
z
" transform="scale(0.015625)"/>
      </defs>
      <use xlink:href="#Arial-BoldMT-52" transform="translate(0 0.09375)"/>
      <use xlink:href="#Arial-BoldMT-65" transform="translate(72.216797 0.09375)"/>
      <use xlink:href="#Arial-BoldMT-6c" transform="translate(127.832031 0.09375)"/>
      <use xlink:href="#Arial-BoldMT-2e" transform="translate(155.615234 0.09375)"/>
      <use xlink:href="#Arial-BoldMT-20" transform="translate(183.398438 0.09375)"/>
      <use xlink:href="#Arial-BoldMT-46" transform="translate(211.181641 0.09375)"/>
      <use xlink:href="#Arial-BoldMT-65" transform="translate(272.265625 0.09375)"/>
      <use xlink:href="#Arial-BoldMT-68" transform="translate(327.880859 0.09375)"/>
      <use xlink:href="#Arial-BoldMT-6c" transform="translate(388.964844 0.09375)"/>
      <use xlink:href="#Arial-BoldMT-65" transform="translate(416.748047 0.09375)"/>
      <use xlink:href="#Arial-BoldMT-72" transform="translate(472.363281 0.09375)"/>
      <use xlink:href="#Arial-BoldMT-20" transform="translate(511.279297 0.09375)"/>
      <use xlink:href="#DejaVuSans-BoldOblique-49" transform="translate(539.0625 0.09375)"/>
      <use xlink:href="#DejaVuSans-BoldOblique-61" transform="translate(576.269531 -16.3125) scale(0.7)"/>
      <use xlink:href="#DejaVuSans-BoldOblique-75" transform="translate(623.505859 -16.3125) scale(0.7)"/>
      <use xlink:href="#DejaVuSans-BoldOblique-73" transform="translate(673.339844 -16.3125) scale(0.7)"/>
      <use xlink:href="#Arial-BoldMT-20" transform="translate(717.739258 0.09375)"/>
      <use xlink:href="#Arial-BoldMT-5b" transform="translate(745.522461 0.09375)"/>
      <use xlink:href="#Arial-BoldMT-25" transform="translate(778.823242 0.09375)"/>
      <use xlink:href="#Arial-BoldMT-5d" transform="translate(867.739258 0.09375)"/>
     </g>
    </g>
   </g>
   <g id="patch_16">
    <path d="M 90 768.96 
L 90 622.207059 
" style="fill: none; stroke: #000000; stroke-width: 1.2; stroke-linejoin: miter; stroke-linecap: square"/>
   </g>
   <g id="patch_17">
    <path d="M 648 768.96 
L 648 622.207059 
" style="fill: none; stroke: #000000; stroke-width: 1.2; stroke-linejoin: miter; stroke-linecap: square"/>
   </g>
   <g id="patch_18">
    <path d="M 90 768.96 
L 648 768.96 
" style="fill: none; stroke: #000000; stroke-width: 1.2; stroke-linejoin: miter; stroke-linecap: square"/>
   </g>
   <g id="patch_19">
    <path d="M 90 622.207059 
L 648 622.207059 
" style="fill: none; stroke: #000000; stroke-width: 1.2; stroke-linejoin: miter; stroke-linecap: square"/>
   </g>
   <g id="legend_3">
    <g id="patch_20">
     <path d="M 101.2 658.022059 
L 380.8875 658.022059 
Q 384.0875 658.022059 384.0875 654.822059 
L 384.0875 633.407059 
Q 384.0875 630.207059 380.8875 630.207059 
L 101.2 630.207059 
Q 98 630.207059 98 633.407059 
L 98 654.822059 
Q 98 658.022059 101.2 658.022059 
z
" style="fill: #ffffff; opacity: 0.8; stroke: #cccccc; stroke-linejoin: miter"/>
    </g>
    <g id="PathCollection_4">
     <g>
      <use xlink:href="#md476090916" x="120.4" y="644.054559" style="fill: #800000; stroke: #800000"/>
     </g>
    </g>
    <g id="text_27">
     <!-- Rel. Fehler Strom (Quelle aus) -->
     <g transform="translate(149.2 648.254559) scale(0.16 -0.16)">
      <use xlink:href="#Arial-BoldMT-52"/>
      <use xlink:href="#Arial-BoldMT-65" x="72.216797"/>
      <use xlink:href="#Arial-BoldMT-6c" x="127.832031"/>
      <use xlink:href="#Arial-BoldMT-2e" x="155.615234"/>
      <use xlink:href="#Arial-BoldMT-20" x="183.398438"/>
      <use xlink:href="#Arial-BoldMT-46" x="211.181641"/>
      <use xlink:href="#Arial-BoldMT-65" x="272.265625"/>
      <use xlink:href="#Arial-BoldMT-68" x="327.880859"/>
      <use xlink:href="#Arial-BoldMT-6c" x="388.964844"/>
      <use xlink:href="#Arial-BoldMT-65" x="416.748047"/>
      <use xlink:href="#Arial-BoldMT-72" x="472.363281"/>
      <use xlink:href="#Arial-BoldMT-20" x="511.279297"/>
      <use xlink:href="#Arial-BoldMT-53" x="539.0625"/>
      <use xlink:href="#Arial-BoldMT-74" x="605.761719"/>
      <use xlink:href="#Arial-BoldMT-72" x="639.0625"/>
      <use xlink:href="#Arial-BoldMT-6f" x="677.978516"/>
      <use xlink:href="#Arial-BoldMT-6d" x="739.0625"/>
      <use xlink:href="#Arial-BoldMT-20" x="827.978516"/>
      <use xlink:href="#Arial-BoldMT-28" x="855.761719"/>
      <use xlink:href="#Arial-BoldMT-51" x="889.0625"/>
      <use xlink:href="#Arial-BoldMT-75" x="966.845703"/>
      <use xlink:href="#Arial-BoldMT-65" x="1027.929688"/>
      <use xlink:href="#Arial-BoldMT-6c" x="1083.544922"/>
      <use xlink:href="#Arial-BoldMT-6c" x="1111.328125"/>
      <use xlink:href="#Arial-BoldMT-65" x="1139.111328"/>
      <use xlink:href="#Arial-BoldMT-20" x="1194.726562"/>
      <use xlink:href="#Arial-BoldMT-61" x="1222.509766"/>
      <use xlink:href="#Arial-BoldMT-75" x="1278.125"/>
      <use xlink:href="#Arial-BoldMT-73" x="1339.208984"/>
      <use xlink:href="#Arial-BoldMT-29" x="1394.824219"/>
     </g>
    </g>
   </g>
  </g>
 </g>
 <defs>
  <clipPath id="p170d9e26cd">
   <rect x="90" y="103.68" width="558" height="293.505882"/>
  </clipPath>
  <clipPath id="p9c06577ef1">
   <rect x="90" y="436.32" width="558" height="146.752941"/>
  </clipPath>
  <clipPath id="p79f3a2bfe9">
   <rect x="90" y="622.207059" width="558" height="146.752941"/>
  </clipPath>
 </defs>
</svg>
