
<!DOCTYPE svg PUBLIC "-//W3C//DTD SVG 1.1//EN" "http://www.w3.org/Graphics/SVG/1.1/DTD/svg11.dtd">
<svg xmlns:xlink="http://www.w3.org/1999/xlink" width="720pt" height="864pt" viewBox="0 0 720 864" xmlns="http://www.w3.org/2000/svg" version="1.1">
 <metadata>
  <rdf:RDF xmlns:dc="http://purl.org/dc/elements/1.1/" xmlns:cc="http://creativecommons.org/ns#" xmlns:rdf="http://www.w3.org/1999/02/22-rdf-syntax-ns#">
   <cc:Work>
    <dc:type rdf:resource="http://purl.org/dc/dcmitype/StillImage"/>
    <dc:date>2026-03-13T16:46:32.978407</dc:date>
    <dc:format>image/svg+xml</dc:format>
    <dc:creator>
     <cc:Agent>
      <dc:title>Matplotlib v3.9.0, https://matplotlib.org/</dc:title>
     </cc:Agent>
    </dc:creator>
   </cc:Work>
  </rdf:RDF>
 </metadata>
 <defs>
  <style type="text/css">*{stroke-linejoin: round; stroke-linecap: butt}</style>
 </defs>
 <g id="figure_1">
  <g id="patch_1">
   <path d="M 0 864  L 720 864  L 720 0  L 0 0  z " style="fill: #ffffff"/>
  </g>
  <g id="axes_1">
   <g id="patch_2">
    <path d="M 90 434.253913  L 648 434.253913  L 648 103.68  L 90 103.68  z " style="fill: #ffffff"/>
   </g>
   <g id="PolyCollection_1">
    <defs>
     <path id="m584199f2c2" d="M 115.363636 -643.276255  L 115.363636 -509.648944  L 117.060201 -510.401564  L 118.756765 -511.151521  L 120.453329 -511.89881  L 122.149894 -512.643427  L 123.846458 -513.385366  L 125.543022 -514.124622  L 127.239587 -514.86119  L 128.936151 -515.595062  L 130.632715 -516.326232  L 132.329279 -517.054692  L 134.025844 -517.780436  L 135.722408 -518.503456  L 137.418972 -519.223742  L 139.115537 -519.941286  L 140.812101 -520.65608  L 142.508665 -521.368112  L 144.20523 -522.077374  L 145.901794 -522.783854  L 147.598358 -523.487541  L 149.294922 -524.188425  L 150.991487 -524.886493  L 152.688051 -525.581733  L 154.384615 -526.274131  L 156.08118 -526.963675  L 157.777744 -527.650351  L 159.474308 -528.334145  L 161.170873 -529.01504  L 162.867437 -529.693024  L 164.564001 -530.368078  L 166.260566 -531.040188  L 167.95713 -531.709336  L 169.653694 -532.375505  L 171.350258 -533.038677  L 173.046823 -533.698834  L 174.743387 -534.355956  L 176.439951 -535.010024  L 178.136516 -535.661018  L 179.83308 -536.308918  L 181.529644 -536.953701  L 183.226209 -537.595347  L 184.922773 -538.233833  L 186.619337 -538.869136  L 188.315901 -539.501232  L 190.012466 -540.130098  L 191.70903 -540.755709  L 193.405594 -541.378039  L 195.102159 -541.997063  L 196.798723 -542.612755  L 198.495287 -543.225087  L 200.191852 -543.834031  L 201.888416 -544.43956  L 203.58498 -545.041645  L 205.281545 -545.640256  L 206.978109 -546.235363  L 208.674673 -546.826936  L 210.371237 -547.414943  L 212.067802 -547.999353  L 213.764366 -548.580133  L 215.46093 -549.157251  L 217.157495 -549.730672  L 218.854059 -550.300363  L 220.550623 -550.86629  L 222.247188 -551.428416  L 223.943752 -551.986706  L 225.640316 -552.541124  L 227.336881 -553.091633  L 229.033445 -553.638196  L 230.730009 -554.180774  L 232.426573 -554.71933  L 234.123138 -555.253825  L 235.819702 -555.78422  L 237.516266 -556.310474  L 239.212831 -556.832548  L 240.909395 -557.350401  L 242.605959 -557.863993  L 244.302524 -558.373282  L 245.999088 -558.878227  L 247.695652 -559.378786  L 249.392216 -559.874917  L 251.088781 -560.366578  L 252.785345 -560.853726  L 254.481909 -561.336319  L 256.178474 -561.814314  L 257.875038 -562.287667  L 259.571602 -562.756337  L 261.268167 -563.220281  L 262.964731 -563.679454  L 264.661295 -564.133816  L 266.35786 -564.583322  L 268.054424 -565.027931  L 269.750988 -565.4676  L 271.447552 -565.902287  L 273.144117 -566.33195  L 274.840681 -566.756548  L 276.537245 -567.176041  L 278.23381 -567.590387  L 279.930374 -567.999547  L 281.626938 -568.403481  L 283.323503 -568.80215  L 285.020067 -569.195518  L 286.716631 -569.583545  L 288.413196 -569.966196  L 290.10976 -570.343435  L 291.806324 -570.715228  L 293.502888 -571.08154  L 295.199453 -571.442339  L 296.896017 -571.797594  L 298.592581 -572.147273  L 300.289146 -572.491348  L 301.98571 -572.82979  L 303.682274 -573.162573  L 305.378839 -573.489671  L 307.075403 -573.81106  L 308.771967 -574.126718  L 310.468531 -574.436623  L 312.165096 -574.740756  L 313.86166 -575.039099  L 315.558224 -575.331634  L 317.254789 -575.618349  L 318.951353 -575.899228  L 320.647917 -576.174261  L 322.344482 -576.443437  L 324.041046 -576.706749  L 325.73761 -576.964191  L 327.434175 -577.215757  L 329.130739 -577.461444  L 330.827303 -577.701253  L 332.523867 -577.935182  L 334.220432 -578.163235  L 335.916996 -578.385416  L 337.61356 -578.601731  L 339.310125 -578.812187  L 341.006689 -579.016793  L 342.703253 -579.215562  L 344.399818 -579.408505  L 346.096382 -579.595638  L 347.792946 -579.776975  L 349.48951 -579.952535  L 351.186075 -580.122338  L 352.882639 -580.286402  L 354.579203 -580.444752  L 356.275768 -580.597411  L 357.972332 -580.744403  L 359.668896 -580.885755  L 361.365461 -581.021495  L 363.062025 -581.151652  L 364.758589 -581.276256  L 366.455154 -581.395338  L 368.151718 -581.508931  L 369.848282 -581.617068  L 371.544846 -581.719784  L 373.241411 -581.817114  L 374.937975 -581.909095  L 376.634539 -581.995762  L 378.331104 -582.077155  L 380.027668 -582.153312  L 381.724232 -582.224272  L 383.420797 -582.290075  L 385.117361 -582.350761  L 386.813925 -582.406371  L 388.51049 -582.456946  L 390.207054 -582.502529  L 391.903618 -582.54316  L 393.600182 -582.578882  L 395.296747 -582.609737  L 396.993311 -582.635769  L 398.689875 -582.65702  L 400.38644 -582.673532  L 402.083004 -582.685349  L 403.779568 -582.692514  L 405.476133 -582.695069  L 407.172697 -582.693058  L 408.869261 -582.686522  L 410.565825 -582.675504  L 412.26239 -582.660048  L 413.958954 -582.640194  L 415.655518 -582.615985  L 417.352083 -582.587462  L 419.048647 -582.554666  L 420.745211 -582.517639  L 422.441776 -582.476421  L 424.13834 -582.431052  L 425.834904 -582.381572  L 427.531469 -582.32802  L 429.228033 -582.270435  L 430.924597 -582.208856  L 432.621161 -582.143321  L 434.317726 -582.073866  L 436.01429 -582.00053  L 437.710854 -581.923348  L 439.407419 -581.842356  L 441.103983 -581.75759  L 442.800547 -581.669085  L 444.497112 -581.576874  L 446.193676 -581.480992  L 447.89024 -581.381471  L 449.586804 -581.278344  L 451.283369 -581.171643  L 452.979933 -581.0614  L 454.676497 -580.947644  L 456.373062 -580.830407  L 458.069626 -580.709718  L 459.76619 -580.585606  L 461.462755 -580.458098  L 463.159319 -580.327224  L 464.855883 -580.19301  L 466.552448 -580.055482  L 468.249012 -579.914668  L 469.945576 -579.770591  L 471.64214 -579.623278  L 473.338705 -579.472751  L 475.035269 -579.319036  L 476.731833 -579.162154  L 478.428398 -579.002129  L 480.124962 -578.838982  L 481.821526 -578.672734  L 483.518091 -578.503407  L 485.214655 -578.331021  L 486.911219 -578.155595  L 488.607784 -577.977149  L 490.304348 -577.795701  L 492.000912 -577.611269  L 493.697476 -577.42387  L 495.394041 -577.233522  L 497.090605 -577.040242  L 498.787169 -576.844044  L 500.483734 -576.644945  L 502.180298 -576.44296  L 503.876862 -576.238102  L 505.573427 -576.030387  L 507.269991 -575.819826  L 508.966555 -575.606435  L 510.663119 -575.390224  L 512.359684 -575.171206  L 514.056248 -574.949392  L 515.752812 -574.724794  L 517.449377 -574.497423  L 519.145941 -574.267288  L 520.842505 -574.034399  L 522.53907 -573.798766  L 524.235634 -573.560397  L 525.932198 -573.319302  L 527.628763 -573.075488  L 529.325327 -572.828963  L 531.021891 -572.579733  L 532.718455 -572.327807  L 534.41502 -572.07319  L 536.111584 -571.815888  L 537.808148 -571.555908  L 539.504713 -571.293254  L 541.201277 -571.027931  L 542.897841 -570.759943  L 544.594406 -570.489296  L 546.29097 -570.215993  L 547.987534 -569.940036  L 549.684099 -569.66143  L 551.380663 -569.380177  L 553.077227 -569.096278  L 554.773791 -568.809737  L 556.470356 -568.520555  L 558.16692 -568.228733  L 559.863484 -567.934273  L 561.560049 -567.637173  L 563.256613 -567.337437  L 564.953177 -567.035062  L 566.649742 -566.730049  L 568.346306 -566.422397  L 570.04287 -566.112105  L 571.739434 -565.799172  L 573.435999 -565.483596  L 575.132563 -565.165375  L 576.829127 -564.844507  L 578.525692 -564.52099  L 580.222256 -564.19482  L 581.91882 -563.865995  L 583.615385 -563.534511  L 585.311949 -563.200364  L 587.008513 -562.863551  L 588.705078 -562.524066  L 590.401642 -562.181906  L 592.098206 -561.837065  L 593.79477 -561.489538  L 595.491335 -561.13932  L 597.187899 -560.786404  L 598.884463 -560.430786  L 600.581028 -560.072457  L 602.277592 -559.711413  L 603.974156 -559.347645  L 605.670721 -558.981147  L 607.367285 -558.611911  L 609.063849 -558.23993  L 610.760413 -557.865194  L 612.456978 -557.487697  L 614.153542 -557.107429  L 615.850106 -556.724381  L 617.546671 -556.338545  L 619.243235 -555.94991  L 620.939799 -555.558468  L 622.636364 -555.164208  L 622.636364 -727.912683  L 622.636364 -727.912683  L 620.939799 -727.406512  L 619.243235 -726.900301  L 617.546671 -726.394057  L 615.850106 -725.887784  L 614.153542 -725.381487  L 612.456978 -724.875171  L 610.760413 -724.368841  L 609.063849 -723.862502  L 607.367285 -723.356161  L 605.670721 -722.849822  L 603.974156 -722.343491  L 602.277592 -721.837174  L 600.581028 -721.330877  L 598.884463 -720.824605  L 597.187899 -720.318366  L 595.491335 -719.812165  L 593.79477 -719.306009  L 592.098206 -718.799904  L 590.401642 -718.293858  L 588.705078 -717.787876  L 587.008513 -717.281966  L 585.311949 -716.776135  L 583.615385 -716.270391  L 581.91882 -715.76474  L 580.222256 -715.259191  L 578.525692 -714.753752  L 576.829127 -714.248429  L 575.132563 -713.743232  L 573.435999 -713.238169  L 571.739434 -712.733247  L 570.04287 -712.228477  L 568.346306 -711.723866  L 566.649742 -711.219424  L 564.953177 -710.71516  L 563.256613 -710.211083  L 561.560049 -709.707203  L 559.863484 -709.20353  L 558.16692 -708.700074  L 556.470356 -708.196846  L 554.773791 -707.693854  L 553.077227 -707.191112  L 551.380663 -706.688628  L 549.684099 -706.186415  L 547.987534 -705.684484  L 546.29097 -705.182847  L 544.594406 -704.681514  L 542.897841 -704.1805  L 541.201277 -703.679815  L 539.504713 -703.179474  L 537.808148 -702.679487  L 536.111584 -702.17987  L 534.41502 -701.680635  L 532.718455 -701.181796  L 531.021891 -700.683367  L 529.325327 -700.185363  L 527.628763 -699.687798  L 525.932198 -699.190687  L 524.235634 -698.694046  L 522.53907 -698.19789  L 520.842505 -697.702235  L 519.145941 -697.207097  L 517.449377 -696.712493  L 515.752812 -696.21844  L 514.056248 -695.724955  L 512.359684 -695.232056  L 510.663119 -694.739761  L 508.966555 -694.248088  L 507.269991 -693.757056  L 505.573427 -693.266685  L 503.876862 -692.776993  L 502.180298 -692.288  L 500.483734 -691.799728  L 498.787169 -691.312196  L 497.090605 -690.825427  L 495.394041 -690.339441  L 493.697476 -689.85426  L 492.000912 -689.369907  L 490.304348 -688.886405  L 488.607784 -688.403777  L 486.911219 -687.922047  L 485.214655 -687.44124  L 483.518091 -686.961379  L 481.821526 -686.48249  L 480.124962 -686.004599  L 478.428398 -685.527732  L 476.731833 -685.051916  L 475.035269 -684.577177  L 473.338705 -684.103543  L 471.64214 -683.631043  L 469.945576 -683.159704  L 468.249012 -682.689557  L 466.552448 -682.220631  L 464.855883 -681.752955  L 463.159319 -681.286561  L 461.462755 -680.82148  L 459.76619 -680.357743  L 458.069626 -679.895384  L 456.373062 -679.434434  L 454.676497 -678.974926  L 452.979933 -678.516896  L 451.283369 -678.060377  L 449.586804 -677.605404  L 447.89024 -677.152012  L 446.193676 -676.700238  L 444.497112 -676.250117  L 442.800547 -675.801688  L 441.103983 -675.354987  L 439.407419 -674.910052  L 437.710854 -674.466922  L 436.01429 -674.025636  L 434.317726 -673.586233  L 432.621161 -673.148753  L 430.924597 -672.713237  L 429.228033 -672.279726  L 427.531469 -671.84826  L 425.834904 -671.418881  L 424.13834 -670.991632  L 422.441776 -670.566555  L 420.745211 -670.143693  L 419.048647 -669.723089  L 417.352083 -669.304786  L 415.655518 -668.888828  L 413.958954 -668.47526  L 412.26239 -668.064125  L 410.565825 -667.655469  L 408.869261 -667.249335  L 407.172697 -666.84577  L 405.476133 -666.444817  L 403.779568 -666.046522  L 402.083004 -665.650931  L 400.38644 -665.258088  L 398.689875 -664.868038  L 396.993311 -664.480828  L 395.296747 -664.096501  L 393.600182 -663.715103  L 391.903618 -663.336678  L 390.207054 -662.961271  L 388.51049 -662.588926  L 386.813925 -662.219687  L 385.117361 -661.853597  L 383.420797 -661.490699  L 381.724232 -661.131037  L 380.027668 -660.774652  L 378.331104 -660.421585  L 376.634539 -660.071877  L 374.937975 -659.725568  L 373.241411 -659.382698  L 371.544846 -659.043305  L 369.848282 -658.707426  L 368.151718 -658.375099  L 366.455154 -658.046359  L 364.758589 -657.72124  L 363.062025 -657.399777  L 361.365461 -657.082001  L 359.668896 -656.767945  L 357.972332 -656.457637  L 356.275768 -656.151106  L 354.579203 -655.848381  L 352.882639 -655.549485  L 351.186075 -655.254445  L 349.48951 -654.963284  L 347.792946 -654.676021  L 346.096382 -654.392678  L 344.399818 -654.113272  L 342.703253 -653.837819  L 341.006689 -653.566336  L 339.310125 -653.298835  L 337.61356 -653.035327  L 335.916996 -652.775822  L 334.220432 -652.520329  L 332.523867 -652.268852  L 330.827303 -652.021396  L 329.130739 -651.777965  L 327.434175 -651.538558  L 325.73761 -651.303174  L 324.041046 -651.071811  L 322.344482 -650.844463  L 320.647917 -650.621124  L 318.951353 -650.401786  L 317.254789 -650.186439  L 315.558224 -649.97507  L 313.86166 -649.767666  L 312.165096 -649.564211  L 310.468531 -649.36469  L 308.771967 -649.169082  L 307.075403 -648.977368  L 305.378839 -648.789527  L 303.682274 -648.605534  L 301.98571 -648.425364  L 300.289146 -648.248993  L 298.592581 -648.076391  L 296.896017 -647.90753  L 295.199453 -647.74238  L 293.502888 -647.580908  L 291.806324 -647.423084  L 290.10976 -647.268871  L 288.413196 -647.118237  L 286.716631 -646.971143  L 285.020067 -646.827555  L 283.323503 -646.687433  L 281.626938 -646.550739  L 279.930374 -646.417434  L 278.23381 -646.287477  L 276.537245 -646.160827  L 274.840681 -646.037443  L 273.144117 -645.917283  L 271.447552 -645.800304  L 269.750988 -645.686462  L 268.054424 -645.575714  L 266.35786 -645.468017  L 264.661295 -645.363326  L 262.964731 -645.261596  L 261.268167 -645.162782  L 259.571602 -645.066841  L 257.875038 -644.973726  L 256.178474 -644.883392  L 254.481909 -644.795795  L 252.785345 -644.710889  L 251.088781 -644.628629  L 249.392216 -644.548969  L 247.695652 -644.471866  L 245.999088 -644.397273  L 244.302524 -644.325147  L 242.605959 -644.255442  L 240.909395 -644.188115  L 239.212831 -644.123121  L 237.516266 -644.060417  L 235.819702 -643.999959  L 234.123138 -643.941705  L 232.426573 -643.885611  L 230.730009 -643.831635  L 229.033445 -643.779736  L 227.336881 -643.729871  L 225.640316 -643.681999  L 223.943752 -643.63608  L 222.247188 -643.592074  L 220.550623 -643.54994  L 218.854059 -643.50964  L 217.157495 -643.471134  L 215.46093 -643.434384  L 213.764366 -643.399352  L 212.067802 -643.366002  L 210.371237 -643.334295  L 208.674673 -643.304196  L 206.978109 -643.275669  L 205.281545 -643.248679  L 203.58498 -643.22319  L 201.888416 -643.19917  L 200.191852 -643.176583  L 198.495287 -643.155397  L 196.798723 -643.135579  L 195.102159 -643.117097  L 193.405594 -643.099919  L 191.70903 -643.084015  L 190.012466 -643.069353  L 188.315901 -643.055905  L 186.619337 -643.043639  L 184.922773 -643.032528  L 183.226209 -643.022543  L 181.529644 -643.013655  L 179.83308 -643.005838  L 178.136516 -642.999064  L 176.439951 -642.993306  L 174.743387 -642.98854  L 173.046823 -642.984739  L 171.350258 -642.981878  L 169.653694 -642.979933  L 167.95713 -642.978879  L 166.260566 -642.978693  L 164.564001 -642.979352  L 162.867437 -642.980832  L 161.170873 -642.983113  L 159.474308 -642.98617  L 157.777744 -642.989984  L 156.08118 -642.994533  L 154.384615 -642.999797  L 152.688051 -643.005755  L 150.991487 -643.012387  L 149.294922 -643.019675  L 147.598358 -643.027598  L 145.901794 -643.036138  L 144.20523 -643.045278  L 142.508665 -643.054998  L 140.812101 -643.065282  L 139.115537 -643.076113  L 137.418972 -643.087473  L 135.722408 -643.099345  L 134.025844 -643.111715  L 132.329279 -643.124565  L 130.632715 -643.137881  L 128.936151 -643.151647  L 127.239587 -643.165848  L 125.543022 -643.18047  L 123.846458 -643.195498  L 122.149894 -643.210918  L 120.453329 -643.226718  L 118.756765 -643.242882  L 117.060201 -643.259399  L 115.363636 -643.276255  z " style="stroke: #ffa500; stroke-opacity: 0.3"/>
    </defs>
    <g clip-path="url(#p340c8e5784)">
     <use xlink:href="#m584199f2c2" x="0" y="864" style="fill: #ffa500; fill-opacity: 0.3; stroke: #ffa500; stroke-opacity: 0.3"/>
    </g>
   </g>
   <g id="matplotlib.axis_1">
    <g id="xtick_1">
     <g id="line2d_1">
      <path d="M 146.491736 434.253913  L 146.491736 103.68  " clip-path="url(#p340c8e5784)" style="fill: none; stroke: #b0b0b0; stroke-width: 0.8; stroke-linecap: square"/>
     </g>
     <g id="line2d_2">
      <defs>
       <path id="m09c2c0b9ec" d="M 0 0  L 0 3.5  " style="stroke: #000000; stroke-width: 0.8"/>
      </defs>
      <g>
       <use xlink:href="#m09c2c0b9ec" x="146.491736" y="434.253913" style="stroke: #000000; stroke-width: 0.8"/>
      </g>
     </g>
    </g>
    <g id="xtick_2">
     <g id="line2d_3">
      <path d="M 261.780992 434.253913  L 261.780992 103.68  " clip-path="url(#p340c8e5784)" style="fill: none; stroke: #b0b0b0; stroke-width: 0.8; stroke-linecap: square"/>
     </g>
     <g id="line2d_4">
      <g>
       <use xlink:href="#m09c2c0b9ec" x="261.780992" y="434.253913" style="stroke: #000000; stroke-width: 0.8"/>
      </g>
     </g>
    </g>
    <g id="xtick_3">
     <g id="line2d_5">
      <path d="M 377.070248 434.253913  L 377.070248 103.68  " clip-path="url(#p340c8e5784)" style="fill: none; stroke: #b0b0b0; stroke-width: 0.8; stroke-linecap: square"/>
     </g>
     <g id="line2d_6">
      <g>
       <use xlink:href="#m09c2c0b9ec" x="377.070248" y="434.253913" style="stroke: #000000; stroke-width: 0.8"/>
      </g>
     </g>
    </g>
    <g id="xtick_4">
     <g id="line2d_7">
      <path d="M 492.359504 434.253913  L 492.359504 103.68  " clip-path="url(#p340c8e5784)" style="fill: none; stroke: #b0b0b0; stroke-width: 0.8; stroke-linecap: square"/>
     </g>
     <g id="line2d_8">
      <g>
       <use xlink:href="#m09c2c0b9ec" x="492.359504" y="434.253913" style="stroke: #000000; stroke-width: 0.8"/>
      </g>
     </g>
    </g>
    <g id="xtick_5">
     <g id="line2d_9">
      <path d="M 607.64876 434.253913  L 607.64876 103.68  " clip-path="url(#p340c8e5784)" style="fill: none; stroke: #b0b0b0; stroke-width: 0.8; stroke-linecap: square"/>
     </g>
     <g id="line2d_10">
      <g>
       <use xlink:href="#m09c2c0b9ec" x="607.64876" y="434.253913" style="stroke: #000000; stroke-width: 0.8"/>
      </g>
     </g>
    </g>
   </g>
   <g id="matplotlib.axis_2">
    <g id="ytick_1">
     <g id="line2d_11">
      <path d="M 90 133.163877  L 648 133.163877  " clip-path="url(#p340c8e5784)" style="fill: none; stroke: #b0b0b0; stroke-width: 0.8; stroke-linecap: square"/>
     </g>
     <g id="line2d_12">
      <defs>
       <path id="m38023cc3a2" d="M 0 0  L -3.5 0  " style="stroke: #000000; stroke-width: 0.8"/>
      </defs>
      <g>
       <use xlink:href="#m38023cc3a2" x="90" y="133.163877" style="stroke: #000000; stroke-width: 0.8"/>
      </g>
     </g>
     <g id="text_1">
      <!-- $\mathdefault{10^{5}}$ -->
      <g transform="translate(57.88 141.345127) scale(0.16 -0.16)">
       <defs>
        <path id="Arial-BoldMT-31" d="M 2519 0  L 1641 0  L 1641 3309  Q 1159 2859 506 2644  L 506 3441  Q 850 3553 1253 3867  Q 1656 4181 1806 4600  L 2519 4600  L 2519 0  z " transform="scale(0.015625)"/>
        <path id="Arial-BoldMT-30" d="M 1756 4600  Q 2422 4600 2797 4125  Q 3244 3563 3244 2259  Q 3244 959 2794 391  Q 2422 -78 1756 -78  Q 1088 -78 678 436  Q 269 950 269 2269  Q 269 3563 719 4131  Q 1091 4600 1756 4600  z M 1756 3872  Q 1597 3872 1472 3770  Q 1347 3669 1278 3406  Q 1188 3066 1188 2259  Q 1188 1453 1269 1151  Q 1350 850 1473 750  Q 1597 650 1756 650  Q 1916 650 2041 751  Q 2166 853 2234 1116  Q 2325 1453 2325 2259  Q 2325 3066 2244 3367  Q 2163 3669 2039 3770  Q 1916 3872 1756 3872  z " transform="scale(0.015625)"/>
        <path id="Arial-BoldMT-35" d="M 284 1178  L 1159 1269  Q 1197 972 1381 798  Q 1566 625 1806 625  Q 2081 625 2272 848  Q 2463 1072 2463 1522  Q 2463 1944 2273 2155  Q 2084 2366 1781 2366  Q 1403 2366 1103 2031  L 391 2134  L 841 4519  L 3163 4519  L 3163 3697  L 1506 3697  L 1369 2919  Q 1663 3066 1969 3066  Q 2553 3066 2959 2641  Q 3366 2216 3366 1538  Q 3366 972 3038 528  Q 2591 -78 1797 -78  Q 1163 -78 763 262  Q 363 603 284 1178  z " transform="scale(0.015625)"/>
       </defs>
       <use xlink:href="#Arial-BoldMT-31" transform="translate(0 0.879688)"/>
       <use xlink:href="#Arial-BoldMT-30" transform="translate(55.615234 0.879688)"/>
       <use xlink:href="#Arial-BoldMT-35" transform="translate(112.972813 70.573438) scale(0.7)"/>
      </g>
     </g>
    </g>
    <g id="ytick_2">
     <g id="line2d_13">
      <defs>
       <path id="m3d0d9829c0" d="M 0 0  L -2 0  " style="stroke: #000000; stroke-width: 0.6"/>
      </defs>
      <g>
       <use xlink:href="#m3d0d9829c0" x="90" y="369.218156" style="stroke: #000000; stroke-width: 0.6"/>
      </g>
     </g>
     <g id="text_2">
      <!-- $\mathdefault{3\times10^{4}}$ -->
      <g transform="translate(34.52 377.479406) scale(0.16 -0.16)">
       <defs>
        <path id="Arial-BoldMT-33" d="M 241 1216  L 1091 1319  Q 1131 994 1309 822  Q 1488 650 1741 650  Q 2013 650 2198 856  Q 2384 1063 2384 1413  Q 2384 1744 2206 1937  Q 2028 2131 1772 2131  Q 1603 2131 1369 2066  L 1466 2781  Q 1822 2772 2009 2936  Q 2197 3100 2197 3372  Q 2197 3603 2059 3740  Q 1922 3878 1694 3878  Q 1469 3878 1309 3722  Q 1150 3566 1116 3266  L 306 3403  Q 391 3819 561 4067  Q 731 4316 1036 4458  Q 1341 4600 1719 4600  Q 2366 4600 2756 4188  Q 3078 3850 3078 3425  Q 3078 2822 2419 2463  Q 2813 2378 3048 2084  Q 3284 1791 3284 1375  Q 3284 772 2843 347  Q 2403 -78 1747 -78  Q 1125 -78 715 280  Q 306 638 241 1216  z " transform="scale(0.015625)"/>
        <path id="Arial-BoldMT-d7" d="M 347 1313  L 1291 2256  L 341 3203  L 922 3784  L 1872 2838  L 2816 3781  L 3381 3213  L 2438 2269  L 3391 1316  L 2809 734  L 1856 1688  L 913 744  L 347 1313  z " transform="scale(0.015625)"/>
        <path id="Arial-BoldMT-34" d="M 1994 0  L 1994 922  L 119 922  L 119 1691  L 2106 4600  L 2844 4600  L 2844 1694  L 3413 1694  L 3413 922  L 2844 922  L 2844 0  L 1994 0  z M 1994 1694  L 1994 3259  L 941 1694  L 1994 1694  z " transform="scale(0.015625)"/>
       </defs>
       <use xlink:href="#Arial-BoldMT-33" transform="translate(0 0.99375)"/>
       <use xlink:href="#Arial-BoldMT-d7" transform="translate(76.455078 0.99375)"/>
       <use xlink:href="#Arial-BoldMT-31" transform="translate(155.693359 0.99375)"/>
       <use xlink:href="#Arial-BoldMT-30" transform="translate(211.308594 0.99375)"/>
       <use xlink:href="#Arial-BoldMT-34" transform="translate(268.666172 70.6875) scale(0.7)"/>
      </g>
     </g>
    </g>
    <g id="ytick_3">
     <g id="line2d_14">
      <g>
       <use xlink:href="#m3d0d9829c0" x="90" y="312.814404" style="stroke: #000000; stroke-width: 0.6"/>
      </g>
     </g>
     <g id="text_3">
      <!-- $\mathdefault{4\times10^{4}}$ -->
      <g transform="translate(34.52 321.075654) scale(0.16 -0.16)">
       <use xlink:href="#Arial-BoldMT-34" transform="translate(0 0.99375)"/>
       <use xlink:href="#Arial-BoldMT-d7" transform="translate(76.455078 0.99375)"/>
       <use xlink:href="#Arial-BoldMT-31" transform="translate(155.693359 0.99375)"/>
       <use xlink:href="#Arial-BoldMT-30" transform="translate(211.308594 0.99375)"/>
       <use xlink:href="#Arial-BoldMT-34" transform="translate(268.666172 70.6875) scale(0.7)"/>
      </g>
     </g>
    </g>
    <g id="ytick_4">
     <g id="line2d_15">
      <g>
       <use xlink:href="#m3d0d9829c0" x="90" y="269.064254" style="stroke: #000000; stroke-width: 0.6"/>
      </g>
     </g>
    </g>
    <g id="ytick_5">
     <g id="line2d_16">
      <g>
       <use xlink:href="#m3d0d9829c0" x="90" y="233.317779" style="stroke: #000000; stroke-width: 0.6"/>
      </g>
     </g>
     <g id="text_4">
      <!-- $\mathdefault{6\times10^{4}}$ -->
      <g transform="translate(34.52 241.579029) scale(0.16 -0.16)">
       <defs>
        <path id="Arial-BoldMT-36" d="M 3247 3459  L 2397 3366  Q 2366 3628 2234 3753  Q 2103 3878 1894 3878  Q 1616 3878 1423 3628  Q 1231 3378 1181 2588  Q 1509 2975 1997 2975  Q 2547 2975 2939 2556  Q 3331 2138 3331 1475  Q 3331 772 2918 347  Q 2506 -78 1859 -78  Q 1166 -78 719 461  Q 272 1000 272 2228  Q 272 3488 737 4044  Q 1203 4600 1947 4600  Q 2469 4600 2811 4308  Q 3153 4016 3247 3459  z M 1256 1544  Q 1256 1116 1453 883  Q 1650 650 1903 650  Q 2147 650 2309 840  Q 2472 1031 2472 1466  Q 2472 1913 2297 2120  Q 2122 2328 1859 2328  Q 1606 2328 1431 2129  Q 1256 1931 1256 1544  z " transform="scale(0.015625)"/>
       </defs>
       <use xlink:href="#Arial-BoldMT-36" transform="translate(0 0.99375)"/>
       <use xlink:href="#Arial-BoldMT-d7" transform="translate(76.455078 0.99375)"/>
       <use xlink:href="#Arial-BoldMT-31" transform="translate(155.693359 0.99375)"/>
       <use xlink:href="#Arial-BoldMT-30" transform="translate(211.308594 0.99375)"/>
       <use xlink:href="#Arial-BoldMT-34" transform="translate(268.666172 70.6875) scale(0.7)"/>
      </g>
     </g>
    </g>
    <g id="ytick_6">
     <g id="line2d_17">
      <g>
       <use xlink:href="#m3d0d9829c0" x="90" y="203.094566" style="stroke: #000000; stroke-width: 0.6"/>
      </g>
     </g>
    </g>
    <g id="ytick_7">
     <g id="line2d_18">
      <g>
       <use xlink:href="#m3d0d9829c0" x="90" y="176.914027" style="stroke: #000000; stroke-width: 0.6"/>
      </g>
     </g>
    </g>
    <g id="ytick_8">
     <g id="line2d_19">
      <g>
       <use xlink:href="#m3d0d9829c0" x="90" y="153.821155" style="stroke: #000000; stroke-width: 0.6"/>
      </g>
     </g>
    </g>
    <g id="text_5">
     <!-- Gain -->
     <g transform="translate(27.3625 286.746957) rotate(-90) scale(0.16 -0.16)">
      <defs>
       <path id="Arial-BoldMT-47" d="M 2597 1684  L 2597 2456  L 4591 2456  L 4591 631  Q 4300 350 3748 136  Q 3197 -78 2631 -78  Q 1913 -78 1378 223  Q 844 525 575 1086  Q 306 1647 306 2306  Q 306 3022 606 3578  Q 906 4134 1484 4431  Q 1925 4659 2581 4659  Q 3434 4659 3914 4301  Q 4394 3944 4531 3313  L 3613 3141  Q 3516 3478 3248 3673  Q 2981 3869 2581 3869  Q 1975 3869 1617 3484  Q 1259 3100 1259 2344  Q 1259 1528 1621 1120  Q 1984 713 2572 713  Q 2863 713 3155 827  Q 3447 941 3656 1103  L 3656 1684  L 2597 1684  z " transform="scale(0.015625)"/>
       <path id="Arial-BoldMT-61" d="M 1116 2306  L 319 2450  Q 453 2931 781 3162  Q 1109 3394 1756 3394  Q 2344 3394 2631 3255  Q 2919 3116 3036 2902  Q 3153 2688 3153 2116  L 3144 1091  Q 3144 653 3186 445  Q 3228 238 3344 0  L 2475 0  Q 2441 88 2391 259  Q 2369 338 2359 363  Q 2134 144 1878 34  Q 1622 -75 1331 -75  Q 819 -75 523 203  Q 228 481 228 906  Q 228 1188 362 1408  Q 497 1628 739 1745  Q 981 1863 1438 1950  Q 2053 2066 2291 2166  L 2291 2253  Q 2291 2506 2166 2614  Q 2041 2722 1694 2722  Q 1459 2722 1328 2630  Q 1197 2538 1116 2306  z M 2291 1594  Q 2122 1538 1756 1459  Q 1391 1381 1278 1306  Q 1106 1184 1106 997  Q 1106 813 1243 678  Q 1381 544 1594 544  Q 1831 544 2047 700  Q 2206 819 2256 991  Q 2291 1103 2291 1419  L 2291 1594  z " transform="scale(0.015625)"/>
       <path id="Arial-BoldMT-69" d="M 459 3769  L 459 4581  L 1338 4581  L 1338 3769  L 459 3769  z M 459 0  L 459 3319  L 1338 3319  L 1338 0  L 459 0  z " transform="scale(0.015625)"/>
       <path id="Arial-BoldMT-6e" d="M 3478 0  L 2600 0  L 2600 1694  Q 2600 2231 2544 2389  Q 2488 2547 2361 2634  Q 2234 2722 2056 2722  Q 1828 2722 1647 2597  Q 1466 2472 1398 2265  Q 1331 2059 1331 1503  L 1331 0  L 453 0  L 453 3319  L 1269 3319  L 1269 2831  Q 1703 3394 2363 3394  Q 2653 3394 2893 3289  Q 3134 3184 3257 3021  Q 3381 2859 3429 2653  Q 3478 2447 3478 2063  L 3478 0  z " transform="scale(0.015625)"/>
      </defs>
      <use xlink:href="#Arial-BoldMT-47"/>
      <use xlink:href="#Arial-BoldMT-61" x="77.783203"/>
      <use xlink:href="#Arial-BoldMT-69" x="133.398438"/>
      <use xlink:href="#Arial-BoldMT-6e" x="161.181641"/>
     </g>
    </g>
   </g>
   <g id="LineCollection_1">
    <path d="M 115.363636 378.357262  L 115.363636 188.825976  " clip-path="url(#p340c8e5784)" style="fill: none; stroke: #00008b; stroke-width: 2"/>
    <path d="M 184.53719 419.227826  L 184.53719 186.232881  " clip-path="url(#p340c8e5784)" style="fill: none; stroke: #00008b; stroke-width: 2"/>
    <path d="M 253.710744 411.491899  L 253.710744 182.889804  " clip-path="url(#p340c8e5784)" style="fill: none; stroke: #00008b; stroke-width: 2"/>
    <path d="M 322.884298 372.248219  L 322.884298 169.571537  " clip-path="url(#p340c8e5784)" style="fill: none; stroke: #00008b; stroke-width: 2"/>
    <path d="M 392.057851 393.142478  L 392.057851 175.503621  " clip-path="url(#p340c8e5784)" style="fill: none; stroke: #00008b; stroke-width: 2"/>
    <path d="M 484.289256 363.522884  L 484.289256 141.388413  " clip-path="url(#p340c8e5784)" style="fill: none; stroke: #00008b; stroke-width: 2"/>
    <path d="M 576.520661 324.18499  L 576.520661 118.706087  " clip-path="url(#p340c8e5784)" style="fill: none; stroke: #00008b; stroke-width: 2"/>
   </g>
   <g id="line2d_20">
    <path d="M 115.363636 276.366877  L 622.636364 204.021073  L 622.636364 204.021073  " clip-path="url(#p340c8e5784)" style="fill: none; stroke: #1f77b4; stroke-width: 2; stroke-linecap: square"/>
   </g>
   <g id="line2d_21">
    <path d="M 115.363636 276.366877  L 622.636364 204.021073  L 622.636364 204.021073  " clip-path="url(#p340c8e5784)" style="fill: none; stroke: #ffa500; stroke-width: 2; stroke-linecap: square"/>
   </g>
   <g id="line2d_22">
    <path d="M 115.363636 261.529295  L 184.53719 269.983137  L 253.710744 265.605262  L 322.884298 245.809879  L 392.057851 255.558311  L 484.289256 222.547824  L 576.520661 195.675755  " clip-path="url(#p340c8e5784)" style="fill: none; stroke-dasharray: 12.8,3.2,2,3.2; stroke-dashoffset: 0; stroke: #00008b; stroke-width: 2"/>
    <defs>
     <path id="m4046c604c9" d="M 0 3  C 0.795609 3 1.55874 2.683901 2.12132 2.12132  C 2.683901 1.55874 3 0.795609 3 0  C 3 -0.795609 2.683901 -1.55874 2.12132 -2.12132  C 1.55874 -2.683901 0.795609 -3 0 -3  C -0.795609 -3 -1.55874 -2.683901 -2.12132 -2.12132  C -2.683901 -1.55874 -3 -0.795609 -3 0  C -3 0.795609 -2.683901 1.55874 -2.12132 2.12132  C -1.55874 2.683901 -0.795609 3 0 3  z " style="stroke: #00008b"/>
    </defs>
    <g clip-path="url(#p340c8e5784)">
     <use xlink:href="#m4046c604c9" x="115.363636" y="261.529295" style="fill: #00008b; stroke: #00008b"/>
     <use xlink:href="#m4046c604c9" x="184.53719" y="269.983137" style="fill: #00008b; stroke: #00008b"/>
     <use xlink:href="#m4046c604c9" x="253.710744" y="265.605262" style="fill: #00008b; stroke: #00008b"/>
     <use xlink:href="#m4046c604c9" x="322.884298" y="245.809879" style="fill: #00008b; stroke: #00008b"/>
     <use xlink:href="#m4046c604c9" x="392.057851" y="255.558311" style="fill: #00008b; stroke: #00008b"/>
     <use xlink:href="#m4046c604c9" x="484.289256" y="222.547824" style="fill: #00008b; stroke: #00008b"/>
     <use xlink:href="#m4046c604c9" x="576.520661" y="195.675755" style="fill: #00008b; stroke: #00008b"/>
    </g>
   </g>
   <g id="patch_3">
    <path d="M 90 434.253913  L 90 103.68  " style="fill: none; stroke: #000000; stroke-width: 1.2; stroke-linejoin: miter; stroke-linecap: square"/>
   </g>
   <g id="patch_4">
    <path d="M 648 434.253913  L 648 103.68  " style="fill: none; stroke: #000000; stroke-width: 1.2; stroke-linejoin: miter; stroke-linecap: square"/>
   </g>
   <g id="patch_5">
    <path d="M 90 434.253913  L 648 434.253913  " style="fill: none; stroke: #000000; stroke-width: 1.2; stroke-linejoin: miter; stroke-linecap: square"/>
   </g>
   <g id="patch_6">
    <path d="M 90 103.68  L 648 103.68  " style="fill: none; stroke: #000000; stroke-width: 1.2; stroke-linejoin: miter; stroke-linecap: square"/>
   </g>
   <g id="text_6">
    <!-- Gain als Funktion von $V_{G1T}$ -->
    <g transform="translate(250.92 97.68) scale(0.192 -0.192)">
     <defs>
      <path id="ArialMT-47" d="M 2638 1797  L 2638 2334  L 4578 2338  L 4578 638  Q 4131 281 3656 101  Q 3181 -78 2681 -78  Q 2006 -78 1454 211  Q 903 500 622 1047  Q 341 1594 341 2269  Q 341 2938 620 3517  Q 900 4097 1425 4378  Q 1950 4659 2634 4659  Q 3131 4659 3532 4498  Q 3934 4338 4162 4050  Q 4391 3763 4509 3300  L 3963 3150  Q 3859 3500 3706 3700  Q 3553 3900 3268 4020  Q 2984 4141 2638 4141  Q 2222 4141 1919 4014  Q 1616 3888 1430 3681  Q 1244 3475 1141 3228  Q 966 2803 966 2306  Q 966 1694 1177 1281  Q 1388 869 1791 669  Q 2194 469 2647 469  Q 3041 469 3416 620  Q 3791 772 3984 944  L 3984 1797  L 2638 1797  z " transform="scale(0.015625)"/>
      <path id="ArialMT-61" d="M 2588 409  Q 2275 144 1986 34  Q 1697 -75 1366 -75  Q 819 -75 525 192  Q 231 459 231 875  Q 231 1119 342 1320  Q 453 1522 633 1644  Q 813 1766 1038 1828  Q 1203 1872 1538 1913  Q 2219 1994 2541 2106  Q 2544 2222 2544 2253  Q 2544 2597 2384 2738  Q 2169 2928 1744 2928  Q 1347 2928 1158 2789  Q 969 2650 878 2297  L 328 2372  Q 403 2725 575 2942  Q 747 3159 1072 3276  Q 1397 3394 1825 3394  Q 2250 3394 2515 3294  Q 2781 3194 2906 3042  Q 3031 2891 3081 2659  Q 3109 2516 3109 2141  L 3109 1391  Q 3109 606 3145 398  Q 3181 191 3288 0  L 2700 0  Q 2613 175 2588 409  z M 2541 1666  Q 2234 1541 1622 1453  Q 1275 1403 1131 1340  Q 988 1278 909 1158  Q 831 1038 831 891  Q 831 666 1001 516  Q 1172 366 1500 366  Q 1825 366 2078 508  Q 2331 650 2450 897  Q 2541 1088 2541 1459  L 2541 1666  z " transform="scale(0.015625)"/>
      <path id="ArialMT-69" d="M 425 3934  L 425 4581  L 988 4581  L 988 3934  L 425 3934  z M 425 0  L 425 3319  L 988 3319  L 988 0  L 425 0  z " transform="scale(0.015625)"/>
      <path id="ArialMT-6e" d="M 422 0  L 422 3319  L 928 3319  L 928 2847  Q 1294 3394 1984 3394  Q 2284 3394 2536 3286  Q 2788 3178 2913 3003  Q 3038 2828 3088 2588  Q 3119 2431 3119 2041  L 3119 0  L 2556 0  L 2556 2019  Q 2556 2363 2490 2533  Q 2425 2703 2258 2804  Q 2091 2906 1866 2906  Q 1506 2906 1245 2678  Q 984 2450 984 1813  L 984 0  L 422 0  z " transform="scale(0.015625)"/>
      <path id="ArialMT-20" transform="scale(0.015625)"/>
      <path id="ArialMT-6c" d="M 409 0  L 409 4581  L 972 4581  L 972 0  L 409 0  z " transform="scale(0.015625)"/>
      <path id="ArialMT-73" d="M 197 991  L 753 1078  Q 800 744 1014 566  Q 1228 388 1613 388  Q 2000 388 2187 545  Q 2375 703 2375 916  Q 2375 1106 2209 1216  Q 2094 1291 1634 1406  Q 1016 1563 777 1677  Q 538 1791 414 1992  Q 291 2194 291 2438  Q 291 2659 392 2848  Q 494 3038 669 3163  Q 800 3259 1026 3326  Q 1253 3394 1513 3394  Q 1903 3394 2198 3281  Q 2494 3169 2634 2976  Q 2775 2784 2828 2463  L 2278 2388  Q 2241 2644 2061 2787  Q 1881 2931 1553 2931  Q 1166 2931 1000 2803  Q 834 2675 834 2503  Q 834 2394 903 2306  Q 972 2216 1119 2156  Q 1203 2125 1616 2013  Q 2213 1853 2448 1751  Q 2684 1650 2818 1456  Q 2953 1263 2953 975  Q 2953 694 2789 445  Q 2625 197 2315 61  Q 2006 -75 1616 -75  Q 969 -75 630 194  Q 291 463 197 991  z " transform="scale(0.015625)"/>
      <path id="ArialMT-46" d="M 525 0  L 525 4581  L 3616 4581  L 3616 4041  L 1131 4041  L 1131 2622  L 3281 2622  L 3281 2081  L 1131 2081  L 1131 0  L 525 0  z " transform="scale(0.015625)"/>
      <path id="ArialMT-75" d="M 2597 0  L 2597 488  Q 2209 -75 1544 -75  Q 1250 -75 995 37  Q 741 150 617 320  Q 494 491 444 738  Q 409 903 409 1263  L 409 3319  L 972 3319  L 972 1478  Q 972 1038 1006 884  Q 1059 663 1231 536  Q 1403 409 1656 409  Q 1909 409 2131 539  Q 2353 669 2445 892  Q 2538 1116 2538 1541  L 2538 3319  L 3100 3319  L 3100 0  L 2597 0  z " transform="scale(0.015625)"/>
      <path id="ArialMT-6b" d="M 425 0  L 425 4581  L 988 4581  L 988 1969  L 2319 3319  L 3047 3319  L 1778 2088  L 3175 0  L 2481 0  L 1384 1697  L 988 1316  L 988 0  L 425 0  z " transform="scale(0.015625)"/>
      <path id="ArialMT-74" d="M 1650 503  L 1731 6  Q 1494 -44 1306 -44  Q 1000 -44 831 53  Q 663 150 594 308  Q 525 466 525 972  L 525 2881  L 113 2881  L 113 3319  L 525 3319  L 525 4141  L 1084 4478  L 1084 3319  L 1650 3319  L 1650 2881  L 1084 2881  L 1084 941  Q 1084 700 1114 631  Q 1144 563 1211 522  Q 1278 481 1403 481  Q 1497 481 1650 503  z " transform="scale(0.015625)"/>
      <path id="ArialMT-6f" d="M 213 1659  Q 213 2581 725 3025  Q 1153 3394 1769 3394  Q 2453 3394 2887 2945  Q 3322 2497 3322 1706  Q 3322 1066 3130 698  Q 2938 331 2570 128  Q 2203 -75 1769 -75  Q 1072 -75 642 372  Q 213 819 213 1659  z M 791 1659  Q 791 1022 1069 705  Q 1347 388 1769 388  Q 2188 388 2466 706  Q 2744 1025 2744 1678  Q 2744 2294 2464 2611  Q 2184 2928 1769 2928  Q 1347 2928 1069 2612  Q 791 2297 791 1659  z " transform="scale(0.015625)"/>
      <path id="ArialMT-76" d="M 1344 0  L 81 3319  L 675 3319  L 1388 1331  Q 1503 1009 1600 663  Q 1675 925 1809 1294  L 2547 3319  L 3125 3319  L 1869 0  L 1344 0  z " transform="scale(0.015625)"/>
      <path id="DejaVuSans-BoldOblique-56" d="M 488 4666  L 1631 4666  L 2203 1178  L 4134 4666  L 5375 4666  L 2741 0  L 1306 0  L 488 4666  z " transform="scale(0.015625)"/>
      <path id="DejaVuSans-BoldOblique-47" d="M 4359 347  Q 3903 125 3412 17  Q 2922 -91 2363 -91  Q 1369 -91 800 414  Q 231 919 231 1791  Q 231 2356 409 2851  Q 588 3347 941 3756  Q 1372 4256 1958 4503  Q 2544 4750 3297 4750  Q 3716 4750 4141 4662  Q 4566 4575 4978 4403  L 4794 3438  Q 4413 3659 4048 3768  Q 3684 3878 3316 3878  Q 2509 3878 2003 3340  Q 1497 2803 1497 1959  Q 1497 1400 1792 1090  Q 2088 781 2625 781  Q 2800 781 2975 804  Q 3150 828 3328 878  L 3506 1784  L 2772 1784  L 2925 2591  L 4794 2591  L 4359 347  z " transform="scale(0.015625)"/>
      <path id="DejaVuSans-Bold-31" d="M 750 831  L 1813 831  L 1813 3847  L 722 3622  L 722 4441  L 1806 4666  L 2950 4666  L 2950 831  L 4013 831  L 4013 0  L 750 0  L 750 831  z " transform="scale(0.015625)"/>
      <path id="DejaVuSans-BoldOblique-54" d="M 488 4666  L 4788 4666  L 4609 3756  L 3059 3756  L 2328 0  L 1125 0  L 1856 3756  L 306 3756  L 488 4666  z " transform="scale(0.015625)"/>
     </defs>
     <use xlink:href="#ArialMT-47" transform="translate(0 0.09375)"/>
     <use xlink:href="#ArialMT-61" transform="translate(77.783203 0.09375)"/>
     <use xlink:href="#ArialMT-69" transform="translate(133.398438 0.09375)"/>
     <use xlink:href="#ArialMT-6e" transform="translate(155.615234 0.09375)"/>
     <use xlink:href="#ArialMT-20" transform="translate(211.230469 0.09375)"/>
     <use xlink:href="#ArialMT-61" transform="translate(239.013672 0.09375)"/>
     <use xlink:href="#ArialMT-6c" transform="translate(294.628906 0.09375)"/>
     <use xlink:href="#ArialMT-73" transform="translate(316.845703 0.09375)"/>
     <use xlink:href="#ArialMT-20" transform="translate(366.845703 0.09375)"/>
     <use xlink:href="#ArialMT-46" transform="translate(394.628906 0.09375)"/>
     <use xlink:href="#ArialMT-75" transform="translate(455.712891 0.09375)"/>
     <use xlink:href="#ArialMT-6e" transform="translate(511.328125 0.09375)"/>
     <use xlink:href="#ArialMT-6b" transform="translate(566.943359 0.09375)"/>
     <use xlink:href="#ArialMT-74" transform="translate(616.943359 0.09375)"/>
     <use xlink:href="#ArialMT-69" transform="translate(644.726562 0.09375)"/>
     <use xlink:href="#ArialMT-6f" transform="translate(666.943359 0.09375)"/>
     <use xlink:href="#ArialMT-6e" transform="translate(722.558594 0.09375)"/>
     <use xlink:href="#ArialMT-20" transform="translate(778.173828 0.09375)"/>
     <use xlink:href="#ArialMT-76" transform="translate(805.957031 0.09375)"/>
     <use xlink:href="#ArialMT-6f" transform="translate(855.957031 0.09375)"/>
     <use xlink:href="#ArialMT-6e" transform="translate(911.572266 0.09375)"/>
     <use xlink:href="#ArialMT-20" transform="translate(967.1875 0.09375)"/>
     <use xlink:href="#DejaVuSans-BoldOblique-56" transform="translate(994.970703 0.09375)"/>
     <use xlink:href="#DejaVuSans-BoldOblique-47" transform="translate(1072.363281 -16.3125) scale(0.7)"/>
     <use xlink:href="#DejaVuSans-Bold-31" transform="translate(1129.819336 -16.3125) scale(0.7)"/>
     <use xlink:href="#DejaVuSans-BoldOblique-54" transform="translate(1178.525391 -16.3125) scale(0.7)"/>
    </g>
   </g>
   <g id="legend_1">
    <g id="patch_7">
     <path d="M 390.63 426.253913  L 636.8 426.253913  Q 640 426.253913 640 423.053913  L 640 356.613913  Q 640 353.413913 636.8 353.413913  L 390.63 353.413913  Q 387.43 353.413913 387.43 356.613913  L 387.43 423.053913  Q 387.43 426.253913 390.63 426.253913  z " style="fill: #ffffff; opacity: 0.8; stroke: #cccccc; stroke-linejoin: miter"/>
    </g>
    <g id="patch_8">
     <path d="M 393.83 371.266413  L 425.83 371.266413  L 425.83 360.066413  L 393.83 360.066413  z " style="fill: #ffa500; fill-opacity: 0.3; stroke: #ffa500; stroke-opacity: 0.3; stroke-linejoin: miter"/>
    </g>
    <g id="text_7">
     <!-- 1σ Unsicherheitsbereich -->
     <g transform="translate(438.63 371.266413) scale(0.16 -0.16)">
      <defs>
       <path id="Arial-BoldMT-3c3" d="M 4228 3319  L 4228 2591  L 3425 2591  Q 3669 2175 3669 1672  Q 3669 947 3195 436  Q 2722 -75 1944 -75  Q 1184 -75 714 400  Q 244 875 244 1644  Q 244 2406 705 2900  Q 1166 3394 1969 3394  Q 2203 3394 2509 3319  L 4228 3319  z M 1144 1659  Q 1144 1184 1372 912  Q 1600 641 1956 641  Q 2300 641 2533 903  Q 2766 1166 2766 1675  Q 2766 2125 2544 2401  Q 2322 2678 1956 2678  Q 1597 2678 1370 2406  Q 1144 2134 1144 1659  z " transform="scale(0.015625)"/>
       <path id="Arial-BoldMT-20" transform="scale(0.015625)"/>
       <path id="Arial-BoldMT-55" d="M 459 4581  L 1384 4581  L 1384 2100  Q 1384 1509 1419 1334  Q 1478 1053 1701 883  Q 1925 713 2313 713  Q 2706 713 2906 873  Q 3106 1034 3147 1268  Q 3188 1503 3188 2047  L 3188 4581  L 4113 4581  L 4113 2175  Q 4113 1350 4038 1009  Q 3963 669 3761 434  Q 3559 200 3221 61  Q 2884 -78 2341 -78  Q 1684 -78 1345 73  Q 1006 225 809 467  Q 613 709 550 975  Q 459 1369 459 2138  L 459 4581  z " transform="scale(0.015625)"/>
       <path id="Arial-BoldMT-73" d="M 150 947  L 1031 1081  Q 1088 825 1259 692  Q 1431 559 1741 559  Q 2081 559 2253 684  Q 2369 772 2369 919  Q 2369 1019 2306 1084  Q 2241 1147 2013 1200  Q 950 1434 666 1628  Q 272 1897 272 2375  Q 272 2806 612 3100  Q 953 3394 1669 3394  Q 2350 3394 2681 3172  Q 3013 2950 3138 2516  L 2309 2363  Q 2256 2556 2107 2659  Q 1959 2763 1684 2763  Q 1338 2763 1188 2666  Q 1088 2597 1088 2488  Q 1088 2394 1175 2328  Q 1294 2241 1995 2081  Q 2697 1922 2975 1691  Q 3250 1456 3250 1038  Q 3250 581 2869 253  Q 2488 -75 1741 -75  Q 1063 -75 667 200  Q 272 475 150 947  z " transform="scale(0.015625)"/>
       <path id="Arial-BoldMT-63" d="M 3353 2338  L 2488 2181  Q 2444 2441 2289 2572  Q 2134 2703 1888 2703  Q 1559 2703 1364 2476  Q 1169 2250 1169 1719  Q 1169 1128 1367 884  Q 1566 641 1900 641  Q 2150 641 2309 783  Q 2469 925 2534 1272  L 3397 1125  Q 3263 531 2881 228  Q 2500 -75 1859 -75  Q 1131 -75 698 384  Q 266 844 266 1656  Q 266 2478 700 2936  Q 1134 3394 1875 3394  Q 2481 3394 2839 3133  Q 3197 2872 3353 2338  z " transform="scale(0.015625)"/>
       <path id="Arial-BoldMT-68" d="M 1334 4581  L 1334 2897  Q 1759 3394 2350 3394  Q 2653 3394 2897 3281  Q 3141 3169 3264 2994  Q 3388 2819 3433 2606  Q 3478 2394 3478 1947  L 3478 0  L 2600 0  L 2600 1753  Q 2600 2275 2550 2415  Q 2500 2556 2373 2639  Q 2247 2722 2056 2722  Q 1838 2722 1666 2615  Q 1494 2509 1414 2295  Q 1334 2081 1334 1663  L 1334 0  L 456 0  L 456 4581  L 1334 4581  z " transform="scale(0.015625)"/>
       <path id="Arial-BoldMT-65" d="M 2381 1056  L 3256 909  Q 3088 428 2723 176  Q 2359 -75 1813 -75  Q 947 -75 531 491  Q 203 944 203 1634  Q 203 2459 634 2926  Q 1066 3394 1725 3394  Q 2466 3394 2894 2905  Q 3322 2416 3303 1406  L 1103 1406  Q 1113 1016 1316 798  Q 1519 581 1822 581  Q 2028 581 2168 693  Q 2309 806 2381 1056  z M 2431 1944  Q 2422 2325 2234 2523  Q 2047 2722 1778 2722  Q 1491 2722 1303 2513  Q 1116 2303 1119 1944  L 2431 1944  z " transform="scale(0.015625)"/>
       <path id="Arial-BoldMT-72" d="M 1300 0  L 422 0  L 422 3319  L 1238 3319  L 1238 2847  Q 1447 3181 1614 3287  Q 1781 3394 1994 3394  Q 2294 3394 2572 3228  L 2300 2463  Q 2078 2606 1888 2606  Q 1703 2606 1575 2504  Q 1447 2403 1373 2137  Q 1300 1872 1300 1025  L 1300 0  z " transform="scale(0.015625)"/>
       <path id="Arial-BoldMT-74" d="M 1981 3319  L 1981 2619  L 1381 2619  L 1381 1281  Q 1381 875 1398 808  Q 1416 741 1477 697  Q 1538 653 1625 653  Q 1747 653 1978 738  L 2053 56  Q 1747 -75 1359 -75  Q 1122 -75 931 4  Q 741 84 652 211  Q 563 338 528 553  Q 500 706 500 1172  L 500 2619  L 97 2619  L 97 3319  L 500 3319  L 500 3978  L 1381 4491  L 1381 3319  L 1981 3319  z " transform="scale(0.015625)"/>
       <path id="Arial-BoldMT-62" d="M 422 0  L 422 4581  L 1300 4581  L 1300 2931  Q 1706 3394 2263 3394  Q 2869 3394 3266 2955  Q 3663 2516 3663 1694  Q 3663 844 3258 384  Q 2853 -75 2275 -75  Q 1991 -75 1714 67  Q 1438 209 1238 488  L 1238 0  L 422 0  z M 1294 1731  Q 1294 1216 1456 969  Q 1684 619 2063 619  Q 2353 619 2558 867  Q 2763 1116 2763 1650  Q 2763 2219 2556 2470  Q 2350 2722 2028 2722  Q 1713 2722 1503 2476  Q 1294 2231 1294 1731  z " transform="scale(0.015625)"/>
      </defs>
      <use xlink:href="#Arial-BoldMT-31"/>
      <use xlink:href="#Arial-BoldMT-3c3" x="55.615234"/>
      <use xlink:href="#Arial-BoldMT-20" x="124.023438"/>
      <use xlink:href="#Arial-BoldMT-55" x="151.806641"/>
      <use xlink:href="#Arial-BoldMT-6e" x="224.023438"/>
      <use xlink:href="#Arial-BoldMT-73" x="285.107422"/>
      <use xlink:href="#Arial-BoldMT-69" x="340.722656"/>
      <use xlink:href="#Arial-BoldMT-63" x="368.505859"/>
      <use xlink:href="#Arial-BoldMT-68" x="424.121094"/>
      <use xlink:href="#Arial-BoldMT-65" x="485.205078"/>
      <use xlink:href="#Arial-BoldMT-72" x="540.820312"/>
      <use xlink:href="#Arial-BoldMT-68" x="579.736328"/>
      <use xlink:href="#Arial-BoldMT-65" x="640.820312"/>
      <use xlink:href="#Arial-BoldMT-69" x="696.435547"/>
      <use xlink:href="#Arial-BoldMT-74" x="724.21875"/>
      <use xlink:href="#Arial-BoldMT-73" x="757.519531"/>
      <use xlink:href="#Arial-BoldMT-62" x="813.134766"/>
      <use xlink:href="#Arial-BoldMT-65" x="874.21875"/>
      <use xlink:href="#Arial-BoldMT-72" x="929.833984"/>
      <use xlink:href="#Arial-BoldMT-65" x="968.75"/>
      <use xlink:href="#Arial-BoldMT-69" x="1024.365234"/>
      <use xlink:href="#Arial-BoldMT-63" x="1052.148438"/>
      <use xlink:href="#Arial-BoldMT-68" x="1107.763672"/>
     </g>
    </g>
    <g id="line2d_23">
     <path d="M 393.83 388.276413  L 409.83 388.276413  L 425.83 388.276413  " style="fill: none; stroke: #ffa500; stroke-width: 2; stroke-linecap: square"/>
    </g>
    <g id="text_8">
     <!-- Exponentielle Anpassung -->
     <g transform="translate(438.63 393.876413) scale(0.16 -0.16)">
      <defs>
       <path id="Arial-BoldMT-45" d="M 466 0  L 466 4581  L 3863 4581  L 3863 3806  L 1391 3806  L 1391 2791  L 3691 2791  L 3691 2019  L 1391 2019  L 1391 772  L 3950 772  L 3950 0  L 466 0  z " transform="scale(0.015625)"/>
       <path id="Arial-BoldMT-78" d="M 38 0  L 1234 1709  L 88 3319  L 1159 3319  L 1747 2406  L 2366 3319  L 3397 3319  L 2272 1747  L 3500 0  L 2422 0  L 1747 1028  L 1066 0  L 38 0  z " transform="scale(0.015625)"/>
       <path id="Arial-BoldMT-70" d="M 434 3319  L 1253 3319  L 1253 2831  Q 1413 3081 1684 3237  Q 1956 3394 2288 3394  Q 2866 3394 3269 2941  Q 3672 2488 3672 1678  Q 3672 847 3265 386  Q 2859 -75 2281 -75  Q 2006 -75 1782 34  Q 1559 144 1313 409  L 1313 -1263  L 434 -1263  L 434 3319  z M 1303 1716  Q 1303 1156 1525 889  Q 1747 622 2066 622  Q 2372 622 2575 867  Q 2778 1113 2778 1672  Q 2778 2194 2568 2447  Q 2359 2700 2050 2700  Q 1728 2700 1515 2451  Q 1303 2203 1303 1716  z " transform="scale(0.015625)"/>
       <path id="Arial-BoldMT-6f" d="M 256 1706  Q 256 2144 472 2553  Q 688 2963 1083 3178  Q 1478 3394 1966 3394  Q 2719 3394 3200 2905  Q 3681 2416 3681 1669  Q 3681 916 3195 420  Q 2709 -75 1972 -75  Q 1516 -75 1102 131  Q 688 338 472 736  Q 256 1134 256 1706  z M 1156 1659  Q 1156 1166 1390 903  Q 1625 641 1969 641  Q 2313 641 2545 903  Q 2778 1166 2778 1666  Q 2778 2153 2545 2415  Q 2313 2678 1969 2678  Q 1625 2678 1390 2415  Q 1156 2153 1156 1659  z " transform="scale(0.015625)"/>
       <path id="Arial-BoldMT-6c" d="M 459 0  L 459 4581  L 1338 4581  L 1338 0  L 459 0  z " transform="scale(0.015625)"/>
       <path id="Arial-BoldMT-41" d="M 4597 0  L 3591 0  L 3191 1041  L 1359 1041  L 981 0  L 0 0  L 1784 4581  L 2763 4581  L 4597 0  z M 2894 1813  L 2263 3513  L 1644 1813  L 2894 1813  z " transform="scale(0.015625)"/>
       <path id="Arial-BoldMT-75" d="M 2644 0  L 2644 497  Q 2463 231 2167 78  Q 1872 -75 1544 -75  Q 1209 -75 943 72  Q 678 219 559 484  Q 441 750 441 1219  L 441 3319  L 1319 3319  L 1319 1794  Q 1319 1094 1367 936  Q 1416 778 1544 686  Q 1672 594 1869 594  Q 2094 594 2272 717  Q 2450 841 2515 1023  Q 2581 1206 2581 1919  L 2581 3319  L 3459 3319  L 3459 0  L 2644 0  z " transform="scale(0.015625)"/>
       <path id="Arial-BoldMT-67" d="M 378 -219  L 1381 -341  Q 1406 -516 1497 -581  Q 1622 -675 1891 -675  Q 2234 -675 2406 -572  Q 2522 -503 2581 -350  Q 2622 -241 2622 53  L 2622 538  Q 2228 0 1628 0  Q 959 0 569 566  Q 263 1013 263 1678  Q 263 2513 664 2953  Q 1066 3394 1663 3394  Q 2278 3394 2678 2853  L 2678 3319  L 3500 3319  L 3500 341  Q 3500 -247 3403 -537  Q 3306 -828 3131 -993  Q 2956 -1159 2664 -1253  Q 2372 -1347 1925 -1347  Q 1081 -1347 728 -1058  Q 375 -769 375 -325  Q 375 -281 378 -219  z M 1163 1728  Q 1163 1200 1367 954  Q 1572 709 1872 709  Q 2194 709 2416 961  Q 2638 1213 2638 1706  Q 2638 2222 2425 2472  Q 2213 2722 1888 2722  Q 1572 2722 1367 2476  Q 1163 2231 1163 1728  z " transform="scale(0.015625)"/>
      </defs>
      <use xlink:href="#Arial-BoldMT-45"/>
      <use xlink:href="#Arial-BoldMT-78" x="66.699219"/>
      <use xlink:href="#Arial-BoldMT-70" x="122.314453"/>
      <use xlink:href="#Arial-BoldMT-6f" x="183.398438"/>
      <use xlink:href="#Arial-BoldMT-6e" x="244.482422"/>
      <use xlink:href="#Arial-BoldMT-65" x="305.566406"/>
      <use xlink:href="#Arial-BoldMT-6e" x="361.181641"/>
      <use xlink:href="#Arial-BoldMT-74" x="422.265625"/>
      <use xlink:href="#Arial-BoldMT-69" x="455.566406"/>
      <use xlink:href="#Arial-BoldMT-65" x="483.349609"/>
      <use xlink:href="#Arial-BoldMT-6c" x="538.964844"/>
      <use xlink:href="#Arial-BoldMT-6c" x="566.748047"/>
      <use xlink:href="#Arial-BoldMT-65" x="594.53125"/>
      <use xlink:href="#Arial-BoldMT-20" x="650.146484"/>
      <use xlink:href="#Arial-BoldMT-41" x="674.179688"/>
      <use xlink:href="#Arial-BoldMT-6e" x="746.396484"/>
      <use xlink:href="#Arial-BoldMT-70" x="807.480469"/>
      <use xlink:href="#Arial-BoldMT-61" x="868.564453"/>
      <use xlink:href="#Arial-BoldMT-73" x="924.179688"/>
      <use xlink:href="#Arial-BoldMT-73" x="979.794922"/>
      <use xlink:href="#Arial-BoldMT-75" x="1035.410156"/>
      <use xlink:href="#Arial-BoldMT-6e" x="1096.494141"/>
      <use xlink:href="#Arial-BoldMT-67" x="1157.578125"/>
     </g>
    </g>
    <g id="LineCollection_2">
     <path d="M 409.83 419.096413  L 409.83 403.096413  " style="fill: none; stroke: #00008b; stroke-width: 2"/>
    </g>
    <g id="line2d_24">
     <path d="M 393.83 411.096413  L 425.83 411.096413  " style="fill: none; stroke-dasharray: 12.8,3.2,2,3.2; stroke-dashoffset: 0; stroke: #00008b; stroke-width: 2"/>
    </g>
    <g id="line2d_25">
     <g>
      <use xlink:href="#m4046c604c9" x="409.83" y="411.096413" style="fill: #00008b; stroke: #00008b"/>
     </g>
    </g>
    <g id="text_9">
     <!-- Gain mit Unsicherheiten -->
     <g transform="translate(438.63 416.696413) scale(0.16 -0.16)">
      <defs>
       <path id="Arial-BoldMT-6d" d="M 394 3319  L 1203 3319  L 1203 2866  Q 1638 3394 2238 3394  Q 2556 3394 2790 3262  Q 3025 3131 3175 2866  Q 3394 3131 3647 3262  Q 3900 3394 4188 3394  Q 4553 3394 4806 3245  Q 5059 3097 5184 2809  Q 5275 2597 5275 2122  L 5275 0  L 4397 0  L 4397 1897  Q 4397 2391 4306 2534  Q 4184 2722 3931 2722  Q 3747 2722 3584 2609  Q 3422 2497 3350 2280  Q 3278 2063 3278 1594  L 3278 0  L 2400 0  L 2400 1819  Q 2400 2303 2353 2443  Q 2306 2584 2207 2653  Q 2109 2722 1941 2722  Q 1738 2722 1575 2612  Q 1413 2503 1342 2297  Q 1272 2091 1272 1613  L 1272 0  L 394 0  L 394 3319  z " transform="scale(0.015625)"/>
      </defs>
      <use xlink:href="#Arial-BoldMT-47"/>
      <use xlink:href="#Arial-BoldMT-61" x="77.783203"/>
      <use xlink:href="#Arial-BoldMT-69" x="133.398438"/>
      <use xlink:href="#Arial-BoldMT-6e" x="161.181641"/>
      <use xlink:href="#Arial-BoldMT-20" x="222.265625"/>
      <use xlink:href="#Arial-BoldMT-6d" x="250.048828"/>
      <use xlink:href="#Arial-BoldMT-69" x="338.964844"/>
      <use xlink:href="#Arial-BoldMT-74" x="366.748047"/>
      <use xlink:href="#Arial-BoldMT-20" x="400.048828"/>
      <use xlink:href="#Arial-BoldMT-55" x="427.832031"/>
      <use xlink:href="#Arial-BoldMT-6e" x="500.048828"/>
      <use xlink:href="#Arial-BoldMT-73" x="561.132812"/>
      <use xlink:href="#Arial-BoldMT-69" x="616.748047"/>
      <use xlink:href="#Arial-BoldMT-63" x="644.53125"/>
      <use xlink:href="#Arial-BoldMT-68" x="700.146484"/>
      <use xlink:href="#Arial-BoldMT-65" x="761.230469"/>
      <use xlink:href="#Arial-BoldMT-72" x="816.845703"/>
      <use xlink:href="#Arial-BoldMT-68" x="855.761719"/>
      <use xlink:href="#Arial-BoldMT-65" x="916.845703"/>
      <use xlink:href="#Arial-BoldMT-69" x="972.460938"/>
      <use xlink:href="#Arial-BoldMT-74" x="1000.244141"/>
      <use xlink:href="#Arial-BoldMT-65" x="1033.544922"/>
      <use xlink:href="#Arial-BoldMT-6e" x="1089.160156"/>
     </g>
    </g>
   </g>
  </g>
  <g id="axes_2">
   <g id="patch_9">
    <path d="M 90 545.822609  L 648 545.822609  L 648 463.17913  L 90 463.17913  z " style="fill: #ffffff"/>
   </g>
   <g id="matplotlib.axis_3">
    <g id="xtick_6">
     <g id="line2d_26">
      <path d="M 146.491736 545.822609  L 146.491736 463.17913  " clip-path="url(#p54304a68ee)" style="fill: none; stroke: #b0b0b0; stroke-width: 0.8; stroke-linecap: square"/>
     </g>
     <g id="line2d_27">
      <g>
       <use xlink:href="#m09c2c0b9ec" x="146.491736" y="545.822609" style="stroke: #000000; stroke-width: 0.8"/>
      </g>
     </g>
    </g>
    <g id="xtick_7">
     <g id="line2d_28">
      <path d="M 261.780992 545.822609  L 261.780992 463.17913  " clip-path="url(#p54304a68ee)" style="fill: none; stroke: #b0b0b0; stroke-width: 0.8; stroke-linecap: square"/>
     </g>
     <g id="line2d_29">
      <g>
       <use xlink:href="#m09c2c0b9ec" x="261.780992" y="545.822609" style="stroke: #000000; stroke-width: 0.8"/>
      </g>
     </g>
    </g>
    <g id="xtick_8">
     <g id="line2d_30">
      <path d="M 377.070248 545.822609  L 377.070248 463.17913  " clip-path="url(#p54304a68ee)" style="fill: none; stroke: #b0b0b0; stroke-width: 0.8; stroke-linecap: square"/>
     </g>
     <g id="line2d_31">
      <g>
       <use xlink:href="#m09c2c0b9ec" x="377.070248" y="545.822609" style="stroke: #000000; stroke-width: 0.8"/>
      </g>
     </g>
    </g>
    <g id="xtick_9">
     <g id="line2d_32">
      <path d="M 492.359504 545.822609  L 492.359504 463.17913  " clip-path="url(#p54304a68ee)" style="fill: none; stroke: #b0b0b0; stroke-width: 0.8; stroke-linecap: square"/>
     </g>
     <g id="line2d_33">
      <g>
       <use xlink:href="#m09c2c0b9ec" x="492.359504" y="545.822609" style="stroke: #000000; stroke-width: 0.8"/>
      </g>
     </g>
    </g>
    <g id="xtick_10">
     <g id="line2d_34">
      <path d="M 607.64876 545.822609  L 607.64876 463.17913  " clip-path="url(#p54304a68ee)" style="fill: none; stroke: #b0b0b0; stroke-width: 0.8; stroke-linecap: square"/>
     </g>
     <g id="line2d_35">
      <g>
       <use xlink:href="#m09c2c0b9ec" x="607.64876" y="545.822609" style="stroke: #000000; stroke-width: 0.8"/>
      </g>
     </g>
    </g>
   </g>
   <g id="matplotlib.axis_4">
    <g id="ytick_9">
     <g id="line2d_36">
      <path d="M 90 534.455513  L 648 534.455513  " clip-path="url(#p54304a68ee)" style="fill: none; stroke: #b0b0b0; stroke-width: 0.8; stroke-linecap: square"/>
     </g>
     <g id="line2d_37">
      <g>
       <use xlink:href="#m38023cc3a2" x="90" y="534.455513" style="stroke: #000000; stroke-width: 0.8"/>
      </g>
     </g>
     <g id="text_10">
      <!-- −25000 -->
      <g transform="translate(29.1675 540.181763) scale(0.16 -0.16)">
       <defs>
        <path id="Arial-BoldMT-2212" d="M 266 1850  L 266 2672  L 3469 2672  L 3469 1850  L 266 1850  z " transform="scale(0.015625)"/>
        <path id="Arial-BoldMT-32" d="M 3238 816  L 3238 0  L 159 0  Q 209 463 459 877  Q 709 1291 1447 1975  Q 2041 2528 2175 2725  Q 2356 2997 2356 3263  Q 2356 3556 2198 3714  Q 2041 3872 1763 3872  Q 1488 3872 1325 3706  Q 1163 3541 1138 3156  L 263 3244  Q 341 3969 753 4284  Q 1166 4600 1784 4600  Q 2463 4600 2850 4234  Q 3238 3869 3238 3325  Q 3238 3016 3127 2736  Q 3016 2456 2775 2150  Q 2616 1947 2200 1565  Q 1784 1184 1673 1059  Q 1563 934 1494 816  L 3238 816  z " transform="scale(0.015625)"/>
       </defs>
       <use xlink:href="#Arial-BoldMT-2212"/>
       <use xlink:href="#Arial-BoldMT-32" x="58.398438"/>
       <use xlink:href="#Arial-BoldMT-35" x="114.013672"/>
       <use xlink:href="#Arial-BoldMT-30" x="169.628906"/>
       <use xlink:href="#Arial-BoldMT-30" x="225.244141"/>
       <use xlink:href="#Arial-BoldMT-30" x="280.859375"/>
      </g>
     </g>
    </g>
    <g id="ytick_10">
     <g id="line2d_38">
      <path d="M 90 508.598145  L 648 508.598145  " clip-path="url(#p54304a68ee)" style="fill: none; stroke: #b0b0b0; stroke-width: 0.8; stroke-linecap: square"/>
     </g>
     <g id="line2d_39">
      <g>
       <use xlink:href="#m38023cc3a2" x="90" y="508.598145" style="stroke: #000000; stroke-width: 0.8"/>
      </g>
     </g>
     <g id="text_11">
      <!-- 0 -->
      <g transform="translate(74.1025 514.324395) scale(0.16 -0.16)">
       <use xlink:href="#Arial-BoldMT-30"/>
      </g>
     </g>
    </g>
    <g id="ytick_11">
     <g id="line2d_40">
      <path d="M 90 482.740778  L 648 482.740778  " clip-path="url(#p54304a68ee)" style="fill: none; stroke: #b0b0b0; stroke-width: 0.8; stroke-linecap: square"/>
     </g>
     <g id="line2d_41">
      <g>
       <use xlink:href="#m38023cc3a2" x="90" y="482.740778" style="stroke: #000000; stroke-width: 0.8"/>
      </g>
     </g>
     <g id="text_12">
      <!-- 25000 -->
      <g transform="translate(38.5125 488.467028) scale(0.16 -0.16)">
       <use xlink:href="#Arial-BoldMT-32"/>
       <use xlink:href="#Arial-BoldMT-35" x="55.615234"/>
       <use xlink:href="#Arial-BoldMT-30" x="111.230469"/>
       <use xlink:href="#Arial-BoldMT-30" x="166.845703"/>
       <use xlink:href="#Arial-BoldMT-30" x="222.460938"/>
      </g>
     </g>
    </g>
    <g id="text_13">
     <!-- Residuen -->
     <g transform="translate(22.01 540.50587) rotate(-90) scale(0.16 -0.16)">
      <defs>
       <path id="Arial-BoldMT-52" d="M 469 0  L 469 4581  L 2416 4581  Q 3150 4581 3483 4457  Q 3816 4334 4016 4018  Q 4216 3703 4216 3297  Q 4216 2781 3912 2445  Q 3609 2109 3006 2022  Q 3306 1847 3501 1637  Q 3697 1428 4028 894  L 4588 0  L 3481 0  L 2813 997  Q 2456 1531 2325 1670  Q 2194 1809 2047 1861  Q 1900 1913 1581 1913  L 1394 1913  L 1394 0  L 469 0  z M 1394 2644  L 2078 2644  Q 2744 2644 2909 2700  Q 3075 2756 3169 2893  Q 3263 3031 3263 3238  Q 3263 3469 3139 3611  Q 3016 3753 2791 3791  Q 2678 3806 2116 3806  L 1394 3806  L 1394 2644  z " transform="scale(0.015625)"/>
       <path id="Arial-BoldMT-64" d="M 3503 0  L 2688 0  L 2688 488  Q 2484 203 2207 64  Q 1931 -75 1650 -75  Q 1078 -75 670 386  Q 263 847 263 1672  Q 263 2516 659 2955  Q 1056 3394 1663 3394  Q 2219 3394 2625 2931  L 2625 4581  L 3503 4581  L 3503 0  z M 1159 1731  Q 1159 1200 1306 963  Q 1519 619 1900 619  Q 2203 619 2415 876  Q 2628 1134 2628 1647  Q 2628 2219 2422 2470  Q 2216 2722 1894 2722  Q 1581 2722 1370 2473  Q 1159 2225 1159 1731  z " transform="scale(0.015625)"/>
      </defs>
      <use xlink:href="#Arial-BoldMT-52"/>
      <use xlink:href="#Arial-BoldMT-65" x="72.216797"/>
      <use xlink:href="#Arial-BoldMT-73" x="127.832031"/>
      <use xlink:href="#Arial-BoldMT-69" x="183.447266"/>
      <use xlink:href="#Arial-BoldMT-64" x="211.230469"/>
      <use xlink:href="#Arial-BoldMT-75" x="272.314453"/>
      <use xlink:href="#Arial-BoldMT-65" x="333.398438"/>
      <use xlink:href="#Arial-BoldMT-6e" x="389.013672"/>
     </g>
    </g>
   </g>
   <g id="LineCollection_3">
    <path d="M 115.363636 528.806445  L 115.363636 480.556033  " clip-path="url(#p54304a68ee)" style="fill: none; stroke: #800000; stroke-width: 2"/>
    <path d="M 184.53719 536.950189  L 184.53719 482.090497  " clip-path="url(#p54304a68ee)" style="fill: none; stroke: #800000; stroke-width: 2"/>
    <path d="M 253.710744 538.686404  L 253.710744 483.437418  " clip-path="url(#p54304a68ee)" style="fill: none; stroke: #800000; stroke-width: 2"/>
    <path d="M 322.884298 535.987479  L 322.884298 480.639418  " clip-path="url(#p54304a68ee)" style="fill: none; stroke: #800000; stroke-width: 2"/>
    <path d="M 392.057851 542.066087  L 392.057851 486.189612  " clip-path="url(#p54304a68ee)" style="fill: none; stroke: #800000; stroke-width: 2"/>
    <path d="M 484.289256 541.815352  L 484.289256 474.57824  " clip-path="url(#p54304a68ee)" style="fill: none; stroke: #800000; stroke-width: 2"/>
    <path d="M 576.520661 539.239629  L 576.520661 466.935652  " clip-path="url(#p54304a68ee)" style="fill: none; stroke: #800000; stroke-width: 2"/>
   </g>
   <g id="line2d_42">
    <path d="M 90 508.598145  L 648 508.598145  " clip-path="url(#p54304a68ee)" style="fill: none; stroke-dasharray: 7.4,3.2; stroke-dashoffset: 0; stroke: #000000; stroke-width: 2"/>
   </g>
   <g id="line2d_43">
    <defs>
     <path id="m0755212cbf" d="M 0 3  C 0.795609 3 1.55874 2.683901 2.12132 2.12132  C 2.683901 1.55874 3 0.795609 3 0  C 3 -0.795609 2.683901 -1.55874 2.12132 -2.12132  C 1.55874 -2.683901 0.795609 -3 0 -3  C -0.795609 -3 -1.55874 -2.683901 -2.12132 -2.12132  C -2.683901 -1.55874 -3 -0.795609 -3 0  C -3 0.795609 -2.683901 1.55874 -2.12132 2.12132  C -1.55874 2.683901 -0.795609 3 0 3  z " style="stroke: #800000"/>
    </defs>
    <g clip-path="url(#p54304a68ee)">
     <use xlink:href="#m0755212cbf" x="115.363636" y="504.681239" style="fill: #800000; stroke: #800000"/>
     <use xlink:href="#m0755212cbf" x="184.53719" y="509.520343" style="fill: #800000; stroke: #800000"/>
     <use xlink:href="#m0755212cbf" x="253.710744" y="511.061911" style="fill: #800000; stroke: #800000"/>
     <use xlink:href="#m0755212cbf" x="322.884298" y="508.313448" style="fill: #800000; stroke: #800000"/>
     <use xlink:href="#m0755212cbf" x="392.057851" y="514.127849" style="fill: #800000; stroke: #800000"/>
     <use xlink:href="#m0755212cbf" x="484.289256" y="508.196796" style="fill: #800000; stroke: #800000"/>
     <use xlink:href="#m0755212cbf" x="576.520661" y="503.08764" style="fill: #800000; stroke: #800000"/>
    </g>
   </g>
   <g id="patch_10">
    <path d="M 90 545.822609  L 90 463.17913  " style="fill: none; stroke: #000000; stroke-width: 1.2; stroke-linejoin: miter; stroke-linecap: square"/>
   </g>
   <g id="patch_11">
    <path d="M 648 545.822609  L 648 463.17913  " style="fill: none; stroke: #000000; stroke-width: 1.2; stroke-linejoin: miter; stroke-linecap: square"/>
   </g>
   <g id="patch_12">
    <path d="M 90 545.822609  L 648 545.822609  " style="fill: none; stroke: #000000; stroke-width: 1.2; stroke-linejoin: miter; stroke-linecap: square"/>
   </g>
   <g id="patch_13">
    <path d="M 90 463.17913  L 648 463.17913  " style="fill: none; stroke: #000000; stroke-width: 1.2; stroke-linejoin: miter; stroke-linecap: square"/>
   </g>
   <g id="legend_2">
    <g id="patch_14">
     <path d="M 508 537.822609  L 636.8 537.822609  Q 640 537.822609 640 534.622609  L 640 510.302609  Q 640 507.102609 636.8 507.102609  L 508 507.102609  Q 504.8 507.102609 504.8 510.302609  L 504.8 534.622609  Q 504.8 537.822609 508 537.822609  z " style="fill: #ffffff; opacity: 0.8; stroke: #cccccc; stroke-linejoin: miter"/>
    </g>
    <g id="LineCollection_4">
     <path d="M 527.2 530.462609  L 527.2 514.462609  " style="fill: none; stroke: #800000; stroke-width: 2"/>
    </g>
    <g id="line2d_44"/>
    <g id="line2d_45">
     <g>
      <use xlink:href="#m0755212cbf" x="527.2" y="522.462609" style="fill: #800000; stroke: #800000"/>
     </g>
    </g>
    <g id="text_14">
     <!-- $\chi^2$ = 0.098 -->
     <g transform="translate(556 528.062609) scale(0.16 -0.16)">
      <defs>
       <path id="DejaVuSans-BoldOblique-3c7" d="M 2372 2303  L 3253 3500  L 4438 3500  L 2628 1047  L 2881 -181  Q 2934 -428 3028 -512  Q 3122 -597 3291 -597  L 3641 -597  L 3500 -1331  L 2978 -1331  Q 2409 -1331 2156 -1100  Q 1906 -866 1784 -281  L 1756 -141  L 878 -1331  L -306 -1331  L 1497 1116  L 1244 2350  Q 1191 2606 1091 2688  Q 991 2766 841 2766  L 491 2766  L 631 3500  L 1278 3500  Q 1688 3500 1950 3281  Q 2216 3059 2341 2450  L 2372 2303  z " transform="scale(0.015625)"/>
       <path id="DejaVuSans-Bold-32" d="M 1844 884  L 3897 884  L 3897 0  L 506 0  L 506 884  L 2209 2388  Q 2438 2594 2547 2791  Q 2656 2988 2656 3200  Q 2656 3528 2436 3728  Q 2216 3928 1850 3928  Q 1569 3928 1234 3808  Q 900 3688 519 3450  L 519 4475  Q 925 4609 1322 4679  Q 1719 4750 2100 4750  Q 2938 4750 3402 4381  Q 3866 4013 3866 3353  Q 3866 2972 3669 2642  Q 3472 2313 2841 1759  L 1844 884  z " transform="scale(0.015625)"/>
       <path id="Arial-BoldMT-3d" d="M 266 2550  L 266 3356  L 3469 3356  L 3469 2550  L 266 2550  z M 266 1163  L 266 1972  L 3469 1972  L 3469 1163  L 266 1163  z " transform="scale(0.015625)"/>
       <path id="Arial-BoldMT-2e" d="M 459 0  L 459 878  L 1338 878  L 1338 0  L 459 0  z " transform="scale(0.015625)"/>
       <path id="Arial-BoldMT-39" d="M 291 1059  L 1141 1153  Q 1172 894 1303 769  Q 1434 644 1650 644  Q 1922 644 2112 894  Q 2303 1144 2356 1931  Q 2025 1547 1528 1547  Q 988 1547 595 1964  Q 203 2381 203 3050  Q 203 3747 617 4173  Q 1031 4600 1672 4600  Q 2369 4600 2816 4061  Q 3263 3522 3263 2288  Q 3263 1031 2797 475  Q 2331 -81 1584 -81  Q 1047 -81 715 205  Q 384 491 291 1059  z M 2278 2978  Q 2278 3403 2083 3637  Q 1888 3872 1631 3872  Q 1388 3872 1227 3680  Q 1066 3488 1066 3050  Q 1066 2606 1241 2398  Q 1416 2191 1678 2191  Q 1931 2191 2104 2391  Q 2278 2591 2278 2978  z " transform="scale(0.015625)"/>
       <path id="Arial-BoldMT-38" d="M 1025 2472  Q 684 2616 529 2867  Q 375 3119 375 3419  Q 375 3931 733 4265  Q 1091 4600 1750 4600  Q 2403 4600 2764 4265  Q 3125 3931 3125 3419  Q 3125 3100 2959 2851  Q 2794 2603 2494 2472  Q 2875 2319 3073 2025  Q 3272 1731 3272 1347  Q 3272 713 2867 316  Q 2463 -81 1791 -81  Q 1166 -81 750 247  Q 259 634 259 1309  Q 259 1681 443 1992  Q 628 2303 1025 2472  z M 1206 3356  Q 1206 3094 1354 2947  Q 1503 2800 1750 2800  Q 2000 2800 2150 2948  Q 2300 3097 2300 3359  Q 2300 3606 2151 3754  Q 2003 3903 1759 3903  Q 1506 3903 1356 3753  Q 1206 3603 1206 3356  z M 1125 1394  Q 1125 1031 1311 828  Q 1497 625 1775 625  Q 2047 625 2225 820  Q 2403 1016 2403 1384  Q 2403 1706 2222 1901  Q 2041 2097 1763 2097  Q 1441 2097 1283 1875  Q 1125 1653 1125 1394  z " transform="scale(0.015625)"/>
      </defs>
      <use xlink:href="#DejaVuSans-BoldOblique-3c7" transform="translate(0 0.765625)"/>
      <use xlink:href="#DejaVuSans-Bold-32" transform="translate(68.968099 39.046875) scale(0.7)"/>
      <use xlink:href="#Arial-BoldMT-20" transform="translate(120.408529 0.765625)"/>
      <use xlink:href="#Arial-BoldMT-3d" transform="translate(148.191732 0.765625)"/>
      <use xlink:href="#Arial-BoldMT-20" transform="translate(206.590169 0.765625)"/>
      <use xlink:href="#Arial-BoldMT-30" transform="translate(234.373372 0.765625)"/>
      <use xlink:href="#Arial-BoldMT-2e" transform="translate(289.988607 0.765625)"/>
      <use xlink:href="#Arial-BoldMT-30" transform="translate(317.77181 0.765625)"/>
      <use xlink:href="#Arial-BoldMT-39" transform="translate(373.387044 0.765625)"/>
      <use xlink:href="#Arial-BoldMT-38" transform="translate(429.002279 0.765625)"/>
     </g>
    </g>
   </g>
  </g>
  <g id="axes_3">
   <g id="patch_15">
    <path d="M 90 657.391304  L 648 657.391304  L 648 574.747826  L 90 574.747826  z " style="fill: #ffffff"/>
   </g>
   <g id="PathCollection_1">
    <g clip-path="url(#p96c8b8c011)">
     <use xlink:href="#m0755212cbf" x="115.363636" y="653.634783" style="fill: #800000; stroke: #800000"/>
     <use xlink:href="#m0755212cbf" x="184.53719" y="583.198081" style="fill: #800000; stroke: #800000"/>
     <use xlink:href="#m0755212cbf" x="253.710744" y="589.035425" style="fill: #800000; stroke: #800000"/>
     <use xlink:href="#m0755212cbf" x="322.884298" y="622.212076" style="fill: #800000; stroke: #800000"/>
     <use xlink:href="#m0755212cbf" x="392.057851" y="601.111956" style="fill: #800000; stroke: #800000"/>
     <use xlink:href="#m0755212cbf" x="484.289256" y="578.504348" style="fill: #800000; stroke: #800000"/>
     <use xlink:href="#m0755212cbf" x="576.520661" y="597.855958" style="fill: #800000; stroke: #800000"/>
    </g>
   </g>
   <g id="matplotlib.axis_5">
    <g id="xtick_11">
     <g id="line2d_46">
      <path d="M 146.491736 657.391304  L 146.491736 574.747826  " clip-path="url(#p96c8b8c011)" style="fill: none; stroke: #b0b0b0; stroke-width: 0.8; stroke-linecap: square"/>
     </g>
     <g id="line2d_47">
      <g>
       <use xlink:href="#m09c2c0b9ec" x="146.491736" y="657.391304" style="stroke: #000000; stroke-width: 0.8"/>
      </g>
     </g>
    </g>
    <g id="xtick_12">
     <g id="line2d_48">
      <path d="M 261.780992 657.391304  L 261.780992 574.747826  " clip-path="url(#p96c8b8c011)" style="fill: none; stroke: #b0b0b0; stroke-width: 0.8; stroke-linecap: square"/>
     </g>
     <g id="line2d_49">
      <g>
       <use xlink:href="#m09c2c0b9ec" x="261.780992" y="657.391304" style="stroke: #000000; stroke-width: 0.8"/>
      </g>
     </g>
    </g>
    <g id="xtick_13">
     <g id="line2d_50">
      <path d="M 377.070248 657.391304  L 377.070248 574.747826  " clip-path="url(#p96c8b8c011)" style="fill: none; stroke: #b0b0b0; stroke-width: 0.8; stroke-linecap: square"/>
     </g>
     <g id="line2d_51">
      <g>
       <use xlink:href="#m09c2c0b9ec" x="377.070248" y="657.391304" style="stroke: #000000; stroke-width: 0.8"/>
      </g>
     </g>
    </g>
    <g id="xtick_14">
     <g id="line2d_52">
      <path d="M 492.359504 657.391304  L 492.359504 574.747826  " clip-path="url(#p96c8b8c011)" style="fill: none; stroke: #b0b0b0; stroke-width: 0.8; stroke-linecap: square"/>
     </g>
     <g id="line2d_53">
      <g>
       <use xlink:href="#m09c2c0b9ec" x="492.359504" y="657.391304" style="stroke: #000000; stroke-width: 0.8"/>
      </g>
     </g>
    </g>
    <g id="xtick_15">
     <g id="line2d_54">
      <path d="M 607.64876 657.391304  L 607.64876 574.747826  " clip-path="url(#p96c8b8c011)" style="fill: none; stroke: #b0b0b0; stroke-width: 0.8; stroke-linecap: square"/>
     </g>
     <g id="line2d_55">
      <g>
       <use xlink:href="#m09c2c0b9ec" x="607.64876" y="657.391304" style="stroke: #000000; stroke-width: 0.8"/>
      </g>
     </g>
    </g>
   </g>
   <g id="matplotlib.axis_6">
    <g id="ytick_12">
     <g id="line2d_56">
      <path d="M 90 636.771839  L 648 636.771839  " clip-path="url(#p96c8b8c011)" style="fill: none; stroke: #b0b0b0; stroke-width: 0.8; stroke-linecap: square"/>
     </g>
     <g id="line2d_57">
      <g>
       <use xlink:href="#m38023cc3a2" x="90" y="636.771839" style="stroke: #000000; stroke-width: 0.8"/>
      </g>
     </g>
     <g id="text_15">
      <!-- 37.5 -->
      <g transform="translate(51.8625 642.498089) scale(0.16 -0.16)">
       <defs>
        <path id="Arial-BoldMT-37" d="M 272 3703  L 272 4519  L 3275 4519  L 3275 3881  Q 2903 3516 2518 2831  Q 2134 2147 1932 1376  Q 1731 606 1734 0  L 888 0  Q 909 950 1279 1937  Q 1650 2925 2269 3703  L 272 3703  z " transform="scale(0.015625)"/>
       </defs>
       <use xlink:href="#Arial-BoldMT-33"/>
       <use xlink:href="#Arial-BoldMT-37" x="55.615234"/>
       <use xlink:href="#Arial-BoldMT-2e" x="111.230469"/>
       <use xlink:href="#Arial-BoldMT-35" x="139.013672"/>
      </g>
     </g>
    </g>
    <g id="ytick_13">
     <g id="line2d_58">
      <path d="M 90 609.986622  L 648 609.986622  " clip-path="url(#p96c8b8c011)" style="fill: none; stroke: #b0b0b0; stroke-width: 0.8; stroke-linecap: square"/>
     </g>
     <g id="line2d_59">
      <g>
       <use xlink:href="#m38023cc3a2" x="90" y="609.986622" style="stroke: #000000; stroke-width: 0.8"/>
      </g>
     </g>
     <g id="text_16">
      <!-- 40.0 -->
      <g transform="translate(51.8625 615.712872) scale(0.16 -0.16)">
       <use xlink:href="#Arial-BoldMT-34"/>
       <use xlink:href="#Arial-BoldMT-30" x="55.615234"/>
       <use xlink:href="#Arial-BoldMT-2e" x="111.230469"/>
       <use xlink:href="#Arial-BoldMT-30" x="139.013672"/>
      </g>
     </g>
    </g>
    <g id="ytick_14">
     <g id="line2d_60">
      <path d="M 90 583.201405  L 648 583.201405  " clip-path="url(#p96c8b8c011)" style="fill: none; stroke: #b0b0b0; stroke-width: 0.8; stroke-linecap: square"/>
     </g>
     <g id="line2d_61">
      <g>
       <use xlink:href="#m38023cc3a2" x="90" y="583.201405" style="stroke: #000000; stroke-width: 0.8"/>
      </g>
     </g>
     <g id="text_17">
      <!-- 42.5 -->
      <g transform="translate(51.8625 588.927655) scale(0.16 -0.16)">
       <use xlink:href="#Arial-BoldMT-34"/>
       <use xlink:href="#Arial-BoldMT-32" x="55.615234"/>
       <use xlink:href="#Arial-BoldMT-2e" x="111.230469"/>
       <use xlink:href="#Arial-BoldMT-35" x="139.013672"/>
      </g>
     </g>
    </g>
    <g id="text_18">
     <!-- Rel. Fehler -->
     <g transform="translate(27.5005 656.969565) rotate(-90) scale(0.16 -0.16)">
      <defs>
       <path id="Arial-BoldMT-46" d="M 472 0  L 472 4581  L 3613 4581  L 3613 3806  L 1397 3806  L 1397 2722  L 3309 2722  L 3309 1947  L 1397 1947  L 1397 0  L 472 0  z " transform="scale(0.015625)"/>
      </defs>
      <use xlink:href="#Arial-BoldMT-52"/>
      <use xlink:href="#Arial-BoldMT-65" x="72.216797"/>
      <use xlink:href="#Arial-BoldMT-6c" x="127.832031"/>
      <use xlink:href="#Arial-BoldMT-2e" x="155.615234"/>
      <use xlink:href="#Arial-BoldMT-20" x="183.398438"/>
      <use xlink:href="#Arial-BoldMT-46" x="211.181641"/>
      <use xlink:href="#Arial-BoldMT-65" x="272.265625"/>
      <use xlink:href="#Arial-BoldMT-68" x="327.880859"/>
      <use xlink:href="#Arial-BoldMT-6c" x="388.964844"/>
      <use xlink:href="#Arial-BoldMT-65" x="416.748047"/>
      <use xlink:href="#Arial-BoldMT-72" x="472.363281"/>
     </g>
     <!--  I [%] -->
     <g transform="translate(44.635 635.178315) rotate(-90) scale(0.16 -0.16)">
      <defs>
       <path id="Arial-BoldMT-49" d="M 438 0  L 438 4581  L 1363 4581  L 1363 0  L 438 0  z " transform="scale(0.015625)"/>
       <path id="Arial-BoldMT-5b" d="M 456 -1291  L 456 4581  L 2013 4581  L 2013 3891  L 1291 3891  L 1291 -600  L 2013 -600  L 2013 -1291  L 456 -1291  z " transform="scale(0.015625)"/>
       <path id="Arial-BoldMT-25" d="M 278 3450  Q 278 4066 548 4362  Q 819 4659 1281 4659  Q 1759 4659 2029 4364  Q 2300 4069 2300 3450  Q 2300 2834 2029 2537  Q 1759 2241 1297 2241  Q 819 2241 548 2536  Q 278 2831 278 3450  z M 963 3456  Q 963 3009 1066 2856  Q 1144 2744 1281 2744  Q 1422 2744 1500 2856  Q 1600 3009 1600 3456  Q 1600 3903 1500 4053  Q 1422 4169 1281 4169  Q 1144 4169 1066 4056  Q 963 3903 963 3456  z M 1950 -175  L 1300 -175  L 3741 4659  L 4372 4659  L 1950 -175  z M 3369 1028  Q 3369 1644 3639 1941  Q 3909 2238 4378 2238  Q 4850 2238 5120 1941  Q 5391 1644 5391 1028  Q 5391 409 5120 112  Q 4850 -184 4388 -184  Q 3909 -184 3639 112  Q 3369 409 3369 1028  z M 4053 1031  Q 4053 584 4156 434  Q 4234 319 4372 319  Q 4513 319 4588 431  Q 4691 584 4691 1031  Q 4691 1478 4591 1631  Q 4513 1744 4372 1744  Q 4231 1744 4156 1631  Q 4053 1478 4053 1031  z " transform="scale(0.015625)"/>
       <path id="Arial-BoldMT-5d" d="M 1675 4581  L 1675 -1291  L 119 -1291  L 119 -600  L 841 -600  L 841 3897  L 119 3897  L 119 4581  L 1675 4581  z " transform="scale(0.015625)"/>
      </defs>
      <use xlink:href="#Arial-BoldMT-20"/>
      <use xlink:href="#Arial-BoldMT-49" x="27.783203"/>
      <use xlink:href="#Arial-BoldMT-20" x="55.566406"/>
      <use xlink:href="#Arial-BoldMT-5b" x="83.349609"/>
      <use xlink:href="#Arial-BoldMT-25" x="116.650391"/>
      <use xlink:href="#Arial-BoldMT-5d" x="205.566406"/>
     </g>
    </g>
   </g>
   <g id="patch_16">
    <path d="M 90 657.391304  L 90 574.747826  " style="fill: none; stroke: #000000; stroke-width: 1.2; stroke-linejoin: miter; stroke-linecap: square"/>
   </g>
   <g id="patch_17">
    <path d="M 648 657.391304  L 648 574.747826  " style="fill: none; stroke: #000000; stroke-width: 1.2; stroke-linejoin: miter; stroke-linecap: square"/>
   </g>
   <g id="patch_18">
    <path d="M 90 657.391304  L 648 657.391304  " style="fill: none; stroke: #000000; stroke-width: 1.2; stroke-linejoin: miter; stroke-linecap: square"/>
   </g>
   <g id="patch_19">
    <path d="M 90 574.747826  L 648 574.747826  " style="fill: none; stroke: #000000; stroke-width: 1.2; stroke-linejoin: miter; stroke-linecap: square"/>
   </g>
   <g id="legend_3">
    <g id="patch_20">
     <path d="M 366.01 649.391304  L 636.8 649.391304  Q 640 649.391304 640 646.191304  L 640 624.776304  Q 640 621.576304 636.8 621.576304  L 366.01 621.576304  Q 362.81 621.576304 362.81 624.776304  L 362.81 646.191304  Q 362.81 649.391304 366.01 649.391304  z " style="fill: #ffffff; opacity: 0.8; stroke: #cccccc; stroke-linejoin: miter"/>
    </g>
    <g id="PathCollection_2">
     <g>
      <use xlink:href="#m0755212cbf" x="385.21" y="635.423804" style="fill: #800000; stroke: #800000"/>
     </g>
    </g>
    <g id="text_19">
     <!-- Rel. Fehler Strom (Quelle an) -->
     <g transform="translate(414.01 639.623804) scale(0.16 -0.16)">
      <defs>
       <path id="Arial-BoldMT-53" d="M 231 1491  L 1131 1578  Q 1213 1125 1461 912  Q 1709 700 2131 700  Q 2578 700 2804 889  Q 3031 1078 3031 1331  Q 3031 1494 2936 1608  Q 2841 1722 2603 1806  Q 2441 1863 1863 2006  Q 1119 2191 819 2459  Q 397 2838 397 3381  Q 397 3731 595 4036  Q 794 4341 1167 4500  Q 1541 4659 2069 4659  Q 2931 4659 3367 4281  Q 3803 3903 3825 3272  L 2900 3231  Q 2841 3584 2645 3739  Q 2450 3894 2059 3894  Q 1656 3894 1428 3728  Q 1281 3622 1281 3444  Q 1281 3281 1419 3166  Q 1594 3019 2269 2859  Q 2944 2700 3267 2529  Q 3591 2359 3773 2064  Q 3956 1769 3956 1334  Q 3956 941 3737 597  Q 3519 253 3119 86  Q 2719 -81 2122 -81  Q 1253 -81 787 320  Q 322 722 231 1491  z " transform="scale(0.015625)"/>
       <path id="Arial-BoldMT-28" d="M 1916 -1347  L 1313 -1347  Q 834 -625 584 153  Q 334 931 334 1659  Q 334 2563 644 3369  Q 913 4069 1325 4659  L 1925 4659  Q 1497 3713 1336 3048  Q 1175 2384 1175 1641  Q 1175 1128 1270 590  Q 1366 53 1531 -431  Q 1641 -750 1916 -1347  z " transform="scale(0.015625)"/>
       <path id="Arial-BoldMT-51" d="M 4153 581  Q 4494 338 4894 194  L 4553 -459  Q 4344 -397 4144 -288  Q 4100 -266 3528 119  Q 3078 -78 2531 -78  Q 1475 -78 876 544  Q 278 1166 278 2291  Q 278 3413 878 4036  Q 1478 4659 2506 4659  Q 3525 4659 4122 4036  Q 4719 3413 4719 2291  Q 4719 1697 4553 1247  Q 4428 903 4153 581  z M 3409 1103  Q 3588 1313 3677 1609  Q 3766 1906 3766 2291  Q 3766 3084 3416 3476  Q 3066 3869 2500 3869  Q 1934 3869 1582 3475  Q 1231 3081 1231 2291  Q 1231 1488 1582 1089  Q 1934 691 2472 691  Q 2672 691 2850 756  Q 2569 941 2278 1044  L 2538 1572  Q 2994 1416 3409 1103  z " transform="scale(0.015625)"/>
       <path id="Arial-BoldMT-29" d="M 216 -1347  Q 475 -791 581 -494  Q 688 -197 778 190  Q 869 578 912 926  Q 956 1275 956 1641  Q 956 2384 797 3048  Q 638 3713 209 4659  L 806 4659  Q 1278 3988 1539 3234  Q 1800 2481 1800 1706  Q 1800 1053 1594 306  Q 1359 -531 822 -1347  L 216 -1347  z " transform="scale(0.015625)"/>
      </defs>
      <use xlink:href="#Arial-BoldMT-52"/>
      <use xlink:href="#Arial-BoldMT-65" x="72.216797"/>
      <use xlink:href="#Arial-BoldMT-6c" x="127.832031"/>
      <use xlink:href="#Arial-BoldMT-2e" x="155.615234"/>
      <use xlink:href="#Arial-BoldMT-20" x="183.398438"/>
      <use xlink:href="#Arial-BoldMT-46" x="211.181641"/>
      <use xlink:href="#Arial-BoldMT-65" x="272.265625"/>
      <use xlink:href="#Arial-BoldMT-68" x="327.880859"/>
      <use xlink:href="#Arial-BoldMT-6c" x="388.964844"/>
      <use xlink:href="#Arial-BoldMT-65" x="416.748047"/>
      <use xlink:href="#Arial-BoldMT-72" x="472.363281"/>
      <use xlink:href="#Arial-BoldMT-20" x="511.279297"/>
      <use xlink:href="#Arial-BoldMT-53" x="539.0625"/>
      <use xlink:href="#Arial-BoldMT-74" x="605.761719"/>
      <use xlink:href="#Arial-BoldMT-72" x="639.0625"/>
      <use xlink:href="#Arial-BoldMT-6f" x="677.978516"/>
      <use xlink:href="#Arial-BoldMT-6d" x="739.0625"/>
      <use xlink:href="#Arial-BoldMT-20" x="827.978516"/>
      <use xlink:href="#Arial-BoldMT-28" x="855.761719"/>
      <use xlink:href="#Arial-BoldMT-51" x="889.0625"/>
      <use xlink:href="#Arial-BoldMT-75" x="966.845703"/>
      <use xlink:href="#Arial-BoldMT-65" x="1027.929688"/>
      <use xlink:href="#Arial-BoldMT-6c" x="1083.544922"/>
      <use xlink:href="#Arial-BoldMT-6c" x="1111.328125"/>
      <use xlink:href="#Arial-BoldMT-65" x="1139.111328"/>
      <use xlink:href="#Arial-BoldMT-20" x="1194.726562"/>
      <use xlink:href="#Arial-BoldMT-61" x="1222.509766"/>
      <use xlink:href="#Arial-BoldMT-6e" x="1278.125"/>
      <use xlink:href="#Arial-BoldMT-29" x="1339.208984"/>
     </g>
    </g>
   </g>
  </g>
  <g id="axes_4">
   <g id="patch_21">
    <path d="M 90 768.96  L 648 768.96  L 648 686.316522  L 90 686.316522  z " style="fill: #ffffff"/>
   </g>
   <g id="PathCollection_3">
    <g clip-path="url(#pb6387d4b9e)">
     <use xlink:href="#m0755212cbf" x="115.363636" y="697.049307" style="fill: #800000; stroke: #800000"/>
     <use xlink:href="#m0755212cbf" x="184.53719" y="742.152259" style="fill: #800000; stroke: #800000"/>
     <use xlink:href="#m0755212cbf" x="253.710744" y="765.203478" style="fill: #800000; stroke: #800000"/>
     <use xlink:href="#m0755212cbf" x="322.884298" y="755.16447" style="fill: #800000; stroke: #800000"/>
     <use xlink:href="#m0755212cbf" x="392.057851" y="690.073043" style="fill: #800000; stroke: #800000"/>
     <use xlink:href="#m0755212cbf" x="484.289256" y="742.948139" style="fill: #800000; stroke: #800000"/>
     <use xlink:href="#m0755212cbf" x="576.520661" y="745.331315" style="fill: #800000; stroke: #800000"/>
    </g>
   </g>
   <g id="matplotlib.axis_7">
    <g id="xtick_16">
     <g id="line2d_62">
      <path d="M 146.491736 768.96  L 146.491736 686.316522  " clip-path="url(#pb6387d4b9e)" style="fill: none; stroke: #b0b0b0; stroke-width: 0.8; stroke-linecap: square"/>
     </g>
     <g id="line2d_63">
      <g>
       <use xlink:href="#m09c2c0b9ec" x="146.491736" y="768.96" style="stroke: #000000; stroke-width: 0.8"/>
      </g>
     </g>
     <g id="text_20">
      <!-- 430 -->
      <g transform="translate(133.145486 787.4125) scale(0.16 -0.16)">
       <use xlink:href="#Arial-BoldMT-34"/>
       <use xlink:href="#Arial-BoldMT-33" x="55.615234"/>
       <use xlink:href="#Arial-BoldMT-30" x="111.230469"/>
      </g>
     </g>
    </g>
    <g id="xtick_17">
     <g id="line2d_64">
      <path d="M 261.780992 768.96  L 261.780992 686.316522  " clip-path="url(#pb6387d4b9e)" style="fill: none; stroke: #b0b0b0; stroke-width: 0.8; stroke-linecap: square"/>
     </g>
     <g id="line2d_65">
      <g>
       <use xlink:href="#m09c2c0b9ec" x="261.780992" y="768.96" style="stroke: #000000; stroke-width: 0.8"/>
      </g>
     </g>
     <g id="text_21">
      <!-- 435 -->
      <g transform="translate(248.434742 787.4125) scale(0.16 -0.16)">
       <use xlink:href="#Arial-BoldMT-34"/>
       <use xlink:href="#Arial-BoldMT-33" x="55.615234"/>
       <use xlink:href="#Arial-BoldMT-35" x="111.230469"/>
      </g>
     </g>
    </g>
    <g id="xtick_18">
     <g id="line2d_66">
      <path d="M 377.070248 768.96  L 377.070248 686.316522  " clip-path="url(#pb6387d4b9e)" style="fill: none; stroke: #b0b0b0; stroke-width: 0.8; stroke-linecap: square"/>
     </g>
     <g id="line2d_67">
      <g>
       <use xlink:href="#m09c2c0b9ec" x="377.070248" y="768.96" style="stroke: #000000; stroke-width: 0.8"/>
      </g>
     </g>
     <g id="text_22">
      <!-- 440 -->
      <g transform="translate(363.723998 787.4125) scale(0.16 -0.16)">
       <use xlink:href="#Arial-BoldMT-34"/>
       <use xlink:href="#Arial-BoldMT-34" x="55.615234"/>
       <use xlink:href="#Arial-BoldMT-30" x="111.230469"/>
      </g>
     </g>
    </g>
    <g id="xtick_19">
     <g id="line2d_68">
      <path d="M 492.359504 768.96  L 492.359504 686.316522  " clip-path="url(#pb6387d4b9e)" style="fill: none; stroke: #b0b0b0; stroke-width: 0.8; stroke-linecap: square"/>
     </g>
     <g id="line2d_69">
      <g>
       <use xlink:href="#m09c2c0b9ec" x="492.359504" y="768.96" style="stroke: #000000; stroke-width: 0.8"/>
      </g>
     </g>
     <g id="text_23">
      <!-- 445 -->
      <g transform="translate(479.013254 787.4125) scale(0.16 -0.16)">
       <use xlink:href="#Arial-BoldMT-34"/>
       <use xlink:href="#Arial-BoldMT-34" x="55.615234"/>
       <use xlink:href="#Arial-BoldMT-35" x="111.230469"/>
      </g>
     </g>
    </g>
    <g id="xtick_20">
     <g id="line2d_70">
      <path d="M 607.64876 768.96  L 607.64876 686.316522  " clip-path="url(#pb6387d4b9e)" style="fill: none; stroke: #b0b0b0; stroke-width: 0.8; stroke-linecap: square"/>
     </g>
     <g id="line2d_71">
      <g>
       <use xlink:href="#m09c2c0b9ec" x="607.64876" y="768.96" style="stroke: #000000; stroke-width: 0.8"/>
      </g>
     </g>
     <g id="text_24">
      <!-- 450 -->
      <g transform="translate(594.30251 787.4125) scale(0.16 -0.16)">
       <use xlink:href="#Arial-BoldMT-34"/>
       <use xlink:href="#Arial-BoldMT-35" x="55.615234"/>
       <use xlink:href="#Arial-BoldMT-30" x="111.230469"/>
      </g>
     </g>
    </g>
    <g id="text_25">
     <!-- Spannung $\Delta V_{G1}$ [V] -->
     <g transform="translate(293.64 806.25) scale(0.16 -0.16)">
      <defs>
       <path id="DejaVuSans-Bold-394" d="M 4922 0  L 31 0  L 1759 4666  L 3194 4666  L 4922 0  z M 1559 909  L 3384 909  L 2478 3572  L 1559 909  z " transform="scale(0.015625)"/>
       <path id="Arial-BoldMT-56" d="M 1634 0  L -3 4581  L 1000 4581  L 2159 1191  L 3281 4581  L 4263 4581  L 2622 0  L 1634 0  z " transform="scale(0.015625)"/>
      </defs>
      <use xlink:href="#Arial-BoldMT-53" transform="translate(0 0.09375)"/>
      <use xlink:href="#Arial-BoldMT-70" transform="translate(66.699219 0.09375)"/>
      <use xlink:href="#Arial-BoldMT-61" transform="translate(127.783203 0.09375)"/>
      <use xlink:href="#Arial-BoldMT-6e" transform="translate(183.398438 0.09375)"/>
      <use xlink:href="#Arial-BoldMT-6e" transform="translate(244.482422 0.09375)"/>
      <use xlink:href="#Arial-BoldMT-75" transform="translate(305.566406 0.09375)"/>
      <use xlink:href="#Arial-BoldMT-6e" transform="translate(366.650391 0.09375)"/>
      <use xlink:href="#Arial-BoldMT-67" transform="translate(427.734375 0.09375)"/>
      <use xlink:href="#Arial-BoldMT-20" transform="translate(488.818359 0.09375)"/>
      <use xlink:href="#DejaVuSans-Bold-394" transform="translate(516.601562 0.09375)"/>
      <use xlink:href="#DejaVuSans-BoldOblique-56" transform="translate(593.994141 0.09375)"/>
      <use xlink:href="#DejaVuSans-BoldOblique-47" transform="translate(671.386719 -16.3125) scale(0.7)"/>
      <use xlink:href="#DejaVuSans-Bold-31" transform="translate(728.842773 -16.3125) scale(0.7)"/>
      <use xlink:href="#Arial-BoldMT-20" transform="translate(780.283203 0.09375)"/>
      <use xlink:href="#Arial-BoldMT-5b" transform="translate(808.066406 0.09375)"/>
      <use xlink:href="#Arial-BoldMT-56" transform="translate(841.367188 0.09375)"/>
      <use xlink:href="#Arial-BoldMT-5d" transform="translate(908.066406 0.09375)"/>
     </g>
    </g>
   </g>
   <g id="matplotlib.axis_8">
    <g id="ytick_15">
     <g id="line2d_72">
      <path d="M 90 759.715596  L 648 759.715596  " clip-path="url(#pb6387d4b9e)" style="fill: none; stroke: #b0b0b0; stroke-width: 0.8; stroke-linecap: square"/>
     </g>
     <g id="line2d_73">
      <g>
       <use xlink:href="#m38023cc3a2" x="90" y="759.715596" style="stroke: #000000; stroke-width: 0.8"/>
      </g>
     </g>
     <g id="text_26">
      <!-- 7 -->
      <g transform="translate(74.1025 765.441846) scale(0.16 -0.16)">
       <use xlink:href="#Arial-BoldMT-37"/>
      </g>
     </g>
    </g>
    <g id="ytick_16">
     <g id="line2d_74">
      <path d="M 90 727.87114  L 648 727.87114  " clip-path="url(#pb6387d4b9e)" style="fill: none; stroke: #b0b0b0; stroke-width: 0.8; stroke-linecap: square"/>
     </g>
     <g id="line2d_75">
      <g>
       <use xlink:href="#m38023cc3a2" x="90" y="727.87114" style="stroke: #000000; stroke-width: 0.8"/>
      </g>
     </g>
     <g id="text_27">
      <!-- 8 -->
      <g transform="translate(74.1025 733.59739) scale(0.16 -0.16)">
       <use xlink:href="#Arial-BoldMT-38"/>
      </g>
     </g>
    </g>
    <g id="ytick_17">
     <g id="line2d_76">
      <path d="M 90 696.026683  L 648 696.026683  " clip-path="url(#pb6387d4b9e)" style="fill: none; stroke: #b0b0b0; stroke-width: 0.8; stroke-linecap: square"/>
     </g>
     <g id="line2d_77">
      <g>
       <use xlink:href="#m38023cc3a2" x="90" y="696.026683" style="stroke: #000000; stroke-width: 0.8"/>
      </g>
     </g>
     <g id="text_28">
      <!-- 9 -->
      <g transform="translate(74.1025 701.752933) scale(0.16 -0.16)">
       <use xlink:href="#Arial-BoldMT-39"/>
      </g>
     </g>
    </g>
    <g id="text_29">
     <!-- Rel. Fehler -->
     <g transform="translate(49.569 768.538261) rotate(-90) scale(0.16 -0.16)">
      <use xlink:href="#Arial-BoldMT-52"/>
      <use xlink:href="#Arial-BoldMT-65" x="72.216797"/>
      <use xlink:href="#Arial-BoldMT-6c" x="127.832031"/>
      <use xlink:href="#Arial-BoldMT-2e" x="155.615234"/>
      <use xlink:href="#Arial-BoldMT-20" x="183.398438"/>
      <use xlink:href="#Arial-BoldMT-46" x="211.181641"/>
      <use xlink:href="#Arial-BoldMT-65" x="272.265625"/>
      <use xlink:href="#Arial-BoldMT-68" x="327.880859"/>
      <use xlink:href="#Arial-BoldMT-6c" x="388.964844"/>
      <use xlink:href="#Arial-BoldMT-65" x="416.748047"/>
      <use xlink:href="#Arial-BoldMT-72" x="472.363281"/>
     </g>
     <!-- $I_{aus}$ [%] -->
     <g transform="translate(66.7425 756.598261) rotate(-90) scale(0.16 -0.16)">
      <defs>
       <path id="DejaVuSans-BoldOblique-49" d="M 1044 4666  L 2247 4666  L 1338 0  L 134 0  L 1044 4666  z " transform="scale(0.015625)"/>
       <path id="DejaVuSans-BoldOblique-61" d="M 2106 1575  Q 1688 1575 1473 1445  Q 1259 1316 1259 1063  Q 1259 872 1386 762  Q 1513 653 1734 653  Q 2078 653 2309 861  Q 2541 1069 2619 1447  L 2644 1575  L 2106 1575  z M 3853 1997  L 3463 0  L 2344 0  L 2438 519  Q 2163 206 1856 57  Q 1550 -91 1191 -91  Q 694 -91 401 167  Q 109 425 109 863  Q 109 1531 626 1886  Q 1144 2241 2119 2241  L 2778 2241  L 2791 2328  Q 2800 2372 2801 2390  Q 2803 2409 2803 2425  Q 2803 2631 2608 2736  Q 2413 2841 2028 2841  Q 1681 2841 1356 2769  Q 1031 2697 728 2553  L 897 3406  Q 1247 3494 1614 3539  Q 1981 3584 2375 3584  Q 3153 3584 3531 3317  Q 3909 3050 3909 2503  Q 3909 2397 3895 2270  Q 3881 2144 3853 1997  z " transform="scale(0.015625)"/>
       <path id="DejaVuSans-BoldOblique-75" d="M 434 1363  L 844 3500  L 1966 3500  L 1613 1678  Q 1575 1500 1556 1375  Q 1538 1250 1538 1178  Q 1538 981 1647 872  Q 1756 763 1959 763  Q 2306 763 2556 1031  Q 2806 1300 2900 1778  L 3238 3500  L 4359 3500  L 3681 0  L 2553 0  L 2656 513  Q 2369 209 2053 59  Q 1738 -91 1388 -91  Q 909 -91 646 162  Q 384 416 384 878  Q 384 988 396 1109  Q 409 1231 434 1363  z " transform="scale(0.015625)"/>
       <path id="DejaVuSans-BoldOblique-73" d="M 3584 3391  L 3419 2522  Q 3091 2678 2766 2759  Q 2441 2841 2150 2841  Q 1819 2841 1639 2755  Q 1459 2669 1459 2509  Q 1459 2416 1559 2359  Q 1659 2303 1953 2241  L 2156 2203  Q 2834 2059 3106 1832  Q 3378 1606 3378 1203  Q 3378 594 2900 251  Q 2422 -91 1563 -91  Q 1203 -91 828 -34  Q 453 22 63 134  L 231 1013  Q 534 834 879 743  Q 1225 653 1588 653  Q 1941 653 2119 737  Q 2297 822 2297 984  Q 2297 1097 2197 1159  Q 2097 1222 1784 1288  L 1581 1325  Q 981 1450 725 1694  Q 469 1938 469 2369  Q 469 2953 911 3268  Q 1353 3584 2175 3584  Q 2534 3584 2882 3536  Q 3231 3488 3584 3391  z " transform="scale(0.015625)"/>
      </defs>
      <use xlink:href="#DejaVuSans-BoldOblique-49" transform="translate(0 0.09375)"/>
      <use xlink:href="#DejaVuSans-BoldOblique-61" transform="translate(37.207031 -16.3125) scale(0.7)"/>
      <use xlink:href="#DejaVuSans-BoldOblique-75" transform="translate(84.443359 -16.3125) scale(0.7)"/>
      <use xlink:href="#DejaVuSans-BoldOblique-73" transform="translate(134.277344 -16.3125) scale(0.7)"/>
      <use xlink:href="#Arial-BoldMT-20" transform="translate(178.676758 0.09375)"/>
      <use xlink:href="#Arial-BoldMT-5b" transform="translate(206.459961 0.09375)"/>
      <use xlink:href="#Arial-BoldMT-25" transform="translate(239.760742 0.09375)"/>
      <use xlink:href="#Arial-BoldMT-5d" transform="translate(328.676758 0.09375)"/>
     </g>
    </g>
   </g>
   <g id="patch_22">
    <path d="M 90 768.96  L 90 686.316522  " style="fill: none; stroke: #000000; stroke-width: 1.2; stroke-linejoin: miter; stroke-linecap: square"/>
   </g>
   <g id="patch_23">
    <path d="M 648 768.96  L 648 686.316522  " style="fill: none; stroke: #000000; stroke-width: 1.2; stroke-linejoin: miter; stroke-linecap: square"/>
   </g>
   <g id="patch_24">
    <path d="M 90 768.96  L 648 768.96  " style="fill: none; stroke: #000000; stroke-width: 1.2; stroke-linejoin: miter; stroke-linecap: square"/>
   </g>
   <g id="patch_25">
    <path d="M 90 686.316522  L 648 686.316522  " style="fill: none; stroke: #000000; stroke-width: 1.2; stroke-linejoin: miter; stroke-linecap: square"/>
   </g>
   <g id="legend_4">
    <g id="patch_26">
     <path d="M 357.1125 760.96  L 636.8 760.96  Q 640 760.96 640 757.76  L 640 736.345  Q 640 733.145 636.8 733.145  L 357.1125 733.145  Q 353.9125 733.145 353.9125 736.345  L 353.9125 757.76  Q 353.9125 760.96 357.1125 760.96  z " style="fill: #ffffff; opacity: 0.8; stroke: #cccccc; stroke-linejoin: miter"/>
    </g>
    <g id="PathCollection_4">
     <g>
      <use xlink:href="#m0755212cbf" x="376.3125" y="746.9925" style="fill: #800000; stroke: #800000"/>
     </g>
    </g>
    <g id="text_30">
     <!-- Rel. Fehler Strom (Quelle aus) -->
     <g transform="translate(405.1125 751.1925) scale(0.16 -0.16)">
      <use xlink:href="#Arial-BoldMT-52"/>
      <use xlink:href="#Arial-BoldMT-65" x="72.216797"/>
      <use xlink:href="#Arial-BoldMT-6c" x="127.832031"/>
      <use xlink:href="#Arial-BoldMT-2e" x="155.615234"/>
      <use xlink:href="#Arial-BoldMT-20" x="183.398438"/>
      <use xlink:href="#Arial-BoldMT-46" x="211.181641"/>
      <use xlink:href="#Arial-BoldMT-65" x="272.265625"/>
      <use xlink:href="#Arial-BoldMT-68" x="327.880859"/>
      <use xlink:href="#Arial-BoldMT-6c" x="388.964844"/>
      <use xlink:href="#Arial-BoldMT-65" x="416.748047"/>
      <use xlink:href="#Arial-BoldMT-72" x="472.363281"/>
      <use xlink:href="#Arial-BoldMT-20" x="511.279297"/>
      <use xlink:href="#Arial-BoldMT-53" x="539.0625"/>
      <use xlink:href="#Arial-BoldMT-74" x="605.761719"/>
      <use xlink:href="#Arial-BoldMT-72" x="639.0625"/>
      <use xlink:href="#Arial-BoldMT-6f" x="677.978516"/>
      <use xlink:href="#Arial-BoldMT-6d" x="739.0625"/>
      <use xlink:href="#Arial-BoldMT-20" x="827.978516"/>
      <use xlink:href="#Arial-BoldMT-28" x="855.761719"/>
      <use xlink:href="#Arial-BoldMT-51" x="889.0625"/>
      <use xlink:href="#Arial-BoldMT-75" x="966.845703"/>
      <use xlink:href="#Arial-BoldMT-65" x="1027.929688"/>
      <use xlink:href="#Arial-BoldMT-6c" x="1083.544922"/>
      <use xlink:href="#Arial-BoldMT-6c" x="1111.328125"/>
      <use xlink:href="#Arial-BoldMT-65" x="1139.111328"/>
      <use xlink:href="#Arial-BoldMT-20" x="1194.726562"/>
      <use xlink:href="#Arial-BoldMT-61" x="1222.509766"/>
      <use xlink:href="#Arial-BoldMT-75" x="1278.125"/>
      <use xlink:href="#Arial-BoldMT-73" x="1339.208984"/>
      <use xlink:href="#Arial-BoldMT-29" x="1394.824219"/>
     </g>
    </g>
   </g>
  </g>
 </g>
 <defs>
  <clipPath id="p340c8e5784">
   <rect x="90" y="103.68" width="558" height="330.573913"/>
  </clipPath>
  <clipPath id="p54304a68ee">
   <rect x="90" y="463.17913" width="558" height="82.643478"/>
  </clipPath>
  <clipPath id="p96c8b8c011">
   <rect x="90" y="574.747826" width="558" height="82.643478"/>
  </clipPath>
  <clipPath id="pb6387d4b9e">
   <rect x="90" y="686.316522" width="558" height="82.643478"/>
  </clipPath>
 </defs>
</svg>