<?xml version="1.0" encoding="utf-8" standalone="no"?>
<!DOCTYPE svg PUBLIC "-//W3C//DTD SVG 1.1//EN"
  "http://www.w3.org/Graphics/SVG/1.1/DTD/svg11.dtd">
<svg xmlns:xlink="http://www.w3.org/1999/xlink" width="720pt" height="864pt" viewBox="0 0 720 864" xmlns="http://www.w3.org/2000/svg" version="1.1">
 <metadata>
  <rdf:RDF xmlns:dc="http://purl.org/dc/elements/1.1/" xmlns:cc="http://creativecommons.org/ns#" xmlns:rdf="http://www.w3.org/1999/02/22-rdf-syntax-ns#">
   <cc:Work>
    <dc:type rdf:resource="http://purl.org/dc/dcmitype/StillImage"/>
    <dc:date>2026-03-10T20:01:58.213209</dc:date>
    <dc:format>image/svg+xml</dc:format>
    <dc:creator>
     <cc:Agent>
      <dc:title>Matplotlib v3.9.0, https://matplotlib.org/</dc:title>
     </cc:Agent>
    </dc:creator>
   </cc:Work>
  </rdf:RDF>
 </metadata>
 <defs>
  <style type="text/css">*{stroke-linejoin: round; stroke-linecap: butt}</style>
 </defs>
 <g id="figure_1">
  <g id="patch_1">
   <path d="M 0 864 
L 720 864 
L 720 0 
L 0 0 
z
" style="fill: #ffffff"/>
  </g>
  <g id="axes_1">
   <g id="patch_2">
    <path d="M 90 397.185882 
L 648 397.185882 
L 648 103.68 
L 90 103.68 
z
" style="fill: #ffffff"/>
   </g>
   <g id="PolyCollection_1">
    <defs>
     <path id="mffb01d5ed1" d="M 115.363636 -482.380584 
L 115.363636 -480.793151 
L 117.060201 -480.815529 
L 118.756765 -480.838308 
L 120.453329 -480.861493 
L 122.149894 -480.885091 
L 123.846458 -480.909111 
L 125.543022 -480.933558 
L 127.239587 -480.95844 
L 128.936151 -480.983765 
L 130.632715 -481.00954 
L 132.329279 -481.035772 
L 134.025844 -481.06247 
L 135.722408 -481.08964 
L 137.418972 -481.117292 
L 139.115537 -481.145433 
L 140.812101 -481.174071 
L 142.508665 -481.203215 
L 144.20523 -481.232874 
L 145.901794 -481.263055 
L 147.598358 -481.293768 
L 149.294922 -481.325021 
L 150.991487 -481.356824 
L 152.688051 -481.389185 
L 154.384615 -481.422114 
L 156.08118 -481.455621 
L 157.777744 -481.489714 
L 159.474308 -481.524404 
L 161.170873 -481.5597 
L 162.867437 -481.595613 
L 164.564001 -481.632153 
L 166.260566 -481.669329 
L 167.95713 -481.707153 
L 169.653694 -481.745635 
L 171.350258 -481.784786 
L 173.046823 -481.824616 
L 174.743387 -481.865137 
L 176.439951 -481.90636 
L 178.136516 -481.948297 
L 179.83308 -481.990959 
L 181.529644 -482.034357 
L 183.226209 -482.078504 
L 184.922773 -482.123412 
L 186.619337 -482.169093 
L 188.315901 -482.21556 
L 190.012466 -482.262824 
L 191.70903 -482.3109 
L 193.405594 -482.359799 
L 195.102159 -482.409535 
L 196.798723 -482.460121 
L 198.495287 -482.511571 
L 200.191852 -482.563899 
L 201.888416 -482.617118 
L 203.58498 -482.671242 
L 205.281545 -482.726286 
L 206.978109 -482.782264 
L 208.674673 -482.83919 
L 210.371237 -482.89708 
L 212.067802 -482.955949 
L 213.764366 -483.015811 
L 215.46093 -483.076682 
L 217.157495 -483.138578 
L 218.854059 -483.201514 
L 220.550623 -483.265507 
L 222.247188 -483.330573 
L 223.943752 -483.396727 
L 225.640316 -483.463987 
L 227.336881 -483.53237 
L 229.033445 -483.601892 
L 230.730009 -483.672571 
L 232.426573 -483.744423 
L 234.123138 -483.817468 
L 235.819702 -483.891722 
L 237.516266 -483.967203 
L 239.212831 -484.04393 
L 240.909395 -484.121921 
L 242.605959 -484.201196 
L 244.302524 -484.281771 
L 245.999088 -484.363668 
L 247.695652 -484.446904 
L 249.392216 -484.5315 
L 251.088781 -484.617475 
L 252.785345 -484.704849 
L 254.481909 -484.793641 
L 256.178474 -484.883874 
L 257.875038 -484.975566 
L 259.571602 -485.068738 
L 261.268167 -485.163412 
L 262.964731 -485.259609 
L 264.661295 -485.357349 
L 266.35786 -485.456655 
L 268.054424 -485.557547 
L 269.750988 -485.660048 
L 271.447552 -485.764181 
L 273.144117 -485.869966 
L 274.840681 -485.977428 
L 276.537245 -486.086587 
L 278.23381 -486.197468 
L 279.930374 -486.310094 
L 281.626938 -486.424486 
L 283.323503 -486.54067 
L 285.020067 -486.658668 
L 286.716631 -486.778505 
L 288.413196 -486.900203 
L 290.10976 -487.023789 
L 291.806324 -487.149285 
L 293.502888 -487.276716 
L 295.199453 -487.406107 
L 296.896017 -487.537482 
L 298.592581 -487.670868 
L 300.289146 -487.806288 
L 301.98571 -487.943769 
L 303.682274 -488.083335 
L 305.378839 -488.225013 
L 307.075403 -488.368828 
L 308.771967 -488.514807 
L 310.468531 -488.662974 
L 312.165096 -488.813358 
L 313.86166 -488.965984 
L 315.558224 -489.120878 
L 317.254789 -489.278069 
L 318.951353 -489.437582 
L 320.647917 -489.599444 
L 322.344482 -489.763684 
L 324.041046 -489.930328 
L 325.73761 -490.099405 
L 327.434175 -490.270941 
L 329.130739 -490.444964 
L 330.827303 -490.621504 
L 332.523867 -490.800588 
L 334.220432 -490.982244 
L 335.916996 -491.166501 
L 337.61356 -491.353389 
L 339.310125 -491.542935 
L 341.006689 -491.73517 
L 342.703253 -491.930121 
L 344.399818 -492.12782 
L 346.096382 -492.328296 
L 347.792946 -492.531578 
L 349.48951 -492.737697 
L 351.186075 -492.946683 
L 352.882639 -493.158567 
L 354.579203 -493.373379 
L 356.275768 -493.591152 
L 357.972332 -493.811915 
L 359.668896 -494.035701 
L 361.365461 -494.262542 
L 363.062025 -494.492469 
L 364.758589 -494.725515 
L 366.455154 -494.961713 
L 368.151718 -495.201096 
L 369.848282 -495.443696 
L 371.544846 -495.689549 
L 373.241411 -495.938687 
L 374.937975 -496.191145 
L 376.634539 -496.446958 
L 378.331104 -496.706161 
L 380.027668 -496.968788 
L 381.724232 -497.234877 
L 383.420797 -497.504463 
L 385.117361 -497.777582 
L 386.813925 -498.054272 
L 388.51049 -498.334571 
L 390.207054 -498.618516 
L 391.903618 -498.906145 
L 393.600182 -499.197498 
L 395.296747 -499.492613 
L 396.993311 -499.791531 
L 398.689875 -500.094291 
L 400.38644 -500.400936 
L 402.083004 -500.711505 
L 403.779568 -501.026041 
L 405.476133 -501.344586 
L 407.172697 -501.667183 
L 408.869261 -501.993875 
L 410.565825 -502.324708 
L 412.26239 -502.659724 
L 413.958954 -502.998971 
L 415.655518 -503.342492 
L 417.352083 -503.690335 
L 419.048647 -504.042547 
L 420.745211 -504.399176 
L 422.441776 -504.760269 
L 424.13834 -505.125876 
L 425.834904 -505.496045 
L 427.531469 -505.870829 
L 429.228033 -506.250276 
L 430.924597 -506.634439 
L 432.621161 -507.02337 
L 434.317726 -507.417121 
L 436.01429 -507.815747 
L 437.710854 -508.219301 
L 439.407419 -508.627838 
L 441.103983 -509.041414 
L 442.800547 -509.460084 
L 444.497112 -509.883907 
L 446.193676 -510.31294 
L 447.89024 -510.74724 
L 449.586804 -511.186867 
L 451.283369 -511.631882 
L 452.979933 -512.082343 
L 454.676497 -512.538313 
L 456.373062 -512.999854 
L 458.069626 -513.467028 
L 459.76619 -513.939899 
L 461.462755 -514.418531 
L 463.159319 -514.902988 
L 464.855883 -515.393337 
L 466.552448 -515.889643 
L 468.249012 -516.391975 
L 469.945576 -516.900399 
L 471.64214 -517.414985 
L 473.338705 -517.935802 
L 475.035269 -518.46292 
L 476.731833 -518.99641 
L 478.428398 -519.536343 
L 480.124962 -520.082793 
L 481.821526 -520.635833 
L 483.518091 -521.195536 
L 485.214655 -521.761978 
L 486.911219 -522.335233 
L 488.607784 -522.915379 
L 490.304348 -523.502492 
L 492.000912 -524.09665 
L 493.697476 -524.697933 
L 495.394041 -525.306419 
L 497.090605 -525.92219 
L 498.787169 -526.545326 
L 500.483734 -527.175908 
L 502.180298 -527.814021 
L 503.876862 -528.459747 
L 505.573427 -529.113171 
L 507.269991 -529.774378 
L 508.966555 -530.443453 
L 510.663119 -531.120485 
L 512.359684 -531.805559 
L 514.056248 -532.498766 
L 515.752812 -533.200193 
L 517.449377 -533.909932 
L 519.145941 -534.628073 
L 520.842505 -535.354707 
L 522.53907 -536.089928 
L 524.235634 -536.833829 
L 525.932198 -537.586504 
L 527.628763 -538.348048 
L 529.325327 -539.118557 
L 531.021891 -539.898128 
L 532.718455 -540.686859 
L 534.41502 -541.484848 
L 536.111584 -542.292194 
L 537.808148 -543.108997 
L 539.504713 -543.935359 
L 541.201277 -544.771382 
L 542.897841 -545.617167 
L 544.594406 -546.472819 
L 546.29097 -547.338443 
L 547.987534 -548.214142 
L 549.684099 -549.100025 
L 551.380663 -549.996196 
L 553.077227 -550.902765 
L 554.773791 -551.819841 
L 556.470356 -552.747532 
L 558.16692 -553.685949 
L 559.863484 -554.635203 
L 561.560049 -555.595407 
L 563.256613 -556.566674 
L 564.953177 -557.549117 
L 566.649742 -558.542851 
L 568.346306 -559.547992 
L 570.04287 -560.564655 
L 571.739434 -561.592959 
L 573.435999 -562.633022 
L 575.132563 -563.684962 
L 576.829127 -564.748899 
L 578.525692 -565.824953 
L 580.222256 -566.913247 
L 581.91882 -568.013903 
L 583.615385 -569.127043 
L 585.311949 -570.252792 
L 587.008513 -571.391275 
L 588.705078 -572.542616 
L 590.401642 -573.706943 
L 592.098206 -574.884382 
L 593.79477 -576.075063 
L 595.491335 -577.279112 
L 597.187899 -578.496661 
L 598.884463 -579.72784 
L 600.581028 -580.972779 
L 602.277592 -582.23161 
L 603.974156 -583.504468 
L 605.670721 -584.791484 
L 607.367285 -586.092793 
L 609.063849 -587.40853 
L 610.760413 -588.738831 
L 612.456978 -590.083832 
L 614.153542 -591.44367 
L 615.850106 -592.818484 
L 617.546671 -594.20841 
L 619.243235 -595.61359 
L 620.939799 -597.034162 
L 622.636364 -598.470267 
L 622.636364 -746.978824 
L 622.636364 -746.978824 
L 620.939799 -742.547762 
L 619.243235 -738.19029 
L 617.546671 -733.905195 
L 615.850106 -729.691282 
L 614.153542 -725.547379 
L 612.456978 -721.472331 
L 610.760413 -717.465002 
L 609.063849 -713.524275 
L 607.367285 -709.649052 
L 605.670721 -705.838253 
L 603.974156 -702.090813 
L 602.277592 -698.405689 
L 600.581028 -694.781851 
L 598.884463 -691.218289 
L 597.187899 -687.714008 
L 595.491335 -684.268029 
L 593.79477 -680.879391 
L 592.098206 -677.547146 
L 590.401642 -674.270365 
L 588.705078 -671.048131 
L 587.008513 -667.879544 
L 585.311949 -664.763717 
L 583.615385 -661.699781 
L 581.91882 -658.686878 
L 580.222256 -655.724165 
L 578.525692 -652.810814 
L 576.829127 -649.946008 
L 575.132563 -647.128947 
L 573.435999 -644.358842 
L 571.739434 -641.634916 
L 570.04287 -638.956408 
L 568.346306 -636.322565 
L 566.649742 -633.732652 
L 564.953177 -631.185941 
L 563.256613 -628.681718 
L 561.560049 -626.219282 
L 559.863484 -623.797942 
L 558.16692 -621.417018 
L 556.470356 -619.075843 
L 554.773791 -616.773758 
L 553.077227 -614.510119 
L 551.380663 -612.284289 
L 549.684099 -610.095643 
L 547.987534 -607.943566 
L 546.29097 -605.827453 
L 544.594406 -603.74671 
L 542.897841 -601.700752 
L 541.201277 -599.689002 
L 539.504713 -597.710896 
L 537.808148 -595.765876 
L 536.111584 -593.853395 
L 534.41502 -591.972915 
L 532.718455 -590.123906 
L 531.021891 -588.305847 
L 529.325327 -586.518226 
L 527.628763 -584.760539 
L 525.932198 -583.03229 
L 524.235634 -581.332992 
L 522.53907 -579.662166 
L 520.842505 -578.01934 
L 519.145941 -576.40405 
L 517.449377 -574.815841 
L 515.752812 -573.254263 
L 514.056248 -571.718875 
L 512.359684 -570.209244 
L 510.663119 -568.724943 
L 508.966555 -567.265551 
L 507.269991 -565.830656 
L 505.573427 -564.419852 
L 503.876862 -563.032738 
L 502.180298 -561.668923 
L 500.483734 -560.32802 
L 498.787169 -559.009648 
L 497.090605 -557.713434 
L 495.394041 -556.43901 
L 493.697476 -555.186014 
L 492.000912 -553.95409 
L 490.304348 -552.742889 
L 488.607784 -551.552066 
L 486.911219 -550.381282 
L 485.214655 -549.230205 
L 483.518091 -548.098507 
L 481.821526 -546.985866 
L 480.124962 -545.891964 
L 478.428398 -544.816489 
L 476.731833 -543.759136 
L 475.035269 -542.719602 
L 473.338705 -541.69759 
L 471.64214 -540.692808 
L 469.945576 -539.704969 
L 468.249012 -538.733791 
L 466.552448 -537.778996 
L 464.855883 -536.840309 
L 463.159319 -535.917462 
L 461.462755 -535.010191 
L 459.76619 -534.118234 
L 458.069626 -533.241335 
L 456.373062 -532.379243 
L 454.676497 -531.53171 
L 452.979933 -530.698491 
L 451.283369 -529.879346 
L 449.586804 -529.074039 
L 447.89024 -528.282338 
L 446.193676 -527.504014 
L 444.497112 -526.738842 
L 442.800547 -525.9866 
L 441.103983 -525.247071 
L 439.407419 -524.52004 
L 437.710854 -523.805296 
L 436.01429 -523.102632 
L 434.317726 -522.411843 
L 432.621161 -521.732728 
L 430.924597 -521.06509 
L 429.228033 -520.408733 
L 427.531469 -519.763466 
L 425.834904 -519.1291 
L 424.13834 -518.50545 
L 422.441776 -517.892334 
L 420.745211 -517.28957 
L 419.048647 -516.696983 
L 417.352083 -516.114398 
L 415.655518 -515.541644 
L 413.958954 -514.978552 
L 412.26239 -514.424957 
L 410.565825 -513.880694 
L 408.869261 -513.345603 
L 407.172697 -512.819527 
L 405.476133 -512.302308 
L 403.779568 -511.793794 
L 402.083004 -511.293834 
L 400.38644 -510.802279 
L 398.689875 -510.318984 
L 396.993311 -509.843805 
L 395.296747 -509.3766 
L 393.600182 -508.917229 
L 391.903618 -508.465557 
L 390.207054 -508.021448 
L 388.51049 -507.58477 
L 386.813925 -507.155392 
L 385.117361 -506.733185 
L 383.420797 -506.318024 
L 381.724232 -505.909785 
L 380.027668 -505.508344 
L 378.331104 -505.113583 
L 376.634539 -504.725382 
L 374.937975 -504.343625 
L 373.241411 -503.968199 
L 371.544846 -503.59899 
L 369.848282 -503.235888 
L 368.151718 -502.878785 
L 366.455154 -502.527573 
L 364.758589 -502.182148 
L 363.062025 -501.842406 
L 361.365461 -501.508245 
L 359.668896 -501.179566 
L 357.972332 -500.856272 
L 356.275768 -500.538264 
L 354.579203 -500.22545 
L 352.882639 -499.917736 
L 351.186075 -499.61503 
L 349.48951 -499.317243 
L 347.792946 -499.024287 
L 346.096382 -498.736075 
L 344.399818 -498.452522 
L 342.703253 -498.173545 
L 341.006689 -497.899062 
L 339.310125 -497.628992 
L 337.61356 -497.363256 
L 335.916996 -497.101778 
L 334.220432 -496.84448 
L 332.523867 -496.591288 
L 330.827303 -496.342129 
L 329.130739 -496.096931 
L 327.434175 -495.855623 
L 325.73761 -495.618137 
L 324.041046 -495.384404 
L 322.344482 -495.154357 
L 320.647917 -494.927932 
L 318.951353 -494.705064 
L 317.254789 -494.48569 
L 315.558224 -494.269749 
L 313.86166 -494.057181 
L 312.165096 -493.847925 
L 310.468531 -493.641924 
L 308.771967 -493.439121 
L 307.075403 -493.239459 
L 305.378839 -493.042885 
L 303.682274 -492.849344 
L 301.98571 -492.658783 
L 300.289146 -492.471152 
L 298.592581 -492.286398 
L 296.896017 -492.104474 
L 295.199453 -491.925329 
L 293.502888 -491.748916 
L 291.806324 -491.575188 
L 290.10976 -491.4041 
L 288.413196 -491.235607 
L 286.716631 -491.069663 
L 285.020067 -490.906227 
L 283.323503 -490.745255 
L 281.626938 -490.586706 
L 279.930374 -490.43054 
L 278.23381 -490.276716 
L 276.537245 -490.125195 
L 274.840681 -489.975939 
L 273.144117 -489.828909 
L 271.447552 -489.68407 
L 269.750988 -489.541385 
L 268.054424 -489.400817 
L 266.35786 -489.262333 
L 264.661295 -489.125899 
L 262.964731 -488.991479 
L 261.268167 -488.859043 
L 259.571602 -488.728557 
L 257.875038 -488.59999 
L 256.178474 -488.473311 
L 254.481909 -488.348488 
L 252.785345 -488.225494 
L 251.088781 -488.104297 
L 249.392216 -487.984869 
L 247.695652 -487.867183 
L 245.999088 -487.75121 
L 244.302524 -487.636922 
L 242.605959 -487.524294 
L 240.909395 -487.4133 
L 239.212831 -487.303912 
L 237.516266 -487.196107 
L 235.819702 -487.089859 
L 234.123138 -486.985145 
L 232.426573 -486.881939 
L 230.730009 -486.780219 
L 229.033445 -486.679961 
L 227.336881 -486.581143 
L 225.640316 -486.483743 
L 223.943752 -486.387739 
L 222.247188 -486.293109 
L 220.550623 -486.199832 
L 218.854059 -486.107888 
L 217.157495 -486.017257 
L 215.46093 -485.927917 
L 213.764366 -485.83985 
L 212.067802 -485.753036 
L 210.371237 -485.667457 
L 208.674673 -485.583093 
L 206.978109 -485.499927 
L 205.281545 -485.41794 
L 203.58498 -485.337115 
L 201.888416 -485.257434 
L 200.191852 -485.17888 
L 198.495287 -485.101437 
L 196.798723 -485.025087 
L 195.102159 -484.949815 
L 193.405594 -484.875605 
L 191.70903 -484.80244 
L 190.012466 -484.730305 
L 188.315901 -484.659186 
L 186.619337 -484.589067 
L 184.922773 -484.519934 
L 183.226209 -484.451771 
L 181.529644 -484.384565 
L 179.83308 -484.318302 
L 178.136516 -484.252968 
L 176.439951 -484.18855 
L 174.743387 -484.125033 
L 173.046823 -484.062405 
L 171.350258 -484.000654 
L 169.653694 -483.939766 
L 167.95713 -483.879728 
L 166.260566 -483.820529 
L 164.564001 -483.762157 
L 162.867437 -483.704599 
L 161.170873 -483.647844 
L 159.474308 -483.59188 
L 157.777744 -483.536695 
L 156.08118 -483.48228 
L 154.384615 -483.428621 
L 152.688051 -483.37571 
L 150.991487 -483.323535 
L 149.294922 -483.272085 
L 147.598358 -483.22135 
L 145.901794 -483.17132 
L 144.20523 -483.121986 
L 142.508665 -483.073336 
L 140.812101 -483.025361 
L 139.115537 -482.978052 
L 137.418972 -482.9314 
L 135.722408 -482.885394 
L 134.025844 -482.840026 
L 132.329279 -482.795287 
L 130.632715 -482.751168 
L 128.936151 -482.707659 
L 127.239587 -482.664753 
L 125.543022 -482.622442 
L 123.846458 -482.580715 
L 122.149894 -482.539567 
L 120.453329 -482.498987 
L 118.756765 -482.458968 
L 117.060201 -482.419503 
L 115.363636 -482.380584 
z
" style="stroke: #ffa500; stroke-opacity: 0.3"/>
    </defs>
    <g clip-path="url(#p011f4db4da)">
     <use xlink:href="#mffb01d5ed1" x="0" y="864" style="fill: #ffa500; fill-opacity: 0.3; stroke: #ffa500; stroke-opacity: 0.3"/>
    </g>
   </g>
   <g id="matplotlib.axis_1">
    <g id="xtick_1">
     <g id="line2d_1">
      <path d="M 115.363636 397.185882 
L 115.363636 103.68 
" clip-path="url(#p011f4db4da)" style="fill: none; stroke: #b0b0b0; stroke-width: 0.8; stroke-linecap: square"/>
     </g>
     <g id="line2d_2">
      <defs>
       <path id="mf08c37608a" d="M 0 0 
L 0 3.5 
" style="stroke: #000000; stroke-width: 0.8"/>
      </defs>
      <g>
       <use xlink:href="#mf08c37608a" x="115.363636" y="397.185882" style="stroke: #000000; stroke-width: 0.8"/>
      </g>
     </g>
    </g>
    <g id="xtick_2">
     <g id="line2d_3">
      <path d="M 212.916084 397.185882 
L 212.916084 103.68 
" clip-path="url(#p011f4db4da)" style="fill: none; stroke: #b0b0b0; stroke-width: 0.8; stroke-linecap: square"/>
     </g>
     <g id="line2d_4">
      <g>
       <use xlink:href="#mf08c37608a" x="212.916084" y="397.185882" style="stroke: #000000; stroke-width: 0.8"/>
      </g>
     </g>
    </g>
    <g id="xtick_3">
     <g id="line2d_5">
      <path d="M 310.468531 397.185882 
L 310.468531 103.68 
" clip-path="url(#p011f4db4da)" style="fill: none; stroke: #b0b0b0; stroke-width: 0.8; stroke-linecap: square"/>
     </g>
     <g id="line2d_6">
      <g>
       <use xlink:href="#mf08c37608a" x="310.468531" y="397.185882" style="stroke: #000000; stroke-width: 0.8"/>
      </g>
     </g>
    </g>
    <g id="xtick_4">
     <g id="line2d_7">
      <path d="M 408.020979 397.185882 
L 408.020979 103.68 
" clip-path="url(#p011f4db4da)" style="fill: none; stroke: #b0b0b0; stroke-width: 0.8; stroke-linecap: square"/>
     </g>
     <g id="line2d_8">
      <g>
       <use xlink:href="#mf08c37608a" x="408.020979" y="397.185882" style="stroke: #000000; stroke-width: 0.8"/>
      </g>
     </g>
    </g>
    <g id="xtick_5">
     <g id="line2d_9">
      <path d="M 505.573427 397.185882 
L 505.573427 103.68 
" clip-path="url(#p011f4db4da)" style="fill: none; stroke: #b0b0b0; stroke-width: 0.8; stroke-linecap: square"/>
     </g>
     <g id="line2d_10">
      <g>
       <use xlink:href="#mf08c37608a" x="505.573427" y="397.185882" style="stroke: #000000; stroke-width: 0.8"/>
      </g>
     </g>
    </g>
    <g id="xtick_6">
     <g id="line2d_11">
      <path d="M 603.125874 397.185882 
L 603.125874 103.68 
" clip-path="url(#p011f4db4da)" style="fill: none; stroke: #b0b0b0; stroke-width: 0.8; stroke-linecap: square"/>
     </g>
     <g id="line2d_12">
      <g>
       <use xlink:href="#mf08c37608a" x="603.125874" y="397.185882" style="stroke: #000000; stroke-width: 0.8"/>
      </g>
     </g>
    </g>
   </g>
   <g id="matplotlib.axis_2">
    <g id="ytick_1">
     <g id="line2d_13">
      <path d="M 90 384.400176 
L 648 384.400176 
" clip-path="url(#p011f4db4da)" style="fill: none; stroke: #b0b0b0; stroke-width: 0.8; stroke-linecap: square"/>
     </g>
     <g id="line2d_14">
      <defs>
       <path id="mc4ff6462a2" d="M 0 0 
L -3.5 0 
" style="stroke: #000000; stroke-width: 0.8"/>
      </defs>
      <g>
       <use xlink:href="#mc4ff6462a2" x="90" y="384.400176" style="stroke: #000000; stroke-width: 0.8"/>
      </g>
     </g>
     <g id="text_1">
      <!-- 0 -->
      <g transform="translate(74.1025 390.126426) scale(0.16 -0.16)">
       <defs>
        <path id="Arial-BoldMT-30" d="M 1756 4600 
Q 2422 4600 2797 4125 
Q 3244 3563 3244 2259 
Q 3244 959 2794 391 
Q 2422 -78 1756 -78 
Q 1088 -78 678 436 
Q 269 950 269 2269 
Q 269 3563 719 4131 
Q 1091 4600 1756 4600 
z
M 1756 3872 
Q 1597 3872 1472 3770 
Q 1347 3669 1278 3406 
Q 1188 3066 1188 2259 
Q 1188 1453 1269 1151 
Q 1350 850 1473 750 
Q 1597 650 1756 650 
Q 1916 650 2041 751 
Q 2166 853 2234 1116 
Q 2325 1453 2325 2259 
Q 2325 3066 2244 3367 
Q 2163 3669 2039 3770 
Q 1916 3872 1756 3872 
z
" transform="scale(0.015625)"/>
       </defs>
       <use xlink:href="#Arial-BoldMT-30"/>
      </g>
     </g>
    </g>
    <g id="ytick_2">
     <g id="line2d_15">
      <path d="M 90 325.7498 
L 648 325.7498 
" clip-path="url(#p011f4db4da)" style="fill: none; stroke: #b0b0b0; stroke-width: 0.8; stroke-linecap: square"/>
     </g>
     <g id="line2d_16">
      <g>
       <use xlink:href="#mc4ff6462a2" x="90" y="325.7498" style="stroke: #000000; stroke-width: 0.8"/>
      </g>
     </g>
     <g id="text_2">
      <!-- 50000 -->
      <g transform="translate(38.5125 331.47605) scale(0.16 -0.16)">
       <defs>
        <path id="Arial-BoldMT-35" d="M 284 1178 
L 1159 1269 
Q 1197 972 1381 798 
Q 1566 625 1806 625 
Q 2081 625 2272 848 
Q 2463 1072 2463 1522 
Q 2463 1944 2273 2155 
Q 2084 2366 1781 2366 
Q 1403 2366 1103 2031 
L 391 2134 
L 841 4519 
L 3163 4519 
L 3163 3697 
L 1506 3697 
L 1369 2919 
Q 1663 3066 1969 3066 
Q 2553 3066 2959 2641 
Q 3366 2216 3366 1538 
Q 3366 972 3038 528 
Q 2591 -78 1797 -78 
Q 1163 -78 763 262 
Q 363 603 284 1178 
z
" transform="scale(0.015625)"/>
       </defs>
       <use xlink:href="#Arial-BoldMT-35"/>
       <use xlink:href="#Arial-BoldMT-30" x="55.615234"/>
       <use xlink:href="#Arial-BoldMT-30" x="111.230469"/>
       <use xlink:href="#Arial-BoldMT-30" x="166.845703"/>
       <use xlink:href="#Arial-BoldMT-30" x="222.460938"/>
      </g>
     </g>
    </g>
    <g id="ytick_3">
     <g id="line2d_17">
      <path d="M 90 267.099423 
L 648 267.099423 
" clip-path="url(#p011f4db4da)" style="fill: none; stroke: #b0b0b0; stroke-width: 0.8; stroke-linecap: square"/>
     </g>
     <g id="line2d_18">
      <g>
       <use xlink:href="#mc4ff6462a2" x="90" y="267.099423" style="stroke: #000000; stroke-width: 0.8"/>
      </g>
     </g>
     <g id="text_3">
      <!-- 100000 -->
      <g transform="translate(29.615 272.825673) scale(0.16 -0.16)">
       <defs>
        <path id="Arial-BoldMT-31" d="M 2519 0 
L 1641 0 
L 1641 3309 
Q 1159 2859 506 2644 
L 506 3441 
Q 850 3553 1253 3867 
Q 1656 4181 1806 4600 
L 2519 4600 
L 2519 0 
z
" transform="scale(0.015625)"/>
       </defs>
       <use xlink:href="#Arial-BoldMT-31"/>
       <use xlink:href="#Arial-BoldMT-30" x="55.615234"/>
       <use xlink:href="#Arial-BoldMT-30" x="111.230469"/>
       <use xlink:href="#Arial-BoldMT-30" x="166.845703"/>
       <use xlink:href="#Arial-BoldMT-30" x="222.460938"/>
       <use xlink:href="#Arial-BoldMT-30" x="278.076172"/>
      </g>
     </g>
    </g>
    <g id="ytick_4">
     <g id="line2d_19">
      <path d="M 90 208.449047 
L 648 208.449047 
" clip-path="url(#p011f4db4da)" style="fill: none; stroke: #b0b0b0; stroke-width: 0.8; stroke-linecap: square"/>
     </g>
     <g id="line2d_20">
      <g>
       <use xlink:href="#mc4ff6462a2" x="90" y="208.449047" style="stroke: #000000; stroke-width: 0.8"/>
      </g>
     </g>
     <g id="text_4">
      <!-- 150000 -->
      <g transform="translate(29.615 214.175297) scale(0.16 -0.16)">
       <use xlink:href="#Arial-BoldMT-31"/>
       <use xlink:href="#Arial-BoldMT-35" x="55.615234"/>
       <use xlink:href="#Arial-BoldMT-30" x="111.230469"/>
       <use xlink:href="#Arial-BoldMT-30" x="166.845703"/>
       <use xlink:href="#Arial-BoldMT-30" x="222.460938"/>
       <use xlink:href="#Arial-BoldMT-30" x="278.076172"/>
      </g>
     </g>
    </g>
    <g id="ytick_5">
     <g id="line2d_21">
      <path d="M 90 149.79867 
L 648 149.79867 
" clip-path="url(#p011f4db4da)" style="fill: none; stroke: #b0b0b0; stroke-width: 0.8; stroke-linecap: square"/>
     </g>
     <g id="line2d_22">
      <g>
       <use xlink:href="#mc4ff6462a2" x="90" y="149.79867" style="stroke: #000000; stroke-width: 0.8"/>
      </g>
     </g>
     <g id="text_5">
      <!-- 200000 -->
      <g transform="translate(29.615 155.52492) scale(0.16 -0.16)">
       <defs>
        <path id="Arial-BoldMT-32" d="M 3238 816 
L 3238 0 
L 159 0 
Q 209 463 459 877 
Q 709 1291 1447 1975 
Q 2041 2528 2175 2725 
Q 2356 2997 2356 3263 
Q 2356 3556 2198 3714 
Q 2041 3872 1763 3872 
Q 1488 3872 1325 3706 
Q 1163 3541 1138 3156 
L 263 3244 
Q 341 3969 753 4284 
Q 1166 4600 1784 4600 
Q 2463 4600 2850 4234 
Q 3238 3869 3238 3325 
Q 3238 3016 3127 2736 
Q 3016 2456 2775 2150 
Q 2616 1947 2200 1565 
Q 1784 1184 1673 1059 
Q 1563 934 1494 816 
L 3238 816 
z
" transform="scale(0.015625)"/>
       </defs>
       <use xlink:href="#Arial-BoldMT-32"/>
       <use xlink:href="#Arial-BoldMT-30" x="55.615234"/>
       <use xlink:href="#Arial-BoldMT-30" x="111.230469"/>
       <use xlink:href="#Arial-BoldMT-30" x="166.845703"/>
       <use xlink:href="#Arial-BoldMT-30" x="222.460938"/>
       <use xlink:href="#Arial-BoldMT-30" x="278.076172"/>
      </g>
     </g>
    </g>
    <g id="text_6">
     <!-- Gain -->
     <g transform="translate(22.4575 268.212941) rotate(-90) scale(0.16 -0.16)">
      <defs>
       <path id="Arial-BoldMT-47" d="M 2597 1684 
L 2597 2456 
L 4591 2456 
L 4591 631 
Q 4300 350 3748 136 
Q 3197 -78 2631 -78 
Q 1913 -78 1378 223 
Q 844 525 575 1086 
Q 306 1647 306 2306 
Q 306 3022 606 3578 
Q 906 4134 1484 4431 
Q 1925 4659 2581 4659 
Q 3434 4659 3914 4301 
Q 4394 3944 4531 3313 
L 3613 3141 
Q 3516 3478 3248 3673 
Q 2981 3869 2581 3869 
Q 1975 3869 1617 3484 
Q 1259 3100 1259 2344 
Q 1259 1528 1621 1120 
Q 1984 713 2572 713 
Q 2863 713 3155 827 
Q 3447 941 3656 1103 
L 3656 1684 
L 2597 1684 
z
" transform="scale(0.015625)"/>
       <path id="Arial-BoldMT-61" d="M 1116 2306 
L 319 2450 
Q 453 2931 781 3162 
Q 1109 3394 1756 3394 
Q 2344 3394 2631 3255 
Q 2919 3116 3036 2902 
Q 3153 2688 3153 2116 
L 3144 1091 
Q 3144 653 3186 445 
Q 3228 238 3344 0 
L 2475 0 
Q 2441 88 2391 259 
Q 2369 338 2359 363 
Q 2134 144 1878 34 
Q 1622 -75 1331 -75 
Q 819 -75 523 203 
Q 228 481 228 906 
Q 228 1188 362 1408 
Q 497 1628 739 1745 
Q 981 1863 1438 1950 
Q 2053 2066 2291 2166 
L 2291 2253 
Q 2291 2506 2166 2614 
Q 2041 2722 1694 2722 
Q 1459 2722 1328 2630 
Q 1197 2538 1116 2306 
z
M 2291 1594 
Q 2122 1538 1756 1459 
Q 1391 1381 1278 1306 
Q 1106 1184 1106 997 
Q 1106 813 1243 678 
Q 1381 544 1594 544 
Q 1831 544 2047 700 
Q 2206 819 2256 991 
Q 2291 1103 2291 1419 
L 2291 1594 
z
" transform="scale(0.015625)"/>
       <path id="Arial-BoldMT-69" d="M 459 3769 
L 459 4581 
L 1338 4581 
L 1338 3769 
L 459 3769 
z
M 459 0 
L 459 3319 
L 1338 3319 
L 1338 0 
L 459 0 
z
" transform="scale(0.015625)"/>
       <path id="Arial-BoldMT-6e" d="M 3478 0 
L 2600 0 
L 2600 1694 
Q 2600 2231 2544 2389 
Q 2488 2547 2361 2634 
Q 2234 2722 2056 2722 
Q 1828 2722 1647 2597 
Q 1466 2472 1398 2265 
Q 1331 2059 1331 1503 
L 1331 0 
L 453 0 
L 453 3319 
L 1269 3319 
L 1269 2831 
Q 1703 3394 2363 3394 
Q 2653 3394 2893 3289 
Q 3134 3184 3257 3021 
Q 3381 2859 3429 2653 
Q 3478 2447 3478 2063 
L 3478 0 
z
" transform="scale(0.015625)"/>
      </defs>
      <use xlink:href="#Arial-BoldMT-47"/>
      <use xlink:href="#Arial-BoldMT-61" x="77.783203"/>
      <use xlink:href="#Arial-BoldMT-69" x="133.398438"/>
      <use xlink:href="#Arial-BoldMT-6e" x="161.181641"/>
     </g>
    </g>
   </g>
   <g id="LineCollection_1">
    <path d="M 115.363636 383.844706 
L 115.363636 380.986644 
" clip-path="url(#p011f4db4da)" style="fill: none; stroke: #00008b; stroke-width: 2"/>
    <path d="M 193.405594 382.681692 
L 193.405594 377.781207 
" clip-path="url(#p011f4db4da)" style="fill: none; stroke: #00008b; stroke-width: 2"/>
    <path d="M 271.447552 380.068708 
L 271.447552 372.653512 
" clip-path="url(#p011f4db4da)" style="fill: none; stroke: #00008b; stroke-width: 2"/>
    <path d="M 349.48951 376.262218 
L 349.48951 361.113652 
" clip-path="url(#p011f4db4da)" style="fill: none; stroke: #00008b; stroke-width: 2"/>
    <path d="M 427.531469 366.10497 
L 427.531469 332.717862 
" clip-path="url(#p011f4db4da)" style="fill: none; stroke: #00008b; stroke-width: 2"/>
    <path d="M 515.328671 351.015132 
L 515.328671 274.941784 
" clip-path="url(#p011f4db4da)" style="fill: none; stroke: #00008b; stroke-width: 2"/>
    <path d="M 603.125874 302.641983 
L 603.125874 138.668288 
" clip-path="url(#p011f4db4da)" style="fill: none; stroke: #00008b; stroke-width: 2"/>
   </g>
   <g id="line2d_23">
    <path d="M 115.363636 382.413133 
L 150.991487 381.659821 
L 181.529644 380.790539 
L 208.674673 379.788858 
L 232.426573 378.686819 
L 252.785345 377.534829 
L 271.447552 376.275875 
L 290.10976 374.786056 
L 307.075403 373.195856 
L 322.344482 371.540979 
L 335.916996 369.86586 
L 349.48951 367.97253 
L 361.365461 366.114607 
L 373.241411 364.046557 
L 385.117361 361.744616 
L 395.296747 359.565394 
L 405.476133 357.176553 
L 415.655518 354.557932 
L 425.834904 351.687427 
L 434.317726 349.085518 
L 442.800547 346.276658 
L 451.283369 343.244386 
L 459.76619 339.970934 
L 468.249012 336.437117 
L 476.731833 332.622227 
L 483.518091 329.352978 
L 490.304348 325.87731 
L 497.090605 322.182188 
L 503.876862 318.253757 
L 510.663119 314.077286 
L 517.449377 309.637114 
L 524.235634 304.916589 
L 531.021891 299.898012 
L 537.808148 294.562563 
L 544.594406 288.890235 
L 551.380663 282.859757 
L 558.16692 276.448516 
L 563.256613 271.375804 
L 568.346306 266.064721 
L 573.435999 260.504068 
L 578.525692 254.682116 
L 583.615385 248.586588 
L 588.705078 242.204627 
L 593.79477 235.522773 
L 598.884463 228.526936 
L 603.974156 221.20236 
L 609.063849 213.533597 
L 614.153542 205.504475 
L 619.243235 197.09806 
L 622.636364 191.275455 
L 622.636364 191.275455 
" clip-path="url(#p011f4db4da)" style="fill: none; stroke: #1f77b4; stroke-width: 2; stroke-linecap: square"/>
   </g>
   <g id="line2d_24">
    <path d="M 115.363636 382.413133 
L 150.991487 381.659821 
L 181.529644 380.790539 
L 208.674673 379.788858 
L 232.426573 378.686819 
L 252.785345 377.534829 
L 271.447552 376.275875 
L 290.10976 374.786056 
L 307.075403 373.195856 
L 322.344482 371.540979 
L 335.916996 369.86586 
L 349.48951 367.97253 
L 361.365461 366.114607 
L 373.241411 364.046557 
L 385.117361 361.744616 
L 395.296747 359.565394 
L 405.476133 357.176553 
L 415.655518 354.557932 
L 425.834904 351.687427 
L 434.317726 349.085518 
L 442.800547 346.276658 
L 451.283369 343.244386 
L 459.76619 339.970934 
L 468.249012 336.437117 
L 476.731833 332.622227 
L 483.518091 329.352978 
L 490.304348 325.87731 
L 497.090605 322.182188 
L 503.876862 318.253757 
L 510.663119 314.077286 
L 517.449377 309.637114 
L 524.235634 304.916589 
L 531.021891 299.898012 
L 537.808148 294.562563 
L 544.594406 288.890235 
L 551.380663 282.859757 
L 558.16692 276.448516 
L 563.256613 271.375804 
L 568.346306 266.064721 
L 573.435999 260.504068 
L 578.525692 254.682116 
L 583.615385 248.586588 
L 588.705078 242.204627 
L 593.79477 235.522773 
L 598.884463 228.526936 
L 603.974156 221.20236 
L 609.063849 213.533597 
L 614.153542 205.504475 
L 619.243235 197.09806 
L 622.636364 191.275455 
L 622.636364 191.275455 
" clip-path="url(#p011f4db4da)" style="fill: none; stroke: #ffa500; stroke-width: 2; stroke-linecap: square"/>
   </g>
   <g id="line2d_25">
    <path d="M 115.363636 382.415675 
L 193.405594 380.23145 
L 271.447552 376.36111 
L 349.48951 368.687935 
L 427.531469 349.411416 
L 515.328671 312.978458 
L 603.125874 220.655135 
" clip-path="url(#p011f4db4da)" style="fill: none; stroke-dasharray: 12.8,3.2,2,3.2; stroke-dashoffset: 0; stroke: #00008b; stroke-width: 2"/>
    <defs>
     <path id="m3373b89776" d="M 0 3 
C 0.795609 3 1.55874 2.683901 2.12132 2.12132 
C 2.683901 1.55874 3 0.795609 3 0 
C 3 -0.795609 2.683901 -1.55874 2.12132 -2.12132 
C 1.55874 -2.683901 0.795609 -3 0 -3 
C -0.795609 -3 -1.55874 -2.683901 -2.12132 -2.12132 
C -2.683901 -1.55874 -3 -0.795609 -3 0 
C -3 0.795609 -2.683901 1.55874 -2.12132 2.12132 
C -1.55874 2.683901 -0.795609 3 0 3 
z
" style="stroke: #00008b"/>
    </defs>
    <g clip-path="url(#p011f4db4da)">
     <use xlink:href="#m3373b89776" x="115.363636" y="382.415675" style="fill: #00008b; stroke: #00008b"/>
     <use xlink:href="#m3373b89776" x="193.405594" y="380.23145" style="fill: #00008b; stroke: #00008b"/>
     <use xlink:href="#m3373b89776" x="271.447552" y="376.36111" style="fill: #00008b; stroke: #00008b"/>
     <use xlink:href="#m3373b89776" x="349.48951" y="368.687935" style="fill: #00008b; stroke: #00008b"/>
     <use xlink:href="#m3373b89776" x="427.531469" y="349.411416" style="fill: #00008b; stroke: #00008b"/>
     <use xlink:href="#m3373b89776" x="515.328671" y="312.978458" style="fill: #00008b; stroke: #00008b"/>
     <use xlink:href="#m3373b89776" x="603.125874" y="220.655135" style="fill: #00008b; stroke: #00008b"/>
    </g>
   </g>
   <g id="patch_3">
    <path d="M 90 397.185882 
L 90 103.68 
" style="fill: none; stroke: #000000; stroke-width: 1.2; stroke-linejoin: miter; stroke-linecap: square"/>
   </g>
   <g id="patch_4">
    <path d="M 648 397.185882 
L 648 103.68 
" style="fill: none; stroke: #000000; stroke-width: 1.2; stroke-linejoin: miter; stroke-linecap: square"/>
   </g>
   <g id="patch_5">
    <path d="M 90 397.185882 
L 648 397.185882 
" style="fill: none; stroke: #000000; stroke-width: 1.2; stroke-linejoin: miter; stroke-linecap: square"/>
   </g>
   <g id="patch_6">
    <path d="M 90 103.68 
L 648 103.68 
" style="fill: none; stroke: #000000; stroke-width: 1.2; stroke-linejoin: miter; stroke-linecap: square"/>
   </g>
   <g id="text_7">
    <!-- Gain als Funktion von $V_{Drift}$ bei 80/20 (Ar/CO2) -->
    <g transform="translate(165.192 97.68) scale(0.192 -0.192)">
     <defs>
      <path id="ArialMT-47" d="M 2638 1797 
L 2638 2334 
L 4578 2338 
L 4578 638 
Q 4131 281 3656 101 
Q 3181 -78 2681 -78 
Q 2006 -78 1454 211 
Q 903 500 622 1047 
Q 341 1594 341 2269 
Q 341 2938 620 3517 
Q 900 4097 1425 4378 
Q 1950 4659 2634 4659 
Q 3131 4659 3532 4498 
Q 3934 4338 4162 4050 
Q 4391 3763 4509 3300 
L 3963 3150 
Q 3859 3500 3706 3700 
Q 3553 3900 3268 4020 
Q 2984 4141 2638 4141 
Q 2222 4141 1919 4014 
Q 1616 3888 1430 3681 
Q 1244 3475 1141 3228 
Q 966 2803 966 2306 
Q 966 1694 1177 1281 
Q 1388 869 1791 669 
Q 2194 469 2647 469 
Q 3041 469 3416 620 
Q 3791 772 3984 944 
L 3984 1797 
L 2638 1797 
z
" transform="scale(0.015625)"/>
      <path id="ArialMT-61" d="M 2588 409 
Q 2275 144 1986 34 
Q 1697 -75 1366 -75 
Q 819 -75 525 192 
Q 231 459 231 875 
Q 231 1119 342 1320 
Q 453 1522 633 1644 
Q 813 1766 1038 1828 
Q 1203 1872 1538 1913 
Q 2219 1994 2541 2106 
Q 2544 2222 2544 2253 
Q 2544 2597 2384 2738 
Q 2169 2928 1744 2928 
Q 1347 2928 1158 2789 
Q 969 2650 878 2297 
L 328 2372 
Q 403 2725 575 2942 
Q 747 3159 1072 3276 
Q 1397 3394 1825 3394 
Q 2250 3394 2515 3294 
Q 2781 3194 2906 3042 
Q 3031 2891 3081 2659 
Q 3109 2516 3109 2141 
L 3109 1391 
Q 3109 606 3145 398 
Q 3181 191 3288 0 
L 2700 0 
Q 2613 175 2588 409 
z
M 2541 1666 
Q 2234 1541 1622 1453 
Q 1275 1403 1131 1340 
Q 988 1278 909 1158 
Q 831 1038 831 891 
Q 831 666 1001 516 
Q 1172 366 1500 366 
Q 1825 366 2078 508 
Q 2331 650 2450 897 
Q 2541 1088 2541 1459 
L 2541 1666 
z
" transform="scale(0.015625)"/>
      <path id="ArialMT-69" d="M 425 3934 
L 425 4581 
L 988 4581 
L 988 3934 
L 425 3934 
z
M 425 0 
L 425 3319 
L 988 3319 
L 988 0 
L 425 0 
z
" transform="scale(0.015625)"/>
      <path id="ArialMT-6e" d="M 422 0 
L 422 3319 
L 928 3319 
L 928 2847 
Q 1294 3394 1984 3394 
Q 2284 3394 2536 3286 
Q 2788 3178 2913 3003 
Q 3038 2828 3088 2588 
Q 3119 2431 3119 2041 
L 3119 0 
L 2556 0 
L 2556 2019 
Q 2556 2363 2490 2533 
Q 2425 2703 2258 2804 
Q 2091 2906 1866 2906 
Q 1506 2906 1245 2678 
Q 984 2450 984 1813 
L 984 0 
L 422 0 
z
" transform="scale(0.015625)"/>
      <path id="ArialMT-20" transform="scale(0.015625)"/>
      <path id="ArialMT-6c" d="M 409 0 
L 409 4581 
L 972 4581 
L 972 0 
L 409 0 
z
" transform="scale(0.015625)"/>
      <path id="ArialMT-73" d="M 197 991 
L 753 1078 
Q 800 744 1014 566 
Q 1228 388 1613 388 
Q 2000 388 2187 545 
Q 2375 703 2375 916 
Q 2375 1106 2209 1216 
Q 2094 1291 1634 1406 
Q 1016 1563 777 1677 
Q 538 1791 414 1992 
Q 291 2194 291 2438 
Q 291 2659 392 2848 
Q 494 3038 669 3163 
Q 800 3259 1026 3326 
Q 1253 3394 1513 3394 
Q 1903 3394 2198 3281 
Q 2494 3169 2634 2976 
Q 2775 2784 2828 2463 
L 2278 2388 
Q 2241 2644 2061 2787 
Q 1881 2931 1553 2931 
Q 1166 2931 1000 2803 
Q 834 2675 834 2503 
Q 834 2394 903 2306 
Q 972 2216 1119 2156 
Q 1203 2125 1616 2013 
Q 2213 1853 2448 1751 
Q 2684 1650 2818 1456 
Q 2953 1263 2953 975 
Q 2953 694 2789 445 
Q 2625 197 2315 61 
Q 2006 -75 1616 -75 
Q 969 -75 630 194 
Q 291 463 197 991 
z
" transform="scale(0.015625)"/>
      <path id="ArialMT-46" d="M 525 0 
L 525 4581 
L 3616 4581 
L 3616 4041 
L 1131 4041 
L 1131 2622 
L 3281 2622 
L 3281 2081 
L 1131 2081 
L 1131 0 
L 525 0 
z
" transform="scale(0.015625)"/>
      <path id="ArialMT-75" d="M 2597 0 
L 2597 488 
Q 2209 -75 1544 -75 
Q 1250 -75 995 37 
Q 741 150 617 320 
Q 494 491 444 738 
Q 409 903 409 1263 
L 409 3319 
L 972 3319 
L 972 1478 
Q 972 1038 1006 884 
Q 1059 663 1231 536 
Q 1403 409 1656 409 
Q 1909 409 2131 539 
Q 2353 669 2445 892 
Q 2538 1116 2538 1541 
L 2538 3319 
L 3100 3319 
L 3100 0 
L 2597 0 
z
" transform="scale(0.015625)"/>
      <path id="ArialMT-6b" d="M 425 0 
L 425 4581 
L 988 4581 
L 988 1969 
L 2319 3319 
L 3047 3319 
L 1778 2088 
L 3175 0 
L 2481 0 
L 1384 1697 
L 988 1316 
L 988 0 
L 425 0 
z
" transform="scale(0.015625)"/>
      <path id="ArialMT-74" d="M 1650 503 
L 1731 6 
Q 1494 -44 1306 -44 
Q 1000 -44 831 53 
Q 663 150 594 308 
Q 525 466 525 972 
L 525 2881 
L 113 2881 
L 113 3319 
L 525 3319 
L 525 4141 
L 1084 4478 
L 1084 3319 
L 1650 3319 
L 1650 2881 
L 1084 2881 
L 1084 941 
Q 1084 700 1114 631 
Q 1144 563 1211 522 
Q 1278 481 1403 481 
Q 1497 481 1650 503 
z
" transform="scale(0.015625)"/>
      <path id="ArialMT-6f" d="M 213 1659 
Q 213 2581 725 3025 
Q 1153 3394 1769 3394 
Q 2453 3394 2887 2945 
Q 3322 2497 3322 1706 
Q 3322 1066 3130 698 
Q 2938 331 2570 128 
Q 2203 -75 1769 -75 
Q 1072 -75 642 372 
Q 213 819 213 1659 
z
M 791 1659 
Q 791 1022 1069 705 
Q 1347 388 1769 388 
Q 2188 388 2466 706 
Q 2744 1025 2744 1678 
Q 2744 2294 2464 2611 
Q 2184 2928 1769 2928 
Q 1347 2928 1069 2612 
Q 791 2297 791 1659 
z
" transform="scale(0.015625)"/>
      <path id="ArialMT-76" d="M 1344 0 
L 81 3319 
L 675 3319 
L 1388 1331 
Q 1503 1009 1600 663 
Q 1675 925 1809 1294 
L 2547 3319 
L 3125 3319 
L 1869 0 
L 1344 0 
z
" transform="scale(0.015625)"/>
      <path id="DejaVuSans-BoldOblique-56" d="M 488 4666 
L 1631 4666 
L 2203 1178 
L 4134 4666 
L 5375 4666 
L 2741 0 
L 1306 0 
L 488 4666 
z
" transform="scale(0.015625)"/>
      <path id="DejaVuSans-BoldOblique-44" d="M 2075 3756 
L 1516 909 
L 1947 909 
Q 2788 909 3278 1381 
Q 3769 1853 3769 2656 
Q 3769 3200 3448 3478 
Q 3128 3756 2497 3756 
L 2075 3756 
z
M 1044 4666 
L 2309 4666 
Q 3216 4666 3669 4558 
Q 4122 4450 4422 4197 
Q 4725 3944 4878 3583 
Q 5031 3222 5031 2766 
Q 5031 2131 4770 1570 
Q 4509 1009 4038 628 
Q 3625 288 3079 144 
Q 2534 0 1403 0 
L 134 0 
L 1044 4666 
z
" transform="scale(0.015625)"/>
      <path id="DejaVuSans-BoldOblique-72" d="M 3291 2547 
Q 3175 2613 3034 2647 
Q 2894 2681 2731 2681 
Q 2303 2681 2020 2406 
Q 1738 2131 1638 1613 
L 1319 0 
L 197 0 
L 878 3500 
L 2003 3500 
L 1881 2900 
Q 2103 3231 2436 3407 
Q 2769 3584 3175 3584 
Q 3234 3584 3309 3578 
Q 3384 3572 3488 3559 
L 3291 2547 
z
" transform="scale(0.015625)"/>
      <path id="DejaVuSans-BoldOblique-69" d="M 878 3500 
L 2003 3500 
L 1319 0 
L 197 0 
L 878 3500 
z
M 1141 4863 
L 2266 4863 
L 2088 3950 
L 959 3950 
L 1141 4863 
z
" transform="scale(0.015625)"/>
      <path id="DejaVuSans-BoldOblique-66" d="M 3456 4863 
L 3309 4128 
L 2694 4128 
Q 2459 4128 2351 4042 
Q 2244 3956 2203 3747 
L 2150 3500 
L 3097 3500 
L 2944 2700 
L 1997 2700 
L 1472 0 
L 347 0 
L 872 2700 
L 319 2700 
L 475 3500 
L 1025 3500 
L 1075 3744 
Q 1191 4325 1556 4594 
Q 1922 4863 2597 4863 
L 3456 4863 
z
" transform="scale(0.015625)"/>
      <path id="DejaVuSans-BoldOblique-74" d="M 2303 4494 
L 2113 3500 
L 3256 3500 
L 3097 2700 
L 1953 2700 
L 1666 1219 
Q 1653 1169 1648 1134 
Q 1644 1100 1644 1069 
Q 1644 925 1739 862 
Q 1834 800 2059 800 
L 2638 800 
L 2478 0 
L 1538 0 
Q 1031 0 765 212 
Q 500 425 500 825 
Q 500 913 509 1013 
Q 519 1113 538 1216 
L 825 2700 
L 275 2700 
L 428 3500 
L 984 3500 
L 1178 4494 
L 2303 4494 
z
" transform="scale(0.015625)"/>
      <path id="ArialMT-62" d="M 941 0 
L 419 0 
L 419 4581 
L 981 4581 
L 981 2947 
Q 1338 3394 1891 3394 
Q 2197 3394 2470 3270 
Q 2744 3147 2920 2923 
Q 3097 2700 3197 2384 
Q 3297 2069 3297 1709 
Q 3297 856 2875 390 
Q 2453 -75 1863 -75 
Q 1275 -75 941 416 
L 941 0 
z
M 934 1684 
Q 934 1088 1097 822 
Q 1363 388 1816 388 
Q 2184 388 2453 708 
Q 2722 1028 2722 1663 
Q 2722 2313 2464 2622 
Q 2206 2931 1841 2931 
Q 1472 2931 1203 2611 
Q 934 2291 934 1684 
z
" transform="scale(0.015625)"/>
      <path id="ArialMT-65" d="M 2694 1069 
L 3275 997 
Q 3138 488 2766 206 
Q 2394 -75 1816 -75 
Q 1088 -75 661 373 
Q 234 822 234 1631 
Q 234 2469 665 2931 
Q 1097 3394 1784 3394 
Q 2450 3394 2872 2941 
Q 3294 2488 3294 1666 
Q 3294 1616 3291 1516 
L 816 1516 
Q 847 969 1125 678 
Q 1403 388 1819 388 
Q 2128 388 2347 550 
Q 2566 713 2694 1069 
z
M 847 1978 
L 2700 1978 
Q 2663 2397 2488 2606 
Q 2219 2931 1791 2931 
Q 1403 2931 1139 2672 
Q 875 2413 847 1978 
z
" transform="scale(0.015625)"/>
      <path id="ArialMT-38" d="M 1131 2484 
Q 781 2613 612 2850 
Q 444 3088 444 3419 
Q 444 3919 803 4259 
Q 1163 4600 1759 4600 
Q 2359 4600 2725 4251 
Q 3091 3903 3091 3403 
Q 3091 3084 2923 2848 
Q 2756 2613 2416 2484 
Q 2838 2347 3058 2040 
Q 3278 1734 3278 1309 
Q 3278 722 2862 322 
Q 2447 -78 1769 -78 
Q 1091 -78 675 323 
Q 259 725 259 1325 
Q 259 1772 486 2073 
Q 713 2375 1131 2484 
z
M 1019 3438 
Q 1019 3113 1228 2906 
Q 1438 2700 1772 2700 
Q 2097 2700 2305 2904 
Q 2513 3109 2513 3406 
Q 2513 3716 2298 3927 
Q 2084 4138 1766 4138 
Q 1444 4138 1231 3931 
Q 1019 3725 1019 3438 
z
M 838 1322 
Q 838 1081 952 856 
Q 1066 631 1291 507 
Q 1516 384 1775 384 
Q 2178 384 2440 643 
Q 2703 903 2703 1303 
Q 2703 1709 2433 1975 
Q 2163 2241 1756 2241 
Q 1359 2241 1098 1978 
Q 838 1716 838 1322 
z
" transform="scale(0.015625)"/>
      <path id="ArialMT-30" d="M 266 2259 
Q 266 3072 433 3567 
Q 600 4063 929 4331 
Q 1259 4600 1759 4600 
Q 2128 4600 2406 4451 
Q 2684 4303 2865 4023 
Q 3047 3744 3150 3342 
Q 3253 2941 3253 2259 
Q 3253 1453 3087 958 
Q 2922 463 2592 192 
Q 2263 -78 1759 -78 
Q 1097 -78 719 397 
Q 266 969 266 2259 
z
M 844 2259 
Q 844 1131 1108 757 
Q 1372 384 1759 384 
Q 2147 384 2411 759 
Q 2675 1134 2675 2259 
Q 2675 3391 2411 3762 
Q 2147 4134 1753 4134 
Q 1366 4134 1134 3806 
Q 844 3388 844 2259 
z
" transform="scale(0.015625)"/>
      <path id="ArialMT-2f" d="M 0 -78 
L 1328 4659 
L 1778 4659 
L 453 -78 
L 0 -78 
z
" transform="scale(0.015625)"/>
      <path id="ArialMT-32" d="M 3222 541 
L 3222 0 
L 194 0 
Q 188 203 259 391 
Q 375 700 629 1000 
Q 884 1300 1366 1694 
Q 2113 2306 2375 2664 
Q 2638 3022 2638 3341 
Q 2638 3675 2398 3904 
Q 2159 4134 1775 4134 
Q 1369 4134 1125 3890 
Q 881 3647 878 3216 
L 300 3275 
Q 359 3922 746 4261 
Q 1134 4600 1788 4600 
Q 2447 4600 2831 4234 
Q 3216 3869 3216 3328 
Q 3216 3053 3103 2787 
Q 2991 2522 2730 2228 
Q 2469 1934 1863 1422 
Q 1356 997 1212 845 
Q 1069 694 975 541 
L 3222 541 
z
" transform="scale(0.015625)"/>
      <path id="ArialMT-28" d="M 1497 -1347 
Q 1031 -759 709 28 
Q 388 816 388 1659 
Q 388 2403 628 3084 
Q 909 3875 1497 4659 
L 1900 4659 
Q 1522 4009 1400 3731 
Q 1209 3300 1100 2831 
Q 966 2247 966 1656 
Q 966 153 1900 -1347 
L 1497 -1347 
z
" transform="scale(0.015625)"/>
      <path id="ArialMT-41" d="M -9 0 
L 1750 4581 
L 2403 4581 
L 4278 0 
L 3588 0 
L 3053 1388 
L 1138 1388 
L 634 0 
L -9 0 
z
M 1313 1881 
L 2866 1881 
L 2388 3150 
Q 2169 3728 2063 4100 
Q 1975 3659 1816 3225 
L 1313 1881 
z
" transform="scale(0.015625)"/>
      <path id="ArialMT-72" d="M 416 0 
L 416 3319 
L 922 3319 
L 922 2816 
Q 1116 3169 1280 3281 
Q 1444 3394 1641 3394 
Q 1925 3394 2219 3213 
L 2025 2691 
Q 1819 2813 1613 2813 
Q 1428 2813 1281 2702 
Q 1134 2591 1072 2394 
Q 978 2094 978 1738 
L 978 0 
L 416 0 
z
" transform="scale(0.015625)"/>
      <path id="ArialMT-43" d="M 3763 1606 
L 4369 1453 
Q 4178 706 3683 314 
Q 3188 -78 2472 -78 
Q 1731 -78 1267 223 
Q 803 525 561 1097 
Q 319 1669 319 2325 
Q 319 3041 592 3573 
Q 866 4106 1370 4382 
Q 1875 4659 2481 4659 
Q 3169 4659 3637 4309 
Q 4106 3959 4291 3325 
L 3694 3184 
Q 3534 3684 3231 3912 
Q 2928 4141 2469 4141 
Q 1941 4141 1586 3887 
Q 1231 3634 1087 3207 
Q 944 2781 944 2328 
Q 944 1744 1114 1308 
Q 1284 872 1643 656 
Q 2003 441 2422 441 
Q 2931 441 3284 734 
Q 3638 1028 3763 1606 
z
" transform="scale(0.015625)"/>
      <path id="ArialMT-4f" d="M 309 2231 
Q 309 3372 921 4017 
Q 1534 4663 2503 4663 
Q 3138 4663 3647 4359 
Q 4156 4056 4423 3514 
Q 4691 2972 4691 2284 
Q 4691 1588 4409 1038 
Q 4128 488 3612 205 
Q 3097 -78 2500 -78 
Q 1853 -78 1343 234 
Q 834 547 571 1087 
Q 309 1628 309 2231 
z
M 934 2222 
Q 934 1394 1379 917 
Q 1825 441 2497 441 
Q 3181 441 3623 922 
Q 4066 1403 4066 2288 
Q 4066 2847 3877 3264 
Q 3688 3681 3323 3911 
Q 2959 4141 2506 4141 
Q 1863 4141 1398 3698 
Q 934 3256 934 2222 
z
" transform="scale(0.015625)"/>
      <path id="ArialMT-29" d="M 791 -1347 
L 388 -1347 
Q 1322 153 1322 1656 
Q 1322 2244 1188 2822 
Q 1081 3291 891 3722 
Q 769 4003 388 4659 
L 791 4659 
Q 1378 3875 1659 3084 
Q 1900 2403 1900 1659 
Q 1900 816 1576 28 
Q 1253 -759 791 -1347 
z
" transform="scale(0.015625)"/>
     </defs>
     <use xlink:href="#ArialMT-47" transform="translate(0 0.09375)"/>
     <use xlink:href="#ArialMT-61" transform="translate(77.783203 0.09375)"/>
     <use xlink:href="#ArialMT-69" transform="translate(133.398438 0.09375)"/>
     <use xlink:href="#ArialMT-6e" transform="translate(155.615234 0.09375)"/>
     <use xlink:href="#ArialMT-20" transform="translate(211.230469 0.09375)"/>
     <use xlink:href="#ArialMT-61" transform="translate(239.013672 0.09375)"/>
     <use xlink:href="#ArialMT-6c" transform="translate(294.628906 0.09375)"/>
     <use xlink:href="#ArialMT-73" transform="translate(316.845703 0.09375)"/>
     <use xlink:href="#ArialMT-20" transform="translate(366.845703 0.09375)"/>
     <use xlink:href="#ArialMT-46" transform="translate(394.628906 0.09375)"/>
     <use xlink:href="#ArialMT-75" transform="translate(455.712891 0.09375)"/>
     <use xlink:href="#ArialMT-6e" transform="translate(511.328125 0.09375)"/>
     <use xlink:href="#ArialMT-6b" transform="translate(566.943359 0.09375)"/>
     <use xlink:href="#ArialMT-74" transform="translate(616.943359 0.09375)"/>
     <use xlink:href="#ArialMT-69" transform="translate(644.726562 0.09375)"/>
     <use xlink:href="#ArialMT-6f" transform="translate(666.943359 0.09375)"/>
     <use xlink:href="#ArialMT-6e" transform="translate(722.558594 0.09375)"/>
     <use xlink:href="#ArialMT-20" transform="translate(778.173828 0.09375)"/>
     <use xlink:href="#ArialMT-76" transform="translate(805.957031 0.09375)"/>
     <use xlink:href="#ArialMT-6f" transform="translate(855.957031 0.09375)"/>
     <use xlink:href="#ArialMT-6e" transform="translate(911.572266 0.09375)"/>
     <use xlink:href="#ArialMT-20" transform="translate(967.1875 0.09375)"/>
     <use xlink:href="#DejaVuSans-BoldOblique-56" transform="translate(994.970703 0.09375)"/>
     <use xlink:href="#DejaVuSans-BoldOblique-44" transform="translate(1072.363281 -16.3125) scale(0.7)"/>
     <use xlink:href="#DejaVuSans-BoldOblique-72" transform="translate(1130.46875 -16.3125) scale(0.7)"/>
     <use xlink:href="#DejaVuSans-BoldOblique-69" transform="translate(1164.990234 -16.3125) scale(0.7)"/>
     <use xlink:href="#DejaVuSans-BoldOblique-66" transform="translate(1188.984375 -16.3125) scale(0.7)"/>
     <use xlink:href="#DejaVuSans-BoldOblique-74" transform="translate(1219.438477 -16.3125) scale(0.7)"/>
     <use xlink:href="#ArialMT-20" transform="translate(1255.634766 0.09375)"/>
     <use xlink:href="#ArialMT-62" transform="translate(1283.417969 0.09375)"/>
     <use xlink:href="#ArialMT-65" transform="translate(1339.033203 0.09375)"/>
     <use xlink:href="#ArialMT-69" transform="translate(1394.648438 0.09375)"/>
     <use xlink:href="#ArialMT-20" transform="translate(1416.865234 0.09375)"/>
     <use xlink:href="#ArialMT-38" transform="translate(1444.648438 0.09375)"/>
     <use xlink:href="#ArialMT-30" transform="translate(1500.263672 0.09375)"/>
     <use xlink:href="#ArialMT-2f" transform="translate(1555.878906 0.09375)"/>
     <use xlink:href="#ArialMT-32" transform="translate(1583.662109 0.09375)"/>
     <use xlink:href="#ArialMT-30" transform="translate(1639.277344 0.09375)"/>
     <use xlink:href="#ArialMT-20" transform="translate(1694.892578 0.09375)"/>
     <use xlink:href="#ArialMT-28" transform="translate(1722.675781 0.09375)"/>
     <use xlink:href="#ArialMT-41" transform="translate(1755.976562 0.09375)"/>
     <use xlink:href="#ArialMT-72" transform="translate(1822.675781 0.09375)"/>
     <use xlink:href="#ArialMT-2f" transform="translate(1855.976562 0.09375)"/>
     <use xlink:href="#ArialMT-43" transform="translate(1883.759766 0.09375)"/>
     <use xlink:href="#ArialMT-4f" transform="translate(1955.976562 0.09375)"/>
     <use xlink:href="#ArialMT-32" transform="translate(2033.759766 0.09375)"/>
     <use xlink:href="#ArialMT-29" transform="translate(2089.375 0.09375)"/>
    </g>
   </g>
   <g id="legend_1">
    <g id="patch_7">
     <path d="M 101.2 184.52 
L 347.37 184.52 
Q 350.57 184.52 350.57 181.32 
L 350.57 114.88 
Q 350.57 111.68 347.37 111.68 
L 101.2 111.68 
Q 98 111.68 98 114.88 
L 98 181.32 
Q 98 184.52 101.2 184.52 
z
" style="fill: #ffffff; opacity: 0.8; stroke: #cccccc; stroke-linejoin: miter"/>
    </g>
    <g id="patch_8">
     <path d="M 104.4 129.5325 
L 136.4 129.5325 
L 136.4 118.3325 
L 104.4 118.3325 
z
" style="fill: #ffa500; fill-opacity: 0.3; stroke: #ffa500; stroke-opacity: 0.3; stroke-linejoin: miter"/>
    </g>
    <g id="text_8">
     <!-- 1σ Unsicherheitsbereich -->
     <g transform="translate(149.2 129.5325) scale(0.16 -0.16)">
      <defs>
       <path id="Arial-BoldMT-3c3" d="M 4228 3319 
L 4228 2591 
L 3425 2591 
Q 3669 2175 3669 1672 
Q 3669 947 3195 436 
Q 2722 -75 1944 -75 
Q 1184 -75 714 400 
Q 244 875 244 1644 
Q 244 2406 705 2900 
Q 1166 3394 1969 3394 
Q 2203 3394 2509 3319 
L 4228 3319 
z
M 1144 1659 
Q 1144 1184 1372 912 
Q 1600 641 1956 641 
Q 2300 641 2533 903 
Q 2766 1166 2766 1675 
Q 2766 2125 2544 2401 
Q 2322 2678 1956 2678 
Q 1597 2678 1370 2406 
Q 1144 2134 1144 1659 
z
" transform="scale(0.015625)"/>
       <path id="Arial-BoldMT-20" transform="scale(0.015625)"/>
       <path id="Arial-BoldMT-55" d="M 459 4581 
L 1384 4581 
L 1384 2100 
Q 1384 1509 1419 1334 
Q 1478 1053 1701 883 
Q 1925 713 2313 713 
Q 2706 713 2906 873 
Q 3106 1034 3147 1268 
Q 3188 1503 3188 2047 
L 3188 4581 
L 4113 4581 
L 4113 2175 
Q 4113 1350 4038 1009 
Q 3963 669 3761 434 
Q 3559 200 3221 61 
Q 2884 -78 2341 -78 
Q 1684 -78 1345 73 
Q 1006 225 809 467 
Q 613 709 550 975 
Q 459 1369 459 2138 
L 459 4581 
z
" transform="scale(0.015625)"/>
       <path id="Arial-BoldMT-73" d="M 150 947 
L 1031 1081 
Q 1088 825 1259 692 
Q 1431 559 1741 559 
Q 2081 559 2253 684 
Q 2369 772 2369 919 
Q 2369 1019 2306 1084 
Q 2241 1147 2013 1200 
Q 950 1434 666 1628 
Q 272 1897 272 2375 
Q 272 2806 612 3100 
Q 953 3394 1669 3394 
Q 2350 3394 2681 3172 
Q 3013 2950 3138 2516 
L 2309 2363 
Q 2256 2556 2107 2659 
Q 1959 2763 1684 2763 
Q 1338 2763 1188 2666 
Q 1088 2597 1088 2488 
Q 1088 2394 1175 2328 
Q 1294 2241 1995 2081 
Q 2697 1922 2975 1691 
Q 3250 1456 3250 1038 
Q 3250 581 2869 253 
Q 2488 -75 1741 -75 
Q 1063 -75 667 200 
Q 272 475 150 947 
z
" transform="scale(0.015625)"/>
       <path id="Arial-BoldMT-63" d="M 3353 2338 
L 2488 2181 
Q 2444 2441 2289 2572 
Q 2134 2703 1888 2703 
Q 1559 2703 1364 2476 
Q 1169 2250 1169 1719 
Q 1169 1128 1367 884 
Q 1566 641 1900 641 
Q 2150 641 2309 783 
Q 2469 925 2534 1272 
L 3397 1125 
Q 3263 531 2881 228 
Q 2500 -75 1859 -75 
Q 1131 -75 698 384 
Q 266 844 266 1656 
Q 266 2478 700 2936 
Q 1134 3394 1875 3394 
Q 2481 3394 2839 3133 
Q 3197 2872 3353 2338 
z
" transform="scale(0.015625)"/>
       <path id="Arial-BoldMT-68" d="M 1334 4581 
L 1334 2897 
Q 1759 3394 2350 3394 
Q 2653 3394 2897 3281 
Q 3141 3169 3264 2994 
Q 3388 2819 3433 2606 
Q 3478 2394 3478 1947 
L 3478 0 
L 2600 0 
L 2600 1753 
Q 2600 2275 2550 2415 
Q 2500 2556 2373 2639 
Q 2247 2722 2056 2722 
Q 1838 2722 1666 2615 
Q 1494 2509 1414 2295 
Q 1334 2081 1334 1663 
L 1334 0 
L 456 0 
L 456 4581 
L 1334 4581 
z
" transform="scale(0.015625)"/>
       <path id="Arial-BoldMT-65" d="M 2381 1056 
L 3256 909 
Q 3088 428 2723 176 
Q 2359 -75 1813 -75 
Q 947 -75 531 491 
Q 203 944 203 1634 
Q 203 2459 634 2926 
Q 1066 3394 1725 3394 
Q 2466 3394 2894 2905 
Q 3322 2416 3303 1406 
L 1103 1406 
Q 1113 1016 1316 798 
Q 1519 581 1822 581 
Q 2028 581 2168 693 
Q 2309 806 2381 1056 
z
M 2431 1944 
Q 2422 2325 2234 2523 
Q 2047 2722 1778 2722 
Q 1491 2722 1303 2513 
Q 1116 2303 1119 1944 
L 2431 1944 
z
" transform="scale(0.015625)"/>
       <path id="Arial-BoldMT-72" d="M 1300 0 
L 422 0 
L 422 3319 
L 1238 3319 
L 1238 2847 
Q 1447 3181 1614 3287 
Q 1781 3394 1994 3394 
Q 2294 3394 2572 3228 
L 2300 2463 
Q 2078 2606 1888 2606 
Q 1703 2606 1575 2504 
Q 1447 2403 1373 2137 
Q 1300 1872 1300 1025 
L 1300 0 
z
" transform="scale(0.015625)"/>
       <path id="Arial-BoldMT-74" d="M 1981 3319 
L 1981 2619 
L 1381 2619 
L 1381 1281 
Q 1381 875 1398 808 
Q 1416 741 1477 697 
Q 1538 653 1625 653 
Q 1747 653 1978 738 
L 2053 56 
Q 1747 -75 1359 -75 
Q 1122 -75 931 4 
Q 741 84 652 211 
Q 563 338 528 553 
Q 500 706 500 1172 
L 500 2619 
L 97 2619 
L 97 3319 
L 500 3319 
L 500 3978 
L 1381 4491 
L 1381 3319 
L 1981 3319 
z
" transform="scale(0.015625)"/>
       <path id="Arial-BoldMT-62" d="M 422 0 
L 422 4581 
L 1300 4581 
L 1300 2931 
Q 1706 3394 2263 3394 
Q 2869 3394 3266 2955 
Q 3663 2516 3663 1694 
Q 3663 844 3258 384 
Q 2853 -75 2275 -75 
Q 1991 -75 1714 67 
Q 1438 209 1238 488 
L 1238 0 
L 422 0 
z
M 1294 1731 
Q 1294 1216 1456 969 
Q 1684 619 2063 619 
Q 2353 619 2558 867 
Q 2763 1116 2763 1650 
Q 2763 2219 2556 2470 
Q 2350 2722 2028 2722 
Q 1713 2722 1503 2476 
Q 1294 2231 1294 1731 
z
" transform="scale(0.015625)"/>
      </defs>
      <use xlink:href="#Arial-BoldMT-31"/>
      <use xlink:href="#Arial-BoldMT-3c3" x="55.615234"/>
      <use xlink:href="#Arial-BoldMT-20" x="124.023438"/>
      <use xlink:href="#Arial-BoldMT-55" x="151.806641"/>
      <use xlink:href="#Arial-BoldMT-6e" x="224.023438"/>
      <use xlink:href="#Arial-BoldMT-73" x="285.107422"/>
      <use xlink:href="#Arial-BoldMT-69" x="340.722656"/>
      <use xlink:href="#Arial-BoldMT-63" x="368.505859"/>
      <use xlink:href="#Arial-BoldMT-68" x="424.121094"/>
      <use xlink:href="#Arial-BoldMT-65" x="485.205078"/>
      <use xlink:href="#Arial-BoldMT-72" x="540.820312"/>
      <use xlink:href="#Arial-BoldMT-68" x="579.736328"/>
      <use xlink:href="#Arial-BoldMT-65" x="640.820312"/>
      <use xlink:href="#Arial-BoldMT-69" x="696.435547"/>
      <use xlink:href="#Arial-BoldMT-74" x="724.21875"/>
      <use xlink:href="#Arial-BoldMT-73" x="757.519531"/>
      <use xlink:href="#Arial-BoldMT-62" x="813.134766"/>
      <use xlink:href="#Arial-BoldMT-65" x="874.21875"/>
      <use xlink:href="#Arial-BoldMT-72" x="929.833984"/>
      <use xlink:href="#Arial-BoldMT-65" x="968.75"/>
      <use xlink:href="#Arial-BoldMT-69" x="1024.365234"/>
      <use xlink:href="#Arial-BoldMT-63" x="1052.148438"/>
      <use xlink:href="#Arial-BoldMT-68" x="1107.763672"/>
     </g>
    </g>
    <g id="line2d_26">
     <path d="M 104.4 146.5425 
L 120.4 146.5425 
L 136.4 146.5425 
" style="fill: none; stroke: #ffa500; stroke-width: 2; stroke-linecap: square"/>
    </g>
    <g id="text_9">
     <!-- Exponentielle Anpassung -->
     <g transform="translate(149.2 152.1425) scale(0.16 -0.16)">
      <defs>
       <path id="Arial-BoldMT-45" d="M 466 0 
L 466 4581 
L 3863 4581 
L 3863 3806 
L 1391 3806 
L 1391 2791 
L 3691 2791 
L 3691 2019 
L 1391 2019 
L 1391 772 
L 3950 772 
L 3950 0 
L 466 0 
z
" transform="scale(0.015625)"/>
       <path id="Arial-BoldMT-78" d="M 38 0 
L 1234 1709 
L 88 3319 
L 1159 3319 
L 1747 2406 
L 2366 3319 
L 3397 3319 
L 2272 1747 
L 3500 0 
L 2422 0 
L 1747 1028 
L 1066 0 
L 38 0 
z
" transform="scale(0.015625)"/>
       <path id="Arial-BoldMT-70" d="M 434 3319 
L 1253 3319 
L 1253 2831 
Q 1413 3081 1684 3237 
Q 1956 3394 2288 3394 
Q 2866 3394 3269 2941 
Q 3672 2488 3672 1678 
Q 3672 847 3265 386 
Q 2859 -75 2281 -75 
Q 2006 -75 1782 34 
Q 1559 144 1313 409 
L 1313 -1263 
L 434 -1263 
L 434 3319 
z
M 1303 1716 
Q 1303 1156 1525 889 
Q 1747 622 2066 622 
Q 2372 622 2575 867 
Q 2778 1113 2778 1672 
Q 2778 2194 2568 2447 
Q 2359 2700 2050 2700 
Q 1728 2700 1515 2451 
Q 1303 2203 1303 1716 
z
" transform="scale(0.015625)"/>
       <path id="Arial-BoldMT-6f" d="M 256 1706 
Q 256 2144 472 2553 
Q 688 2963 1083 3178 
Q 1478 3394 1966 3394 
Q 2719 3394 3200 2905 
Q 3681 2416 3681 1669 
Q 3681 916 3195 420 
Q 2709 -75 1972 -75 
Q 1516 -75 1102 131 
Q 688 338 472 736 
Q 256 1134 256 1706 
z
M 1156 1659 
Q 1156 1166 1390 903 
Q 1625 641 1969 641 
Q 2313 641 2545 903 
Q 2778 1166 2778 1666 
Q 2778 2153 2545 2415 
Q 2313 2678 1969 2678 
Q 1625 2678 1390 2415 
Q 1156 2153 1156 1659 
z
" transform="scale(0.015625)"/>
       <path id="Arial-BoldMT-6c" d="M 459 0 
L 459 4581 
L 1338 4581 
L 1338 0 
L 459 0 
z
" transform="scale(0.015625)"/>
       <path id="Arial-BoldMT-41" d="M 4597 0 
L 3591 0 
L 3191 1041 
L 1359 1041 
L 981 0 
L 0 0 
L 1784 4581 
L 2763 4581 
L 4597 0 
z
M 2894 1813 
L 2263 3513 
L 1644 1813 
L 2894 1813 
z
" transform="scale(0.015625)"/>
       <path id="Arial-BoldMT-75" d="M 2644 0 
L 2644 497 
Q 2463 231 2167 78 
Q 1872 -75 1544 -75 
Q 1209 -75 943 72 
Q 678 219 559 484 
Q 441 750 441 1219 
L 441 3319 
L 1319 3319 
L 1319 1794 
Q 1319 1094 1367 936 
Q 1416 778 1544 686 
Q 1672 594 1869 594 
Q 2094 594 2272 717 
Q 2450 841 2515 1023 
Q 2581 1206 2581 1919 
L 2581 3319 
L 3459 3319 
L 3459 0 
L 2644 0 
z
" transform="scale(0.015625)"/>
       <path id="Arial-BoldMT-67" d="M 378 -219 
L 1381 -341 
Q 1406 -516 1497 -581 
Q 1622 -675 1891 -675 
Q 2234 -675 2406 -572 
Q 2522 -503 2581 -350 
Q 2622 -241 2622 53 
L 2622 538 
Q 2228 0 1628 0 
Q 959 0 569 566 
Q 263 1013 263 1678 
Q 263 2513 664 2953 
Q 1066 3394 1663 3394 
Q 2278 3394 2678 2853 
L 2678 3319 
L 3500 3319 
L 3500 341 
Q 3500 -247 3403 -537 
Q 3306 -828 3131 -993 
Q 2956 -1159 2664 -1253 
Q 2372 -1347 1925 -1347 
Q 1081 -1347 728 -1058 
Q 375 -769 375 -325 
Q 375 -281 378 -219 
z
M 1163 1728 
Q 1163 1200 1367 954 
Q 1572 709 1872 709 
Q 2194 709 2416 961 
Q 2638 1213 2638 1706 
Q 2638 2222 2425 2472 
Q 2213 2722 1888 2722 
Q 1572 2722 1367 2476 
Q 1163 2231 1163 1728 
z
" transform="scale(0.015625)"/>
      </defs>
      <use xlink:href="#Arial-BoldMT-45"/>
      <use xlink:href="#Arial-BoldMT-78" x="66.699219"/>
      <use xlink:href="#Arial-BoldMT-70" x="122.314453"/>
      <use xlink:href="#Arial-BoldMT-6f" x="183.398438"/>
      <use xlink:href="#Arial-BoldMT-6e" x="244.482422"/>
      <use xlink:href="#Arial-BoldMT-65" x="305.566406"/>
      <use xlink:href="#Arial-BoldMT-6e" x="361.181641"/>
      <use xlink:href="#Arial-BoldMT-74" x="422.265625"/>
      <use xlink:href="#Arial-BoldMT-69" x="455.566406"/>
      <use xlink:href="#Arial-BoldMT-65" x="483.349609"/>
      <use xlink:href="#Arial-BoldMT-6c" x="538.964844"/>
      <use xlink:href="#Arial-BoldMT-6c" x="566.748047"/>
      <use xlink:href="#Arial-BoldMT-65" x="594.53125"/>
      <use xlink:href="#Arial-BoldMT-20" x="650.146484"/>
      <use xlink:href="#Arial-BoldMT-41" x="674.179688"/>
      <use xlink:href="#Arial-BoldMT-6e" x="746.396484"/>
      <use xlink:href="#Arial-BoldMT-70" x="807.480469"/>
      <use xlink:href="#Arial-BoldMT-61" x="868.564453"/>
      <use xlink:href="#Arial-BoldMT-73" x="924.179688"/>
      <use xlink:href="#Arial-BoldMT-73" x="979.794922"/>
      <use xlink:href="#Arial-BoldMT-75" x="1035.410156"/>
      <use xlink:href="#Arial-BoldMT-6e" x="1096.494141"/>
      <use xlink:href="#Arial-BoldMT-67" x="1157.578125"/>
     </g>
    </g>
    <g id="LineCollection_2">
     <path d="M 120.4 177.3625 
L 120.4 161.3625 
" style="fill: none; stroke: #00008b; stroke-width: 2"/>
    </g>
    <g id="line2d_27">
     <path d="M 104.4 169.3625 
L 136.4 169.3625 
" style="fill: none; stroke-dasharray: 12.8,3.2,2,3.2; stroke-dashoffset: 0; stroke: #00008b; stroke-width: 2"/>
    </g>
    <g id="line2d_28">
     <g>
      <use xlink:href="#m3373b89776" x="120.4" y="169.3625" style="fill: #00008b; stroke: #00008b"/>
     </g>
    </g>
    <g id="text_10">
     <!-- Gain mit Unsicherheiten -->
     <g transform="translate(149.2 174.9625) scale(0.16 -0.16)">
      <defs>
       <path id="Arial-BoldMT-6d" d="M 394 3319 
L 1203 3319 
L 1203 2866 
Q 1638 3394 2238 3394 
Q 2556 3394 2790 3262 
Q 3025 3131 3175 2866 
Q 3394 3131 3647 3262 
Q 3900 3394 4188 3394 
Q 4553 3394 4806 3245 
Q 5059 3097 5184 2809 
Q 5275 2597 5275 2122 
L 5275 0 
L 4397 0 
L 4397 1897 
Q 4397 2391 4306 2534 
Q 4184 2722 3931 2722 
Q 3747 2722 3584 2609 
Q 3422 2497 3350 2280 
Q 3278 2063 3278 1594 
L 3278 0 
L 2400 0 
L 2400 1819 
Q 2400 2303 2353 2443 
Q 2306 2584 2207 2653 
Q 2109 2722 1941 2722 
Q 1738 2722 1575 2612 
Q 1413 2503 1342 2297 
Q 1272 2091 1272 1613 
L 1272 0 
L 394 0 
L 394 3319 
z
" transform="scale(0.015625)"/>
      </defs>
      <use xlink:href="#Arial-BoldMT-47"/>
      <use xlink:href="#Arial-BoldMT-61" x="77.783203"/>
      <use xlink:href="#Arial-BoldMT-69" x="133.398438"/>
      <use xlink:href="#Arial-BoldMT-6e" x="161.181641"/>
      <use xlink:href="#Arial-BoldMT-20" x="222.265625"/>
      <use xlink:href="#Arial-BoldMT-6d" x="250.048828"/>
      <use xlink:href="#Arial-BoldMT-69" x="338.964844"/>
      <use xlink:href="#Arial-BoldMT-74" x="366.748047"/>
      <use xlink:href="#Arial-BoldMT-20" x="400.048828"/>
      <use xlink:href="#Arial-BoldMT-55" x="427.832031"/>
      <use xlink:href="#Arial-BoldMT-6e" x="500.048828"/>
      <use xlink:href="#Arial-BoldMT-73" x="561.132812"/>
      <use xlink:href="#Arial-BoldMT-69" x="616.748047"/>
      <use xlink:href="#Arial-BoldMT-63" x="644.53125"/>
      <use xlink:href="#Arial-BoldMT-68" x="700.146484"/>
      <use xlink:href="#Arial-BoldMT-65" x="761.230469"/>
      <use xlink:href="#Arial-BoldMT-72" x="816.845703"/>
      <use xlink:href="#Arial-BoldMT-68" x="855.761719"/>
      <use xlink:href="#Arial-BoldMT-65" x="916.845703"/>
      <use xlink:href="#Arial-BoldMT-69" x="972.460938"/>
      <use xlink:href="#Arial-BoldMT-74" x="1000.244141"/>
      <use xlink:href="#Arial-BoldMT-65" x="1033.544922"/>
      <use xlink:href="#Arial-BoldMT-6e" x="1089.160156"/>
     </g>
    </g>
   </g>
  </g>
  <g id="axes_2">
   <g id="patch_9">
    <path d="M 90 583.072941 
L 648 583.072941 
L 648 436.32 
L 90 436.32 
z
" style="fill: #ffffff"/>
   </g>
   <g id="PathCollection_1">
    <defs>
     <path id="m6a9bf378c3" d="M 0 3 
C 0.795609 3 1.55874 2.683901 2.12132 2.12132 
C 2.683901 1.55874 3 0.795609 3 0 
C 3 -0.795609 2.683901 -1.55874 2.12132 -2.12132 
C 1.55874 -2.683901 0.795609 -3 0 -3 
C -0.795609 -3 -1.55874 -2.683901 -2.12132 -2.12132 
C -2.683901 -1.55874 -3 -0.795609 -3 0 
C -3 0.795609 -2.683901 1.55874 -2.12132 2.12132 
C -1.55874 2.683901 -0.795609 3 0 3 
z
" style="stroke: #800000"/>
    </defs>
    <g clip-path="url(#p8327caea89)">
     <use xlink:href="#m6a9bf378c3" x="115.363636" y="576.402353" style="fill: #800000; stroke: #800000"/>
     <use xlink:href="#m6a9bf378c3" x="193.405594" y="558.297466" style="fill: #800000; stroke: #800000"/>
     <use xlink:href="#m6a9bf378c3" x="271.447552" y="546.929811" style="fill: #800000; stroke: #800000"/>
     <use xlink:href="#m6a9bf378c3" x="349.48951" y="515.293388" style="fill: #800000; stroke: #800000"/>
     <use xlink:href="#m6a9bf378c3" x="427.531469" y="485.065965" style="fill: #800000; stroke: #800000"/>
     <use xlink:href="#m6a9bf378c3" x="515.328671" y="446.509536" style="fill: #800000; stroke: #800000"/>
     <use xlink:href="#m6a9bf378c3" x="603.125874" y="442.990588" style="fill: #800000; stroke: #800000"/>
    </g>
   </g>
   <g id="matplotlib.axis_3">
    <g id="xtick_7">
     <g id="line2d_29">
      <path d="M 115.363636 583.072941 
L 115.363636 436.32 
" clip-path="url(#p8327caea89)" style="fill: none; stroke: #b0b0b0; stroke-width: 0.8; stroke-linecap: square"/>
     </g>
     <g id="line2d_30">
      <g>
       <use xlink:href="#mf08c37608a" x="115.363636" y="583.072941" style="stroke: #000000; stroke-width: 0.8"/>
      </g>
     </g>
    </g>
    <g id="xtick_8">
     <g id="line2d_31">
      <path d="M 212.916084 583.072941 
L 212.916084 436.32 
" clip-path="url(#p8327caea89)" style="fill: none; stroke: #b0b0b0; stroke-width: 0.8; stroke-linecap: square"/>
     </g>
     <g id="line2d_32">
      <g>
       <use xlink:href="#mf08c37608a" x="212.916084" y="583.072941" style="stroke: #000000; stroke-width: 0.8"/>
      </g>
     </g>
    </g>
    <g id="xtick_9">
     <g id="line2d_33">
      <path d="M 310.468531 583.072941 
L 310.468531 436.32 
" clip-path="url(#p8327caea89)" style="fill: none; stroke: #b0b0b0; stroke-width: 0.8; stroke-linecap: square"/>
     </g>
     <g id="line2d_34">
      <g>
       <use xlink:href="#mf08c37608a" x="310.468531" y="583.072941" style="stroke: #000000; stroke-width: 0.8"/>
      </g>
     </g>
    </g>
    <g id="xtick_10">
     <g id="line2d_35">
      <path d="M 408.020979 583.072941 
L 408.020979 436.32 
" clip-path="url(#p8327caea89)" style="fill: none; stroke: #b0b0b0; stroke-width: 0.8; stroke-linecap: square"/>
     </g>
     <g id="line2d_36">
      <g>
       <use xlink:href="#mf08c37608a" x="408.020979" y="583.072941" style="stroke: #000000; stroke-width: 0.8"/>
      </g>
     </g>
    </g>
    <g id="xtick_11">
     <g id="line2d_37">
      <path d="M 505.573427 583.072941 
L 505.573427 436.32 
" clip-path="url(#p8327caea89)" style="fill: none; stroke: #b0b0b0; stroke-width: 0.8; stroke-linecap: square"/>
     </g>
     <g id="line2d_38">
      <g>
       <use xlink:href="#mf08c37608a" x="505.573427" y="583.072941" style="stroke: #000000; stroke-width: 0.8"/>
      </g>
     </g>
    </g>
    <g id="xtick_12">
     <g id="line2d_39">
      <path d="M 603.125874 583.072941 
L 603.125874 436.32 
" clip-path="url(#p8327caea89)" style="fill: none; stroke: #b0b0b0; stroke-width: 0.8; stroke-linecap: square"/>
     </g>
     <g id="line2d_40">
      <g>
       <use xlink:href="#mf08c37608a" x="603.125874" y="583.072941" style="stroke: #000000; stroke-width: 0.8"/>
      </g>
     </g>
    </g>
   </g>
   <g id="matplotlib.axis_4">
    <g id="ytick_6">
     <g id="line2d_41">
      <path d="M 90 545.925399 
L 648 545.925399 
" clip-path="url(#p8327caea89)" style="fill: none; stroke: #b0b0b0; stroke-width: 0.8; stroke-linecap: square"/>
     </g>
     <g id="line2d_42">
      <g>
       <use xlink:href="#mc4ff6462a2" x="90" y="545.925399" style="stroke: #000000; stroke-width: 0.8"/>
      </g>
     </g>
     <g id="text_11">
      <!-- 20 -->
      <g transform="translate(65.205 551.651649) scale(0.16 -0.16)">
       <use xlink:href="#Arial-BoldMT-32"/>
       <use xlink:href="#Arial-BoldMT-30" x="55.615234"/>
      </g>
     </g>
    </g>
    <g id="ytick_7">
     <g id="line2d_43">
      <path d="M 90 506.670002 
L 648 506.670002 
" clip-path="url(#p8327caea89)" style="fill: none; stroke: #b0b0b0; stroke-width: 0.8; stroke-linecap: square"/>
     </g>
     <g id="line2d_44">
      <g>
       <use xlink:href="#mc4ff6462a2" x="90" y="506.670002" style="stroke: #000000; stroke-width: 0.8"/>
      </g>
     </g>
     <g id="text_12">
      <!-- 30 -->
      <g transform="translate(65.205 512.396252) scale(0.16 -0.16)">
       <defs>
        <path id="Arial-BoldMT-33" d="M 241 1216 
L 1091 1319 
Q 1131 994 1309 822 
Q 1488 650 1741 650 
Q 2013 650 2198 856 
Q 2384 1063 2384 1413 
Q 2384 1744 2206 1937 
Q 2028 2131 1772 2131 
Q 1603 2131 1369 2066 
L 1466 2781 
Q 1822 2772 2009 2936 
Q 2197 3100 2197 3372 
Q 2197 3603 2059 3740 
Q 1922 3878 1694 3878 
Q 1469 3878 1309 3722 
Q 1150 3566 1116 3266 
L 306 3403 
Q 391 3819 561 4067 
Q 731 4316 1036 4458 
Q 1341 4600 1719 4600 
Q 2366 4600 2756 4188 
Q 3078 3850 3078 3425 
Q 3078 2822 2419 2463 
Q 2813 2378 3048 2084 
Q 3284 1791 3284 1375 
Q 3284 772 2843 347 
Q 2403 -78 1747 -78 
Q 1125 -78 715 280 
Q 306 638 241 1216 
z
" transform="scale(0.015625)"/>
       </defs>
       <use xlink:href="#Arial-BoldMT-33"/>
       <use xlink:href="#Arial-BoldMT-30" x="55.615234"/>
      </g>
     </g>
    </g>
    <g id="ytick_8">
     <g id="line2d_45">
      <path d="M 90 467.414604 
L 648 467.414604 
" clip-path="url(#p8327caea89)" style="fill: none; stroke: #b0b0b0; stroke-width: 0.8; stroke-linecap: square"/>
     </g>
     <g id="line2d_46">
      <g>
       <use xlink:href="#mc4ff6462a2" x="90" y="467.414604" style="stroke: #000000; stroke-width: 0.8"/>
      </g>
     </g>
     <g id="text_13">
      <!-- 40 -->
      <g transform="translate(65.205 473.140854) scale(0.16 -0.16)">
       <defs>
        <path id="Arial-BoldMT-34" d="M 1994 0 
L 1994 922 
L 119 922 
L 119 1691 
L 2106 4600 
L 2844 4600 
L 2844 1694 
L 3413 1694 
L 3413 922 
L 2844 922 
L 2844 0 
L 1994 0 
z
M 1994 1694 
L 1994 3259 
L 941 1694 
L 1994 1694 
z
" transform="scale(0.015625)"/>
       </defs>
       <use xlink:href="#Arial-BoldMT-34"/>
       <use xlink:href="#Arial-BoldMT-30" x="55.615234"/>
      </g>
     </g>
    </g>
    <g id="text_14">
     <!-- Rel. Fehler I [%] -->
     <g transform="translate(57.9775 569.705221) rotate(-90) scale(0.16 -0.16)">
      <defs>
       <path id="Arial-BoldMT-52" d="M 469 0 
L 469 4581 
L 2416 4581 
Q 3150 4581 3483 4457 
Q 3816 4334 4016 4018 
Q 4216 3703 4216 3297 
Q 4216 2781 3912 2445 
Q 3609 2109 3006 2022 
Q 3306 1847 3501 1637 
Q 3697 1428 4028 894 
L 4588 0 
L 3481 0 
L 2813 997 
Q 2456 1531 2325 1670 
Q 2194 1809 2047 1861 
Q 1900 1913 1581 1913 
L 1394 1913 
L 1394 0 
L 469 0 
z
M 1394 2644 
L 2078 2644 
Q 2744 2644 2909 2700 
Q 3075 2756 3169 2893 
Q 3263 3031 3263 3238 
Q 3263 3469 3139 3611 
Q 3016 3753 2791 3791 
Q 2678 3806 2116 3806 
L 1394 3806 
L 1394 2644 
z
" transform="scale(0.015625)"/>
       <path id="Arial-BoldMT-2e" d="M 459 0 
L 459 878 
L 1338 878 
L 1338 0 
L 459 0 
z
" transform="scale(0.015625)"/>
       <path id="Arial-BoldMT-46" d="M 472 0 
L 472 4581 
L 3613 4581 
L 3613 3806 
L 1397 3806 
L 1397 2722 
L 3309 2722 
L 3309 1947 
L 1397 1947 
L 1397 0 
L 472 0 
z
" transform="scale(0.015625)"/>
       <path id="Arial-BoldMT-49" d="M 438 0 
L 438 4581 
L 1363 4581 
L 1363 0 
L 438 0 
z
" transform="scale(0.015625)"/>
       <path id="Arial-BoldMT-5b" d="M 456 -1291 
L 456 4581 
L 2013 4581 
L 2013 3891 
L 1291 3891 
L 1291 -600 
L 2013 -600 
L 2013 -1291 
L 456 -1291 
z
" transform="scale(0.015625)"/>
       <path id="Arial-BoldMT-25" d="M 278 3450 
Q 278 4066 548 4362 
Q 819 4659 1281 4659 
Q 1759 4659 2029 4364 
Q 2300 4069 2300 3450 
Q 2300 2834 2029 2537 
Q 1759 2241 1297 2241 
Q 819 2241 548 2536 
Q 278 2831 278 3450 
z
M 963 3456 
Q 963 3009 1066 2856 
Q 1144 2744 1281 2744 
Q 1422 2744 1500 2856 
Q 1600 3009 1600 3456 
Q 1600 3903 1500 4053 
Q 1422 4169 1281 4169 
Q 1144 4169 1066 4056 
Q 963 3903 963 3456 
z
M 1950 -175 
L 1300 -175 
L 3741 4659 
L 4372 4659 
L 1950 -175 
z
M 3369 1028 
Q 3369 1644 3639 1941 
Q 3909 2238 4378 2238 
Q 4850 2238 5120 1941 
Q 5391 1644 5391 1028 
Q 5391 409 5120 112 
Q 4850 -184 4388 -184 
Q 3909 -184 3639 112 
Q 3369 409 3369 1028 
z
M 4053 1031 
Q 4053 584 4156 434 
Q 4234 319 4372 319 
Q 4513 319 4588 431 
Q 4691 584 4691 1031 
Q 4691 1478 4591 1631 
Q 4513 1744 4372 1744 
Q 4231 1744 4156 1631 
Q 4053 1478 4053 1031 
z
" transform="scale(0.015625)"/>
       <path id="Arial-BoldMT-5d" d="M 1675 4581 
L 1675 -1291 
L 119 -1291 
L 119 -600 
L 841 -600 
L 841 3897 
L 119 3897 
L 119 4581 
L 1675 4581 
z
" transform="scale(0.015625)"/>
      </defs>
      <use xlink:href="#Arial-BoldMT-52"/>
      <use xlink:href="#Arial-BoldMT-65" x="72.216797"/>
      <use xlink:href="#Arial-BoldMT-6c" x="127.832031"/>
      <use xlink:href="#Arial-BoldMT-2e" x="155.615234"/>
      <use xlink:href="#Arial-BoldMT-20" x="183.398438"/>
      <use xlink:href="#Arial-BoldMT-46" x="211.181641"/>
      <use xlink:href="#Arial-BoldMT-65" x="272.265625"/>
      <use xlink:href="#Arial-BoldMT-68" x="327.880859"/>
      <use xlink:href="#Arial-BoldMT-6c" x="388.964844"/>
      <use xlink:href="#Arial-BoldMT-65" x="416.748047"/>
      <use xlink:href="#Arial-BoldMT-72" x="472.363281"/>
      <use xlink:href="#Arial-BoldMT-20" x="511.279297"/>
      <use xlink:href="#Arial-BoldMT-49" x="539.0625"/>
      <use xlink:href="#Arial-BoldMT-20" x="566.845703"/>
      <use xlink:href="#Arial-BoldMT-5b" x="594.628906"/>
      <use xlink:href="#Arial-BoldMT-25" x="627.929688"/>
      <use xlink:href="#Arial-BoldMT-5d" x="716.845703"/>
     </g>
    </g>
   </g>
   <g id="patch_10">
    <path d="M 90 583.072941 
L 90 436.32 
" style="fill: none; stroke: #000000; stroke-width: 1.2; stroke-linejoin: miter; stroke-linecap: square"/>
   </g>
   <g id="patch_11">
    <path d="M 648 583.072941 
L 648 436.32 
" style="fill: none; stroke: #000000; stroke-width: 1.2; stroke-linejoin: miter; stroke-linecap: square"/>
   </g>
   <g id="patch_12">
    <path d="M 90 583.072941 
L 648 583.072941 
" style="fill: none; stroke: #000000; stroke-width: 1.2; stroke-linejoin: miter; stroke-linecap: square"/>
   </g>
   <g id="patch_13">
    <path d="M 90 436.32 
L 648 436.32 
" style="fill: none; stroke: #000000; stroke-width: 1.2; stroke-linejoin: miter; stroke-linecap: square"/>
   </g>
   <g id="legend_2">
    <g id="patch_14">
     <path d="M 101.2 472.135 
L 371.99 472.135 
Q 375.19 472.135 375.19 468.935 
L 375.19 447.52 
Q 375.19 444.32 371.99 444.32 
L 101.2 444.32 
Q 98 444.32 98 447.52 
L 98 468.935 
Q 98 472.135 101.2 472.135 
z
" style="fill: #ffffff; opacity: 0.8; stroke: #cccccc; stroke-linejoin: miter"/>
    </g>
    <g id="PathCollection_2">
     <g>
      <use xlink:href="#m6a9bf378c3" x="120.4" y="458.1675" style="fill: #800000; stroke: #800000"/>
     </g>
    </g>
    <g id="text_15">
     <!-- Rel. Fehler Strom (Quelle an) -->
     <g transform="translate(149.2 462.3675) scale(0.16 -0.16)">
      <defs>
       <path id="Arial-BoldMT-53" d="M 231 1491 
L 1131 1578 
Q 1213 1125 1461 912 
Q 1709 700 2131 700 
Q 2578 700 2804 889 
Q 3031 1078 3031 1331 
Q 3031 1494 2936 1608 
Q 2841 1722 2603 1806 
Q 2441 1863 1863 2006 
Q 1119 2191 819 2459 
Q 397 2838 397 3381 
Q 397 3731 595 4036 
Q 794 4341 1167 4500 
Q 1541 4659 2069 4659 
Q 2931 4659 3367 4281 
Q 3803 3903 3825 3272 
L 2900 3231 
Q 2841 3584 2645 3739 
Q 2450 3894 2059 3894 
Q 1656 3894 1428 3728 
Q 1281 3622 1281 3444 
Q 1281 3281 1419 3166 
Q 1594 3019 2269 2859 
Q 2944 2700 3267 2529 
Q 3591 2359 3773 2064 
Q 3956 1769 3956 1334 
Q 3956 941 3737 597 
Q 3519 253 3119 86 
Q 2719 -81 2122 -81 
Q 1253 -81 787 320 
Q 322 722 231 1491 
z
" transform="scale(0.015625)"/>
       <path id="Arial-BoldMT-28" d="M 1916 -1347 
L 1313 -1347 
Q 834 -625 584 153 
Q 334 931 334 1659 
Q 334 2563 644 3369 
Q 913 4069 1325 4659 
L 1925 4659 
Q 1497 3713 1336 3048 
Q 1175 2384 1175 1641 
Q 1175 1128 1270 590 
Q 1366 53 1531 -431 
Q 1641 -750 1916 -1347 
z
" transform="scale(0.015625)"/>
       <path id="Arial-BoldMT-51" d="M 4153 581 
Q 4494 338 4894 194 
L 4553 -459 
Q 4344 -397 4144 -288 
Q 4100 -266 3528 119 
Q 3078 -78 2531 -78 
Q 1475 -78 876 544 
Q 278 1166 278 2291 
Q 278 3413 878 4036 
Q 1478 4659 2506 4659 
Q 3525 4659 4122 4036 
Q 4719 3413 4719 2291 
Q 4719 1697 4553 1247 
Q 4428 903 4153 581 
z
M 3409 1103 
Q 3588 1313 3677 1609 
Q 3766 1906 3766 2291 
Q 3766 3084 3416 3476 
Q 3066 3869 2500 3869 
Q 1934 3869 1582 3475 
Q 1231 3081 1231 2291 
Q 1231 1488 1582 1089 
Q 1934 691 2472 691 
Q 2672 691 2850 756 
Q 2569 941 2278 1044 
L 2538 1572 
Q 2994 1416 3409 1103 
z
" transform="scale(0.015625)"/>
       <path id="Arial-BoldMT-29" d="M 216 -1347 
Q 475 -791 581 -494 
Q 688 -197 778 190 
Q 869 578 912 926 
Q 956 1275 956 1641 
Q 956 2384 797 3048 
Q 638 3713 209 4659 
L 806 4659 
Q 1278 3988 1539 3234 
Q 1800 2481 1800 1706 
Q 1800 1053 1594 306 
Q 1359 -531 822 -1347 
L 216 -1347 
z
" transform="scale(0.015625)"/>
      </defs>
      <use xlink:href="#Arial-BoldMT-52"/>
      <use xlink:href="#Arial-BoldMT-65" x="72.216797"/>
      <use xlink:href="#Arial-BoldMT-6c" x="127.832031"/>
      <use xlink:href="#Arial-BoldMT-2e" x="155.615234"/>
      <use xlink:href="#Arial-BoldMT-20" x="183.398438"/>
      <use xlink:href="#Arial-BoldMT-46" x="211.181641"/>
      <use xlink:href="#Arial-BoldMT-65" x="272.265625"/>
      <use xlink:href="#Arial-BoldMT-68" x="327.880859"/>
      <use xlink:href="#Arial-BoldMT-6c" x="388.964844"/>
      <use xlink:href="#Arial-BoldMT-65" x="416.748047"/>
      <use xlink:href="#Arial-BoldMT-72" x="472.363281"/>
      <use xlink:href="#Arial-BoldMT-20" x="511.279297"/>
      <use xlink:href="#Arial-BoldMT-53" x="539.0625"/>
      <use xlink:href="#Arial-BoldMT-74" x="605.761719"/>
      <use xlink:href="#Arial-BoldMT-72" x="639.0625"/>
      <use xlink:href="#Arial-BoldMT-6f" x="677.978516"/>
      <use xlink:href="#Arial-BoldMT-6d" x="739.0625"/>
      <use xlink:href="#Arial-BoldMT-20" x="827.978516"/>
      <use xlink:href="#Arial-BoldMT-28" x="855.761719"/>
      <use xlink:href="#Arial-BoldMT-51" x="889.0625"/>
      <use xlink:href="#Arial-BoldMT-75" x="966.845703"/>
      <use xlink:href="#Arial-BoldMT-65" x="1027.929688"/>
      <use xlink:href="#Arial-BoldMT-6c" x="1083.544922"/>
      <use xlink:href="#Arial-BoldMT-6c" x="1111.328125"/>
      <use xlink:href="#Arial-BoldMT-65" x="1139.111328"/>
      <use xlink:href="#Arial-BoldMT-20" x="1194.726562"/>
      <use xlink:href="#Arial-BoldMT-61" x="1222.509766"/>
      <use xlink:href="#Arial-BoldMT-6e" x="1278.125"/>
      <use xlink:href="#Arial-BoldMT-29" x="1339.208984"/>
     </g>
    </g>
   </g>
  </g>
  <g id="axes_3">
   <g id="patch_15">
    <path d="M 90 768.96 
L 648 768.96 
L 648 622.207059 
L 90 622.207059 
z
" style="fill: #ffffff"/>
   </g>
   <g id="PathCollection_3">
    <g clip-path="url(#p92d9ac2963)">
     <use xlink:href="#m6a9bf378c3" x="115.363636" y="709.467348" style="fill: #800000; stroke: #800000"/>
     <use xlink:href="#m6a9bf378c3" x="193.405594" y="734.227016" style="fill: #800000; stroke: #800000"/>
     <use xlink:href="#m6a9bf378c3" x="271.447552" y="762.289412" style="fill: #800000; stroke: #800000"/>
     <use xlink:href="#m6a9bf378c3" x="349.48951" y="720.112384" style="fill: #800000; stroke: #800000"/>
     <use xlink:href="#m6a9bf378c3" x="427.531469" y="694.618796" style="fill: #800000; stroke: #800000"/>
     <use xlink:href="#m6a9bf378c3" x="515.328671" y="713.696049" style="fill: #800000; stroke: #800000"/>
     <use xlink:href="#m6a9bf378c3" x="603.125874" y="628.877647" style="fill: #800000; stroke: #800000"/>
    </g>
   </g>
   <g id="matplotlib.axis_5">
    <g id="xtick_13">
     <g id="line2d_47">
      <path d="M 115.363636 768.96 
L 115.363636 622.207059 
" clip-path="url(#p92d9ac2963)" style="fill: none; stroke: #b0b0b0; stroke-width: 0.8; stroke-linecap: square"/>
     </g>
     <g id="line2d_48">
      <g>
       <use xlink:href="#mf08c37608a" x="115.363636" y="768.96" style="stroke: #000000; stroke-width: 0.8"/>
      </g>
     </g>
     <g id="text_16">
      <!-- 2800 -->
      <g transform="translate(97.568636 787.4125) scale(0.16 -0.16)">
       <defs>
        <path id="Arial-BoldMT-38" d="M 1025 2472 
Q 684 2616 529 2867 
Q 375 3119 375 3419 
Q 375 3931 733 4265 
Q 1091 4600 1750 4600 
Q 2403 4600 2764 4265 
Q 3125 3931 3125 3419 
Q 3125 3100 2959 2851 
Q 2794 2603 2494 2472 
Q 2875 2319 3073 2025 
Q 3272 1731 3272 1347 
Q 3272 713 2867 316 
Q 2463 -81 1791 -81 
Q 1166 -81 750 247 
Q 259 634 259 1309 
Q 259 1681 443 1992 
Q 628 2303 1025 2472 
z
M 1206 3356 
Q 1206 3094 1354 2947 
Q 1503 2800 1750 2800 
Q 2000 2800 2150 2948 
Q 2300 3097 2300 3359 
Q 2300 3606 2151 3754 
Q 2003 3903 1759 3903 
Q 1506 3903 1356 3753 
Q 1206 3603 1206 3356 
z
M 1125 1394 
Q 1125 1031 1311 828 
Q 1497 625 1775 625 
Q 2047 625 2225 820 
Q 2403 1016 2403 1384 
Q 2403 1706 2222 1901 
Q 2041 2097 1763 2097 
Q 1441 2097 1283 1875 
Q 1125 1653 1125 1394 
z
" transform="scale(0.015625)"/>
       </defs>
       <use xlink:href="#Arial-BoldMT-32"/>
       <use xlink:href="#Arial-BoldMT-38" x="55.615234"/>
       <use xlink:href="#Arial-BoldMT-30" x="111.230469"/>
       <use xlink:href="#Arial-BoldMT-30" x="166.845703"/>
      </g>
     </g>
    </g>
    <g id="xtick_14">
     <g id="line2d_49">
      <path d="M 212.916084 768.96 
L 212.916084 622.207059 
" clip-path="url(#p92d9ac2963)" style="fill: none; stroke: #b0b0b0; stroke-width: 0.8; stroke-linecap: square"/>
     </g>
     <g id="line2d_50">
      <g>
       <use xlink:href="#mf08c37608a" x="212.916084" y="768.96" style="stroke: #000000; stroke-width: 0.8"/>
      </g>
     </g>
     <g id="text_17">
      <!-- 2900 -->
      <g transform="translate(195.121084 787.4125) scale(0.16 -0.16)">
       <defs>
        <path id="Arial-BoldMT-39" d="M 291 1059 
L 1141 1153 
Q 1172 894 1303 769 
Q 1434 644 1650 644 
Q 1922 644 2112 894 
Q 2303 1144 2356 1931 
Q 2025 1547 1528 1547 
Q 988 1547 595 1964 
Q 203 2381 203 3050 
Q 203 3747 617 4173 
Q 1031 4600 1672 4600 
Q 2369 4600 2816 4061 
Q 3263 3522 3263 2288 
Q 3263 1031 2797 475 
Q 2331 -81 1584 -81 
Q 1047 -81 715 205 
Q 384 491 291 1059 
z
M 2278 2978 
Q 2278 3403 2083 3637 
Q 1888 3872 1631 3872 
Q 1388 3872 1227 3680 
Q 1066 3488 1066 3050 
Q 1066 2606 1241 2398 
Q 1416 2191 1678 2191 
Q 1931 2191 2104 2391 
Q 2278 2591 2278 2978 
z
" transform="scale(0.015625)"/>
       </defs>
       <use xlink:href="#Arial-BoldMT-32"/>
       <use xlink:href="#Arial-BoldMT-39" x="55.615234"/>
       <use xlink:href="#Arial-BoldMT-30" x="111.230469"/>
       <use xlink:href="#Arial-BoldMT-30" x="166.845703"/>
      </g>
     </g>
    </g>
    <g id="xtick_15">
     <g id="line2d_51">
      <path d="M 310.468531 768.96 
L 310.468531 622.207059 
" clip-path="url(#p92d9ac2963)" style="fill: none; stroke: #b0b0b0; stroke-width: 0.8; stroke-linecap: square"/>
     </g>
     <g id="line2d_52">
      <g>
       <use xlink:href="#mf08c37608a" x="310.468531" y="768.96" style="stroke: #000000; stroke-width: 0.8"/>
      </g>
     </g>
     <g id="text_18">
      <!-- 3000 -->
      <g transform="translate(292.673531 787.4125) scale(0.16 -0.16)">
       <use xlink:href="#Arial-BoldMT-33"/>
       <use xlink:href="#Arial-BoldMT-30" x="55.615234"/>
       <use xlink:href="#Arial-BoldMT-30" x="111.230469"/>
       <use xlink:href="#Arial-BoldMT-30" x="166.845703"/>
      </g>
     </g>
    </g>
    <g id="xtick_16">
     <g id="line2d_53">
      <path d="M 408.020979 768.96 
L 408.020979 622.207059 
" clip-path="url(#p92d9ac2963)" style="fill: none; stroke: #b0b0b0; stroke-width: 0.8; stroke-linecap: square"/>
     </g>
     <g id="line2d_54">
      <g>
       <use xlink:href="#mf08c37608a" x="408.020979" y="768.96" style="stroke: #000000; stroke-width: 0.8"/>
      </g>
     </g>
     <g id="text_19">
      <!-- 3100 -->
      <g transform="translate(390.225979 787.4125) scale(0.16 -0.16)">
       <use xlink:href="#Arial-BoldMT-33"/>
       <use xlink:href="#Arial-BoldMT-31" x="55.615234"/>
       <use xlink:href="#Arial-BoldMT-30" x="111.230469"/>
       <use xlink:href="#Arial-BoldMT-30" x="166.845703"/>
      </g>
     </g>
    </g>
    <g id="xtick_17">
     <g id="line2d_55">
      <path d="M 505.573427 768.96 
L 505.573427 622.207059 
" clip-path="url(#p92d9ac2963)" style="fill: none; stroke: #b0b0b0; stroke-width: 0.8; stroke-linecap: square"/>
     </g>
     <g id="line2d_56">
      <g>
       <use xlink:href="#mf08c37608a" x="505.573427" y="768.96" style="stroke: #000000; stroke-width: 0.8"/>
      </g>
     </g>
     <g id="text_20">
      <!-- 3200 -->
      <g transform="translate(487.778427 787.4125) scale(0.16 -0.16)">
       <use xlink:href="#Arial-BoldMT-33"/>
       <use xlink:href="#Arial-BoldMT-32" x="55.615234"/>
       <use xlink:href="#Arial-BoldMT-30" x="111.230469"/>
       <use xlink:href="#Arial-BoldMT-30" x="166.845703"/>
      </g>
     </g>
    </g>
    <g id="xtick_18">
     <g id="line2d_57">
      <path d="M 603.125874 768.96 
L 603.125874 622.207059 
" clip-path="url(#p92d9ac2963)" style="fill: none; stroke: #b0b0b0; stroke-width: 0.8; stroke-linecap: square"/>
     </g>
     <g id="line2d_58">
      <g>
       <use xlink:href="#mf08c37608a" x="603.125874" y="768.96" style="stroke: #000000; stroke-width: 0.8"/>
      </g>
     </g>
     <g id="text_21">
      <!-- 3300 -->
      <g transform="translate(585.330874 787.4125) scale(0.16 -0.16)">
       <use xlink:href="#Arial-BoldMT-33"/>
       <use xlink:href="#Arial-BoldMT-33" x="55.615234"/>
       <use xlink:href="#Arial-BoldMT-30" x="111.230469"/>
       <use xlink:href="#Arial-BoldMT-30" x="166.845703"/>
      </g>
     </g>
    </g>
    <g id="text_22">
     <!-- Spannung $V_{Drift}$ [V] -->
     <g transform="translate(293.88 806.25) scale(0.16 -0.16)">
      <defs>
       <path id="Arial-BoldMT-56" d="M 1634 0 
L -3 4581 
L 1000 4581 
L 2159 1191 
L 3281 4581 
L 4263 4581 
L 2622 0 
L 1634 0 
z
" transform="scale(0.015625)"/>
      </defs>
      <use xlink:href="#Arial-BoldMT-53" transform="translate(0 0.09375)"/>
      <use xlink:href="#Arial-BoldMT-70" transform="translate(66.699219 0.09375)"/>
      <use xlink:href="#Arial-BoldMT-61" transform="translate(127.783203 0.09375)"/>
      <use xlink:href="#Arial-BoldMT-6e" transform="translate(183.398438 0.09375)"/>
      <use xlink:href="#Arial-BoldMT-6e" transform="translate(244.482422 0.09375)"/>
      <use xlink:href="#Arial-BoldMT-75" transform="translate(305.566406 0.09375)"/>
      <use xlink:href="#Arial-BoldMT-6e" transform="translate(366.650391 0.09375)"/>
      <use xlink:href="#Arial-BoldMT-67" transform="translate(427.734375 0.09375)"/>
      <use xlink:href="#Arial-BoldMT-20" transform="translate(488.818359 0.09375)"/>
      <use xlink:href="#DejaVuSans-BoldOblique-56" transform="translate(516.601562 0.09375)"/>
      <use xlink:href="#DejaVuSans-BoldOblique-44" transform="translate(593.994141 -16.3125) scale(0.7)"/>
      <use xlink:href="#DejaVuSans-BoldOblique-72" transform="translate(652.099609 -16.3125) scale(0.7)"/>
      <use xlink:href="#DejaVuSans-BoldOblique-69" transform="translate(686.621094 -16.3125) scale(0.7)"/>
      <use xlink:href="#DejaVuSans-BoldOblique-66" transform="translate(710.615234 -16.3125) scale(0.7)"/>
      <use xlink:href="#DejaVuSans-BoldOblique-74" transform="translate(741.069336 -16.3125) scale(0.7)"/>
      <use xlink:href="#Arial-BoldMT-20" transform="translate(777.265625 0.09375)"/>
      <use xlink:href="#Arial-BoldMT-5b" transform="translate(805.048828 0.09375)"/>
      <use xlink:href="#Arial-BoldMT-56" transform="translate(838.349609 0.09375)"/>
      <use xlink:href="#Arial-BoldMT-5d" transform="translate(905.048828 0.09375)"/>
     </g>
    </g>
   </g>
   <g id="matplotlib.axis_6">
    <g id="ytick_9">
     <g id="line2d_59">
      <path d="M 90 762.288264 
L 648 762.288264 
" clip-path="url(#p92d9ac2963)" style="fill: none; stroke: #b0b0b0; stroke-width: 0.8; stroke-linecap: square"/>
     </g>
     <g id="line2d_60">
      <g>
       <use xlink:href="#mc4ff6462a2" x="90" y="762.288264" style="stroke: #000000; stroke-width: 0.8"/>
      </g>
     </g>
     <g id="text_23">
      <!-- 6 -->
      <g transform="translate(74.1025 768.014514) scale(0.16 -0.16)">
       <defs>
        <path id="Arial-BoldMT-36" d="M 3247 3459 
L 2397 3366 
Q 2366 3628 2234 3753 
Q 2103 3878 1894 3878 
Q 1616 3878 1423 3628 
Q 1231 3378 1181 2588 
Q 1509 2975 1997 2975 
Q 2547 2975 2939 2556 
Q 3331 2138 3331 1475 
Q 3331 772 2918 347 
Q 2506 -78 1859 -78 
Q 1166 -78 719 461 
Q 272 1000 272 2228 
Q 272 3488 737 4044 
Q 1203 4600 1947 4600 
Q 2469 4600 2811 4308 
Q 3153 4016 3247 3459 
z
M 1256 1544 
Q 1256 1116 1453 883 
Q 1650 650 1903 650 
Q 2147 650 2309 840 
Q 2472 1031 2472 1466 
Q 2472 1913 2297 2120 
Q 2122 2328 1859 2328 
Q 1606 2328 1431 2129 
Q 1256 1931 1256 1544 
z
" transform="scale(0.015625)"/>
       </defs>
       <use xlink:href="#Arial-BoldMT-36"/>
      </g>
     </g>
    </g>
    <g id="ytick_10">
     <g id="line2d_61">
      <path d="M 90 725.401246 
L 648 725.401246 
" clip-path="url(#p92d9ac2963)" style="fill: none; stroke: #b0b0b0; stroke-width: 0.8; stroke-linecap: square"/>
     </g>
     <g id="line2d_62">
      <g>
       <use xlink:href="#mc4ff6462a2" x="90" y="725.401246" style="stroke: #000000; stroke-width: 0.8"/>
      </g>
     </g>
     <g id="text_24">
      <!-- 8 -->
      <g transform="translate(74.1025 731.127496) scale(0.16 -0.16)">
       <use xlink:href="#Arial-BoldMT-38"/>
      </g>
     </g>
    </g>
    <g id="ytick_11">
     <g id="line2d_63">
      <path d="M 90 688.514228 
L 648 688.514228 
" clip-path="url(#p92d9ac2963)" style="fill: none; stroke: #b0b0b0; stroke-width: 0.8; stroke-linecap: square"/>
     </g>
     <g id="line2d_64">
      <g>
       <use xlink:href="#mc4ff6462a2" x="90" y="688.514228" style="stroke: #000000; stroke-width: 0.8"/>
      </g>
     </g>
     <g id="text_25">
      <!-- 10 -->
      <g transform="translate(65.205 694.240478) scale(0.16 -0.16)">
       <use xlink:href="#Arial-BoldMT-31"/>
       <use xlink:href="#Arial-BoldMT-30" x="55.615234"/>
      </g>
     </g>
    </g>
    <g id="ytick_12">
     <g id="line2d_65">
      <path d="M 90 651.62721 
L 648 651.62721 
" clip-path="url(#p92d9ac2963)" style="fill: none; stroke: #b0b0b0; stroke-width: 0.8; stroke-linecap: square"/>
     </g>
     <g id="line2d_66">
      <g>
       <use xlink:href="#mc4ff6462a2" x="90" y="651.62721" style="stroke: #000000; stroke-width: 0.8"/>
      </g>
     </g>
     <g id="text_26">
      <!-- 12 -->
      <g transform="translate(65.205 657.35346) scale(0.16 -0.16)">
       <use xlink:href="#Arial-BoldMT-31"/>
       <use xlink:href="#Arial-BoldMT-32" x="55.615234"/>
      </g>
     </g>
    </g>
    <g id="text_27">
     <!-- Rel. Fehler $I_{aus}$ [%] -->
     <g transform="translate(57.845 767.743529) rotate(-90) scale(0.16 -0.16)">
      <defs>
       <path id="DejaVuSans-BoldOblique-49" d="M 1044 4666 
L 2247 4666 
L 1338 0 
L 134 0 
L 1044 4666 
z
" transform="scale(0.015625)"/>
       <path id="DejaVuSans-BoldOblique-61" d="M 2106 1575 
Q 1688 1575 1473 1445 
Q 1259 1316 1259 1063 
Q 1259 872 1386 762 
Q 1513 653 1734 653 
Q 2078 653 2309 861 
Q 2541 1069 2619 1447 
L 2644 1575 
L 2106 1575 
z
M 3853 1997 
L 3463 0 
L 2344 0 
L 2438 519 
Q 2163 206 1856 57 
Q 1550 -91 1191 -91 
Q 694 -91 401 167 
Q 109 425 109 863 
Q 109 1531 626 1886 
Q 1144 2241 2119 2241 
L 2778 2241 
L 2791 2328 
Q 2800 2372 2801 2390 
Q 2803 2409 2803 2425 
Q 2803 2631 2608 2736 
Q 2413 2841 2028 2841 
Q 1681 2841 1356 2769 
Q 1031 2697 728 2553 
L 897 3406 
Q 1247 3494 1614 3539 
Q 1981 3584 2375 3584 
Q 3153 3584 3531 3317 
Q 3909 3050 3909 2503 
Q 3909 2397 3895 2270 
Q 3881 2144 3853 1997 
z
" transform="scale(0.015625)"/>
       <path id="DejaVuSans-BoldOblique-75" d="M 434 1363 
L 844 3500 
L 1966 3500 
L 1613 1678 
Q 1575 1500 1556 1375 
Q 1538 1250 1538 1178 
Q 1538 981 1647 872 
Q 1756 763 1959 763 
Q 2306 763 2556 1031 
Q 2806 1300 2900 1778 
L 3238 3500 
L 4359 3500 
L 3681 0 
L 2553 0 
L 2656 513 
Q 2369 209 2053 59 
Q 1738 -91 1388 -91 
Q 909 -91 646 162 
Q 384 416 384 878 
Q 384 988 396 1109 
Q 409 1231 434 1363 
z
" transform="scale(0.015625)"/>
       <path id="DejaVuSans-BoldOblique-73" d="M 3584 3391 
L 3419 2522 
Q 3091 2678 2766 2759 
Q 2441 2841 2150 2841 
Q 1819 2841 1639 2755 
Q 1459 2669 1459 2509 
Q 1459 2416 1559 2359 
Q 1659 2303 1953 2241 
L 2156 2203 
Q 2834 2059 3106 1832 
Q 3378 1606 3378 1203 
Q 3378 594 2900 251 
Q 2422 -91 1563 -91 
Q 1203 -91 828 -34 
Q 453 22 63 134 
L 231 1013 
Q 534 834 879 743 
Q 1225 653 1588 653 
Q 1941 653 2119 737 
Q 2297 822 2297 984 
Q 2297 1097 2197 1159 
Q 2097 1222 1784 1288 
L 1581 1325 
Q 981 1450 725 1694 
Q 469 1938 469 2369 
Q 469 2953 911 3268 
Q 1353 3584 2175 3584 
Q 2534 3584 2882 3536 
Q 3231 3488 3584 3391 
z
" transform="scale(0.015625)"/>
      </defs>
      <use xlink:href="#Arial-BoldMT-52" transform="translate(0 0.09375)"/>
      <use xlink:href="#Arial-BoldMT-65" transform="translate(72.216797 0.09375)"/>
      <use xlink:href="#Arial-BoldMT-6c" transform="translate(127.832031 0.09375)"/>
      <use xlink:href="#Arial-BoldMT-2e" transform="translate(155.615234 0.09375)"/>
      <use xlink:href="#Arial-BoldMT-20" transform="translate(183.398438 0.09375)"/>
      <use xlink:href="#Arial-BoldMT-46" transform="translate(211.181641 0.09375)"/>
      <use xlink:href="#Arial-BoldMT-65" transform="translate(272.265625 0.09375)"/>
      <use xlink:href="#Arial-BoldMT-68" transform="translate(327.880859 0.09375)"/>
      <use xlink:href="#Arial-BoldMT-6c" transform="translate(388.964844 0.09375)"/>
      <use xlink:href="#Arial-BoldMT-65" transform="translate(416.748047 0.09375)"/>
      <use xlink:href="#Arial-BoldMT-72" transform="translate(472.363281 0.09375)"/>
      <use xlink:href="#Arial-BoldMT-20" transform="translate(511.279297 0.09375)"/>
      <use xlink:href="#DejaVuSans-BoldOblique-49" transform="translate(539.0625 0.09375)"/>
      <use xlink:href="#DejaVuSans-BoldOblique-61" transform="translate(576.269531 -16.3125) scale(0.7)"/>
      <use xlink:href="#DejaVuSans-BoldOblique-75" transform="translate(623.505859 -16.3125) scale(0.7)"/>
      <use xlink:href="#DejaVuSans-BoldOblique-73" transform="translate(673.339844 -16.3125) scale(0.7)"/>
      <use xlink:href="#Arial-BoldMT-20" transform="translate(717.739258 0.09375)"/>
      <use xlink:href="#Arial-BoldMT-5b" transform="translate(745.522461 0.09375)"/>
      <use xlink:href="#Arial-BoldMT-25" transform="translate(778.823242 0.09375)"/>
      <use xlink:href="#Arial-BoldMT-5d" transform="translate(867.739258 0.09375)"/>
     </g>
    </g>
   </g>
   <g id="patch_16">
    <path d="M 90 768.96 
L 90 622.207059 
" style="fill: none; stroke: #000000; stroke-width: 1.2; stroke-linejoin: miter; stroke-linecap: square"/>
   </g>
   <g id="patch_17">
    <path d="M 648 768.96 
L 648 622.207059 
" style="fill: none; stroke: #000000; stroke-width: 1.2; stroke-linejoin: miter; stroke-linecap: square"/>
   </g>
   <g id="patch_18">
    <path d="M 90 768.96 
L 648 768.96 
" style="fill: none; stroke: #000000; stroke-width: 1.2; stroke-linejoin: miter; stroke-linecap: square"/>
   </g>
   <g id="patch_19">
    <path d="M 90 622.207059 
L 648 622.207059 
" style="fill: none; stroke: #000000; stroke-width: 1.2; stroke-linejoin: miter; stroke-linecap: square"/>
   </g>
   <g id="legend_3">
    <g id="patch_20">
     <path d="M 101.2 658.022059 
L 380.8875 658.022059 
Q 384.0875 658.022059 384.0875 654.822059 
L 384.0875 633.407059 
Q 384.0875 630.207059 380.8875 630.207059 
L 101.2 630.207059 
Q 98 630.207059 98 633.407059 
L 98 654.822059 
Q 98 658.022059 101.2 658.022059 
z
" style="fill: #ffffff; opacity: 0.8; stroke: #cccccc; stroke-linejoin: miter"/>
    </g>
    <g id="PathCollection_4">
     <g>
      <use xlink:href="#m6a9bf378c3" x="120.4" y="644.054559" style="fill: #800000; stroke: #800000"/>
     </g>
    </g>
    <g id="text_28">
     <!-- Rel. Fehler Strom (Quelle aus) -->
     <g transform="translate(149.2 648.254559) scale(0.16 -0.16)">
      <use xlink:href="#Arial-BoldMT-52"/>
      <use xlink:href="#Arial-BoldMT-65" x="72.216797"/>
      <use xlink:href="#Arial-BoldMT-6c" x="127.832031"/>
      <use xlink:href="#Arial-BoldMT-2e" x="155.615234"/>
      <use xlink:href="#Arial-BoldMT-20" x="183.398438"/>
      <use xlink:href="#Arial-BoldMT-46" x="211.181641"/>
      <use xlink:href="#Arial-BoldMT-65" x="272.265625"/>
      <use xlink:href="#Arial-BoldMT-68" x="327.880859"/>
      <use xlink:href="#Arial-BoldMT-6c" x="388.964844"/>
      <use xlink:href="#Arial-BoldMT-65" x="416.748047"/>
      <use xlink:href="#Arial-BoldMT-72" x="472.363281"/>
      <use xlink:href="#Arial-BoldMT-20" x="511.279297"/>
      <use xlink:href="#Arial-BoldMT-53" x="539.0625"/>
      <use xlink:href="#Arial-BoldMT-74" x="605.761719"/>
      <use xlink:href="#Arial-BoldMT-72" x="639.0625"/>
      <use xlink:href="#Arial-BoldMT-6f" x="677.978516"/>
      <use xlink:href="#Arial-BoldMT-6d" x="739.0625"/>
      <use xlink:href="#Arial-BoldMT-20" x="827.978516"/>
      <use xlink:href="#Arial-BoldMT-28" x="855.761719"/>
      <use xlink:href="#Arial-BoldMT-51" x="889.0625"/>
      <use xlink:href="#Arial-BoldMT-75" x="966.845703"/>
      <use xlink:href="#Arial-BoldMT-65" x="1027.929688"/>
      <use xlink:href="#Arial-BoldMT-6c" x="1083.544922"/>
      <use xlink:href="#Arial-BoldMT-6c" x="1111.328125"/>
      <use xlink:href="#Arial-BoldMT-65" x="1139.111328"/>
      <use xlink:href="#Arial-BoldMT-20" x="1194.726562"/>
      <use xlink:href="#Arial-BoldMT-61" x="1222.509766"/>
      <use xlink:href="#Arial-BoldMT-75" x="1278.125"/>
      <use xlink:href="#Arial-BoldMT-73" x="1339.208984"/>
      <use xlink:href="#Arial-BoldMT-29" x="1394.824219"/>
     </g>
    </g>
   </g>
  </g>
 </g>
 <defs>
  <clipPath id="p011f4db4da">
   <rect x="90" y="103.68" width="558" height="293.505882"/>
  </clipPath>
  <clipPath id="p8327caea89">
   <rect x="90" y="436.32" width="558" height="146.752941"/>
  </clipPath>
  <clipPath id="p92d9ac2963">
   <rect x="90" y="622.207059" width="558" height="146.752941"/>
  </clipPath>
 </defs>
</svg>
