<?xml version="1.0" encoding="utf-8" standalone="no"?>
<!DOCTYPE svg PUBLIC "-//W3C//DTD SVG 1.1//EN"
  "http://www.w3.org/Graphics/SVG/1.1/DTD/svg11.dtd">
<svg xmlns:xlink="http://www.w3.org/1999/xlink" width="720pt" height="864pt" viewBox="0 0 720 864" xmlns="http://www.w3.org/2000/svg" version="1.1">
 <metadata>
  <rdf:RDF xmlns:dc="http://purl.org/dc/elements/1.1/" xmlns:cc="http://creativecommons.org/ns#" xmlns:rdf="http://www.w3.org/1999/02/22-rdf-syntax-ns#">
   <cc:Work>
    <dc:type rdf:resource="http://purl.org/dc/dcmitype/StillImage"/>
    <dc:date>2026-03-10T20:23:32.091720</dc:date>
    <dc:format>image/svg+xml</dc:format>
    <dc:creator>
     <cc:Agent>
      <dc:title>Matplotlib v3.9.0, https://matplotlib.org/</dc:title>
     </cc:Agent>
    </dc:creator>
   </cc:Work>
  </rdf:RDF>
 </metadata>
 <defs>
  <style type="text/css">*{stroke-linejoin: round; stroke-linecap: butt}</style>
 </defs>
 <g id="figure_1">
  <g id="patch_1">
   <path d="M 0 864 
L 720 864 
L 720 0 
L 0 0 
z
" style="fill: #ffffff"/>
  </g>
  <g id="axes_1">
   <g id="patch_2">
    <path d="M 90 397.185882 
L 648 397.185882 
L 648 103.68 
L 90 103.68 
z
" style="fill: #ffffff"/>
   </g>
   <g id="PolyCollection_1">
    <defs>
     <path id="m6d5bc6fa0e" d="M 115.363636 -619.895869 
L 115.363636 -547.786937 
L 117.060201 -548.250796 
L 118.756765 -548.713233 
L 120.453329 -549.174253 
L 122.149894 -549.63386 
L 123.846458 -550.092056 
L 125.543022 -550.548847 
L 127.239587 -551.004235 
L 128.936151 -551.458223 
L 130.632715 -551.910814 
L 132.329279 -552.362011 
L 134.025844 -552.811817 
L 135.722408 -553.260234 
L 137.418972 -553.707264 
L 139.115537 -554.15291 
L 140.812101 -554.597173 
L 142.508665 -555.040055 
L 144.20523 -555.481558 
L 145.901794 -555.921682 
L 147.598358 -556.36043 
L 149.294922 -556.797801 
L 150.991487 -557.233797 
L 152.688051 -557.668419 
L 154.384615 -558.101666 
L 156.08118 -558.533539 
L 157.777744 -558.964038 
L 159.474308 -559.393162 
L 161.170873 -559.820911 
L 162.867437 -560.247285 
L 164.564001 -560.672283 
L 166.260566 -561.095903 
L 167.95713 -561.518144 
L 169.653694 -561.939005 
L 171.350258 -562.358484 
L 173.046823 -562.77658 
L 174.743387 -563.193289 
L 176.439951 -563.60861 
L 178.136516 -564.022539 
L 179.83308 -564.435075 
L 181.529644 -564.846214 
L 183.226209 -565.255953 
L 184.922773 -565.664288 
L 186.619337 -566.071215 
L 188.315901 -566.47673 
L 190.012466 -566.88083 
L 191.70903 -567.283508 
L 193.405594 -567.684762 
L 195.102159 -568.084585 
L 196.798723 -568.482972 
L 198.495287 -568.879918 
L 200.191852 -569.275416 
L 201.888416 -569.669461 
L 203.58498 -570.062046 
L 205.281545 -570.453164 
L 206.978109 -570.842809 
L 208.674673 -571.230973 
L 210.371237 -571.617648 
L 212.067802 -572.002827 
L 213.764366 -572.386501 
L 215.46093 -572.768662 
L 217.157495 -573.149301 
L 218.854059 -573.528409 
L 220.550623 -573.905976 
L 222.247188 -574.281993 
L 223.943752 -574.65645 
L 225.640316 -575.029336 
L 227.336881 -575.40064 
L 229.033445 -575.770351 
L 230.730009 -576.138459 
L 232.426573 -576.504951 
L 234.123138 -576.869814 
L 235.819702 -577.233038 
L 237.516266 -577.594608 
L 239.212831 -577.954511 
L 240.909395 -578.312735 
L 242.605959 -578.669265 
L 244.302524 -579.024087 
L 245.999088 -579.377186 
L 247.695652 -579.728548 
L 249.392216 -580.078157 
L 251.088781 -580.425997 
L 252.785345 -580.772052 
L 254.481909 -581.116307 
L 256.178474 -581.458743 
L 257.875038 -581.799345 
L 259.571602 -582.138093 
L 261.268167 -582.474972 
L 262.964731 -582.809962 
L 264.661295 -583.143044 
L 266.35786 -583.4742 
L 268.054424 -583.803411 
L 269.750988 -584.130657 
L 271.447552 -584.455917 
L 273.144117 -584.779173 
L 274.840681 -585.100402 
L 276.537245 -585.419584 
L 278.23381 -585.736698 
L 279.930374 -586.051722 
L 281.626938 -586.364635 
L 283.323503 -586.675413 
L 285.020067 -586.984036 
L 286.716631 -587.29048 
L 288.413196 -587.594723 
L 290.10976 -587.896741 
L 291.806324 -588.196511 
L 293.502888 -588.494009 
L 295.199453 -588.789213 
L 296.896017 -589.082098 
L 298.592581 -589.37264 
L 300.289146 -589.660816 
L 301.98571 -589.9466 
L 303.682274 -590.22997 
L 305.378839 -590.510901 
L 307.075403 -590.789369 
L 308.771967 -591.065349 
L 310.468531 -591.338818 
L 312.165096 -591.609751 
L 313.86166 -591.878125 
L 315.558224 -592.143916 
L 317.254789 -592.407101 
L 318.951353 -592.667655 
L 320.647917 -592.925556 
L 322.344482 -593.180782 
L 324.041046 -593.43331 
L 325.73761 -593.683117 
L 327.434175 -593.930181 
L 329.130739 -594.174483 
L 330.827303 -594.416 
L 332.523867 -594.654713 
L 334.220432 -594.890601 
L 335.916996 -595.123646 
L 337.61356 -595.353829 
L 339.310125 -595.581133 
L 341.006689 -595.805538 
L 342.703253 -596.027031 
L 344.399818 -596.245594 
L 346.096382 -596.461212 
L 347.792946 -596.673873 
L 349.48951 -596.883561 
L 351.186075 -597.090266 
L 352.882639 -597.293975 
L 354.579203 -597.494679 
L 356.275768 -597.692366 
L 357.972332 -597.88703 
L 359.668896 -598.078662 
L 361.365461 -598.267256 
L 363.062025 -598.452807 
L 364.758589 -598.635309 
L 366.455154 -598.81476 
L 368.151718 -598.991157 
L 369.848282 -599.1645 
L 371.544846 -599.334787 
L 373.241411 -599.50202 
L 374.937975 -599.666201 
L 376.634539 -599.827333 
L 378.331104 -599.98542 
L 380.027668 -600.140467 
L 381.724232 -600.292481 
L 383.420797 -600.441468 
L 385.117361 -600.587438 
L 386.813925 -600.730399 
L 388.51049 -600.870361 
L 390.207054 -601.007337 
L 391.903618 -601.141337 
L 393.600182 -601.272375 
L 395.296747 -601.400465 
L 396.993311 -601.525621 
L 398.689875 -601.64786 
L 400.38644 -601.767197 
L 402.083004 -601.883648 
L 403.779568 -601.997233 
L 405.476133 -602.10797 
L 407.172697 -602.215877 
L 408.869261 -602.320974 
L 410.565825 -602.423281 
L 412.26239 -602.522818 
L 413.958954 -602.619608 
L 415.655518 -602.713672 
L 417.352083 -602.805031 
L 419.048647 -602.893708 
L 420.745211 -602.979726 
L 422.441776 -603.063108 
L 424.13834 -603.143877 
L 425.834904 -603.222056 
L 427.531469 -603.297669 
L 429.228033 -603.37074 
L 430.924597 -603.441294 
L 432.621161 -603.509353 
L 434.317726 -603.574943 
L 436.01429 -603.638087 
L 437.710854 -603.698809 
L 439.407419 -603.757134 
L 441.103983 -603.813086 
L 442.800547 -603.866689 
L 444.497112 -603.917966 
L 446.193676 -603.966942 
L 447.89024 -604.01364 
L 449.586804 -604.058084 
L 451.283369 -604.100296 
L 452.979933 -604.140301 
L 454.676497 -604.178121 
L 456.373062 -604.213779 
L 458.069626 -604.247297 
L 459.76619 -604.278697 
L 461.462755 -604.308002 
L 463.159319 -604.335232 
L 464.855883 -604.36041 
L 466.552448 -604.383556 
L 468.249012 -604.404691 
L 469.945576 -604.423836 
L 471.64214 -604.44101 
L 473.338705 -604.456233 
L 475.035269 -604.469524 
L 476.731833 -604.480903 
L 478.428398 -604.490389 
L 480.124962 -604.497999 
L 481.821526 -604.503752 
L 483.518091 -604.507664 
L 485.214655 -604.509755 
L 486.911219 -604.510039 
L 488.607784 -604.508535 
L 490.304348 -604.505258 
L 492.000912 -604.500223 
L 493.697476 -604.493447 
L 495.394041 -604.484944 
L 497.090605 -604.474728 
L 498.787169 -604.462816 
L 500.483734 -604.449219 
L 502.180298 -604.433953 
L 503.876862 -604.41703 
L 505.573427 -604.398463 
L 507.269991 -604.378264 
L 508.966555 -604.356447 
L 510.663119 -604.333022 
L 512.359684 -604.308001 
L 514.056248 -604.281396 
L 515.752812 -604.253217 
L 517.449377 -604.223475 
L 519.145941 -604.19218 
L 520.842505 -604.159342 
L 522.53907 -604.12497 
L 524.235634 -604.089073 
L 525.932198 -604.051661 
L 527.628763 -604.012743 
L 529.325327 -603.972325 
L 531.021891 -603.930417 
L 532.718455 -603.887026 
L 534.41502 -603.842159 
L 536.111584 -603.795824 
L 537.808148 -603.748027 
L 539.504713 -603.698774 
L 541.201277 -603.648073 
L 542.897841 -603.595929 
L 544.594406 -603.542347 
L 546.29097 -603.487334 
L 547.987534 -603.430893 
L 549.684099 -603.373031 
L 551.380663 -603.313752 
L 553.077227 -603.25306 
L 554.773791 -603.190959 
L 556.470356 -603.127453 
L 558.16692 -603.062546 
L 559.863484 -602.996241 
L 561.560049 -602.928541 
L 563.256613 -602.85945 
L 564.953177 -602.788969 
L 566.649742 -602.717102 
L 568.346306 -602.64385 
L 570.04287 -602.569216 
L 571.739434 -602.493202 
L 573.435999 -602.415808 
L 575.132563 -602.337036 
L 576.829127 -602.256888 
L 578.525692 -602.175364 
L 580.222256 -602.092465 
L 581.91882 -602.008191 
L 583.615385 -601.922543 
L 585.311949 -601.835521 
L 587.008513 -601.747125 
L 588.705078 -601.657354 
L 590.401642 -601.566208 
L 592.098206 -601.473686 
L 593.79477 -601.379787 
L 595.491335 -601.284511 
L 597.187899 -601.187855 
L 598.884463 -601.089819 
L 600.581028 -600.990401 
L 602.277592 -600.889599 
L 603.974156 -600.787411 
L 605.670721 -600.683834 
L 607.367285 -600.578867 
L 609.063849 -600.472507 
L 610.760413 -600.36475 
L 612.456978 -600.255595 
L 614.153542 -600.145038 
L 615.850106 -600.033075 
L 617.546671 -599.919703 
L 619.243235 -599.80492 
L 620.939799 -599.68872 
L 622.636364 -599.571099 
L 622.636364 -671.565774 
L 622.636364 -671.565774 
L 620.939799 -671.266394 
L 619.243235 -670.967024 
L 617.546671 -670.667666 
L 615.850106 -670.368326 
L 614.153542 -670.069005 
L 612.456978 -669.769708 
L 610.760413 -669.470438 
L 609.063849 -669.1712 
L 607.367285 -668.871997 
L 605.670721 -668.572832 
L 603.974156 -668.273711 
L 602.277592 -667.974638 
L 600.581028 -667.675615 
L 598.884463 -667.376649 
L 597.187899 -667.077744 
L 595.491335 -666.778903 
L 593.79477 -666.480132 
L 592.098206 -666.181436 
L 590.401642 -665.882819 
L 588.705078 -665.584287 
L 587.008513 -665.285844 
L 585.311949 -664.987497 
L 583.615385 -664.689249 
L 581.91882 -664.391107 
L 580.222256 -664.093077 
L 578.525692 -663.795164 
L 576.829127 -663.497374 
L 575.132563 -663.199713 
L 573.435999 -662.902187 
L 571.739434 -662.604803 
L 570.04287 -662.307567 
L 568.346306 -662.010486 
L 566.649742 -661.713566 
L 564.953177 -661.416815 
L 563.256613 -661.120239 
L 561.560049 -660.823845 
L 559.863484 -660.527642 
L 558.16692 -660.231637 
L 556.470356 -659.935837 
L 554.773791 -659.640251 
L 553.077227 -659.344886 
L 551.380663 -659.049751 
L 549.684099 -658.754855 
L 547.987534 -658.460205 
L 546.29097 -658.165812 
L 544.594406 -657.871683 
L 542.897841 -657.577829 
L 541.201277 -657.284259 
L 539.504713 -656.990982 
L 537.808148 -656.698008 
L 536.111584 -656.405349 
L 534.41502 -656.113013 
L 532.718455 -655.821012 
L 531.021891 -655.529356 
L 529.325327 -655.238057 
L 527.628763 -654.947125 
L 525.932198 -654.656573 
L 524.235634 -654.366413 
L 522.53907 -654.076655 
L 520.842505 -653.787314 
L 519.145941 -653.498401 
L 517.449377 -653.209929 
L 515.752812 -652.921911 
L 514.056248 -652.634361 
L 512.359684 -652.347292 
L 510.663119 -652.060719 
L 508.966555 -651.774656 
L 507.269991 -651.489117 
L 505.573427 -651.204118 
L 503.876862 -650.919673 
L 502.180298 -650.635797 
L 500.483734 -650.352508 
L 498.787169 -650.06982 
L 497.090605 -649.78775 
L 495.394041 -649.506315 
L 493.697476 -649.225532 
L 492.000912 -648.945418 
L 490.304348 -648.665992 
L 488.607784 -648.38727 
L 486.911219 -648.109271 
L 485.214655 -647.832015 
L 483.518091 -647.555519 
L 481.821526 -647.279803 
L 480.124962 -647.004887 
L 478.428398 -646.730791 
L 476.731833 -646.457535 
L 475.035269 -646.185139 
L 473.338705 -645.913625 
L 471.64214 -645.643013 
L 469.945576 -645.373325 
L 468.249012 -645.104584 
L 466.552448 -644.83681 
L 464.855883 -644.570026 
L 463.159319 -644.304256 
L 461.462755 -644.039522 
L 459.76619 -643.775847 
L 458.069626 -643.513254 
L 456.373062 -643.251768 
L 454.676497 -642.991412 
L 452.979933 -642.732211 
L 451.283369 -642.474189 
L 449.586804 -642.21737 
L 447.89024 -641.961779 
L 446.193676 -641.707442 
L 444.497112 -641.454382 
L 442.800547 -641.202627 
L 441.103983 -640.952199 
L 439.407419 -640.703126 
L 437.710854 -640.455432 
L 436.01429 -640.209143 
L 434.317726 -639.964285 
L 432.621161 -639.720882 
L 430.924597 -639.478961 
L 429.228033 -639.238546 
L 427.531469 -638.999663 
L 425.834904 -638.762337 
L 424.13834 -638.526594 
L 422.441776 -638.292457 
L 420.745211 -638.059951 
L 419.048647 -637.8291 
L 417.352083 -637.59993 
L 415.655518 -637.372462 
L 413.958954 -637.146721 
L 412.26239 -636.92273 
L 410.565825 -636.70051 
L 408.869261 -636.480084 
L 407.172697 -636.261474 
L 405.476133 -636.044699 
L 403.779568 -635.829782 
L 402.083004 -635.61674 
L 400.38644 -635.405594 
L 398.689875 -635.196361 
L 396.993311 -634.98906 
L 395.296747 -634.783706 
L 393.600182 -634.580317 
L 391.903618 -634.378907 
L 390.207054 -634.17949 
L 388.51049 -633.98208 
L 386.813925 -633.78669 
L 385.117361 -633.593331 
L 383.420797 -633.402014 
L 381.724232 -633.212748 
L 380.027668 -633.025541 
L 378.331104 -632.840402 
L 376.634539 -632.657336 
L 374.937975 -632.476349 
L 373.241411 -632.297446 
L 371.544846 -632.120629 
L 369.848282 -631.9459 
L 368.151718 -631.773261 
L 366.455154 -631.602712 
L 364.758589 -631.43425 
L 363.062025 -631.267874 
L 361.365461 -631.10358 
L 359.668896 -630.941364 
L 357.972332 -630.78122 
L 356.275768 -630.623141 
L 354.579203 -630.46712 
L 352.882639 -630.313147 
L 351.186075 -630.161213 
L 349.48951 -630.011307 
L 347.792946 -629.863417 
L 346.096382 -629.717531 
L 344.399818 -629.573634 
L 342.703253 -629.431713 
L 341.006689 -629.291751 
L 339.310125 -629.153733 
L 337.61356 -629.017641 
L 335.916996 -628.883458 
L 334.220432 -628.751165 
L 332.523867 -628.620743 
L 330.827303 -628.492172 
L 329.130739 -628.365432 
L 327.434175 -628.240501 
L 325.73761 -628.117358 
L 324.041046 -627.99598 
L 322.344482 -627.876346 
L 320.647917 -627.758433 
L 318.951353 -627.642215 
L 317.254789 -627.527671 
L 315.558224 -627.414776 
L 313.86166 -627.303506 
L 312.165096 -627.193835 
L 310.468531 -627.08574 
L 308.771967 -626.979195 
L 307.075403 -626.874174 
L 305.378839 -626.770654 
L 303.682274 -626.668608 
L 301.98571 -626.56801 
L 300.289146 -626.468837 
L 298.592581 -626.371061 
L 296.896017 -626.274657 
L 295.199453 -626.179601 
L 293.502888 -626.085866 
L 291.806324 -625.993428 
L 290.10976 -625.902262 
L 288.413196 -625.812341 
L 286.716631 -625.723642 
L 285.020067 -625.63614 
L 283.323503 -625.54981 
L 281.626938 -625.464628 
L 279.930374 -625.380569 
L 278.23381 -625.297611 
L 276.537245 -625.215728 
L 274.840681 -625.134899 
L 273.144117 -625.055099 
L 271.447552 -624.976306 
L 269.750988 -624.898497 
L 268.054424 -624.821651 
L 266.35786 -624.745744 
L 264.661295 -624.670755 
L 262.964731 -624.596663 
L 261.268167 -624.523447 
L 259.571602 -624.451085 
L 257.875038 -624.379558 
L 256.178474 -624.308845 
L 254.481909 -624.238927 
L 252.785345 -624.169783 
L 251.088781 -624.101395 
L 249.392216 -624.033744 
L 247.695652 -623.966811 
L 245.999088 -623.900578 
L 244.302524 -623.835027 
L 242.605959 -623.770141 
L 240.909395 -623.705901 
L 239.212831 -623.642292 
L 237.516266 -623.579297 
L 235.819702 -623.516899 
L 234.123138 -623.455082 
L 232.426573 -623.393831 
L 230.730009 -623.333131 
L 229.033445 -623.272965 
L 227.336881 -623.21332 
L 225.640316 -623.15418 
L 223.943752 -623.095532 
L 222.247188 -623.037362 
L 220.550623 -622.979656 
L 218.854059 -622.9224 
L 217.157495 -622.865583 
L 215.46093 -622.80919 
L 213.764366 -622.753209 
L 212.067802 -622.697629 
L 210.371237 -622.642436 
L 208.674673 -622.58762 
L 206.978109 -622.533168 
L 205.281545 -622.47907 
L 203.58498 -622.425315 
L 201.888416 -622.371891 
L 200.191852 -622.318788 
L 198.495287 -622.265996 
L 196.798723 -622.213505 
L 195.102159 -622.161304 
L 193.405594 -622.109385 
L 191.70903 -622.057738 
L 190.012466 -622.006353 
L 188.315901 -621.955221 
L 186.619337 -621.904334 
L 184.922773 -621.853684 
L 183.226209 -621.80326 
L 181.529644 -621.753057 
L 179.83308 -621.703064 
L 178.136516 -621.653275 
L 176.439951 -621.603681 
L 174.743387 -621.554276 
L 173.046823 -621.505051 
L 171.350258 -621.456 
L 169.653694 -621.407115 
L 167.95713 -621.35839 
L 166.260566 -621.309817 
L 164.564001 -621.261391 
L 162.867437 -621.213105 
L 161.170873 -621.164953 
L 159.474308 -621.116928 
L 157.777744 -621.069024 
L 156.08118 -621.021236 
L 154.384615 -620.973558 
L 152.688051 -620.925984 
L 150.991487 -620.878509 
L 149.294922 -620.831128 
L 147.598358 -620.783834 
L 145.901794 -620.736624 
L 144.20523 -620.689492 
L 142.508665 -620.642432 
L 140.812101 -620.595442 
L 139.115537 -620.548515 
L 137.418972 -620.501648 
L 135.722408 -620.454835 
L 134.025844 -620.408073 
L 132.329279 -620.361357 
L 130.632715 -620.314683 
L 128.936151 -620.268046 
L 127.239587 -620.221444 
L 125.543022 -620.174873 
L 123.846458 -620.128327 
L 122.149894 -620.081804 
L 120.453329 -620.035301 
L 118.756765 -619.988812 
L 117.060201 -619.942336 
L 115.363636 -619.895869 
z
" style="stroke: #800000; stroke-opacity: 0.3"/>
    </defs>
    <g clip-path="url(#pc7b0665768)">
     <use xlink:href="#m6d5bc6fa0e" x="0" y="864" style="fill: #800000; fill-opacity: 0.3; stroke: #800000; stroke-opacity: 0.3"/>
    </g>
   </g>
   <g id="matplotlib.axis_1">
    <g id="xtick_1">
     <g id="line2d_1">
      <path d="M 186.170455 397.185882 
L 186.170455 103.68 
" clip-path="url(#pc7b0665768)" style="fill: none; stroke: #b0b0b0; stroke-width: 0.8; stroke-linecap: square"/>
     </g>
     <g id="line2d_2">
      <defs>
       <path id="m1106740036" d="M 0 0 
L 0 3.5 
" style="stroke: #000000; stroke-width: 0.8"/>
      </defs>
      <g>
       <use xlink:href="#m1106740036" x="186.170455" y="397.185882" style="stroke: #000000; stroke-width: 0.8"/>
      </g>
     </g>
    </g>
    <g id="xtick_2">
     <g id="line2d_3">
      <path d="M 291.852273 397.185882 
L 291.852273 103.68 
" clip-path="url(#pc7b0665768)" style="fill: none; stroke: #b0b0b0; stroke-width: 0.8; stroke-linecap: square"/>
     </g>
     <g id="line2d_4">
      <g>
       <use xlink:href="#m1106740036" x="291.852273" y="397.185882" style="stroke: #000000; stroke-width: 0.8"/>
      </g>
     </g>
    </g>
    <g id="xtick_3">
     <g id="line2d_5">
      <path d="M 397.534091 397.185882 
L 397.534091 103.68 
" clip-path="url(#pc7b0665768)" style="fill: none; stroke: #b0b0b0; stroke-width: 0.8; stroke-linecap: square"/>
     </g>
     <g id="line2d_6">
      <g>
       <use xlink:href="#m1106740036" x="397.534091" y="397.185882" style="stroke: #000000; stroke-width: 0.8"/>
      </g>
     </g>
    </g>
    <g id="xtick_4">
     <g id="line2d_7">
      <path d="M 503.215909 397.185882 
L 503.215909 103.68 
" clip-path="url(#pc7b0665768)" style="fill: none; stroke: #b0b0b0; stroke-width: 0.8; stroke-linecap: square"/>
     </g>
     <g id="line2d_8">
      <g>
       <use xlink:href="#m1106740036" x="503.215909" y="397.185882" style="stroke: #000000; stroke-width: 0.8"/>
      </g>
     </g>
    </g>
    <g id="xtick_5">
     <g id="line2d_9">
      <path d="M 608.897727 397.185882 
L 608.897727 103.68 
" clip-path="url(#pc7b0665768)" style="fill: none; stroke: #b0b0b0; stroke-width: 0.8; stroke-linecap: square"/>
     </g>
     <g id="line2d_10">
      <g>
       <use xlink:href="#m1106740036" x="608.897727" y="397.185882" style="stroke: #000000; stroke-width: 0.8"/>
      </g>
     </g>
    </g>
   </g>
   <g id="matplotlib.axis_2">
    <g id="ytick_1">
     <g id="line2d_11">
      <path d="M 90 397.185882 
L 648 397.185882 
" clip-path="url(#pc7b0665768)" style="fill: none; stroke: #b0b0b0; stroke-width: 0.8; stroke-linecap: square"/>
     </g>
     <g id="line2d_12">
      <defs>
       <path id="mede58d2678" d="M 0 0 
L -3.5 0 
" style="stroke: #000000; stroke-width: 0.8"/>
      </defs>
      <g>
       <use xlink:href="#mede58d2678" x="90" y="397.185882" style="stroke: #000000; stroke-width: 0.8"/>
      </g>
     </g>
     <g id="text_1">
      <!-- $10^4$ -->
      <g transform="translate(56.12 402.244476) scale(0.14 -0.14)">
       <defs>
        <path id="DejaVuSans-Bold-31" d="M 750 831 
L 1813 831 
L 1813 3847 
L 722 3622 
L 722 4441 
L 1806 4666 
L 2950 4666 
L 2950 831 
L 4013 831 
L 4013 0 
L 750 0 
L 750 831 
z
" transform="scale(0.015625)"/>
        <path id="DejaVuSans-Bold-30" d="M 2944 2338 
Q 2944 3213 2780 3570 
Q 2616 3928 2228 3928 
Q 1841 3928 1675 3570 
Q 1509 3213 1509 2338 
Q 1509 1453 1675 1090 
Q 1841 728 2228 728 
Q 2613 728 2778 1090 
Q 2944 1453 2944 2338 
z
M 4147 2328 
Q 4147 1169 3647 539 
Q 3147 -91 2228 -91 
Q 1306 -91 806 539 
Q 306 1169 306 2328 
Q 306 3491 806 4120 
Q 1306 4750 2228 4750 
Q 3147 4750 3647 4120 
Q 4147 3491 4147 2328 
z
" transform="scale(0.015625)"/>
        <path id="DejaVuSans-Bold-34" d="M 2356 3675 
L 1038 1722 
L 2356 1722 
L 2356 3675 
z
M 2156 4666 
L 3494 4666 
L 3494 1722 
L 4159 1722 
L 4159 850 
L 3494 850 
L 3494 0 
L 2356 0 
L 2356 850 
L 288 850 
L 288 1881 
L 2156 4666 
z
" transform="scale(0.015625)"/>
       </defs>
       <use xlink:href="#DejaVuSans-Bold-31" transform="translate(0 0.684375)"/>
       <use xlink:href="#DejaVuSans-Bold-30" transform="translate(69.580078 0.684375)"/>
       <use xlink:href="#DejaVuSans-Bold-34" transform="translate(140.117188 38.965625) scale(0.7)"/>
      </g>
     </g>
    </g>
    <g id="ytick_2">
     <g id="line2d_13">
      <path d="M 90 302.381279 
L 648 302.381279 
" clip-path="url(#pc7b0665768)" style="fill: none; stroke: #b0b0b0; stroke-width: 0.8; stroke-linecap: square"/>
     </g>
     <g id="line2d_14">
      <g>
       <use xlink:href="#mede58d2678" x="90" y="302.381279" style="stroke: #000000; stroke-width: 0.8"/>
      </g>
     </g>
     <g id="text_2">
      <!-- $3\cdot10^4$ -->
      <g transform="translate(35.26 307.439873) scale(0.14 -0.14)">
       <defs>
        <path id="DejaVuSans-Bold-33" d="M 2981 2516 
Q 3453 2394 3698 2092 
Q 3944 1791 3944 1325 
Q 3944 631 3412 270 
Q 2881 -91 1863 -91 
Q 1503 -91 1142 -33 
Q 781 25 428 141 
L 428 1069 
Q 766 900 1098 814 
Q 1431 728 1753 728 
Q 2231 728 2486 893 
Q 2741 1059 2741 1369 
Q 2741 1688 2480 1852 
Q 2219 2016 1709 2016 
L 1228 2016 
L 1228 2791 
L 1734 2791 
Q 2188 2791 2409 2933 
Q 2631 3075 2631 3366 
Q 2631 3634 2415 3781 
Q 2200 3928 1806 3928 
Q 1516 3928 1219 3862 
Q 922 3797 628 3669 
L 628 4550 
Q 984 4650 1334 4700 
Q 1684 4750 2022 4750 
Q 2931 4750 3382 4451 
Q 3834 4153 3834 3553 
Q 3834 3144 3618 2883 
Q 3403 2622 2981 2516 
z
" transform="scale(0.015625)"/>
        <path id="DejaVuSans-Bold-22c5" d="M 653 2828 
L 1778 2828 
L 1778 1619 
L 653 1619 
L 653 2828 
z
" transform="scale(0.015625)"/>
       </defs>
       <use xlink:href="#DejaVuSans-Bold-33" transform="translate(0 0.684375)"/>
       <use xlink:href="#DejaVuSans-Bold-22c5" transform="translate(90.419922 0.684375)"/>
       <use xlink:href="#DejaVuSans-Bold-31" transform="translate(149.248047 0.684375)"/>
       <use xlink:href="#DejaVuSans-Bold-30" transform="translate(218.828125 0.684375)"/>
       <use xlink:href="#DejaVuSans-Bold-34" transform="translate(289.365234 38.965625) scale(0.7)"/>
      </g>
     </g>
    </g>
    <g id="ytick_3">
     <g id="line2d_15">
      <path d="M 90 258.299649 
L 648 258.299649 
" clip-path="url(#pc7b0665768)" style="fill: none; stroke: #b0b0b0; stroke-width: 0.8; stroke-linecap: square"/>
     </g>
     <g id="line2d_16">
      <g>
       <use xlink:href="#mede58d2678" x="90" y="258.299649" style="stroke: #000000; stroke-width: 0.8"/>
      </g>
     </g>
     <g id="text_3">
      <!-- $5\cdot10^4$ -->
      <g transform="translate(35.26 263.358242) scale(0.14 -0.14)">
       <defs>
        <path id="DejaVuSans-Bold-35" d="M 678 4666 
L 3669 4666 
L 3669 3781 
L 1638 3781 
L 1638 3059 
Q 1775 3097 1914 3117 
Q 2053 3138 2203 3138 
Q 3056 3138 3531 2711 
Q 4006 2284 4006 1522 
Q 4006 766 3489 337 
Q 2972 -91 2053 -91 
Q 1656 -91 1267 -14 
Q 878 63 494 219 
L 494 1166 
Q 875 947 1217 837 
Q 1559 728 1863 728 
Q 2300 728 2551 942 
Q 2803 1156 2803 1522 
Q 2803 1891 2551 2103 
Q 2300 2316 1863 2316 
Q 1603 2316 1309 2248 
Q 1016 2181 678 2041 
L 678 4666 
z
" transform="scale(0.015625)"/>
       </defs>
       <use xlink:href="#DejaVuSans-Bold-35" transform="translate(0 0.684375)"/>
       <use xlink:href="#DejaVuSans-Bold-22c5" transform="translate(90.419922 0.684375)"/>
       <use xlink:href="#DejaVuSans-Bold-31" transform="translate(149.248047 0.684375)"/>
       <use xlink:href="#DejaVuSans-Bold-30" transform="translate(218.828125 0.684375)"/>
       <use xlink:href="#DejaVuSans-Bold-34" transform="translate(289.365234 38.965625) scale(0.7)"/>
      </g>
     </g>
    </g>
    <g id="ytick_4">
     <g id="line2d_17">
      <path d="M 90 198.484603 
L 648 198.484603 
" clip-path="url(#pc7b0665768)" style="fill: none; stroke: #b0b0b0; stroke-width: 0.8; stroke-linecap: square"/>
     </g>
     <g id="line2d_18">
      <g>
       <use xlink:href="#mede58d2678" x="90" y="198.484603" style="stroke: #000000; stroke-width: 0.8"/>
      </g>
     </g>
     <g id="text_4">
      <!-- $10^5$ -->
      <g transform="translate(56.12 203.543197) scale(0.14 -0.14)">
       <use xlink:href="#DejaVuSans-Bold-31" transform="translate(0 0.684375)"/>
       <use xlink:href="#DejaVuSans-Bold-30" transform="translate(69.580078 0.684375)"/>
       <use xlink:href="#DejaVuSans-Bold-35" transform="translate(140.117188 38.965625) scale(0.7)"/>
      </g>
     </g>
    </g>
    <g id="ytick_5">
     <g id="line2d_19">
      <path d="M 90 103.68 
L 648 103.68 
" clip-path="url(#pc7b0665768)" style="fill: none; stroke: #b0b0b0; stroke-width: 0.8; stroke-linecap: square"/>
     </g>
     <g id="line2d_20">
      <g>
       <use xlink:href="#mede58d2678" x="90" y="103.68" style="stroke: #000000; stroke-width: 0.8"/>
      </g>
     </g>
     <g id="text_5">
      <!-- $3\cdot10^5$ -->
      <g transform="translate(35.26 108.738594) scale(0.14 -0.14)">
       <use xlink:href="#DejaVuSans-Bold-33" transform="translate(0 0.684375)"/>
       <use xlink:href="#DejaVuSans-Bold-22c5" transform="translate(90.419922 0.684375)"/>
       <use xlink:href="#DejaVuSans-Bold-31" transform="translate(149.248047 0.684375)"/>
       <use xlink:href="#DejaVuSans-Bold-30" transform="translate(218.828125 0.684375)"/>
       <use xlink:href="#DejaVuSans-Bold-35" transform="translate(289.365234 38.965625) scale(0.7)"/>
      </g>
     </g>
    </g>
    <g id="ytick_6">
     <g id="line2d_21">
      <defs>
       <path id="mc3d4ba2b7d" d="M 0 0 
L -2 0 
" style="stroke: #000000; stroke-width: 0.6"/>
      </defs>
      <g>
       <use xlink:href="#mc3d4ba2b7d" x="90" y="337.370837" style="stroke: #000000; stroke-width: 0.6"/>
      </g>
     </g>
    </g>
    <g id="ytick_7">
     <g id="line2d_22">
      <g>
       <use xlink:href="#mc3d4ba2b7d" x="90" y="277.555792" style="stroke: #000000; stroke-width: 0.6"/>
      </g>
     </g>
    </g>
    <g id="ytick_8">
     <g id="line2d_23">
      <g>
       <use xlink:href="#mc3d4ba2b7d" x="90" y="242.566234" style="stroke: #000000; stroke-width: 0.6"/>
      </g>
     </g>
    </g>
    <g id="ytick_9">
     <g id="line2d_24">
      <g>
       <use xlink:href="#mc3d4ba2b7d" x="90" y="229.263821" style="stroke: #000000; stroke-width: 0.6"/>
      </g>
     </g>
    </g>
    <g id="ytick_10">
     <g id="line2d_25">
      <g>
       <use xlink:href="#mc3d4ba2b7d" x="90" y="217.740747" style="stroke: #000000; stroke-width: 0.6"/>
      </g>
     </g>
    </g>
    <g id="ytick_11">
     <g id="line2d_26">
      <g>
       <use xlink:href="#mc3d4ba2b7d" x="90" y="207.576675" style="stroke: #000000; stroke-width: 0.6"/>
      </g>
     </g>
    </g>
    <g id="ytick_12">
     <g id="line2d_27">
      <g>
       <use xlink:href="#mc3d4ba2b7d" x="90" y="138.669558" style="stroke: #000000; stroke-width: 0.6"/>
      </g>
     </g>
    </g>
    <g id="text_6">
     <!-- Gain  -->
     <g transform="translate(28.497187 267.935129) rotate(-90) scale(0.14 -0.14)">
      <defs>
       <path id="Arial-BoldMT-47" d="M 2597 1684 
L 2597 2456 
L 4591 2456 
L 4591 631 
Q 4300 350 3748 136 
Q 3197 -78 2631 -78 
Q 1913 -78 1378 223 
Q 844 525 575 1086 
Q 306 1647 306 2306 
Q 306 3022 606 3578 
Q 906 4134 1484 4431 
Q 1925 4659 2581 4659 
Q 3434 4659 3914 4301 
Q 4394 3944 4531 3313 
L 3613 3141 
Q 3516 3478 3248 3673 
Q 2981 3869 2581 3869 
Q 1975 3869 1617 3484 
Q 1259 3100 1259 2344 
Q 1259 1528 1621 1120 
Q 1984 713 2572 713 
Q 2863 713 3155 827 
Q 3447 941 3656 1103 
L 3656 1684 
L 2597 1684 
z
" transform="scale(0.015625)"/>
       <path id="Arial-BoldMT-61" d="M 1116 2306 
L 319 2450 
Q 453 2931 781 3162 
Q 1109 3394 1756 3394 
Q 2344 3394 2631 3255 
Q 2919 3116 3036 2902 
Q 3153 2688 3153 2116 
L 3144 1091 
Q 3144 653 3186 445 
Q 3228 238 3344 0 
L 2475 0 
Q 2441 88 2391 259 
Q 2369 338 2359 363 
Q 2134 144 1878 34 
Q 1622 -75 1331 -75 
Q 819 -75 523 203 
Q 228 481 228 906 
Q 228 1188 362 1408 
Q 497 1628 739 1745 
Q 981 1863 1438 1950 
Q 2053 2066 2291 2166 
L 2291 2253 
Q 2291 2506 2166 2614 
Q 2041 2722 1694 2722 
Q 1459 2722 1328 2630 
Q 1197 2538 1116 2306 
z
M 2291 1594 
Q 2122 1538 1756 1459 
Q 1391 1381 1278 1306 
Q 1106 1184 1106 997 
Q 1106 813 1243 678 
Q 1381 544 1594 544 
Q 1831 544 2047 700 
Q 2206 819 2256 991 
Q 2291 1103 2291 1419 
L 2291 1594 
z
" transform="scale(0.015625)"/>
       <path id="Arial-BoldMT-69" d="M 459 3769 
L 459 4581 
L 1338 4581 
L 1338 3769 
L 459 3769 
z
M 459 0 
L 459 3319 
L 1338 3319 
L 1338 0 
L 459 0 
z
" transform="scale(0.015625)"/>
       <path id="Arial-BoldMT-6e" d="M 3478 0 
L 2600 0 
L 2600 1694 
Q 2600 2231 2544 2389 
Q 2488 2547 2361 2634 
Q 2234 2722 2056 2722 
Q 1828 2722 1647 2597 
Q 1466 2472 1398 2265 
Q 1331 2059 1331 1503 
L 1331 0 
L 453 0 
L 453 3319 
L 1269 3319 
L 1269 2831 
Q 1703 3394 2363 3394 
Q 2653 3394 2893 3289 
Q 3134 3184 3257 3021 
Q 3381 2859 3429 2653 
Q 3478 2447 3478 2063 
L 3478 0 
z
" transform="scale(0.015625)"/>
       <path id="Arial-BoldMT-20" transform="scale(0.015625)"/>
      </defs>
      <use xlink:href="#Arial-BoldMT-47"/>
      <use xlink:href="#Arial-BoldMT-61" x="77.783203"/>
      <use xlink:href="#Arial-BoldMT-69" x="133.398438"/>
      <use xlink:href="#Arial-BoldMT-6e" x="161.181641"/>
      <use xlink:href="#Arial-BoldMT-20" x="222.265625"/>
     </g>
    </g>
   </g>
   <g id="line2d_28">
    <path d="M 115.363636 272.836162 
L 622.636364 221.131682 
L 622.636364 221.131682 
" clip-path="url(#pc7b0665768)" style="fill: none; stroke: #1f77b4; stroke-width: 2; stroke-linecap: square"/>
   </g>
   <g id="line2d_29">
    <path d="M 115.363636 272.836162 
L 622.636364 221.131682 
L 622.636364 221.131682 
" clip-path="url(#pc7b0665768)" style="fill: none; stroke: #8b0000; stroke-width: 2; stroke-linecap: square"/>
   </g>
   <g id="LineCollection_1">
    <path d="M 157.636364 306.3997 
L 157.636364 222.985202 
" clip-path="url(#pc7b0665768)" style="fill: none; stroke: #000000; stroke-width: 2"/>
    <path d="M 221.045455 324.388451 
L 221.045455 221.843565 
" clip-path="url(#pc7b0665768)" style="fill: none; stroke: #000000; stroke-width: 2"/>
    <path d="M 284.454545 320.983576 
L 284.454545 220.372173 
" clip-path="url(#pc7b0665768)" style="fill: none; stroke: #000000; stroke-width: 2"/>
    <path d="M 347.863636 303.710905 
L 347.863636 214.510462 
" clip-path="url(#pc7b0665768)" style="fill: none; stroke: #000000; stroke-width: 2"/>
    <path d="M 411.272727 312.907291 
L 411.272727 217.121295 
" clip-path="url(#pc7b0665768)" style="fill: none; stroke: #000000; stroke-width: 2"/>
    <path d="M 495.818182 299.870553 
L 495.818182 202.105835 
" clip-path="url(#pc7b0665768)" style="fill: none; stroke: #000000; stroke-width: 2"/>
    <path d="M 580.363636 282.556412 
L 580.363636 192.122576 
" clip-path="url(#pc7b0665768)" style="fill: none; stroke: #000000; stroke-width: 2"/>
   </g>
   <g id="line2d_30">
    <defs>
     <path id="m6f0ffcc697" d="M 0 3 
C 0.795609 3 1.55874 2.683901 2.12132 2.12132 
C 2.683901 1.55874 3 0.795609 3 0 
C 3 -0.795609 2.683901 -1.55874 2.12132 -2.12132 
C 1.55874 -2.683901 0.795609 -3 0 -3 
C -0.795609 -3 -1.55874 -2.683901 -2.12132 -2.12132 
C -2.683901 -1.55874 -3 -0.795609 -3 0 
C -3 0.795609 -2.683901 1.55874 -2.12132 2.12132 
C -1.55874 2.683901 -0.795609 3 0 3 
z
" style="stroke: #000000"/>
    </defs>
    <g clip-path="url(#pc7b0665768)">
     <use xlink:href="#m6f0ffcc697" x="157.636364" y="254.98322" style="stroke: #000000"/>
     <use xlink:href="#m6f0ffcc697" x="221.045455" y="258.704085" style="stroke: #000000"/>
     <use xlink:href="#m6f0ffcc697" x="284.454545" y="256.777212" style="stroke: #000000"/>
     <use xlink:href="#m6f0ffcc697" x="347.863636" y="248.064493" style="stroke: #000000"/>
     <use xlink:href="#m6f0ffcc697" x="411.272727" y="252.355157" style="stroke: #000000"/>
     <use xlink:href="#m6f0ffcc697" x="495.818182" y="237.825957" style="stroke: #000000"/>
     <use xlink:href="#m6f0ffcc697" x="580.363636" y="225.998514" style="stroke: #000000"/>
    </g>
   </g>
   <g id="patch_3">
    <path d="M 90 397.185882 
L 90 103.68 
" style="fill: none; stroke: #000000; stroke-width: 1.2; stroke-linejoin: miter; stroke-linecap: square"/>
   </g>
   <g id="patch_4">
    <path d="M 648 397.185882 
L 648 103.68 
" style="fill: none; stroke: #000000; stroke-width: 1.2; stroke-linejoin: miter; stroke-linecap: square"/>
   </g>
   <g id="patch_5">
    <path d="M 90 397.185882 
L 648 397.185882 
" style="fill: none; stroke: #000000; stroke-width: 1.2; stroke-linejoin: miter; stroke-linecap: square"/>
   </g>
   <g id="patch_6">
    <path d="M 90 103.68 
L 648 103.68 
" style="fill: none; stroke: #000000; stroke-width: 1.2; stroke-linejoin: miter; stroke-linecap: square"/>
   </g>
   <g id="text_7">
    <!-- Gain als Funktion von $V_{G1T}$ -->
    <g transform="translate(265.68 97.68) scale(0.168 -0.168)">
     <defs>
      <path id="ArialMT-47" d="M 2638 1797 
L 2638 2334 
L 4578 2338 
L 4578 638 
Q 4131 281 3656 101 
Q 3181 -78 2681 -78 
Q 2006 -78 1454 211 
Q 903 500 622 1047 
Q 341 1594 341 2269 
Q 341 2938 620 3517 
Q 900 4097 1425 4378 
Q 1950 4659 2634 4659 
Q 3131 4659 3532 4498 
Q 3934 4338 4162 4050 
Q 4391 3763 4509 3300 
L 3963 3150 
Q 3859 3500 3706 3700 
Q 3553 3900 3268 4020 
Q 2984 4141 2638 4141 
Q 2222 4141 1919 4014 
Q 1616 3888 1430 3681 
Q 1244 3475 1141 3228 
Q 966 2803 966 2306 
Q 966 1694 1177 1281 
Q 1388 869 1791 669 
Q 2194 469 2647 469 
Q 3041 469 3416 620 
Q 3791 772 3984 944 
L 3984 1797 
L 2638 1797 
z
" transform="scale(0.015625)"/>
      <path id="ArialMT-61" d="M 2588 409 
Q 2275 144 1986 34 
Q 1697 -75 1366 -75 
Q 819 -75 525 192 
Q 231 459 231 875 
Q 231 1119 342 1320 
Q 453 1522 633 1644 
Q 813 1766 1038 1828 
Q 1203 1872 1538 1913 
Q 2219 1994 2541 2106 
Q 2544 2222 2544 2253 
Q 2544 2597 2384 2738 
Q 2169 2928 1744 2928 
Q 1347 2928 1158 2789 
Q 969 2650 878 2297 
L 328 2372 
Q 403 2725 575 2942 
Q 747 3159 1072 3276 
Q 1397 3394 1825 3394 
Q 2250 3394 2515 3294 
Q 2781 3194 2906 3042 
Q 3031 2891 3081 2659 
Q 3109 2516 3109 2141 
L 3109 1391 
Q 3109 606 3145 398 
Q 3181 191 3288 0 
L 2700 0 
Q 2613 175 2588 409 
z
M 2541 1666 
Q 2234 1541 1622 1453 
Q 1275 1403 1131 1340 
Q 988 1278 909 1158 
Q 831 1038 831 891 
Q 831 666 1001 516 
Q 1172 366 1500 366 
Q 1825 366 2078 508 
Q 2331 650 2450 897 
Q 2541 1088 2541 1459 
L 2541 1666 
z
" transform="scale(0.015625)"/>
      <path id="ArialMT-69" d="M 425 3934 
L 425 4581 
L 988 4581 
L 988 3934 
L 425 3934 
z
M 425 0 
L 425 3319 
L 988 3319 
L 988 0 
L 425 0 
z
" transform="scale(0.015625)"/>
      <path id="ArialMT-6e" d="M 422 0 
L 422 3319 
L 928 3319 
L 928 2847 
Q 1294 3394 1984 3394 
Q 2284 3394 2536 3286 
Q 2788 3178 2913 3003 
Q 3038 2828 3088 2588 
Q 3119 2431 3119 2041 
L 3119 0 
L 2556 0 
L 2556 2019 
Q 2556 2363 2490 2533 
Q 2425 2703 2258 2804 
Q 2091 2906 1866 2906 
Q 1506 2906 1245 2678 
Q 984 2450 984 1813 
L 984 0 
L 422 0 
z
" transform="scale(0.015625)"/>
      <path id="ArialMT-20" transform="scale(0.015625)"/>
      <path id="ArialMT-6c" d="M 409 0 
L 409 4581 
L 972 4581 
L 972 0 
L 409 0 
z
" transform="scale(0.015625)"/>
      <path id="ArialMT-73" d="M 197 991 
L 753 1078 
Q 800 744 1014 566 
Q 1228 388 1613 388 
Q 2000 388 2187 545 
Q 2375 703 2375 916 
Q 2375 1106 2209 1216 
Q 2094 1291 1634 1406 
Q 1016 1563 777 1677 
Q 538 1791 414 1992 
Q 291 2194 291 2438 
Q 291 2659 392 2848 
Q 494 3038 669 3163 
Q 800 3259 1026 3326 
Q 1253 3394 1513 3394 
Q 1903 3394 2198 3281 
Q 2494 3169 2634 2976 
Q 2775 2784 2828 2463 
L 2278 2388 
Q 2241 2644 2061 2787 
Q 1881 2931 1553 2931 
Q 1166 2931 1000 2803 
Q 834 2675 834 2503 
Q 834 2394 903 2306 
Q 972 2216 1119 2156 
Q 1203 2125 1616 2013 
Q 2213 1853 2448 1751 
Q 2684 1650 2818 1456 
Q 2953 1263 2953 975 
Q 2953 694 2789 445 
Q 2625 197 2315 61 
Q 2006 -75 1616 -75 
Q 969 -75 630 194 
Q 291 463 197 991 
z
" transform="scale(0.015625)"/>
      <path id="ArialMT-46" d="M 525 0 
L 525 4581 
L 3616 4581 
L 3616 4041 
L 1131 4041 
L 1131 2622 
L 3281 2622 
L 3281 2081 
L 1131 2081 
L 1131 0 
L 525 0 
z
" transform="scale(0.015625)"/>
      <path id="ArialMT-75" d="M 2597 0 
L 2597 488 
Q 2209 -75 1544 -75 
Q 1250 -75 995 37 
Q 741 150 617 320 
Q 494 491 444 738 
Q 409 903 409 1263 
L 409 3319 
L 972 3319 
L 972 1478 
Q 972 1038 1006 884 
Q 1059 663 1231 536 
Q 1403 409 1656 409 
Q 1909 409 2131 539 
Q 2353 669 2445 892 
Q 2538 1116 2538 1541 
L 2538 3319 
L 3100 3319 
L 3100 0 
L 2597 0 
z
" transform="scale(0.015625)"/>
      <path id="ArialMT-6b" d="M 425 0 
L 425 4581 
L 988 4581 
L 988 1969 
L 2319 3319 
L 3047 3319 
L 1778 2088 
L 3175 0 
L 2481 0 
L 1384 1697 
L 988 1316 
L 988 0 
L 425 0 
z
" transform="scale(0.015625)"/>
      <path id="ArialMT-74" d="M 1650 503 
L 1731 6 
Q 1494 -44 1306 -44 
Q 1000 -44 831 53 
Q 663 150 594 308 
Q 525 466 525 972 
L 525 2881 
L 113 2881 
L 113 3319 
L 525 3319 
L 525 4141 
L 1084 4478 
L 1084 3319 
L 1650 3319 
L 1650 2881 
L 1084 2881 
L 1084 941 
Q 1084 700 1114 631 
Q 1144 563 1211 522 
Q 1278 481 1403 481 
Q 1497 481 1650 503 
z
" transform="scale(0.015625)"/>
      <path id="ArialMT-6f" d="M 213 1659 
Q 213 2581 725 3025 
Q 1153 3394 1769 3394 
Q 2453 3394 2887 2945 
Q 3322 2497 3322 1706 
Q 3322 1066 3130 698 
Q 2938 331 2570 128 
Q 2203 -75 1769 -75 
Q 1072 -75 642 372 
Q 213 819 213 1659 
z
M 791 1659 
Q 791 1022 1069 705 
Q 1347 388 1769 388 
Q 2188 388 2466 706 
Q 2744 1025 2744 1678 
Q 2744 2294 2464 2611 
Q 2184 2928 1769 2928 
Q 1347 2928 1069 2612 
Q 791 2297 791 1659 
z
" transform="scale(0.015625)"/>
      <path id="ArialMT-76" d="M 1344 0 
L 81 3319 
L 675 3319 
L 1388 1331 
Q 1503 1009 1600 663 
Q 1675 925 1809 1294 
L 2547 3319 
L 3125 3319 
L 1869 0 
L 1344 0 
z
" transform="scale(0.015625)"/>
      <path id="DejaVuSans-BoldOblique-56" d="M 488 4666 
L 1631 4666 
L 2203 1178 
L 4134 4666 
L 5375 4666 
L 2741 0 
L 1306 0 
L 488 4666 
z
" transform="scale(0.015625)"/>
      <path id="DejaVuSans-BoldOblique-47" d="M 4359 347 
Q 3903 125 3412 17 
Q 2922 -91 2363 -91 
Q 1369 -91 800 414 
Q 231 919 231 1791 
Q 231 2356 409 2851 
Q 588 3347 941 3756 
Q 1372 4256 1958 4503 
Q 2544 4750 3297 4750 
Q 3716 4750 4141 4662 
Q 4566 4575 4978 4403 
L 4794 3438 
Q 4413 3659 4048 3768 
Q 3684 3878 3316 3878 
Q 2509 3878 2003 3340 
Q 1497 2803 1497 1959 
Q 1497 1400 1792 1090 
Q 2088 781 2625 781 
Q 2800 781 2975 804 
Q 3150 828 3328 878 
L 3506 1784 
L 2772 1784 
L 2925 2591 
L 4794 2591 
L 4359 347 
z
" transform="scale(0.015625)"/>
      <path id="DejaVuSans-BoldOblique-54" d="M 488 4666 
L 4788 4666 
L 4609 3756 
L 3059 3756 
L 2328 0 
L 1125 0 
L 1856 3756 
L 306 3756 
L 488 4666 
z
" transform="scale(0.015625)"/>
     </defs>
     <use xlink:href="#ArialMT-47" transform="translate(0 0.09375)"/>
     <use xlink:href="#ArialMT-61" transform="translate(77.783203 0.09375)"/>
     <use xlink:href="#ArialMT-69" transform="translate(133.398438 0.09375)"/>
     <use xlink:href="#ArialMT-6e" transform="translate(155.615234 0.09375)"/>
     <use xlink:href="#ArialMT-20" transform="translate(211.230469 0.09375)"/>
     <use xlink:href="#ArialMT-61" transform="translate(239.013672 0.09375)"/>
     <use xlink:href="#ArialMT-6c" transform="translate(294.628906 0.09375)"/>
     <use xlink:href="#ArialMT-73" transform="translate(316.845703 0.09375)"/>
     <use xlink:href="#ArialMT-20" transform="translate(366.845703 0.09375)"/>
     <use xlink:href="#ArialMT-46" transform="translate(394.628906 0.09375)"/>
     <use xlink:href="#ArialMT-75" transform="translate(455.712891 0.09375)"/>
     <use xlink:href="#ArialMT-6e" transform="translate(511.328125 0.09375)"/>
     <use xlink:href="#ArialMT-6b" transform="translate(566.943359 0.09375)"/>
     <use xlink:href="#ArialMT-74" transform="translate(616.943359 0.09375)"/>
     <use xlink:href="#ArialMT-69" transform="translate(644.726562 0.09375)"/>
     <use xlink:href="#ArialMT-6f" transform="translate(666.943359 0.09375)"/>
     <use xlink:href="#ArialMT-6e" transform="translate(722.558594 0.09375)"/>
     <use xlink:href="#ArialMT-20" transform="translate(778.173828 0.09375)"/>
     <use xlink:href="#ArialMT-76" transform="translate(805.957031 0.09375)"/>
     <use xlink:href="#ArialMT-6f" transform="translate(855.957031 0.09375)"/>
     <use xlink:href="#ArialMT-6e" transform="translate(911.572266 0.09375)"/>
     <use xlink:href="#ArialMT-20" transform="translate(967.1875 0.09375)"/>
     <use xlink:href="#DejaVuSans-BoldOblique-56" transform="translate(994.970703 0.09375)"/>
     <use xlink:href="#DejaVuSans-BoldOblique-47" transform="translate(1072.363281 -16.3125) scale(0.7)"/>
     <use xlink:href="#DejaVuSans-Bold-31" transform="translate(1129.819336 -16.3125) scale(0.7)"/>
     <use xlink:href="#DejaVuSans-BoldOblique-54" transform="translate(1178.525391 -16.3125) scale(0.7)"/>
    </g>
   </g>
   <g id="legend_1">
    <g id="patch_7">
     <path d="M 99.8 174.415 
L 315.19875 174.415 
Q 317.99875 174.415 317.99875 171.615 
L 317.99875 113.48 
Q 317.99875 110.68 315.19875 110.68 
L 99.8 110.68 
Q 97 110.68 97 113.48 
L 97 171.615 
Q 97 174.415 99.8 174.415 
z
" style="fill: #ffffff; opacity: 0.8; stroke: #cccccc; stroke-linejoin: miter"/>
    </g>
    <g id="patch_8">
     <path d="M 102.6 126.300937 
L 130.6 126.300937 
L 130.6 116.500937 
L 102.6 116.500937 
z
" style="fill: #800000; fill-opacity: 0.3; stroke: #800000; stroke-opacity: 0.3; stroke-linejoin: miter"/>
    </g>
    <g id="text_8">
     <!-- 1σ Unsicherheitsbereich -->
     <g transform="translate(141.8 126.300937) scale(0.14 -0.14)">
      <defs>
       <path id="Arial-BoldMT-31" d="M 2519 0 
L 1641 0 
L 1641 3309 
Q 1159 2859 506 2644 
L 506 3441 
Q 850 3553 1253 3867 
Q 1656 4181 1806 4600 
L 2519 4600 
L 2519 0 
z
" transform="scale(0.015625)"/>
       <path id="Arial-BoldMT-3c3" d="M 4228 3319 
L 4228 2591 
L 3425 2591 
Q 3669 2175 3669 1672 
Q 3669 947 3195 436 
Q 2722 -75 1944 -75 
Q 1184 -75 714 400 
Q 244 875 244 1644 
Q 244 2406 705 2900 
Q 1166 3394 1969 3394 
Q 2203 3394 2509 3319 
L 4228 3319 
z
M 1144 1659 
Q 1144 1184 1372 912 
Q 1600 641 1956 641 
Q 2300 641 2533 903 
Q 2766 1166 2766 1675 
Q 2766 2125 2544 2401 
Q 2322 2678 1956 2678 
Q 1597 2678 1370 2406 
Q 1144 2134 1144 1659 
z
" transform="scale(0.015625)"/>
       <path id="Arial-BoldMT-55" d="M 459 4581 
L 1384 4581 
L 1384 2100 
Q 1384 1509 1419 1334 
Q 1478 1053 1701 883 
Q 1925 713 2313 713 
Q 2706 713 2906 873 
Q 3106 1034 3147 1268 
Q 3188 1503 3188 2047 
L 3188 4581 
L 4113 4581 
L 4113 2175 
Q 4113 1350 4038 1009 
Q 3963 669 3761 434 
Q 3559 200 3221 61 
Q 2884 -78 2341 -78 
Q 1684 -78 1345 73 
Q 1006 225 809 467 
Q 613 709 550 975 
Q 459 1369 459 2138 
L 459 4581 
z
" transform="scale(0.015625)"/>
       <path id="Arial-BoldMT-73" d="M 150 947 
L 1031 1081 
Q 1088 825 1259 692 
Q 1431 559 1741 559 
Q 2081 559 2253 684 
Q 2369 772 2369 919 
Q 2369 1019 2306 1084 
Q 2241 1147 2013 1200 
Q 950 1434 666 1628 
Q 272 1897 272 2375 
Q 272 2806 612 3100 
Q 953 3394 1669 3394 
Q 2350 3394 2681 3172 
Q 3013 2950 3138 2516 
L 2309 2363 
Q 2256 2556 2107 2659 
Q 1959 2763 1684 2763 
Q 1338 2763 1188 2666 
Q 1088 2597 1088 2488 
Q 1088 2394 1175 2328 
Q 1294 2241 1995 2081 
Q 2697 1922 2975 1691 
Q 3250 1456 3250 1038 
Q 3250 581 2869 253 
Q 2488 -75 1741 -75 
Q 1063 -75 667 200 
Q 272 475 150 947 
z
" transform="scale(0.015625)"/>
       <path id="Arial-BoldMT-63" d="M 3353 2338 
L 2488 2181 
Q 2444 2441 2289 2572 
Q 2134 2703 1888 2703 
Q 1559 2703 1364 2476 
Q 1169 2250 1169 1719 
Q 1169 1128 1367 884 
Q 1566 641 1900 641 
Q 2150 641 2309 783 
Q 2469 925 2534 1272 
L 3397 1125 
Q 3263 531 2881 228 
Q 2500 -75 1859 -75 
Q 1131 -75 698 384 
Q 266 844 266 1656 
Q 266 2478 700 2936 
Q 1134 3394 1875 3394 
Q 2481 3394 2839 3133 
Q 3197 2872 3353 2338 
z
" transform="scale(0.015625)"/>
       <path id="Arial-BoldMT-68" d="M 1334 4581 
L 1334 2897 
Q 1759 3394 2350 3394 
Q 2653 3394 2897 3281 
Q 3141 3169 3264 2994 
Q 3388 2819 3433 2606 
Q 3478 2394 3478 1947 
L 3478 0 
L 2600 0 
L 2600 1753 
Q 2600 2275 2550 2415 
Q 2500 2556 2373 2639 
Q 2247 2722 2056 2722 
Q 1838 2722 1666 2615 
Q 1494 2509 1414 2295 
Q 1334 2081 1334 1663 
L 1334 0 
L 456 0 
L 456 4581 
L 1334 4581 
z
" transform="scale(0.015625)"/>
       <path id="Arial-BoldMT-65" d="M 2381 1056 
L 3256 909 
Q 3088 428 2723 176 
Q 2359 -75 1813 -75 
Q 947 -75 531 491 
Q 203 944 203 1634 
Q 203 2459 634 2926 
Q 1066 3394 1725 3394 
Q 2466 3394 2894 2905 
Q 3322 2416 3303 1406 
L 1103 1406 
Q 1113 1016 1316 798 
Q 1519 581 1822 581 
Q 2028 581 2168 693 
Q 2309 806 2381 1056 
z
M 2431 1944 
Q 2422 2325 2234 2523 
Q 2047 2722 1778 2722 
Q 1491 2722 1303 2513 
Q 1116 2303 1119 1944 
L 2431 1944 
z
" transform="scale(0.015625)"/>
       <path id="Arial-BoldMT-72" d="M 1300 0 
L 422 0 
L 422 3319 
L 1238 3319 
L 1238 2847 
Q 1447 3181 1614 3287 
Q 1781 3394 1994 3394 
Q 2294 3394 2572 3228 
L 2300 2463 
Q 2078 2606 1888 2606 
Q 1703 2606 1575 2504 
Q 1447 2403 1373 2137 
Q 1300 1872 1300 1025 
L 1300 0 
z
" transform="scale(0.015625)"/>
       <path id="Arial-BoldMT-74" d="M 1981 3319 
L 1981 2619 
L 1381 2619 
L 1381 1281 
Q 1381 875 1398 808 
Q 1416 741 1477 697 
Q 1538 653 1625 653 
Q 1747 653 1978 738 
L 2053 56 
Q 1747 -75 1359 -75 
Q 1122 -75 931 4 
Q 741 84 652 211 
Q 563 338 528 553 
Q 500 706 500 1172 
L 500 2619 
L 97 2619 
L 97 3319 
L 500 3319 
L 500 3978 
L 1381 4491 
L 1381 3319 
L 1981 3319 
z
" transform="scale(0.015625)"/>
       <path id="Arial-BoldMT-62" d="M 422 0 
L 422 4581 
L 1300 4581 
L 1300 2931 
Q 1706 3394 2263 3394 
Q 2869 3394 3266 2955 
Q 3663 2516 3663 1694 
Q 3663 844 3258 384 
Q 2853 -75 2275 -75 
Q 1991 -75 1714 67 
Q 1438 209 1238 488 
L 1238 0 
L 422 0 
z
M 1294 1731 
Q 1294 1216 1456 969 
Q 1684 619 2063 619 
Q 2353 619 2558 867 
Q 2763 1116 2763 1650 
Q 2763 2219 2556 2470 
Q 2350 2722 2028 2722 
Q 1713 2722 1503 2476 
Q 1294 2231 1294 1731 
z
" transform="scale(0.015625)"/>
      </defs>
      <use xlink:href="#Arial-BoldMT-31"/>
      <use xlink:href="#Arial-BoldMT-3c3" x="55.615234"/>
      <use xlink:href="#Arial-BoldMT-20" x="124.023438"/>
      <use xlink:href="#Arial-BoldMT-55" x="151.806641"/>
      <use xlink:href="#Arial-BoldMT-6e" x="224.023438"/>
      <use xlink:href="#Arial-BoldMT-73" x="285.107422"/>
      <use xlink:href="#Arial-BoldMT-69" x="340.722656"/>
      <use xlink:href="#Arial-BoldMT-63" x="368.505859"/>
      <use xlink:href="#Arial-BoldMT-68" x="424.121094"/>
      <use xlink:href="#Arial-BoldMT-65" x="485.205078"/>
      <use xlink:href="#Arial-BoldMT-72" x="540.820312"/>
      <use xlink:href="#Arial-BoldMT-68" x="579.736328"/>
      <use xlink:href="#Arial-BoldMT-65" x="640.820312"/>
      <use xlink:href="#Arial-BoldMT-69" x="696.435547"/>
      <use xlink:href="#Arial-BoldMT-74" x="724.21875"/>
      <use xlink:href="#Arial-BoldMT-73" x="757.519531"/>
      <use xlink:href="#Arial-BoldMT-62" x="813.134766"/>
      <use xlink:href="#Arial-BoldMT-65" x="874.21875"/>
      <use xlink:href="#Arial-BoldMT-72" x="929.833984"/>
      <use xlink:href="#Arial-BoldMT-65" x="968.75"/>
      <use xlink:href="#Arial-BoldMT-69" x="1024.365234"/>
      <use xlink:href="#Arial-BoldMT-63" x="1052.148438"/>
      <use xlink:href="#Arial-BoldMT-68" x="1107.763672"/>
     </g>
    </g>
    <g id="line2d_31">
     <path d="M 102.6 141.184687 
L 116.6 141.184687 
L 130.6 141.184687 
" style="fill: none; stroke: #8b0000; stroke-width: 2; stroke-linecap: square"/>
    </g>
    <g id="text_9">
     <!-- Exponentielle Anpassung -->
     <g transform="translate(141.8 146.084687) scale(0.14 -0.14)">
      <defs>
       <path id="Arial-BoldMT-45" d="M 466 0 
L 466 4581 
L 3863 4581 
L 3863 3806 
L 1391 3806 
L 1391 2791 
L 3691 2791 
L 3691 2019 
L 1391 2019 
L 1391 772 
L 3950 772 
L 3950 0 
L 466 0 
z
" transform="scale(0.015625)"/>
       <path id="Arial-BoldMT-78" d="M 38 0 
L 1234 1709 
L 88 3319 
L 1159 3319 
L 1747 2406 
L 2366 3319 
L 3397 3319 
L 2272 1747 
L 3500 0 
L 2422 0 
L 1747 1028 
L 1066 0 
L 38 0 
z
" transform="scale(0.015625)"/>
       <path id="Arial-BoldMT-70" d="M 434 3319 
L 1253 3319 
L 1253 2831 
Q 1413 3081 1684 3237 
Q 1956 3394 2288 3394 
Q 2866 3394 3269 2941 
Q 3672 2488 3672 1678 
Q 3672 847 3265 386 
Q 2859 -75 2281 -75 
Q 2006 -75 1782 34 
Q 1559 144 1313 409 
L 1313 -1263 
L 434 -1263 
L 434 3319 
z
M 1303 1716 
Q 1303 1156 1525 889 
Q 1747 622 2066 622 
Q 2372 622 2575 867 
Q 2778 1113 2778 1672 
Q 2778 2194 2568 2447 
Q 2359 2700 2050 2700 
Q 1728 2700 1515 2451 
Q 1303 2203 1303 1716 
z
" transform="scale(0.015625)"/>
       <path id="Arial-BoldMT-6f" d="M 256 1706 
Q 256 2144 472 2553 
Q 688 2963 1083 3178 
Q 1478 3394 1966 3394 
Q 2719 3394 3200 2905 
Q 3681 2416 3681 1669 
Q 3681 916 3195 420 
Q 2709 -75 1972 -75 
Q 1516 -75 1102 131 
Q 688 338 472 736 
Q 256 1134 256 1706 
z
M 1156 1659 
Q 1156 1166 1390 903 
Q 1625 641 1969 641 
Q 2313 641 2545 903 
Q 2778 1166 2778 1666 
Q 2778 2153 2545 2415 
Q 2313 2678 1969 2678 
Q 1625 2678 1390 2415 
Q 1156 2153 1156 1659 
z
" transform="scale(0.015625)"/>
       <path id="Arial-BoldMT-6c" d="M 459 0 
L 459 4581 
L 1338 4581 
L 1338 0 
L 459 0 
z
" transform="scale(0.015625)"/>
       <path id="Arial-BoldMT-41" d="M 4597 0 
L 3591 0 
L 3191 1041 
L 1359 1041 
L 981 0 
L 0 0 
L 1784 4581 
L 2763 4581 
L 4597 0 
z
M 2894 1813 
L 2263 3513 
L 1644 1813 
L 2894 1813 
z
" transform="scale(0.015625)"/>
       <path id="Arial-BoldMT-75" d="M 2644 0 
L 2644 497 
Q 2463 231 2167 78 
Q 1872 -75 1544 -75 
Q 1209 -75 943 72 
Q 678 219 559 484 
Q 441 750 441 1219 
L 441 3319 
L 1319 3319 
L 1319 1794 
Q 1319 1094 1367 936 
Q 1416 778 1544 686 
Q 1672 594 1869 594 
Q 2094 594 2272 717 
Q 2450 841 2515 1023 
Q 2581 1206 2581 1919 
L 2581 3319 
L 3459 3319 
L 3459 0 
L 2644 0 
z
" transform="scale(0.015625)"/>
       <path id="Arial-BoldMT-67" d="M 378 -219 
L 1381 -341 
Q 1406 -516 1497 -581 
Q 1622 -675 1891 -675 
Q 2234 -675 2406 -572 
Q 2522 -503 2581 -350 
Q 2622 -241 2622 53 
L 2622 538 
Q 2228 0 1628 0 
Q 959 0 569 566 
Q 263 1013 263 1678 
Q 263 2513 664 2953 
Q 1066 3394 1663 3394 
Q 2278 3394 2678 2853 
L 2678 3319 
L 3500 3319 
L 3500 341 
Q 3500 -247 3403 -537 
Q 3306 -828 3131 -993 
Q 2956 -1159 2664 -1253 
Q 2372 -1347 1925 -1347 
Q 1081 -1347 728 -1058 
Q 375 -769 375 -325 
Q 375 -281 378 -219 
z
M 1163 1728 
Q 1163 1200 1367 954 
Q 1572 709 1872 709 
Q 2194 709 2416 961 
Q 2638 1213 2638 1706 
Q 2638 2222 2425 2472 
Q 2213 2722 1888 2722 
Q 1572 2722 1367 2476 
Q 1163 2231 1163 1728 
z
" transform="scale(0.015625)"/>
      </defs>
      <use xlink:href="#Arial-BoldMT-45"/>
      <use xlink:href="#Arial-BoldMT-78" x="66.699219"/>
      <use xlink:href="#Arial-BoldMT-70" x="122.314453"/>
      <use xlink:href="#Arial-BoldMT-6f" x="183.398438"/>
      <use xlink:href="#Arial-BoldMT-6e" x="244.482422"/>
      <use xlink:href="#Arial-BoldMT-65" x="305.566406"/>
      <use xlink:href="#Arial-BoldMT-6e" x="361.181641"/>
      <use xlink:href="#Arial-BoldMT-74" x="422.265625"/>
      <use xlink:href="#Arial-BoldMT-69" x="455.566406"/>
      <use xlink:href="#Arial-BoldMT-65" x="483.349609"/>
      <use xlink:href="#Arial-BoldMT-6c" x="538.964844"/>
      <use xlink:href="#Arial-BoldMT-6c" x="566.748047"/>
      <use xlink:href="#Arial-BoldMT-65" x="594.53125"/>
      <use xlink:href="#Arial-BoldMT-20" x="650.146484"/>
      <use xlink:href="#Arial-BoldMT-41" x="674.179688"/>
      <use xlink:href="#Arial-BoldMT-6e" x="746.396484"/>
      <use xlink:href="#Arial-BoldMT-70" x="807.480469"/>
      <use xlink:href="#Arial-BoldMT-61" x="868.564453"/>
      <use xlink:href="#Arial-BoldMT-73" x="924.179688"/>
      <use xlink:href="#Arial-BoldMT-73" x="979.794922"/>
      <use xlink:href="#Arial-BoldMT-75" x="1035.410156"/>
      <use xlink:href="#Arial-BoldMT-6e" x="1096.494141"/>
      <use xlink:href="#Arial-BoldMT-67" x="1157.578125"/>
     </g>
    </g>
    <g id="LineCollection_2">
     <path d="M 116.6 168.152187 
L 116.6 154.152187 
" style="fill: none; stroke: #000000; stroke-width: 2"/>
    </g>
    <g id="line2d_32"/>
    <g id="line2d_33">
     <g>
      <use xlink:href="#m6f0ffcc697" x="116.6" y="161.152187" style="stroke: #000000"/>
     </g>
    </g>
    <g id="text_10">
     <!-- Messwerte -->
     <g transform="translate(141.8 166.052187) scale(0.14 -0.14)">
      <defs>
       <path id="Arial-BoldMT-4d" d="M 453 0 
L 453 4581 
L 1838 4581 
L 2669 1456 
L 3491 4581 
L 4878 4581 
L 4878 0 
L 4019 0 
L 4019 3606 
L 3109 0 
L 2219 0 
L 1313 3606 
L 1313 0 
L 453 0 
z
" transform="scale(0.015625)"/>
       <path id="Arial-BoldMT-77" d="M 1078 0 
L 28 3319 
L 881 3319 
L 1503 1144 
L 2075 3319 
L 2922 3319 
L 3475 1144 
L 4109 3319 
L 4975 3319 
L 3909 0 
L 3066 0 
L 2494 2134 
L 1931 0 
L 1078 0 
z
" transform="scale(0.015625)"/>
      </defs>
      <use xlink:href="#Arial-BoldMT-4d"/>
      <use xlink:href="#Arial-BoldMT-65" x="83.300781"/>
      <use xlink:href="#Arial-BoldMT-73" x="138.916016"/>
      <use xlink:href="#Arial-BoldMT-73" x="194.53125"/>
      <use xlink:href="#Arial-BoldMT-77" x="250.146484"/>
      <use xlink:href="#Arial-BoldMT-65" x="327.929688"/>
      <use xlink:href="#Arial-BoldMT-72" x="383.544922"/>
      <use xlink:href="#Arial-BoldMT-74" x="422.460938"/>
      <use xlink:href="#Arial-BoldMT-65" x="455.761719"/>
     </g>
    </g>
   </g>
  </g>
  <g id="axes_2">
   <g id="patch_9">
    <path d="M 90 583.072941 
L 648 583.072941 
L 648 436.32 
L 90 436.32 
z
" style="fill: #ffffff"/>
   </g>
   <g id="PathCollection_1">
    <defs>
     <path id="mf41c7aa148" d="M 0 3 
C 0.795609 3 1.55874 2.683901 2.12132 2.12132 
C 2.683901 1.55874 3 0.795609 3 0 
C 3 -0.795609 2.683901 -1.55874 2.12132 -2.12132 
C 1.55874 -2.683901 0.795609 -3 0 -3 
C -0.795609 -3 -1.55874 -2.683901 -2.12132 -2.12132 
C -2.683901 -1.55874 -3 -0.795609 -3 0 
C -3 0.795609 -2.683901 1.55874 -2.12132 2.12132 
C -1.55874 2.683901 -0.795609 3 0 3 
z
" style="stroke: #800000"/>
    </defs>
    <g clip-path="url(#pe5a2630ad9)">
     <use xlink:href="#mf41c7aa148" x="157.636364" y="576.402353" style="fill: #800000; stroke: #800000"/>
     <use xlink:href="#mf41c7aa148" x="221.045455" y="451.325415" style="fill: #800000; stroke: #800000"/>
     <use xlink:href="#mf41c7aa148" x="284.454545" y="461.690994" style="fill: #800000; stroke: #800000"/>
     <use xlink:href="#mf41c7aa148" x="347.863636" y="520.603944" style="fill: #800000; stroke: #800000"/>
     <use xlink:href="#mf41c7aa148" x="411.272727" y="483.135717" style="fill: #800000; stroke: #800000"/>
     <use xlink:href="#mf41c7aa148" x="495.818182" y="442.990588" style="fill: #800000; stroke: #800000"/>
     <use xlink:href="#mf41c7aa148" x="580.363636" y="477.353925" style="fill: #800000; stroke: #800000"/>
    </g>
   </g>
   <g id="matplotlib.axis_3">
    <g id="xtick_6">
     <g id="line2d_34">
      <path d="M 186.170455 583.072941 
L 186.170455 436.32 
" clip-path="url(#pe5a2630ad9)" style="fill: none; stroke: #b0b0b0; stroke-width: 0.8; stroke-linecap: square"/>
     </g>
     <g id="line2d_35">
      <g>
       <use xlink:href="#m1106740036" x="186.170455" y="583.072941" style="stroke: #000000; stroke-width: 0.8"/>
      </g>
     </g>
    </g>
    <g id="xtick_7">
     <g id="line2d_36">
      <path d="M 291.852273 583.072941 
L 291.852273 436.32 
" clip-path="url(#pe5a2630ad9)" style="fill: none; stroke: #b0b0b0; stroke-width: 0.8; stroke-linecap: square"/>
     </g>
     <g id="line2d_37">
      <g>
       <use xlink:href="#m1106740036" x="291.852273" y="583.072941" style="stroke: #000000; stroke-width: 0.8"/>
      </g>
     </g>
    </g>
    <g id="xtick_8">
     <g id="line2d_38">
      <path d="M 397.534091 583.072941 
L 397.534091 436.32 
" clip-path="url(#pe5a2630ad9)" style="fill: none; stroke: #b0b0b0; stroke-width: 0.8; stroke-linecap: square"/>
     </g>
     <g id="line2d_39">
      <g>
       <use xlink:href="#m1106740036" x="397.534091" y="583.072941" style="stroke: #000000; stroke-width: 0.8"/>
      </g>
     </g>
    </g>
    <g id="xtick_9">
     <g id="line2d_40">
      <path d="M 503.215909 583.072941 
L 503.215909 436.32 
" clip-path="url(#pe5a2630ad9)" style="fill: none; stroke: #b0b0b0; stroke-width: 0.8; stroke-linecap: square"/>
     </g>
     <g id="line2d_41">
      <g>
       <use xlink:href="#m1106740036" x="503.215909" y="583.072941" style="stroke: #000000; stroke-width: 0.8"/>
      </g>
     </g>
    </g>
    <g id="xtick_10">
     <g id="line2d_42">
      <path d="M 608.897727 583.072941 
L 608.897727 436.32 
" clip-path="url(#pe5a2630ad9)" style="fill: none; stroke: #b0b0b0; stroke-width: 0.8; stroke-linecap: square"/>
     </g>
     <g id="line2d_43">
      <g>
       <use xlink:href="#m1106740036" x="608.897727" y="583.072941" style="stroke: #000000; stroke-width: 0.8"/>
      </g>
     </g>
    </g>
   </g>
   <g id="matplotlib.axis_4">
    <g id="ytick_13">
     <g id="line2d_44">
      <path d="M 90 574.996303 
L 648 574.996303 
" clip-path="url(#pe5a2630ad9)" style="fill: none; stroke: #b0b0b0; stroke-width: 0.8; stroke-linecap: square"/>
     </g>
     <g id="line2d_45">
      <g>
       <use xlink:href="#mede58d2678" x="90" y="574.996303" style="stroke: #000000; stroke-width: 0.8"/>
      </g>
     </g>
     <g id="text_11">
      <!-- 36 -->
      <g transform="translate(67.429375 580.006772) scale(0.14 -0.14)">
       <defs>
        <path id="Arial-BoldMT-33" d="M 241 1216 
L 1091 1319 
Q 1131 994 1309 822 
Q 1488 650 1741 650 
Q 2013 650 2198 856 
Q 2384 1063 2384 1413 
Q 2384 1744 2206 1937 
Q 2028 2131 1772 2131 
Q 1603 2131 1369 2066 
L 1466 2781 
Q 1822 2772 2009 2936 
Q 2197 3100 2197 3372 
Q 2197 3603 2059 3740 
Q 1922 3878 1694 3878 
Q 1469 3878 1309 3722 
Q 1150 3566 1116 3266 
L 306 3403 
Q 391 3819 561 4067 
Q 731 4316 1036 4458 
Q 1341 4600 1719 4600 
Q 2366 4600 2756 4188 
Q 3078 3850 3078 3425 
Q 3078 2822 2419 2463 
Q 2813 2378 3048 2084 
Q 3284 1791 3284 1375 
Q 3284 772 2843 347 
Q 2403 -78 1747 -78 
Q 1125 -78 715 280 
Q 306 638 241 1216 
z
" transform="scale(0.015625)"/>
        <path id="Arial-BoldMT-36" d="M 3247 3459 
L 2397 3366 
Q 2366 3628 2234 3753 
Q 2103 3878 1894 3878 
Q 1616 3878 1423 3628 
Q 1231 3378 1181 2588 
Q 1509 2975 1997 2975 
Q 2547 2975 2939 2556 
Q 3331 2138 3331 1475 
Q 3331 772 2918 347 
Q 2506 -78 1859 -78 
Q 1166 -78 719 461 
Q 272 1000 272 2228 
Q 272 3488 737 4044 
Q 1203 4600 1947 4600 
Q 2469 4600 2811 4308 
Q 3153 4016 3247 3459 
z
M 1256 1544 
Q 1256 1116 1453 883 
Q 1650 650 1903 650 
Q 2147 650 2309 840 
Q 2472 1031 2472 1466 
Q 2472 1913 2297 2120 
Q 2122 2328 1859 2328 
Q 1606 2328 1431 2129 
Q 1256 1931 1256 1544 
z
" transform="scale(0.015625)"/>
       </defs>
       <use xlink:href="#Arial-BoldMT-33"/>
       <use xlink:href="#Arial-BoldMT-36" x="55.615234"/>
      </g>
     </g>
    </g>
    <g id="ytick_14">
     <g id="line2d_46">
      <path d="M 90 536.945538 
L 648 536.945538 
" clip-path="url(#pe5a2630ad9)" style="fill: none; stroke: #b0b0b0; stroke-width: 0.8; stroke-linecap: square"/>
     </g>
     <g id="line2d_47">
      <g>
       <use xlink:href="#mede58d2678" x="90" y="536.945538" style="stroke: #000000; stroke-width: 0.8"/>
      </g>
     </g>
     <g id="text_12">
      <!-- 38 -->
      <g transform="translate(67.429375 541.956007) scale(0.14 -0.14)">
       <defs>
        <path id="Arial-BoldMT-38" d="M 1025 2472 
Q 684 2616 529 2867 
Q 375 3119 375 3419 
Q 375 3931 733 4265 
Q 1091 4600 1750 4600 
Q 2403 4600 2764 4265 
Q 3125 3931 3125 3419 
Q 3125 3100 2959 2851 
Q 2794 2603 2494 2472 
Q 2875 2319 3073 2025 
Q 3272 1731 3272 1347 
Q 3272 713 2867 316 
Q 2463 -81 1791 -81 
Q 1166 -81 750 247 
Q 259 634 259 1309 
Q 259 1681 443 1992 
Q 628 2303 1025 2472 
z
M 1206 3356 
Q 1206 3094 1354 2947 
Q 1503 2800 1750 2800 
Q 2000 2800 2150 2948 
Q 2300 3097 2300 3359 
Q 2300 3606 2151 3754 
Q 2003 3903 1759 3903 
Q 1506 3903 1356 3753 
Q 1206 3603 1206 3356 
z
M 1125 1394 
Q 1125 1031 1311 828 
Q 1497 625 1775 625 
Q 2047 625 2225 820 
Q 2403 1016 2403 1384 
Q 2403 1706 2222 1901 
Q 2041 2097 1763 2097 
Q 1441 2097 1283 1875 
Q 1125 1653 1125 1394 
z
" transform="scale(0.015625)"/>
       </defs>
       <use xlink:href="#Arial-BoldMT-33"/>
       <use xlink:href="#Arial-BoldMT-38" x="55.615234"/>
      </g>
     </g>
    </g>
    <g id="ytick_15">
     <g id="line2d_48">
      <path d="M 90 498.894774 
L 648 498.894774 
" clip-path="url(#pe5a2630ad9)" style="fill: none; stroke: #b0b0b0; stroke-width: 0.8; stroke-linecap: square"/>
     </g>
     <g id="line2d_49">
      <g>
       <use xlink:href="#mede58d2678" x="90" y="498.894774" style="stroke: #000000; stroke-width: 0.8"/>
      </g>
     </g>
     <g id="text_13">
      <!-- 40 -->
      <g transform="translate(67.429375 503.905242) scale(0.14 -0.14)">
       <defs>
        <path id="Arial-BoldMT-34" d="M 1994 0 
L 1994 922 
L 119 922 
L 119 1691 
L 2106 4600 
L 2844 4600 
L 2844 1694 
L 3413 1694 
L 3413 922 
L 2844 922 
L 2844 0 
L 1994 0 
z
M 1994 1694 
L 1994 3259 
L 941 1694 
L 1994 1694 
z
" transform="scale(0.015625)"/>
        <path id="Arial-BoldMT-30" d="M 1756 4600 
Q 2422 4600 2797 4125 
Q 3244 3563 3244 2259 
Q 3244 959 2794 391 
Q 2422 -78 1756 -78 
Q 1088 -78 678 436 
Q 269 950 269 2269 
Q 269 3563 719 4131 
Q 1091 4600 1756 4600 
z
M 1756 3872 
Q 1597 3872 1472 3770 
Q 1347 3669 1278 3406 
Q 1188 3066 1188 2259 
Q 1188 1453 1269 1151 
Q 1350 850 1473 750 
Q 1597 650 1756 650 
Q 1916 650 2041 751 
Q 2166 853 2234 1116 
Q 2325 1453 2325 2259 
Q 2325 3066 2244 3367 
Q 2163 3669 2039 3770 
Q 1916 3872 1756 3872 
z
" transform="scale(0.015625)"/>
       </defs>
       <use xlink:href="#Arial-BoldMT-34"/>
       <use xlink:href="#Arial-BoldMT-30" x="55.615234"/>
      </g>
     </g>
    </g>
    <g id="ytick_16">
     <g id="line2d_50">
      <path d="M 90 460.844009 
L 648 460.844009 
" clip-path="url(#pe5a2630ad9)" style="fill: none; stroke: #b0b0b0; stroke-width: 0.8; stroke-linecap: square"/>
     </g>
     <g id="line2d_51">
      <g>
       <use xlink:href="#mede58d2678" x="90" y="460.844009" style="stroke: #000000; stroke-width: 0.8"/>
      </g>
     </g>
     <g id="text_14">
      <!-- 42 -->
      <g transform="translate(67.429375 465.854478) scale(0.14 -0.14)">
       <defs>
        <path id="Arial-BoldMT-32" d="M 3238 816 
L 3238 0 
L 159 0 
Q 209 463 459 877 
Q 709 1291 1447 1975 
Q 2041 2528 2175 2725 
Q 2356 2997 2356 3263 
Q 2356 3556 2198 3714 
Q 2041 3872 1763 3872 
Q 1488 3872 1325 3706 
Q 1163 3541 1138 3156 
L 263 3244 
Q 341 3969 753 4284 
Q 1166 4600 1784 4600 
Q 2463 4600 2850 4234 
Q 3238 3869 3238 3325 
Q 3238 3016 3127 2736 
Q 3016 2456 2775 2150 
Q 2616 1947 2200 1565 
Q 1784 1184 1673 1059 
Q 1563 934 1494 816 
L 3238 816 
z
" transform="scale(0.015625)"/>
       </defs>
       <use xlink:href="#Arial-BoldMT-34"/>
       <use xlink:href="#Arial-BoldMT-32" x="55.615234"/>
      </g>
     </g>
    </g>
    <g id="text_15">
     <!-- Rel. Fehler I [%] -->
     <g transform="translate(60.605312 562.204127) rotate(-90) scale(0.14 -0.14)">
      <defs>
       <path id="Arial-BoldMT-52" d="M 469 0 
L 469 4581 
L 2416 4581 
Q 3150 4581 3483 4457 
Q 3816 4334 4016 4018 
Q 4216 3703 4216 3297 
Q 4216 2781 3912 2445 
Q 3609 2109 3006 2022 
Q 3306 1847 3501 1637 
Q 3697 1428 4028 894 
L 4588 0 
L 3481 0 
L 2813 997 
Q 2456 1531 2325 1670 
Q 2194 1809 2047 1861 
Q 1900 1913 1581 1913 
L 1394 1913 
L 1394 0 
L 469 0 
z
M 1394 2644 
L 2078 2644 
Q 2744 2644 2909 2700 
Q 3075 2756 3169 2893 
Q 3263 3031 3263 3238 
Q 3263 3469 3139 3611 
Q 3016 3753 2791 3791 
Q 2678 3806 2116 3806 
L 1394 3806 
L 1394 2644 
z
" transform="scale(0.015625)"/>
       <path id="Arial-BoldMT-2e" d="M 459 0 
L 459 878 
L 1338 878 
L 1338 0 
L 459 0 
z
" transform="scale(0.015625)"/>
       <path id="Arial-BoldMT-46" d="M 472 0 
L 472 4581 
L 3613 4581 
L 3613 3806 
L 1397 3806 
L 1397 2722 
L 3309 2722 
L 3309 1947 
L 1397 1947 
L 1397 0 
L 472 0 
z
" transform="scale(0.015625)"/>
       <path id="Arial-BoldMT-49" d="M 438 0 
L 438 4581 
L 1363 4581 
L 1363 0 
L 438 0 
z
" transform="scale(0.015625)"/>
       <path id="Arial-BoldMT-5b" d="M 456 -1291 
L 456 4581 
L 2013 4581 
L 2013 3891 
L 1291 3891 
L 1291 -600 
L 2013 -600 
L 2013 -1291 
L 456 -1291 
z
" transform="scale(0.015625)"/>
       <path id="Arial-BoldMT-25" d="M 278 3450 
Q 278 4066 548 4362 
Q 819 4659 1281 4659 
Q 1759 4659 2029 4364 
Q 2300 4069 2300 3450 
Q 2300 2834 2029 2537 
Q 1759 2241 1297 2241 
Q 819 2241 548 2536 
Q 278 2831 278 3450 
z
M 963 3456 
Q 963 3009 1066 2856 
Q 1144 2744 1281 2744 
Q 1422 2744 1500 2856 
Q 1600 3009 1600 3456 
Q 1600 3903 1500 4053 
Q 1422 4169 1281 4169 
Q 1144 4169 1066 4056 
Q 963 3903 963 3456 
z
M 1950 -175 
L 1300 -175 
L 3741 4659 
L 4372 4659 
L 1950 -175 
z
M 3369 1028 
Q 3369 1644 3639 1941 
Q 3909 2238 4378 2238 
Q 4850 2238 5120 1941 
Q 5391 1644 5391 1028 
Q 5391 409 5120 112 
Q 4850 -184 4388 -184 
Q 3909 -184 3639 112 
Q 3369 409 3369 1028 
z
M 4053 1031 
Q 4053 584 4156 434 
Q 4234 319 4372 319 
Q 4513 319 4588 431 
Q 4691 584 4691 1031 
Q 4691 1478 4591 1631 
Q 4513 1744 4372 1744 
Q 4231 1744 4156 1631 
Q 4053 1478 4053 1031 
z
" transform="scale(0.015625)"/>
       <path id="Arial-BoldMT-5d" d="M 1675 4581 
L 1675 -1291 
L 119 -1291 
L 119 -600 
L 841 -600 
L 841 3897 
L 119 3897 
L 119 4581 
L 1675 4581 
z
" transform="scale(0.015625)"/>
      </defs>
      <use xlink:href="#Arial-BoldMT-52"/>
      <use xlink:href="#Arial-BoldMT-65" x="72.216797"/>
      <use xlink:href="#Arial-BoldMT-6c" x="127.832031"/>
      <use xlink:href="#Arial-BoldMT-2e" x="155.615234"/>
      <use xlink:href="#Arial-BoldMT-20" x="183.398438"/>
      <use xlink:href="#Arial-BoldMT-46" x="211.181641"/>
      <use xlink:href="#Arial-BoldMT-65" x="272.265625"/>
      <use xlink:href="#Arial-BoldMT-68" x="327.880859"/>
      <use xlink:href="#Arial-BoldMT-6c" x="388.964844"/>
      <use xlink:href="#Arial-BoldMT-65" x="416.748047"/>
      <use xlink:href="#Arial-BoldMT-72" x="472.363281"/>
      <use xlink:href="#Arial-BoldMT-20" x="511.279297"/>
      <use xlink:href="#Arial-BoldMT-49" x="539.0625"/>
      <use xlink:href="#Arial-BoldMT-20" x="566.845703"/>
      <use xlink:href="#Arial-BoldMT-5b" x="594.628906"/>
      <use xlink:href="#Arial-BoldMT-25" x="627.929688"/>
      <use xlink:href="#Arial-BoldMT-5d" x="716.845703"/>
     </g>
    </g>
   </g>
   <g id="patch_10">
    <path d="M 90 583.072941 
L 90 436.32 
" style="fill: none; stroke: #000000; stroke-width: 1.2; stroke-linejoin: miter; stroke-linecap: square"/>
   </g>
   <g id="patch_11">
    <path d="M 648 583.072941 
L 648 436.32 
" style="fill: none; stroke: #000000; stroke-width: 1.2; stroke-linejoin: miter; stroke-linecap: square"/>
   </g>
   <g id="patch_12">
    <path d="M 90 583.072941 
L 648 583.072941 
" style="fill: none; stroke: #000000; stroke-width: 1.2; stroke-linejoin: miter; stroke-linecap: square"/>
   </g>
   <g id="patch_13">
    <path d="M 90 436.32 
L 648 436.32 
" style="fill: none; stroke: #000000; stroke-width: 1.2; stroke-linejoin: miter; stroke-linecap: square"/>
   </g>
   <g id="legend_2">
    <g id="patch_14">
     <path d="M 99.8 467.658125 
L 336.74125 467.658125 
Q 339.54125 467.658125 339.54125 464.858125 
L 339.54125 446.12 
Q 339.54125 443.32 336.74125 443.32 
L 99.8 443.32 
Q 97 443.32 97 446.12 
L 97 464.858125 
Q 97 467.658125 99.8 467.658125 
z
" style="fill: #ffffff; opacity: 0.8; stroke: #cccccc; stroke-linejoin: miter"/>
    </g>
    <g id="PathCollection_2">
     <g>
      <use xlink:href="#mf41c7aa148" x="116.6" y="455.436562" style="fill: #800000; stroke: #800000"/>
     </g>
    </g>
    <g id="text_16">
     <!-- Rel. Fehler Strom (Quelle an) -->
     <g transform="translate(141.8 459.111562) scale(0.14 -0.14)">
      <defs>
       <path id="Arial-BoldMT-53" d="M 231 1491 
L 1131 1578 
Q 1213 1125 1461 912 
Q 1709 700 2131 700 
Q 2578 700 2804 889 
Q 3031 1078 3031 1331 
Q 3031 1494 2936 1608 
Q 2841 1722 2603 1806 
Q 2441 1863 1863 2006 
Q 1119 2191 819 2459 
Q 397 2838 397 3381 
Q 397 3731 595 4036 
Q 794 4341 1167 4500 
Q 1541 4659 2069 4659 
Q 2931 4659 3367 4281 
Q 3803 3903 3825 3272 
L 2900 3231 
Q 2841 3584 2645 3739 
Q 2450 3894 2059 3894 
Q 1656 3894 1428 3728 
Q 1281 3622 1281 3444 
Q 1281 3281 1419 3166 
Q 1594 3019 2269 2859 
Q 2944 2700 3267 2529 
Q 3591 2359 3773 2064 
Q 3956 1769 3956 1334 
Q 3956 941 3737 597 
Q 3519 253 3119 86 
Q 2719 -81 2122 -81 
Q 1253 -81 787 320 
Q 322 722 231 1491 
z
" transform="scale(0.015625)"/>
       <path id="Arial-BoldMT-6d" d="M 394 3319 
L 1203 3319 
L 1203 2866 
Q 1638 3394 2238 3394 
Q 2556 3394 2790 3262 
Q 3025 3131 3175 2866 
Q 3394 3131 3647 3262 
Q 3900 3394 4188 3394 
Q 4553 3394 4806 3245 
Q 5059 3097 5184 2809 
Q 5275 2597 5275 2122 
L 5275 0 
L 4397 0 
L 4397 1897 
Q 4397 2391 4306 2534 
Q 4184 2722 3931 2722 
Q 3747 2722 3584 2609 
Q 3422 2497 3350 2280 
Q 3278 2063 3278 1594 
L 3278 0 
L 2400 0 
L 2400 1819 
Q 2400 2303 2353 2443 
Q 2306 2584 2207 2653 
Q 2109 2722 1941 2722 
Q 1738 2722 1575 2612 
Q 1413 2503 1342 2297 
Q 1272 2091 1272 1613 
L 1272 0 
L 394 0 
L 394 3319 
z
" transform="scale(0.015625)"/>
       <path id="Arial-BoldMT-28" d="M 1916 -1347 
L 1313 -1347 
Q 834 -625 584 153 
Q 334 931 334 1659 
Q 334 2563 644 3369 
Q 913 4069 1325 4659 
L 1925 4659 
Q 1497 3713 1336 3048 
Q 1175 2384 1175 1641 
Q 1175 1128 1270 590 
Q 1366 53 1531 -431 
Q 1641 -750 1916 -1347 
z
" transform="scale(0.015625)"/>
       <path id="Arial-BoldMT-51" d="M 4153 581 
Q 4494 338 4894 194 
L 4553 -459 
Q 4344 -397 4144 -288 
Q 4100 -266 3528 119 
Q 3078 -78 2531 -78 
Q 1475 -78 876 544 
Q 278 1166 278 2291 
Q 278 3413 878 4036 
Q 1478 4659 2506 4659 
Q 3525 4659 4122 4036 
Q 4719 3413 4719 2291 
Q 4719 1697 4553 1247 
Q 4428 903 4153 581 
z
M 3409 1103 
Q 3588 1313 3677 1609 
Q 3766 1906 3766 2291 
Q 3766 3084 3416 3476 
Q 3066 3869 2500 3869 
Q 1934 3869 1582 3475 
Q 1231 3081 1231 2291 
Q 1231 1488 1582 1089 
Q 1934 691 2472 691 
Q 2672 691 2850 756 
Q 2569 941 2278 1044 
L 2538 1572 
Q 2994 1416 3409 1103 
z
" transform="scale(0.015625)"/>
       <path id="Arial-BoldMT-29" d="M 216 -1347 
Q 475 -791 581 -494 
Q 688 -197 778 190 
Q 869 578 912 926 
Q 956 1275 956 1641 
Q 956 2384 797 3048 
Q 638 3713 209 4659 
L 806 4659 
Q 1278 3988 1539 3234 
Q 1800 2481 1800 1706 
Q 1800 1053 1594 306 
Q 1359 -531 822 -1347 
L 216 -1347 
z
" transform="scale(0.015625)"/>
      </defs>
      <use xlink:href="#Arial-BoldMT-52"/>
      <use xlink:href="#Arial-BoldMT-65" x="72.216797"/>
      <use xlink:href="#Arial-BoldMT-6c" x="127.832031"/>
      <use xlink:href="#Arial-BoldMT-2e" x="155.615234"/>
      <use xlink:href="#Arial-BoldMT-20" x="183.398438"/>
      <use xlink:href="#Arial-BoldMT-46" x="211.181641"/>
      <use xlink:href="#Arial-BoldMT-65" x="272.265625"/>
      <use xlink:href="#Arial-BoldMT-68" x="327.880859"/>
      <use xlink:href="#Arial-BoldMT-6c" x="388.964844"/>
      <use xlink:href="#Arial-BoldMT-65" x="416.748047"/>
      <use xlink:href="#Arial-BoldMT-72" x="472.363281"/>
      <use xlink:href="#Arial-BoldMT-20" x="511.279297"/>
      <use xlink:href="#Arial-BoldMT-53" x="539.0625"/>
      <use xlink:href="#Arial-BoldMT-74" x="605.761719"/>
      <use xlink:href="#Arial-BoldMT-72" x="639.0625"/>
      <use xlink:href="#Arial-BoldMT-6f" x="677.978516"/>
      <use xlink:href="#Arial-BoldMT-6d" x="739.0625"/>
      <use xlink:href="#Arial-BoldMT-20" x="827.978516"/>
      <use xlink:href="#Arial-BoldMT-28" x="855.761719"/>
      <use xlink:href="#Arial-BoldMT-51" x="889.0625"/>
      <use xlink:href="#Arial-BoldMT-75" x="966.845703"/>
      <use xlink:href="#Arial-BoldMT-65" x="1027.929688"/>
      <use xlink:href="#Arial-BoldMT-6c" x="1083.544922"/>
      <use xlink:href="#Arial-BoldMT-6c" x="1111.328125"/>
      <use xlink:href="#Arial-BoldMT-65" x="1139.111328"/>
      <use xlink:href="#Arial-BoldMT-20" x="1194.726562"/>
      <use xlink:href="#Arial-BoldMT-61" x="1222.509766"/>
      <use xlink:href="#Arial-BoldMT-6e" x="1278.125"/>
      <use xlink:href="#Arial-BoldMT-29" x="1339.208984"/>
     </g>
    </g>
   </g>
  </g>
  <g id="axes_3">
   <g id="patch_15">
    <path d="M 90 768.96 
L 648 768.96 
L 648 622.207059 
L 90 622.207059 
z
" style="fill: #ffffff"/>
   </g>
   <g id="PathCollection_3">
    <g clip-path="url(#p55ae45c295)">
     <use xlink:href="#mf41c7aa148" x="157.636364" y="641.265645" style="fill: #800000; stroke: #800000"/>
     <use xlink:href="#mf41c7aa148" x="221.045455" y="721.356547" style="fill: #800000; stroke: #800000"/>
     <use xlink:href="#mf41c7aa148" x="284.454545" y="762.289412" style="fill: #800000; stroke: #800000"/>
     <use xlink:href="#mf41c7aa148" x="347.863636" y="744.46279" style="fill: #800000; stroke: #800000"/>
     <use xlink:href="#mf41c7aa148" x="411.272727" y="628.877647" style="fill: #800000; stroke: #800000"/>
     <use xlink:href="#mf41c7aa148" x="495.818182" y="722.76982" style="fill: #800000; stroke: #800000"/>
     <use xlink:href="#mf41c7aa148" x="580.363636" y="727.001711" style="fill: #800000; stroke: #800000"/>
    </g>
   </g>
   <g id="matplotlib.axis_5">
    <g id="xtick_11">
     <g id="line2d_52">
      <path d="M 186.170455 768.96 
L 186.170455 622.207059 
" clip-path="url(#p55ae45c295)" style="fill: none; stroke: #b0b0b0; stroke-width: 0.8; stroke-linecap: square"/>
     </g>
     <g id="line2d_53">
      <g>
       <use xlink:href="#m1106740036" x="186.170455" y="768.96" style="stroke: #000000; stroke-width: 0.8"/>
      </g>
     </g>
     <g id="text_17">
      <!-- 430 -->
      <g transform="translate(174.492486 785.980937) scale(0.14 -0.14)">
       <use xlink:href="#Arial-BoldMT-34"/>
       <use xlink:href="#Arial-BoldMT-33" x="55.615234"/>
       <use xlink:href="#Arial-BoldMT-30" x="111.230469"/>
      </g>
     </g>
    </g>
    <g id="xtick_12">
     <g id="line2d_54">
      <path d="M 291.852273 768.96 
L 291.852273 622.207059 
" clip-path="url(#p55ae45c295)" style="fill: none; stroke: #b0b0b0; stroke-width: 0.8; stroke-linecap: square"/>
     </g>
     <g id="line2d_55">
      <g>
       <use xlink:href="#m1106740036" x="291.852273" y="768.96" style="stroke: #000000; stroke-width: 0.8"/>
      </g>
     </g>
     <g id="text_18">
      <!-- 435 -->
      <g transform="translate(280.174304 785.980937) scale(0.14 -0.14)">
       <defs>
        <path id="Arial-BoldMT-35" d="M 284 1178 
L 1159 1269 
Q 1197 972 1381 798 
Q 1566 625 1806 625 
Q 2081 625 2272 848 
Q 2463 1072 2463 1522 
Q 2463 1944 2273 2155 
Q 2084 2366 1781 2366 
Q 1403 2366 1103 2031 
L 391 2134 
L 841 4519 
L 3163 4519 
L 3163 3697 
L 1506 3697 
L 1369 2919 
Q 1663 3066 1969 3066 
Q 2553 3066 2959 2641 
Q 3366 2216 3366 1538 
Q 3366 972 3038 528 
Q 2591 -78 1797 -78 
Q 1163 -78 763 262 
Q 363 603 284 1178 
z
" transform="scale(0.015625)"/>
       </defs>
       <use xlink:href="#Arial-BoldMT-34"/>
       <use xlink:href="#Arial-BoldMT-33" x="55.615234"/>
       <use xlink:href="#Arial-BoldMT-35" x="111.230469"/>
      </g>
     </g>
    </g>
    <g id="xtick_13">
     <g id="line2d_56">
      <path d="M 397.534091 768.96 
L 397.534091 622.207059 
" clip-path="url(#p55ae45c295)" style="fill: none; stroke: #b0b0b0; stroke-width: 0.8; stroke-linecap: square"/>
     </g>
     <g id="line2d_57">
      <g>
       <use xlink:href="#m1106740036" x="397.534091" y="768.96" style="stroke: #000000; stroke-width: 0.8"/>
      </g>
     </g>
     <g id="text_19">
      <!-- 440 -->
      <g transform="translate(385.856122 785.980937) scale(0.14 -0.14)">
       <use xlink:href="#Arial-BoldMT-34"/>
       <use xlink:href="#Arial-BoldMT-34" x="55.615234"/>
       <use xlink:href="#Arial-BoldMT-30" x="111.230469"/>
      </g>
     </g>
    </g>
    <g id="xtick_14">
     <g id="line2d_58">
      <path d="M 503.215909 768.96 
L 503.215909 622.207059 
" clip-path="url(#p55ae45c295)" style="fill: none; stroke: #b0b0b0; stroke-width: 0.8; stroke-linecap: square"/>
     </g>
     <g id="line2d_59">
      <g>
       <use xlink:href="#m1106740036" x="503.215909" y="768.96" style="stroke: #000000; stroke-width: 0.8"/>
      </g>
     </g>
     <g id="text_20">
      <!-- 445 -->
      <g transform="translate(491.53794 785.980937) scale(0.14 -0.14)">
       <use xlink:href="#Arial-BoldMT-34"/>
       <use xlink:href="#Arial-BoldMT-34" x="55.615234"/>
       <use xlink:href="#Arial-BoldMT-35" x="111.230469"/>
      </g>
     </g>
    </g>
    <g id="xtick_15">
     <g id="line2d_60">
      <path d="M 608.897727 768.96 
L 608.897727 622.207059 
" clip-path="url(#p55ae45c295)" style="fill: none; stroke: #b0b0b0; stroke-width: 0.8; stroke-linecap: square"/>
     </g>
     <g id="line2d_61">
      <g>
       <use xlink:href="#m1106740036" x="608.897727" y="768.96" style="stroke: #000000; stroke-width: 0.8"/>
      </g>
     </g>
     <g id="text_21">
      <!-- 450 -->
      <g transform="translate(597.219759 785.980937) scale(0.14 -0.14)">
       <use xlink:href="#Arial-BoldMT-34"/>
       <use xlink:href="#Arial-BoldMT-35" x="55.615234"/>
       <use xlink:href="#Arial-BoldMT-30" x="111.230469"/>
      </g>
     </g>
    </g>
    <g id="text_22">
     <!-- Spannung $V_{Drift}$ [V] -->
     <g transform="translate(303.27 802.96375) scale(0.14 -0.14)">
      <defs>
       <path id="DejaVuSans-BoldOblique-44" d="M 2075 3756 
L 1516 909 
L 1947 909 
Q 2788 909 3278 1381 
Q 3769 1853 3769 2656 
Q 3769 3200 3448 3478 
Q 3128 3756 2497 3756 
L 2075 3756 
z
M 1044 4666 
L 2309 4666 
Q 3216 4666 3669 4558 
Q 4122 4450 4422 4197 
Q 4725 3944 4878 3583 
Q 5031 3222 5031 2766 
Q 5031 2131 4770 1570 
Q 4509 1009 4038 628 
Q 3625 288 3079 144 
Q 2534 0 1403 0 
L 134 0 
L 1044 4666 
z
" transform="scale(0.015625)"/>
       <path id="DejaVuSans-BoldOblique-72" d="M 3291 2547 
Q 3175 2613 3034 2647 
Q 2894 2681 2731 2681 
Q 2303 2681 2020 2406 
Q 1738 2131 1638 1613 
L 1319 0 
L 197 0 
L 878 3500 
L 2003 3500 
L 1881 2900 
Q 2103 3231 2436 3407 
Q 2769 3584 3175 3584 
Q 3234 3584 3309 3578 
Q 3384 3572 3488 3559 
L 3291 2547 
z
" transform="scale(0.015625)"/>
       <path id="DejaVuSans-BoldOblique-69" d="M 878 3500 
L 2003 3500 
L 1319 0 
L 197 0 
L 878 3500 
z
M 1141 4863 
L 2266 4863 
L 2088 3950 
L 959 3950 
L 1141 4863 
z
" transform="scale(0.015625)"/>
       <path id="DejaVuSans-BoldOblique-66" d="M 3456 4863 
L 3309 4128 
L 2694 4128 
Q 2459 4128 2351 4042 
Q 2244 3956 2203 3747 
L 2150 3500 
L 3097 3500 
L 2944 2700 
L 1997 2700 
L 1472 0 
L 347 0 
L 872 2700 
L 319 2700 
L 475 3500 
L 1025 3500 
L 1075 3744 
Q 1191 4325 1556 4594 
Q 1922 4863 2597 4863 
L 3456 4863 
z
" transform="scale(0.015625)"/>
       <path id="DejaVuSans-BoldOblique-74" d="M 2303 4494 
L 2113 3500 
L 3256 3500 
L 3097 2700 
L 1953 2700 
L 1666 1219 
Q 1653 1169 1648 1134 
Q 1644 1100 1644 1069 
Q 1644 925 1739 862 
Q 1834 800 2059 800 
L 2638 800 
L 2478 0 
L 1538 0 
Q 1031 0 765 212 
Q 500 425 500 825 
Q 500 913 509 1013 
Q 519 1113 538 1216 
L 825 2700 
L 275 2700 
L 428 3500 
L 984 3500 
L 1178 4494 
L 2303 4494 
z
" transform="scale(0.015625)"/>
       <path id="Arial-BoldMT-56" d="M 1634 0 
L -3 4581 
L 1000 4581 
L 2159 1191 
L 3281 4581 
L 4263 4581 
L 2622 0 
L 1634 0 
z
" transform="scale(0.015625)"/>
      </defs>
      <use xlink:href="#Arial-BoldMT-53" transform="translate(0 0.09375)"/>
      <use xlink:href="#Arial-BoldMT-70" transform="translate(66.699219 0.09375)"/>
      <use xlink:href="#Arial-BoldMT-61" transform="translate(127.783203 0.09375)"/>
      <use xlink:href="#Arial-BoldMT-6e" transform="translate(183.398438 0.09375)"/>
      <use xlink:href="#Arial-BoldMT-6e" transform="translate(244.482422 0.09375)"/>
      <use xlink:href="#Arial-BoldMT-75" transform="translate(305.566406 0.09375)"/>
      <use xlink:href="#Arial-BoldMT-6e" transform="translate(366.650391 0.09375)"/>
      <use xlink:href="#Arial-BoldMT-67" transform="translate(427.734375 0.09375)"/>
      <use xlink:href="#Arial-BoldMT-20" transform="translate(488.818359 0.09375)"/>
      <use xlink:href="#DejaVuSans-BoldOblique-56" transform="translate(516.601562 0.09375)"/>
      <use xlink:href="#DejaVuSans-BoldOblique-44" transform="translate(593.994141 -16.3125) scale(0.7)"/>
      <use xlink:href="#DejaVuSans-BoldOblique-72" transform="translate(652.099609 -16.3125) scale(0.7)"/>
      <use xlink:href="#DejaVuSans-BoldOblique-69" transform="translate(686.621094 -16.3125) scale(0.7)"/>
      <use xlink:href="#DejaVuSans-BoldOblique-66" transform="translate(710.615234 -16.3125) scale(0.7)"/>
      <use xlink:href="#DejaVuSans-BoldOblique-74" transform="translate(741.069336 -16.3125) scale(0.7)"/>
      <use xlink:href="#Arial-BoldMT-20" transform="translate(777.265625 0.09375)"/>
      <use xlink:href="#Arial-BoldMT-5b" transform="translate(805.048828 0.09375)"/>
      <use xlink:href="#Arial-BoldMT-56" transform="translate(838.349609 0.09375)"/>
      <use xlink:href="#Arial-BoldMT-5d" transform="translate(905.048828 0.09375)"/>
     </g>
    </g>
   </g>
   <g id="matplotlib.axis_6">
    <g id="ytick_17">
     <g id="line2d_62">
      <path d="M 90 752.544385 
L 648 752.544385 
" clip-path="url(#p55ae45c295)" style="fill: none; stroke: #b0b0b0; stroke-width: 0.8; stroke-linecap: square"/>
     </g>
     <g id="line2d_63">
      <g>
       <use xlink:href="#mede58d2678" x="90" y="752.544385" style="stroke: #000000; stroke-width: 0.8"/>
      </g>
     </g>
     <g id="text_23">
      <!-- 7 -->
      <g transform="translate(75.214687 757.554854) scale(0.14 -0.14)">
       <defs>
        <path id="Arial-BoldMT-37" d="M 272 3703 
L 272 4519 
L 3275 4519 
L 3275 3881 
Q 2903 3516 2518 2831 
Q 2134 2147 1932 1376 
Q 1731 606 1734 0 
L 888 0 
Q 909 950 1279 1937 
Q 1650 2925 2269 3703 
L 272 3703 
z
" transform="scale(0.015625)"/>
       </defs>
       <use xlink:href="#Arial-BoldMT-37"/>
      </g>
     </g>
    </g>
    <g id="ytick_18">
     <g id="line2d_64">
      <path d="M 90 695.99706 
L 648 695.99706 
" clip-path="url(#p55ae45c295)" style="fill: none; stroke: #b0b0b0; stroke-width: 0.8; stroke-linecap: square"/>
     </g>
     <g id="line2d_65">
      <g>
       <use xlink:href="#mede58d2678" x="90" y="695.99706" style="stroke: #000000; stroke-width: 0.8"/>
      </g>
     </g>
     <g id="text_24">
      <!-- 8 -->
      <g transform="translate(75.214687 701.007529) scale(0.14 -0.14)">
       <use xlink:href="#Arial-BoldMT-38"/>
      </g>
     </g>
    </g>
    <g id="ytick_19">
     <g id="line2d_66">
      <path d="M 90 639.449736 
L 648 639.449736 
" clip-path="url(#p55ae45c295)" style="fill: none; stroke: #b0b0b0; stroke-width: 0.8; stroke-linecap: square"/>
     </g>
     <g id="line2d_67">
      <g>
       <use xlink:href="#mede58d2678" x="90" y="639.449736" style="stroke: #000000; stroke-width: 0.8"/>
      </g>
     </g>
     <g id="text_25">
      <!-- 9 -->
      <g transform="translate(75.214687 644.460204) scale(0.14 -0.14)">
       <defs>
        <path id="Arial-BoldMT-39" d="M 291 1059 
L 1141 1153 
Q 1172 894 1303 769 
Q 1434 644 1650 644 
Q 1922 644 2112 894 
Q 2303 1144 2356 1931 
Q 2025 1547 1528 1547 
Q 988 1547 595 1964 
Q 203 2381 203 3050 
Q 203 3747 617 4173 
Q 1031 4600 1672 4600 
Q 2369 4600 2816 4061 
Q 3263 3522 3263 2288 
Q 3263 1031 2797 475 
Q 2331 -81 1584 -81 
Q 1047 -81 715 205 
Q 384 491 291 1059 
z
M 2278 2978 
Q 2278 3403 2083 3637 
Q 1888 3872 1631 3872 
Q 1388 3872 1227 3680 
Q 1066 3488 1066 3050 
Q 1066 2606 1241 2398 
Q 1416 2191 1678 2191 
Q 1931 2191 2104 2391 
Q 2278 2591 2278 2978 
z
" transform="scale(0.015625)"/>
       </defs>
       <use xlink:href="#Arial-BoldMT-39"/>
      </g>
     </g>
    </g>
    <g id="text_26">
     <!-- Rel. Fehler $I_{aus}$ [%] -->
     <g transform="translate(68.274687 758.723529) rotate(-90) scale(0.14 -0.14)">
      <defs>
       <path id="DejaVuSans-BoldOblique-49" d="M 1044 4666 
L 2247 4666 
L 1338 0 
L 134 0 
L 1044 4666 
z
" transform="scale(0.015625)"/>
       <path id="DejaVuSans-BoldOblique-61" d="M 2106 1575 
Q 1688 1575 1473 1445 
Q 1259 1316 1259 1063 
Q 1259 872 1386 762 
Q 1513 653 1734 653 
Q 2078 653 2309 861 
Q 2541 1069 2619 1447 
L 2644 1575 
L 2106 1575 
z
M 3853 1997 
L 3463 0 
L 2344 0 
L 2438 519 
Q 2163 206 1856 57 
Q 1550 -91 1191 -91 
Q 694 -91 401 167 
Q 109 425 109 863 
Q 109 1531 626 1886 
Q 1144 2241 2119 2241 
L 2778 2241 
L 2791 2328 
Q 2800 2372 2801 2390 
Q 2803 2409 2803 2425 
Q 2803 2631 2608 2736 
Q 2413 2841 2028 2841 
Q 1681 2841 1356 2769 
Q 1031 2697 728 2553 
L 897 3406 
Q 1247 3494 1614 3539 
Q 1981 3584 2375 3584 
Q 3153 3584 3531 3317 
Q 3909 3050 3909 2503 
Q 3909 2397 3895 2270 
Q 3881 2144 3853 1997 
z
" transform="scale(0.015625)"/>
       <path id="DejaVuSans-BoldOblique-75" d="M 434 1363 
L 844 3500 
L 1966 3500 
L 1613 1678 
Q 1575 1500 1556 1375 
Q 1538 1250 1538 1178 
Q 1538 981 1647 872 
Q 1756 763 1959 763 
Q 2306 763 2556 1031 
Q 2806 1300 2900 1778 
L 3238 3500 
L 4359 3500 
L 3681 0 
L 2553 0 
L 2656 513 
Q 2369 209 2053 59 
Q 1738 -91 1388 -91 
Q 909 -91 646 162 
Q 384 416 384 878 
Q 384 988 396 1109 
Q 409 1231 434 1363 
z
" transform="scale(0.015625)"/>
       <path id="DejaVuSans-BoldOblique-73" d="M 3584 3391 
L 3419 2522 
Q 3091 2678 2766 2759 
Q 2441 2841 2150 2841 
Q 1819 2841 1639 2755 
Q 1459 2669 1459 2509 
Q 1459 2416 1559 2359 
Q 1659 2303 1953 2241 
L 2156 2203 
Q 2834 2059 3106 1832 
Q 3378 1606 3378 1203 
Q 3378 594 2900 251 
Q 2422 -91 1563 -91 
Q 1203 -91 828 -34 
Q 453 22 63 134 
L 231 1013 
Q 534 834 879 743 
Q 1225 653 1588 653 
Q 1941 653 2119 737 
Q 2297 822 2297 984 
Q 2297 1097 2197 1159 
Q 2097 1222 1784 1288 
L 1581 1325 
Q 981 1450 725 1694 
Q 469 1938 469 2369 
Q 469 2953 911 3268 
Q 1353 3584 2175 3584 
Q 2534 3584 2882 3536 
Q 3231 3488 3584 3391 
z
" transform="scale(0.015625)"/>
      </defs>
      <use xlink:href="#Arial-BoldMT-52" transform="translate(0 0.09375)"/>
      <use xlink:href="#Arial-BoldMT-65" transform="translate(72.216797 0.09375)"/>
      <use xlink:href="#Arial-BoldMT-6c" transform="translate(127.832031 0.09375)"/>
      <use xlink:href="#Arial-BoldMT-2e" transform="translate(155.615234 0.09375)"/>
      <use xlink:href="#Arial-BoldMT-20" transform="translate(183.398438 0.09375)"/>
      <use xlink:href="#Arial-BoldMT-46" transform="translate(211.181641 0.09375)"/>
      <use xlink:href="#Arial-BoldMT-65" transform="translate(272.265625 0.09375)"/>
      <use xlink:href="#Arial-BoldMT-68" transform="translate(327.880859 0.09375)"/>
      <use xlink:href="#Arial-BoldMT-6c" transform="translate(388.964844 0.09375)"/>
      <use xlink:href="#Arial-BoldMT-65" transform="translate(416.748047 0.09375)"/>
      <use xlink:href="#Arial-BoldMT-72" transform="translate(472.363281 0.09375)"/>
      <use xlink:href="#Arial-BoldMT-20" transform="translate(511.279297 0.09375)"/>
      <use xlink:href="#DejaVuSans-BoldOblique-49" transform="translate(539.0625 0.09375)"/>
      <use xlink:href="#DejaVuSans-BoldOblique-61" transform="translate(576.269531 -16.3125) scale(0.7)"/>
      <use xlink:href="#DejaVuSans-BoldOblique-75" transform="translate(623.505859 -16.3125) scale(0.7)"/>
      <use xlink:href="#DejaVuSans-BoldOblique-73" transform="translate(673.339844 -16.3125) scale(0.7)"/>
      <use xlink:href="#Arial-BoldMT-20" transform="translate(717.739258 0.09375)"/>
      <use xlink:href="#Arial-BoldMT-5b" transform="translate(745.522461 0.09375)"/>
      <use xlink:href="#Arial-BoldMT-25" transform="translate(778.823242 0.09375)"/>
      <use xlink:href="#Arial-BoldMT-5d" transform="translate(867.739258 0.09375)"/>
     </g>
    </g>
   </g>
   <g id="patch_16">
    <path d="M 90 768.96 
L 90 622.207059 
" style="fill: none; stroke: #000000; stroke-width: 1.2; stroke-linejoin: miter; stroke-linecap: square"/>
   </g>
   <g id="patch_17">
    <path d="M 648 768.96 
L 648 622.207059 
" style="fill: none; stroke: #000000; stroke-width: 1.2; stroke-linejoin: miter; stroke-linecap: square"/>
   </g>
   <g id="patch_18">
    <path d="M 90 768.96 
L 648 768.96 
" style="fill: none; stroke: #000000; stroke-width: 1.2; stroke-linejoin: miter; stroke-linecap: square"/>
   </g>
   <g id="patch_19">
    <path d="M 90 622.207059 
L 648 622.207059 
" style="fill: none; stroke: #000000; stroke-width: 1.2; stroke-linejoin: miter; stroke-linecap: square"/>
   </g>
   <g id="legend_3">
    <g id="patch_20">
     <path d="M 99.8 653.545184 
L 344.526563 653.545184 
Q 347.326563 653.545184 347.326563 650.745184 
L 347.326563 632.007059 
Q 347.326563 629.207059 344.526563 629.207059 
L 99.8 629.207059 
Q 97 629.207059 97 632.007059 
L 97 650.745184 
Q 97 653.545184 99.8 653.545184 
z
" style="fill: #ffffff; opacity: 0.8; stroke: #cccccc; stroke-linejoin: miter"/>
    </g>
    <g id="PathCollection_4">
     <g>
      <use xlink:href="#mf41c7aa148" x="116.6" y="641.323621" style="fill: #800000; stroke: #800000"/>
     </g>
    </g>
    <g id="text_27">
     <!-- Rel. Fehler Strom (Quelle aus) -->
     <g transform="translate(141.8 644.998621) scale(0.14 -0.14)">
      <use xlink:href="#Arial-BoldMT-52"/>
      <use xlink:href="#Arial-BoldMT-65" x="72.216797"/>
      <use xlink:href="#Arial-BoldMT-6c" x="127.832031"/>
      <use xlink:href="#Arial-BoldMT-2e" x="155.615234"/>
      <use xlink:href="#Arial-BoldMT-20" x="183.398438"/>
      <use xlink:href="#Arial-BoldMT-46" x="211.181641"/>
      <use xlink:href="#Arial-BoldMT-65" x="272.265625"/>
      <use xlink:href="#Arial-BoldMT-68" x="327.880859"/>
      <use xlink:href="#Arial-BoldMT-6c" x="388.964844"/>
      <use xlink:href="#Arial-BoldMT-65" x="416.748047"/>
      <use xlink:href="#Arial-BoldMT-72" x="472.363281"/>
      <use xlink:href="#Arial-BoldMT-20" x="511.279297"/>
      <use xlink:href="#Arial-BoldMT-53" x="539.0625"/>
      <use xlink:href="#Arial-BoldMT-74" x="605.761719"/>
      <use xlink:href="#Arial-BoldMT-72" x="639.0625"/>
      <use xlink:href="#Arial-BoldMT-6f" x="677.978516"/>
      <use xlink:href="#Arial-BoldMT-6d" x="739.0625"/>
      <use xlink:href="#Arial-BoldMT-20" x="827.978516"/>
      <use xlink:href="#Arial-BoldMT-28" x="855.761719"/>
      <use xlink:href="#Arial-BoldMT-51" x="889.0625"/>
      <use xlink:href="#Arial-BoldMT-75" x="966.845703"/>
      <use xlink:href="#Arial-BoldMT-65" x="1027.929688"/>
      <use xlink:href="#Arial-BoldMT-6c" x="1083.544922"/>
      <use xlink:href="#Arial-BoldMT-6c" x="1111.328125"/>
      <use xlink:href="#Arial-BoldMT-65" x="1139.111328"/>
      <use xlink:href="#Arial-BoldMT-20" x="1194.726562"/>
      <use xlink:href="#Arial-BoldMT-61" x="1222.509766"/>
      <use xlink:href="#Arial-BoldMT-75" x="1278.125"/>
      <use xlink:href="#Arial-BoldMT-73" x="1339.208984"/>
      <use xlink:href="#Arial-BoldMT-29" x="1394.824219"/>
     </g>
    </g>
   </g>
  </g>
 </g>
 <defs>
  <clipPath id="pc7b0665768">
   <rect x="90" y="103.68" width="558" height="293.505882"/>
  </clipPath>
  <clipPath id="pe5a2630ad9">
   <rect x="90" y="436.32" width="558" height="146.752941"/>
  </clipPath>
  <clipPath id="p55ae45c295">
   <rect x="90" y="622.207059" width="558" height="146.752941"/>
  </clipPath>
 </defs>
</svg>
