<?xml version="1.0" encoding="utf-8" standalone="no"?>
<!DOCTYPE svg PUBLIC "-//W3C//DTD SVG 1.1//EN"
  "http://www.w3.org/Graphics/SVG/1.1/DTD/svg11.dtd">
<svg xmlns:xlink="http://www.w3.org/1999/xlink" width="576pt" height="432pt" viewBox="0 0 576 432" xmlns="http://www.w3.org/2000/svg" version="1.1">
 <metadata>
  <rdf:RDF xmlns:dc="http://purl.org/dc/elements/1.1/" xmlns:cc="http://creativecommons.org/ns#" xmlns:rdf="http://www.w3.org/1999/02/22-rdf-syntax-ns#">
   <cc:Work>
    <dc:type rdf:resource="http://purl.org/dc/dcmitype/StillImage"/>
    <dc:date>2026-03-26T19:38:51.619745</dc:date>
    <dc:format>image/svg+xml</dc:format>
    <dc:creator>
     <cc:Agent>
      <dc:title>Matplotlib v3.10.6, https://matplotlib.org/</dc:title>
     </cc:Agent>
    </dc:creator>
   </cc:Work>
  </rdf:RDF>
 </metadata>
 <defs>
  <style type="text/css">*{stroke-linejoin: round; stroke-linecap: butt}</style>
 </defs>
 <g id="figure_1">
  <g id="patch_1">
   <path d="M 0 432 
L 576 432 
L 576 0 
L 0 0 
z
" style="fill: #ffffff"/>
  </g>
  <g id="axes_1">
   <g id="patch_2">
    <path d="M 72 295.235122 
L 518.4 295.235122 
L 518.4 51.84 
L 72 51.84 
z
" style="fill: #ffffff"/>
   </g>
   <g id="FillBetweenPolyCollection_1">
    <defs>
     <path id="m9b62f53514" d="M 136.968524 -147.828293 
L 92.290909 -147.828293 
L 92.290909 -369.096585 
L 136.968524 -369.096585 
L 136.968524 -369.096585 
L 136.968524 -147.828293 
z
" style="stroke: #0000ff; stroke-opacity: 0.2"/>
    </defs>
    <g clip-path="url(#pb77655d1a8)">
     <use xlink:href="#m9b62f53514" x="0" y="432" style="fill: #0000ff; fill-opacity: 0.2; stroke: #0000ff; stroke-opacity: 0.2"/>
    </g>
   </g>
   <g id="FillBetweenPolyCollection_2">
    <defs>
     <path id="m8dfcfe7824" d="M 467.199821 -147.828293 
L 136.968524 -147.828293 
L 136.968524 -369.096585 
L 467.199821 -369.096585 
L 467.199821 -369.096585 
L 467.199821 -147.828293 
z
" style="stroke: #008000; stroke-opacity: 0.2"/>
    </defs>
    <g clip-path="url(#pb77655d1a8)">
     <use xlink:href="#m8dfcfe7824" x="0" y="432" style="fill: #008000; fill-opacity: 0.2; stroke: #008000; stroke-opacity: 0.2"/>
    </g>
   </g>
   <g id="FillBetweenPolyCollection_3">
    <defs>
     <path id="m1ad45a6120" d="M 498.109091 -147.828293 
L 467.199821 -147.828293 
L 467.199821 -369.096585 
L 498.109091 -369.096585 
L 498.109091 -369.096585 
L 498.109091 -147.828293 
z
" style="stroke: #ffa500; stroke-opacity: 0.2"/>
    </defs>
    <g clip-path="url(#pb77655d1a8)">
     <use xlink:href="#m1ad45a6120" x="0" y="432" style="fill: #ffa500; fill-opacity: 0.2; stroke: #ffa500; stroke-opacity: 0.2"/>
    </g>
   </g>
   <g id="matplotlib.axis_1">
    <g id="xtick_1">
     <g id="line2d_1">
      <path d="M 92.290909 295.235122 
L 92.290909 51.84 
" clip-path="url(#pb77655d1a8)" style="fill: none; stroke-dasharray: 1.85,0.8; stroke-dashoffset: 0; stroke: #b0b0b0; stroke-width: 0.5"/>
     </g>
     <g id="line2d_2">
      <defs>
       <path id="m574342c773" d="M 0 0 
L 0 3.5 
" style="stroke: #000000; stroke-width: 0.8"/>
      </defs>
      <g>
       <use xlink:href="#m574342c773" x="92.290909" y="295.235122" style="stroke: #000000; stroke-width: 0.8"/>
      </g>
     </g>
    </g>
    <g id="xtick_2">
     <g id="line2d_3">
      <path d="M 183.147082 295.235122 
L 183.147082 51.84 
" clip-path="url(#pb77655d1a8)" style="fill: none; stroke-dasharray: 1.85,0.8; stroke-dashoffset: 0; stroke: #b0b0b0; stroke-width: 0.5"/>
     </g>
     <g id="line2d_4">
      <g>
       <use xlink:href="#m574342c773" x="183.147082" y="295.235122" style="stroke: #000000; stroke-width: 0.8"/>
      </g>
     </g>
    </g>
    <g id="xtick_3">
     <g id="line2d_5">
      <path d="M 274.003255 295.235122 
L 274.003255 51.84 
" clip-path="url(#pb77655d1a8)" style="fill: none; stroke-dasharray: 1.85,0.8; stroke-dashoffset: 0; stroke: #b0b0b0; stroke-width: 0.5"/>
     </g>
     <g id="line2d_6">
      <g>
       <use xlink:href="#m574342c773" x="274.003255" y="295.235122" style="stroke: #000000; stroke-width: 0.8"/>
      </g>
     </g>
    </g>
    <g id="xtick_4">
     <g id="line2d_7">
      <path d="M 364.859428 295.235122 
L 364.859428 51.84 
" clip-path="url(#pb77655d1a8)" style="fill: none; stroke-dasharray: 1.85,0.8; stroke-dashoffset: 0; stroke: #b0b0b0; stroke-width: 0.5"/>
     </g>
     <g id="line2d_8">
      <g>
       <use xlink:href="#m574342c773" x="364.859428" y="295.235122" style="stroke: #000000; stroke-width: 0.8"/>
      </g>
     </g>
    </g>
    <g id="xtick_5">
     <g id="line2d_9">
      <path d="M 455.715601 295.235122 
L 455.715601 51.84 
" clip-path="url(#pb77655d1a8)" style="fill: none; stroke-dasharray: 1.85,0.8; stroke-dashoffset: 0; stroke: #b0b0b0; stroke-width: 0.5"/>
     </g>
     <g id="line2d_10">
      <g>
       <use xlink:href="#m574342c773" x="455.715601" y="295.235122" style="stroke: #000000; stroke-width: 0.8"/>
      </g>
     </g>
    </g>
    <g id="text_1">
     <!-- Frequenz [Hz] -->
     <g transform="translate(260.579687 310.333559) scale(0.1 -0.1)">
      <defs>
       <path id="DejaVuSans-46" d="M 628 4666 
L 3309 4666 
L 3309 4134 
L 1259 4134 
L 1259 2759 
L 3109 2759 
L 3109 2228 
L 1259 2228 
L 1259 0 
L 628 0 
L 628 4666 
z
" transform="scale(0.015625)"/>
       <path id="DejaVuSans-72" d="M 2631 2963 
Q 2534 3019 2420 3045 
Q 2306 3072 2169 3072 
Q 1681 3072 1420 2755 
Q 1159 2438 1159 1844 
L 1159 0 
L 581 0 
L 581 3500 
L 1159 3500 
L 1159 2956 
Q 1341 3275 1631 3429 
Q 1922 3584 2338 3584 
Q 2397 3584 2469 3576 
Q 2541 3569 2628 3553 
L 2631 2963 
z
" transform="scale(0.015625)"/>
       <path id="DejaVuSans-65" d="M 3597 1894 
L 3597 1613 
L 953 1613 
Q 991 1019 1311 708 
Q 1631 397 2203 397 
Q 2534 397 2845 478 
Q 3156 559 3463 722 
L 3463 178 
Q 3153 47 2828 -22 
Q 2503 -91 2169 -91 
Q 1331 -91 842 396 
Q 353 884 353 1716 
Q 353 2575 817 3079 
Q 1281 3584 2069 3584 
Q 2775 3584 3186 3129 
Q 3597 2675 3597 1894 
z
M 3022 2063 
Q 3016 2534 2758 2815 
Q 2500 3097 2075 3097 
Q 1594 3097 1305 2825 
Q 1016 2553 972 2059 
L 3022 2063 
z
" transform="scale(0.015625)"/>
       <path id="DejaVuSans-71" d="M 947 1747 
Q 947 1113 1208 752 
Q 1469 391 1925 391 
Q 2381 391 2643 752 
Q 2906 1113 2906 1747 
Q 2906 2381 2643 2742 
Q 2381 3103 1925 3103 
Q 1469 3103 1208 2742 
Q 947 2381 947 1747 
z
M 2906 525 
Q 2725 213 2448 61 
Q 2172 -91 1784 -91 
Q 1150 -91 751 415 
Q 353 922 353 1747 
Q 353 2572 751 3078 
Q 1150 3584 1784 3584 
Q 2172 3584 2448 3432 
Q 2725 3281 2906 2969 
L 2906 3500 
L 3481 3500 
L 3481 -1331 
L 2906 -1331 
L 2906 525 
z
" transform="scale(0.015625)"/>
       <path id="DejaVuSans-75" d="M 544 1381 
L 544 3500 
L 1119 3500 
L 1119 1403 
Q 1119 906 1312 657 
Q 1506 409 1894 409 
Q 2359 409 2629 706 
Q 2900 1003 2900 1516 
L 2900 3500 
L 3475 3500 
L 3475 0 
L 2900 0 
L 2900 538 
Q 2691 219 2414 64 
Q 2138 -91 1772 -91 
Q 1169 -91 856 284 
Q 544 659 544 1381 
z
M 1991 3584 
L 1991 3584 
z
" transform="scale(0.015625)"/>
       <path id="DejaVuSans-6e" d="M 3513 2113 
L 3513 0 
L 2938 0 
L 2938 2094 
Q 2938 2591 2744 2837 
Q 2550 3084 2163 3084 
Q 1697 3084 1428 2787 
Q 1159 2491 1159 1978 
L 1159 0 
L 581 0 
L 581 3500 
L 1159 3500 
L 1159 2956 
Q 1366 3272 1645 3428 
Q 1925 3584 2291 3584 
Q 2894 3584 3203 3211 
Q 3513 2838 3513 2113 
z
" transform="scale(0.015625)"/>
       <path id="DejaVuSans-7a" d="M 353 3500 
L 3084 3500 
L 3084 2975 
L 922 459 
L 3084 459 
L 3084 0 
L 275 0 
L 275 525 
L 2438 3041 
L 353 3041 
L 353 3500 
z
" transform="scale(0.015625)"/>
       <path id="DejaVuSans-20" transform="scale(0.015625)"/>
       <path id="DejaVuSans-5b" d="M 550 4863 
L 1875 4863 
L 1875 4416 
L 1125 4416 
L 1125 -397 
L 1875 -397 
L 1875 -844 
L 550 -844 
L 550 4863 
z
" transform="scale(0.015625)"/>
       <path id="DejaVuSans-48" d="M 628 4666 
L 1259 4666 
L 1259 2753 
L 3553 2753 
L 3553 4666 
L 4184 4666 
L 4184 0 
L 3553 0 
L 3553 2222 
L 1259 2222 
L 1259 0 
L 628 0 
L 628 4666 
z
" transform="scale(0.015625)"/>
       <path id="DejaVuSans-5d" d="M 1947 4863 
L 1947 -844 
L 622 -844 
L 622 -397 
L 1369 -397 
L 1369 4416 
L 622 4416 
L 622 4863 
L 1947 4863 
z
" transform="scale(0.015625)"/>
      </defs>
      <use xlink:href="#DejaVuSans-46"/>
      <use xlink:href="#DejaVuSans-72" transform="translate(50.269531 0)"/>
      <use xlink:href="#DejaVuSans-65" transform="translate(89.132812 0)"/>
      <use xlink:href="#DejaVuSans-71" transform="translate(150.65625 0)"/>
      <use xlink:href="#DejaVuSans-75" transform="translate(214.132812 0)"/>
      <use xlink:href="#DejaVuSans-65" transform="translate(277.511719 0)"/>
      <use xlink:href="#DejaVuSans-6e" transform="translate(339.035156 0)"/>
      <use xlink:href="#DejaVuSans-7a" transform="translate(402.414062 0)"/>
      <use xlink:href="#DejaVuSans-20" transform="translate(454.904297 0)"/>
      <use xlink:href="#DejaVuSans-5b" transform="translate(486.691406 0)"/>
      <use xlink:href="#DejaVuSans-48" transform="translate(525.705078 0)"/>
      <use xlink:href="#DejaVuSans-7a" transform="translate(600.900391 0)"/>
      <use xlink:href="#DejaVuSans-5d" transform="translate(653.390625 0)"/>
     </g>
    </g>
   </g>
   <g id="matplotlib.axis_2">
    <g id="ytick_1">
     <g id="line2d_11">
      <path d="M 72 284.171707 
L 518.4 284.171707 
" clip-path="url(#pb77655d1a8)" style="fill: none; stroke-dasharray: 1.85,0.8; stroke-dashoffset: 0; stroke: #b0b0b0; stroke-width: 0.5"/>
     </g>
     <g id="line2d_12">
      <defs>
       <path id="m2fe514479d" d="M 0 0 
L -3.5 0 
" style="stroke: #000000; stroke-width: 0.8"/>
      </defs>
      <g>
       <use xlink:href="#m2fe514479d" x="72" y="284.171707" style="stroke: #000000; stroke-width: 0.8"/>
      </g>
     </g>
     <g id="text_2">
      <!-- 0 -->
      <g transform="translate(58.6375 287.970926) scale(0.1 -0.1)">
       <defs>
        <path id="DejaVuSans-30" d="M 2034 4250 
Q 1547 4250 1301 3770 
Q 1056 3291 1056 2328 
Q 1056 1369 1301 889 
Q 1547 409 2034 409 
Q 2525 409 2770 889 
Q 3016 1369 3016 2328 
Q 3016 3291 2770 3770 
Q 2525 4250 2034 4250 
z
M 2034 4750 
Q 2819 4750 3233 4129 
Q 3647 3509 3647 2328 
Q 3647 1150 3233 529 
Q 2819 -91 2034 -91 
Q 1250 -91 836 529 
Q 422 1150 422 2328 
Q 422 3509 836 4129 
Q 1250 4750 2034 4750 
z
" transform="scale(0.015625)"/>
       </defs>
       <use xlink:href="#DejaVuSans-30"/>
      </g>
     </g>
    </g>
    <g id="ytick_2">
     <g id="line2d_13">
      <path d="M 72 245.009178 
L 518.4 245.009178 
" clip-path="url(#pb77655d1a8)" style="fill: none; stroke-dasharray: 1.85,0.8; stroke-dashoffset: 0; stroke: #b0b0b0; stroke-width: 0.5"/>
     </g>
     <g id="line2d_14">
      <g>
       <use xlink:href="#m2fe514479d" x="72" y="245.009178" style="stroke: #000000; stroke-width: 0.8"/>
      </g>
     </g>
     <g id="text_3">
      <!-- 20 -->
      <g transform="translate(52.275 248.808396) scale(0.1 -0.1)">
       <defs>
        <path id="DejaVuSans-32" d="M 1228 531 
L 3431 531 
L 3431 0 
L 469 0 
L 469 531 
Q 828 903 1448 1529 
Q 2069 2156 2228 2338 
Q 2531 2678 2651 2914 
Q 2772 3150 2772 3378 
Q 2772 3750 2511 3984 
Q 2250 4219 1831 4219 
Q 1534 4219 1204 4116 
Q 875 4013 500 3803 
L 500 4441 
Q 881 4594 1212 4672 
Q 1544 4750 1819 4750 
Q 2544 4750 2975 4387 
Q 3406 4025 3406 3419 
Q 3406 3131 3298 2873 
Q 3191 2616 2906 2266 
Q 2828 2175 2409 1742 
Q 1991 1309 1228 531 
z
" transform="scale(0.015625)"/>
       </defs>
       <use xlink:href="#DejaVuSans-32"/>
       <use xlink:href="#DejaVuSans-30" transform="translate(63.623047 0)"/>
      </g>
     </g>
    </g>
    <g id="ytick_3">
     <g id="line2d_15">
      <path d="M 72 205.846648 
L 518.4 205.846648 
" clip-path="url(#pb77655d1a8)" style="fill: none; stroke-dasharray: 1.85,0.8; stroke-dashoffset: 0; stroke: #b0b0b0; stroke-width: 0.5"/>
     </g>
     <g id="line2d_16">
      <g>
       <use xlink:href="#m2fe514479d" x="72" y="205.846648" style="stroke: #000000; stroke-width: 0.8"/>
      </g>
     </g>
     <g id="text_4">
      <!-- 40 -->
      <g transform="translate(52.275 209.645867) scale(0.1 -0.1)">
       <defs>
        <path id="DejaVuSans-34" d="M 2419 4116 
L 825 1625 
L 2419 1625 
L 2419 4116 
z
M 2253 4666 
L 3047 4666 
L 3047 1625 
L 3713 1625 
L 3713 1100 
L 3047 1100 
L 3047 0 
L 2419 0 
L 2419 1100 
L 313 1100 
L 313 1709 
L 2253 4666 
z
" transform="scale(0.015625)"/>
       </defs>
       <use xlink:href="#DejaVuSans-34"/>
       <use xlink:href="#DejaVuSans-30" transform="translate(63.623047 0)"/>
      </g>
     </g>
    </g>
    <g id="ytick_4">
     <g id="line2d_17">
      <path d="M 72 166.684118 
L 518.4 166.684118 
" clip-path="url(#pb77655d1a8)" style="fill: none; stroke-dasharray: 1.85,0.8; stroke-dashoffset: 0; stroke: #b0b0b0; stroke-width: 0.5"/>
     </g>
     <g id="line2d_18">
      <g>
       <use xlink:href="#m2fe514479d" x="72" y="166.684118" style="stroke: #000000; stroke-width: 0.8"/>
      </g>
     </g>
     <g id="text_5">
      <!-- 60 -->
      <g transform="translate(52.275 170.483337) scale(0.1 -0.1)">
       <defs>
        <path id="DejaVuSans-36" d="M 2113 2584 
Q 1688 2584 1439 2293 
Q 1191 2003 1191 1497 
Q 1191 994 1439 701 
Q 1688 409 2113 409 
Q 2538 409 2786 701 
Q 3034 994 3034 1497 
Q 3034 2003 2786 2293 
Q 2538 2584 2113 2584 
z
M 3366 4563 
L 3366 3988 
Q 3128 4100 2886 4159 
Q 2644 4219 2406 4219 
Q 1781 4219 1451 3797 
Q 1122 3375 1075 2522 
Q 1259 2794 1537 2939 
Q 1816 3084 2150 3084 
Q 2853 3084 3261 2657 
Q 3669 2231 3669 1497 
Q 3669 778 3244 343 
Q 2819 -91 2113 -91 
Q 1303 -91 875 529 
Q 447 1150 447 2328 
Q 447 3434 972 4092 
Q 1497 4750 2381 4750 
Q 2619 4750 2861 4703 
Q 3103 4656 3366 4563 
z
" transform="scale(0.015625)"/>
       </defs>
       <use xlink:href="#DejaVuSans-36"/>
       <use xlink:href="#DejaVuSans-30" transform="translate(63.623047 0)"/>
      </g>
     </g>
    </g>
    <g id="ytick_5">
     <g id="line2d_19">
      <path d="M 72 127.521589 
L 518.4 127.521589 
" clip-path="url(#pb77655d1a8)" style="fill: none; stroke-dasharray: 1.85,0.8; stroke-dashoffset: 0; stroke: #b0b0b0; stroke-width: 0.5"/>
     </g>
     <g id="line2d_20">
      <g>
       <use xlink:href="#m2fe514479d" x="72" y="127.521589" style="stroke: #000000; stroke-width: 0.8"/>
      </g>
     </g>
     <g id="text_6">
      <!-- 80 -->
      <g transform="translate(52.275 131.320807) scale(0.1 -0.1)">
       <defs>
        <path id="DejaVuSans-38" d="M 2034 2216 
Q 1584 2216 1326 1975 
Q 1069 1734 1069 1313 
Q 1069 891 1326 650 
Q 1584 409 2034 409 
Q 2484 409 2743 651 
Q 3003 894 3003 1313 
Q 3003 1734 2745 1975 
Q 2488 2216 2034 2216 
z
M 1403 2484 
Q 997 2584 770 2862 
Q 544 3141 544 3541 
Q 544 4100 942 4425 
Q 1341 4750 2034 4750 
Q 2731 4750 3128 4425 
Q 3525 4100 3525 3541 
Q 3525 3141 3298 2862 
Q 3072 2584 2669 2484 
Q 3125 2378 3379 2068 
Q 3634 1759 3634 1313 
Q 3634 634 3220 271 
Q 2806 -91 2034 -91 
Q 1263 -91 848 271 
Q 434 634 434 1313 
Q 434 1759 690 2068 
Q 947 2378 1403 2484 
z
M 1172 3481 
Q 1172 3119 1398 2916 
Q 1625 2713 2034 2713 
Q 2441 2713 2670 2916 
Q 2900 3119 2900 3481 
Q 2900 3844 2670 4047 
Q 2441 4250 2034 4250 
Q 1625 4250 1398 4047 
Q 1172 3844 1172 3481 
z
" transform="scale(0.015625)"/>
       </defs>
       <use xlink:href="#DejaVuSans-38"/>
       <use xlink:href="#DejaVuSans-30" transform="translate(63.623047 0)"/>
      </g>
     </g>
    </g>
    <g id="ytick_6">
     <g id="line2d_21">
      <path d="M 72 88.359059 
L 518.4 88.359059 
" clip-path="url(#pb77655d1a8)" style="fill: none; stroke-dasharray: 1.85,0.8; stroke-dashoffset: 0; stroke: #b0b0b0; stroke-width: 0.5"/>
     </g>
     <g id="line2d_22">
      <g>
       <use xlink:href="#m2fe514479d" x="72" y="88.359059" style="stroke: #000000; stroke-width: 0.8"/>
      </g>
     </g>
     <g id="text_7">
      <!-- 100 -->
      <g transform="translate(45.9125 92.158278) scale(0.1 -0.1)">
       <defs>
        <path id="DejaVuSans-31" d="M 794 531 
L 1825 531 
L 1825 4091 
L 703 3866 
L 703 4441 
L 1819 4666 
L 2450 4666 
L 2450 531 
L 3481 531 
L 3481 0 
L 794 0 
L 794 531 
z
" transform="scale(0.015625)"/>
       </defs>
       <use xlink:href="#DejaVuSans-31"/>
       <use xlink:href="#DejaVuSans-30" transform="translate(63.623047 0)"/>
       <use xlink:href="#DejaVuSans-30" transform="translate(127.246094 0)"/>
      </g>
     </g>
    </g>
    <g id="text_8">
     <!-- Leistung [$\mu$W] -->
     <g transform="translate(39.8125 208.487561) rotate(-90) scale(0.1 -0.1)">
      <defs>
       <path id="DejaVuSans-4c" d="M 628 4666 
L 1259 4666 
L 1259 531 
L 3531 531 
L 3531 0 
L 628 0 
L 628 4666 
z
" transform="scale(0.015625)"/>
       <path id="DejaVuSans-69" d="M 603 3500 
L 1178 3500 
L 1178 0 
L 603 0 
L 603 3500 
z
M 603 4863 
L 1178 4863 
L 1178 4134 
L 603 4134 
L 603 4863 
z
" transform="scale(0.015625)"/>
       <path id="DejaVuSans-73" d="M 2834 3397 
L 2834 2853 
Q 2591 2978 2328 3040 
Q 2066 3103 1784 3103 
Q 1356 3103 1142 2972 
Q 928 2841 928 2578 
Q 928 2378 1081 2264 
Q 1234 2150 1697 2047 
L 1894 2003 
Q 2506 1872 2764 1633 
Q 3022 1394 3022 966 
Q 3022 478 2636 193 
Q 2250 -91 1575 -91 
Q 1294 -91 989 -36 
Q 684 19 347 128 
L 347 722 
Q 666 556 975 473 
Q 1284 391 1588 391 
Q 1994 391 2212 530 
Q 2431 669 2431 922 
Q 2431 1156 2273 1281 
Q 2116 1406 1581 1522 
L 1381 1569 
Q 847 1681 609 1914 
Q 372 2147 372 2553 
Q 372 3047 722 3315 
Q 1072 3584 1716 3584 
Q 2034 3584 2315 3537 
Q 2597 3491 2834 3397 
z
" transform="scale(0.015625)"/>
       <path id="DejaVuSans-74" d="M 1172 4494 
L 1172 3500 
L 2356 3500 
L 2356 3053 
L 1172 3053 
L 1172 1153 
Q 1172 725 1289 603 
Q 1406 481 1766 481 
L 2356 481 
L 2356 0 
L 1766 0 
Q 1100 0 847 248 
Q 594 497 594 1153 
L 594 3053 
L 172 3053 
L 172 3500 
L 594 3500 
L 594 4494 
L 1172 4494 
z
" transform="scale(0.015625)"/>
       <path id="DejaVuSans-67" d="M 2906 1791 
Q 2906 2416 2648 2759 
Q 2391 3103 1925 3103 
Q 1463 3103 1205 2759 
Q 947 2416 947 1791 
Q 947 1169 1205 825 
Q 1463 481 1925 481 
Q 2391 481 2648 825 
Q 2906 1169 2906 1791 
z
M 3481 434 
Q 3481 -459 3084 -895 
Q 2688 -1331 1869 -1331 
Q 1566 -1331 1297 -1286 
Q 1028 -1241 775 -1147 
L 775 -588 
Q 1028 -725 1275 -790 
Q 1522 -856 1778 -856 
Q 2344 -856 2625 -561 
Q 2906 -266 2906 331 
L 2906 616 
Q 2728 306 2450 153 
Q 2172 0 1784 0 
Q 1141 0 747 490 
Q 353 981 353 1791 
Q 353 2603 747 3093 
Q 1141 3584 1784 3584 
Q 2172 3584 2450 3431 
Q 2728 3278 2906 2969 
L 2906 3500 
L 3481 3500 
L 3481 434 
z
" transform="scale(0.015625)"/>
       <path id="DejaVuSans-Oblique-3bc" d="M -84 -1331 
L 856 3500 
L 1434 3500 
L 1009 1322 
Q 997 1256 987 1175 
Q 978 1094 978 1013 
Q 978 722 1161 565 
Q 1344 409 1684 409 
Q 2147 409 2431 671 
Q 2716 934 2816 1459 
L 3213 3500 
L 3788 3500 
L 3266 809 
Q 3253 750 3248 706 
Q 3244 663 3244 628 
Q 3244 531 3283 486 
Q 3322 441 3406 441 
Q 3438 441 3492 456 
Q 3547 472 3647 513 
L 3559 50 
Q 3422 -19 3297 -55 
Q 3172 -91 3053 -91 
Q 2847 -91 2730 40 
Q 2613 172 2613 403 
Q 2438 153 2195 31 
Q 1953 -91 1625 -91 
Q 1334 -91 1117 43 
Q 900 178 831 397 
L 494 -1331 
L -84 -1331 
z
" transform="scale(0.015625)"/>
       <path id="DejaVuSans-57" d="M 213 4666 
L 850 4666 
L 1831 722 
L 2809 4666 
L 3519 4666 
L 4500 722 
L 5478 4666 
L 6119 4666 
L 4947 0 
L 4153 0 
L 3169 4050 
L 2175 0 
L 1381 0 
L 213 4666 
z
" transform="scale(0.015625)"/>
      </defs>
      <use xlink:href="#DejaVuSans-4c" transform="translate(0 0.015625)"/>
      <use xlink:href="#DejaVuSans-65" transform="translate(55.712891 0.015625)"/>
      <use xlink:href="#DejaVuSans-69" transform="translate(117.236328 0.015625)"/>
      <use xlink:href="#DejaVuSans-73" transform="translate(145.019531 0.015625)"/>
      <use xlink:href="#DejaVuSans-74" transform="translate(197.119141 0.015625)"/>
      <use xlink:href="#DejaVuSans-75" transform="translate(236.328125 0.015625)"/>
      <use xlink:href="#DejaVuSans-6e" transform="translate(299.707031 0.015625)"/>
      <use xlink:href="#DejaVuSans-67" transform="translate(363.085938 0.015625)"/>
      <use xlink:href="#DejaVuSans-20" transform="translate(426.5625 0.015625)"/>
      <use xlink:href="#DejaVuSans-5b" transform="translate(458.349609 0.015625)"/>
      <use xlink:href="#DejaVuSans-Oblique-3bc" transform="translate(497.363281 0.015625)"/>
      <use xlink:href="#DejaVuSans-57" transform="translate(560.986328 0.015625)"/>
      <use xlink:href="#DejaVuSans-5d" transform="translate(659.863281 0.015625)"/>
     </g>
    </g>
   </g>
   <g id="LineCollection_1">
    <path d="M 100.097271 250.883557 
L 100.097271 246.967304 
" clip-path="url(#pb77655d1a8)" style="fill: none; stroke: #1f77b4; stroke-width: 1.5"/>
    <path d="M 106.926021 215.63728 
L 106.926021 211.721027 
" clip-path="url(#pb77655d1a8)" style="fill: none; stroke: #1f77b4; stroke-width: 1.5"/>
    <path d="M 108.93576 205.846648 
L 108.93576 201.930395 
" clip-path="url(#pb77655d1a8)" style="fill: none; stroke: #1f77b4; stroke-width: 1.5"/>
    <path d="M 110.365836 198.014142 
L 110.365836 194.097889 
" clip-path="url(#pb77655d1a8)" style="fill: none; stroke: #1f77b4; stroke-width: 1.5"/>
    <path d="M 112.918895 188.22351 
L 112.918895 184.307257 
" clip-path="url(#pb77655d1a8)" style="fill: none; stroke: #1f77b4; stroke-width: 1.5"/>
    <path d="M 114.852314 180.391004 
L 114.852314 176.474751 
" clip-path="url(#pb77655d1a8)" style="fill: none; stroke: #1f77b4; stroke-width: 1.5"/>
    <path d="M 116.99652 172.558498 
L 116.99652 168.642245 
" clip-path="url(#pb77655d1a8)" style="fill: none; stroke: #1f77b4; stroke-width: 1.5"/>
    <path d="M 119.840318 158.851612 
L 119.840318 154.935359 
" clip-path="url(#pb77655d1a8)" style="fill: none; stroke: #1f77b4; stroke-width: 1.5"/>
    <path d="M 125.420704 143.1866 
L 125.420704 139.270348 
" clip-path="url(#pb77655d1a8)" style="fill: none; stroke: #1f77b4; stroke-width: 1.5"/>
    <path d="M 128.409872 135.354095 
L 128.409872 131.437842 
" clip-path="url(#pb77655d1a8)" style="fill: none; stroke: #1f77b4; stroke-width: 1.5"/>
    <path d="M 131.524422 125.563462 
L 131.524422 121.647209 
" clip-path="url(#pb77655d1a8)" style="fill: none; stroke: #1f77b4; stroke-width: 1.5"/>
    <path d="M 133.337911 121.647209 
L 133.337911 102.065944 
" clip-path="url(#pb77655d1a8)" style="fill: none; stroke: #1f77b4; stroke-width: 1.5"/>
   </g>
   <g id="line2d_23">
    <path d="M 100.097271 239.291274 
L 100.433035 237.989791 
L 100.7688 236.688309 
L 101.104564 235.386827 
L 101.440328 234.085345 
L 101.776092 232.783862 
L 102.111856 231.48238 
L 102.44762 230.180898 
L 102.783384 228.879416 
L 103.119148 227.577933 
L 103.454912 226.276451 
L 103.790676 224.974969 
L 104.12644 223.673487 
L 104.462204 222.372004 
L 104.797968 221.070522 
L 105.133732 219.76904 
L 105.469496 218.467558 
L 105.80526 217.166075 
L 106.141024 215.864593 
L 106.476788 214.563111 
L 106.812552 213.261629 
L 107.148316 211.960147 
L 107.48408 210.658664 
L 107.819844 209.357182 
L 108.155608 208.0557 
L 108.491372 206.754218 
L 108.827136 205.452735 
L 109.1629 204.151253 
L 109.498664 202.849771 
L 109.834428 201.548289 
L 110.170192 200.246806 
L 110.505957 198.945324 
L 110.841721 197.643842 
L 111.177485 196.34236 
L 111.513249 195.040877 
L 111.849013 193.739395 
L 112.184777 192.437913 
L 112.520541 191.136431 
L 112.856305 189.834948 
L 113.192069 188.533466 
L 113.527833 187.231984 
L 113.863597 185.930502 
L 114.199361 184.62902 
L 114.535125 183.327537 
L 114.870889 182.026055 
L 115.206653 180.724573 
L 115.542417 179.423091 
L 115.878181 178.121608 
L 116.213945 176.820126 
L 116.549709 175.518644 
L 116.885473 174.217162 
L 117.221237 172.915679 
L 117.557001 171.614197 
L 117.892765 170.312715 
L 118.228529 169.011233 
L 118.564293 167.70975 
L 118.900057 166.408268 
L 119.235821 165.106786 
L 119.571585 163.805304 
L 119.907349 162.503821 
L 120.243114 161.202339 
L 120.578878 159.900857 
L 120.914642 158.599375 
L 121.250406 157.297892 
L 121.58617 155.99641 
L 121.921934 154.694928 
L 122.257698 153.393446 
L 122.593462 152.091964 
L 122.929226 150.790481 
L 123.26499 149.488999 
L 123.600754 148.187517 
L 123.936518 146.886035 
L 124.272282 145.584552 
L 124.608046 144.28307 
L 124.94381 142.981588 
L 125.279574 141.680106 
L 125.615338 140.378623 
L 125.951102 139.077141 
L 126.286866 137.775659 
L 126.62263 136.474177 
L 126.958394 135.172694 
L 127.294158 133.871212 
L 127.629922 132.56973 
L 127.965686 131.268248 
L 128.30145 129.966765 
L 128.637214 128.665283 
L 128.972978 127.363801 
L 129.308742 126.062319 
L 129.644506 124.760837 
L 129.980271 123.459354 
L 130.316035 122.157872 
L 130.651799 120.85639 
L 130.987563 119.554908 
L 131.323327 118.253425 
L 131.659091 116.951943 
L 131.994855 115.650461 
L 132.330619 114.348979 
L 132.666383 113.047496 
L 133.002147 111.746014 
L 133.337911 110.444532 
" clip-path="url(#pb77655d1a8)" style="fill: none; stroke: #000000; stroke-width: 1.5; stroke-linecap: square"/>
   </g>
   <g id="line2d_24">
    <defs>
     <path id="m6946383cd3" d="M 0 3 
C 0.795609 3 1.55874 2.683901 2.12132 2.12132 
C 2.683901 1.55874 3 0.795609 3 0 
C 3 -0.795609 2.683901 -1.55874 2.12132 -2.12132 
C 1.55874 -2.683901 0.795609 -3 0 -3 
C -0.795609 -3 -1.55874 -2.683901 -2.12132 -2.12132 
C -2.683901 -1.55874 -3 -0.795609 -3 0 
C -3 0.795609 -2.683901 1.55874 -2.12132 2.12132 
C -1.55874 2.683901 -0.795609 3 0 3 
z
" style="stroke: #1f77b4"/>
    </defs>
    <g clip-path="url(#pb77655d1a8)">
     <use xlink:href="#m6946383cd3" x="136.968524" y="113.814703" style="fill: #1f77b4; stroke: #1f77b4"/>
     <use xlink:href="#m6946383cd3" x="139.318064" y="117.730956" style="fill: #1f77b4; stroke: #1f77b4"/>
     <use xlink:href="#m6946383cd3" x="141.313266" y="100.107818" style="fill: #1f77b4; stroke: #1f77b4"/>
     <use xlink:href="#m6946383cd3" x="143.748211" y="105.982197" style="fill: #1f77b4; stroke: #1f77b4"/>
     <use xlink:href="#m6946383cd3" x="146.962703" y="107.940324" style="fill: #1f77b4; stroke: #1f77b4"/>
     <use xlink:href="#m6946383cd3" x="149.412185" y="104.024071" style="fill: #1f77b4; stroke: #1f77b4"/>
     <use xlink:href="#m6946383cd3" x="154.400189" y="102.065944" style="fill: #1f77b4; stroke: #1f77b4"/>
     <use xlink:href="#m6946383cd3" x="162.45368" y="94.233438" style="fill: #1f77b4; stroke: #1f77b4"/>
     <use xlink:href="#m6946383cd3" x="172.506007" y="82.484679" style="fill: #1f77b4; stroke: #1f77b4"/>
     <use xlink:href="#m6946383cd3" x="168.873577" y="90.317185" style="fill: #1f77b4; stroke: #1f77b4"/>
     <use xlink:href="#m6946383cd3" x="207.979891" y="102.065944" style="fill: #1f77b4; stroke: #1f77b4"/>
     <use xlink:href="#m6946383cd3" x="236.397885" y="84.442806" style="fill: #1f77b4; stroke: #1f77b4"/>
     <use xlink:href="#m6946383cd3" x="258.326931" y="72.694047" style="fill: #1f77b4; stroke: #1f77b4"/>
     <use xlink:href="#m6946383cd3" x="295.899593" y="100.107818" style="fill: #1f77b4; stroke: #1f77b4"/>
     <use xlink:href="#m6946383cd3" x="336.403274" y="123.605336" style="fill: #1f77b4; stroke: #1f77b4"/>
     <use xlink:href="#m6946383cd3" x="368.348305" y="115.77283" style="fill: #1f77b4; stroke: #1f77b4"/>
     <use xlink:href="#m6946383cd3" x="405.50848" y="154.935359" style="fill: #1f77b4; stroke: #1f77b4"/>
     <use xlink:href="#m6946383cd3" x="447.992826" y="139.270348" style="fill: #1f77b4; stroke: #1f77b4"/>
     <use xlink:href="#m6946383cd3" x="459.458875" y="141.228474" style="fill: #1f77b4; stroke: #1f77b4"/>
     <use xlink:href="#m6946383cd3" x="464.83756" y="170.600371" style="fill: #1f77b4; stroke: #1f77b4"/>
     <use xlink:href="#m6946383cd3" x="467.199821" y="284.171707" style="fill: #1f77b4; stroke: #1f77b4"/>
     <use xlink:href="#m6946383cd3" x="474.740883" y="284.171707" style="fill: #1f77b4; stroke: #1f77b4"/>
     <use xlink:href="#m6946383cd3" x="483.572103" y="284.171707" style="fill: #1f77b4; stroke: #1f77b4"/>
    </g>
   </g>
   <g id="LineCollection_2">
    <path d="M 136.968524 284.171707 
L 136.968524 72.694047 
" clip-path="url(#pb77655d1a8)" style="fill: none; stroke-dasharray: 5.55,2.4; stroke-dashoffset: 0; stroke: #000000; stroke-opacity: 0.5; stroke-width: 1.5"/>
   </g>
   <g id="LineCollection_3">
    <path d="M 467.199821 284.171707 
L 467.199821 72.694047 
" clip-path="url(#pb77655d1a8)" style="fill: none; stroke-dasharray: 5.55,2.4; stroke-dashoffset: 0; stroke: #000000; stroke-opacity: 0.5; stroke-width: 1.5"/>
   </g>
   <g id="line2d_25">
    <g clip-path="url(#pb77655d1a8)">
     <use xlink:href="#m6946383cd3" x="100.097271" y="248.925431" style="fill: #1f77b4; stroke: #1f77b4"/>
     <use xlink:href="#m6946383cd3" x="106.926021" y="213.679154" style="fill: #1f77b4; stroke: #1f77b4"/>
     <use xlink:href="#m6946383cd3" x="108.93576" y="203.888521" style="fill: #1f77b4; stroke: #1f77b4"/>
     <use xlink:href="#m6946383cd3" x="110.365836" y="196.056016" style="fill: #1f77b4; stroke: #1f77b4"/>
     <use xlink:href="#m6946383cd3" x="112.918895" y="186.265383" style="fill: #1f77b4; stroke: #1f77b4"/>
     <use xlink:href="#m6946383cd3" x="114.852314" y="178.432877" style="fill: #1f77b4; stroke: #1f77b4"/>
     <use xlink:href="#m6946383cd3" x="116.99652" y="170.600371" style="fill: #1f77b4; stroke: #1f77b4"/>
     <use xlink:href="#m6946383cd3" x="119.840318" y="156.893486" style="fill: #1f77b4; stroke: #1f77b4"/>
     <use xlink:href="#m6946383cd3" x="125.420704" y="141.228474" style="fill: #1f77b4; stroke: #1f77b4"/>
     <use xlink:href="#m6946383cd3" x="128.409872" y="133.395968" style="fill: #1f77b4; stroke: #1f77b4"/>
     <use xlink:href="#m6946383cd3" x="131.524422" y="123.605336" style="fill: #1f77b4; stroke: #1f77b4"/>
     <use xlink:href="#m6946383cd3" x="133.337911" y="111.856577" style="fill: #1f77b4; stroke: #1f77b4"/>
    </g>
   </g>
   <g id="patch_3">
    <path d="M 72 295.235122 
L 72 51.84 
" style="fill: none; stroke: #000000; stroke-width: 0.8; stroke-linejoin: miter; stroke-linecap: square"/>
   </g>
   <g id="patch_4">
    <path d="M 518.4 295.235122 
L 518.4 51.84 
" style="fill: none; stroke: #000000; stroke-width: 0.8; stroke-linejoin: miter; stroke-linecap: square"/>
   </g>
   <g id="patch_5">
    <path d="M 72 295.235122 
L 518.4 295.235122 
" style="fill: none; stroke: #000000; stroke-width: 0.8; stroke-linejoin: miter; stroke-linecap: square"/>
   </g>
   <g id="patch_6">
    <path d="M 72 51.84 
L 518.4 51.84 
" style="fill: none; stroke: #000000; stroke-width: 0.8; stroke-linejoin: miter; stroke-linecap: square"/>
   </g>
   <g id="legend_1">
    <g id="patch_7">
     <path d="M 228.575 290.235122 
L 361.825 290.235122 
Q 363.825 290.235122 363.825 288.235122 
L 363.825 201.144497 
Q 363.825 199.144497 361.825 199.144497 
L 228.575 199.144497 
Q 226.575 199.144497 226.575 201.144497 
L 226.575 288.235122 
Q 226.575 290.235122 228.575 290.235122 
z
" style="fill: #ffffff; opacity: 0.8; stroke: #cccccc; stroke-linejoin: miter"/>
    </g>
    <g id="line2d_26">
     <path d="M 230.575 207.242934 
L 240.575 207.242934 
L 250.575 207.242934 
" style="fill: none; stroke: #000000; stroke-width: 1.5; stroke-linecap: square"/>
    </g>
    <g id="text_9">
     <!-- Fit -->
     <g transform="translate(258.575 210.742934) scale(0.1 -0.1)">
      <use xlink:href="#DejaVuSans-46"/>
      <use xlink:href="#DejaVuSans-69" transform="translate(50.269531 0)"/>
      <use xlink:href="#DejaVuSans-74" transform="translate(78.052734 0)"/>
     </g>
    </g>
    <g id="line2d_27">
     <path d="M 230.575 221.921059 
L 250.575 221.921059 
" style="fill: none; stroke-dasharray: 5.55,2.4; stroke-dashoffset: 0; stroke: #000000; stroke-opacity: 0.5; stroke-width: 1.5"/>
    </g>
    <g id="text_10">
     <!-- Grenzübergänge -->
     <g transform="translate(258.575 225.421059) scale(0.1 -0.1)">
      <defs>
       <path id="DejaVuSans-47" d="M 3809 666 
L 3809 1919 
L 2778 1919 
L 2778 2438 
L 4434 2438 
L 4434 434 
Q 4069 175 3628 42 
Q 3188 -91 2688 -91 
Q 1594 -91 976 548 
Q 359 1188 359 2328 
Q 359 3472 976 4111 
Q 1594 4750 2688 4750 
Q 3144 4750 3555 4637 
Q 3966 4525 4313 4306 
L 4313 3634 
Q 3963 3931 3569 4081 
Q 3175 4231 2741 4231 
Q 1884 4231 1454 3753 
Q 1025 3275 1025 2328 
Q 1025 1384 1454 906 
Q 1884 428 2741 428 
Q 3075 428 3337 486 
Q 3600 544 3809 666 
z
" transform="scale(0.015625)"/>
       <path id="DejaVuSans-fc" d="M 544 1381 
L 544 3500 
L 1119 3500 
L 1119 1403 
Q 1119 906 1312 657 
Q 1506 409 1894 409 
Q 2359 409 2629 706 
Q 2900 1003 2900 1516 
L 2900 3500 
L 3475 3500 
L 3475 0 
L 2900 0 
L 2900 538 
Q 2691 219 2414 64 
Q 2138 -91 1772 -91 
Q 1169 -91 856 284 
Q 544 659 544 1381 
z
M 1991 3584 
L 1991 3584 
z
M 2278 4850 
L 2913 4850 
L 2913 4219 
L 2278 4219 
L 2278 4850 
z
M 1056 4850 
L 1691 4850 
L 1691 4219 
L 1056 4219 
L 1056 4850 
z
" transform="scale(0.015625)"/>
       <path id="DejaVuSans-62" d="M 3116 1747 
Q 3116 2381 2855 2742 
Q 2594 3103 2138 3103 
Q 1681 3103 1420 2742 
Q 1159 2381 1159 1747 
Q 1159 1113 1420 752 
Q 1681 391 2138 391 
Q 2594 391 2855 752 
Q 3116 1113 3116 1747 
z
M 1159 2969 
Q 1341 3281 1617 3432 
Q 1894 3584 2278 3584 
Q 2916 3584 3314 3078 
Q 3713 2572 3713 1747 
Q 3713 922 3314 415 
Q 2916 -91 2278 -91 
Q 1894 -91 1617 61 
Q 1341 213 1159 525 
L 1159 0 
L 581 0 
L 581 4863 
L 1159 4863 
L 1159 2969 
z
" transform="scale(0.015625)"/>
       <path id="DejaVuSans-e4" d="M 2194 1759 
Q 1497 1759 1228 1600 
Q 959 1441 959 1056 
Q 959 750 1161 570 
Q 1363 391 1709 391 
Q 2188 391 2477 730 
Q 2766 1069 2766 1631 
L 2766 1759 
L 2194 1759 
z
M 3341 1997 
L 3341 0 
L 2766 0 
L 2766 531 
Q 2569 213 2275 61 
Q 1981 -91 1556 -91 
Q 1019 -91 701 211 
Q 384 513 384 1019 
Q 384 1609 779 1909 
Q 1175 2209 1959 2209 
L 2766 2209 
L 2766 2266 
Q 2766 2663 2505 2880 
Q 2244 3097 1772 3097 
Q 1472 3097 1187 3025 
Q 903 2953 641 2809 
L 641 3341 
Q 956 3463 1253 3523 
Q 1550 3584 1831 3584 
Q 2591 3584 2966 3190 
Q 3341 2797 3341 1997 
z
M 2150 4850 
L 2784 4850 
L 2784 4219 
L 2150 4219 
L 2150 4850 
z
M 928 4850 
L 1563 4850 
L 1563 4219 
L 928 4219 
L 928 4850 
z
" transform="scale(0.015625)"/>
      </defs>
      <use xlink:href="#DejaVuSans-47"/>
      <use xlink:href="#DejaVuSans-72" transform="translate(77.490234 0)"/>
      <use xlink:href="#DejaVuSans-65" transform="translate(116.353516 0)"/>
      <use xlink:href="#DejaVuSans-6e" transform="translate(177.876953 0)"/>
      <use xlink:href="#DejaVuSans-7a" transform="translate(241.255859 0)"/>
      <use xlink:href="#DejaVuSans-fc" transform="translate(293.746094 0)"/>
      <use xlink:href="#DejaVuSans-62" transform="translate(357.125 0)"/>
      <use xlink:href="#DejaVuSans-65" transform="translate(420.601562 0)"/>
      <use xlink:href="#DejaVuSans-72" transform="translate(482.125 0)"/>
      <use xlink:href="#DejaVuSans-67" transform="translate(521.488281 0)"/>
      <use xlink:href="#DejaVuSans-e4" transform="translate(584.964844 0)"/>
      <use xlink:href="#DejaVuSans-6e" transform="translate(646.244141 0)"/>
      <use xlink:href="#DejaVuSans-67" transform="translate(709.623047 0)"/>
      <use xlink:href="#DejaVuSans-65" transform="translate(773.099609 0)"/>
     </g>
    </g>
    <g id="patch_8">
     <path d="M 230.575 240.099184 
L 250.575 240.099184 
L 250.575 233.099184 
L 230.575 233.099184 
z
" style="fill: #0000ff; fill-opacity: 0.2; stroke: #0000ff; stroke-opacity: 0.2; stroke-linejoin: miter"/>
    </g>
    <g id="text_11">
     <!-- Lineare Region -->
     <g transform="translate(258.575 240.099184) scale(0.1 -0.1)">
      <defs>
       <path id="DejaVuSans-61" d="M 2194 1759 
Q 1497 1759 1228 1600 
Q 959 1441 959 1056 
Q 959 750 1161 570 
Q 1363 391 1709 391 
Q 2188 391 2477 730 
Q 2766 1069 2766 1631 
L 2766 1759 
L 2194 1759 
z
M 3341 1997 
L 3341 0 
L 2766 0 
L 2766 531 
Q 2569 213 2275 61 
Q 1981 -91 1556 -91 
Q 1019 -91 701 211 
Q 384 513 384 1019 
Q 384 1609 779 1909 
Q 1175 2209 1959 2209 
L 2766 2209 
L 2766 2266 
Q 2766 2663 2505 2880 
Q 2244 3097 1772 3097 
Q 1472 3097 1187 3025 
Q 903 2953 641 2809 
L 641 3341 
Q 956 3463 1253 3523 
Q 1550 3584 1831 3584 
Q 2591 3584 2966 3190 
Q 3341 2797 3341 1997 
z
" transform="scale(0.015625)"/>
       <path id="DejaVuSans-52" d="M 2841 2188 
Q 3044 2119 3236 1894 
Q 3428 1669 3622 1275 
L 4263 0 
L 3584 0 
L 2988 1197 
Q 2756 1666 2539 1819 
Q 2322 1972 1947 1972 
L 1259 1972 
L 1259 0 
L 628 0 
L 628 4666 
L 2053 4666 
Q 2853 4666 3247 4331 
Q 3641 3997 3641 3322 
Q 3641 2881 3436 2590 
Q 3231 2300 2841 2188 
z
M 1259 4147 
L 1259 2491 
L 2053 2491 
Q 2509 2491 2742 2702 
Q 2975 2913 2975 3322 
Q 2975 3731 2742 3939 
Q 2509 4147 2053 4147 
L 1259 4147 
z
" transform="scale(0.015625)"/>
       <path id="DejaVuSans-6f" d="M 1959 3097 
Q 1497 3097 1228 2736 
Q 959 2375 959 1747 
Q 959 1119 1226 758 
Q 1494 397 1959 397 
Q 2419 397 2687 759 
Q 2956 1122 2956 1747 
Q 2956 2369 2687 2733 
Q 2419 3097 1959 3097 
z
M 1959 3584 
Q 2709 3584 3137 3096 
Q 3566 2609 3566 1747 
Q 3566 888 3137 398 
Q 2709 -91 1959 -91 
Q 1206 -91 779 398 
Q 353 888 353 1747 
Q 353 2609 779 3096 
Q 1206 3584 1959 3584 
z
" transform="scale(0.015625)"/>
      </defs>
      <use xlink:href="#DejaVuSans-4c"/>
      <use xlink:href="#DejaVuSans-69" transform="translate(55.712891 0)"/>
      <use xlink:href="#DejaVuSans-6e" transform="translate(83.496094 0)"/>
      <use xlink:href="#DejaVuSans-65" transform="translate(146.875 0)"/>
      <use xlink:href="#DejaVuSans-61" transform="translate(208.398438 0)"/>
      <use xlink:href="#DejaVuSans-72" transform="translate(269.677734 0)"/>
      <use xlink:href="#DejaVuSans-65" transform="translate(308.541016 0)"/>
      <use xlink:href="#DejaVuSans-20" transform="translate(370.064453 0)"/>
      <use xlink:href="#DejaVuSans-52" transform="translate(401.851562 0)"/>
      <use xlink:href="#DejaVuSans-65" transform="translate(466.833984 0)"/>
      <use xlink:href="#DejaVuSans-67" transform="translate(528.357422 0)"/>
      <use xlink:href="#DejaVuSans-69" transform="translate(591.833984 0)"/>
      <use xlink:href="#DejaVuSans-6f" transform="translate(619.617188 0)"/>
      <use xlink:href="#DejaVuSans-6e" transform="translate(680.798828 0)"/>
     </g>
    </g>
    <g id="patch_9">
     <path d="M 230.575 254.777309 
L 250.575 254.777309 
L 250.575 247.777309 
L 230.575 247.777309 
z
" style="fill: #008000; fill-opacity: 0.2; stroke: #008000; stroke-opacity: 0.2; stroke-linejoin: miter"/>
    </g>
    <g id="text_12">
     <!-- Nicht-lineare Region -->
     <g transform="translate(258.575 254.777309) scale(0.1 -0.1)">
      <defs>
       <path id="DejaVuSans-4e" d="M 628 4666 
L 1478 4666 
L 3547 763 
L 3547 4666 
L 4159 4666 
L 4159 0 
L 3309 0 
L 1241 3903 
L 1241 0 
L 628 0 
L 628 4666 
z
" transform="scale(0.015625)"/>
       <path id="DejaVuSans-63" d="M 3122 3366 
L 3122 2828 
Q 2878 2963 2633 3030 
Q 2388 3097 2138 3097 
Q 1578 3097 1268 2742 
Q 959 2388 959 1747 
Q 959 1106 1268 751 
Q 1578 397 2138 397 
Q 2388 397 2633 464 
Q 2878 531 3122 666 
L 3122 134 
Q 2881 22 2623 -34 
Q 2366 -91 2075 -91 
Q 1284 -91 818 406 
Q 353 903 353 1747 
Q 353 2603 823 3093 
Q 1294 3584 2113 3584 
Q 2378 3584 2631 3529 
Q 2884 3475 3122 3366 
z
" transform="scale(0.015625)"/>
       <path id="DejaVuSans-68" d="M 3513 2113 
L 3513 0 
L 2938 0 
L 2938 2094 
Q 2938 2591 2744 2837 
Q 2550 3084 2163 3084 
Q 1697 3084 1428 2787 
Q 1159 2491 1159 1978 
L 1159 0 
L 581 0 
L 581 4863 
L 1159 4863 
L 1159 2956 
Q 1366 3272 1645 3428 
Q 1925 3584 2291 3584 
Q 2894 3584 3203 3211 
Q 3513 2838 3513 2113 
z
" transform="scale(0.015625)"/>
       <path id="DejaVuSans-2d" d="M 313 2009 
L 1997 2009 
L 1997 1497 
L 313 1497 
L 313 2009 
z
" transform="scale(0.015625)"/>
       <path id="DejaVuSans-6c" d="M 603 4863 
L 1178 4863 
L 1178 0 
L 603 0 
L 603 4863 
z
" transform="scale(0.015625)"/>
      </defs>
      <use xlink:href="#DejaVuSans-4e"/>
      <use xlink:href="#DejaVuSans-69" transform="translate(74.804688 0)"/>
      <use xlink:href="#DejaVuSans-63" transform="translate(102.587891 0)"/>
      <use xlink:href="#DejaVuSans-68" transform="translate(157.568359 0)"/>
      <use xlink:href="#DejaVuSans-74" transform="translate(220.947266 0)"/>
      <use xlink:href="#DejaVuSans-2d" transform="translate(260.15625 0)"/>
      <use xlink:href="#DejaVuSans-6c" transform="translate(296.240234 0)"/>
      <use xlink:href="#DejaVuSans-69" transform="translate(324.023438 0)"/>
      <use xlink:href="#DejaVuSans-6e" transform="translate(351.806641 0)"/>
      <use xlink:href="#DejaVuSans-65" transform="translate(415.185547 0)"/>
      <use xlink:href="#DejaVuSans-61" transform="translate(476.708984 0)"/>
      <use xlink:href="#DejaVuSans-72" transform="translate(537.988281 0)"/>
      <use xlink:href="#DejaVuSans-65" transform="translate(576.851562 0)"/>
      <use xlink:href="#DejaVuSans-20" transform="translate(638.375 0)"/>
      <use xlink:href="#DejaVuSans-52" transform="translate(670.162109 0)"/>
      <use xlink:href="#DejaVuSans-65" transform="translate(735.144531 0)"/>
      <use xlink:href="#DejaVuSans-67" transform="translate(796.667969 0)"/>
      <use xlink:href="#DejaVuSans-69" transform="translate(860.144531 0)"/>
      <use xlink:href="#DejaVuSans-6f" transform="translate(887.927734 0)"/>
      <use xlink:href="#DejaVuSans-6e" transform="translate(949.109375 0)"/>
     </g>
    </g>
    <g id="patch_10">
     <path d="M 230.575 269.455434 
L 250.575 269.455434 
L 250.575 262.455434 
L 230.575 262.455434 
z
" style="fill: #ffa500; fill-opacity: 0.2; stroke: #ffa500; stroke-opacity: 0.2; stroke-linejoin: miter"/>
    </g>
    <g id="text_13">
     <!-- Sättigungsregion -->
     <g transform="translate(258.575 269.455434) scale(0.1 -0.1)">
      <defs>
       <path id="DejaVuSans-53" d="M 3425 4513 
L 3425 3897 
Q 3066 4069 2747 4153 
Q 2428 4238 2131 4238 
Q 1616 4238 1336 4038 
Q 1056 3838 1056 3469 
Q 1056 3159 1242 3001 
Q 1428 2844 1947 2747 
L 2328 2669 
Q 3034 2534 3370 2195 
Q 3706 1856 3706 1288 
Q 3706 609 3251 259 
Q 2797 -91 1919 -91 
Q 1588 -91 1214 -16 
Q 841 59 441 206 
L 441 856 
Q 825 641 1194 531 
Q 1563 422 1919 422 
Q 2459 422 2753 634 
Q 3047 847 3047 1241 
Q 3047 1584 2836 1778 
Q 2625 1972 2144 2069 
L 1759 2144 
Q 1053 2284 737 2584 
Q 422 2884 422 3419 
Q 422 4038 858 4394 
Q 1294 4750 2059 4750 
Q 2388 4750 2728 4690 
Q 3069 4631 3425 4513 
z
" transform="scale(0.015625)"/>
      </defs>
      <use xlink:href="#DejaVuSans-53"/>
      <use xlink:href="#DejaVuSans-e4" transform="translate(63.476562 0)"/>
      <use xlink:href="#DejaVuSans-74" transform="translate(124.755859 0)"/>
      <use xlink:href="#DejaVuSans-74" transform="translate(163.964844 0)"/>
      <use xlink:href="#DejaVuSans-69" transform="translate(203.173828 0)"/>
      <use xlink:href="#DejaVuSans-67" transform="translate(230.957031 0)"/>
      <use xlink:href="#DejaVuSans-75" transform="translate(294.433594 0)"/>
      <use xlink:href="#DejaVuSans-6e" transform="translate(357.8125 0)"/>
      <use xlink:href="#DejaVuSans-67" transform="translate(421.191406 0)"/>
      <use xlink:href="#DejaVuSans-73" transform="translate(484.667969 0)"/>
      <use xlink:href="#DejaVuSans-72" transform="translate(536.767578 0)"/>
      <use xlink:href="#DejaVuSans-65" transform="translate(575.630859 0)"/>
      <use xlink:href="#DejaVuSans-67" transform="translate(637.154297 0)"/>
      <use xlink:href="#DejaVuSans-69" transform="translate(700.630859 0)"/>
      <use xlink:href="#DejaVuSans-6f" transform="translate(728.414062 0)"/>
      <use xlink:href="#DejaVuSans-6e" transform="translate(789.595703 0)"/>
     </g>
    </g>
    <g id="LineCollection_4">
     <path d="M 240.575 285.635122 
L 240.575 275.635122 
" style="fill: none; stroke: #1f77b4; stroke-width: 1.5"/>
    </g>
    <g id="line2d_28"/>
    <g id="line2d_29">
     <g>
      <use xlink:href="#m6946383cd3" x="240.575" y="280.635122" style="fill: #1f77b4; stroke: #1f77b4"/>
     </g>
    </g>
    <g id="text_14">
     <!-- Leistung $P$ in mW -->
     <g transform="translate(258.575 284.135122) scale(0.1 -0.1)">
      <defs>
       <path id="DejaVuSans-Oblique-50" d="M 1081 4666 
L 2541 4666 
Q 3178 4666 3512 4369 
Q 3847 4072 3847 3500 
Q 3847 2731 3353 2303 
Q 2859 1875 1966 1875 
L 1172 1875 
L 806 0 
L 172 0 
L 1081 4666 
z
M 1613 4147 
L 1275 2394 
L 2069 2394 
Q 2606 2394 2893 2669 
Q 3181 2944 3181 3456 
Q 3181 3784 2986 3965 
Q 2791 4147 2438 4147 
L 1613 4147 
z
" transform="scale(0.015625)"/>
       <path id="DejaVuSans-6d" d="M 3328 2828 
Q 3544 3216 3844 3400 
Q 4144 3584 4550 3584 
Q 5097 3584 5394 3201 
Q 5691 2819 5691 2113 
L 5691 0 
L 5113 0 
L 5113 2094 
Q 5113 2597 4934 2840 
Q 4756 3084 4391 3084 
Q 3944 3084 3684 2787 
Q 3425 2491 3425 1978 
L 3425 0 
L 2847 0 
L 2847 2094 
Q 2847 2600 2669 2842 
Q 2491 3084 2119 3084 
Q 1678 3084 1418 2786 
Q 1159 2488 1159 1978 
L 1159 0 
L 581 0 
L 581 3500 
L 1159 3500 
L 1159 2956 
Q 1356 3278 1631 3431 
Q 1906 3584 2284 3584 
Q 2666 3584 2933 3390 
Q 3200 3197 3328 2828 
z
" transform="scale(0.015625)"/>
      </defs>
      <use xlink:href="#DejaVuSans-4c" transform="translate(0 0.015625)"/>
      <use xlink:href="#DejaVuSans-65" transform="translate(55.712891 0.015625)"/>
      <use xlink:href="#DejaVuSans-69" transform="translate(117.236328 0.015625)"/>
      <use xlink:href="#DejaVuSans-73" transform="translate(145.019531 0.015625)"/>
      <use xlink:href="#DejaVuSans-74" transform="translate(197.119141 0.015625)"/>
      <use xlink:href="#DejaVuSans-75" transform="translate(236.328125 0.015625)"/>
      <use xlink:href="#DejaVuSans-6e" transform="translate(299.707031 0.015625)"/>
      <use xlink:href="#DejaVuSans-67" transform="translate(363.085938 0.015625)"/>
      <use xlink:href="#DejaVuSans-20" transform="translate(426.5625 0.015625)"/>
      <use xlink:href="#DejaVuSans-Oblique-50" transform="translate(458.349609 0.015625)"/>
      <use xlink:href="#DejaVuSans-20" transform="translate(518.652344 0.015625)"/>
      <use xlink:href="#DejaVuSans-69" transform="translate(550.439453 0.015625)"/>
      <use xlink:href="#DejaVuSans-6e" transform="translate(578.222656 0.015625)"/>
      <use xlink:href="#DejaVuSans-20" transform="translate(641.601562 0.015625)"/>
      <use xlink:href="#DejaVuSans-6d" transform="translate(673.388672 0.015625)"/>
      <use xlink:href="#DejaVuSans-57" transform="translate(770.800781 0.015625)"/>
     </g>
    </g>
   </g>
  </g>
  <g id="axes_2">
   <g id="patch_11">
    <path d="M 72 384.48 
L 518.4 384.48 
L 518.4 303.348293 
L 72 303.348293 
z
" style="fill: #ffffff"/>
   </g>
   <g id="matplotlib.axis_3">
    <g id="xtick_6">
     <g id="line2d_30">
      <path d="M 92.290909 384.48 
L 92.290909 303.348293 
" clip-path="url(#p5d66e55066)" style="fill: none; stroke-dasharray: 1.85,0.8; stroke-dashoffset: 0; stroke: #b0b0b0; stroke-width: 0.5"/>
     </g>
     <g id="line2d_31">
      <g>
       <use xlink:href="#m574342c773" x="92.290909" y="384.48" style="stroke: #000000; stroke-width: 0.8"/>
      </g>
     </g>
     <g id="text_15">
      <!-- 0 -->
      <g transform="translate(89.109659 399.078438) scale(0.1 -0.1)">
       <use xlink:href="#DejaVuSans-30"/>
      </g>
     </g>
    </g>
    <g id="xtick_7">
     <g id="line2d_32">
      <path d="M 183.147082 384.48 
L 183.147082 303.348293 
" clip-path="url(#p5d66e55066)" style="fill: none; stroke-dasharray: 1.85,0.8; stroke-dashoffset: 0; stroke: #b0b0b0; stroke-width: 0.5"/>
     </g>
     <g id="line2d_33">
      <g>
       <use xlink:href="#m574342c773" x="183.147082" y="384.48" style="stroke: #000000; stroke-width: 0.8"/>
      </g>
     </g>
     <g id="text_16">
      <!-- 5000 -->
      <g transform="translate(170.422082 399.078438) scale(0.1 -0.1)">
       <defs>
        <path id="DejaVuSans-35" d="M 691 4666 
L 3169 4666 
L 3169 4134 
L 1269 4134 
L 1269 2991 
Q 1406 3038 1543 3061 
Q 1681 3084 1819 3084 
Q 2600 3084 3056 2656 
Q 3513 2228 3513 1497 
Q 3513 744 3044 326 
Q 2575 -91 1722 -91 
Q 1428 -91 1123 -41 
Q 819 9 494 109 
L 494 744 
Q 775 591 1075 516 
Q 1375 441 1709 441 
Q 2250 441 2565 725 
Q 2881 1009 2881 1497 
Q 2881 1984 2565 2268 
Q 2250 2553 1709 2553 
Q 1456 2553 1204 2497 
Q 953 2441 691 2322 
L 691 4666 
z
" transform="scale(0.015625)"/>
       </defs>
       <use xlink:href="#DejaVuSans-35"/>
       <use xlink:href="#DejaVuSans-30" transform="translate(63.623047 0)"/>
       <use xlink:href="#DejaVuSans-30" transform="translate(127.246094 0)"/>
       <use xlink:href="#DejaVuSans-30" transform="translate(190.869141 0)"/>
      </g>
     </g>
    </g>
    <g id="xtick_8">
     <g id="line2d_34">
      <path d="M 274.003255 384.48 
L 274.003255 303.348293 
" clip-path="url(#p5d66e55066)" style="fill: none; stroke-dasharray: 1.85,0.8; stroke-dashoffset: 0; stroke: #b0b0b0; stroke-width: 0.5"/>
     </g>
     <g id="line2d_35">
      <g>
       <use xlink:href="#m574342c773" x="274.003255" y="384.48" style="stroke: #000000; stroke-width: 0.8"/>
      </g>
     </g>
     <g id="text_17">
      <!-- 10000 -->
      <g transform="translate(258.097005 399.078438) scale(0.1 -0.1)">
       <use xlink:href="#DejaVuSans-31"/>
       <use xlink:href="#DejaVuSans-30" transform="translate(63.623047 0)"/>
       <use xlink:href="#DejaVuSans-30" transform="translate(127.246094 0)"/>
       <use xlink:href="#DejaVuSans-30" transform="translate(190.869141 0)"/>
       <use xlink:href="#DejaVuSans-30" transform="translate(254.492188 0)"/>
      </g>
     </g>
    </g>
    <g id="xtick_9">
     <g id="line2d_36">
      <path d="M 364.859428 384.48 
L 364.859428 303.348293 
" clip-path="url(#p5d66e55066)" style="fill: none; stroke-dasharray: 1.85,0.8; stroke-dashoffset: 0; stroke: #b0b0b0; stroke-width: 0.5"/>
     </g>
     <g id="line2d_37">
      <g>
       <use xlink:href="#m574342c773" x="364.859428" y="384.48" style="stroke: #000000; stroke-width: 0.8"/>
      </g>
     </g>
     <g id="text_18">
      <!-- 15000 -->
      <g transform="translate(348.953178 399.078438) scale(0.1 -0.1)">
       <use xlink:href="#DejaVuSans-31"/>
       <use xlink:href="#DejaVuSans-35" transform="translate(63.623047 0)"/>
       <use xlink:href="#DejaVuSans-30" transform="translate(127.246094 0)"/>
       <use xlink:href="#DejaVuSans-30" transform="translate(190.869141 0)"/>
       <use xlink:href="#DejaVuSans-30" transform="translate(254.492188 0)"/>
      </g>
     </g>
    </g>
    <g id="xtick_10">
     <g id="line2d_38">
      <path d="M 455.715601 384.48 
L 455.715601 303.348293 
" clip-path="url(#p5d66e55066)" style="fill: none; stroke-dasharray: 1.85,0.8; stroke-dashoffset: 0; stroke: #b0b0b0; stroke-width: 0.5"/>
     </g>
     <g id="line2d_39">
      <g>
       <use xlink:href="#m574342c773" x="455.715601" y="384.48" style="stroke: #000000; stroke-width: 0.8"/>
      </g>
     </g>
     <g id="text_19">
      <!-- 20000 -->
      <g transform="translate(439.809351 399.078438) scale(0.1 -0.1)">
       <use xlink:href="#DejaVuSans-32"/>
       <use xlink:href="#DejaVuSans-30" transform="translate(63.623047 0)"/>
       <use xlink:href="#DejaVuSans-30" transform="translate(127.246094 0)"/>
       <use xlink:href="#DejaVuSans-30" transform="translate(190.869141 0)"/>
       <use xlink:href="#DejaVuSans-30" transform="translate(254.492188 0)"/>
      </g>
     </g>
    </g>
    <g id="text_20">
     <!-- Strom $I$ in mA -->
     <g transform="translate(260.95 412.756563) scale(0.1 -0.1)">
      <defs>
       <path id="DejaVuSans-Oblique-49" d="M 1081 4666 
L 1716 4666 
L 806 0 
L 172 0 
L 1081 4666 
z
" transform="scale(0.015625)"/>
       <path id="DejaVuSans-41" d="M 2188 4044 
L 1331 1722 
L 3047 1722 
L 2188 4044 
z
M 1831 4666 
L 2547 4666 
L 4325 0 
L 3669 0 
L 3244 1197 
L 1141 1197 
L 716 0 
L 50 0 
L 1831 4666 
z
" transform="scale(0.015625)"/>
      </defs>
      <use xlink:href="#DejaVuSans-53" transform="translate(0 0.015625)"/>
      <use xlink:href="#DejaVuSans-74" transform="translate(63.476562 0.015625)"/>
      <use xlink:href="#DejaVuSans-72" transform="translate(102.685547 0.015625)"/>
      <use xlink:href="#DejaVuSans-6f" transform="translate(143.798828 0.015625)"/>
      <use xlink:href="#DejaVuSans-6d" transform="translate(204.980469 0.015625)"/>
      <use xlink:href="#DejaVuSans-20" transform="translate(302.392578 0.015625)"/>
      <use xlink:href="#DejaVuSans-Oblique-49" transform="translate(334.179688 0.015625)"/>
      <use xlink:href="#DejaVuSans-20" transform="translate(363.671875 0.015625)"/>
      <use xlink:href="#DejaVuSans-69" transform="translate(395.458984 0.015625)"/>
      <use xlink:href="#DejaVuSans-6e" transform="translate(423.242188 0.015625)"/>
      <use xlink:href="#DejaVuSans-20" transform="translate(486.621094 0.015625)"/>
      <use xlink:href="#DejaVuSans-6d" transform="translate(518.408203 0.015625)"/>
      <use xlink:href="#DejaVuSans-41" transform="translate(615.820312 0.015625)"/>
     </g>
    </g>
   </g>
   <g id="matplotlib.axis_4">
    <g id="ytick_7">
     <g id="line2d_40">
      <path d="M 72 374.138366 
L 518.4 374.138366 
" clip-path="url(#p5d66e55066)" style="fill: none; stroke-dasharray: 1.85,0.8; stroke-dashoffset: 0; stroke: #b0b0b0; stroke-width: 0.5"/>
     </g>
     <g id="line2d_41">
      <g>
       <use xlink:href="#m2fe514479d" x="72" y="374.138366" style="stroke: #000000; stroke-width: 0.8"/>
      </g>
     </g>
     <g id="text_21">
      <!-- −5 -->
      <g transform="translate(50.257812 377.937585) scale(0.1 -0.1)">
       <defs>
        <path id="DejaVuSans-2212" d="M 678 2272 
L 4684 2272 
L 4684 1741 
L 678 1741 
L 678 2272 
z
" transform="scale(0.015625)"/>
       </defs>
       <use xlink:href="#DejaVuSans-2212"/>
       <use xlink:href="#DejaVuSans-35" transform="translate(83.789062 0)"/>
      </g>
     </g>
    </g>
    <g id="ytick_8">
     <g id="line2d_42">
      <path d="M 72 337.979761 
L 518.4 337.979761 
" clip-path="url(#p5d66e55066)" style="fill: none; stroke-dasharray: 1.85,0.8; stroke-dashoffset: 0; stroke: #b0b0b0; stroke-width: 0.5"/>
     </g>
     <g id="line2d_43">
      <g>
       <use xlink:href="#m2fe514479d" x="72" y="337.979761" style="stroke: #000000; stroke-width: 0.8"/>
      </g>
     </g>
     <g id="text_22">
      <!-- 0 -->
      <g transform="translate(58.6375 341.77898) scale(0.1 -0.1)">
       <use xlink:href="#DejaVuSans-30"/>
      </g>
     </g>
    </g>
    <g id="text_23">
     <!-- Residuen -->
     <g transform="translate(44.178125 366.821959) rotate(-90) scale(0.1 -0.1)">
      <defs>
       <path id="DejaVuSans-64" d="M 2906 2969 
L 2906 4863 
L 3481 4863 
L 3481 0 
L 2906 0 
L 2906 525 
Q 2725 213 2448 61 
Q 2172 -91 1784 -91 
Q 1150 -91 751 415 
Q 353 922 353 1747 
Q 353 2572 751 3078 
Q 1150 3584 1784 3584 
Q 2172 3584 2448 3432 
Q 2725 3281 2906 2969 
z
M 947 1747 
Q 947 1113 1208 752 
Q 1469 391 1925 391 
Q 2381 391 2643 752 
Q 2906 1113 2906 1747 
Q 2906 2381 2643 2742 
Q 2381 3103 1925 3103 
Q 1469 3103 1208 2742 
Q 947 2381 947 1747 
z
" transform="scale(0.015625)"/>
      </defs>
      <use xlink:href="#DejaVuSans-52"/>
      <use xlink:href="#DejaVuSans-65" transform="translate(64.982422 0)"/>
      <use xlink:href="#DejaVuSans-73" transform="translate(126.505859 0)"/>
      <use xlink:href="#DejaVuSans-69" transform="translate(178.605469 0)"/>
      <use xlink:href="#DejaVuSans-64" transform="translate(206.388672 0)"/>
      <use xlink:href="#DejaVuSans-75" transform="translate(269.865234 0)"/>
      <use xlink:href="#DejaVuSans-65" transform="translate(333.244141 0)"/>
      <use xlink:href="#DejaVuSans-6e" transform="translate(394.767578 0)"/>
     </g>
    </g>
   </g>
   <g id="LineCollection_5">
    <path d="M 100.097271 380.792195 
L 100.097271 366.328753 
" clip-path="url(#p5d66e55066)" style="fill: none; stroke: #800000; stroke-width: 1.5"/>
    <path d="M 106.926021 348.377843 
L 106.926021 333.914401 
" clip-path="url(#p5d66e55066)" style="fill: none; stroke: #800000; stroke-width: 1.5"/>
    <path d="M 108.93576 340.989549 
L 108.93576 326.526107 
" clip-path="url(#p5d66e55066)" style="fill: none; stroke: #800000; stroke-width: 1.5"/>
    <path d="M 110.365836 332.534848 
L 110.365836 318.071406 
" clip-path="url(#p5d66e55066)" style="fill: none; stroke: #800000; stroke-width: 1.5"/>
    <path d="M 112.918895 332.924423 
L 112.918895 318.460981 
" clip-path="url(#p5d66e55066)" style="fill: none; stroke: #800000; stroke-width: 1.5"/>
    <path d="M 114.852314 331.675306 
L 114.852314 317.211864 
" clip-path="url(#p5d66e55066)" style="fill: none; stroke: #800000; stroke-width: 1.5"/>
    <path d="M 116.99652 333.443691 
L 116.99652 318.980249 
" clip-path="url(#p5d66e55066)" style="fill: none; stroke: #800000; stroke-width: 1.5"/>
    <path d="M 119.840318 323.531894 
L 119.840318 309.068452 
" clip-path="url(#p5d66e55066)" style="fill: none; stroke: #800000; stroke-width: 1.5"/>
    <path d="M 125.420704 345.563862 
L 125.420704 331.10042 
" clip-path="url(#p5d66e55066)" style="fill: none; stroke: #800000; stroke-width: 1.5"/>
    <path d="M 128.409872 359.428263 
L 128.409872 344.964821 
" clip-path="url(#p5d66e55066)" style="fill: none; stroke: #800000; stroke-width: 1.5"/>
    <path d="M 131.524422 367.855836 
L 131.524422 353.392394 
" clip-path="url(#p5d66e55066)" style="fill: none; stroke: #800000; stroke-width: 1.5"/>
    <path d="M 133.337911 379.353307 
L 133.337911 307.036098 
" clip-path="url(#p5d66e55066)" style="fill: none; stroke: #800000; stroke-width: 1.5"/>
   </g>
   <g id="line2d_44">
    <defs>
     <path id="m3e60b96aba" d="M 0 3 
C 0.795609 3 1.55874 2.683901 2.12132 2.12132 
C 2.683901 1.55874 3 0.795609 3 0 
C 3 -0.795609 2.683901 -1.55874 2.12132 -2.12132 
C 1.55874 -2.683901 0.795609 -3 0 -3 
C -0.795609 -3 -1.55874 -2.683901 -2.12132 -2.12132 
C -2.683901 -1.55874 -3 -0.795609 -3 0 
C -3 0.795609 -2.683901 1.55874 -2.12132 2.12132 
C -1.55874 2.683901 -0.795609 3 0 3 
z
" style="stroke: #800000"/>
    </defs>
    <g clip-path="url(#p5d66e55066)">
     <use xlink:href="#m3e60b96aba" x="100.097271" y="373.560474" style="fill: #800000; stroke: #800000"/>
     <use xlink:href="#m3e60b96aba" x="106.926021" y="341.146122" style="fill: #800000; stroke: #800000"/>
     <use xlink:href="#m3e60b96aba" x="108.93576" y="333.757828" style="fill: #800000; stroke: #800000"/>
     <use xlink:href="#m3e60b96aba" x="110.365836" y="325.303127" style="fill: #800000; stroke: #800000"/>
     <use xlink:href="#m3e60b96aba" x="112.918895" y="325.692702" style="fill: #800000; stroke: #800000"/>
     <use xlink:href="#m3e60b96aba" x="114.852314" y="324.443585" style="fill: #800000; stroke: #800000"/>
     <use xlink:href="#m3e60b96aba" x="116.99652" y="326.21197" style="fill: #800000; stroke: #800000"/>
     <use xlink:href="#m3e60b96aba" x="119.840318" y="316.300173" style="fill: #800000; stroke: #800000"/>
     <use xlink:href="#m3e60b96aba" x="125.420704" y="338.332141" style="fill: #800000; stroke: #800000"/>
     <use xlink:href="#m3e60b96aba" x="128.409872" y="352.196542" style="fill: #800000; stroke: #800000"/>
     <use xlink:href="#m3e60b96aba" x="131.524422" y="360.624115" style="fill: #800000; stroke: #800000"/>
     <use xlink:href="#m3e60b96aba" x="133.337911" y="343.194702" style="fill: #800000; stroke: #800000"/>
    </g>
   </g>
   <g id="patch_12">
    <path d="M 72 384.48 
L 72 303.348293 
" style="fill: none; stroke: #000000; stroke-width: 0.8; stroke-linejoin: miter; stroke-linecap: square"/>
   </g>
   <g id="patch_13">
    <path d="M 518.4 384.48 
L 518.4 303.348293 
" style="fill: none; stroke: #000000; stroke-width: 0.8; stroke-linejoin: miter; stroke-linecap: square"/>
   </g>
   <g id="patch_14">
    <path d="M 72 384.48 
L 518.4 384.48 
" style="fill: none; stroke: #000000; stroke-width: 0.8; stroke-linejoin: miter; stroke-linecap: square"/>
   </g>
   <g id="patch_15">
    <path d="M 72 303.348293 
L 518.4 303.348293 
" style="fill: none; stroke: #000000; stroke-width: 0.8; stroke-linejoin: miter; stroke-linecap: square"/>
   </g>
   <g id="line2d_45">
    <path d="M 72 337.979761 
L 518.4 337.979761 
" clip-path="url(#p5d66e55066)" style="fill: none; stroke-dasharray: 5.55,2.4; stroke-dashoffset: 0; stroke: #000000; stroke-width: 1.5"/>
   </g>
   <g id="text_24">
    <g id="patch_16">
     <path d="M 205.92 372.330732 
L 328.92 372.330732 
Q 332.52 372.330732 332.52 368.730732 
L 332.52 347.970732 
Q 332.52 344.370732 328.92 344.370732 
L 205.92 344.370732 
Q 202.32 344.370732 202.32 347.970732 
L 202.32 368.730732 
Q 202.32 372.330732 205.92 372.330732 
z
" style="fill: #ffffff; opacity: 0.5; stroke: #000000; stroke-linejoin: miter"/>
    </g>
    <!-- $\frac{\chi^2}{N_{dof}}$ = 5.95, Ndof=10 -->
    <g transform="translate(205.92 362.610732) scale(0.12 -0.12)">
     <defs>
      <path id="DejaVuSans-Oblique-3c7" d="M 1922 -781 
L 1691 416 
L 394 -1334 
L -284 -1334 
L 1553 1141 
L 1269 2613 
Q 1194 3006 713 3006 
L 559 3006 
L 653 3500 
L 872 3494 
Q 1675 3472 1775 2950 
L 2006 1753 
L 3303 3503 
L 3981 3503 
L 2144 1028 
L 2428 -444 
Q 2503 -838 2984 -838 
L 3138 -838 
L 3044 -1331 
L 2825 -1325 
Q 2022 -1303 1922 -781 
z
" transform="scale(0.015625)"/>
      <path id="DejaVuSans-Oblique-4e" d="M 1081 4666 
L 1931 4666 
L 3219 666 
L 4000 4666 
L 4616 4666 
L 3706 0 
L 2853 0 
L 1569 4025 
L 788 0 
L 172 0 
L 1081 4666 
z
" transform="scale(0.015625)"/>
      <path id="DejaVuSans-Oblique-64" d="M 2675 525 
Q 2444 222 2128 65 
Q 1813 -91 1428 -91 
Q 903 -91 598 267 
Q 294 625 294 1247 
Q 294 1766 478 2236 
Q 663 2706 1013 3078 
Q 1244 3325 1534 3454 
Q 1825 3584 2144 3584 
Q 2481 3584 2739 3421 
Q 2997 3259 3138 2956 
L 3513 4863 
L 4091 4863 
L 3144 0 
L 2566 0 
L 2675 525 
z
M 891 1350 
Q 891 897 1095 644 
Q 1300 391 1663 391 
Q 1931 391 2161 520 
Q 2391 650 2566 903 
Q 2750 1166 2856 1509 
Q 2963 1853 2963 2188 
Q 2963 2622 2758 2865 
Q 2553 3109 2194 3109 
Q 1922 3109 1687 2981 
Q 1453 2853 1288 2613 
Q 1106 2353 998 2009 
Q 891 1666 891 1350 
z
" transform="scale(0.015625)"/>
      <path id="DejaVuSans-Oblique-6f" d="M 1625 -91 
Q 1009 -91 651 289 
Q 294 669 294 1325 
Q 294 1706 417 2101 
Q 541 2497 738 2766 
Q 1047 3184 1428 3384 
Q 1809 3584 2291 3584 
Q 2888 3584 3255 3212 
Q 3622 2841 3622 2241 
Q 3622 1825 3500 1412 
Q 3378 1000 3181 728 
Q 2875 309 2494 109 
Q 2113 -91 1625 -91 
z
M 891 1344 
Q 891 869 1089 633 
Q 1288 397 1691 397 
Q 2269 397 2648 901 
Q 3028 1406 3028 2181 
Q 3028 2634 2825 2865 
Q 2622 3097 2228 3097 
Q 1903 3097 1650 2945 
Q 1397 2794 1197 2484 
Q 1050 2253 970 1956 
Q 891 1659 891 1344 
z
" transform="scale(0.015625)"/>
      <path id="DejaVuSans-Oblique-66" d="M 3059 4863 
L 2969 4384 
L 2419 4384 
Q 2106 4384 1964 4261 
Q 1822 4138 1753 3809 
L 1691 3500 
L 2638 3500 
L 2553 3053 
L 1606 3053 
L 1013 0 
L 434 0 
L 1031 3053 
L 481 3053 
L 563 3500 
L 1113 3500 
L 1159 3744 
Q 1278 4363 1576 4613 
Q 1875 4863 2516 4863 
L 3059 4863 
z
" transform="scale(0.015625)"/>
      <path id="DejaVuSans-3d" d="M 678 2906 
L 4684 2906 
L 4684 2381 
L 678 2381 
L 678 2906 
z
M 678 1631 
L 4684 1631 
L 4684 1100 
L 678 1100 
L 678 1631 
z
" transform="scale(0.015625)"/>
      <path id="DejaVuSans-2e" d="M 684 794 
L 1344 794 
L 1344 0 
L 684 0 
L 684 794 
z
" transform="scale(0.015625)"/>
      <path id="DejaVuSans-39" d="M 703 97 
L 703 672 
Q 941 559 1184 500 
Q 1428 441 1663 441 
Q 2288 441 2617 861 
Q 2947 1281 2994 2138 
Q 2813 1869 2534 1725 
Q 2256 1581 1919 1581 
Q 1219 1581 811 2004 
Q 403 2428 403 3163 
Q 403 3881 828 4315 
Q 1253 4750 1959 4750 
Q 2769 4750 3195 4129 
Q 3622 3509 3622 2328 
Q 3622 1225 3098 567 
Q 2575 -91 1691 -91 
Q 1453 -91 1209 -44 
Q 966 3 703 97 
z
M 1959 2075 
Q 2384 2075 2632 2365 
Q 2881 2656 2881 3163 
Q 2881 3666 2632 3958 
Q 2384 4250 1959 4250 
Q 1534 4250 1286 3958 
Q 1038 3666 1038 3163 
Q 1038 2656 1286 2365 
Q 1534 2075 1959 2075 
z
" transform="scale(0.015625)"/>
      <path id="DejaVuSans-2c" d="M 750 794 
L 1409 794 
L 1409 256 
L 897 -744 
L 494 -744 
L 750 256 
L 750 794 
z
" transform="scale(0.015625)"/>
      <path id="DejaVuSans-66" d="M 2375 4863 
L 2375 4384 
L 1825 4384 
Q 1516 4384 1395 4259 
Q 1275 4134 1275 3809 
L 1275 3500 
L 2222 3500 
L 2222 3053 
L 1275 3053 
L 1275 0 
L 697 0 
L 697 3053 
L 147 3053 
L 147 3500 
L 697 3500 
L 697 3744 
Q 697 4328 969 4595 
Q 1241 4863 1831 4863 
L 2375 4863 
z
" transform="scale(0.015625)"/>
     </defs>
     <use xlink:href="#DejaVuSans-Oblique-3c7" transform="translate(27 58.835938) scale(0.7)"/>
     <use xlink:href="#DejaVuSans-32" transform="translate(71.556677 85.632813) scale(0.49)"/>
     <use xlink:href="#DejaVuSans-Oblique-4e" transform="translate(0 -38.039062) scale(0.7)"/>
     <use xlink:href="#DejaVuSans-Oblique-64" transform="translate(52.363281 -49.523438) scale(0.49)"/>
     <use xlink:href="#DejaVuSans-Oblique-6f" transform="translate(83.466797 -49.523438) scale(0.49)"/>
     <use xlink:href="#DejaVuSans-Oblique-66" transform="translate(113.445801 -49.523438) scale(0.49)"/>
     <use xlink:href="#DejaVuSans-20" transform="translate(145.110352 0.448437)"/>
     <use xlink:href="#DejaVuSans-3d" transform="translate(176.897461 0.448437)"/>
     <use xlink:href="#DejaVuSans-20" transform="translate(260.686523 0.448437)"/>
     <use xlink:href="#DejaVuSans-35" transform="translate(292.473633 0.448437)"/>
     <use xlink:href="#DejaVuSans-2e" transform="translate(356.09668 0.448437)"/>
     <use xlink:href="#DejaVuSans-39" transform="translate(387.883789 0.448437)"/>
     <use xlink:href="#DejaVuSans-35" transform="translate(451.506836 0.448437)"/>
     <use xlink:href="#DejaVuSans-2c" transform="translate(515.129883 0.448437)"/>
     <use xlink:href="#DejaVuSans-20" transform="translate(546.916992 0.448437)"/>
     <use xlink:href="#DejaVuSans-4e" transform="translate(578.704102 0.448437)"/>
     <use xlink:href="#DejaVuSans-64" transform="translate(653.508789 0.448437)"/>
     <use xlink:href="#DejaVuSans-6f" transform="translate(716.985352 0.448437)"/>
     <use xlink:href="#DejaVuSans-66" transform="translate(778.166992 0.448437)"/>
     <use xlink:href="#DejaVuSans-3d" transform="translate(813.37207 0.448437)"/>
     <use xlink:href="#DejaVuSans-31" transform="translate(897.161133 0.448437)"/>
     <use xlink:href="#DejaVuSans-30" transform="translate(960.78418 0.448437)"/>
     <path d="M 0 19.245313 
L 0 25.495313 
L 132.610352 25.495313 
L 132.610352 19.245313 
L 0 19.245313 
z
"/>
    </g>
   </g>
   <g id="legend_2">
    <g id="patch_17">
     <path d="M 433.584375 326.026418 
L 511.4 326.026418 
Q 513.4 326.026418 513.4 324.026418 
L 513.4 310.348293 
Q 513.4 308.348293 511.4 308.348293 
L 433.584375 308.348293 
Q 431.584375 308.348293 431.584375 310.348293 
L 431.584375 324.026418 
Q 431.584375 326.026418 433.584375 326.026418 
z
" style="fill: #ffffff; opacity: 0.8; stroke: #cccccc; stroke-linejoin: miter"/>
    </g>
    <g id="LineCollection_6">
     <path d="M 445.584375 321.44673 
L 445.584375 311.44673 
" style="fill: none; stroke: #800000; stroke-width: 1.5"/>
    </g>
    <g id="line2d_46"/>
    <g id="line2d_47">
     <g>
      <use xlink:href="#m3e60b96aba" x="445.584375" y="316.44673" style="fill: #800000; stroke: #800000"/>
     </g>
    </g>
    <g id="text_25">
     <!-- Residuen -->
     <g transform="translate(463.584375 319.94673) scale(0.1 -0.1)">
      <use xlink:href="#DejaVuSans-52"/>
      <use xlink:href="#DejaVuSans-65" transform="translate(64.982422 0)"/>
      <use xlink:href="#DejaVuSans-73" transform="translate(126.505859 0)"/>
      <use xlink:href="#DejaVuSans-69" transform="translate(178.605469 0)"/>
      <use xlink:href="#DejaVuSans-64" transform="translate(206.388672 0)"/>
      <use xlink:href="#DejaVuSans-75" transform="translate(269.865234 0)"/>
      <use xlink:href="#DejaVuSans-65" transform="translate(333.244141 0)"/>
      <use xlink:href="#DejaVuSans-6e" transform="translate(394.767578 0)"/>
     </g>
    </g>
   </g>
  </g>
 </g>
 <defs>
  <clipPath id="pb77655d1a8">
   <rect x="72" y="51.84" width="446.4" height="243.395122"/>
  </clipPath>
  <clipPath id="p5d66e55066">
   <rect x="72" y="303.348293" width="446.4" height="81.131707"/>
  </clipPath>
 </defs>
</svg>
