<?xml version="1.0" encoding="utf-8" standalone="no"?>
<!DOCTYPE svg PUBLIC "-//W3C//DTD SVG 1.1//EN"
  "http://www.w3.org/Graphics/SVG/1.1/DTD/svg11.dtd">
<svg xmlns:xlink="http://www.w3.org/1999/xlink" width="460.8pt" height="345.6pt" viewBox="0 0 460.8 345.6" xmlns="http://www.w3.org/2000/svg" version="1.1">
 <metadata>
  <rdf:RDF xmlns:dc="http://purl.org/dc/elements/1.1/" xmlns:cc="http://creativecommons.org/ns#" xmlns:rdf="http://www.w3.org/1999/02/22-rdf-syntax-ns#">
   <cc:Work>
    <dc:type rdf:resource="http://purl.org/dc/dcmitype/StillImage"/>
    <dc:date>2026-03-25T13:00:53.441533</dc:date>
    <dc:format>image/svg+xml</dc:format>
    <dc:creator>
     <cc:Agent>
      <dc:title>Matplotlib v3.10.6, https://matplotlib.org/</dc:title>
     </cc:Agent>
    </dc:creator>
   </cc:Work>
  </rdf:RDF>
 </metadata>
 <defs>
  <style type="text/css">*{stroke-linejoin: round; stroke-linecap: butt}</style>
 </defs>
 <g id="figure_1">
  <g id="patch_1">
   <path d="M 0 345.6 
L 460.8 345.6 
L 460.8 0 
L 0 0 
z
" style="fill: #ffffff"/>
  </g>
  <g id="axes_1">
   <g id="patch_2">
    <path d="M 57.6 307.584 
L 414.72 307.584 
L 414.72 41.472 
L 57.6 41.472 
z
" style="fill: #ffffff"/>
   </g>
   <g id="matplotlib.axis_1">
    <g id="xtick_1">
     <g id="line2d_1">
      <path d="M 110.227922 307.584 
L 110.227922 41.472 
" clip-path="url(#p4ca54f4635)" style="fill: none; stroke: #b0b0b0; stroke-width: 0.8; stroke-linecap: square"/>
     </g>
     <g id="line2d_2">
      <defs>
       <path id="mea3062bca6" d="M 0 0 
L 0 3.5 
" style="stroke: #000000; stroke-width: 0.8"/>
      </defs>
      <g>
       <use xlink:href="#mea3062bca6" x="110.227922" y="307.584" style="stroke: #000000; stroke-width: 0.8"/>
      </g>
     </g>
     <g id="text_1">
      <!-- −4 -->
      <g transform="translate(102.856828 322.182437) scale(0.1 -0.1)">
       <defs>
        <path id="DejaVuSans-2212" d="M 678 2272 
L 4684 2272 
L 4684 1741 
L 678 1741 
L 678 2272 
z
" transform="scale(0.015625)"/>
        <path id="DejaVuSans-34" d="M 2419 4116 
L 825 1625 
L 2419 1625 
L 2419 4116 
z
M 2253 4666 
L 3047 4666 
L 3047 1625 
L 3713 1625 
L 3713 1100 
L 3047 1100 
L 3047 0 
L 2419 0 
L 2419 1100 
L 313 1100 
L 313 1709 
L 2253 4666 
z
" transform="scale(0.015625)"/>
       </defs>
       <use xlink:href="#DejaVuSans-2212"/>
       <use xlink:href="#DejaVuSans-34" transform="translate(83.789062 0)"/>
      </g>
     </g>
    </g>
    <g id="xtick_2">
     <g id="line2d_3">
      <path d="M 188.66584 307.584 
L 188.66584 41.472 
" clip-path="url(#p4ca54f4635)" style="fill: none; stroke: #b0b0b0; stroke-width: 0.8; stroke-linecap: square"/>
     </g>
     <g id="line2d_4">
      <g>
       <use xlink:href="#mea3062bca6" x="188.66584" y="307.584" style="stroke: #000000; stroke-width: 0.8"/>
      </g>
     </g>
     <g id="text_2">
      <!-- −2 -->
      <g transform="translate(181.294746 322.182437) scale(0.1 -0.1)">
       <defs>
        <path id="DejaVuSans-32" d="M 1228 531 
L 3431 531 
L 3431 0 
L 469 0 
L 469 531 
Q 828 903 1448 1529 
Q 2069 2156 2228 2338 
Q 2531 2678 2651 2914 
Q 2772 3150 2772 3378 
Q 2772 3750 2511 3984 
Q 2250 4219 1831 4219 
Q 1534 4219 1204 4116 
Q 875 4013 500 3803 
L 500 4441 
Q 881 4594 1212 4672 
Q 1544 4750 1819 4750 
Q 2544 4750 2975 4387 
Q 3406 4025 3406 3419 
Q 3406 3131 3298 2873 
Q 3191 2616 2906 2266 
Q 2828 2175 2409 1742 
Q 1991 1309 1228 531 
z
" transform="scale(0.015625)"/>
       </defs>
       <use xlink:href="#DejaVuSans-2212"/>
       <use xlink:href="#DejaVuSans-32" transform="translate(83.789062 0)"/>
      </g>
     </g>
    </g>
    <g id="xtick_3">
     <g id="line2d_5">
      <path d="M 267.103759 307.584 
L 267.103759 41.472 
" clip-path="url(#p4ca54f4635)" style="fill: none; stroke: #b0b0b0; stroke-width: 0.8; stroke-linecap: square"/>
     </g>
     <g id="line2d_6">
      <g>
       <use xlink:href="#mea3062bca6" x="267.103759" y="307.584" style="stroke: #000000; stroke-width: 0.8"/>
      </g>
     </g>
     <g id="text_3">
      <!-- 0 -->
      <g transform="translate(263.922509 322.182437) scale(0.1 -0.1)">
       <defs>
        <path id="DejaVuSans-30" d="M 2034 4250 
Q 1547 4250 1301 3770 
Q 1056 3291 1056 2328 
Q 1056 1369 1301 889 
Q 1547 409 2034 409 
Q 2525 409 2770 889 
Q 3016 1369 3016 2328 
Q 3016 3291 2770 3770 
Q 2525 4250 2034 4250 
z
M 2034 4750 
Q 2819 4750 3233 4129 
Q 3647 3509 3647 2328 
Q 3647 1150 3233 529 
Q 2819 -91 2034 -91 
Q 1250 -91 836 529 
Q 422 1150 422 2328 
Q 422 3509 836 4129 
Q 1250 4750 2034 4750 
z
" transform="scale(0.015625)"/>
       </defs>
       <use xlink:href="#DejaVuSans-30"/>
      </g>
     </g>
    </g>
    <g id="xtick_4">
     <g id="line2d_7">
      <path d="M 345.541678 307.584 
L 345.541678 41.472 
" clip-path="url(#p4ca54f4635)" style="fill: none; stroke: #b0b0b0; stroke-width: 0.8; stroke-linecap: square"/>
     </g>
     <g id="line2d_8">
      <g>
       <use xlink:href="#mea3062bca6" x="345.541678" y="307.584" style="stroke: #000000; stroke-width: 0.8"/>
      </g>
     </g>
     <g id="text_4">
      <!-- 2 -->
      <g transform="translate(342.360428 322.182437) scale(0.1 -0.1)">
       <use xlink:href="#DejaVuSans-32"/>
      </g>
     </g>
    </g>
    <g id="text_5">
     <!-- Zeit [$\mu$s] -->
     <g transform="translate(215.01 335.862125) scale(0.1 -0.1)">
      <defs>
       <path id="DejaVuSans-5a" d="M 359 4666 
L 4025 4666 
L 4025 4184 
L 1075 531 
L 4097 531 
L 4097 0 
L 288 0 
L 288 481 
L 3238 4134 
L 359 4134 
L 359 4666 
z
" transform="scale(0.015625)"/>
       <path id="DejaVuSans-65" d="M 3597 1894 
L 3597 1613 
L 953 1613 
Q 991 1019 1311 708 
Q 1631 397 2203 397 
Q 2534 397 2845 478 
Q 3156 559 3463 722 
L 3463 178 
Q 3153 47 2828 -22 
Q 2503 -91 2169 -91 
Q 1331 -91 842 396 
Q 353 884 353 1716 
Q 353 2575 817 3079 
Q 1281 3584 2069 3584 
Q 2775 3584 3186 3129 
Q 3597 2675 3597 1894 
z
M 3022 2063 
Q 3016 2534 2758 2815 
Q 2500 3097 2075 3097 
Q 1594 3097 1305 2825 
Q 1016 2553 972 2059 
L 3022 2063 
z
" transform="scale(0.015625)"/>
       <path id="DejaVuSans-69" d="M 603 3500 
L 1178 3500 
L 1178 0 
L 603 0 
L 603 3500 
z
M 603 4863 
L 1178 4863 
L 1178 4134 
L 603 4134 
L 603 4863 
z
" transform="scale(0.015625)"/>
       <path id="DejaVuSans-74" d="M 1172 4494 
L 1172 3500 
L 2356 3500 
L 2356 3053 
L 1172 3053 
L 1172 1153 
Q 1172 725 1289 603 
Q 1406 481 1766 481 
L 2356 481 
L 2356 0 
L 1766 0 
Q 1100 0 847 248 
Q 594 497 594 1153 
L 594 3053 
L 172 3053 
L 172 3500 
L 594 3500 
L 594 4494 
L 1172 4494 
z
" transform="scale(0.015625)"/>
       <path id="DejaVuSans-20" transform="scale(0.015625)"/>
       <path id="DejaVuSans-5b" d="M 550 4863 
L 1875 4863 
L 1875 4416 
L 1125 4416 
L 1125 -397 
L 1875 -397 
L 1875 -844 
L 550 -844 
L 550 4863 
z
" transform="scale(0.015625)"/>
       <path id="DejaVuSans-Oblique-3bc" d="M -84 -1331 
L 856 3500 
L 1434 3500 
L 1009 1322 
Q 997 1256 987 1175 
Q 978 1094 978 1013 
Q 978 722 1161 565 
Q 1344 409 1684 409 
Q 2147 409 2431 671 
Q 2716 934 2816 1459 
L 3213 3500 
L 3788 3500 
L 3266 809 
Q 3253 750 3248 706 
Q 3244 663 3244 628 
Q 3244 531 3283 486 
Q 3322 441 3406 441 
Q 3438 441 3492 456 
Q 3547 472 3647 513 
L 3559 50 
Q 3422 -19 3297 -55 
Q 3172 -91 3053 -91 
Q 2847 -91 2730 40 
Q 2613 172 2613 403 
Q 2438 153 2195 31 
Q 1953 -91 1625 -91 
Q 1334 -91 1117 43 
Q 900 178 831 397 
L 494 -1331 
L -84 -1331 
z
" transform="scale(0.015625)"/>
       <path id="DejaVuSans-73" d="M 2834 3397 
L 2834 2853 
Q 2591 2978 2328 3040 
Q 2066 3103 1784 3103 
Q 1356 3103 1142 2972 
Q 928 2841 928 2578 
Q 928 2378 1081 2264 
Q 1234 2150 1697 2047 
L 1894 2003 
Q 2506 1872 2764 1633 
Q 3022 1394 3022 966 
Q 3022 478 2636 193 
Q 2250 -91 1575 -91 
Q 1294 -91 989 -36 
Q 684 19 347 128 
L 347 722 
Q 666 556 975 473 
Q 1284 391 1588 391 
Q 1994 391 2212 530 
Q 2431 669 2431 922 
Q 2431 1156 2273 1281 
Q 2116 1406 1581 1522 
L 1381 1569 
Q 847 1681 609 1914 
Q 372 2147 372 2553 
Q 372 3047 722 3315 
Q 1072 3584 1716 3584 
Q 2034 3584 2315 3537 
Q 2597 3491 2834 3397 
z
" transform="scale(0.015625)"/>
       <path id="DejaVuSans-5d" d="M 1947 4863 
L 1947 -844 
L 622 -844 
L 622 -397 
L 1369 -397 
L 1369 4416 
L 622 4416 
L 622 4863 
L 1947 4863 
z
" transform="scale(0.015625)"/>
      </defs>
      <use xlink:href="#DejaVuSans-5a" transform="translate(0 0.015625)"/>
      <use xlink:href="#DejaVuSans-65" transform="translate(68.505859 0.015625)"/>
      <use xlink:href="#DejaVuSans-69" transform="translate(130.029297 0.015625)"/>
      <use xlink:href="#DejaVuSans-74" transform="translate(157.8125 0.015625)"/>
      <use xlink:href="#DejaVuSans-20" transform="translate(197.021484 0.015625)"/>
      <use xlink:href="#DejaVuSans-5b" transform="translate(228.808594 0.015625)"/>
      <use xlink:href="#DejaVuSans-Oblique-3bc" transform="translate(267.822266 0.015625)"/>
      <use xlink:href="#DejaVuSans-73" transform="translate(331.445312 0.015625)"/>
      <use xlink:href="#DejaVuSans-5d" transform="translate(383.544922 0.015625)"/>
     </g>
    </g>
   </g>
   <g id="matplotlib.axis_2">
    <g id="ytick_1">
     <g id="line2d_9">
      <path d="M 57.6 267.357767 
L 414.72 267.357767 
" clip-path="url(#p4ca54f4635)" style="fill: none; stroke: #b0b0b0; stroke-width: 0.8; stroke-linecap: square"/>
     </g>
     <g id="line2d_10">
      <defs>
       <path id="m05de556586" d="M 0 0 
L -3.5 0 
" style="stroke: #000000; stroke-width: 0.8"/>
      </defs>
      <g>
       <use xlink:href="#m05de556586" x="57.6" y="267.357767" style="stroke: #000000; stroke-width: 0.8"/>
      </g>
     </g>
     <g id="text_6">
      <!-- −0.01 -->
      <g transform="translate(19.954687 271.156986) scale(0.1 -0.1)">
       <defs>
        <path id="DejaVuSans-2e" d="M 684 794 
L 1344 794 
L 1344 0 
L 684 0 
L 684 794 
z
" transform="scale(0.015625)"/>
        <path id="DejaVuSans-31" d="M 794 531 
L 1825 531 
L 1825 4091 
L 703 3866 
L 703 4441 
L 1819 4666 
L 2450 4666 
L 2450 531 
L 3481 531 
L 3481 0 
L 794 0 
L 794 531 
z
" transform="scale(0.015625)"/>
       </defs>
       <use xlink:href="#DejaVuSans-2212"/>
       <use xlink:href="#DejaVuSans-30" transform="translate(83.789062 0)"/>
       <use xlink:href="#DejaVuSans-2e" transform="translate(147.412109 0)"/>
       <use xlink:href="#DejaVuSans-30" transform="translate(179.199219 0)"/>
       <use xlink:href="#DejaVuSans-31" transform="translate(242.822266 0)"/>
      </g>
     </g>
    </g>
    <g id="ytick_2">
     <g id="line2d_11">
      <path d="M 57.6 220.474047 
L 414.72 220.474047 
" clip-path="url(#p4ca54f4635)" style="fill: none; stroke: #b0b0b0; stroke-width: 0.8; stroke-linecap: square"/>
     </g>
     <g id="line2d_12">
      <g>
       <use xlink:href="#m05de556586" x="57.6" y="220.474047" style="stroke: #000000; stroke-width: 0.8"/>
      </g>
     </g>
     <g id="text_7">
      <!-- 0.00 -->
      <g transform="translate(28.334375 224.273265) scale(0.1 -0.1)">
       <use xlink:href="#DejaVuSans-30"/>
       <use xlink:href="#DejaVuSans-2e" transform="translate(63.623047 0)"/>
       <use xlink:href="#DejaVuSans-30" transform="translate(95.410156 0)"/>
       <use xlink:href="#DejaVuSans-30" transform="translate(159.033203 0)"/>
      </g>
     </g>
    </g>
    <g id="ytick_3">
     <g id="line2d_13">
      <path d="M 57.6 173.590326 
L 414.72 173.590326 
" clip-path="url(#p4ca54f4635)" style="fill: none; stroke: #b0b0b0; stroke-width: 0.8; stroke-linecap: square"/>
     </g>
     <g id="line2d_14">
      <g>
       <use xlink:href="#m05de556586" x="57.6" y="173.590326" style="stroke: #000000; stroke-width: 0.8"/>
      </g>
     </g>
     <g id="text_8">
      <!-- 0.01 -->
      <g transform="translate(28.334375 177.389544) scale(0.1 -0.1)">
       <use xlink:href="#DejaVuSans-30"/>
       <use xlink:href="#DejaVuSans-2e" transform="translate(63.623047 0)"/>
       <use xlink:href="#DejaVuSans-30" transform="translate(95.410156 0)"/>
       <use xlink:href="#DejaVuSans-31" transform="translate(159.033203 0)"/>
      </g>
     </g>
    </g>
    <g id="ytick_4">
     <g id="line2d_15">
      <path d="M 57.6 126.706605 
L 414.72 126.706605 
" clip-path="url(#p4ca54f4635)" style="fill: none; stroke: #b0b0b0; stroke-width: 0.8; stroke-linecap: square"/>
     </g>
     <g id="line2d_16">
      <g>
       <use xlink:href="#m05de556586" x="57.6" y="126.706605" style="stroke: #000000; stroke-width: 0.8"/>
      </g>
     </g>
     <g id="text_9">
      <!-- 0.02 -->
      <g transform="translate(28.334375 130.505823) scale(0.1 -0.1)">
       <use xlink:href="#DejaVuSans-30"/>
       <use xlink:href="#DejaVuSans-2e" transform="translate(63.623047 0)"/>
       <use xlink:href="#DejaVuSans-30" transform="translate(95.410156 0)"/>
       <use xlink:href="#DejaVuSans-32" transform="translate(159.033203 0)"/>
      </g>
     </g>
    </g>
    <g id="ytick_5">
     <g id="line2d_17">
      <path d="M 57.6 79.822884 
L 414.72 79.822884 
" clip-path="url(#p4ca54f4635)" style="fill: none; stroke: #b0b0b0; stroke-width: 0.8; stroke-linecap: square"/>
     </g>
     <g id="line2d_18">
      <g>
       <use xlink:href="#m05de556586" x="57.6" y="79.822884" style="stroke: #000000; stroke-width: 0.8"/>
      </g>
     </g>
     <g id="text_10">
      <!-- 0.03 -->
      <g transform="translate(28.334375 83.622102) scale(0.1 -0.1)">
       <defs>
        <path id="DejaVuSans-33" d="M 2597 2516 
Q 3050 2419 3304 2112 
Q 3559 1806 3559 1356 
Q 3559 666 3084 287 
Q 2609 -91 1734 -91 
Q 1441 -91 1130 -33 
Q 819 25 488 141 
L 488 750 
Q 750 597 1062 519 
Q 1375 441 1716 441 
Q 2309 441 2620 675 
Q 2931 909 2931 1356 
Q 2931 1769 2642 2001 
Q 2353 2234 1838 2234 
L 1294 2234 
L 1294 2753 
L 1863 2753 
Q 2328 2753 2575 2939 
Q 2822 3125 2822 3475 
Q 2822 3834 2567 4026 
Q 2313 4219 1838 4219 
Q 1578 4219 1281 4162 
Q 984 4106 628 3988 
L 628 4550 
Q 988 4650 1302 4700 
Q 1616 4750 1894 4750 
Q 2613 4750 3031 4423 
Q 3450 4097 3450 3541 
Q 3450 3153 3228 2886 
Q 3006 2619 2597 2516 
z
" transform="scale(0.015625)"/>
       </defs>
       <use xlink:href="#DejaVuSans-30"/>
       <use xlink:href="#DejaVuSans-2e" transform="translate(63.623047 0)"/>
       <use xlink:href="#DejaVuSans-30" transform="translate(95.410156 0)"/>
       <use xlink:href="#DejaVuSans-33" transform="translate(159.033203 0)"/>
      </g>
     </g>
    </g>
    <g id="text_11">
     <!-- Amplitude [V] -->
     <g transform="translate(13.875 209.061594) rotate(-90) scale(0.1 -0.1)">
      <defs>
       <path id="DejaVuSans-41" d="M 2188 4044 
L 1331 1722 
L 3047 1722 
L 2188 4044 
z
M 1831 4666 
L 2547 4666 
L 4325 0 
L 3669 0 
L 3244 1197 
L 1141 1197 
L 716 0 
L 50 0 
L 1831 4666 
z
" transform="scale(0.015625)"/>
       <path id="DejaVuSans-6d" d="M 3328 2828 
Q 3544 3216 3844 3400 
Q 4144 3584 4550 3584 
Q 5097 3584 5394 3201 
Q 5691 2819 5691 2113 
L 5691 0 
L 5113 0 
L 5113 2094 
Q 5113 2597 4934 2840 
Q 4756 3084 4391 3084 
Q 3944 3084 3684 2787 
Q 3425 2491 3425 1978 
L 3425 0 
L 2847 0 
L 2847 2094 
Q 2847 2600 2669 2842 
Q 2491 3084 2119 3084 
Q 1678 3084 1418 2786 
Q 1159 2488 1159 1978 
L 1159 0 
L 581 0 
L 581 3500 
L 1159 3500 
L 1159 2956 
Q 1356 3278 1631 3431 
Q 1906 3584 2284 3584 
Q 2666 3584 2933 3390 
Q 3200 3197 3328 2828 
z
" transform="scale(0.015625)"/>
       <path id="DejaVuSans-70" d="M 1159 525 
L 1159 -1331 
L 581 -1331 
L 581 3500 
L 1159 3500 
L 1159 2969 
Q 1341 3281 1617 3432 
Q 1894 3584 2278 3584 
Q 2916 3584 3314 3078 
Q 3713 2572 3713 1747 
Q 3713 922 3314 415 
Q 2916 -91 2278 -91 
Q 1894 -91 1617 61 
Q 1341 213 1159 525 
z
M 3116 1747 
Q 3116 2381 2855 2742 
Q 2594 3103 2138 3103 
Q 1681 3103 1420 2742 
Q 1159 2381 1159 1747 
Q 1159 1113 1420 752 
Q 1681 391 2138 391 
Q 2594 391 2855 752 
Q 3116 1113 3116 1747 
z
" transform="scale(0.015625)"/>
       <path id="DejaVuSans-6c" d="M 603 4863 
L 1178 4863 
L 1178 0 
L 603 0 
L 603 4863 
z
" transform="scale(0.015625)"/>
       <path id="DejaVuSans-75" d="M 544 1381 
L 544 3500 
L 1119 3500 
L 1119 1403 
Q 1119 906 1312 657 
Q 1506 409 1894 409 
Q 2359 409 2629 706 
Q 2900 1003 2900 1516 
L 2900 3500 
L 3475 3500 
L 3475 0 
L 2900 0 
L 2900 538 
Q 2691 219 2414 64 
Q 2138 -91 1772 -91 
Q 1169 -91 856 284 
Q 544 659 544 1381 
z
M 1991 3584 
L 1991 3584 
z
" transform="scale(0.015625)"/>
       <path id="DejaVuSans-64" d="M 2906 2969 
L 2906 4863 
L 3481 4863 
L 3481 0 
L 2906 0 
L 2906 525 
Q 2725 213 2448 61 
Q 2172 -91 1784 -91 
Q 1150 -91 751 415 
Q 353 922 353 1747 
Q 353 2572 751 3078 
Q 1150 3584 1784 3584 
Q 2172 3584 2448 3432 
Q 2725 3281 2906 2969 
z
M 947 1747 
Q 947 1113 1208 752 
Q 1469 391 1925 391 
Q 2381 391 2643 752 
Q 2906 1113 2906 1747 
Q 2906 2381 2643 2742 
Q 2381 3103 1925 3103 
Q 1469 3103 1208 2742 
Q 947 2381 947 1747 
z
" transform="scale(0.015625)"/>
       <path id="DejaVuSans-56" d="M 1831 0 
L 50 4666 
L 709 4666 
L 2188 738 
L 3669 4666 
L 4325 4666 
L 2547 0 
L 1831 0 
z
" transform="scale(0.015625)"/>
      </defs>
      <use xlink:href="#DejaVuSans-41"/>
      <use xlink:href="#DejaVuSans-6d" transform="translate(68.408203 0)"/>
      <use xlink:href="#DejaVuSans-70" transform="translate(165.820312 0)"/>
      <use xlink:href="#DejaVuSans-6c" transform="translate(229.296875 0)"/>
      <use xlink:href="#DejaVuSans-69" transform="translate(257.080078 0)"/>
      <use xlink:href="#DejaVuSans-74" transform="translate(284.863281 0)"/>
      <use xlink:href="#DejaVuSans-75" transform="translate(324.072266 0)"/>
      <use xlink:href="#DejaVuSans-64" transform="translate(387.451172 0)"/>
      <use xlink:href="#DejaVuSans-65" transform="translate(450.927734 0)"/>
      <use xlink:href="#DejaVuSans-20" transform="translate(512.451172 0)"/>
      <use xlink:href="#DejaVuSans-5b" transform="translate(544.238281 0)"/>
      <use xlink:href="#DejaVuSans-56" transform="translate(583.251953 0)"/>
      <use xlink:href="#DejaVuSans-5d" transform="translate(651.660156 0)"/>
     </g>
    </g>
   </g>
   <g id="line2d_19">
    <path d="M 73.832727 96.701023 
L 74.930858 96.701023 
L 75.087734 98.576372 
L 75.558361 98.576372 
L 75.715237 96.701023 
L 76.970244 96.701023 
L 77.12712 94.825674 
L 77.597747 94.825674 
L 77.754623 92.950326 
L 78.539002 92.950326 
L 78.695878 91.074977 
L 79.637133 91.074977 
L 79.794009 89.199628 
L 79.950885 89.199628 
L 80.107761 91.074977 
L 80.264637 89.199628 
L 80.89214 89.199628 
L 81.049016 91.074977 
L 81.990271 91.074977 
L 82.147147 92.950326 
L 82.617774 92.950326 
L 82.77465 94.825674 
L 83.088402 94.825674 
L 83.245278 96.701023 
L 84.65716 96.701023 
L 84.814036 98.576372 
L 87.324049 98.576372 
L 87.480925 100.451721 
L 87.637801 98.576372 
L 87.794677 100.451721 
L 89.834063 100.451721 
L 89.990939 102.32707 
L 92.814704 102.32707 
L 92.971579 100.451721 
L 93.755959 100.451721 
L 93.912834 98.576372 
L 94.540338 98.576372 
L 94.697214 96.701023 
L 96.893475 96.701023 
L 97.050351 98.576372 
L 97.677855 98.576372 
L 97.83473 100.451721 
L 98.462234 100.451721 
L 98.61911 102.32707 
L 99.560365 102.32707 
L 99.71724 104.202419 
L 99.874116 102.32707 
L 100.030992 104.202419 
L 115.875452 104.202419 
L 116.032328 106.077767 
L 117.44421 106.077767 
L 117.601086 107.953116 
L 137.210566 107.953116 
L 137.367441 111.703814 
L 137.994945 265.482419 
L 138.308696 282.360558 
L 138.779324 291.737302 
L 138.9362 291.737302 
L 139.093076 293.612651 
L 139.720579 293.612651 
L 139.877455 295.488 
L 143.171847 295.488 
L 143.328723 293.612651 
L 143.485599 293.612651 
L 143.642475 295.488 
L 143.799351 295.488 
L 143.956227 293.612651 
L 144.113102 295.488 
L 144.269978 293.612651 
L 144.897482 293.612651 
L 145.054357 295.488 
L 145.211233 295.488 
L 145.368109 293.612651 
L 154.623784 293.612651 
L 154.780659 291.737302 
L 154.937535 293.612651 
L 157.604424 293.612651 
L 157.7613 291.737302 
L 158.231928 291.737302 
L 158.388804 293.612651 
L 158.545679 291.737302 
L 158.702555 293.612651 
L 158.859431 293.612651 
L 159.016307 291.737302 
L 171.252622 291.737302 
L 171.409498 289.861953 
L 171.566374 289.861953 
L 171.72325 291.737302 
L 171.880126 289.861953 
L 172.037001 291.737302 
L 172.193877 291.737302 
L 172.350753 289.861953 
L 172.664505 289.861953 
L 172.821381 291.737302 
L 172.978256 289.861953 
L 173.762636 289.861953 
L 173.919512 291.737302 
L 174.076387 289.861953 
L 185.685199 289.861953 
L 185.842075 287.986605 
L 185.998951 289.861953 
L 187.097082 289.861953 
L 187.253958 287.986605 
L 187.410834 287.986605 
L 187.567709 289.861953 
L 187.724585 289.861953 
L 187.881461 287.986605 
L 188.038337 287.986605 
L 188.195213 289.861953 
L 188.352089 287.986605 
L 188.508964 287.986605 
L 188.66584 289.861953 
L 188.822716 289.861953 
L 188.979592 287.986605 
L 190.077723 287.986605 
L 190.234599 289.861953 
L 190.391474 287.986605 
L 203.255293 287.986605 
L 203.412169 286.111256 
L 203.569045 287.986605 
L 203.725921 286.111256 
L 203.882796 287.986605 
L 204.039672 287.986605 
L 204.196548 286.111256 
L 204.353424 287.986605 
L 205.451555 287.986605 
L 205.608431 286.111256 
L 206.079058 286.111256 
L 206.235934 287.986605 
L 206.39281 286.111256 
L 206.706562 286.111256 
L 206.863437 287.986605 
L 207.020313 286.111256 
L 219.256629 286.111256 
L 219.413504 284.235907 
L 219.727256 284.235907 
L 219.884132 286.111256 
L 220.197884 286.111256 
L 220.354759 284.235907 
L 220.511635 286.111256 
L 220.668511 284.235907 
L 221.766642 284.235907 
L 221.923518 286.111256 
L 222.080394 284.235907 
L 222.237269 286.111256 
L 222.394145 284.235907 
L 223.021649 284.235907 
L 223.178524 286.111256 
L 223.3354 284.235907 
L 237.140474 284.235907 
L 237.29735 282.360558 
L 237.454226 284.235907 
L 237.611101 284.235907 
L 237.767977 282.360558 
L 238.709232 282.360558 
L 238.866108 284.235907 
L 239.022984 282.360558 
L 239.17986 284.235907 
L 239.336736 282.360558 
L 253.612437 282.360558 
L 253.769313 280.485209 
L 253.926189 282.360558 
L 254.083064 282.360558 
L 254.23994 280.485209 
L 254.396816 282.360558 
L 254.553692 280.485209 
L 254.710568 282.360558 
L 255.024319 282.360558 
L 255.181195 280.485209 
L 255.338071 280.485209 
L 255.494947 282.360558 
L 255.651823 280.485209 
L 255.808699 280.485209 
L 255.965574 282.360558 
L 256.12245 280.485209 
L 256.279326 280.485209 
L 256.436202 282.360558 
L 256.593078 280.485209 
L 257.534333 280.485209 
L 257.691209 282.360558 
L 257.848085 280.485209 
L 269.143145 280.485209 
L 269.456896 256.105674 
L 269.613772 261.731721 
L 270.0844 252.354977 
L 270.241276 250.479628 
L 270.398152 250.479628 
L 270.711903 177.341023 
L 271.025655 222.349395 
L 271.339407 186.717767 
L 271.496282 194.219163 
L 271.653158 184.842419 
L 271.810034 162.338233 
L 271.96691 160.462884 
L 272.280662 175.465674 
L 272.437537 171.714977 
L 272.594413 152.961488 
L 272.751289 119.205209 
L 273.221917 160.462884 
L 273.535668 111.703814 
L 273.692544 113.579163 
L 273.84942 132.332651 
L 274.163172 96.701023 
L 274.320047 106.077767 
L 274.476923 96.701023 
L 274.633799 98.576372 
L 274.790675 107.953116 
L 275.104427 66.695442 
L 275.261302 76.072186 
L 275.575054 104.202419 
L 275.73193 107.953116 
L 275.888806 94.825674 
L 276.202557 53.568 
L 276.673185 92.950326 
L 276.986937 92.950326 
L 277.143813 91.074977 
L 277.61444 72.321488 
L 277.771316 74.196837 
L 278.398819 87.324279 
L 278.555695 85.44893 
L 279.026323 70.44614 
L 279.183198 72.321488 
L 279.49695 83.573581 
L 279.653826 83.573581 
L 279.967578 79.822884 
L 280.281329 74.196837 
L 280.438205 72.321488 
L 280.595081 72.321488 
L 280.908833 77.947535 
L 281.222584 81.698233 
L 281.693212 76.072186 
L 281.850088 76.072186 
L 282.006963 74.196837 
L 282.477591 74.196837 
L 282.634467 76.072186 
L 282.791343 76.072186 
L 282.948218 77.947535 
L 283.105094 76.072186 
L 283.418846 70.44614 
L 283.732598 70.44614 
L 283.889474 72.321488 
L 284.046349 72.321488 
L 284.203225 70.44614 
L 284.673853 70.44614 
L 285.14448 76.072186 
L 285.301356 76.072186 
L 285.458232 77.947535 
L 285.615108 76.072186 
L 285.771984 76.072186 
L 286.242611 70.44614 
L 286.556363 70.44614 
L 286.870114 74.196837 
L 287.02699 74.196837 
L 287.340742 77.947535 
L 287.497618 77.947535 
L 287.654494 76.072186 
L 287.811369 76.072186 
L 287.968245 74.196837 
L 288.125121 74.196837 
L 288.281997 72.321488 
L 288.752624 72.321488 
L 288.9095 70.44614 
L 289.066376 70.44614 
L 289.223252 68.570791 
L 289.537004 68.570791 
L 289.69388 70.44614 
L 289.850755 70.44614 
L 290.164507 74.196837 
L 290.79201 74.196837 
L 290.948886 72.321488 
L 291.419514 72.321488 
L 291.57639 70.44614 
L 291.733265 70.44614 
L 291.890141 68.570791 
L 292.203893 68.570791 
L 292.360769 66.695442 
L 292.67452 66.695442 
L 292.831396 68.570791 
L 293.4589 68.570791 
L 293.615775 70.44614 
L 293.929527 70.44614 
L 294.086403 72.321488 
L 295.655161 72.321488 
L 295.812037 70.44614 
L 296.282665 70.44614 
L 296.439541 68.570791 
L 297.22392 68.570791 
L 297.537671 72.321488 
L 297.694547 72.321488 
L 297.851423 74.196837 
L 298.008299 74.196837 
L 298.322051 77.947535 
L 298.478926 77.947535 
L 298.635802 79.822884 
L 298.949554 79.822884 
L 299.10643 77.947535 
L 299.733933 77.947535 
L 299.890809 76.072186 
L 300.832064 76.072186 
L 300.98894 74.196837 
L 301.930195 74.196837 
L 302.087071 76.072186 
L 302.243946 76.072186 
L 302.400822 77.947535 
L 303.812705 77.947535 
L 303.969581 79.822884 
L 304.597084 79.822884 
L 304.75396 77.947535 
L 305.381463 77.947535 
L 305.538339 76.072186 
L 306.322718 76.072186 
L 306.479594 77.947535 
L 306.950222 77.947535 
L 307.107097 79.822884 
L 308.832732 79.822884 
L 308.989608 81.698233 
L 310.244614 81.698233 
L 310.40149 79.822884 
L 310.872118 79.822884 
L 311.028993 77.947535 
L 311.499621 77.947535 
L 311.656497 76.072186 
L 312.440876 76.072186 
L 312.597752 74.196837 
L 312.754628 74.196837 
L 312.911503 76.072186 
L 313.225255 76.072186 
L 313.382131 77.947535 
L 313.539007 77.947535 
L 313.695883 79.822884 
L 313.852758 79.822884 
L 314.009634 81.698233 
L 316.362772 81.698233 
L 316.519648 83.573581 
L 317.304027 83.573581 
L 317.460903 85.44893 
L 318.088406 85.44893 
L 318.245282 83.573581 
L 318.715909 83.573581 
L 318.872785 81.698233 
L 319.500289 81.698233 
L 319.657164 79.822884 
L 320.441544 79.822884 
L 320.598419 81.698233 
L 320.912171 81.698233 
L 321.069047 83.573581 
L 321.539674 83.573581 
L 321.69655 85.44893 
L 322.167178 85.44893 
L 322.324054 87.324279 
L 322.48093 87.324279 
L 322.637805 89.199628 
L 322.951557 89.199628 
L 323.108433 91.074977 
L 324.206564 91.074977 
L 324.36344 89.199628 
L 325.304695 89.199628 
L 325.46157 87.324279 
L 326.873453 87.324279 
L 327.030329 85.44893 
L 329.540342 85.44893 
L 329.697218 87.324279 
L 330.638473 87.324279 
L 330.795349 89.199628 
L 331.109101 89.199628 
L 331.265976 91.074977 
L 331.579728 91.074977 
L 331.736604 92.950326 
L 332.050356 92.950326 
L 332.207231 94.825674 
L 332.991611 94.825674 
L 333.148486 96.701023 
L 334.403493 96.701023 
L 334.560369 98.576372 
L 336.129127 98.576372 
L 336.286003 96.701023 
L 336.756631 96.701023 
L 336.913507 94.825674 
L 337.384134 94.825674 
L 337.54101 92.950326 
L 338.325389 92.950326 
L 338.482265 91.074977 
L 339.580396 91.074977 
L 339.737272 89.199628 
L 339.894147 91.074977 
L 340.051023 89.199628 
L 340.364775 89.199628 
L 340.521651 91.074977 
L 340.678527 89.199628 
L 340.835402 89.199628 
L 340.992278 91.074977 
L 341.619782 91.074977 
L 341.776658 92.950326 
L 341.933533 92.950326 
L 342.090409 94.825674 
L 342.717913 94.825674 
L 342.874788 96.701023 
L 343.972919 96.701023 
L 344.129795 98.576372 
L 346.482933 98.576372 
L 346.639808 100.451721 
L 348.83607 100.451721 
L 348.992946 102.32707 
L 352.757966 102.32707 
L 352.914842 100.451721 
L 353.699221 100.451721 
L 353.856097 98.576372 
L 354.797352 98.576372 
L 354.954228 96.701023 
L 356.679862 96.701023 
L 356.836738 98.576372 
L 357.464241 98.576372 
L 357.621117 100.451721 
L 358.091745 100.451721 
L 358.24862 102.32707 
L 359.189875 102.32707 
L 359.346751 104.202419 
L 364.68053 104.202419 
L 364.837406 106.077767 
L 364.994281 104.202419 
L 365.778661 104.202419 
L 365.935536 106.077767 
L 366.092412 104.202419 
L 371.269315 104.202419 
L 371.426191 106.077767 
L 371.583067 104.202419 
L 372.367446 104.202419 
L 372.524322 106.077767 
L 372.681197 104.202419 
L 374.09308 104.202419 
L 374.249956 106.077767 
L 374.406832 104.202419 
L 374.563708 104.202419 
L 374.720583 106.077767 
L 377.387473 106.077767 
L 377.544348 107.953116 
L 396.996952 107.953116 
L 397.153828 141.709395 
L 397.46758 241.102884 
L 397.781331 272.983814 
L 398.095083 286.111256 
L 398.408835 289.861953 
L 398.408835 289.861953 
" clip-path="url(#p4ca54f4635)" style="fill: none; stroke: #1f77b4; stroke-width: 0.5; stroke-linecap: square"/>
   </g>
   <g id="LineCollection_1">
    <path d="M 267.103759 107.953116 
L 398.487273 107.953116 
" clip-path="url(#p4ca54f4635)" style="fill: none; stroke-dasharray: 5.55,2.4; stroke-dashoffset: 0; stroke: #ff0000; stroke-opacity: 0.5; stroke-width: 1.5"/>
   </g>
   <g id="LineCollection_2">
    <path d="M 267.103759 53.568 
L 398.487273 53.568 
" clip-path="url(#p4ca54f4635)" style="fill: none; stroke-dasharray: 5.55,2.4; stroke-dashoffset: 0; stroke: #008000; stroke-opacity: 0.5; stroke-width: 1.5"/>
   </g>
   <g id="patch_3">
    <path d="M 57.6 307.584 
L 57.6 41.472 
" style="fill: none; stroke: #000000; stroke-width: 0.8; stroke-linejoin: miter; stroke-linecap: square"/>
   </g>
   <g id="patch_4">
    <path d="M 414.72 307.584 
L 414.72 41.472 
" style="fill: none; stroke: #000000; stroke-width: 0.8; stroke-linejoin: miter; stroke-linecap: square"/>
   </g>
   <g id="patch_5">
    <path d="M 57.6 307.584 
L 414.72 307.584 
" style="fill: none; stroke: #000000; stroke-width: 0.8; stroke-linejoin: miter; stroke-linecap: square"/>
   </g>
   <g id="patch_6">
    <path d="M 57.6 41.472 
L 414.72 41.472 
" style="fill: none; stroke: #000000; stroke-width: 0.8; stroke-linejoin: miter; stroke-linecap: square"/>
   </g>
   <g id="text_12">
    <g id="patch_7">
     <path d="M 321.119907 89.599621 
L 409.182407 89.599621 
L 409.182407 71.921496 
L 321.119907 71.921496 
z
" style="fill: #ffffff; opacity: 0.5; stroke: #000000; stroke-linejoin: miter"/>
    </g>
    <!-- Delta = 0.012 V -->
    <g transform="translate(325.119907 83.519933) scale(0.1 -0.1)">
     <defs>
      <path id="DejaVuSans-44" d="M 1259 4147 
L 1259 519 
L 2022 519 
Q 2988 519 3436 956 
Q 3884 1394 3884 2338 
Q 3884 3275 3436 3711 
Q 2988 4147 2022 4147 
L 1259 4147 
z
M 628 4666 
L 1925 4666 
Q 3281 4666 3915 4102 
Q 4550 3538 4550 2338 
Q 4550 1131 3912 565 
Q 3275 0 1925 0 
L 628 0 
L 628 4666 
z
" transform="scale(0.015625)"/>
      <path id="DejaVuSans-61" d="M 2194 1759 
Q 1497 1759 1228 1600 
Q 959 1441 959 1056 
Q 959 750 1161 570 
Q 1363 391 1709 391 
Q 2188 391 2477 730 
Q 2766 1069 2766 1631 
L 2766 1759 
L 2194 1759 
z
M 3341 1997 
L 3341 0 
L 2766 0 
L 2766 531 
Q 2569 213 2275 61 
Q 1981 -91 1556 -91 
Q 1019 -91 701 211 
Q 384 513 384 1019 
Q 384 1609 779 1909 
Q 1175 2209 1959 2209 
L 2766 2209 
L 2766 2266 
Q 2766 2663 2505 2880 
Q 2244 3097 1772 3097 
Q 1472 3097 1187 3025 
Q 903 2953 641 2809 
L 641 3341 
Q 956 3463 1253 3523 
Q 1550 3584 1831 3584 
Q 2591 3584 2966 3190 
Q 3341 2797 3341 1997 
z
" transform="scale(0.015625)"/>
      <path id="DejaVuSans-3d" d="M 678 2906 
L 4684 2906 
L 4684 2381 
L 678 2381 
L 678 2906 
z
M 678 1631 
L 4684 1631 
L 4684 1100 
L 678 1100 
L 678 1631 
z
" transform="scale(0.015625)"/>
     </defs>
     <use xlink:href="#DejaVuSans-44"/>
     <use xlink:href="#DejaVuSans-65" transform="translate(77.001953 0)"/>
     <use xlink:href="#DejaVuSans-6c" transform="translate(138.525391 0)"/>
     <use xlink:href="#DejaVuSans-74" transform="translate(166.308594 0)"/>
     <use xlink:href="#DejaVuSans-61" transform="translate(205.517578 0)"/>
     <use xlink:href="#DejaVuSans-20" transform="translate(266.796875 0)"/>
     <use xlink:href="#DejaVuSans-3d" transform="translate(298.583984 0)"/>
     <use xlink:href="#DejaVuSans-20" transform="translate(382.373047 0)"/>
     <use xlink:href="#DejaVuSans-30" transform="translate(414.160156 0)"/>
     <use xlink:href="#DejaVuSans-2e" transform="translate(477.783203 0)"/>
     <use xlink:href="#DejaVuSans-30" transform="translate(509.570312 0)"/>
     <use xlink:href="#DejaVuSans-31" transform="translate(573.193359 0)"/>
     <use xlink:href="#DejaVuSans-32" transform="translate(636.816406 0)"/>
     <use xlink:href="#DejaVuSans-20" transform="translate(700.439453 0)"/>
     <use xlink:href="#DejaVuSans-56" transform="translate(732.226562 0)"/>
    </g>
   </g>
   <g id="patch_8">
    <path d="M 345.541678 105.057088 
Q 345.541678 80.758894 345.541678 56.4607 
" style="fill: none; stroke: #000000; stroke-width: 0.8; stroke-linecap: round"/>
    <path d="M 347.541678 101.057088 
L 345.541678 105.057088 
L 343.541678 101.057088 
" style="fill: none; stroke: #000000; stroke-width: 0.8; stroke-linecap: round"/>
    <path d="M 343.541678 60.4607 
L 345.541678 56.4607 
L 347.541678 60.4607 
" style="fill: none; stroke: #000000; stroke-width: 0.8; stroke-linecap: round"/>
   </g>
   <g id="legend_1">
    <g id="patch_9">
     <path d="M 311.643438 198.045187 
L 407.72 198.045187 
Q 409.72 198.045187 409.72 196.045187 
L 409.72 153.010812 
Q 409.72 151.010812 407.72 151.010812 
L 311.643438 151.010812 
Q 309.643438 151.010812 309.643438 153.010812 
L 309.643438 196.045187 
Q 309.643438 198.045187 311.643438 198.045187 
z
" style="fill: #ffffff; opacity: 0.8; stroke: #cccccc; stroke-linejoin: miter"/>
    </g>
    <g id="line2d_20">
     <path d="M 313.643438 159.10925 
L 323.643438 159.10925 
L 333.643438 159.10925 
" style="fill: none; stroke: #1f77b4; stroke-width: 0.5; stroke-linecap: square"/>
    </g>
    <g id="text_13">
     <!-- Spike-Daten -->
     <g transform="translate(341.643438 162.60925) scale(0.1 -0.1)">
      <defs>
       <path id="DejaVuSans-53" d="M 3425 4513 
L 3425 3897 
Q 3066 4069 2747 4153 
Q 2428 4238 2131 4238 
Q 1616 4238 1336 4038 
Q 1056 3838 1056 3469 
Q 1056 3159 1242 3001 
Q 1428 2844 1947 2747 
L 2328 2669 
Q 3034 2534 3370 2195 
Q 3706 1856 3706 1288 
Q 3706 609 3251 259 
Q 2797 -91 1919 -91 
Q 1588 -91 1214 -16 
Q 841 59 441 206 
L 441 856 
Q 825 641 1194 531 
Q 1563 422 1919 422 
Q 2459 422 2753 634 
Q 3047 847 3047 1241 
Q 3047 1584 2836 1778 
Q 2625 1972 2144 2069 
L 1759 2144 
Q 1053 2284 737 2584 
Q 422 2884 422 3419 
Q 422 4038 858 4394 
Q 1294 4750 2059 4750 
Q 2388 4750 2728 4690 
Q 3069 4631 3425 4513 
z
" transform="scale(0.015625)"/>
       <path id="DejaVuSans-6b" d="M 581 4863 
L 1159 4863 
L 1159 1991 
L 2875 3500 
L 3609 3500 
L 1753 1863 
L 3688 0 
L 2938 0 
L 1159 1709 
L 1159 0 
L 581 0 
L 581 4863 
z
" transform="scale(0.015625)"/>
       <path id="DejaVuSans-2d" d="M 313 2009 
L 1997 2009 
L 1997 1497 
L 313 1497 
L 313 2009 
z
" transform="scale(0.015625)"/>
       <path id="DejaVuSans-6e" d="M 3513 2113 
L 3513 0 
L 2938 0 
L 2938 2094 
Q 2938 2591 2744 2837 
Q 2550 3084 2163 3084 
Q 1697 3084 1428 2787 
Q 1159 2491 1159 1978 
L 1159 0 
L 581 0 
L 581 3500 
L 1159 3500 
L 1159 2956 
Q 1366 3272 1645 3428 
Q 1925 3584 2291 3584 
Q 2894 3584 3203 3211 
Q 3513 2838 3513 2113 
z
" transform="scale(0.015625)"/>
      </defs>
      <use xlink:href="#DejaVuSans-53"/>
      <use xlink:href="#DejaVuSans-70" transform="translate(63.476562 0)"/>
      <use xlink:href="#DejaVuSans-69" transform="translate(126.953125 0)"/>
      <use xlink:href="#DejaVuSans-6b" transform="translate(154.736328 0)"/>
      <use xlink:href="#DejaVuSans-65" transform="translate(209.021484 0)"/>
      <use xlink:href="#DejaVuSans-2d" transform="translate(270.544922 0)"/>
      <use xlink:href="#DejaVuSans-44" transform="translate(306.628906 0)"/>
      <use xlink:href="#DejaVuSans-61" transform="translate(383.630859 0)"/>
      <use xlink:href="#DejaVuSans-74" transform="translate(444.910156 0)"/>
      <use xlink:href="#DejaVuSans-65" transform="translate(484.119141 0)"/>
      <use xlink:href="#DejaVuSans-6e" transform="translate(545.642578 0)"/>
     </g>
    </g>
    <g id="line2d_21">
     <path d="M 313.643438 173.787375 
L 333.643438 173.787375 
" style="fill: none; stroke-dasharray: 5.55,2.4; stroke-dashoffset: 0; stroke: #ff0000; stroke-opacity: 0.5; stroke-width: 1.5"/>
    </g>
    <g id="text_14">
     <!-- CW-Plateau -->
     <g transform="translate(341.643438 177.287375) scale(0.1 -0.1)">
      <defs>
       <path id="DejaVuSans-43" d="M 4122 4306 
L 4122 3641 
Q 3803 3938 3442 4084 
Q 3081 4231 2675 4231 
Q 1875 4231 1450 3742 
Q 1025 3253 1025 2328 
Q 1025 1406 1450 917 
Q 1875 428 2675 428 
Q 3081 428 3442 575 
Q 3803 722 4122 1019 
L 4122 359 
Q 3791 134 3420 21 
Q 3050 -91 2638 -91 
Q 1578 -91 968 557 
Q 359 1206 359 2328 
Q 359 3453 968 4101 
Q 1578 4750 2638 4750 
Q 3056 4750 3426 4639 
Q 3797 4528 4122 4306 
z
" transform="scale(0.015625)"/>
       <path id="DejaVuSans-57" d="M 213 4666 
L 850 4666 
L 1831 722 
L 2809 4666 
L 3519 4666 
L 4500 722 
L 5478 4666 
L 6119 4666 
L 4947 0 
L 4153 0 
L 3169 4050 
L 2175 0 
L 1381 0 
L 213 4666 
z
" transform="scale(0.015625)"/>
       <path id="DejaVuSans-50" d="M 1259 4147 
L 1259 2394 
L 2053 2394 
Q 2494 2394 2734 2622 
Q 2975 2850 2975 3272 
Q 2975 3691 2734 3919 
Q 2494 4147 2053 4147 
L 1259 4147 
z
M 628 4666 
L 2053 4666 
Q 2838 4666 3239 4311 
Q 3641 3956 3641 3272 
Q 3641 2581 3239 2228 
Q 2838 1875 2053 1875 
L 1259 1875 
L 1259 0 
L 628 0 
L 628 4666 
z
" transform="scale(0.015625)"/>
      </defs>
      <use xlink:href="#DejaVuSans-43"/>
      <use xlink:href="#DejaVuSans-57" transform="translate(69.824219 0)"/>
      <use xlink:href="#DejaVuSans-2d" transform="translate(164.701172 0)"/>
      <use xlink:href="#DejaVuSans-50" transform="translate(200.785156 0)"/>
      <use xlink:href="#DejaVuSans-6c" transform="translate(261.087891 0)"/>
      <use xlink:href="#DejaVuSans-61" transform="translate(288.871094 0)"/>
      <use xlink:href="#DejaVuSans-74" transform="translate(350.150391 0)"/>
      <use xlink:href="#DejaVuSans-65" transform="translate(389.359375 0)"/>
      <use xlink:href="#DejaVuSans-61" transform="translate(450.882812 0)"/>
      <use xlink:href="#DejaVuSans-75" transform="translate(512.162109 0)"/>
     </g>
    </g>
    <g id="line2d_22">
     <path d="M 313.643438 188.4655 
L 333.643438 188.4655 
" style="fill: none; stroke-dasharray: 5.55,2.4; stroke-dashoffset: 0; stroke: #008000; stroke-opacity: 0.5; stroke-width: 1.5"/>
    </g>
    <g id="text_15">
     <!-- Spiking-Peak -->
     <g transform="translate(341.643438 191.9655) scale(0.1 -0.1)">
      <defs>
       <path id="DejaVuSans-67" d="M 2906 1791 
Q 2906 2416 2648 2759 
Q 2391 3103 1925 3103 
Q 1463 3103 1205 2759 
Q 947 2416 947 1791 
Q 947 1169 1205 825 
Q 1463 481 1925 481 
Q 2391 481 2648 825 
Q 2906 1169 2906 1791 
z
M 3481 434 
Q 3481 -459 3084 -895 
Q 2688 -1331 1869 -1331 
Q 1566 -1331 1297 -1286 
Q 1028 -1241 775 -1147 
L 775 -588 
Q 1028 -725 1275 -790 
Q 1522 -856 1778 -856 
Q 2344 -856 2625 -561 
Q 2906 -266 2906 331 
L 2906 616 
Q 2728 306 2450 153 
Q 2172 0 1784 0 
Q 1141 0 747 490 
Q 353 981 353 1791 
Q 353 2603 747 3093 
Q 1141 3584 1784 3584 
Q 2172 3584 2450 3431 
Q 2728 3278 2906 2969 
L 2906 3500 
L 3481 3500 
L 3481 434 
z
" transform="scale(0.015625)"/>
      </defs>
      <use xlink:href="#DejaVuSans-53"/>
      <use xlink:href="#DejaVuSans-70" transform="translate(63.476562 0)"/>
      <use xlink:href="#DejaVuSans-69" transform="translate(126.953125 0)"/>
      <use xlink:href="#DejaVuSans-6b" transform="translate(154.736328 0)"/>
      <use xlink:href="#DejaVuSans-69" transform="translate(212.646484 0)"/>
      <use xlink:href="#DejaVuSans-6e" transform="translate(240.429688 0)"/>
      <use xlink:href="#DejaVuSans-67" transform="translate(303.808594 0)"/>
      <use xlink:href="#DejaVuSans-2d" transform="translate(367.285156 0)"/>
      <use xlink:href="#DejaVuSans-50" transform="translate(403.369141 0)"/>
      <use xlink:href="#DejaVuSans-65" transform="translate(460.046875 0)"/>
      <use xlink:href="#DejaVuSans-61" transform="translate(521.570312 0)"/>
      <use xlink:href="#DejaVuSans-6b" transform="translate(582.849609 0)"/>
     </g>
    </g>
   </g>
  </g>
 </g>
 <defs>
  <clipPath id="p4ca54f4635">
   <rect x="57.6" y="41.472" width="357.12" height="266.112"/>
  </clipPath>
 </defs>
</svg>
