<?xml version="1.0" encoding="utf-8" standalone="no"?>
<!DOCTYPE svg PUBLIC "-//W3C//DTD SVG 1.1//EN"
  "http://www.w3.org/Graphics/SVG/1.1/DTD/svg11.dtd">
<svg xmlns:xlink="http://www.w3.org/1999/xlink" width="792pt" height="468pt" viewBox="0 0 792 468" xmlns="http://www.w3.org/2000/svg" version="1.1">
 <metadata>
  <rdf:RDF xmlns:dc="http://purl.org/dc/elements/1.1/" xmlns:cc="http://creativecommons.org/ns#" xmlns:rdf="http://www.w3.org/1999/02/22-rdf-syntax-ns#">
   <cc:Work>
    <dc:type rdf:resource="http://purl.org/dc/dcmitype/StillImage"/>
    <dc:date>2026-03-06T11:54:03.262048</dc:date>
    <dc:format>image/svg+xml</dc:format>
    <dc:creator>
     <cc:Agent>
      <dc:title>Matplotlib v3.9.0, https://matplotlib.org/</dc:title>
     </cc:Agent>
    </dc:creator>
   </cc:Work>
  </rdf:RDF>
 </metadata>
 <defs>
  <style type="text/css">*{stroke-linejoin: round; stroke-linecap: butt}</style>
 </defs>
 <g id="figure_1">
  <g id="patch_1">
   <path d="M 0 468 
L 792 468 
L 792 0 
L 0 0 
z
" style="fill: #ffffff"/>
  </g>
  <g id="axes_1">
   <g id="patch_2">
    <path d="M 99 416.52 
L 712.8 416.52 
L 712.8 56.16 
L 99 56.16 
z
" style="fill: #ffffff"/>
   </g>
   <g id="matplotlib.axis_1">
    <g id="xtick_1">
     <g id="line2d_1">
      <path d="M 177.942923 416.52 
L 177.942923 56.16 
" clip-path="url(#p7c6ace7794)" style="fill: none; stroke: #b0b0b0; stroke-width: 0.8; stroke-linecap: square"/>
     </g>
     <g id="line2d_2">
      <defs>
       <path id="m747d92e024" d="M 0 0 
L 0 3.5 
" style="stroke: #000000; stroke-width: 0.8"/>
      </defs>
      <g>
       <use xlink:href="#m747d92e024" x="177.942923" y="416.52" style="stroke: #000000; stroke-width: 0.8"/>
      </g>
     </g>
     <g id="text_1">
      <!-- 1.0 -->
      <g transform="translate(161.262923 440.69875) scale(0.24 -0.24)">
       <defs>
        <path id="Arial-BoldMT-31" d="M 2519 0 
L 1641 0 
L 1641 3309 
Q 1159 2859 506 2644 
L 506 3441 
Q 850 3553 1253 3867 
Q 1656 4181 1806 4600 
L 2519 4600 
L 2519 0 
z
" transform="scale(0.015625)"/>
        <path id="Arial-BoldMT-2e" d="M 459 0 
L 459 878 
L 1338 878 
L 1338 0 
L 459 0 
z
" transform="scale(0.015625)"/>
        <path id="Arial-BoldMT-30" d="M 1756 4600 
Q 2422 4600 2797 4125 
Q 3244 3563 3244 2259 
Q 3244 959 2794 391 
Q 2422 -78 1756 -78 
Q 1088 -78 678 436 
Q 269 950 269 2269 
Q 269 3563 719 4131 
Q 1091 4600 1756 4600 
z
M 1756 3872 
Q 1597 3872 1472 3770 
Q 1347 3669 1278 3406 
Q 1188 3066 1188 2259 
Q 1188 1453 1269 1151 
Q 1350 850 1473 750 
Q 1597 650 1756 650 
Q 1916 650 2041 751 
Q 2166 853 2234 1116 
Q 2325 1453 2325 2259 
Q 2325 3066 2244 3367 
Q 2163 3669 2039 3770 
Q 1916 3872 1756 3872 
z
" transform="scale(0.015625)"/>
       </defs>
       <use xlink:href="#Arial-BoldMT-31"/>
       <use xlink:href="#Arial-BoldMT-2e" x="55.615234"/>
       <use xlink:href="#Arial-BoldMT-30" x="83.398438"/>
      </g>
     </g>
    </g>
    <g id="xtick_2">
     <g id="line2d_3">
      <path d="M 276.644711 416.52 
L 276.644711 56.16 
" clip-path="url(#p7c6ace7794)" style="fill: none; stroke: #b0b0b0; stroke-width: 0.8; stroke-linecap: square"/>
     </g>
     <g id="line2d_4">
      <g>
       <use xlink:href="#m747d92e024" x="276.644711" y="416.52" style="stroke: #000000; stroke-width: 0.8"/>
      </g>
     </g>
     <g id="text_2">
      <!-- 1.5 -->
      <g transform="translate(259.964711 440.69875) scale(0.24 -0.24)">
       <defs>
        <path id="Arial-BoldMT-35" d="M 284 1178 
L 1159 1269 
Q 1197 972 1381 798 
Q 1566 625 1806 625 
Q 2081 625 2272 848 
Q 2463 1072 2463 1522 
Q 2463 1944 2273 2155 
Q 2084 2366 1781 2366 
Q 1403 2366 1103 2031 
L 391 2134 
L 841 4519 
L 3163 4519 
L 3163 3697 
L 1506 3697 
L 1369 2919 
Q 1663 3066 1969 3066 
Q 2553 3066 2959 2641 
Q 3366 2216 3366 1538 
Q 3366 972 3038 528 
Q 2591 -78 1797 -78 
Q 1163 -78 763 262 
Q 363 603 284 1178 
z
" transform="scale(0.015625)"/>
       </defs>
       <use xlink:href="#Arial-BoldMT-31"/>
       <use xlink:href="#Arial-BoldMT-2e" x="55.615234"/>
       <use xlink:href="#Arial-BoldMT-35" x="83.398438"/>
      </g>
     </g>
    </g>
    <g id="xtick_3">
     <g id="line2d_5">
      <path d="M 375.346498 416.52 
L 375.346498 56.16 
" clip-path="url(#p7c6ace7794)" style="fill: none; stroke: #b0b0b0; stroke-width: 0.8; stroke-linecap: square"/>
     </g>
     <g id="line2d_6">
      <g>
       <use xlink:href="#m747d92e024" x="375.346498" y="416.52" style="stroke: #000000; stroke-width: 0.8"/>
      </g>
     </g>
     <g id="text_3">
      <!-- 2.0 -->
      <g transform="translate(358.666498 440.69875) scale(0.24 -0.24)">
       <defs>
        <path id="Arial-BoldMT-32" d="M 3238 816 
L 3238 0 
L 159 0 
Q 209 463 459 877 
Q 709 1291 1447 1975 
Q 2041 2528 2175 2725 
Q 2356 2997 2356 3263 
Q 2356 3556 2198 3714 
Q 2041 3872 1763 3872 
Q 1488 3872 1325 3706 
Q 1163 3541 1138 3156 
L 263 3244 
Q 341 3969 753 4284 
Q 1166 4600 1784 4600 
Q 2463 4600 2850 4234 
Q 3238 3869 3238 3325 
Q 3238 3016 3127 2736 
Q 3016 2456 2775 2150 
Q 2616 1947 2200 1565 
Q 1784 1184 1673 1059 
Q 1563 934 1494 816 
L 3238 816 
z
" transform="scale(0.015625)"/>
       </defs>
       <use xlink:href="#Arial-BoldMT-32"/>
       <use xlink:href="#Arial-BoldMT-2e" x="55.615234"/>
       <use xlink:href="#Arial-BoldMT-30" x="83.398438"/>
      </g>
     </g>
    </g>
    <g id="xtick_4">
     <g id="line2d_7">
      <path d="M 474.048286 416.52 
L 474.048286 56.16 
" clip-path="url(#p7c6ace7794)" style="fill: none; stroke: #b0b0b0; stroke-width: 0.8; stroke-linecap: square"/>
     </g>
     <g id="line2d_8">
      <g>
       <use xlink:href="#m747d92e024" x="474.048286" y="416.52" style="stroke: #000000; stroke-width: 0.8"/>
      </g>
     </g>
     <g id="text_4">
      <!-- 2.5 -->
      <g transform="translate(457.368286 440.69875) scale(0.24 -0.24)">
       <use xlink:href="#Arial-BoldMT-32"/>
       <use xlink:href="#Arial-BoldMT-2e" x="55.615234"/>
       <use xlink:href="#Arial-BoldMT-35" x="83.398438"/>
      </g>
     </g>
    </g>
    <g id="xtick_5">
     <g id="line2d_9">
      <path d="M 572.750074 416.52 
L 572.750074 56.16 
" clip-path="url(#p7c6ace7794)" style="fill: none; stroke: #b0b0b0; stroke-width: 0.8; stroke-linecap: square"/>
     </g>
     <g id="line2d_10">
      <g>
       <use xlink:href="#m747d92e024" x="572.750074" y="416.52" style="stroke: #000000; stroke-width: 0.8"/>
      </g>
     </g>
     <g id="text_5">
      <!-- 3.0 -->
      <g transform="translate(556.070074 440.69875) scale(0.24 -0.24)">
       <defs>
        <path id="Arial-BoldMT-33" d="M 241 1216 
L 1091 1319 
Q 1131 994 1309 822 
Q 1488 650 1741 650 
Q 2013 650 2198 856 
Q 2384 1063 2384 1413 
Q 2384 1744 2206 1937 
Q 2028 2131 1772 2131 
Q 1603 2131 1369 2066 
L 1466 2781 
Q 1822 2772 2009 2936 
Q 2197 3100 2197 3372 
Q 2197 3603 2059 3740 
Q 1922 3878 1694 3878 
Q 1469 3878 1309 3722 
Q 1150 3566 1116 3266 
L 306 3403 
Q 391 3819 561 4067 
Q 731 4316 1036 4458 
Q 1341 4600 1719 4600 
Q 2366 4600 2756 4188 
Q 3078 3850 3078 3425 
Q 3078 2822 2419 2463 
Q 2813 2378 3048 2084 
Q 3284 1791 3284 1375 
Q 3284 772 2843 347 
Q 2403 -78 1747 -78 
Q 1125 -78 715 280 
Q 306 638 241 1216 
z
" transform="scale(0.015625)"/>
       </defs>
       <use xlink:href="#Arial-BoldMT-33"/>
       <use xlink:href="#Arial-BoldMT-2e" x="55.615234"/>
       <use xlink:href="#Arial-BoldMT-30" x="83.398438"/>
      </g>
     </g>
    </g>
    <g id="xtick_6">
     <g id="line2d_11">
      <path d="M 671.451862 416.52 
L 671.451862 56.16 
" clip-path="url(#p7c6ace7794)" style="fill: none; stroke: #b0b0b0; stroke-width: 0.8; stroke-linecap: square"/>
     </g>
     <g id="line2d_12">
      <g>
       <use xlink:href="#m747d92e024" x="671.451862" y="416.52" style="stroke: #000000; stroke-width: 0.8"/>
      </g>
     </g>
     <g id="text_6">
      <!-- 3.5 -->
      <g transform="translate(654.771862 440.69875) scale(0.24 -0.24)">
       <use xlink:href="#Arial-BoldMT-33"/>
       <use xlink:href="#Arial-BoldMT-2e" x="55.615234"/>
       <use xlink:href="#Arial-BoldMT-35" x="83.398438"/>
      </g>
     </g>
    </g>
    <g id="text_7">
     <!-- x (m) -->
     <g transform="translate(377.23125 466.90625) scale(0.24 -0.24)">
      <defs>
       <path id="Arial-BoldMT-78" d="M 38 0 
L 1234 1709 
L 88 3319 
L 1159 3319 
L 1747 2406 
L 2366 3319 
L 3397 3319 
L 2272 1747 
L 3500 0 
L 2422 0 
L 1747 1028 
L 1066 0 
L 38 0 
z
" transform="scale(0.015625)"/>
       <path id="Arial-BoldMT-20" transform="scale(0.015625)"/>
       <path id="Arial-BoldMT-28" d="M 1916 -1347 
L 1313 -1347 
Q 834 -625 584 153 
Q 334 931 334 1659 
Q 334 2563 644 3369 
Q 913 4069 1325 4659 
L 1925 4659 
Q 1497 3713 1336 3048 
Q 1175 2384 1175 1641 
Q 1175 1128 1270 590 
Q 1366 53 1531 -431 
Q 1641 -750 1916 -1347 
z
" transform="scale(0.015625)"/>
       <path id="Arial-BoldMT-6d" d="M 394 3319 
L 1203 3319 
L 1203 2866 
Q 1638 3394 2238 3394 
Q 2556 3394 2790 3262 
Q 3025 3131 3175 2866 
Q 3394 3131 3647 3262 
Q 3900 3394 4188 3394 
Q 4553 3394 4806 3245 
Q 5059 3097 5184 2809 
Q 5275 2597 5275 2122 
L 5275 0 
L 4397 0 
L 4397 1897 
Q 4397 2391 4306 2534 
Q 4184 2722 3931 2722 
Q 3747 2722 3584 2609 
Q 3422 2497 3350 2280 
Q 3278 2063 3278 1594 
L 3278 0 
L 2400 0 
L 2400 1819 
Q 2400 2303 2353 2443 
Q 2306 2584 2207 2653 
Q 2109 2722 1941 2722 
Q 1738 2722 1575 2612 
Q 1413 2503 1342 2297 
Q 1272 2091 1272 1613 
L 1272 0 
L 394 0 
L 394 3319 
z
" transform="scale(0.015625)"/>
       <path id="Arial-BoldMT-29" d="M 216 -1347 
Q 475 -791 581 -494 
Q 688 -197 778 190 
Q 869 578 912 926 
Q 956 1275 956 1641 
Q 956 2384 797 3048 
Q 638 3713 209 4659 
L 806 4659 
Q 1278 3988 1539 3234 
Q 1800 2481 1800 1706 
Q 1800 1053 1594 306 
Q 1359 -531 822 -1347 
L 216 -1347 
z
" transform="scale(0.015625)"/>
      </defs>
      <use xlink:href="#Arial-BoldMT-78"/>
      <use xlink:href="#Arial-BoldMT-20" x="55.615234"/>
      <use xlink:href="#Arial-BoldMT-28" x="83.398438"/>
      <use xlink:href="#Arial-BoldMT-6d" x="116.699219"/>
      <use xlink:href="#Arial-BoldMT-29" x="205.615234"/>
     </g>
    </g>
    <g id="text_8">
     <!-- 1e−9 -->
     <g transform="translate(658.74375 465.61375) scale(0.24 -0.24)">
      <defs>
       <path id="Arial-BoldMT-65" d="M 2381 1056 
L 3256 909 
Q 3088 428 2723 176 
Q 2359 -75 1813 -75 
Q 947 -75 531 491 
Q 203 944 203 1634 
Q 203 2459 634 2926 
Q 1066 3394 1725 3394 
Q 2466 3394 2894 2905 
Q 3322 2416 3303 1406 
L 1103 1406 
Q 1113 1016 1316 798 
Q 1519 581 1822 581 
Q 2028 581 2168 693 
Q 2309 806 2381 1056 
z
M 2431 1944 
Q 2422 2325 2234 2523 
Q 2047 2722 1778 2722 
Q 1491 2722 1303 2513 
Q 1116 2303 1119 1944 
L 2431 1944 
z
" transform="scale(0.015625)"/>
       <path id="Arial-BoldMT-2212" d="M 266 1850 
L 266 2672 
L 3469 2672 
L 3469 1850 
L 266 1850 
z
" transform="scale(0.015625)"/>
       <path id="Arial-BoldMT-39" d="M 291 1059 
L 1141 1153 
Q 1172 894 1303 769 
Q 1434 644 1650 644 
Q 1922 644 2112 894 
Q 2303 1144 2356 1931 
Q 2025 1547 1528 1547 
Q 988 1547 595 1964 
Q 203 2381 203 3050 
Q 203 3747 617 4173 
Q 1031 4600 1672 4600 
Q 2369 4600 2816 4061 
Q 3263 3522 3263 2288 
Q 3263 1031 2797 475 
Q 2331 -81 1584 -81 
Q 1047 -81 715 205 
Q 384 491 291 1059 
z
M 2278 2978 
Q 2278 3403 2083 3637 
Q 1888 3872 1631 3872 
Q 1388 3872 1227 3680 
Q 1066 3488 1066 3050 
Q 1066 2606 1241 2398 
Q 1416 2191 1678 2191 
Q 1931 2191 2104 2391 
Q 2278 2591 2278 2978 
z
" transform="scale(0.015625)"/>
      </defs>
      <use xlink:href="#Arial-BoldMT-31"/>
      <use xlink:href="#Arial-BoldMT-65" x="55.615234"/>
      <use xlink:href="#Arial-BoldMT-2212" x="111.230469"/>
      <use xlink:href="#Arial-BoldMT-39" x="169.628906"/>
     </g>
    </g>
   </g>
   <g id="matplotlib.axis_2">
    <g id="ytick_1">
     <g id="line2d_13">
      <path d="M 99 414.748033 
L 712.8 414.748033 
" clip-path="url(#p7c6ace7794)" style="fill: none; stroke: #b0b0b0; stroke-width: 0.8; stroke-linecap: square"/>
     </g>
     <g id="line2d_14">
      <defs>
       <path id="m633d9e367d" d="M 0 0 
L -3.5 0 
" style="stroke: #000000; stroke-width: 0.8"/>
      </defs>
      <g>
       <use xlink:href="#m633d9e367d" x="99" y="414.748033" style="stroke: #000000; stroke-width: 0.8"/>
      </g>
     </g>
     <g id="text_9">
      <!-- −4 -->
      <g transform="translate(64.63625 423.337408) scale(0.24 -0.24)">
       <defs>
        <path id="Arial-BoldMT-34" d="M 1994 0 
L 1994 922 
L 119 922 
L 119 1691 
L 2106 4600 
L 2844 4600 
L 2844 1694 
L 3413 1694 
L 3413 922 
L 2844 922 
L 2844 0 
L 1994 0 
z
M 1994 1694 
L 1994 3259 
L 941 1694 
L 1994 1694 
z
" transform="scale(0.015625)"/>
       </defs>
       <use xlink:href="#Arial-BoldMT-2212"/>
       <use xlink:href="#Arial-BoldMT-34" x="58.398438"/>
      </g>
     </g>
    </g>
    <g id="ytick_2">
     <g id="line2d_15">
      <path d="M 99 348.470011 
L 712.8 348.470011 
" clip-path="url(#p7c6ace7794)" style="fill: none; stroke: #b0b0b0; stroke-width: 0.8; stroke-linecap: square"/>
     </g>
     <g id="line2d_16">
      <g>
       <use xlink:href="#m633d9e367d" x="99" y="348.470011" style="stroke: #000000; stroke-width: 0.8"/>
      </g>
     </g>
     <g id="text_10">
      <!-- −2 -->
      <g transform="translate(64.63625 357.059386) scale(0.24 -0.24)">
       <use xlink:href="#Arial-BoldMT-2212"/>
       <use xlink:href="#Arial-BoldMT-32" x="58.398438"/>
      </g>
     </g>
    </g>
    <g id="ytick_3">
     <g id="line2d_17">
      <path d="M 99 282.19199 
L 712.8 282.19199 
" clip-path="url(#p7c6ace7794)" style="fill: none; stroke: #b0b0b0; stroke-width: 0.8; stroke-linecap: square"/>
     </g>
     <g id="line2d_18">
      <g>
       <use xlink:href="#m633d9e367d" x="99" y="282.19199" style="stroke: #000000; stroke-width: 0.8"/>
      </g>
     </g>
     <g id="text_11">
      <!-- 0 -->
      <g transform="translate(78.65375 290.781365) scale(0.24 -0.24)">
       <use xlink:href="#Arial-BoldMT-30"/>
      </g>
     </g>
    </g>
    <g id="ytick_4">
     <g id="line2d_19">
      <path d="M 99 215.913968 
L 712.8 215.913968 
" clip-path="url(#p7c6ace7794)" style="fill: none; stroke: #b0b0b0; stroke-width: 0.8; stroke-linecap: square"/>
     </g>
     <g id="line2d_20">
      <g>
       <use xlink:href="#m633d9e367d" x="99" y="215.913968" style="stroke: #000000; stroke-width: 0.8"/>
      </g>
     </g>
     <g id="text_12">
      <!-- 2 -->
      <g transform="translate(78.65375 224.503343) scale(0.24 -0.24)">
       <use xlink:href="#Arial-BoldMT-32"/>
      </g>
     </g>
    </g>
    <g id="ytick_5">
     <g id="line2d_21">
      <path d="M 99 149.635946 
L 712.8 149.635946 
" clip-path="url(#p7c6ace7794)" style="fill: none; stroke: #b0b0b0; stroke-width: 0.8; stroke-linecap: square"/>
     </g>
     <g id="line2d_22">
      <g>
       <use xlink:href="#m633d9e367d" x="99" y="149.635946" style="stroke: #000000; stroke-width: 0.8"/>
      </g>
     </g>
     <g id="text_13">
      <!-- 4 -->
      <g transform="translate(78.65375 158.225321) scale(0.24 -0.24)">
       <use xlink:href="#Arial-BoldMT-34"/>
      </g>
     </g>
    </g>
    <g id="ytick_6">
     <g id="line2d_23">
      <path d="M 99 83.357925 
L 712.8 83.357925 
" clip-path="url(#p7c6ace7794)" style="fill: none; stroke: #b0b0b0; stroke-width: 0.8; stroke-linecap: square"/>
     </g>
     <g id="line2d_24">
      <g>
       <use xlink:href="#m633d9e367d" x="99" y="83.357925" style="stroke: #000000; stroke-width: 0.8"/>
      </g>
     </g>
     <g id="text_14">
      <!-- 6 -->
      <g transform="translate(78.65375 91.9473) scale(0.24 -0.24)">
       <defs>
        <path id="Arial-BoldMT-36" d="M 3247 3459 
L 2397 3366 
Q 2366 3628 2234 3753 
Q 2103 3878 1894 3878 
Q 1616 3878 1423 3628 
Q 1231 3378 1181 2588 
Q 1509 2975 1997 2975 
Q 2547 2975 2939 2556 
Q 3331 2138 3331 1475 
Q 3331 772 2918 347 
Q 2506 -78 1859 -78 
Q 1166 -78 719 461 
Q 272 1000 272 2228 
Q 272 3488 737 4044 
Q 1203 4600 1947 4600 
Q 2469 4600 2811 4308 
Q 3153 4016 3247 3459 
z
M 1256 1544 
Q 1256 1116 1453 883 
Q 1650 650 1903 650 
Q 2147 650 2309 840 
Q 2472 1031 2472 1466 
Q 2472 1913 2297 2120 
Q 2122 2328 1859 2328 
Q 1606 2328 1431 2129 
Q 1256 1931 1256 1544 
z
" transform="scale(0.015625)"/>
       </defs>
       <use xlink:href="#Arial-BoldMT-36"/>
      </g>
     </g>
    </g>
    <g id="text_15">
     <!-- z (m) -->
     <g transform="translate(55.585 264.335625) rotate(-90) scale(0.24 -0.24)">
      <defs>
       <path id="Arial-BoldMT-7a" d="M 106 0 
L 106 684 
L 1350 2113 
Q 1656 2463 1803 2609 
Q 1650 2600 1400 2597 
L 228 2591 
L 228 3319 
L 2972 3319 
L 2972 2697 
L 1703 1234 
L 1256 750 
Q 1622 772 1709 772 
L 3069 772 
L 3069 0 
L 106 0 
z
" transform="scale(0.015625)"/>
      </defs>
      <use xlink:href="#Arial-BoldMT-7a"/>
      <use xlink:href="#Arial-BoldMT-20" x="50"/>
      <use xlink:href="#Arial-BoldMT-28" x="77.783203"/>
      <use xlink:href="#Arial-BoldMT-6d" x="111.083984"/>
      <use xlink:href="#Arial-BoldMT-29" x="200"/>
     </g>
    </g>
    <g id="text_16">
     <!-- 1e−10 -->
     <g transform="translate(99 53.16) scale(0.24 -0.24)">
      <use xlink:href="#Arial-BoldMT-31"/>
      <use xlink:href="#Arial-BoldMT-65" x="55.615234"/>
      <use xlink:href="#Arial-BoldMT-2212" x="111.230469"/>
      <use xlink:href="#Arial-BoldMT-31" x="169.628906"/>
      <use xlink:href="#Arial-BoldMT-30" x="225.244141"/>
     </g>
    </g>
   </g>
   <g id="line2d_25">
    <path d="M 126.9 129.702143 
L 136.047542 157.127988 
L 145.195083 155.268558 
L 154.342623 149.190532 
L 163.490164 143.453507 
L 172.637706 161.425455 
L 181.785245 154.872216 
L 190.932789 124.801214 
L 200.080332 129.191139 
L 209.227876 155.473689 
L 218.3754 136.727613 
L 227.522943 131.946648 
L 236.670487 139.503999 
L 245.81803 184.877933 
L 254.965574 336.258592 
L 264.113117 397.519698 
L 273.260661 390.462083 
L 282.408204 387.165083 
L 291.555728 375.466018 
L 300.703271 377.76454 
L 309.850815 397.53196 
L 318.998358 395.834248 
L 328.145902 400.14 
L 337.293445 394.406288 
L 346.440989 382.604492 
L 355.588513 390.080653 
L 364.736056 376.619256 
L 373.8836 380.007057 
L 383.031143 389.194847 
L 392.178687 378.676857 
L 401.32623 378.313653 
L 410.473774 376.119188 
L 419.621317 365.404683 
L 428.768841 381.356477 
L 437.916385 391.881758 
L 447.063928 370.677431 
L 456.211472 366.685174 
L 465.359015 372.595517 
L 474.506559 359.834015 
L 483.654102 367.612072 
L 492.801626 377.091487 
L 501.949169 364.160976 
L 511.096713 364.529482 
L 520.244256 348.40669 
L 529.3918 350.343334 
L 538.539343 363.626775 
L 547.686887 369.446317 
L 556.83443 383.5695 
L 565.981954 388.67821 
L 575.129498 392.603526 
L 584.277041 394.064957 
L 593.424585 394.202483 
L 602.572128 397.612156 
L 611.719672 386.951999 
L 620.867215 392.344379 
L 630.014739 397.939901 
L 639.162282 396.896022 
L 648.309826 369.453276 
L 657.457369 376.32697 
L 666.604913 398.724301 
L 675.752456 380.880601 
L 684.9 380.711592 
" clip-path="url(#p7c6ace7794)" style="fill: none; stroke-dasharray: 7.4,3.2; stroke-dashoffset: 0; stroke: #1f77b4; stroke-width: 2"/>
    <defs>
     <path id="m834b36b31d" d="M -3 3 
L 3 -3 
M -3 -3 
L 3 3 
" style="stroke: #1f77b4"/>
    </defs>
    <g clip-path="url(#p7c6ace7794)">
     <use xlink:href="#m834b36b31d" x="126.9" y="129.702143" style="fill: #1f77b4; stroke: #1f77b4"/>
     <use xlink:href="#m834b36b31d" x="136.047542" y="157.127988" style="fill: #1f77b4; stroke: #1f77b4"/>
     <use xlink:href="#m834b36b31d" x="145.195083" y="155.268558" style="fill: #1f77b4; stroke: #1f77b4"/>
     <use xlink:href="#m834b36b31d" x="154.342623" y="149.190532" style="fill: #1f77b4; stroke: #1f77b4"/>
     <use xlink:href="#m834b36b31d" x="163.490164" y="143.453507" style="fill: #1f77b4; stroke: #1f77b4"/>
     <use xlink:href="#m834b36b31d" x="172.637706" y="161.425455" style="fill: #1f77b4; stroke: #1f77b4"/>
     <use xlink:href="#m834b36b31d" x="181.785245" y="154.872216" style="fill: #1f77b4; stroke: #1f77b4"/>
     <use xlink:href="#m834b36b31d" x="190.932789" y="124.801214" style="fill: #1f77b4; stroke: #1f77b4"/>
     <use xlink:href="#m834b36b31d" x="200.080332" y="129.191139" style="fill: #1f77b4; stroke: #1f77b4"/>
     <use xlink:href="#m834b36b31d" x="209.227876" y="155.473689" style="fill: #1f77b4; stroke: #1f77b4"/>
     <use xlink:href="#m834b36b31d" x="218.3754" y="136.727613" style="fill: #1f77b4; stroke: #1f77b4"/>
     <use xlink:href="#m834b36b31d" x="227.522943" y="131.946648" style="fill: #1f77b4; stroke: #1f77b4"/>
     <use xlink:href="#m834b36b31d" x="236.670487" y="139.503999" style="fill: #1f77b4; stroke: #1f77b4"/>
     <use xlink:href="#m834b36b31d" x="245.81803" y="184.877933" style="fill: #1f77b4; stroke: #1f77b4"/>
     <use xlink:href="#m834b36b31d" x="254.965574" y="336.258592" style="fill: #1f77b4; stroke: #1f77b4"/>
     <use xlink:href="#m834b36b31d" x="264.113117" y="397.519698" style="fill: #1f77b4; stroke: #1f77b4"/>
     <use xlink:href="#m834b36b31d" x="273.260661" y="390.462083" style="fill: #1f77b4; stroke: #1f77b4"/>
     <use xlink:href="#m834b36b31d" x="282.408204" y="387.165083" style="fill: #1f77b4; stroke: #1f77b4"/>
     <use xlink:href="#m834b36b31d" x="291.555728" y="375.466018" style="fill: #1f77b4; stroke: #1f77b4"/>
     <use xlink:href="#m834b36b31d" x="300.703271" y="377.76454" style="fill: #1f77b4; stroke: #1f77b4"/>
     <use xlink:href="#m834b36b31d" x="309.850815" y="397.53196" style="fill: #1f77b4; stroke: #1f77b4"/>
     <use xlink:href="#m834b36b31d" x="318.998358" y="395.834248" style="fill: #1f77b4; stroke: #1f77b4"/>
     <use xlink:href="#m834b36b31d" x="328.145902" y="400.14" style="fill: #1f77b4; stroke: #1f77b4"/>
     <use xlink:href="#m834b36b31d" x="337.293445" y="394.406288" style="fill: #1f77b4; stroke: #1f77b4"/>
     <use xlink:href="#m834b36b31d" x="346.440989" y="382.604492" style="fill: #1f77b4; stroke: #1f77b4"/>
     <use xlink:href="#m834b36b31d" x="355.588513" y="390.080653" style="fill: #1f77b4; stroke: #1f77b4"/>
     <use xlink:href="#m834b36b31d" x="364.736056" y="376.619256" style="fill: #1f77b4; stroke: #1f77b4"/>
     <use xlink:href="#m834b36b31d" x="373.8836" y="380.007057" style="fill: #1f77b4; stroke: #1f77b4"/>
     <use xlink:href="#m834b36b31d" x="383.031143" y="389.194847" style="fill: #1f77b4; stroke: #1f77b4"/>
     <use xlink:href="#m834b36b31d" x="392.178687" y="378.676857" style="fill: #1f77b4; stroke: #1f77b4"/>
     <use xlink:href="#m834b36b31d" x="401.32623" y="378.313653" style="fill: #1f77b4; stroke: #1f77b4"/>
     <use xlink:href="#m834b36b31d" x="410.473774" y="376.119188" style="fill: #1f77b4; stroke: #1f77b4"/>
     <use xlink:href="#m834b36b31d" x="419.621317" y="365.404683" style="fill: #1f77b4; stroke: #1f77b4"/>
     <use xlink:href="#m834b36b31d" x="428.768841" y="381.356477" style="fill: #1f77b4; stroke: #1f77b4"/>
     <use xlink:href="#m834b36b31d" x="437.916385" y="391.881758" style="fill: #1f77b4; stroke: #1f77b4"/>
     <use xlink:href="#m834b36b31d" x="447.063928" y="370.677431" style="fill: #1f77b4; stroke: #1f77b4"/>
     <use xlink:href="#m834b36b31d" x="456.211472" y="366.685174" style="fill: #1f77b4; stroke: #1f77b4"/>
     <use xlink:href="#m834b36b31d" x="465.359015" y="372.595517" style="fill: #1f77b4; stroke: #1f77b4"/>
     <use xlink:href="#m834b36b31d" x="474.506559" y="359.834015" style="fill: #1f77b4; stroke: #1f77b4"/>
     <use xlink:href="#m834b36b31d" x="483.654102" y="367.612072" style="fill: #1f77b4; stroke: #1f77b4"/>
     <use xlink:href="#m834b36b31d" x="492.801626" y="377.091487" style="fill: #1f77b4; stroke: #1f77b4"/>
     <use xlink:href="#m834b36b31d" x="501.949169" y="364.160976" style="fill: #1f77b4; stroke: #1f77b4"/>
     <use xlink:href="#m834b36b31d" x="511.096713" y="364.529482" style="fill: #1f77b4; stroke: #1f77b4"/>
     <use xlink:href="#m834b36b31d" x="520.244256" y="348.40669" style="fill: #1f77b4; stroke: #1f77b4"/>
     <use xlink:href="#m834b36b31d" x="529.3918" y="350.343334" style="fill: #1f77b4; stroke: #1f77b4"/>
     <use xlink:href="#m834b36b31d" x="538.539343" y="363.626775" style="fill: #1f77b4; stroke: #1f77b4"/>
     <use xlink:href="#m834b36b31d" x="547.686887" y="369.446317" style="fill: #1f77b4; stroke: #1f77b4"/>
     <use xlink:href="#m834b36b31d" x="556.83443" y="383.5695" style="fill: #1f77b4; stroke: #1f77b4"/>
     <use xlink:href="#m834b36b31d" x="565.981954" y="388.67821" style="fill: #1f77b4; stroke: #1f77b4"/>
     <use xlink:href="#m834b36b31d" x="575.129498" y="392.603526" style="fill: #1f77b4; stroke: #1f77b4"/>
     <use xlink:href="#m834b36b31d" x="584.277041" y="394.064957" style="fill: #1f77b4; stroke: #1f77b4"/>
     <use xlink:href="#m834b36b31d" x="593.424585" y="394.202483" style="fill: #1f77b4; stroke: #1f77b4"/>
     <use xlink:href="#m834b36b31d" x="602.572128" y="397.612156" style="fill: #1f77b4; stroke: #1f77b4"/>
     <use xlink:href="#m834b36b31d" x="611.719672" y="386.951999" style="fill: #1f77b4; stroke: #1f77b4"/>
     <use xlink:href="#m834b36b31d" x="620.867215" y="392.344379" style="fill: #1f77b4; stroke: #1f77b4"/>
     <use xlink:href="#m834b36b31d" x="630.014739" y="397.939901" style="fill: #1f77b4; stroke: #1f77b4"/>
     <use xlink:href="#m834b36b31d" x="639.162282" y="396.896022" style="fill: #1f77b4; stroke: #1f77b4"/>
     <use xlink:href="#m834b36b31d" x="648.309826" y="369.453276" style="fill: #1f77b4; stroke: #1f77b4"/>
     <use xlink:href="#m834b36b31d" x="657.457369" y="376.32697" style="fill: #1f77b4; stroke: #1f77b4"/>
     <use xlink:href="#m834b36b31d" x="666.604913" y="398.724301" style="fill: #1f77b4; stroke: #1f77b4"/>
     <use xlink:href="#m834b36b31d" x="675.752456" y="380.880601" style="fill: #1f77b4; stroke: #1f77b4"/>
     <use xlink:href="#m834b36b31d" x="684.9" y="380.711592" style="fill: #1f77b4; stroke: #1f77b4"/>
    </g>
   </g>
   <g id="line2d_26">
    <path d="M 126.9 149.928211 
L 129.392004 149.647467 
L 131.884009 149.366723 
L 134.376013 149.085979 
L 136.868017 148.805236 
L 139.360021 148.524492 
L 141.852026 148.243748 
L 144.34403 147.963004 
L 146.836034 147.682261 
L 149.328039 147.401517 
L 151.820043 147.120773 
L 154.312047 146.84003 
L 156.804051 146.559286 
L 159.296056 146.278542 
L 161.78806 145.997798 
L 164.280064 145.717055 
L 166.772069 145.436311 
L 169.264073 145.155567 
L 171.756077 144.874823 
L 174.248081 144.59408 
L 176.740086 144.313336 
L 179.23209 144.032592 
L 181.724094 143.751848 
L 184.216099 143.471105 
L 186.708103 143.190361 
L 189.200107 142.909617 
L 191.692111 142.628874 
L 194.184116 142.34813 
L 196.67612 142.067386 
L 199.168124 141.786642 
L 201.660129 141.505899 
L 204.152133 141.225155 
L 206.644137 140.944411 
L 209.136141 140.663667 
L 211.628146 140.382924 
L 214.12015 140.10218 
L 216.612154 139.821436 
L 219.104159 139.540692 
L 221.596163 139.259949 
L 224.088167 138.979205 
L 226.580171 138.698461 
L 229.072176 138.417718 
L 231.56418 138.136974 
L 234.056184 137.85623 
L 236.548189 137.575486 
L 239.040193 137.294743 
L 241.532197 137.013999 
L 244.024201 136.733255 
L 246.516206 136.452511 
L 249.00821 136.171768 
" clip-path="url(#p7c6ace7794)" style="fill: none; stroke: #ff7f0e; stroke-width: 2; stroke-linecap: square"/>
   </g>
   <g id="line2d_27">
    <path d="M 249.00821 378.949348 
L 257.903961 378.999016 
L 266.799712 379.048683 
L 275.695462 379.098351 
L 284.591213 379.148019 
L 293.486964 379.197687 
L 302.382715 379.247354 
L 311.278466 379.297022 
L 320.174217 379.34669 
L 329.069967 379.396358 
L 337.965718 379.446025 
L 346.861469 379.495693 
L 355.75722 379.545361 
L 364.652971 379.595028 
L 373.548721 379.644696 
L 382.444472 379.694364 
L 391.340223 379.744032 
L 400.235974 379.793699 
L 409.131725 379.843367 
L 418.027476 379.893035 
L 426.923226 379.942703 
L 435.818977 379.99237 
L 444.714728 380.042038 
L 453.610479 380.091706 
L 462.50623 380.141374 
L 471.40198 380.191041 
L 480.297731 380.240709 
L 489.193482 380.290377 
L 498.089233 380.340044 
L 506.984984 380.389712 
L 515.880735 380.43938 
L 524.776485 380.489048 
L 533.672236 380.538715 
L 542.567987 380.588383 
L 551.463738 380.638051 
L 560.359489 380.687719 
L 569.255239 380.737386 
L 578.15099 380.787054 
L 587.046741 380.836722 
L 595.942492 380.88639 
L 604.838243 380.936057 
L 613.733993 380.985725 
L 622.629744 381.035393 
L 631.525495 381.08506 
L 640.421246 381.134728 
L 649.316997 381.184396 
L 658.212748 381.234064 
L 667.108498 381.283731 
L 676.004249 381.333399 
L 684.9 381.383067 
" clip-path="url(#p7c6ace7794)" style="fill: none; stroke: #2ca02c; stroke-width: 2; stroke-linecap: square"/>
   </g>
   <g id="LineCollection_1">
    <path d="M 249.00821 400.14 
L 249.00821 72.54 
" clip-path="url(#p7c6ace7794)" style="fill: none; stroke-dasharray: 7.4,3.2; stroke-dashoffset: 0; stroke: #808080; stroke-width: 2"/>
   </g>
   <g id="patch_3">
    <path d="M 99 416.52 
L 99 56.16 
" style="fill: none; stroke: #000000; stroke-width: 1.2; stroke-linejoin: miter; stroke-linecap: square"/>
   </g>
   <g id="patch_4">
    <path d="M 712.8 416.52 
L 712.8 56.16 
" style="fill: none; stroke: #000000; stroke-width: 1.2; stroke-linejoin: miter; stroke-linecap: square"/>
   </g>
   <g id="patch_5">
    <path d="M 99 416.52 
L 712.8 416.52 
" style="fill: none; stroke: #000000; stroke-width: 1.2; stroke-linejoin: miter; stroke-linecap: square"/>
   </g>
   <g id="patch_6">
    <path d="M 99 56.16 
L 712.8 56.16 
" style="fill: none; stroke: #000000; stroke-width: 1.2; stroke-linejoin: miter; stroke-linecap: square"/>
   </g>
   <g id="text_17">
    <!-- Kantenanpassung 12 nm — Höhe = 0.73 ± 0.03 nm -->
    <g transform="translate(76.599 29.91975) scale(0.288 -0.288)">
     <defs>
      <path id="ArialMT-4b" d="M 469 0 
L 469 4581 
L 1075 4581 
L 1075 2309 
L 3350 4581 
L 4172 4581 
L 2250 2725 
L 4256 0 
L 3456 0 
L 1825 2319 
L 1075 1588 
L 1075 0 
L 469 0 
z
" transform="scale(0.015625)"/>
      <path id="ArialMT-61" d="M 2588 409 
Q 2275 144 1986 34 
Q 1697 -75 1366 -75 
Q 819 -75 525 192 
Q 231 459 231 875 
Q 231 1119 342 1320 
Q 453 1522 633 1644 
Q 813 1766 1038 1828 
Q 1203 1872 1538 1913 
Q 2219 1994 2541 2106 
Q 2544 2222 2544 2253 
Q 2544 2597 2384 2738 
Q 2169 2928 1744 2928 
Q 1347 2928 1158 2789 
Q 969 2650 878 2297 
L 328 2372 
Q 403 2725 575 2942 
Q 747 3159 1072 3276 
Q 1397 3394 1825 3394 
Q 2250 3394 2515 3294 
Q 2781 3194 2906 3042 
Q 3031 2891 3081 2659 
Q 3109 2516 3109 2141 
L 3109 1391 
Q 3109 606 3145 398 
Q 3181 191 3288 0 
L 2700 0 
Q 2613 175 2588 409 
z
M 2541 1666 
Q 2234 1541 1622 1453 
Q 1275 1403 1131 1340 
Q 988 1278 909 1158 
Q 831 1038 831 891 
Q 831 666 1001 516 
Q 1172 366 1500 366 
Q 1825 366 2078 508 
Q 2331 650 2450 897 
Q 2541 1088 2541 1459 
L 2541 1666 
z
" transform="scale(0.015625)"/>
      <path id="ArialMT-6e" d="M 422 0 
L 422 3319 
L 928 3319 
L 928 2847 
Q 1294 3394 1984 3394 
Q 2284 3394 2536 3286 
Q 2788 3178 2913 3003 
Q 3038 2828 3088 2588 
Q 3119 2431 3119 2041 
L 3119 0 
L 2556 0 
L 2556 2019 
Q 2556 2363 2490 2533 
Q 2425 2703 2258 2804 
Q 2091 2906 1866 2906 
Q 1506 2906 1245 2678 
Q 984 2450 984 1813 
L 984 0 
L 422 0 
z
" transform="scale(0.015625)"/>
      <path id="ArialMT-74" d="M 1650 503 
L 1731 6 
Q 1494 -44 1306 -44 
Q 1000 -44 831 53 
Q 663 150 594 308 
Q 525 466 525 972 
L 525 2881 
L 113 2881 
L 113 3319 
L 525 3319 
L 525 4141 
L 1084 4478 
L 1084 3319 
L 1650 3319 
L 1650 2881 
L 1084 2881 
L 1084 941 
Q 1084 700 1114 631 
Q 1144 563 1211 522 
Q 1278 481 1403 481 
Q 1497 481 1650 503 
z
" transform="scale(0.015625)"/>
      <path id="ArialMT-65" d="M 2694 1069 
L 3275 997 
Q 3138 488 2766 206 
Q 2394 -75 1816 -75 
Q 1088 -75 661 373 
Q 234 822 234 1631 
Q 234 2469 665 2931 
Q 1097 3394 1784 3394 
Q 2450 3394 2872 2941 
Q 3294 2488 3294 1666 
Q 3294 1616 3291 1516 
L 816 1516 
Q 847 969 1125 678 
Q 1403 388 1819 388 
Q 2128 388 2347 550 
Q 2566 713 2694 1069 
z
M 847 1978 
L 2700 1978 
Q 2663 2397 2488 2606 
Q 2219 2931 1791 2931 
Q 1403 2931 1139 2672 
Q 875 2413 847 1978 
z
" transform="scale(0.015625)"/>
      <path id="ArialMT-70" d="M 422 -1272 
L 422 3319 
L 934 3319 
L 934 2888 
Q 1116 3141 1344 3267 
Q 1572 3394 1897 3394 
Q 2322 3394 2647 3175 
Q 2972 2956 3137 2557 
Q 3303 2159 3303 1684 
Q 3303 1175 3120 767 
Q 2938 359 2589 142 
Q 2241 -75 1856 -75 
Q 1575 -75 1351 44 
Q 1128 163 984 344 
L 984 -1272 
L 422 -1272 
z
M 931 1641 
Q 931 1000 1190 694 
Q 1450 388 1819 388 
Q 2194 388 2461 705 
Q 2728 1022 2728 1688 
Q 2728 2322 2467 2637 
Q 2206 2953 1844 2953 
Q 1484 2953 1207 2617 
Q 931 2281 931 1641 
z
" transform="scale(0.015625)"/>
      <path id="ArialMT-73" d="M 197 991 
L 753 1078 
Q 800 744 1014 566 
Q 1228 388 1613 388 
Q 2000 388 2187 545 
Q 2375 703 2375 916 
Q 2375 1106 2209 1216 
Q 2094 1291 1634 1406 
Q 1016 1563 777 1677 
Q 538 1791 414 1992 
Q 291 2194 291 2438 
Q 291 2659 392 2848 
Q 494 3038 669 3163 
Q 800 3259 1026 3326 
Q 1253 3394 1513 3394 
Q 1903 3394 2198 3281 
Q 2494 3169 2634 2976 
Q 2775 2784 2828 2463 
L 2278 2388 
Q 2241 2644 2061 2787 
Q 1881 2931 1553 2931 
Q 1166 2931 1000 2803 
Q 834 2675 834 2503 
Q 834 2394 903 2306 
Q 972 2216 1119 2156 
Q 1203 2125 1616 2013 
Q 2213 1853 2448 1751 
Q 2684 1650 2818 1456 
Q 2953 1263 2953 975 
Q 2953 694 2789 445 
Q 2625 197 2315 61 
Q 2006 -75 1616 -75 
Q 969 -75 630 194 
Q 291 463 197 991 
z
" transform="scale(0.015625)"/>
      <path id="ArialMT-75" d="M 2597 0 
L 2597 488 
Q 2209 -75 1544 -75 
Q 1250 -75 995 37 
Q 741 150 617 320 
Q 494 491 444 738 
Q 409 903 409 1263 
L 409 3319 
L 972 3319 
L 972 1478 
Q 972 1038 1006 884 
Q 1059 663 1231 536 
Q 1403 409 1656 409 
Q 1909 409 2131 539 
Q 2353 669 2445 892 
Q 2538 1116 2538 1541 
L 2538 3319 
L 3100 3319 
L 3100 0 
L 2597 0 
z
" transform="scale(0.015625)"/>
      <path id="ArialMT-67" d="M 319 -275 
L 866 -356 
Q 900 -609 1056 -725 
Q 1266 -881 1628 -881 
Q 2019 -881 2231 -725 
Q 2444 -569 2519 -288 
Q 2563 -116 2559 434 
Q 2191 0 1641 0 
Q 956 0 581 494 
Q 206 988 206 1678 
Q 206 2153 378 2554 
Q 550 2956 876 3175 
Q 1203 3394 1644 3394 
Q 2231 3394 2613 2919 
L 2613 3319 
L 3131 3319 
L 3131 450 
Q 3131 -325 2973 -648 
Q 2816 -972 2473 -1159 
Q 2131 -1347 1631 -1347 
Q 1038 -1347 672 -1080 
Q 306 -813 319 -275 
z
M 784 1719 
Q 784 1066 1043 766 
Q 1303 466 1694 466 
Q 2081 466 2343 764 
Q 2606 1063 2606 1700 
Q 2606 2309 2336 2618 
Q 2066 2928 1684 2928 
Q 1309 2928 1046 2623 
Q 784 2319 784 1719 
z
" transform="scale(0.015625)"/>
      <path id="ArialMT-20" transform="scale(0.015625)"/>
      <path id="ArialMT-31" d="M 2384 0 
L 1822 0 
L 1822 3584 
Q 1619 3391 1289 3197 
Q 959 3003 697 2906 
L 697 3450 
Q 1169 3672 1522 3987 
Q 1875 4303 2022 4600 
L 2384 4600 
L 2384 0 
z
" transform="scale(0.015625)"/>
      <path id="ArialMT-32" d="M 3222 541 
L 3222 0 
L 194 0 
Q 188 203 259 391 
Q 375 700 629 1000 
Q 884 1300 1366 1694 
Q 2113 2306 2375 2664 
Q 2638 3022 2638 3341 
Q 2638 3675 2398 3904 
Q 2159 4134 1775 4134 
Q 1369 4134 1125 3890 
Q 881 3647 878 3216 
L 300 3275 
Q 359 3922 746 4261 
Q 1134 4600 1788 4600 
Q 2447 4600 2831 4234 
Q 3216 3869 3216 3328 
Q 3216 3053 3103 2787 
Q 2991 2522 2730 2228 
Q 2469 1934 1863 1422 
Q 1356 997 1212 845 
Q 1069 694 975 541 
L 3222 541 
z
" transform="scale(0.015625)"/>
      <path id="ArialMT-6d" d="M 422 0 
L 422 3319 
L 925 3319 
L 925 2853 
Q 1081 3097 1340 3245 
Q 1600 3394 1931 3394 
Q 2300 3394 2536 3241 
Q 2772 3088 2869 2813 
Q 3263 3394 3894 3394 
Q 4388 3394 4653 3120 
Q 4919 2847 4919 2278 
L 4919 0 
L 4359 0 
L 4359 2091 
Q 4359 2428 4304 2576 
Q 4250 2725 4106 2815 
Q 3963 2906 3769 2906 
Q 3419 2906 3187 2673 
Q 2956 2441 2956 1928 
L 2956 0 
L 2394 0 
L 2394 2156 
Q 2394 2531 2256 2718 
Q 2119 2906 1806 2906 
Q 1569 2906 1367 2781 
Q 1166 2656 1075 2415 
Q 984 2175 984 1722 
L 984 0 
L 422 0 
z
" transform="scale(0.015625)"/>
      <path id="ArialMT-2014" d="M 0 1431 
L 0 1884 
L 6400 1884 
L 6400 1431 
L 0 1431 
z
" transform="scale(0.015625)"/>
      <path id="ArialMT-48" d="M 513 0 
L 513 4581 
L 1119 4581 
L 1119 2700 
L 3500 2700 
L 3500 4581 
L 4106 4581 
L 4106 0 
L 3500 0 
L 3500 2159 
L 1119 2159 
L 1119 0 
L 513 0 
z
" transform="scale(0.015625)"/>
      <path id="ArialMT-f6" d="M 213 1659 
Q 213 2581 725 3025 
Q 1153 3394 1769 3394 
Q 2453 3394 2887 2945 
Q 3322 2497 3322 1706 
Q 3322 1066 3130 698 
Q 2938 331 2570 128 
Q 2203 -75 1769 -75 
Q 1072 -75 642 372 
Q 213 819 213 1659 
z
M 791 1659 
Q 791 1022 1069 705 
Q 1347 388 1769 388 
Q 2188 388 2466 706 
Q 2744 1025 2744 1678 
Q 2744 2294 2464 2611 
Q 2184 2928 1769 2928 
Q 1347 2928 1069 2612 
Q 791 2297 791 1659 
z
M 895 3969 
L 895 4609 
L 1482 4609 
L 1482 3969 
L 895 3969 
z
M 2060 3969 
L 2060 4609 
L 2648 4609 
L 2648 3969 
L 2060 3969 
z
" transform="scale(0.015625)"/>
      <path id="ArialMT-68" d="M 422 0 
L 422 4581 
L 984 4581 
L 984 2938 
Q 1378 3394 1978 3394 
Q 2347 3394 2619 3248 
Q 2891 3103 3008 2847 
Q 3125 2591 3125 2103 
L 3125 0 
L 2563 0 
L 2563 2103 
Q 2563 2525 2380 2717 
Q 2197 2909 1863 2909 
Q 1613 2909 1392 2779 
Q 1172 2650 1078 2428 
Q 984 2206 984 1816 
L 984 0 
L 422 0 
z
" transform="scale(0.015625)"/>
      <path id="ArialMT-3d" d="M 3381 2694 
L 356 2694 
L 356 3219 
L 3381 3219 
L 3381 2694 
z
M 3381 1303 
L 356 1303 
L 356 1828 
L 3381 1828 
L 3381 1303 
z
" transform="scale(0.015625)"/>
      <path id="ArialMT-30" d="M 266 2259 
Q 266 3072 433 3567 
Q 600 4063 929 4331 
Q 1259 4600 1759 4600 
Q 2128 4600 2406 4451 
Q 2684 4303 2865 4023 
Q 3047 3744 3150 3342 
Q 3253 2941 3253 2259 
Q 3253 1453 3087 958 
Q 2922 463 2592 192 
Q 2263 -78 1759 -78 
Q 1097 -78 719 397 
Q 266 969 266 2259 
z
M 844 2259 
Q 844 1131 1108 757 
Q 1372 384 1759 384 
Q 2147 384 2411 759 
Q 2675 1134 2675 2259 
Q 2675 3391 2411 3762 
Q 2147 4134 1753 4134 
Q 1366 4134 1134 3806 
Q 844 3388 844 2259 
z
" transform="scale(0.015625)"/>
      <path id="ArialMT-2e" d="M 581 0 
L 581 641 
L 1222 641 
L 1222 0 
L 581 0 
z
" transform="scale(0.015625)"/>
      <path id="ArialMT-37" d="M 303 3981 
L 303 4522 
L 3269 4522 
L 3269 4084 
Q 2831 3619 2401 2847 
Q 1972 2075 1738 1259 
Q 1569 684 1522 0 
L 944 0 
Q 953 541 1156 1306 
Q 1359 2072 1739 2783 
Q 2119 3494 2547 3981 
L 303 3981 
z
" transform="scale(0.015625)"/>
      <path id="ArialMT-33" d="M 269 1209 
L 831 1284 
Q 928 806 1161 595 
Q 1394 384 1728 384 
Q 2125 384 2398 659 
Q 2672 934 2672 1341 
Q 2672 1728 2419 1979 
Q 2166 2231 1775 2231 
Q 1616 2231 1378 2169 
L 1441 2663 
Q 1497 2656 1531 2656 
Q 1891 2656 2178 2843 
Q 2466 3031 2466 3422 
Q 2466 3731 2256 3934 
Q 2047 4138 1716 4138 
Q 1388 4138 1169 3931 
Q 950 3725 888 3313 
L 325 3413 
Q 428 3978 793 4289 
Q 1159 4600 1703 4600 
Q 2078 4600 2393 4439 
Q 2709 4278 2876 4000 
Q 3044 3722 3044 3409 
Q 3044 3113 2884 2869 
Q 2725 2625 2413 2481 
Q 2819 2388 3044 2092 
Q 3269 1797 3269 1353 
Q 3269 753 2831 336 
Q 2394 -81 1725 -81 
Q 1122 -81 723 278 
Q 325 638 269 1209 
z
" transform="scale(0.015625)"/>
      <path id="ArialMT-b1" d="M 1491 813 
L 1491 2072 
L 244 2072 
L 244 2594 
L 1491 2594 
L 1491 3841 
L 2022 3841 
L 2022 2594 
L 3269 2594 
L 3269 2072 
L 2022 2072 
L 2022 813 
L 1491 813 
z
M 3269 0 
L 244 0 
L 244 525 
L 3269 525 
L 3269 0 
z
" transform="scale(0.015625)"/>
     </defs>
     <use xlink:href="#ArialMT-4b"/>
     <use xlink:href="#ArialMT-61" x="66.699219"/>
     <use xlink:href="#ArialMT-6e" x="122.314453"/>
     <use xlink:href="#ArialMT-74" x="177.929688"/>
     <use xlink:href="#ArialMT-65" x="205.712891"/>
     <use xlink:href="#ArialMT-6e" x="261.328125"/>
     <use xlink:href="#ArialMT-61" x="316.943359"/>
     <use xlink:href="#ArialMT-6e" x="372.558594"/>
     <use xlink:href="#ArialMT-70" x="428.173828"/>
     <use xlink:href="#ArialMT-61" x="483.789062"/>
     <use xlink:href="#ArialMT-73" x="539.404297"/>
     <use xlink:href="#ArialMT-73" x="589.404297"/>
     <use xlink:href="#ArialMT-75" x="639.404297"/>
     <use xlink:href="#ArialMT-6e" x="695.019531"/>
     <use xlink:href="#ArialMT-67" x="750.634766"/>
     <use xlink:href="#ArialMT-20" x="806.25"/>
     <use xlink:href="#ArialMT-31" x="834.033203"/>
     <use xlink:href="#ArialMT-32" x="889.648438"/>
     <use xlink:href="#ArialMT-20" x="945.263672"/>
     <use xlink:href="#ArialMT-6e" x="973.046875"/>
     <use xlink:href="#ArialMT-6d" x="1028.662109"/>
     <use xlink:href="#ArialMT-20" x="1111.962891"/>
     <use xlink:href="#ArialMT-2014" x="1139.746094"/>
     <use xlink:href="#ArialMT-20" x="1239.746094"/>
     <use xlink:href="#ArialMT-48" x="1267.529297"/>
     <use xlink:href="#ArialMT-f6" x="1339.746094"/>
     <use xlink:href="#ArialMT-68" x="1395.361328"/>
     <use xlink:href="#ArialMT-65" x="1450.976562"/>
     <use xlink:href="#ArialMT-20" x="1506.591797"/>
     <use xlink:href="#ArialMT-3d" x="1534.375"/>
     <use xlink:href="#ArialMT-20" x="1592.773438"/>
     <use xlink:href="#ArialMT-30" x="1620.556641"/>
     <use xlink:href="#ArialMT-2e" x="1676.171875"/>
     <use xlink:href="#ArialMT-37" x="1703.955078"/>
     <use xlink:href="#ArialMT-33" x="1759.570312"/>
     <use xlink:href="#ArialMT-20" x="1815.185547"/>
     <use xlink:href="#ArialMT-b1" x="1842.96875"/>
     <use xlink:href="#ArialMT-20" x="1897.851562"/>
     <use xlink:href="#ArialMT-30" x="1925.634766"/>
     <use xlink:href="#ArialMT-2e" x="1981.25"/>
     <use xlink:href="#ArialMT-30" x="2009.033203"/>
     <use xlink:href="#ArialMT-33" x="2064.648438"/>
     <use xlink:href="#ArialMT-20" x="2120.263672"/>
     <use xlink:href="#ArialMT-6e" x="2148.046875"/>
     <use xlink:href="#ArialMT-6d" x="2203.662109"/>
    </g>
   </g>
   <g id="legend_1">
    <g id="patch_7">
     <path d="M 477.81 211.02 
L 696 211.02 
Q 700.8 211.02 700.8 206.22 
L 700.8 72.96 
Q 700.8 68.16 696 68.16 
L 477.81 68.16 
Q 473.01 68.16 473.01 72.96 
L 473.01 206.22 
Q 473.01 211.02 477.81 211.02 
z
" style="fill: #ffffff; opacity: 0.8; stroke: #cccccc; stroke-linejoin: miter"/>
    </g>
    <g id="line2d_28">
     <path d="M 482.61 86.53875 
L 506.61 86.53875 
L 530.61 86.53875 
" style="fill: none; stroke-dasharray: 7.4,3.2; stroke-dashoffset: 0; stroke: #1f77b4; stroke-width: 2"/>
     <g>
      <use xlink:href="#m834b36b31d" x="506.61" y="86.53875" style="fill: #1f77b4; stroke: #1f77b4"/>
     </g>
    </g>
    <g id="text_18">
     <!-- 12nm -->
     <g transform="translate(549.81 94.93875) scale(0.24 -0.24)">
      <defs>
       <path id="Arial-BoldMT-6e" d="M 3478 0 
L 2600 0 
L 2600 1694 
Q 2600 2231 2544 2389 
Q 2488 2547 2361 2634 
Q 2234 2722 2056 2722 
Q 1828 2722 1647 2597 
Q 1466 2472 1398 2265 
Q 1331 2059 1331 1503 
L 1331 0 
L 453 0 
L 453 3319 
L 1269 3319 
L 1269 2831 
Q 1703 3394 2363 3394 
Q 2653 3394 2893 3289 
Q 3134 3184 3257 3021 
Q 3381 2859 3429 2653 
Q 3478 2447 3478 2063 
L 3478 0 
z
" transform="scale(0.015625)"/>
      </defs>
      <use xlink:href="#Arial-BoldMT-31"/>
      <use xlink:href="#Arial-BoldMT-32" x="55.615234"/>
      <use xlink:href="#Arial-BoldMT-6e" x="111.230469"/>
      <use xlink:href="#Arial-BoldMT-6d" x="172.314453"/>
     </g>
    </g>
    <g id="line2d_29">
     <path d="M 482.61 120.45375 
L 506.61 120.45375 
L 530.61 120.45375 
" style="fill: none; stroke: #ff7f0e; stroke-width: 2; stroke-linecap: square"/>
    </g>
    <g id="text_19">
     <!-- 12nm links -->
     <g transform="translate(549.81 128.85375) scale(0.24 -0.24)">
      <defs>
       <path id="Arial-BoldMT-6c" d="M 459 0 
L 459 4581 
L 1338 4581 
L 1338 0 
L 459 0 
z
" transform="scale(0.015625)"/>
       <path id="Arial-BoldMT-69" d="M 459 3769 
L 459 4581 
L 1338 4581 
L 1338 3769 
L 459 3769 
z
M 459 0 
L 459 3319 
L 1338 3319 
L 1338 0 
L 459 0 
z
" transform="scale(0.015625)"/>
       <path id="Arial-BoldMT-6b" d="M 428 0 
L 428 4581 
L 1306 4581 
L 1306 2150 
L 2334 3319 
L 3416 3319 
L 2281 2106 
L 3497 0 
L 2550 0 
L 1716 1491 
L 1306 1063 
L 1306 0 
L 428 0 
z
" transform="scale(0.015625)"/>
       <path id="Arial-BoldMT-73" d="M 150 947 
L 1031 1081 
Q 1088 825 1259 692 
Q 1431 559 1741 559 
Q 2081 559 2253 684 
Q 2369 772 2369 919 
Q 2369 1019 2306 1084 
Q 2241 1147 2013 1200 
Q 950 1434 666 1628 
Q 272 1897 272 2375 
Q 272 2806 612 3100 
Q 953 3394 1669 3394 
Q 2350 3394 2681 3172 
Q 3013 2950 3138 2516 
L 2309 2363 
Q 2256 2556 2107 2659 
Q 1959 2763 1684 2763 
Q 1338 2763 1188 2666 
Q 1088 2597 1088 2488 
Q 1088 2394 1175 2328 
Q 1294 2241 1995 2081 
Q 2697 1922 2975 1691 
Q 3250 1456 3250 1038 
Q 3250 581 2869 253 
Q 2488 -75 1741 -75 
Q 1063 -75 667 200 
Q 272 475 150 947 
z
" transform="scale(0.015625)"/>
      </defs>
      <use xlink:href="#Arial-BoldMT-31"/>
      <use xlink:href="#Arial-BoldMT-32" x="55.615234"/>
      <use xlink:href="#Arial-BoldMT-6e" x="111.230469"/>
      <use xlink:href="#Arial-BoldMT-6d" x="172.314453"/>
      <use xlink:href="#Arial-BoldMT-20" x="261.230469"/>
      <use xlink:href="#Arial-BoldMT-6c" x="289.013672"/>
      <use xlink:href="#Arial-BoldMT-69" x="316.796875"/>
      <use xlink:href="#Arial-BoldMT-6e" x="344.580078"/>
      <use xlink:href="#Arial-BoldMT-6b" x="405.664062"/>
      <use xlink:href="#Arial-BoldMT-73" x="461.279297"/>
     </g>
    </g>
    <g id="line2d_30">
     <path d="M 482.61 154.36875 
L 506.61 154.36875 
L 530.61 154.36875 
" style="fill: none; stroke: #2ca02c; stroke-width: 2; stroke-linecap: square"/>
    </g>
    <g id="text_20">
     <!-- 12nm rechts -->
     <g transform="translate(549.81 162.76875) scale(0.24 -0.24)">
      <defs>
       <path id="Arial-BoldMT-72" d="M 1300 0 
L 422 0 
L 422 3319 
L 1238 3319 
L 1238 2847 
Q 1447 3181 1614 3287 
Q 1781 3394 1994 3394 
Q 2294 3394 2572 3228 
L 2300 2463 
Q 2078 2606 1888 2606 
Q 1703 2606 1575 2504 
Q 1447 2403 1373 2137 
Q 1300 1872 1300 1025 
L 1300 0 
z
" transform="scale(0.015625)"/>
       <path id="Arial-BoldMT-63" d="M 3353 2338 
L 2488 2181 
Q 2444 2441 2289 2572 
Q 2134 2703 1888 2703 
Q 1559 2703 1364 2476 
Q 1169 2250 1169 1719 
Q 1169 1128 1367 884 
Q 1566 641 1900 641 
Q 2150 641 2309 783 
Q 2469 925 2534 1272 
L 3397 1125 
Q 3263 531 2881 228 
Q 2500 -75 1859 -75 
Q 1131 -75 698 384 
Q 266 844 266 1656 
Q 266 2478 700 2936 
Q 1134 3394 1875 3394 
Q 2481 3394 2839 3133 
Q 3197 2872 3353 2338 
z
" transform="scale(0.015625)"/>
       <path id="Arial-BoldMT-68" d="M 1334 4581 
L 1334 2897 
Q 1759 3394 2350 3394 
Q 2653 3394 2897 3281 
Q 3141 3169 3264 2994 
Q 3388 2819 3433 2606 
Q 3478 2394 3478 1947 
L 3478 0 
L 2600 0 
L 2600 1753 
Q 2600 2275 2550 2415 
Q 2500 2556 2373 2639 
Q 2247 2722 2056 2722 
Q 1838 2722 1666 2615 
Q 1494 2509 1414 2295 
Q 1334 2081 1334 1663 
L 1334 0 
L 456 0 
L 456 4581 
L 1334 4581 
z
" transform="scale(0.015625)"/>
       <path id="Arial-BoldMT-74" d="M 1981 3319 
L 1981 2619 
L 1381 2619 
L 1381 1281 
Q 1381 875 1398 808 
Q 1416 741 1477 697 
Q 1538 653 1625 653 
Q 1747 653 1978 738 
L 2053 56 
Q 1747 -75 1359 -75 
Q 1122 -75 931 4 
Q 741 84 652 211 
Q 563 338 528 553 
Q 500 706 500 1172 
L 500 2619 
L 97 2619 
L 97 3319 
L 500 3319 
L 500 3978 
L 1381 4491 
L 1381 3319 
L 1981 3319 
z
" transform="scale(0.015625)"/>
      </defs>
      <use xlink:href="#Arial-BoldMT-31"/>
      <use xlink:href="#Arial-BoldMT-32" x="55.615234"/>
      <use xlink:href="#Arial-BoldMT-6e" x="111.230469"/>
      <use xlink:href="#Arial-BoldMT-6d" x="172.314453"/>
      <use xlink:href="#Arial-BoldMT-20" x="261.230469"/>
      <use xlink:href="#Arial-BoldMT-72" x="289.013672"/>
      <use xlink:href="#Arial-BoldMT-65" x="327.929688"/>
      <use xlink:href="#Arial-BoldMT-63" x="383.544922"/>
      <use xlink:href="#Arial-BoldMT-68" x="439.160156"/>
      <use xlink:href="#Arial-BoldMT-74" x="500.244141"/>
      <use xlink:href="#Arial-BoldMT-73" x="533.544922"/>
     </g>
    </g>
    <g id="line2d_31">
     <path d="M 482.61 188.28375 
L 530.61 188.28375 
" style="fill: none; stroke-dasharray: 7.4,3.2; stroke-dashoffset: 0; stroke: #808080; stroke-width: 2"/>
    </g>
    <g id="text_21">
     <!-- Kantenlinie -->
     <g transform="translate(549.81 196.68375) scale(0.24 -0.24)">
      <defs>
       <path id="Arial-BoldMT-4b" d="M 478 0 
L 478 4581 
L 1403 4581 
L 1403 2547 
L 3272 4581 
L 4516 4581 
L 2791 2797 
L 4609 0 
L 3413 0 
L 2153 2150 
L 1403 1384 
L 1403 0 
L 478 0 
z
" transform="scale(0.015625)"/>
       <path id="Arial-BoldMT-61" d="M 1116 2306 
L 319 2450 
Q 453 2931 781 3162 
Q 1109 3394 1756 3394 
Q 2344 3394 2631 3255 
Q 2919 3116 3036 2902 
Q 3153 2688 3153 2116 
L 3144 1091 
Q 3144 653 3186 445 
Q 3228 238 3344 0 
L 2475 0 
Q 2441 88 2391 259 
Q 2369 338 2359 363 
Q 2134 144 1878 34 
Q 1622 -75 1331 -75 
Q 819 -75 523 203 
Q 228 481 228 906 
Q 228 1188 362 1408 
Q 497 1628 739 1745 
Q 981 1863 1438 1950 
Q 2053 2066 2291 2166 
L 2291 2253 
Q 2291 2506 2166 2614 
Q 2041 2722 1694 2722 
Q 1459 2722 1328 2630 
Q 1197 2538 1116 2306 
z
M 2291 1594 
Q 2122 1538 1756 1459 
Q 1391 1381 1278 1306 
Q 1106 1184 1106 997 
Q 1106 813 1243 678 
Q 1381 544 1594 544 
Q 1831 544 2047 700 
Q 2206 819 2256 991 
Q 2291 1103 2291 1419 
L 2291 1594 
z
" transform="scale(0.015625)"/>
      </defs>
      <use xlink:href="#Arial-BoldMT-4b"/>
      <use xlink:href="#Arial-BoldMT-61" x="72.216797"/>
      <use xlink:href="#Arial-BoldMT-6e" x="127.832031"/>
      <use xlink:href="#Arial-BoldMT-74" x="188.916016"/>
      <use xlink:href="#Arial-BoldMT-65" x="222.216797"/>
      <use xlink:href="#Arial-BoldMT-6e" x="277.832031"/>
      <use xlink:href="#Arial-BoldMT-6c" x="338.916016"/>
      <use xlink:href="#Arial-BoldMT-69" x="366.699219"/>
      <use xlink:href="#Arial-BoldMT-6e" x="394.482422"/>
      <use xlink:href="#Arial-BoldMT-69" x="455.566406"/>
      <use xlink:href="#Arial-BoldMT-65" x="483.349609"/>
     </g>
    </g>
   </g>
  </g>
 </g>
 <defs>
  <clipPath id="p7c6ace7794">
   <rect x="99" y="56.16" width="613.8" height="360.36"/>
  </clipPath>
 </defs>
</svg>
