<?xml version="1.0" encoding="utf-8" standalone="no"?>
<!DOCTYPE svg PUBLIC "-//W3C//DTD SVG 1.1//EN"
  "http://www.w3.org/Graphics/SVG/1.1/DTD/svg11.dtd">
<svg xmlns:xlink="http://www.w3.org/1999/xlink" width="576pt" height="432pt" viewBox="0 0 576 432" xmlns="http://www.w3.org/2000/svg" version="1.1">
 <metadata>
  <rdf:RDF xmlns:dc="http://purl.org/dc/elements/1.1/" xmlns:cc="http://creativecommons.org/ns#" xmlns:rdf="http://www.w3.org/1999/02/22-rdf-syntax-ns#">
   <cc:Work>
    <dc:type rdf:resource="http://purl.org/dc/dcmitype/StillImage"/>
    <dc:date>2026-03-21T10:42:29.823242</dc:date>
    <dc:format>image/svg+xml</dc:format>
    <dc:creator>
     <cc:Agent>
      <dc:title>Matplotlib v3.10.6, https://matplotlib.org/</dc:title>
     </cc:Agent>
    </dc:creator>
   </cc:Work>
  </rdf:RDF>
 </metadata>
 <defs>
  <style type="text/css">*{stroke-linejoin: round; stroke-linecap: butt}</style>
 </defs>
 <g id="figure_1">
  <g id="patch_1">
   <path d="M 0 432 
L 576 432 
L 576 0 
L 0 0 
z
" style="fill: #ffffff"/>
  </g>
  <g id="axes_1">
   <g id="patch_2">
    <path d="M 72 295.235122 
L 518.4 295.235122 
L 518.4 51.84 
L 72 51.84 
z
" style="fill: #ffffff"/>
   </g>
   <g id="matplotlib.axis_1">
    <g id="xtick_1">
     <g id="line2d_1">
      <path d="M 123.421226 295.235122 
L 123.421226 51.84 
" clip-path="url(#p7a82282987)" style="fill: none; stroke-dasharray: 1.85,0.8; stroke-dashoffset: 0; stroke: #b0b0b0; stroke-width: 0.5"/>
     </g>
     <g id="line2d_2">
      <defs>
       <path id="mdeb115599a" d="M 0 0 
L 0 3.5 
" style="stroke: #000000; stroke-width: 0.8"/>
      </defs>
      <g>
       <use xlink:href="#mdeb115599a" x="123.421226" y="295.235122" style="stroke: #000000; stroke-width: 0.8"/>
      </g>
     </g>
    </g>
    <g id="xtick_2">
     <g id="line2d_3">
      <path d="M 185.869203 295.235122 
L 185.869203 51.84 
" clip-path="url(#p7a82282987)" style="fill: none; stroke-dasharray: 1.85,0.8; stroke-dashoffset: 0; stroke: #b0b0b0; stroke-width: 0.5"/>
     </g>
     <g id="line2d_4">
      <g>
       <use xlink:href="#mdeb115599a" x="185.869203" y="295.235122" style="stroke: #000000; stroke-width: 0.8"/>
      </g>
     </g>
    </g>
    <g id="xtick_3">
     <g id="line2d_5">
      <path d="M 248.317181 295.235122 
L 248.317181 51.84 
" clip-path="url(#p7a82282987)" style="fill: none; stroke-dasharray: 1.85,0.8; stroke-dashoffset: 0; stroke: #b0b0b0; stroke-width: 0.5"/>
     </g>
     <g id="line2d_6">
      <g>
       <use xlink:href="#mdeb115599a" x="248.317181" y="295.235122" style="stroke: #000000; stroke-width: 0.8"/>
      </g>
     </g>
    </g>
    <g id="xtick_4">
     <g id="line2d_7">
      <path d="M 310.765158 295.235122 
L 310.765158 51.84 
" clip-path="url(#p7a82282987)" style="fill: none; stroke-dasharray: 1.85,0.8; stroke-dashoffset: 0; stroke: #b0b0b0; stroke-width: 0.5"/>
     </g>
     <g id="line2d_8">
      <g>
       <use xlink:href="#mdeb115599a" x="310.765158" y="295.235122" style="stroke: #000000; stroke-width: 0.8"/>
      </g>
     </g>
    </g>
    <g id="xtick_5">
     <g id="line2d_9">
      <path d="M 373.213136 295.235122 
L 373.213136 51.84 
" clip-path="url(#p7a82282987)" style="fill: none; stroke-dasharray: 1.85,0.8; stroke-dashoffset: 0; stroke: #b0b0b0; stroke-width: 0.5"/>
     </g>
     <g id="line2d_10">
      <g>
       <use xlink:href="#mdeb115599a" x="373.213136" y="295.235122" style="stroke: #000000; stroke-width: 0.8"/>
      </g>
     </g>
    </g>
    <g id="xtick_6">
     <g id="line2d_11">
      <path d="M 435.661113 295.235122 
L 435.661113 51.84 
" clip-path="url(#p7a82282987)" style="fill: none; stroke-dasharray: 1.85,0.8; stroke-dashoffset: 0; stroke: #b0b0b0; stroke-width: 0.5"/>
     </g>
     <g id="line2d_12">
      <g>
       <use xlink:href="#mdeb115599a" x="435.661113" y="295.235122" style="stroke: #000000; stroke-width: 0.8"/>
      </g>
     </g>
    </g>
    <g id="xtick_7">
     <g id="line2d_13">
      <path d="M 498.109091 295.235122 
L 498.109091 51.84 
" clip-path="url(#p7a82282987)" style="fill: none; stroke-dasharray: 1.85,0.8; stroke-dashoffset: 0; stroke: #b0b0b0; stroke-width: 0.5"/>
     </g>
     <g id="line2d_14">
      <g>
       <use xlink:href="#mdeb115599a" x="498.109091" y="295.235122" style="stroke: #000000; stroke-width: 0.8"/>
      </g>
     </g>
    </g>
   </g>
   <g id="matplotlib.axis_2">
    <g id="ytick_1">
     <g id="line2d_15">
      <path d="M 72 282.580844 
L 518.4 282.580844 
" clip-path="url(#p7a82282987)" style="fill: none; stroke-dasharray: 1.85,0.8; stroke-dashoffset: 0; stroke: #b0b0b0; stroke-width: 0.5"/>
     </g>
     <g id="line2d_16">
      <defs>
       <path id="mc5563fd2e1" d="M 0 0 
L -3.5 0 
" style="stroke: #000000; stroke-width: 0.8"/>
      </defs>
      <g>
       <use xlink:href="#mc5563fd2e1" x="72" y="282.580844" style="stroke: #000000; stroke-width: 0.8"/>
      </g>
     </g>
     <g id="text_1">
      <!-- 1000 -->
      <g transform="translate(39.55 286.380063) scale(0.1 -0.1)">
       <defs>
        <path id="DejaVuSans-31" d="M 794 531 
L 1825 531 
L 1825 4091 
L 703 3866 
L 703 4441 
L 1819 4666 
L 2450 4666 
L 2450 531 
L 3481 531 
L 3481 0 
L 794 0 
L 794 531 
z
" transform="scale(0.015625)"/>
        <path id="DejaVuSans-30" d="M 2034 4250 
Q 1547 4250 1301 3770 
Q 1056 3291 1056 2328 
Q 1056 1369 1301 889 
Q 1547 409 2034 409 
Q 2525 409 2770 889 
Q 3016 1369 3016 2328 
Q 3016 3291 2770 3770 
Q 2525 4250 2034 4250 
z
M 2034 4750 
Q 2819 4750 3233 4129 
Q 3647 3509 3647 2328 
Q 3647 1150 3233 529 
Q 2819 -91 2034 -91 
Q 1250 -91 836 529 
Q 422 1150 422 2328 
Q 422 3509 836 4129 
Q 1250 4750 2034 4750 
z
" transform="scale(0.015625)"/>
       </defs>
       <use xlink:href="#DejaVuSans-31"/>
       <use xlink:href="#DejaVuSans-30" transform="translate(63.623047 0)"/>
       <use xlink:href="#DejaVuSans-30" transform="translate(127.246094 0)"/>
       <use xlink:href="#DejaVuSans-30" transform="translate(190.869141 0)"/>
      </g>
     </g>
    </g>
    <g id="ytick_2">
     <g id="line2d_17">
      <path d="M 72 250.763584 
L 518.4 250.763584 
" clip-path="url(#p7a82282987)" style="fill: none; stroke-dasharray: 1.85,0.8; stroke-dashoffset: 0; stroke: #b0b0b0; stroke-width: 0.5"/>
     </g>
     <g id="line2d_18">
      <g>
       <use xlink:href="#mc5563fd2e1" x="72" y="250.763584" style="stroke: #000000; stroke-width: 0.8"/>
      </g>
     </g>
     <g id="text_2">
      <!-- 2000 -->
      <g transform="translate(39.55 254.562803) scale(0.1 -0.1)">
       <defs>
        <path id="DejaVuSans-32" d="M 1228 531 
L 3431 531 
L 3431 0 
L 469 0 
L 469 531 
Q 828 903 1448 1529 
Q 2069 2156 2228 2338 
Q 2531 2678 2651 2914 
Q 2772 3150 2772 3378 
Q 2772 3750 2511 3984 
Q 2250 4219 1831 4219 
Q 1534 4219 1204 4116 
Q 875 4013 500 3803 
L 500 4441 
Q 881 4594 1212 4672 
Q 1544 4750 1819 4750 
Q 2544 4750 2975 4387 
Q 3406 4025 3406 3419 
Q 3406 3131 3298 2873 
Q 3191 2616 2906 2266 
Q 2828 2175 2409 1742 
Q 1991 1309 1228 531 
z
" transform="scale(0.015625)"/>
       </defs>
       <use xlink:href="#DejaVuSans-32"/>
       <use xlink:href="#DejaVuSans-30" transform="translate(63.623047 0)"/>
       <use xlink:href="#DejaVuSans-30" transform="translate(127.246094 0)"/>
       <use xlink:href="#DejaVuSans-30" transform="translate(190.869141 0)"/>
      </g>
     </g>
    </g>
    <g id="ytick_3">
     <g id="line2d_19">
      <path d="M 72 218.946324 
L 518.4 218.946324 
" clip-path="url(#p7a82282987)" style="fill: none; stroke-dasharray: 1.85,0.8; stroke-dashoffset: 0; stroke: #b0b0b0; stroke-width: 0.5"/>
     </g>
     <g id="line2d_20">
      <g>
       <use xlink:href="#mc5563fd2e1" x="72" y="218.946324" style="stroke: #000000; stroke-width: 0.8"/>
      </g>
     </g>
     <g id="text_3">
      <!-- 3000 -->
      <g transform="translate(39.55 222.745543) scale(0.1 -0.1)">
       <defs>
        <path id="DejaVuSans-33" d="M 2597 2516 
Q 3050 2419 3304 2112 
Q 3559 1806 3559 1356 
Q 3559 666 3084 287 
Q 2609 -91 1734 -91 
Q 1441 -91 1130 -33 
Q 819 25 488 141 
L 488 750 
Q 750 597 1062 519 
Q 1375 441 1716 441 
Q 2309 441 2620 675 
Q 2931 909 2931 1356 
Q 2931 1769 2642 2001 
Q 2353 2234 1838 2234 
L 1294 2234 
L 1294 2753 
L 1863 2753 
Q 2328 2753 2575 2939 
Q 2822 3125 2822 3475 
Q 2822 3834 2567 4026 
Q 2313 4219 1838 4219 
Q 1578 4219 1281 4162 
Q 984 4106 628 3988 
L 628 4550 
Q 988 4650 1302 4700 
Q 1616 4750 1894 4750 
Q 2613 4750 3031 4423 
Q 3450 4097 3450 3541 
Q 3450 3153 3228 2886 
Q 3006 2619 2597 2516 
z
" transform="scale(0.015625)"/>
       </defs>
       <use xlink:href="#DejaVuSans-33"/>
       <use xlink:href="#DejaVuSans-30" transform="translate(63.623047 0)"/>
       <use xlink:href="#DejaVuSans-30" transform="translate(127.246094 0)"/>
       <use xlink:href="#DejaVuSans-30" transform="translate(190.869141 0)"/>
      </g>
     </g>
    </g>
    <g id="ytick_4">
     <g id="line2d_21">
      <path d="M 72 187.129064 
L 518.4 187.129064 
" clip-path="url(#p7a82282987)" style="fill: none; stroke-dasharray: 1.85,0.8; stroke-dashoffset: 0; stroke: #b0b0b0; stroke-width: 0.5"/>
     </g>
     <g id="line2d_22">
      <g>
       <use xlink:href="#mc5563fd2e1" x="72" y="187.129064" style="stroke: #000000; stroke-width: 0.8"/>
      </g>
     </g>
     <g id="text_4">
      <!-- 4000 -->
      <g transform="translate(39.55 190.928282) scale(0.1 -0.1)">
       <defs>
        <path id="DejaVuSans-34" d="M 2419 4116 
L 825 1625 
L 2419 1625 
L 2419 4116 
z
M 2253 4666 
L 3047 4666 
L 3047 1625 
L 3713 1625 
L 3713 1100 
L 3047 1100 
L 3047 0 
L 2419 0 
L 2419 1100 
L 313 1100 
L 313 1709 
L 2253 4666 
z
" transform="scale(0.015625)"/>
       </defs>
       <use xlink:href="#DejaVuSans-34"/>
       <use xlink:href="#DejaVuSans-30" transform="translate(63.623047 0)"/>
       <use xlink:href="#DejaVuSans-30" transform="translate(127.246094 0)"/>
       <use xlink:href="#DejaVuSans-30" transform="translate(190.869141 0)"/>
      </g>
     </g>
    </g>
    <g id="ytick_5">
     <g id="line2d_23">
      <path d="M 72 155.311804 
L 518.4 155.311804 
" clip-path="url(#p7a82282987)" style="fill: none; stroke-dasharray: 1.85,0.8; stroke-dashoffset: 0; stroke: #b0b0b0; stroke-width: 0.5"/>
     </g>
     <g id="line2d_24">
      <g>
       <use xlink:href="#mc5563fd2e1" x="72" y="155.311804" style="stroke: #000000; stroke-width: 0.8"/>
      </g>
     </g>
     <g id="text_5">
      <!-- 5000 -->
      <g transform="translate(39.55 159.111022) scale(0.1 -0.1)">
       <defs>
        <path id="DejaVuSans-35" d="M 691 4666 
L 3169 4666 
L 3169 4134 
L 1269 4134 
L 1269 2991 
Q 1406 3038 1543 3061 
Q 1681 3084 1819 3084 
Q 2600 3084 3056 2656 
Q 3513 2228 3513 1497 
Q 3513 744 3044 326 
Q 2575 -91 1722 -91 
Q 1428 -91 1123 -41 
Q 819 9 494 109 
L 494 744 
Q 775 591 1075 516 
Q 1375 441 1709 441 
Q 2250 441 2565 725 
Q 2881 1009 2881 1497 
Q 2881 1984 2565 2268 
Q 2250 2553 1709 2553 
Q 1456 2553 1204 2497 
Q 953 2441 691 2322 
L 691 4666 
z
" transform="scale(0.015625)"/>
       </defs>
       <use xlink:href="#DejaVuSans-35"/>
       <use xlink:href="#DejaVuSans-30" transform="translate(63.623047 0)"/>
       <use xlink:href="#DejaVuSans-30" transform="translate(127.246094 0)"/>
       <use xlink:href="#DejaVuSans-30" transform="translate(190.869141 0)"/>
      </g>
     </g>
    </g>
    <g id="ytick_6">
     <g id="line2d_25">
      <path d="M 72 123.494543 
L 518.4 123.494543 
" clip-path="url(#p7a82282987)" style="fill: none; stroke-dasharray: 1.85,0.8; stroke-dashoffset: 0; stroke: #b0b0b0; stroke-width: 0.5"/>
     </g>
     <g id="line2d_26">
      <g>
       <use xlink:href="#mc5563fd2e1" x="72" y="123.494543" style="stroke: #000000; stroke-width: 0.8"/>
      </g>
     </g>
     <g id="text_6">
      <!-- 6000 -->
      <g transform="translate(39.55 127.293762) scale(0.1 -0.1)">
       <defs>
        <path id="DejaVuSans-36" d="M 2113 2584 
Q 1688 2584 1439 2293 
Q 1191 2003 1191 1497 
Q 1191 994 1439 701 
Q 1688 409 2113 409 
Q 2538 409 2786 701 
Q 3034 994 3034 1497 
Q 3034 2003 2786 2293 
Q 2538 2584 2113 2584 
z
M 3366 4563 
L 3366 3988 
Q 3128 4100 2886 4159 
Q 2644 4219 2406 4219 
Q 1781 4219 1451 3797 
Q 1122 3375 1075 2522 
Q 1259 2794 1537 2939 
Q 1816 3084 2150 3084 
Q 2853 3084 3261 2657 
Q 3669 2231 3669 1497 
Q 3669 778 3244 343 
Q 2819 -91 2113 -91 
Q 1303 -91 875 529 
Q 447 1150 447 2328 
Q 447 3434 972 4092 
Q 1497 4750 2381 4750 
Q 2619 4750 2861 4703 
Q 3103 4656 3366 4563 
z
" transform="scale(0.015625)"/>
       </defs>
       <use xlink:href="#DejaVuSans-36"/>
       <use xlink:href="#DejaVuSans-30" transform="translate(63.623047 0)"/>
       <use xlink:href="#DejaVuSans-30" transform="translate(127.246094 0)"/>
       <use xlink:href="#DejaVuSans-30" transform="translate(190.869141 0)"/>
      </g>
     </g>
    </g>
    <g id="ytick_7">
     <g id="line2d_27">
      <path d="M 72 91.677283 
L 518.4 91.677283 
" clip-path="url(#p7a82282987)" style="fill: none; stroke-dasharray: 1.85,0.8; stroke-dashoffset: 0; stroke: #b0b0b0; stroke-width: 0.5"/>
     </g>
     <g id="line2d_28">
      <g>
       <use xlink:href="#mc5563fd2e1" x="72" y="91.677283" style="stroke: #000000; stroke-width: 0.8"/>
      </g>
     </g>
     <g id="text_7">
      <!-- 7000 -->
      <g transform="translate(39.55 95.476502) scale(0.1 -0.1)">
       <defs>
        <path id="DejaVuSans-37" d="M 525 4666 
L 3525 4666 
L 3525 4397 
L 1831 0 
L 1172 0 
L 2766 4134 
L 525 4134 
L 525 4666 
z
" transform="scale(0.015625)"/>
       </defs>
       <use xlink:href="#DejaVuSans-37"/>
       <use xlink:href="#DejaVuSans-30" transform="translate(63.623047 0)"/>
       <use xlink:href="#DejaVuSans-30" transform="translate(127.246094 0)"/>
       <use xlink:href="#DejaVuSans-30" transform="translate(190.869141 0)"/>
      </g>
     </g>
    </g>
    <g id="ytick_8">
     <g id="line2d_29">
      <path d="M 72 59.860023 
L 518.4 59.860023 
" clip-path="url(#p7a82282987)" style="fill: none; stroke-dasharray: 1.85,0.8; stroke-dashoffset: 0; stroke: #b0b0b0; stroke-width: 0.5"/>
     </g>
     <g id="line2d_30">
      <g>
       <use xlink:href="#mc5563fd2e1" x="72" y="59.860023" style="stroke: #000000; stroke-width: 0.8"/>
      </g>
     </g>
     <g id="text_8">
      <!-- 8000 -->
      <g transform="translate(39.55 63.659242) scale(0.1 -0.1)">
       <defs>
        <path id="DejaVuSans-38" d="M 2034 2216 
Q 1584 2216 1326 1975 
Q 1069 1734 1069 1313 
Q 1069 891 1326 650 
Q 1584 409 2034 409 
Q 2484 409 2743 651 
Q 3003 894 3003 1313 
Q 3003 1734 2745 1975 
Q 2488 2216 2034 2216 
z
M 1403 2484 
Q 997 2584 770 2862 
Q 544 3141 544 3541 
Q 544 4100 942 4425 
Q 1341 4750 2034 4750 
Q 2731 4750 3128 4425 
Q 3525 4100 3525 3541 
Q 3525 3141 3298 2862 
Q 3072 2584 2669 2484 
Q 3125 2378 3379 2068 
Q 3634 1759 3634 1313 
Q 3634 634 3220 271 
Q 2806 -91 2034 -91 
Q 1263 -91 848 271 
Q 434 634 434 1313 
Q 434 1759 690 2068 
Q 947 2378 1403 2484 
z
M 1172 3481 
Q 1172 3119 1398 2916 
Q 1625 2713 2034 2713 
Q 2441 2713 2670 2916 
Q 2900 3119 2900 3481 
Q 2900 3844 2670 4047 
Q 2441 4250 2034 4250 
Q 1625 4250 1398 4047 
Q 1172 3844 1172 3481 
z
" transform="scale(0.015625)"/>
       </defs>
       <use xlink:href="#DejaVuSans-38"/>
       <use xlink:href="#DejaVuSans-30" transform="translate(63.623047 0)"/>
       <use xlink:href="#DejaVuSans-30" transform="translate(127.246094 0)"/>
       <use xlink:href="#DejaVuSans-30" transform="translate(190.869141 0)"/>
      </g>
     </g>
    </g>
    <g id="text_9">
     <!-- Peakposition (channels) -->
     <g transform="translate(33.470312 233.092248) rotate(-90) scale(0.1 -0.1)">
      <defs>
       <path id="DejaVuSans-50" d="M 1259 4147 
L 1259 2394 
L 2053 2394 
Q 2494 2394 2734 2622 
Q 2975 2850 2975 3272 
Q 2975 3691 2734 3919 
Q 2494 4147 2053 4147 
L 1259 4147 
z
M 628 4666 
L 2053 4666 
Q 2838 4666 3239 4311 
Q 3641 3956 3641 3272 
Q 3641 2581 3239 2228 
Q 2838 1875 2053 1875 
L 1259 1875 
L 1259 0 
L 628 0 
L 628 4666 
z
" transform="scale(0.015625)"/>
       <path id="DejaVuSans-65" d="M 3597 1894 
L 3597 1613 
L 953 1613 
Q 991 1019 1311 708 
Q 1631 397 2203 397 
Q 2534 397 2845 478 
Q 3156 559 3463 722 
L 3463 178 
Q 3153 47 2828 -22 
Q 2503 -91 2169 -91 
Q 1331 -91 842 396 
Q 353 884 353 1716 
Q 353 2575 817 3079 
Q 1281 3584 2069 3584 
Q 2775 3584 3186 3129 
Q 3597 2675 3597 1894 
z
M 3022 2063 
Q 3016 2534 2758 2815 
Q 2500 3097 2075 3097 
Q 1594 3097 1305 2825 
Q 1016 2553 972 2059 
L 3022 2063 
z
" transform="scale(0.015625)"/>
       <path id="DejaVuSans-61" d="M 2194 1759 
Q 1497 1759 1228 1600 
Q 959 1441 959 1056 
Q 959 750 1161 570 
Q 1363 391 1709 391 
Q 2188 391 2477 730 
Q 2766 1069 2766 1631 
L 2766 1759 
L 2194 1759 
z
M 3341 1997 
L 3341 0 
L 2766 0 
L 2766 531 
Q 2569 213 2275 61 
Q 1981 -91 1556 -91 
Q 1019 -91 701 211 
Q 384 513 384 1019 
Q 384 1609 779 1909 
Q 1175 2209 1959 2209 
L 2766 2209 
L 2766 2266 
Q 2766 2663 2505 2880 
Q 2244 3097 1772 3097 
Q 1472 3097 1187 3025 
Q 903 2953 641 2809 
L 641 3341 
Q 956 3463 1253 3523 
Q 1550 3584 1831 3584 
Q 2591 3584 2966 3190 
Q 3341 2797 3341 1997 
z
" transform="scale(0.015625)"/>
       <path id="DejaVuSans-6b" d="M 581 4863 
L 1159 4863 
L 1159 1991 
L 2875 3500 
L 3609 3500 
L 1753 1863 
L 3688 0 
L 2938 0 
L 1159 1709 
L 1159 0 
L 581 0 
L 581 4863 
z
" transform="scale(0.015625)"/>
       <path id="DejaVuSans-70" d="M 1159 525 
L 1159 -1331 
L 581 -1331 
L 581 3500 
L 1159 3500 
L 1159 2969 
Q 1341 3281 1617 3432 
Q 1894 3584 2278 3584 
Q 2916 3584 3314 3078 
Q 3713 2572 3713 1747 
Q 3713 922 3314 415 
Q 2916 -91 2278 -91 
Q 1894 -91 1617 61 
Q 1341 213 1159 525 
z
M 3116 1747 
Q 3116 2381 2855 2742 
Q 2594 3103 2138 3103 
Q 1681 3103 1420 2742 
Q 1159 2381 1159 1747 
Q 1159 1113 1420 752 
Q 1681 391 2138 391 
Q 2594 391 2855 752 
Q 3116 1113 3116 1747 
z
" transform="scale(0.015625)"/>
       <path id="DejaVuSans-6f" d="M 1959 3097 
Q 1497 3097 1228 2736 
Q 959 2375 959 1747 
Q 959 1119 1226 758 
Q 1494 397 1959 397 
Q 2419 397 2687 759 
Q 2956 1122 2956 1747 
Q 2956 2369 2687 2733 
Q 2419 3097 1959 3097 
z
M 1959 3584 
Q 2709 3584 3137 3096 
Q 3566 2609 3566 1747 
Q 3566 888 3137 398 
Q 2709 -91 1959 -91 
Q 1206 -91 779 398 
Q 353 888 353 1747 
Q 353 2609 779 3096 
Q 1206 3584 1959 3584 
z
" transform="scale(0.015625)"/>
       <path id="DejaVuSans-73" d="M 2834 3397 
L 2834 2853 
Q 2591 2978 2328 3040 
Q 2066 3103 1784 3103 
Q 1356 3103 1142 2972 
Q 928 2841 928 2578 
Q 928 2378 1081 2264 
Q 1234 2150 1697 2047 
L 1894 2003 
Q 2506 1872 2764 1633 
Q 3022 1394 3022 966 
Q 3022 478 2636 193 
Q 2250 -91 1575 -91 
Q 1294 -91 989 -36 
Q 684 19 347 128 
L 347 722 
Q 666 556 975 473 
Q 1284 391 1588 391 
Q 1994 391 2212 530 
Q 2431 669 2431 922 
Q 2431 1156 2273 1281 
Q 2116 1406 1581 1522 
L 1381 1569 
Q 847 1681 609 1914 
Q 372 2147 372 2553 
Q 372 3047 722 3315 
Q 1072 3584 1716 3584 
Q 2034 3584 2315 3537 
Q 2597 3491 2834 3397 
z
" transform="scale(0.015625)"/>
       <path id="DejaVuSans-69" d="M 603 3500 
L 1178 3500 
L 1178 0 
L 603 0 
L 603 3500 
z
M 603 4863 
L 1178 4863 
L 1178 4134 
L 603 4134 
L 603 4863 
z
" transform="scale(0.015625)"/>
       <path id="DejaVuSans-74" d="M 1172 4494 
L 1172 3500 
L 2356 3500 
L 2356 3053 
L 1172 3053 
L 1172 1153 
Q 1172 725 1289 603 
Q 1406 481 1766 481 
L 2356 481 
L 2356 0 
L 1766 0 
Q 1100 0 847 248 
Q 594 497 594 1153 
L 594 3053 
L 172 3053 
L 172 3500 
L 594 3500 
L 594 4494 
L 1172 4494 
z
" transform="scale(0.015625)"/>
       <path id="DejaVuSans-6e" d="M 3513 2113 
L 3513 0 
L 2938 0 
L 2938 2094 
Q 2938 2591 2744 2837 
Q 2550 3084 2163 3084 
Q 1697 3084 1428 2787 
Q 1159 2491 1159 1978 
L 1159 0 
L 581 0 
L 581 3500 
L 1159 3500 
L 1159 2956 
Q 1366 3272 1645 3428 
Q 1925 3584 2291 3584 
Q 2894 3584 3203 3211 
Q 3513 2838 3513 2113 
z
" transform="scale(0.015625)"/>
       <path id="DejaVuSans-20" transform="scale(0.015625)"/>
       <path id="DejaVuSans-28" d="M 1984 4856 
Q 1566 4138 1362 3434 
Q 1159 2731 1159 2009 
Q 1159 1288 1364 580 
Q 1569 -128 1984 -844 
L 1484 -844 
Q 1016 -109 783 600 
Q 550 1309 550 2009 
Q 550 2706 781 3412 
Q 1013 4119 1484 4856 
L 1984 4856 
z
" transform="scale(0.015625)"/>
       <path id="DejaVuSans-63" d="M 3122 3366 
L 3122 2828 
Q 2878 2963 2633 3030 
Q 2388 3097 2138 3097 
Q 1578 3097 1268 2742 
Q 959 2388 959 1747 
Q 959 1106 1268 751 
Q 1578 397 2138 397 
Q 2388 397 2633 464 
Q 2878 531 3122 666 
L 3122 134 
Q 2881 22 2623 -34 
Q 2366 -91 2075 -91 
Q 1284 -91 818 406 
Q 353 903 353 1747 
Q 353 2603 823 3093 
Q 1294 3584 2113 3584 
Q 2378 3584 2631 3529 
Q 2884 3475 3122 3366 
z
" transform="scale(0.015625)"/>
       <path id="DejaVuSans-68" d="M 3513 2113 
L 3513 0 
L 2938 0 
L 2938 2094 
Q 2938 2591 2744 2837 
Q 2550 3084 2163 3084 
Q 1697 3084 1428 2787 
Q 1159 2491 1159 1978 
L 1159 0 
L 581 0 
L 581 4863 
L 1159 4863 
L 1159 2956 
Q 1366 3272 1645 3428 
Q 1925 3584 2291 3584 
Q 2894 3584 3203 3211 
Q 3513 2838 3513 2113 
z
" transform="scale(0.015625)"/>
       <path id="DejaVuSans-6c" d="M 603 4863 
L 1178 4863 
L 1178 0 
L 603 0 
L 603 4863 
z
" transform="scale(0.015625)"/>
       <path id="DejaVuSans-29" d="M 513 4856 
L 1013 4856 
Q 1481 4119 1714 3412 
Q 1947 2706 1947 2009 
Q 1947 1309 1714 600 
Q 1481 -109 1013 -844 
L 513 -844 
Q 928 -128 1133 580 
Q 1338 1288 1338 2009 
Q 1338 2731 1133 3434 
Q 928 4138 513 4856 
z
" transform="scale(0.015625)"/>
      </defs>
      <use xlink:href="#DejaVuSans-50"/>
      <use xlink:href="#DejaVuSans-65" transform="translate(56.677734 0)"/>
      <use xlink:href="#DejaVuSans-61" transform="translate(118.201172 0)"/>
      <use xlink:href="#DejaVuSans-6b" transform="translate(179.480469 0)"/>
      <use xlink:href="#DejaVuSans-70" transform="translate(237.390625 0)"/>
      <use xlink:href="#DejaVuSans-6f" transform="translate(300.867188 0)"/>
      <use xlink:href="#DejaVuSans-73" transform="translate(362.048828 0)"/>
      <use xlink:href="#DejaVuSans-69" transform="translate(414.148438 0)"/>
      <use xlink:href="#DejaVuSans-74" transform="translate(441.931641 0)"/>
      <use xlink:href="#DejaVuSans-69" transform="translate(481.140625 0)"/>
      <use xlink:href="#DejaVuSans-6f" transform="translate(508.923828 0)"/>
      <use xlink:href="#DejaVuSans-6e" transform="translate(570.105469 0)"/>
      <use xlink:href="#DejaVuSans-20" transform="translate(633.484375 0)"/>
      <use xlink:href="#DejaVuSans-28" transform="translate(665.271484 0)"/>
      <use xlink:href="#DejaVuSans-63" transform="translate(704.285156 0)"/>
      <use xlink:href="#DejaVuSans-68" transform="translate(759.265625 0)"/>
      <use xlink:href="#DejaVuSans-61" transform="translate(822.644531 0)"/>
      <use xlink:href="#DejaVuSans-6e" transform="translate(883.923828 0)"/>
      <use xlink:href="#DejaVuSans-6e" transform="translate(947.302734 0)"/>
      <use xlink:href="#DejaVuSans-65" transform="translate(1010.681641 0)"/>
      <use xlink:href="#DejaVuSans-6c" transform="translate(1072.205078 0)"/>
      <use xlink:href="#DejaVuSans-73" transform="translate(1099.988281 0)"/>
      <use xlink:href="#DejaVuSans-29" transform="translate(1152.087891 0)"/>
     </g>
    </g>
   </g>
   <g id="line2d_31">
    <path d="M 123.514898 257.488148 
L 127.046363 255.522646 
L 130.577827 253.557144 
L 134.109292 251.591641 
L 137.640757 249.626139 
L 141.172221 247.660636 
L 144.703686 245.695134 
L 148.235151 243.729632 
L 151.766615 241.764129 
L 155.29808 239.798627 
L 158.829545 237.833125 
L 162.361009 235.867622 
L 165.892474 233.90212 
L 169.423939 231.936618 
L 172.955403 229.971115 
L 176.486868 228.005613 
L 180.018333 226.040111 
L 183.549797 224.074608 
L 187.081262 222.109106 
L 190.612727 220.143603 
L 194.144191 218.178101 
L 197.675656 216.212599 
L 201.207121 214.247096 
L 204.738585 212.281594 
L 208.27005 210.316092 
L 211.801515 208.350589 
L 215.332979 206.385087 
L 218.864444 204.419585 
L 222.395909 202.454082 
L 225.927373 200.48858 
L 229.458838 198.523077 
L 232.990303 196.557575 
L 236.521767 194.592073 
L 240.053232 192.62657 
L 243.584697 190.661068 
L 247.116161 188.695566 
L 250.647626 186.730063 
L 254.179091 184.764561 
L 257.710555 182.799059 
L 261.24202 180.833556 
L 264.773485 178.868054 
L 268.304949 176.902552 
L 271.836414 174.937049 
L 275.367879 172.971547 
L 278.899343 171.006044 
L 282.430808 169.040542 
L 285.962273 167.07504 
L 289.493737 165.109537 
L 293.025202 163.144035 
L 296.556667 161.178533 
L 300.088131 159.21303 
L 303.619596 157.247528 
L 307.151061 155.282026 
L 310.682525 153.316523 
L 314.21399 151.351021 
L 317.745455 149.385518 
L 321.276919 147.420016 
L 324.808384 145.454514 
L 328.339849 143.489011 
L 331.871313 141.523509 
L 335.402778 139.558007 
L 338.934243 137.592504 
L 342.465707 135.627002 
L 345.997172 133.6615 
L 349.528637 131.695997 
L 353.060101 129.730495 
L 356.591566 127.764993 
L 360.123031 125.79949 
L 363.654495 123.833988 
L 367.18596 121.868485 
L 370.717425 119.902983 
L 374.248889 117.937481 
L 377.780354 115.971978 
L 381.311819 114.006476 
L 384.843283 112.040974 
L 388.374748 110.075471 
L 391.906213 108.109969 
L 395.437677 106.144467 
L 398.969142 104.178964 
L 402.500607 102.213462 
L 406.032071 100.247959 
L 409.563536 98.282457 
L 413.095001 96.316955 
L 416.626465 94.351452 
L 420.15793 92.38595 
L 423.689395 90.420448 
L 427.220859 88.454945 
L 430.752324 86.489443 
L 434.283789 84.523941 
L 437.815253 82.558438 
L 441.346718 80.592936 
L 444.878183 78.627434 
L 448.409647 76.661931 
L 451.941112 74.696429 
L 455.472577 72.730926 
L 459.004041 70.765424 
L 462.535506 68.799922 
L 466.066971 66.834419 
L 469.598435 64.868917 
L 473.1299 62.903415 
" clip-path="url(#p7a82282987)" style="fill: none; stroke: #800000; stroke-width: 1.5; stroke-linecap: square"/>
   </g>
   <g id="LineCollection_1">
    <path d="M 435.661113 66.414379 
L 498.109091 66.414379 
" clip-path="url(#p7a82282987)" style="fill: none; stroke: #000000; stroke-width: 1.5"/>
    <path d="M 373.213136 78.950379 
L 435.661113 78.950379 
" clip-path="url(#p7a82282987)" style="fill: none; stroke: #000000; stroke-width: 1.5"/>
    <path d="M 310.765158 111.276715 
L 373.213136 111.276715 
" clip-path="url(#p7a82282987)" style="fill: none; stroke: #000000; stroke-width: 1.5"/>
    <path d="M 92.290909 282.580844 
L 154.738887 282.580844 
" clip-path="url(#p7a82282987)" style="fill: none; stroke: #000000; stroke-width: 1.5"/>
   </g>
   <g id="LineCollection_2">
    <path d="M 466.885102 66.446196 
L 466.885102 66.382561 
" clip-path="url(#p7a82282987)" style="fill: none; stroke: #000000; stroke-width: 1.5"/>
    <path d="M 404.437125 79.745811 
L 404.437125 78.154948 
" clip-path="url(#p7a82282987)" style="fill: none; stroke: #000000; stroke-width: 1.5"/>
    <path d="M 341.989147 112.867578 
L 341.989147 109.685852 
" clip-path="url(#p7a82282987)" style="fill: none; stroke: #000000; stroke-width: 1.5"/>
    <path d="M 123.514898 284.171707 
L 123.514898 280.989981 
" clip-path="url(#p7a82282987)" style="fill: none; stroke: #000000; stroke-width: 1.5"/>
   </g>
   <g id="line2d_32">
    <defs>
     <path id="mcd86031524" d="M 0 5 
L 0 -5 
" style="stroke: #000000"/>
    </defs>
    <g clip-path="url(#p7a82282987)">
     <use xlink:href="#mcd86031524" x="435.661113" y="66.414379" style="stroke: #000000"/>
     <use xlink:href="#mcd86031524" x="373.213136" y="78.950379" style="stroke: #000000"/>
     <use xlink:href="#mcd86031524" x="310.765158" y="111.276715" style="stroke: #000000"/>
     <use xlink:href="#mcd86031524" x="92.290909" y="282.580844" style="stroke: #000000"/>
    </g>
   </g>
   <g id="line2d_33">
    <g clip-path="url(#p7a82282987)">
     <use xlink:href="#mcd86031524" x="498.109091" y="66.414379" style="stroke: #000000"/>
     <use xlink:href="#mcd86031524" x="435.661113" y="78.950379" style="stroke: #000000"/>
     <use xlink:href="#mcd86031524" x="373.213136" y="111.276715" style="stroke: #000000"/>
     <use xlink:href="#mcd86031524" x="154.738887" y="282.580844" style="stroke: #000000"/>
    </g>
   </g>
   <g id="line2d_34">
    <defs>
     <path id="m900f90b1b4" d="M 5 0 
L -5 -0 
" style="stroke: #000000"/>
    </defs>
    <g clip-path="url(#p7a82282987)">
     <use xlink:href="#m900f90b1b4" x="466.885102" y="66.446196" style="stroke: #000000"/>
     <use xlink:href="#m900f90b1b4" x="404.437125" y="79.745811" style="stroke: #000000"/>
     <use xlink:href="#m900f90b1b4" x="341.989147" y="112.867578" style="stroke: #000000"/>
     <use xlink:href="#m900f90b1b4" x="123.514898" y="284.171707" style="stroke: #000000"/>
    </g>
   </g>
   <g id="line2d_35">
    <g clip-path="url(#p7a82282987)">
     <use xlink:href="#m900f90b1b4" x="466.885102" y="66.382561" style="stroke: #000000"/>
     <use xlink:href="#m900f90b1b4" x="404.437125" y="78.154948" style="stroke: #000000"/>
     <use xlink:href="#m900f90b1b4" x="341.989147" y="109.685852" style="stroke: #000000"/>
     <use xlink:href="#m900f90b1b4" x="123.514898" y="280.989981" style="stroke: #000000"/>
    </g>
   </g>
   <g id="line2d_36">
    <defs>
     <path id="m3d5fff340b" d="M 0 3 
C 0.795609 3 1.55874 2.683901 2.12132 2.12132 
C 2.683901 1.55874 3 0.795609 3 0 
C 3 -0.795609 2.683901 -1.55874 2.12132 -2.12132 
C 1.55874 -2.683901 0.795609 -3 0 -3 
C -0.795609 -3 -1.55874 -2.683901 -2.12132 -2.12132 
C -2.683901 -1.55874 -3 -0.795609 -3 0 
C -3 0.795609 -2.683901 1.55874 -2.12132 2.12132 
C -1.55874 2.683901 -0.795609 3 0 3 
z
" style="stroke: #000000"/>
    </defs>
    <g clip-path="url(#p7a82282987)">
     <use xlink:href="#m3d5fff340b" x="466.885102" y="66.414379" style="stroke: #000000"/>
     <use xlink:href="#m3d5fff340b" x="404.437125" y="78.950379" style="stroke: #000000"/>
     <use xlink:href="#m3d5fff340b" x="341.989147" y="111.276715" style="stroke: #000000"/>
     <use xlink:href="#m3d5fff340b" x="123.514898" y="282.580844" style="stroke: #000000"/>
    </g>
   </g>
   <g id="patch_3">
    <path d="M 72 295.235122 
L 72 51.84 
" style="fill: none; stroke: #000000; stroke-width: 0.8; stroke-linejoin: miter; stroke-linecap: square"/>
   </g>
   <g id="patch_4">
    <path d="M 518.4 295.235122 
L 518.4 51.84 
" style="fill: none; stroke: #000000; stroke-width: 0.8; stroke-linejoin: miter; stroke-linecap: square"/>
   </g>
   <g id="patch_5">
    <path d="M 72 295.235122 
L 518.4 295.235122 
" style="fill: none; stroke: #000000; stroke-width: 0.8; stroke-linejoin: miter; stroke-linecap: square"/>
   </g>
   <g id="patch_6">
    <path d="M 72 51.84 
L 518.4 51.84 
" style="fill: none; stroke: #000000; stroke-width: 0.8; stroke-linejoin: miter; stroke-linecap: square"/>
   </g>
   <g id="text_10">
    <g id="patch_7">
     <path d="M 94.32 202.188686 
L 206.04 202.188686 
Q 209.64 202.188686 209.64 198.588686 
L 209.64 173.537561 
Q 209.64 169.937561 206.04 169.937561 
L 94.32 169.937561 
Q 90.72 169.937561 90.72 173.537561 
L 90.72 198.588686 
Q 90.72 202.188686 94.32 202.188686 
z
" style="fill: #ffffff; opacity: 0.5; stroke: #000000; stroke-linejoin: miter"/>
    </g>
    <!-- m = 1092.4 $\pm$ 8.1 -->
    <g transform="translate(94.32 182.655686) scale(0.12 -0.12)">
     <defs>
      <path id="DejaVuSans-6d" d="M 3328 2828 
Q 3544 3216 3844 3400 
Q 4144 3584 4550 3584 
Q 5097 3584 5394 3201 
Q 5691 2819 5691 2113 
L 5691 0 
L 5113 0 
L 5113 2094 
Q 5113 2597 4934 2840 
Q 4756 3084 4391 3084 
Q 3944 3084 3684 2787 
Q 3425 2491 3425 1978 
L 3425 0 
L 2847 0 
L 2847 2094 
Q 2847 2600 2669 2842 
Q 2491 3084 2119 3084 
Q 1678 3084 1418 2786 
Q 1159 2488 1159 1978 
L 1159 0 
L 581 0 
L 581 3500 
L 1159 3500 
L 1159 2956 
Q 1356 3278 1631 3431 
Q 1906 3584 2284 3584 
Q 2666 3584 2933 3390 
Q 3200 3197 3328 2828 
z
" transform="scale(0.015625)"/>
      <path id="DejaVuSans-3d" d="M 678 2906 
L 4684 2906 
L 4684 2381 
L 678 2381 
L 678 2906 
z
M 678 1631 
L 4684 1631 
L 4684 1100 
L 678 1100 
L 678 1631 
z
" transform="scale(0.015625)"/>
      <path id="DejaVuSans-39" d="M 703 97 
L 703 672 
Q 941 559 1184 500 
Q 1428 441 1663 441 
Q 2288 441 2617 861 
Q 2947 1281 2994 2138 
Q 2813 1869 2534 1725 
Q 2256 1581 1919 1581 
Q 1219 1581 811 2004 
Q 403 2428 403 3163 
Q 403 3881 828 4315 
Q 1253 4750 1959 4750 
Q 2769 4750 3195 4129 
Q 3622 3509 3622 2328 
Q 3622 1225 3098 567 
Q 2575 -91 1691 -91 
Q 1453 -91 1209 -44 
Q 966 3 703 97 
z
M 1959 2075 
Q 2384 2075 2632 2365 
Q 2881 2656 2881 3163 
Q 2881 3666 2632 3958 
Q 2384 4250 1959 4250 
Q 1534 4250 1286 3958 
Q 1038 3666 1038 3163 
Q 1038 2656 1286 2365 
Q 1534 2075 1959 2075 
z
" transform="scale(0.015625)"/>
      <path id="DejaVuSans-2e" d="M 684 794 
L 1344 794 
L 1344 0 
L 684 0 
L 684 794 
z
" transform="scale(0.015625)"/>
      <path id="DejaVuSans-b1" d="M 2944 4013 
L 2944 2803 
L 4684 2803 
L 4684 2272 
L 2944 2272 
L 2944 1063 
L 2419 1063 
L 2419 2272 
L 678 2272 
L 678 2803 
L 2419 2803 
L 2419 4013 
L 2944 4013 
z
M 678 531 
L 4684 531 
L 4684 0 
L 678 0 
L 678 531 
z
" transform="scale(0.015625)"/>
     </defs>
     <use xlink:href="#DejaVuSans-6d" transform="translate(0 0.78125)"/>
     <use xlink:href="#DejaVuSans-20" transform="translate(97.412109 0.78125)"/>
     <use xlink:href="#DejaVuSans-3d" transform="translate(129.199219 0.78125)"/>
     <use xlink:href="#DejaVuSans-20" transform="translate(212.988281 0.78125)"/>
     <use xlink:href="#DejaVuSans-31" transform="translate(244.775391 0.78125)"/>
     <use xlink:href="#DejaVuSans-30" transform="translate(308.398438 0.78125)"/>
     <use xlink:href="#DejaVuSans-39" transform="translate(372.021484 0.78125)"/>
     <use xlink:href="#DejaVuSans-32" transform="translate(433.894531 0.78125)"/>
     <use xlink:href="#DejaVuSans-2e" transform="translate(497.517578 0.78125)"/>
     <use xlink:href="#DejaVuSans-34" transform="translate(529.304688 0.78125)"/>
     <use xlink:href="#DejaVuSans-20" transform="translate(592.927734 0.78125)"/>
     <use xlink:href="#DejaVuSans-b1" transform="translate(624.714844 0.78125)"/>
     <use xlink:href="#DejaVuSans-20" transform="translate(708.503906 0.78125)"/>
     <use xlink:href="#DejaVuSans-38" transform="translate(740.291016 0.78125)"/>
     <use xlink:href="#DejaVuSans-2e" transform="translate(803.914062 0.78125)"/>
     <use xlink:href="#DejaVuSans-31" transform="translate(835.701172 0.78125)"/>
    </g>
    <!-- b = 1787.0 $\pm$ 44.5 -->
    <g transform="translate(94.32 196.093061) scale(0.12 -0.12)">
     <defs>
      <path id="DejaVuSans-62" d="M 3116 1747 
Q 3116 2381 2855 2742 
Q 2594 3103 2138 3103 
Q 1681 3103 1420 2742 
Q 1159 2381 1159 1747 
Q 1159 1113 1420 752 
Q 1681 391 2138 391 
Q 2594 391 2855 752 
Q 3116 1113 3116 1747 
z
M 1159 2969 
Q 1341 3281 1617 3432 
Q 1894 3584 2278 3584 
Q 2916 3584 3314 3078 
Q 3713 2572 3713 1747 
Q 3713 922 3314 415 
Q 2916 -91 2278 -91 
Q 1894 -91 1617 61 
Q 1341 213 1159 525 
L 1159 0 
L 581 0 
L 581 4863 
L 1159 4863 
L 1159 2969 
z
" transform="scale(0.015625)"/>
     </defs>
     <use xlink:href="#DejaVuSans-62" transform="translate(0 0.015625)"/>
     <use xlink:href="#DejaVuSans-20" transform="translate(63.476562 0.015625)"/>
     <use xlink:href="#DejaVuSans-3d" transform="translate(95.263672 0.015625)"/>
     <use xlink:href="#DejaVuSans-20" transform="translate(179.052734 0.015625)"/>
     <use xlink:href="#DejaVuSans-31" transform="translate(210.839844 0.015625)"/>
     <use xlink:href="#DejaVuSans-37" transform="translate(274.462891 0.015625)"/>
     <use xlink:href="#DejaVuSans-38" transform="translate(338.085938 0.015625)"/>
     <use xlink:href="#DejaVuSans-37" transform="translate(401.708984 0.015625)"/>
     <use xlink:href="#DejaVuSans-2e" transform="translate(465.332031 0.015625)"/>
     <use xlink:href="#DejaVuSans-30" transform="translate(497.119141 0.015625)"/>
     <use xlink:href="#DejaVuSans-20" transform="translate(560.742188 0.015625)"/>
     <use xlink:href="#DejaVuSans-b1" transform="translate(592.529297 0.015625)"/>
     <use xlink:href="#DejaVuSans-20" transform="translate(676.318359 0.015625)"/>
     <use xlink:href="#DejaVuSans-34" transform="translate(708.105469 0.015625)"/>
     <use xlink:href="#DejaVuSans-34" transform="translate(771.728516 0.015625)"/>
     <use xlink:href="#DejaVuSans-2e" transform="translate(835.351562 0.015625)"/>
     <use xlink:href="#DejaVuSans-35" transform="translate(867.138672 0.015625)"/>
    </g>
   </g>
   <g id="legend_1">
    <g id="patch_8">
     <path d="M 79 89.19625 
L 186.839063 89.19625 
Q 188.839063 89.19625 188.839063 87.19625 
L 188.839063 58.84 
Q 188.839063 56.84 186.839063 56.84 
L 79 56.84 
Q 77 56.84 77 58.84 
L 77 87.19625 
Q 77 89.19625 79 89.19625 
z
" style="fill: #ffffff; opacity: 0.8; stroke: #cccccc; stroke-linejoin: miter"/>
    </g>
    <g id="line2d_37">
     <path d="M 81 64.938437 
L 91 64.938437 
L 101 64.938437 
" style="fill: none; stroke: #800000; stroke-width: 1.5; stroke-linecap: square"/>
    </g>
    <g id="text_11">
     <!-- Fit -->
     <g transform="translate(109 68.438437) scale(0.1 -0.1)">
      <defs>
       <path id="DejaVuSans-46" d="M 628 4666 
L 3309 4666 
L 3309 4134 
L 1259 4134 
L 1259 2759 
L 3109 2759 
L 3109 2228 
L 1259 2228 
L 1259 0 
L 628 0 
L 628 4666 
z
" transform="scale(0.015625)"/>
      </defs>
      <use xlink:href="#DejaVuSans-46"/>
      <use xlink:href="#DejaVuSans-69" transform="translate(50.269531 0)"/>
      <use xlink:href="#DejaVuSans-74" transform="translate(78.052734 0)"/>
     </g>
    </g>
    <g id="LineCollection_3">
     <path d="M 86 79.616562 
L 96 79.616562 
" style="fill: none; stroke: #000000; stroke-width: 1.5"/>
    </g>
    <g id="LineCollection_4">
     <path d="M 91 84.616562 
L 91 74.616562 
" style="fill: none; stroke: #000000; stroke-width: 1.5"/>
    </g>
    <g id="line2d_38">
     <g>
      <use xlink:href="#mcd86031524" x="86" y="79.616562" style="stroke: #000000"/>
     </g>
    </g>
    <g id="line2d_39">
     <g>
      <use xlink:href="#mcd86031524" x="96" y="79.616562" style="stroke: #000000"/>
     </g>
    </g>
    <g id="line2d_40">
     <g>
      <use xlink:href="#m900f90b1b4" x="91" y="84.616562" style="stroke: #000000"/>
     </g>
    </g>
    <g id="line2d_41">
     <g>
      <use xlink:href="#m900f90b1b4" x="91" y="74.616562" style="stroke: #000000"/>
     </g>
    </g>
    <g id="line2d_42"/>
    <g id="line2d_43">
     <g>
      <use xlink:href="#m3d5fff340b" x="91" y="79.616562" style="stroke: #000000"/>
     </g>
    </g>
    <g id="text_12">
     <!-- Peakpositionen -->
     <g transform="translate(109 83.116562) scale(0.1 -0.1)">
      <use xlink:href="#DejaVuSans-50"/>
      <use xlink:href="#DejaVuSans-65" transform="translate(56.677734 0)"/>
      <use xlink:href="#DejaVuSans-61" transform="translate(118.201172 0)"/>
      <use xlink:href="#DejaVuSans-6b" transform="translate(179.480469 0)"/>
      <use xlink:href="#DejaVuSans-70" transform="translate(237.390625 0)"/>
      <use xlink:href="#DejaVuSans-6f" transform="translate(300.867188 0)"/>
      <use xlink:href="#DejaVuSans-73" transform="translate(362.048828 0)"/>
      <use xlink:href="#DejaVuSans-69" transform="translate(414.148438 0)"/>
      <use xlink:href="#DejaVuSans-74" transform="translate(441.931641 0)"/>
      <use xlink:href="#DejaVuSans-69" transform="translate(481.140625 0)"/>
      <use xlink:href="#DejaVuSans-6f" transform="translate(508.923828 0)"/>
      <use xlink:href="#DejaVuSans-6e" transform="translate(570.105469 0)"/>
      <use xlink:href="#DejaVuSans-65" transform="translate(633.484375 0)"/>
      <use xlink:href="#DejaVuSans-6e" transform="translate(695.007812 0)"/>
     </g>
    </g>
   </g>
  </g>
  <g id="axes_2">
   <g id="patch_9">
    <path d="M 72 384.48 
L 518.4 384.48 
L 518.4 303.348293 
L 72 303.348293 
z
" style="fill: #ffffff"/>
   </g>
   <g id="matplotlib.axis_3">
    <g id="xtick_8">
     <g id="line2d_44">
      <path d="M 123.421226 384.48 
L 123.421226 303.348293 
" clip-path="url(#p862cf069c4)" style="fill: none; stroke-dasharray: 1.85,0.8; stroke-dashoffset: 0; stroke: #b0b0b0; stroke-width: 0.5"/>
     </g>
     <g id="line2d_45">
      <g>
       <use xlink:href="#mdeb115599a" x="123.421226" y="384.48" style="stroke: #000000; stroke-width: 0.8"/>
      </g>
     </g>
     <g id="text_13">
      <!-- 0 -->
      <g transform="translate(120.239976 399.078438) scale(0.1 -0.1)">
       <use xlink:href="#DejaVuSans-30"/>
      </g>
     </g>
    </g>
    <g id="xtick_9">
     <g id="line2d_46">
      <path d="M 185.869203 384.48 
L 185.869203 303.348293 
" clip-path="url(#p862cf069c4)" style="fill: none; stroke-dasharray: 1.85,0.8; stroke-dashoffset: 0; stroke: #b0b0b0; stroke-width: 0.5"/>
     </g>
     <g id="line2d_47">
      <g>
       <use xlink:href="#mdeb115599a" x="185.869203" y="384.48" style="stroke: #000000; stroke-width: 0.8"/>
      </g>
     </g>
     <g id="text_14">
      <!-- 1 -->
      <g transform="translate(182.687953 399.078438) scale(0.1 -0.1)">
       <use xlink:href="#DejaVuSans-31"/>
      </g>
     </g>
    </g>
    <g id="xtick_10">
     <g id="line2d_48">
      <path d="M 248.317181 384.48 
L 248.317181 303.348293 
" clip-path="url(#p862cf069c4)" style="fill: none; stroke-dasharray: 1.85,0.8; stroke-dashoffset: 0; stroke: #b0b0b0; stroke-width: 0.5"/>
     </g>
     <g id="line2d_49">
      <g>
       <use xlink:href="#mdeb115599a" x="248.317181" y="384.48" style="stroke: #000000; stroke-width: 0.8"/>
      </g>
     </g>
     <g id="text_15">
      <!-- 2 -->
      <g transform="translate(245.135931 399.078438) scale(0.1 -0.1)">
       <use xlink:href="#DejaVuSans-32"/>
      </g>
     </g>
    </g>
    <g id="xtick_11">
     <g id="line2d_50">
      <path d="M 310.765158 384.48 
L 310.765158 303.348293 
" clip-path="url(#p862cf069c4)" style="fill: none; stroke-dasharray: 1.85,0.8; stroke-dashoffset: 0; stroke: #b0b0b0; stroke-width: 0.5"/>
     </g>
     <g id="line2d_51">
      <g>
       <use xlink:href="#mdeb115599a" x="310.765158" y="384.48" style="stroke: #000000; stroke-width: 0.8"/>
      </g>
     </g>
     <g id="text_16">
      <!-- 3 -->
      <g transform="translate(307.583908 399.078438) scale(0.1 -0.1)">
       <use xlink:href="#DejaVuSans-33"/>
      </g>
     </g>
    </g>
    <g id="xtick_12">
     <g id="line2d_52">
      <path d="M 373.213136 384.48 
L 373.213136 303.348293 
" clip-path="url(#p862cf069c4)" style="fill: none; stroke-dasharray: 1.85,0.8; stroke-dashoffset: 0; stroke: #b0b0b0; stroke-width: 0.5"/>
     </g>
     <g id="line2d_53">
      <g>
       <use xlink:href="#mdeb115599a" x="373.213136" y="384.48" style="stroke: #000000; stroke-width: 0.8"/>
      </g>
     </g>
     <g id="text_17">
      <!-- 4 -->
      <g transform="translate(370.031886 399.078438) scale(0.1 -0.1)">
       <use xlink:href="#DejaVuSans-34"/>
      </g>
     </g>
    </g>
    <g id="xtick_13">
     <g id="line2d_54">
      <path d="M 435.661113 384.48 
L 435.661113 303.348293 
" clip-path="url(#p862cf069c4)" style="fill: none; stroke-dasharray: 1.85,0.8; stroke-dashoffset: 0; stroke: #b0b0b0; stroke-width: 0.5"/>
     </g>
     <g id="line2d_55">
      <g>
       <use xlink:href="#mdeb115599a" x="435.661113" y="384.48" style="stroke: #000000; stroke-width: 0.8"/>
      </g>
     </g>
     <g id="text_18">
      <!-- 5 -->
      <g transform="translate(432.479863 399.078438) scale(0.1 -0.1)">
       <use xlink:href="#DejaVuSans-35"/>
      </g>
     </g>
    </g>
    <g id="xtick_14">
     <g id="line2d_56">
      <path d="M 498.109091 384.48 
L 498.109091 303.348293 
" clip-path="url(#p862cf069c4)" style="fill: none; stroke-dasharray: 1.85,0.8; stroke-dashoffset: 0; stroke: #b0b0b0; stroke-width: 0.5"/>
     </g>
     <g id="line2d_57">
      <g>
       <use xlink:href="#mdeb115599a" x="498.109091" y="384.48" style="stroke: #000000; stroke-width: 0.8"/>
      </g>
     </g>
     <g id="text_19">
      <!-- 6 -->
      <g transform="translate(494.927841 399.078438) scale(0.1 -0.1)">
       <use xlink:href="#DejaVuSans-36"/>
      </g>
     </g>
    </g>
    <g id="text_20">
     <!-- Energie $E_{detektiert}$ (MeV) -->
     <g transform="translate(237.65 412.758125) scale(0.1 -0.1)">
      <defs>
       <path id="DejaVuSans-45" d="M 628 4666 
L 3578 4666 
L 3578 4134 
L 1259 4134 
L 1259 2753 
L 3481 2753 
L 3481 2222 
L 1259 2222 
L 1259 531 
L 3634 531 
L 3634 0 
L 628 0 
L 628 4666 
z
" transform="scale(0.015625)"/>
       <path id="DejaVuSans-72" d="M 2631 2963 
Q 2534 3019 2420 3045 
Q 2306 3072 2169 3072 
Q 1681 3072 1420 2755 
Q 1159 2438 1159 1844 
L 1159 0 
L 581 0 
L 581 3500 
L 1159 3500 
L 1159 2956 
Q 1341 3275 1631 3429 
Q 1922 3584 2338 3584 
Q 2397 3584 2469 3576 
Q 2541 3569 2628 3553 
L 2631 2963 
z
" transform="scale(0.015625)"/>
       <path id="DejaVuSans-67" d="M 2906 1791 
Q 2906 2416 2648 2759 
Q 2391 3103 1925 3103 
Q 1463 3103 1205 2759 
Q 947 2416 947 1791 
Q 947 1169 1205 825 
Q 1463 481 1925 481 
Q 2391 481 2648 825 
Q 2906 1169 2906 1791 
z
M 3481 434 
Q 3481 -459 3084 -895 
Q 2688 -1331 1869 -1331 
Q 1566 -1331 1297 -1286 
Q 1028 -1241 775 -1147 
L 775 -588 
Q 1028 -725 1275 -790 
Q 1522 -856 1778 -856 
Q 2344 -856 2625 -561 
Q 2906 -266 2906 331 
L 2906 616 
Q 2728 306 2450 153 
Q 2172 0 1784 0 
Q 1141 0 747 490 
Q 353 981 353 1791 
Q 353 2603 747 3093 
Q 1141 3584 1784 3584 
Q 2172 3584 2450 3431 
Q 2728 3278 2906 2969 
L 2906 3500 
L 3481 3500 
L 3481 434 
z
" transform="scale(0.015625)"/>
       <path id="DejaVuSans-Oblique-45" d="M 1081 4666 
L 4031 4666 
L 3928 4134 
L 1606 4134 
L 1338 2753 
L 3566 2753 
L 3463 2222 
L 1234 2222 
L 909 531 
L 3284 531 
L 3181 0 
L 172 0 
L 1081 4666 
z
" transform="scale(0.015625)"/>
       <path id="DejaVuSans-Oblique-64" d="M 2675 525 
Q 2444 222 2128 65 
Q 1813 -91 1428 -91 
Q 903 -91 598 267 
Q 294 625 294 1247 
Q 294 1766 478 2236 
Q 663 2706 1013 3078 
Q 1244 3325 1534 3454 
Q 1825 3584 2144 3584 
Q 2481 3584 2739 3421 
Q 2997 3259 3138 2956 
L 3513 4863 
L 4091 4863 
L 3144 0 
L 2566 0 
L 2675 525 
z
M 891 1350 
Q 891 897 1095 644 
Q 1300 391 1663 391 
Q 1931 391 2161 520 
Q 2391 650 2566 903 
Q 2750 1166 2856 1509 
Q 2963 1853 2963 2188 
Q 2963 2622 2758 2865 
Q 2553 3109 2194 3109 
Q 1922 3109 1687 2981 
Q 1453 2853 1288 2613 
Q 1106 2353 998 2009 
Q 891 1666 891 1350 
z
" transform="scale(0.015625)"/>
       <path id="DejaVuSans-Oblique-65" d="M 3078 2063 
Q 3088 2113 3092 2166 
Q 3097 2219 3097 2272 
Q 3097 2653 2873 2875 
Q 2650 3097 2266 3097 
Q 1838 3097 1509 2826 
Q 1181 2556 1013 2059 
L 3078 2063 
z
M 3578 1613 
L 903 1613 
Q 884 1494 878 1425 
Q 872 1356 872 1306 
Q 872 872 1139 634 
Q 1406 397 1894 397 
Q 2269 397 2603 481 
Q 2938 566 3225 728 
L 3116 159 
Q 2806 34 2476 -28 
Q 2147 -91 1806 -91 
Q 1078 -91 686 257 
Q 294 606 294 1247 
Q 294 1794 489 2264 
Q 684 2734 1063 3103 
Q 1306 3334 1642 3459 
Q 1978 3584 2356 3584 
Q 2950 3584 3301 3228 
Q 3653 2872 3653 2272 
Q 3653 2128 3634 1964 
Q 3616 1800 3578 1613 
z
" transform="scale(0.015625)"/>
       <path id="DejaVuSans-Oblique-74" d="M 2706 3500 
L 2619 3053 
L 1472 3053 
L 1100 1153 
Q 1081 1047 1072 975 
Q 1063 903 1063 863 
Q 1063 663 1183 572 
Q 1303 481 1569 481 
L 2150 481 
L 2053 0 
L 1503 0 
Q 991 0 739 200 
Q 488 400 488 806 
Q 488 878 497 964 
Q 506 1050 525 1153 
L 897 3053 
L 409 3053 
L 500 3500 
L 978 3500 
L 1172 4494 
L 1747 4494 
L 1556 3500 
L 2706 3500 
z
" transform="scale(0.015625)"/>
       <path id="DejaVuSans-Oblique-6b" d="M 1172 4863 
L 1747 4863 
L 1197 2028 
L 3169 3500 
L 3916 3500 
L 1716 1825 
L 3322 0 
L 2625 0 
L 1131 1709 
L 800 0 
L 225 0 
L 1172 4863 
z
" transform="scale(0.015625)"/>
       <path id="DejaVuSans-Oblique-69" d="M 1172 4863 
L 1747 4863 
L 1606 4134 
L 1031 4134 
L 1172 4863 
z
M 909 3500 
L 1484 3500 
L 800 0 
L 225 0 
L 909 3500 
z
" transform="scale(0.015625)"/>
       <path id="DejaVuSans-Oblique-72" d="M 2853 2969 
Q 2766 3016 2653 3041 
Q 2541 3066 2413 3066 
Q 1953 3066 1609 2717 
Q 1266 2369 1153 1784 
L 800 0 
L 225 0 
L 909 3500 
L 1484 3500 
L 1375 2956 
Q 1603 3259 1920 3421 
Q 2238 3584 2597 3584 
Q 2691 3584 2781 3573 
Q 2872 3563 2963 3538 
L 2853 2969 
z
" transform="scale(0.015625)"/>
       <path id="DejaVuSans-4d" d="M 628 4666 
L 1569 4666 
L 2759 1491 
L 3956 4666 
L 4897 4666 
L 4897 0 
L 4281 0 
L 4281 4097 
L 3078 897 
L 2444 897 
L 1241 4097 
L 1241 0 
L 628 0 
L 628 4666 
z
" transform="scale(0.015625)"/>
       <path id="DejaVuSans-56" d="M 1831 0 
L 50 4666 
L 709 4666 
L 2188 738 
L 3669 4666 
L 4325 4666 
L 2547 0 
L 1831 0 
z
" transform="scale(0.015625)"/>
      </defs>
      <use xlink:href="#DejaVuSans-45" transform="translate(0 0.015625)"/>
      <use xlink:href="#DejaVuSans-6e" transform="translate(63.183594 0.015625)"/>
      <use xlink:href="#DejaVuSans-65" transform="translate(126.5625 0.015625)"/>
      <use xlink:href="#DejaVuSans-72" transform="translate(188.085938 0.015625)"/>
      <use xlink:href="#DejaVuSans-67" transform="translate(229.199219 0.015625)"/>
      <use xlink:href="#DejaVuSans-69" transform="translate(292.675781 0.015625)"/>
      <use xlink:href="#DejaVuSans-65" transform="translate(320.458984 0.015625)"/>
      <use xlink:href="#DejaVuSans-20" transform="translate(381.982422 0.015625)"/>
      <use xlink:href="#DejaVuSans-Oblique-45" transform="translate(413.769531 0.015625)"/>
      <use xlink:href="#DejaVuSans-Oblique-64" transform="translate(476.953125 -16.390625) scale(0.7)"/>
      <use xlink:href="#DejaVuSans-Oblique-65" transform="translate(521.386719 -16.390625) scale(0.7)"/>
      <use xlink:href="#DejaVuSans-Oblique-74" transform="translate(564.453125 -16.390625) scale(0.7)"/>
      <use xlink:href="#DejaVuSans-Oblique-65" transform="translate(591.899414 -16.390625) scale(0.7)"/>
      <use xlink:href="#DejaVuSans-Oblique-6b" transform="translate(634.96582 -16.390625) scale(0.7)"/>
      <use xlink:href="#DejaVuSans-Oblique-74" transform="translate(675.50293 -16.390625) scale(0.7)"/>
      <use xlink:href="#DejaVuSans-Oblique-69" transform="translate(702.949219 -16.390625) scale(0.7)"/>
      <use xlink:href="#DejaVuSans-Oblique-65" transform="translate(722.397461 -16.390625) scale(0.7)"/>
      <use xlink:href="#DejaVuSans-Oblique-72" transform="translate(765.463867 -16.390625) scale(0.7)"/>
      <use xlink:href="#DejaVuSans-Oblique-74" transform="translate(794.243164 -16.390625) scale(0.7)"/>
      <use xlink:href="#DejaVuSans-20" transform="translate(824.423828 0.015625)"/>
      <use xlink:href="#DejaVuSans-28" transform="translate(856.210938 0.015625)"/>
      <use xlink:href="#DejaVuSans-4d" transform="translate(895.224609 0.015625)"/>
      <use xlink:href="#DejaVuSans-65" transform="translate(981.503906 0.015625)"/>
      <use xlink:href="#DejaVuSans-56" transform="translate(1043.027344 0.015625)"/>
      <use xlink:href="#DejaVuSans-29" transform="translate(1111.435547 0.015625)"/>
     </g>
    </g>
   </g>
   <g id="matplotlib.axis_4">
    <g id="ytick_9">
     <g id="line2d_58">
      <path d="M 72 365.766339 
L 518.4 365.766339 
" clip-path="url(#p862cf069c4)" style="fill: none; stroke-dasharray: 1.85,0.8; stroke-dashoffset: 0; stroke: #b0b0b0; stroke-width: 0.5"/>
     </g>
     <g id="line2d_59">
      <g>
       <use xlink:href="#mc5563fd2e1" x="72" y="365.766339" style="stroke: #000000; stroke-width: 0.8"/>
      </g>
     </g>
     <g id="text_21">
      <!-- −500 -->
      <g transform="translate(37.532812 369.565558) scale(0.1 -0.1)">
       <defs>
        <path id="DejaVuSans-2212" d="M 678 2272 
L 4684 2272 
L 4684 1741 
L 678 1741 
L 678 2272 
z
" transform="scale(0.015625)"/>
       </defs>
       <use xlink:href="#DejaVuSans-2212"/>
       <use xlink:href="#DejaVuSans-35" transform="translate(83.789062 0)"/>
       <use xlink:href="#DejaVuSans-30" transform="translate(147.412109 0)"/>
       <use xlink:href="#DejaVuSans-30" transform="translate(211.035156 0)"/>
      </g>
     </g>
    </g>
    <g id="ytick_10">
     <g id="line2d_60">
      <path d="M 72 343.581434 
L 518.4 343.581434 
" clip-path="url(#p862cf069c4)" style="fill: none; stroke-dasharray: 1.85,0.8; stroke-dashoffset: 0; stroke: #b0b0b0; stroke-width: 0.5"/>
     </g>
     <g id="line2d_61">
      <g>
       <use xlink:href="#mc5563fd2e1" x="72" y="343.581434" style="stroke: #000000; stroke-width: 0.8"/>
      </g>
     </g>
     <g id="text_22">
      <!-- 0 -->
      <g transform="translate(58.6375 347.380653) scale(0.1 -0.1)">
       <use xlink:href="#DejaVuSans-30"/>
      </g>
     </g>
    </g>
    <g id="ytick_11">
     <g id="line2d_62">
      <path d="M 72 321.396528 
L 518.4 321.396528 
" clip-path="url(#p862cf069c4)" style="fill: none; stroke-dasharray: 1.85,0.8; stroke-dashoffset: 0; stroke: #b0b0b0; stroke-width: 0.5"/>
     </g>
     <g id="line2d_63">
      <g>
       <use xlink:href="#mc5563fd2e1" x="72" y="321.396528" style="stroke: #000000; stroke-width: 0.8"/>
      </g>
     </g>
     <g id="text_23">
      <!-- 500 -->
      <g transform="translate(45.9125 325.195747) scale(0.1 -0.1)">
       <use xlink:href="#DejaVuSans-35"/>
       <use xlink:href="#DejaVuSans-30" transform="translate(63.623047 0)"/>
       <use xlink:href="#DejaVuSans-30" transform="translate(127.246094 0)"/>
      </g>
     </g>
    </g>
    <g id="text_24">
     <!-- Residuen -->
     <g transform="translate(31.453125 366.821959) rotate(-90) scale(0.1 -0.1)">
      <defs>
       <path id="DejaVuSans-52" d="M 2841 2188 
Q 3044 2119 3236 1894 
Q 3428 1669 3622 1275 
L 4263 0 
L 3584 0 
L 2988 1197 
Q 2756 1666 2539 1819 
Q 2322 1972 1947 1972 
L 1259 1972 
L 1259 0 
L 628 0 
L 628 4666 
L 2053 4666 
Q 2853 4666 3247 4331 
Q 3641 3997 3641 3322 
Q 3641 2881 3436 2590 
Q 3231 2300 2841 2188 
z
M 1259 4147 
L 1259 2491 
L 2053 2491 
Q 2509 2491 2742 2702 
Q 2975 2913 2975 3322 
Q 2975 3731 2742 3939 
Q 2509 4147 2053 4147 
L 1259 4147 
z
" transform="scale(0.015625)"/>
       <path id="DejaVuSans-64" d="M 2906 2969 
L 2906 4863 
L 3481 4863 
L 3481 0 
L 2906 0 
L 2906 525 
Q 2725 213 2448 61 
Q 2172 -91 1784 -91 
Q 1150 -91 751 415 
Q 353 922 353 1747 
Q 353 2572 751 3078 
Q 1150 3584 1784 3584 
Q 2172 3584 2448 3432 
Q 2725 3281 2906 2969 
z
M 947 1747 
Q 947 1113 1208 752 
Q 1469 391 1925 391 
Q 2381 391 2643 752 
Q 2906 1113 2906 1747 
Q 2906 2381 2643 2742 
Q 2381 3103 1925 3103 
Q 1469 3103 1208 2742 
Q 947 2381 947 1747 
z
" transform="scale(0.015625)"/>
       <path id="DejaVuSans-75" d="M 544 1381 
L 544 3500 
L 1119 3500 
L 1119 1403 
Q 1119 906 1312 657 
Q 1506 409 1894 409 
Q 2359 409 2629 706 
Q 2900 1003 2900 1516 
L 2900 3500 
L 3475 3500 
L 3475 0 
L 2900 0 
L 2900 538 
Q 2691 219 2414 64 
Q 2138 -91 1772 -91 
Q 1169 -91 856 284 
Q 544 659 544 1381 
z
M 1991 3584 
L 1991 3584 
z
" transform="scale(0.015625)"/>
      </defs>
      <use xlink:href="#DejaVuSans-52"/>
      <use xlink:href="#DejaVuSans-65" transform="translate(64.982422 0)"/>
      <use xlink:href="#DejaVuSans-73" transform="translate(126.505859 0)"/>
      <use xlink:href="#DejaVuSans-69" transform="translate(178.605469 0)"/>
      <use xlink:href="#DejaVuSans-64" transform="translate(206.388672 0)"/>
      <use xlink:href="#DejaVuSans-75" transform="translate(269.865234 0)"/>
      <use xlink:href="#DejaVuSans-65" transform="translate(333.244141 0)"/>
      <use xlink:href="#DejaVuSans-6e" transform="translate(394.767578 0)"/>
     </g>
    </g>
   </g>
   <g id="LineCollection_5">
    <path d="M 435.661113 343.630668 
L 498.109091 343.630668 
" clip-path="url(#p862cf069c4)" style="fill: none; stroke: #800000; stroke-width: 1.5"/>
    <path d="M 373.213136 312.643617 
L 435.661113 312.643617 
" clip-path="url(#p862cf069c4)" style="fill: none; stroke: #800000; stroke-width: 1.5"/>
    <path d="M 310.765158 309.254588 
L 373.213136 309.254588 
" clip-path="url(#p862cf069c4)" style="fill: none; stroke: #800000; stroke-width: 1.5"/>
    <path d="M 92.290909 378.573705 
L 154.738887 378.573705 
" clip-path="url(#p862cf069c4)" style="fill: none; stroke: #800000; stroke-width: 1.5"/>
   </g>
   <g id="LineCollection_6">
    <path d="M 466.885102 343.675038 
L 466.885102 343.586298 
" clip-path="url(#p862cf069c4)" style="fill: none; stroke: #800000; stroke-width: 1.5"/>
    <path d="M 404.437125 313.752862 
L 404.437125 311.534372 
" clip-path="url(#p862cf069c4)" style="fill: none; stroke: #800000; stroke-width: 1.5"/>
    <path d="M 341.989147 311.473079 
L 341.989147 307.036098 
" clip-path="url(#p862cf069c4)" style="fill: none; stroke: #800000; stroke-width: 1.5"/>
    <path d="M 123.514898 380.792195 
L 123.514898 376.355214 
" clip-path="url(#p862cf069c4)" style="fill: none; stroke: #800000; stroke-width: 1.5"/>
   </g>
   <g id="line2d_64">
    <defs>
     <path id="m898aca3a90" d="M 0 5 
L 0 -5 
" style="stroke: #800000"/>
    </defs>
    <g clip-path="url(#p862cf069c4)">
     <use xlink:href="#m898aca3a90" x="435.661113" y="343.630668" style="fill: #800000; stroke: #800000"/>
     <use xlink:href="#m898aca3a90" x="373.213136" y="312.643617" style="fill: #800000; stroke: #800000"/>
     <use xlink:href="#m898aca3a90" x="310.765158" y="309.254588" style="fill: #800000; stroke: #800000"/>
     <use xlink:href="#m898aca3a90" x="92.290909" y="378.573705" style="fill: #800000; stroke: #800000"/>
    </g>
   </g>
   <g id="line2d_65">
    <g clip-path="url(#p862cf069c4)">
     <use xlink:href="#m898aca3a90" x="498.109091" y="343.630668" style="fill: #800000; stroke: #800000"/>
     <use xlink:href="#m898aca3a90" x="435.661113" y="312.643617" style="fill: #800000; stroke: #800000"/>
     <use xlink:href="#m898aca3a90" x="373.213136" y="309.254588" style="fill: #800000; stroke: #800000"/>
     <use xlink:href="#m898aca3a90" x="154.738887" y="378.573705" style="fill: #800000; stroke: #800000"/>
    </g>
   </g>
   <g id="line2d_66">
    <defs>
     <path id="md5d7df3c39" d="M 5 0 
L -5 -0 
" style="stroke: #800000"/>
    </defs>
    <g clip-path="url(#p862cf069c4)">
     <use xlink:href="#md5d7df3c39" x="466.885102" y="343.675038" style="fill: #800000; stroke: #800000"/>
     <use xlink:href="#md5d7df3c39" x="404.437125" y="313.752862" style="fill: #800000; stroke: #800000"/>
     <use xlink:href="#md5d7df3c39" x="341.989147" y="311.473079" style="fill: #800000; stroke: #800000"/>
     <use xlink:href="#md5d7df3c39" x="123.514898" y="380.792195" style="fill: #800000; stroke: #800000"/>
    </g>
   </g>
   <g id="line2d_67">
    <g clip-path="url(#p862cf069c4)">
     <use xlink:href="#md5d7df3c39" x="466.885102" y="343.586298" style="fill: #800000; stroke: #800000"/>
     <use xlink:href="#md5d7df3c39" x="404.437125" y="311.534372" style="fill: #800000; stroke: #800000"/>
     <use xlink:href="#md5d7df3c39" x="341.989147" y="307.036098" style="fill: #800000; stroke: #800000"/>
     <use xlink:href="#md5d7df3c39" x="123.514898" y="376.355214" style="fill: #800000; stroke: #800000"/>
    </g>
   </g>
   <g id="line2d_68">
    <defs>
     <path id="m9711ebc995" d="M 0 3 
C 0.795609 3 1.55874 2.683901 2.12132 2.12132 
C 2.683901 1.55874 3 0.795609 3 0 
C 3 -0.795609 2.683901 -1.55874 2.12132 -2.12132 
C 1.55874 -2.683901 0.795609 -3 0 -3 
C -0.795609 -3 -1.55874 -2.683901 -2.12132 -2.12132 
C -2.683901 -1.55874 -3 -0.795609 -3 0 
C -3 0.795609 -2.683901 1.55874 -2.12132 2.12132 
C -1.55874 2.683901 -0.795609 3 0 3 
z
" style="stroke: #800000"/>
    </defs>
    <g clip-path="url(#p862cf069c4)">
     <use xlink:href="#m9711ebc995" x="466.885102" y="343.630668" style="fill: #800000; stroke: #800000"/>
     <use xlink:href="#m9711ebc995" x="404.437125" y="312.643617" style="fill: #800000; stroke: #800000"/>
     <use xlink:href="#m9711ebc995" x="341.989147" y="309.254588" style="fill: #800000; stroke: #800000"/>
     <use xlink:href="#m9711ebc995" x="123.514898" y="378.573705" style="fill: #800000; stroke: #800000"/>
    </g>
   </g>
   <g id="patch_10">
    <path d="M 72 384.48 
L 72 303.348293 
" style="fill: none; stroke: #000000; stroke-width: 0.8; stroke-linejoin: miter; stroke-linecap: square"/>
   </g>
   <g id="patch_11">
    <path d="M 518.4 384.48 
L 518.4 303.348293 
" style="fill: none; stroke: #000000; stroke-width: 0.8; stroke-linejoin: miter; stroke-linecap: square"/>
   </g>
   <g id="patch_12">
    <path d="M 72 384.48 
L 518.4 384.48 
" style="fill: none; stroke: #000000; stroke-width: 0.8; stroke-linejoin: miter; stroke-linecap: square"/>
   </g>
   <g id="patch_13">
    <path d="M 72 303.348293 
L 518.4 303.348293 
" style="fill: none; stroke: #000000; stroke-width: 0.8; stroke-linejoin: miter; stroke-linecap: square"/>
   </g>
   <g id="line2d_69">
    <path d="M 72 343.581434 
L 518.4 343.581434 
" clip-path="url(#p862cf069c4)" style="fill: none; stroke-dasharray: 5.55,2.4; stroke-dashoffset: 0; stroke: #000000; stroke-width: 1.5"/>
   </g>
   <g id="text_25">
    <g id="patch_14">
     <path d="M 183.6 372.330732 
L 314.28 372.330732 
Q 317.88 372.330732 317.88 368.730732 
L 317.88 347.970732 
Q 317.88 344.370732 314.28 344.370732 
L 183.6 344.370732 
Q 180 344.370732 180 347.970732 
L 180 368.730732 
Q 180 372.330732 183.6 372.330732 
z
" style="fill: #ffffff; opacity: 0.5; stroke: #000000; stroke-linejoin: miter"/>
    </g>
    <!-- $\frac{\chi^2}{N_{dof}}$ = 633.67, Ndof=2 -->
    <g transform="translate(183.6 362.610732) scale(0.12 -0.12)">
     <defs>
      <path id="DejaVuSans-Oblique-3c7" d="M 1922 -781 
L 1691 416 
L 394 -1334 
L -284 -1334 
L 1553 1141 
L 1269 2613 
Q 1194 3006 713 3006 
L 559 3006 
L 653 3500 
L 872 3494 
Q 1675 3472 1775 2950 
L 2006 1753 
L 3303 3503 
L 3981 3503 
L 2144 1028 
L 2428 -444 
Q 2503 -838 2984 -838 
L 3138 -838 
L 3044 -1331 
L 2825 -1325 
Q 2022 -1303 1922 -781 
z
" transform="scale(0.015625)"/>
      <path id="DejaVuSans-Oblique-4e" d="M 1081 4666 
L 1931 4666 
L 3219 666 
L 4000 4666 
L 4616 4666 
L 3706 0 
L 2853 0 
L 1569 4025 
L 788 0 
L 172 0 
L 1081 4666 
z
" transform="scale(0.015625)"/>
      <path id="DejaVuSans-Oblique-6f" d="M 1625 -91 
Q 1009 -91 651 289 
Q 294 669 294 1325 
Q 294 1706 417 2101 
Q 541 2497 738 2766 
Q 1047 3184 1428 3384 
Q 1809 3584 2291 3584 
Q 2888 3584 3255 3212 
Q 3622 2841 3622 2241 
Q 3622 1825 3500 1412 
Q 3378 1000 3181 728 
Q 2875 309 2494 109 
Q 2113 -91 1625 -91 
z
M 891 1344 
Q 891 869 1089 633 
Q 1288 397 1691 397 
Q 2269 397 2648 901 
Q 3028 1406 3028 2181 
Q 3028 2634 2825 2865 
Q 2622 3097 2228 3097 
Q 1903 3097 1650 2945 
Q 1397 2794 1197 2484 
Q 1050 2253 970 1956 
Q 891 1659 891 1344 
z
" transform="scale(0.015625)"/>
      <path id="DejaVuSans-Oblique-66" d="M 3059 4863 
L 2969 4384 
L 2419 4384 
Q 2106 4384 1964 4261 
Q 1822 4138 1753 3809 
L 1691 3500 
L 2638 3500 
L 2553 3053 
L 1606 3053 
L 1013 0 
L 434 0 
L 1031 3053 
L 481 3053 
L 563 3500 
L 1113 3500 
L 1159 3744 
Q 1278 4363 1576 4613 
Q 1875 4863 2516 4863 
L 3059 4863 
z
" transform="scale(0.015625)"/>
      <path id="DejaVuSans-2c" d="M 750 794 
L 1409 794 
L 1409 256 
L 897 -744 
L 494 -744 
L 750 256 
L 750 794 
z
" transform="scale(0.015625)"/>
      <path id="DejaVuSans-4e" d="M 628 4666 
L 1478 4666 
L 3547 763 
L 3547 4666 
L 4159 4666 
L 4159 0 
L 3309 0 
L 1241 3903 
L 1241 0 
L 628 0 
L 628 4666 
z
" transform="scale(0.015625)"/>
      <path id="DejaVuSans-66" d="M 2375 4863 
L 2375 4384 
L 1825 4384 
Q 1516 4384 1395 4259 
Q 1275 4134 1275 3809 
L 1275 3500 
L 2222 3500 
L 2222 3053 
L 1275 3053 
L 1275 0 
L 697 0 
L 697 3053 
L 147 3053 
L 147 3500 
L 697 3500 
L 697 3744 
Q 697 4328 969 4595 
Q 1241 4863 1831 4863 
L 2375 4863 
z
" transform="scale(0.015625)"/>
     </defs>
     <use xlink:href="#DejaVuSans-Oblique-3c7" transform="translate(27 58.835938) scale(0.7)"/>
     <use xlink:href="#DejaVuSans-32" transform="translate(71.556677 85.632813) scale(0.49)"/>
     <use xlink:href="#DejaVuSans-Oblique-4e" transform="translate(0 -38.039062) scale(0.7)"/>
     <use xlink:href="#DejaVuSans-Oblique-64" transform="translate(52.363281 -49.523438) scale(0.49)"/>
     <use xlink:href="#DejaVuSans-Oblique-6f" transform="translate(83.466797 -49.523438) scale(0.49)"/>
     <use xlink:href="#DejaVuSans-Oblique-66" transform="translate(113.445801 -49.523438) scale(0.49)"/>
     <use xlink:href="#DejaVuSans-20" transform="translate(145.110352 0.448437)"/>
     <use xlink:href="#DejaVuSans-3d" transform="translate(176.897461 0.448437)"/>
     <use xlink:href="#DejaVuSans-20" transform="translate(260.686523 0.448437)"/>
     <use xlink:href="#DejaVuSans-36" transform="translate(292.473633 0.448437)"/>
     <use xlink:href="#DejaVuSans-33" transform="translate(356.09668 0.448437)"/>
     <use xlink:href="#DejaVuSans-33" transform="translate(419.719727 0.448437)"/>
     <use xlink:href="#DejaVuSans-2e" transform="translate(483.342773 0.448437)"/>
     <use xlink:href="#DejaVuSans-36" transform="translate(515.129883 0.448437)"/>
     <use xlink:href="#DejaVuSans-37" transform="translate(578.75293 0.448437)"/>
     <use xlink:href="#DejaVuSans-2c" transform="translate(642.375977 0.448437)"/>
     <use xlink:href="#DejaVuSans-20" transform="translate(674.163086 0.448437)"/>
     <use xlink:href="#DejaVuSans-4e" transform="translate(705.950195 0.448437)"/>
     <use xlink:href="#DejaVuSans-64" transform="translate(780.754883 0.448437)"/>
     <use xlink:href="#DejaVuSans-6f" transform="translate(844.231445 0.448437)"/>
     <use xlink:href="#DejaVuSans-66" transform="translate(905.413086 0.448437)"/>
     <use xlink:href="#DejaVuSans-3d" transform="translate(940.618164 0.448437)"/>
     <use xlink:href="#DejaVuSans-32" transform="translate(1024.407227 0.448437)"/>
     <path d="M 0 19.245313 
L 0 25.495313 
L 132.610352 25.495313 
L 132.610352 19.245313 
L 0 19.245313 
z
"/>
    </g>
   </g>
   <g id="legend_2">
    <g id="patch_15">
     <path d="M 79 326.026418 
L 156.815625 326.026418 
Q 158.815625 326.026418 158.815625 324.026418 
L 158.815625 310.348293 
Q 158.815625 308.348293 156.815625 308.348293 
L 79 308.348293 
Q 77 308.348293 77 310.348293 
L 77 324.026418 
Q 77 326.026418 79 326.026418 
z
" style="fill: #ffffff; opacity: 0.8; stroke: #cccccc; stroke-linejoin: miter"/>
    </g>
    <g id="LineCollection_7">
     <path d="M 86 316.44673 
L 96 316.44673 
" style="fill: none; stroke: #800000; stroke-width: 1.5"/>
    </g>
    <g id="LineCollection_8">
     <path d="M 91 321.44673 
L 91 311.44673 
" style="fill: none; stroke: #800000; stroke-width: 1.5"/>
    </g>
    <g id="line2d_70">
     <g>
      <use xlink:href="#m898aca3a90" x="86" y="316.44673" style="fill: #800000; stroke: #800000"/>
     </g>
    </g>
    <g id="line2d_71">
     <g>
      <use xlink:href="#m898aca3a90" x="96" y="316.44673" style="fill: #800000; stroke: #800000"/>
     </g>
    </g>
    <g id="line2d_72">
     <g>
      <use xlink:href="#md5d7df3c39" x="91" y="321.44673" style="fill: #800000; stroke: #800000"/>
     </g>
    </g>
    <g id="line2d_73">
     <g>
      <use xlink:href="#md5d7df3c39" x="91" y="311.44673" style="fill: #800000; stroke: #800000"/>
     </g>
    </g>
    <g id="line2d_74"/>
    <g id="line2d_75">
     <g>
      <use xlink:href="#m9711ebc995" x="91" y="316.44673" style="fill: #800000; stroke: #800000"/>
     </g>
    </g>
    <g id="text_26">
     <!-- Residuen -->
     <g transform="translate(109 319.94673) scale(0.1 -0.1)">
      <use xlink:href="#DejaVuSans-52"/>
      <use xlink:href="#DejaVuSans-65" transform="translate(64.982422 0)"/>
      <use xlink:href="#DejaVuSans-73" transform="translate(126.505859 0)"/>
      <use xlink:href="#DejaVuSans-69" transform="translate(178.605469 0)"/>
      <use xlink:href="#DejaVuSans-64" transform="translate(206.388672 0)"/>
      <use xlink:href="#DejaVuSans-75" transform="translate(269.865234 0)"/>
      <use xlink:href="#DejaVuSans-65" transform="translate(333.244141 0)"/>
      <use xlink:href="#DejaVuSans-6e" transform="translate(394.767578 0)"/>
     </g>
    </g>
   </g>
  </g>
  <g id="text_27">
   <!-- Kalibrierung mit linearem Fit anhand der $^{214}$Po Peaks -->
   <g transform="translate(128.64 19.56) scale(0.12 -0.12)">
    <defs>
     <path id="DejaVuSans-4b" d="M 628 4666 
L 1259 4666 
L 1259 2694 
L 3353 4666 
L 4166 4666 
L 1850 2491 
L 4331 0 
L 3500 0 
L 1259 2247 
L 1259 0 
L 628 0 
L 628 4666 
z
" transform="scale(0.015625)"/>
    </defs>
    <use xlink:href="#DejaVuSans-4b" transform="translate(0 0.765625)"/>
    <use xlink:href="#DejaVuSans-61" transform="translate(65.576172 0.765625)"/>
    <use xlink:href="#DejaVuSans-6c" transform="translate(126.855469 0.765625)"/>
    <use xlink:href="#DejaVuSans-69" transform="translate(154.638672 0.765625)"/>
    <use xlink:href="#DejaVuSans-62" transform="translate(182.421875 0.765625)"/>
    <use xlink:href="#DejaVuSans-72" transform="translate(245.898438 0.765625)"/>
    <use xlink:href="#DejaVuSans-69" transform="translate(287.011719 0.765625)"/>
    <use xlink:href="#DejaVuSans-65" transform="translate(314.794922 0.765625)"/>
    <use xlink:href="#DejaVuSans-72" transform="translate(376.318359 0.765625)"/>
    <use xlink:href="#DejaVuSans-75" transform="translate(417.431641 0.765625)"/>
    <use xlink:href="#DejaVuSans-6e" transform="translate(480.810547 0.765625)"/>
    <use xlink:href="#DejaVuSans-67" transform="translate(544.189453 0.765625)"/>
    <use xlink:href="#DejaVuSans-20" transform="translate(607.666016 0.765625)"/>
    <use xlink:href="#DejaVuSans-6d" transform="translate(639.453125 0.765625)"/>
    <use xlink:href="#DejaVuSans-69" transform="translate(736.865234 0.765625)"/>
    <use xlink:href="#DejaVuSans-74" transform="translate(764.648438 0.765625)"/>
    <use xlink:href="#DejaVuSans-20" transform="translate(803.857422 0.765625)"/>
    <use xlink:href="#DejaVuSans-6c" transform="translate(835.644531 0.765625)"/>
    <use xlink:href="#DejaVuSans-69" transform="translate(863.427734 0.765625)"/>
    <use xlink:href="#DejaVuSans-6e" transform="translate(891.210938 0.765625)"/>
    <use xlink:href="#DejaVuSans-65" transform="translate(954.589844 0.765625)"/>
    <use xlink:href="#DejaVuSans-61" transform="translate(1016.113281 0.765625)"/>
    <use xlink:href="#DejaVuSans-72" transform="translate(1077.392578 0.765625)"/>
    <use xlink:href="#DejaVuSans-65" transform="translate(1118.505859 0.765625)"/>
    <use xlink:href="#DejaVuSans-6d" transform="translate(1180.029297 0.765625)"/>
    <use xlink:href="#DejaVuSans-20" transform="translate(1277.441406 0.765625)"/>
    <use xlink:href="#DejaVuSans-46" transform="translate(1309.228516 0.765625)"/>
    <use xlink:href="#DejaVuSans-69" transform="translate(1366.748047 0.765625)"/>
    <use xlink:href="#DejaVuSans-74" transform="translate(1394.53125 0.765625)"/>
    <use xlink:href="#DejaVuSans-20" transform="translate(1433.740234 0.765625)"/>
    <use xlink:href="#DejaVuSans-61" transform="translate(1465.527344 0.765625)"/>
    <use xlink:href="#DejaVuSans-6e" transform="translate(1526.806641 0.765625)"/>
    <use xlink:href="#DejaVuSans-68" transform="translate(1590.185547 0.765625)"/>
    <use xlink:href="#DejaVuSans-61" transform="translate(1653.564453 0.765625)"/>
    <use xlink:href="#DejaVuSans-6e" transform="translate(1714.84375 0.765625)"/>
    <use xlink:href="#DejaVuSans-64" transform="translate(1778.222656 0.765625)"/>
    <use xlink:href="#DejaVuSans-20" transform="translate(1841.699219 0.765625)"/>
    <use xlink:href="#DejaVuSans-64" transform="translate(1873.486328 0.765625)"/>
    <use xlink:href="#DejaVuSans-65" transform="translate(1936.962891 0.765625)"/>
    <use xlink:href="#DejaVuSans-72" transform="translate(1998.486328 0.765625)"/>
    <use xlink:href="#DejaVuSans-20" transform="translate(2039.599609 0.765625)"/>
    <use xlink:href="#DejaVuSans-32" transform="translate(2072.34375 39.046875) scale(0.7)"/>
    <use xlink:href="#DejaVuSans-31" transform="translate(2116.879883 39.046875) scale(0.7)"/>
    <use xlink:href="#DejaVuSans-34" transform="translate(2161.416016 39.046875) scale(0.7)"/>
    <use xlink:href="#DejaVuSans-50" transform="translate(2208.686523 0.765625)"/>
    <use xlink:href="#DejaVuSans-6f" transform="translate(2268.989258 0.765625)"/>
    <use xlink:href="#DejaVuSans-20" transform="translate(2330.170898 0.765625)"/>
    <use xlink:href="#DejaVuSans-50" transform="translate(2361.958008 0.765625)"/>
    <use xlink:href="#DejaVuSans-65" transform="translate(2422.260742 0.765625)"/>
    <use xlink:href="#DejaVuSans-61" transform="translate(2483.78418 0.765625)"/>
    <use xlink:href="#DejaVuSans-6b" transform="translate(2545.063477 0.765625)"/>
    <use xlink:href="#DejaVuSans-73" transform="translate(2602.973633 0.765625)"/>
   </g>
  </g>
 </g>
 <defs>
  <clipPath id="p7a82282987">
   <rect x="72" y="51.84" width="446.4" height="243.395122"/>
  </clipPath>
  <clipPath id="p862cf069c4">
   <rect x="72" y="303.348293" width="446.4" height="81.131707"/>
  </clipPath>
 </defs>
</svg>
