<?xml version="1.0" encoding="utf-8" standalone="no"?>
<!DOCTYPE svg PUBLIC "-//W3C//DTD SVG 1.1//EN"
  "http://www.w3.org/Graphics/SVG/1.1/DTD/svg11.dtd">
<svg xmlns:xlink="http://www.w3.org/1999/xlink" width="576pt" height="432pt" viewBox="0 0 576 432" xmlns="http://www.w3.org/2000/svg" version="1.1">
 <metadata>
  <rdf:RDF xmlns:dc="http://purl.org/dc/elements/1.1/" xmlns:cc="http://creativecommons.org/ns#" xmlns:rdf="http://www.w3.org/1999/02/22-rdf-syntax-ns#">
   <cc:Work>
    <dc:type rdf:resource="http://purl.org/dc/dcmitype/StillImage"/>
    <dc:date>2026-03-19T20:48:59.814099</dc:date>
    <dc:format>image/svg+xml</dc:format>
    <dc:creator>
     <cc:Agent>
      <dc:title>Matplotlib v3.10.6, https://matplotlib.org/</dc:title>
     </cc:Agent>
    </dc:creator>
   </cc:Work>
  </rdf:RDF>
 </metadata>
 <defs>
  <style type="text/css">*{stroke-linejoin: round; stroke-linecap: butt}</style>
 </defs>
 <g id="figure_1">
  <g id="patch_1">
   <path d="M 0 432 
L 576 432 
L 576 0 
L 0 0 
z
" style="fill: #ffffff"/>
  </g>
  <g id="axes_1">
   <g id="patch_2">
    <path d="M 72 295.235122 
L 518.4 295.235122 
L 518.4 51.84 
L 72 51.84 
z
" style="fill: #ffffff"/>
   </g>
   <g id="matplotlib.axis_1">
    <g id="xtick_1">
     <g id="line2d_1">
      <path d="M 108.729114 295.235122 
L 108.729114 51.84 
" clip-path="url(#p3b04d07c7f)" style="fill: none; stroke-dasharray: 1.85,0.8; stroke-dashoffset: 0; stroke: #b0b0b0; stroke-width: 0.5"/>
     </g>
     <g id="line2d_2">
      <defs>
       <path id="m316346a630" d="M 0 0 
L 0 3.5 
" style="stroke: #000000; stroke-width: 0.8"/>
      </defs>
      <g>
       <use xlink:href="#m316346a630" x="108.729114" y="295.235122" style="stroke: #000000; stroke-width: 0.8"/>
      </g>
     </g>
    </g>
    <g id="xtick_2">
     <g id="line2d_3">
      <path d="M 160.098504 295.235122 
L 160.098504 51.84 
" clip-path="url(#p3b04d07c7f)" style="fill: none; stroke-dasharray: 1.85,0.8; stroke-dashoffset: 0; stroke: #b0b0b0; stroke-width: 0.5"/>
     </g>
     <g id="line2d_4">
      <g>
       <use xlink:href="#m316346a630" x="160.098504" y="295.235122" style="stroke: #000000; stroke-width: 0.8"/>
      </g>
     </g>
    </g>
    <g id="xtick_3">
     <g id="line2d_5">
      <path d="M 211.467894 295.235122 
L 211.467894 51.84 
" clip-path="url(#p3b04d07c7f)" style="fill: none; stroke-dasharray: 1.85,0.8; stroke-dashoffset: 0; stroke: #b0b0b0; stroke-width: 0.5"/>
     </g>
     <g id="line2d_6">
      <g>
       <use xlink:href="#m316346a630" x="211.467894" y="295.235122" style="stroke: #000000; stroke-width: 0.8"/>
      </g>
     </g>
    </g>
    <g id="xtick_4">
     <g id="line2d_7">
      <path d="M 262.837284 295.235122 
L 262.837284 51.84 
" clip-path="url(#p3b04d07c7f)" style="fill: none; stroke-dasharray: 1.85,0.8; stroke-dashoffset: 0; stroke: #b0b0b0; stroke-width: 0.5"/>
     </g>
     <g id="line2d_8">
      <g>
       <use xlink:href="#m316346a630" x="262.837284" y="295.235122" style="stroke: #000000; stroke-width: 0.8"/>
      </g>
     </g>
    </g>
    <g id="xtick_5">
     <g id="line2d_9">
      <path d="M 314.206674 295.235122 
L 314.206674 51.84 
" clip-path="url(#p3b04d07c7f)" style="fill: none; stroke-dasharray: 1.85,0.8; stroke-dashoffset: 0; stroke: #b0b0b0; stroke-width: 0.5"/>
     </g>
     <g id="line2d_10">
      <g>
       <use xlink:href="#m316346a630" x="314.206674" y="295.235122" style="stroke: #000000; stroke-width: 0.8"/>
      </g>
     </g>
    </g>
    <g id="xtick_6">
     <g id="line2d_11">
      <path d="M 365.576064 295.235122 
L 365.576064 51.84 
" clip-path="url(#p3b04d07c7f)" style="fill: none; stroke-dasharray: 1.85,0.8; stroke-dashoffset: 0; stroke: #b0b0b0; stroke-width: 0.5"/>
     </g>
     <g id="line2d_12">
      <g>
       <use xlink:href="#m316346a630" x="365.576064" y="295.235122" style="stroke: #000000; stroke-width: 0.8"/>
      </g>
     </g>
    </g>
    <g id="xtick_7">
     <g id="line2d_13">
      <path d="M 416.945455 295.235122 
L 416.945455 51.84 
" clip-path="url(#p3b04d07c7f)" style="fill: none; stroke-dasharray: 1.85,0.8; stroke-dashoffset: 0; stroke: #b0b0b0; stroke-width: 0.5"/>
     </g>
     <g id="line2d_14">
      <g>
       <use xlink:href="#m316346a630" x="416.945455" y="295.235122" style="stroke: #000000; stroke-width: 0.8"/>
      </g>
     </g>
    </g>
    <g id="xtick_8">
     <g id="line2d_15">
      <path d="M 468.314845 295.235122 
L 468.314845 51.84 
" clip-path="url(#p3b04d07c7f)" style="fill: none; stroke-dasharray: 1.85,0.8; stroke-dashoffset: 0; stroke: #b0b0b0; stroke-width: 0.5"/>
     </g>
     <g id="line2d_16">
      <g>
       <use xlink:href="#m316346a630" x="468.314845" y="295.235122" style="stroke: #000000; stroke-width: 0.8"/>
      </g>
     </g>
    </g>
   </g>
   <g id="matplotlib.axis_2">
    <g id="ytick_1">
     <g id="line2d_17">
      <path d="M 72 279.482063 
L 518.4 279.482063 
" clip-path="url(#p3b04d07c7f)" style="fill: none; stroke-dasharray: 1.85,0.8; stroke-dashoffset: 0; stroke: #b0b0b0; stroke-width: 0.5"/>
     </g>
     <g id="line2d_18">
      <defs>
       <path id="m116c80d5f7" d="M 0 0 
L -3.5 0 
" style="stroke: #000000; stroke-width: 0.8"/>
      </defs>
      <g>
       <use xlink:href="#m116c80d5f7" x="72" y="279.482063" style="stroke: #000000; stroke-width: 0.8"/>
      </g>
     </g>
     <g id="text_1">
      <!-- 1000 -->
      <g transform="translate(39.55 283.281281) scale(0.1 -0.1)">
       <defs>
        <path id="DejaVuSans-31" d="M 794 531 
L 1825 531 
L 1825 4091 
L 703 3866 
L 703 4441 
L 1819 4666 
L 2450 4666 
L 2450 531 
L 3481 531 
L 3481 0 
L 794 0 
L 794 531 
z
" transform="scale(0.015625)"/>
        <path id="DejaVuSans-30" d="M 2034 4250 
Q 1547 4250 1301 3770 
Q 1056 3291 1056 2328 
Q 1056 1369 1301 889 
Q 1547 409 2034 409 
Q 2525 409 2770 889 
Q 3016 1369 3016 2328 
Q 3016 3291 2770 3770 
Q 2525 4250 2034 4250 
z
M 2034 4750 
Q 2819 4750 3233 4129 
Q 3647 3509 3647 2328 
Q 3647 1150 3233 529 
Q 2819 -91 2034 -91 
Q 1250 -91 836 529 
Q 422 1150 422 2328 
Q 422 3509 836 4129 
Q 1250 4750 2034 4750 
z
" transform="scale(0.015625)"/>
       </defs>
       <use xlink:href="#DejaVuSans-31"/>
       <use xlink:href="#DejaVuSans-30" transform="translate(63.623047 0)"/>
       <use xlink:href="#DejaVuSans-30" transform="translate(127.246094 0)"/>
       <use xlink:href="#DejaVuSans-30" transform="translate(190.869141 0)"/>
      </g>
     </g>
    </g>
    <g id="ytick_2">
     <g id="line2d_19">
      <path d="M 72 248.217764 
L 518.4 248.217764 
" clip-path="url(#p3b04d07c7f)" style="fill: none; stroke-dasharray: 1.85,0.8; stroke-dashoffset: 0; stroke: #b0b0b0; stroke-width: 0.5"/>
     </g>
     <g id="line2d_20">
      <g>
       <use xlink:href="#m116c80d5f7" x="72" y="248.217764" style="stroke: #000000; stroke-width: 0.8"/>
      </g>
     </g>
     <g id="text_2">
      <!-- 2000 -->
      <g transform="translate(39.55 252.016983) scale(0.1 -0.1)">
       <defs>
        <path id="DejaVuSans-32" d="M 1228 531 
L 3431 531 
L 3431 0 
L 469 0 
L 469 531 
Q 828 903 1448 1529 
Q 2069 2156 2228 2338 
Q 2531 2678 2651 2914 
Q 2772 3150 2772 3378 
Q 2772 3750 2511 3984 
Q 2250 4219 1831 4219 
Q 1534 4219 1204 4116 
Q 875 4013 500 3803 
L 500 4441 
Q 881 4594 1212 4672 
Q 1544 4750 1819 4750 
Q 2544 4750 2975 4387 
Q 3406 4025 3406 3419 
Q 3406 3131 3298 2873 
Q 3191 2616 2906 2266 
Q 2828 2175 2409 1742 
Q 1991 1309 1228 531 
z
" transform="scale(0.015625)"/>
       </defs>
       <use xlink:href="#DejaVuSans-32"/>
       <use xlink:href="#DejaVuSans-30" transform="translate(63.623047 0)"/>
       <use xlink:href="#DejaVuSans-30" transform="translate(127.246094 0)"/>
       <use xlink:href="#DejaVuSans-30" transform="translate(190.869141 0)"/>
      </g>
     </g>
    </g>
    <g id="ytick_3">
     <g id="line2d_21">
      <path d="M 72 216.953465 
L 518.4 216.953465 
" clip-path="url(#p3b04d07c7f)" style="fill: none; stroke-dasharray: 1.85,0.8; stroke-dashoffset: 0; stroke: #b0b0b0; stroke-width: 0.5"/>
     </g>
     <g id="line2d_22">
      <g>
       <use xlink:href="#m116c80d5f7" x="72" y="216.953465" style="stroke: #000000; stroke-width: 0.8"/>
      </g>
     </g>
     <g id="text_3">
      <!-- 3000 -->
      <g transform="translate(39.55 220.752684) scale(0.1 -0.1)">
       <defs>
        <path id="DejaVuSans-33" d="M 2597 2516 
Q 3050 2419 3304 2112 
Q 3559 1806 3559 1356 
Q 3559 666 3084 287 
Q 2609 -91 1734 -91 
Q 1441 -91 1130 -33 
Q 819 25 488 141 
L 488 750 
Q 750 597 1062 519 
Q 1375 441 1716 441 
Q 2309 441 2620 675 
Q 2931 909 2931 1356 
Q 2931 1769 2642 2001 
Q 2353 2234 1838 2234 
L 1294 2234 
L 1294 2753 
L 1863 2753 
Q 2328 2753 2575 2939 
Q 2822 3125 2822 3475 
Q 2822 3834 2567 4026 
Q 2313 4219 1838 4219 
Q 1578 4219 1281 4162 
Q 984 4106 628 3988 
L 628 4550 
Q 988 4650 1302 4700 
Q 1616 4750 1894 4750 
Q 2613 4750 3031 4423 
Q 3450 4097 3450 3541 
Q 3450 3153 3228 2886 
Q 3006 2619 2597 2516 
z
" transform="scale(0.015625)"/>
       </defs>
       <use xlink:href="#DejaVuSans-33"/>
       <use xlink:href="#DejaVuSans-30" transform="translate(63.623047 0)"/>
       <use xlink:href="#DejaVuSans-30" transform="translate(127.246094 0)"/>
       <use xlink:href="#DejaVuSans-30" transform="translate(190.869141 0)"/>
      </g>
     </g>
    </g>
    <g id="ytick_4">
     <g id="line2d_23">
      <path d="M 72 185.689167 
L 518.4 185.689167 
" clip-path="url(#p3b04d07c7f)" style="fill: none; stroke-dasharray: 1.85,0.8; stroke-dashoffset: 0; stroke: #b0b0b0; stroke-width: 0.5"/>
     </g>
     <g id="line2d_24">
      <g>
       <use xlink:href="#m116c80d5f7" x="72" y="185.689167" style="stroke: #000000; stroke-width: 0.8"/>
      </g>
     </g>
     <g id="text_4">
      <!-- 4000 -->
      <g transform="translate(39.55 189.488386) scale(0.1 -0.1)">
       <defs>
        <path id="DejaVuSans-34" d="M 2419 4116 
L 825 1625 
L 2419 1625 
L 2419 4116 
z
M 2253 4666 
L 3047 4666 
L 3047 1625 
L 3713 1625 
L 3713 1100 
L 3047 1100 
L 3047 0 
L 2419 0 
L 2419 1100 
L 313 1100 
L 313 1709 
L 2253 4666 
z
" transform="scale(0.015625)"/>
       </defs>
       <use xlink:href="#DejaVuSans-34"/>
       <use xlink:href="#DejaVuSans-30" transform="translate(63.623047 0)"/>
       <use xlink:href="#DejaVuSans-30" transform="translate(127.246094 0)"/>
       <use xlink:href="#DejaVuSans-30" transform="translate(190.869141 0)"/>
      </g>
     </g>
    </g>
    <g id="ytick_5">
     <g id="line2d_25">
      <path d="M 72 154.424868 
L 518.4 154.424868 
" clip-path="url(#p3b04d07c7f)" style="fill: none; stroke-dasharray: 1.85,0.8; stroke-dashoffset: 0; stroke: #b0b0b0; stroke-width: 0.5"/>
     </g>
     <g id="line2d_26">
      <g>
       <use xlink:href="#m116c80d5f7" x="72" y="154.424868" style="stroke: #000000; stroke-width: 0.8"/>
      </g>
     </g>
     <g id="text_5">
      <!-- 5000 -->
      <g transform="translate(39.55 158.224087) scale(0.1 -0.1)">
       <defs>
        <path id="DejaVuSans-35" d="M 691 4666 
L 3169 4666 
L 3169 4134 
L 1269 4134 
L 1269 2991 
Q 1406 3038 1543 3061 
Q 1681 3084 1819 3084 
Q 2600 3084 3056 2656 
Q 3513 2228 3513 1497 
Q 3513 744 3044 326 
Q 2575 -91 1722 -91 
Q 1428 -91 1123 -41 
Q 819 9 494 109 
L 494 744 
Q 775 591 1075 516 
Q 1375 441 1709 441 
Q 2250 441 2565 725 
Q 2881 1009 2881 1497 
Q 2881 1984 2565 2268 
Q 2250 2553 1709 2553 
Q 1456 2553 1204 2497 
Q 953 2441 691 2322 
L 691 4666 
z
" transform="scale(0.015625)"/>
       </defs>
       <use xlink:href="#DejaVuSans-35"/>
       <use xlink:href="#DejaVuSans-30" transform="translate(63.623047 0)"/>
       <use xlink:href="#DejaVuSans-30" transform="translate(127.246094 0)"/>
       <use xlink:href="#DejaVuSans-30" transform="translate(190.869141 0)"/>
      </g>
     </g>
    </g>
    <g id="ytick_6">
     <g id="line2d_27">
      <path d="M 72 123.16057 
L 518.4 123.16057 
" clip-path="url(#p3b04d07c7f)" style="fill: none; stroke-dasharray: 1.85,0.8; stroke-dashoffset: 0; stroke: #b0b0b0; stroke-width: 0.5"/>
     </g>
     <g id="line2d_28">
      <g>
       <use xlink:href="#m116c80d5f7" x="72" y="123.16057" style="stroke: #000000; stroke-width: 0.8"/>
      </g>
     </g>
     <g id="text_6">
      <!-- 6000 -->
      <g transform="translate(39.55 126.959788) scale(0.1 -0.1)">
       <defs>
        <path id="DejaVuSans-36" d="M 2113 2584 
Q 1688 2584 1439 2293 
Q 1191 2003 1191 1497 
Q 1191 994 1439 701 
Q 1688 409 2113 409 
Q 2538 409 2786 701 
Q 3034 994 3034 1497 
Q 3034 2003 2786 2293 
Q 2538 2584 2113 2584 
z
M 3366 4563 
L 3366 3988 
Q 3128 4100 2886 4159 
Q 2644 4219 2406 4219 
Q 1781 4219 1451 3797 
Q 1122 3375 1075 2522 
Q 1259 2794 1537 2939 
Q 1816 3084 2150 3084 
Q 2853 3084 3261 2657 
Q 3669 2231 3669 1497 
Q 3669 778 3244 343 
Q 2819 -91 2113 -91 
Q 1303 -91 875 529 
Q 447 1150 447 2328 
Q 447 3434 972 4092 
Q 1497 4750 2381 4750 
Q 2619 4750 2861 4703 
Q 3103 4656 3366 4563 
z
" transform="scale(0.015625)"/>
       </defs>
       <use xlink:href="#DejaVuSans-36"/>
       <use xlink:href="#DejaVuSans-30" transform="translate(63.623047 0)"/>
       <use xlink:href="#DejaVuSans-30" transform="translate(127.246094 0)"/>
       <use xlink:href="#DejaVuSans-30" transform="translate(190.869141 0)"/>
      </g>
     </g>
    </g>
    <g id="ytick_7">
     <g id="line2d_29">
      <path d="M 72 91.896271 
L 518.4 91.896271 
" clip-path="url(#p3b04d07c7f)" style="fill: none; stroke-dasharray: 1.85,0.8; stroke-dashoffset: 0; stroke: #b0b0b0; stroke-width: 0.5"/>
     </g>
     <g id="line2d_30">
      <g>
       <use xlink:href="#m116c80d5f7" x="72" y="91.896271" style="stroke: #000000; stroke-width: 0.8"/>
      </g>
     </g>
     <g id="text_7">
      <!-- 7000 -->
      <g transform="translate(39.55 95.69549) scale(0.1 -0.1)">
       <defs>
        <path id="DejaVuSans-37" d="M 525 4666 
L 3525 4666 
L 3525 4397 
L 1831 0 
L 1172 0 
L 2766 4134 
L 525 4134 
L 525 4666 
z
" transform="scale(0.015625)"/>
       </defs>
       <use xlink:href="#DejaVuSans-37"/>
       <use xlink:href="#DejaVuSans-30" transform="translate(63.623047 0)"/>
       <use xlink:href="#DejaVuSans-30" transform="translate(127.246094 0)"/>
       <use xlink:href="#DejaVuSans-30" transform="translate(190.869141 0)"/>
      </g>
     </g>
    </g>
    <g id="ytick_8">
     <g id="line2d_31">
      <path d="M 72 60.631973 
L 518.4 60.631973 
" clip-path="url(#p3b04d07c7f)" style="fill: none; stroke-dasharray: 1.85,0.8; stroke-dashoffset: 0; stroke: #b0b0b0; stroke-width: 0.5"/>
     </g>
     <g id="line2d_32">
      <g>
       <use xlink:href="#m116c80d5f7" x="72" y="60.631973" style="stroke: #000000; stroke-width: 0.8"/>
      </g>
     </g>
     <g id="text_8">
      <!-- 8000 -->
      <g transform="translate(39.55 64.431191) scale(0.1 -0.1)">
       <defs>
        <path id="DejaVuSans-38" d="M 2034 2216 
Q 1584 2216 1326 1975 
Q 1069 1734 1069 1313 
Q 1069 891 1326 650 
Q 1584 409 2034 409 
Q 2484 409 2743 651 
Q 3003 894 3003 1313 
Q 3003 1734 2745 1975 
Q 2488 2216 2034 2216 
z
M 1403 2484 
Q 997 2584 770 2862 
Q 544 3141 544 3541 
Q 544 4100 942 4425 
Q 1341 4750 2034 4750 
Q 2731 4750 3128 4425 
Q 3525 4100 3525 3541 
Q 3525 3141 3298 2862 
Q 3072 2584 2669 2484 
Q 3125 2378 3379 2068 
Q 3634 1759 3634 1313 
Q 3634 634 3220 271 
Q 2806 -91 2034 -91 
Q 1263 -91 848 271 
Q 434 634 434 1313 
Q 434 1759 690 2068 
Q 947 2378 1403 2484 
z
M 1172 3481 
Q 1172 3119 1398 2916 
Q 1625 2713 2034 2713 
Q 2441 2713 2670 2916 
Q 2900 3119 2900 3481 
Q 2900 3844 2670 4047 
Q 2441 4250 2034 4250 
Q 1625 4250 1398 4047 
Q 1172 3844 1172 3481 
z
" transform="scale(0.015625)"/>
       </defs>
       <use xlink:href="#DejaVuSans-38"/>
       <use xlink:href="#DejaVuSans-30" transform="translate(63.623047 0)"/>
       <use xlink:href="#DejaVuSans-30" transform="translate(127.246094 0)"/>
       <use xlink:href="#DejaVuSans-30" transform="translate(190.869141 0)"/>
      </g>
     </g>
    </g>
    <g id="text_9">
     <!-- Peakposition (channels) -->
     <g transform="translate(33.470312 233.092248) rotate(-90) scale(0.1 -0.1)">
      <defs>
       <path id="DejaVuSans-50" d="M 1259 4147 
L 1259 2394 
L 2053 2394 
Q 2494 2394 2734 2622 
Q 2975 2850 2975 3272 
Q 2975 3691 2734 3919 
Q 2494 4147 2053 4147 
L 1259 4147 
z
M 628 4666 
L 2053 4666 
Q 2838 4666 3239 4311 
Q 3641 3956 3641 3272 
Q 3641 2581 3239 2228 
Q 2838 1875 2053 1875 
L 1259 1875 
L 1259 0 
L 628 0 
L 628 4666 
z
" transform="scale(0.015625)"/>
       <path id="DejaVuSans-65" d="M 3597 1894 
L 3597 1613 
L 953 1613 
Q 991 1019 1311 708 
Q 1631 397 2203 397 
Q 2534 397 2845 478 
Q 3156 559 3463 722 
L 3463 178 
Q 3153 47 2828 -22 
Q 2503 -91 2169 -91 
Q 1331 -91 842 396 
Q 353 884 353 1716 
Q 353 2575 817 3079 
Q 1281 3584 2069 3584 
Q 2775 3584 3186 3129 
Q 3597 2675 3597 1894 
z
M 3022 2063 
Q 3016 2534 2758 2815 
Q 2500 3097 2075 3097 
Q 1594 3097 1305 2825 
Q 1016 2553 972 2059 
L 3022 2063 
z
" transform="scale(0.015625)"/>
       <path id="DejaVuSans-61" d="M 2194 1759 
Q 1497 1759 1228 1600 
Q 959 1441 959 1056 
Q 959 750 1161 570 
Q 1363 391 1709 391 
Q 2188 391 2477 730 
Q 2766 1069 2766 1631 
L 2766 1759 
L 2194 1759 
z
M 3341 1997 
L 3341 0 
L 2766 0 
L 2766 531 
Q 2569 213 2275 61 
Q 1981 -91 1556 -91 
Q 1019 -91 701 211 
Q 384 513 384 1019 
Q 384 1609 779 1909 
Q 1175 2209 1959 2209 
L 2766 2209 
L 2766 2266 
Q 2766 2663 2505 2880 
Q 2244 3097 1772 3097 
Q 1472 3097 1187 3025 
Q 903 2953 641 2809 
L 641 3341 
Q 956 3463 1253 3523 
Q 1550 3584 1831 3584 
Q 2591 3584 2966 3190 
Q 3341 2797 3341 1997 
z
" transform="scale(0.015625)"/>
       <path id="DejaVuSans-6b" d="M 581 4863 
L 1159 4863 
L 1159 1991 
L 2875 3500 
L 3609 3500 
L 1753 1863 
L 3688 0 
L 2938 0 
L 1159 1709 
L 1159 0 
L 581 0 
L 581 4863 
z
" transform="scale(0.015625)"/>
       <path id="DejaVuSans-70" d="M 1159 525 
L 1159 -1331 
L 581 -1331 
L 581 3500 
L 1159 3500 
L 1159 2969 
Q 1341 3281 1617 3432 
Q 1894 3584 2278 3584 
Q 2916 3584 3314 3078 
Q 3713 2572 3713 1747 
Q 3713 922 3314 415 
Q 2916 -91 2278 -91 
Q 1894 -91 1617 61 
Q 1341 213 1159 525 
z
M 3116 1747 
Q 3116 2381 2855 2742 
Q 2594 3103 2138 3103 
Q 1681 3103 1420 2742 
Q 1159 2381 1159 1747 
Q 1159 1113 1420 752 
Q 1681 391 2138 391 
Q 2594 391 2855 752 
Q 3116 1113 3116 1747 
z
" transform="scale(0.015625)"/>
       <path id="DejaVuSans-6f" d="M 1959 3097 
Q 1497 3097 1228 2736 
Q 959 2375 959 1747 
Q 959 1119 1226 758 
Q 1494 397 1959 397 
Q 2419 397 2687 759 
Q 2956 1122 2956 1747 
Q 2956 2369 2687 2733 
Q 2419 3097 1959 3097 
z
M 1959 3584 
Q 2709 3584 3137 3096 
Q 3566 2609 3566 1747 
Q 3566 888 3137 398 
Q 2709 -91 1959 -91 
Q 1206 -91 779 398 
Q 353 888 353 1747 
Q 353 2609 779 3096 
Q 1206 3584 1959 3584 
z
" transform="scale(0.015625)"/>
       <path id="DejaVuSans-73" d="M 2834 3397 
L 2834 2853 
Q 2591 2978 2328 3040 
Q 2066 3103 1784 3103 
Q 1356 3103 1142 2972 
Q 928 2841 928 2578 
Q 928 2378 1081 2264 
Q 1234 2150 1697 2047 
L 1894 2003 
Q 2506 1872 2764 1633 
Q 3022 1394 3022 966 
Q 3022 478 2636 193 
Q 2250 -91 1575 -91 
Q 1294 -91 989 -36 
Q 684 19 347 128 
L 347 722 
Q 666 556 975 473 
Q 1284 391 1588 391 
Q 1994 391 2212 530 
Q 2431 669 2431 922 
Q 2431 1156 2273 1281 
Q 2116 1406 1581 1522 
L 1381 1569 
Q 847 1681 609 1914 
Q 372 2147 372 2553 
Q 372 3047 722 3315 
Q 1072 3584 1716 3584 
Q 2034 3584 2315 3537 
Q 2597 3491 2834 3397 
z
" transform="scale(0.015625)"/>
       <path id="DejaVuSans-69" d="M 603 3500 
L 1178 3500 
L 1178 0 
L 603 0 
L 603 3500 
z
M 603 4863 
L 1178 4863 
L 1178 4134 
L 603 4134 
L 603 4863 
z
" transform="scale(0.015625)"/>
       <path id="DejaVuSans-74" d="M 1172 4494 
L 1172 3500 
L 2356 3500 
L 2356 3053 
L 1172 3053 
L 1172 1153 
Q 1172 725 1289 603 
Q 1406 481 1766 481 
L 2356 481 
L 2356 0 
L 1766 0 
Q 1100 0 847 248 
Q 594 497 594 1153 
L 594 3053 
L 172 3053 
L 172 3500 
L 594 3500 
L 594 4494 
L 1172 4494 
z
" transform="scale(0.015625)"/>
       <path id="DejaVuSans-6e" d="M 3513 2113 
L 3513 0 
L 2938 0 
L 2938 2094 
Q 2938 2591 2744 2837 
Q 2550 3084 2163 3084 
Q 1697 3084 1428 2787 
Q 1159 2491 1159 1978 
L 1159 0 
L 581 0 
L 581 3500 
L 1159 3500 
L 1159 2956 
Q 1366 3272 1645 3428 
Q 1925 3584 2291 3584 
Q 2894 3584 3203 3211 
Q 3513 2838 3513 2113 
z
" transform="scale(0.015625)"/>
       <path id="DejaVuSans-20" transform="scale(0.015625)"/>
       <path id="DejaVuSans-28" d="M 1984 4856 
Q 1566 4138 1362 3434 
Q 1159 2731 1159 2009 
Q 1159 1288 1364 580 
Q 1569 -128 1984 -844 
L 1484 -844 
Q 1016 -109 783 600 
Q 550 1309 550 2009 
Q 550 2706 781 3412 
Q 1013 4119 1484 4856 
L 1984 4856 
z
" transform="scale(0.015625)"/>
       <path id="DejaVuSans-63" d="M 3122 3366 
L 3122 2828 
Q 2878 2963 2633 3030 
Q 2388 3097 2138 3097 
Q 1578 3097 1268 2742 
Q 959 2388 959 1747 
Q 959 1106 1268 751 
Q 1578 397 2138 397 
Q 2388 397 2633 464 
Q 2878 531 3122 666 
L 3122 134 
Q 2881 22 2623 -34 
Q 2366 -91 2075 -91 
Q 1284 -91 818 406 
Q 353 903 353 1747 
Q 353 2603 823 3093 
Q 1294 3584 2113 3584 
Q 2378 3584 2631 3529 
Q 2884 3475 3122 3366 
z
" transform="scale(0.015625)"/>
       <path id="DejaVuSans-68" d="M 3513 2113 
L 3513 0 
L 2938 0 
L 2938 2094 
Q 2938 2591 2744 2837 
Q 2550 3084 2163 3084 
Q 1697 3084 1428 2787 
Q 1159 2491 1159 1978 
L 1159 0 
L 581 0 
L 581 4863 
L 1159 4863 
L 1159 2956 
Q 1366 3272 1645 3428 
Q 1925 3584 2291 3584 
Q 2894 3584 3203 3211 
Q 3513 2838 3513 2113 
z
" transform="scale(0.015625)"/>
       <path id="DejaVuSans-6c" d="M 603 4863 
L 1178 4863 
L 1178 0 
L 603 0 
L 603 4863 
z
" transform="scale(0.015625)"/>
       <path id="DejaVuSans-29" d="M 513 4856 
L 1013 4856 
Q 1481 4119 1714 3412 
Q 1947 2706 1947 2009 
Q 1947 1309 1714 600 
Q 1481 -109 1013 -844 
L 513 -844 
Q 928 -128 1133 580 
Q 1338 1288 1338 2009 
Q 1338 2731 1133 3434 
Q 928 4138 513 4856 
z
" transform="scale(0.015625)"/>
      </defs>
      <use xlink:href="#DejaVuSans-50"/>
      <use xlink:href="#DejaVuSans-65" transform="translate(56.677734 0)"/>
      <use xlink:href="#DejaVuSans-61" transform="translate(118.201172 0)"/>
      <use xlink:href="#DejaVuSans-6b" transform="translate(179.480469 0)"/>
      <use xlink:href="#DejaVuSans-70" transform="translate(237.390625 0)"/>
      <use xlink:href="#DejaVuSans-6f" transform="translate(300.867188 0)"/>
      <use xlink:href="#DejaVuSans-73" transform="translate(362.048828 0)"/>
      <use xlink:href="#DejaVuSans-69" transform="translate(414.148438 0)"/>
      <use xlink:href="#DejaVuSans-74" transform="translate(441.931641 0)"/>
      <use xlink:href="#DejaVuSans-69" transform="translate(481.140625 0)"/>
      <use xlink:href="#DejaVuSans-6f" transform="translate(508.923828 0)"/>
      <use xlink:href="#DejaVuSans-6e" transform="translate(570.105469 0)"/>
      <use xlink:href="#DejaVuSans-20" transform="translate(633.484375 0)"/>
      <use xlink:href="#DejaVuSans-28" transform="translate(665.271484 0)"/>
      <use xlink:href="#DejaVuSans-63" transform="translate(704.285156 0)"/>
      <use xlink:href="#DejaVuSans-68" transform="translate(759.265625 0)"/>
      <use xlink:href="#DejaVuSans-61" transform="translate(822.644531 0)"/>
      <use xlink:href="#DejaVuSans-6e" transform="translate(883.923828 0)"/>
      <use xlink:href="#DejaVuSans-6e" transform="translate(947.302734 0)"/>
      <use xlink:href="#DejaVuSans-65" transform="translate(1010.681641 0)"/>
      <use xlink:href="#DejaVuSans-6c" transform="translate(1072.205078 0)"/>
      <use xlink:href="#DejaVuSans-73" transform="translate(1099.988281 0)"/>
      <use xlink:href="#DejaVuSans-29" transform="translate(1152.087891 0)"/>
     </g>
    </g>
   </g>
   <g id="line2d_33">
    <path d="M 97.427848 62.903415 
L 101.475133 65.04575 
L 105.522419 67.188084 
L 109.569704 69.330419 
L 113.616989 71.472754 
L 117.664275 73.615089 
L 121.71156 75.757424 
L 125.758845 77.899759 
L 129.80613 80.042094 
L 133.853416 82.184429 
L 137.900701 84.326764 
L 141.947986 86.469099 
L 145.995271 88.611434 
L 150.042557 90.753769 
L 154.089842 92.896103 
L 158.137127 95.038438 
L 162.184413 97.180773 
L 166.231698 99.323108 
L 170.278983 101.465443 
L 174.326268 103.607778 
L 178.373554 105.750113 
L 182.420839 107.892448 
L 186.468124 110.034783 
L 190.51541 112.177118 
L 194.562695 114.319453 
L 198.60998 116.461788 
L 202.657265 118.604122 
L 206.704551 120.746457 
L 210.751836 122.888792 
L 214.799121 125.031127 
L 218.846407 127.173462 
L 222.893692 129.315797 
L 226.940977 131.458132 
L 230.988262 133.600467 
L 235.035548 135.742802 
L 239.082833 137.885137 
L 243.130118 140.027472 
L 247.177403 142.169807 
L 251.224689 144.312142 
L 255.271974 146.454476 
L 259.319259 148.596811 
L 263.366545 150.739146 
L 267.41383 152.881481 
L 271.461115 155.023816 
L 275.5084 157.166151 
L 279.555686 159.308486 
L 283.602971 161.450821 
L 287.650256 163.593156 
L 291.697542 165.735491 
L 295.744827 167.877826 
L 299.792112 170.020161 
L 303.839397 172.162495 
L 307.886683 174.30483 
L 311.933968 176.447165 
L 315.981253 178.5895 
L 320.028539 180.731835 
L 324.075824 182.87417 
L 328.123109 185.016505 
L 332.170394 187.15884 
L 336.21768 189.301175 
L 340.264965 191.44351 
L 344.31225 193.585845 
L 348.359536 195.72818 
L 352.406821 197.870514 
L 356.454106 200.012849 
L 360.501391 202.155184 
L 364.548677 204.297519 
L 368.595962 206.439854 
L 372.643247 208.582189 
L 376.690532 210.724524 
L 380.737818 212.866859 
L 384.785103 215.009194 
L 388.832388 217.151529 
L 392.879674 219.293864 
L 396.926959 221.436199 
L 400.974244 223.578533 
L 405.021529 225.720868 
L 409.068815 227.863203 
L 413.1161 230.005538 
L 417.163385 232.147873 
L 421.210671 234.290208 
L 425.257956 236.432543 
L 429.305241 238.574878 
L 433.352526 240.717213 
L 437.399812 242.859548 
L 441.447097 245.001883 
L 445.494382 247.144218 
L 449.541668 249.286552 
L 453.588953 251.428887 
L 457.636238 253.571222 
L 461.683523 255.713557 
L 465.730809 257.855892 
L 469.778094 259.998227 
L 473.825379 262.140562 
L 477.872665 264.282897 
L 481.91995 266.425232 
L 485.967235 268.567567 
L 490.01452 270.709902 
L 494.061806 272.852237 
L 498.109091 274.994571 
" clip-path="url(#p3b04d07c7f)" style="fill: none; stroke: #800000; stroke-width: 1.5; stroke-linecap: square"/>
   </g>
   <g id="LineCollection_1">
    <path d="M 92.290909 71.01172 
L 102.564787 71.01172 
" clip-path="url(#p3b04d07c7f)" style="fill: none; stroke: #000000; stroke-width: 1.5"/>
    <path d="M 153.934177 84.267782 
L 164.208055 84.267782 
" clip-path="url(#p3b04d07c7f)" style="fill: none; stroke: #000000; stroke-width: 1.5"/>
    <path d="M 236.125201 111.155079 
L 246.399079 111.155079 
" clip-path="url(#p3b04d07c7f)" style="fill: none; stroke: #000000; stroke-width: 1.5"/>
    <path d="M 477.561335 282.608492 
L 498.109091 282.608492 
" clip-path="url(#p3b04d07c7f)" style="fill: none; stroke: #000000; stroke-width: 1.5"/>
   </g>
   <g id="LineCollection_2">
    <path d="M 97.427848 71.793327 
L 97.427848 70.230112 
" clip-path="url(#p3b04d07c7f)" style="fill: none; stroke: #000000; stroke-width: 1.5"/>
    <path d="M 159.071116 85.518354 
L 159.071116 83.01721 
" clip-path="url(#p3b04d07c7f)" style="fill: none; stroke: #000000; stroke-width: 1.5"/>
    <path d="M 241.26214 112.718294 
L 241.26214 109.591864 
" clip-path="url(#p3b04d07c7f)" style="fill: none; stroke: #000000; stroke-width: 1.5"/>
    <path d="M 487.835213 284.171707 
L 487.835213 281.045277 
" clip-path="url(#p3b04d07c7f)" style="fill: none; stroke: #000000; stroke-width: 1.5"/>
   </g>
   <g id="line2d_34">
    <defs>
     <path id="m87cd51e13b" d="M 0 5 
L 0 -5 
" style="stroke: #000000"/>
    </defs>
    <g clip-path="url(#p3b04d07c7f)">
     <use xlink:href="#m87cd51e13b" x="92.290909" y="71.01172" style="stroke: #000000"/>
     <use xlink:href="#m87cd51e13b" x="153.934177" y="84.267782" style="stroke: #000000"/>
     <use xlink:href="#m87cd51e13b" x="236.125201" y="111.155079" style="stroke: #000000"/>
     <use xlink:href="#m87cd51e13b" x="477.561335" y="282.608492" style="stroke: #000000"/>
    </g>
   </g>
   <g id="line2d_35">
    <g clip-path="url(#p3b04d07c7f)">
     <use xlink:href="#m87cd51e13b" x="102.564787" y="71.01172" style="stroke: #000000"/>
     <use xlink:href="#m87cd51e13b" x="164.208055" y="84.267782" style="stroke: #000000"/>
     <use xlink:href="#m87cd51e13b" x="246.399079" y="111.155079" style="stroke: #000000"/>
     <use xlink:href="#m87cd51e13b" x="498.109091" y="282.608492" style="stroke: #000000"/>
    </g>
   </g>
   <g id="line2d_36">
    <defs>
     <path id="me4a5684c86" d="M 5 0 
L -5 -0 
" style="stroke: #000000"/>
    </defs>
    <g clip-path="url(#p3b04d07c7f)">
     <use xlink:href="#me4a5684c86" x="97.427848" y="71.793327" style="stroke: #000000"/>
     <use xlink:href="#me4a5684c86" x="159.071116" y="85.518354" style="stroke: #000000"/>
     <use xlink:href="#me4a5684c86" x="241.26214" y="112.718294" style="stroke: #000000"/>
     <use xlink:href="#me4a5684c86" x="487.835213" y="284.171707" style="stroke: #000000"/>
    </g>
   </g>
   <g id="line2d_37">
    <g clip-path="url(#p3b04d07c7f)">
     <use xlink:href="#me4a5684c86" x="97.427848" y="70.230112" style="stroke: #000000"/>
     <use xlink:href="#me4a5684c86" x="159.071116" y="83.01721" style="stroke: #000000"/>
     <use xlink:href="#me4a5684c86" x="241.26214" y="109.591864" style="stroke: #000000"/>
     <use xlink:href="#me4a5684c86" x="487.835213" y="281.045277" style="stroke: #000000"/>
    </g>
   </g>
   <g id="line2d_38">
    <defs>
     <path id="mf1bc9d554b" d="M 0 3 
C 0.795609 3 1.55874 2.683901 2.12132 2.12132 
C 2.683901 1.55874 3 0.795609 3 0 
C 3 -0.795609 2.683901 -1.55874 2.12132 -2.12132 
C 1.55874 -2.683901 0.795609 -3 0 -3 
C -0.795609 -3 -1.55874 -2.683901 -2.12132 -2.12132 
C -2.683901 -1.55874 -3 -0.795609 -3 0 
C -3 0.795609 -2.683901 1.55874 -2.12132 2.12132 
C -1.55874 2.683901 -0.795609 3 0 3 
z
" style="stroke: #000000"/>
    </defs>
    <g clip-path="url(#p3b04d07c7f)">
     <use xlink:href="#mf1bc9d554b" x="97.427848" y="71.01172" style="stroke: #000000"/>
     <use xlink:href="#mf1bc9d554b" x="159.071116" y="84.267782" style="stroke: #000000"/>
     <use xlink:href="#mf1bc9d554b" x="241.26214" y="111.155079" style="stroke: #000000"/>
     <use xlink:href="#mf1bc9d554b" x="487.835213" y="282.608492" style="stroke: #000000"/>
    </g>
   </g>
   <g id="patch_3">
    <path d="M 72 295.235122 
L 72 51.84 
" style="fill: none; stroke: #000000; stroke-width: 0.8; stroke-linejoin: miter; stroke-linecap: square"/>
   </g>
   <g id="patch_4">
    <path d="M 518.4 295.235122 
L 518.4 51.84 
" style="fill: none; stroke: #000000; stroke-width: 0.8; stroke-linejoin: miter; stroke-linecap: square"/>
   </g>
   <g id="patch_5">
    <path d="M 72 295.235122 
L 518.4 295.235122 
" style="fill: none; stroke: #000000; stroke-width: 0.8; stroke-linejoin: miter; stroke-linecap: square"/>
   </g>
   <g id="patch_6">
    <path d="M 72 51.84 
L 518.4 51.84 
" style="fill: none; stroke: #000000; stroke-width: 0.8; stroke-linejoin: miter; stroke-linecap: square"/>
   </g>
   <g id="text_10">
    <g id="patch_7">
     <path d="M 94.32 202.188686 
L 214.44 202.188686 
Q 218.04 202.188686 218.04 198.588686 
L 218.04 173.537561 
Q 218.04 169.937561 214.44 169.937561 
L 94.32 169.937561 
Q 90.72 169.937561 90.72 173.537561 
L 90.72 198.588686 
Q 90.72 202.188686 94.32 202.188686 
z
" style="fill: #ffffff; opacity: 0.5; stroke: #000000; stroke-linejoin: miter"/>
    </g>
    <!-- m = -1739.4 $\pm$ 14.4 -->
    <g transform="translate(94.32 182.655686) scale(0.12 -0.12)">
     <defs>
      <path id="DejaVuSans-6d" d="M 3328 2828 
Q 3544 3216 3844 3400 
Q 4144 3584 4550 3584 
Q 5097 3584 5394 3201 
Q 5691 2819 5691 2113 
L 5691 0 
L 5113 0 
L 5113 2094 
Q 5113 2597 4934 2840 
Q 4756 3084 4391 3084 
Q 3944 3084 3684 2787 
Q 3425 2491 3425 1978 
L 3425 0 
L 2847 0 
L 2847 2094 
Q 2847 2600 2669 2842 
Q 2491 3084 2119 3084 
Q 1678 3084 1418 2786 
Q 1159 2488 1159 1978 
L 1159 0 
L 581 0 
L 581 3500 
L 1159 3500 
L 1159 2956 
Q 1356 3278 1631 3431 
Q 1906 3584 2284 3584 
Q 2666 3584 2933 3390 
Q 3200 3197 3328 2828 
z
" transform="scale(0.015625)"/>
      <path id="DejaVuSans-3d" d="M 678 2906 
L 4684 2906 
L 4684 2381 
L 678 2381 
L 678 2906 
z
M 678 1631 
L 4684 1631 
L 4684 1100 
L 678 1100 
L 678 1631 
z
" transform="scale(0.015625)"/>
      <path id="DejaVuSans-2d" d="M 313 2009 
L 1997 2009 
L 1997 1497 
L 313 1497 
L 313 2009 
z
" transform="scale(0.015625)"/>
      <path id="DejaVuSans-39" d="M 703 97 
L 703 672 
Q 941 559 1184 500 
Q 1428 441 1663 441 
Q 2288 441 2617 861 
Q 2947 1281 2994 2138 
Q 2813 1869 2534 1725 
Q 2256 1581 1919 1581 
Q 1219 1581 811 2004 
Q 403 2428 403 3163 
Q 403 3881 828 4315 
Q 1253 4750 1959 4750 
Q 2769 4750 3195 4129 
Q 3622 3509 3622 2328 
Q 3622 1225 3098 567 
Q 2575 -91 1691 -91 
Q 1453 -91 1209 -44 
Q 966 3 703 97 
z
M 1959 2075 
Q 2384 2075 2632 2365 
Q 2881 2656 2881 3163 
Q 2881 3666 2632 3958 
Q 2384 4250 1959 4250 
Q 1534 4250 1286 3958 
Q 1038 3666 1038 3163 
Q 1038 2656 1286 2365 
Q 1534 2075 1959 2075 
z
" transform="scale(0.015625)"/>
      <path id="DejaVuSans-2e" d="M 684 794 
L 1344 794 
L 1344 0 
L 684 0 
L 684 794 
z
" transform="scale(0.015625)"/>
      <path id="DejaVuSans-b1" d="M 2944 4013 
L 2944 2803 
L 4684 2803 
L 4684 2272 
L 2944 2272 
L 2944 1063 
L 2419 1063 
L 2419 2272 
L 678 2272 
L 678 2803 
L 2419 2803 
L 2419 4013 
L 2944 4013 
z
M 678 531 
L 4684 531 
L 4684 0 
L 678 0 
L 678 531 
z
" transform="scale(0.015625)"/>
     </defs>
     <use xlink:href="#DejaVuSans-6d" transform="translate(0 0.78125)"/>
     <use xlink:href="#DejaVuSans-20" transform="translate(97.412109 0.78125)"/>
     <use xlink:href="#DejaVuSans-3d" transform="translate(129.199219 0.78125)"/>
     <use xlink:href="#DejaVuSans-20" transform="translate(212.988281 0.78125)"/>
     <use xlink:href="#DejaVuSans-2d" transform="translate(244.775391 0.78125)"/>
     <use xlink:href="#DejaVuSans-31" transform="translate(280.859375 0.78125)"/>
     <use xlink:href="#DejaVuSans-37" transform="translate(344.482422 0.78125)"/>
     <use xlink:href="#DejaVuSans-33" transform="translate(408.105469 0.78125)"/>
     <use xlink:href="#DejaVuSans-39" transform="translate(471.728516 0.78125)"/>
     <use xlink:href="#DejaVuSans-2e" transform="translate(535.351562 0.78125)"/>
     <use xlink:href="#DejaVuSans-34" transform="translate(567.138672 0.78125)"/>
     <use xlink:href="#DejaVuSans-20" transform="translate(630.761719 0.78125)"/>
     <use xlink:href="#DejaVuSans-b1" transform="translate(662.548828 0.78125)"/>
     <use xlink:href="#DejaVuSans-20" transform="translate(746.337891 0.78125)"/>
     <use xlink:href="#DejaVuSans-31" transform="translate(778.125 0.78125)"/>
     <use xlink:href="#DejaVuSans-34" transform="translate(841.748047 0.78125)"/>
     <use xlink:href="#DejaVuSans-2e" transform="translate(905.371094 0.78125)"/>
     <use xlink:href="#DejaVuSans-34" transform="translate(937.158203 0.78125)"/>
    </g>
    <!-- b = 8605.7 $\pm$ 25.1 -->
    <g transform="translate(94.32 196.093061) scale(0.12 -0.12)">
     <defs>
      <path id="DejaVuSans-62" d="M 3116 1747 
Q 3116 2381 2855 2742 
Q 2594 3103 2138 3103 
Q 1681 3103 1420 2742 
Q 1159 2381 1159 1747 
Q 1159 1113 1420 752 
Q 1681 391 2138 391 
Q 2594 391 2855 752 
Q 3116 1113 3116 1747 
z
M 1159 2969 
Q 1341 3281 1617 3432 
Q 1894 3584 2278 3584 
Q 2916 3584 3314 3078 
Q 3713 2572 3713 1747 
Q 3713 922 3314 415 
Q 2916 -91 2278 -91 
Q 1894 -91 1617 61 
Q 1341 213 1159 525 
L 1159 0 
L 581 0 
L 581 4863 
L 1159 4863 
L 1159 2969 
z
" transform="scale(0.015625)"/>
     </defs>
     <use xlink:href="#DejaVuSans-62" transform="translate(0 0.015625)"/>
     <use xlink:href="#DejaVuSans-20" transform="translate(63.476562 0.015625)"/>
     <use xlink:href="#DejaVuSans-3d" transform="translate(95.263672 0.015625)"/>
     <use xlink:href="#DejaVuSans-20" transform="translate(179.052734 0.015625)"/>
     <use xlink:href="#DejaVuSans-38" transform="translate(210.839844 0.015625)"/>
     <use xlink:href="#DejaVuSans-36" transform="translate(274.462891 0.015625)"/>
     <use xlink:href="#DejaVuSans-30" transform="translate(338.085938 0.015625)"/>
     <use xlink:href="#DejaVuSans-35" transform="translate(401.708984 0.015625)"/>
     <use xlink:href="#DejaVuSans-2e" transform="translate(465.332031 0.015625)"/>
     <use xlink:href="#DejaVuSans-37" transform="translate(489.369141 0.015625)"/>
     <use xlink:href="#DejaVuSans-20" transform="translate(552.992188 0.015625)"/>
     <use xlink:href="#DejaVuSans-b1" transform="translate(584.779297 0.015625)"/>
     <use xlink:href="#DejaVuSans-20" transform="translate(668.568359 0.015625)"/>
     <use xlink:href="#DejaVuSans-32" transform="translate(700.355469 0.015625)"/>
     <use xlink:href="#DejaVuSans-35" transform="translate(763.978516 0.015625)"/>
     <use xlink:href="#DejaVuSans-2e" transform="translate(827.601562 0.015625)"/>
     <use xlink:href="#DejaVuSans-31" transform="translate(859.388672 0.015625)"/>
    </g>
   </g>
   <g id="legend_1">
    <g id="patch_8">
     <path d="M 403.560937 89.19625 
L 511.4 89.19625 
Q 513.4 89.19625 513.4 87.19625 
L 513.4 58.84 
Q 513.4 56.84 511.4 56.84 
L 403.560937 56.84 
Q 401.560937 56.84 401.560937 58.84 
L 401.560937 87.19625 
Q 401.560937 89.19625 403.560937 89.19625 
z
" style="fill: #ffffff; opacity: 0.8; stroke: #cccccc; stroke-linejoin: miter"/>
    </g>
    <g id="line2d_39">
     <path d="M 405.560937 64.938437 
L 415.560937 64.938437 
L 425.560937 64.938437 
" style="fill: none; stroke: #800000; stroke-width: 1.5; stroke-linecap: square"/>
    </g>
    <g id="text_11">
     <!-- Fit -->
     <g transform="translate(433.560937 68.438437) scale(0.1 -0.1)">
      <defs>
       <path id="DejaVuSans-46" d="M 628 4666 
L 3309 4666 
L 3309 4134 
L 1259 4134 
L 1259 2759 
L 3109 2759 
L 3109 2228 
L 1259 2228 
L 1259 0 
L 628 0 
L 628 4666 
z
" transform="scale(0.015625)"/>
      </defs>
      <use xlink:href="#DejaVuSans-46"/>
      <use xlink:href="#DejaVuSans-69" transform="translate(50.269531 0)"/>
      <use xlink:href="#DejaVuSans-74" transform="translate(78.052734 0)"/>
     </g>
    </g>
    <g id="LineCollection_3">
     <path d="M 410.560937 79.616562 
L 420.560937 79.616562 
" style="fill: none; stroke: #000000; stroke-width: 1.5"/>
    </g>
    <g id="LineCollection_4">
     <path d="M 415.560937 84.616562 
L 415.560937 74.616562 
" style="fill: none; stroke: #000000; stroke-width: 1.5"/>
    </g>
    <g id="line2d_40">
     <g>
      <use xlink:href="#m87cd51e13b" x="410.560937" y="79.616562" style="stroke: #000000"/>
     </g>
    </g>
    <g id="line2d_41">
     <g>
      <use xlink:href="#m87cd51e13b" x="420.560937" y="79.616562" style="stroke: #000000"/>
     </g>
    </g>
    <g id="line2d_42">
     <g>
      <use xlink:href="#me4a5684c86" x="415.560937" y="84.616562" style="stroke: #000000"/>
     </g>
    </g>
    <g id="line2d_43">
     <g>
      <use xlink:href="#me4a5684c86" x="415.560937" y="74.616562" style="stroke: #000000"/>
     </g>
    </g>
    <g id="line2d_44"/>
    <g id="line2d_45">
     <g>
      <use xlink:href="#mf1bc9d554b" x="415.560937" y="79.616562" style="stroke: #000000"/>
     </g>
    </g>
    <g id="text_12">
     <!-- Peakpositionen -->
     <g transform="translate(433.560937 83.116562) scale(0.1 -0.1)">
      <use xlink:href="#DejaVuSans-50"/>
      <use xlink:href="#DejaVuSans-65" transform="translate(56.677734 0)"/>
      <use xlink:href="#DejaVuSans-61" transform="translate(118.201172 0)"/>
      <use xlink:href="#DejaVuSans-6b" transform="translate(179.480469 0)"/>
      <use xlink:href="#DejaVuSans-70" transform="translate(237.390625 0)"/>
      <use xlink:href="#DejaVuSans-6f" transform="translate(300.867188 0)"/>
      <use xlink:href="#DejaVuSans-73" transform="translate(362.048828 0)"/>
      <use xlink:href="#DejaVuSans-69" transform="translate(414.148438 0)"/>
      <use xlink:href="#DejaVuSans-74" transform="translate(441.931641 0)"/>
      <use xlink:href="#DejaVuSans-69" transform="translate(481.140625 0)"/>
      <use xlink:href="#DejaVuSans-6f" transform="translate(508.923828 0)"/>
      <use xlink:href="#DejaVuSans-6e" transform="translate(570.105469 0)"/>
      <use xlink:href="#DejaVuSans-65" transform="translate(633.484375 0)"/>
      <use xlink:href="#DejaVuSans-6e" transform="translate(695.007812 0)"/>
     </g>
    </g>
   </g>
  </g>
  <g id="axes_2">
   <g id="patch_9">
    <path d="M 72 384.48 
L 518.4 384.48 
L 518.4 303.348293 
L 72 303.348293 
z
" style="fill: #ffffff"/>
   </g>
   <g id="matplotlib.axis_3">
    <g id="xtick_9">
     <g id="line2d_46">
      <path d="M 108.729114 384.48 
L 108.729114 303.348293 
" clip-path="url(#p73a747005a)" style="fill: none; stroke-dasharray: 1.85,0.8; stroke-dashoffset: 0; stroke: #b0b0b0; stroke-width: 0.5"/>
     </g>
     <g id="line2d_47">
      <g>
       <use xlink:href="#m316346a630" x="108.729114" y="384.48" style="stroke: #000000; stroke-width: 0.8"/>
      </g>
     </g>
     <g id="text_13">
      <!-- 0.5 -->
      <g transform="translate(100.777551 399.078438) scale(0.1 -0.1)">
       <use xlink:href="#DejaVuSans-30"/>
       <use xlink:href="#DejaVuSans-2e" transform="translate(63.623047 0)"/>
       <use xlink:href="#DejaVuSans-35" transform="translate(95.410156 0)"/>
      </g>
     </g>
    </g>
    <g id="xtick_10">
     <g id="line2d_48">
      <path d="M 160.098504 384.48 
L 160.098504 303.348293 
" clip-path="url(#p73a747005a)" style="fill: none; stroke-dasharray: 1.85,0.8; stroke-dashoffset: 0; stroke: #b0b0b0; stroke-width: 0.5"/>
     </g>
     <g id="line2d_49">
      <g>
       <use xlink:href="#m316346a630" x="160.098504" y="384.48" style="stroke: #000000; stroke-width: 0.8"/>
      </g>
     </g>
     <g id="text_14">
      <!-- 1.0 -->
      <g transform="translate(152.146942 399.078438) scale(0.1 -0.1)">
       <use xlink:href="#DejaVuSans-31"/>
       <use xlink:href="#DejaVuSans-2e" transform="translate(63.623047 0)"/>
       <use xlink:href="#DejaVuSans-30" transform="translate(95.410156 0)"/>
      </g>
     </g>
    </g>
    <g id="xtick_11">
     <g id="line2d_50">
      <path d="M 211.467894 384.48 
L 211.467894 303.348293 
" clip-path="url(#p73a747005a)" style="fill: none; stroke-dasharray: 1.85,0.8; stroke-dashoffset: 0; stroke: #b0b0b0; stroke-width: 0.5"/>
     </g>
     <g id="line2d_51">
      <g>
       <use xlink:href="#m316346a630" x="211.467894" y="384.48" style="stroke: #000000; stroke-width: 0.8"/>
      </g>
     </g>
     <g id="text_15">
      <!-- 1.5 -->
      <g transform="translate(203.516332 399.078438) scale(0.1 -0.1)">
       <use xlink:href="#DejaVuSans-31"/>
       <use xlink:href="#DejaVuSans-2e" transform="translate(63.623047 0)"/>
       <use xlink:href="#DejaVuSans-35" transform="translate(95.410156 0)"/>
      </g>
     </g>
    </g>
    <g id="xtick_12">
     <g id="line2d_52">
      <path d="M 262.837284 384.48 
L 262.837284 303.348293 
" clip-path="url(#p73a747005a)" style="fill: none; stroke-dasharray: 1.85,0.8; stroke-dashoffset: 0; stroke: #b0b0b0; stroke-width: 0.5"/>
     </g>
     <g id="line2d_53">
      <g>
       <use xlink:href="#m316346a630" x="262.837284" y="384.48" style="stroke: #000000; stroke-width: 0.8"/>
      </g>
     </g>
     <g id="text_16">
      <!-- 2.0 -->
      <g transform="translate(254.885722 399.078438) scale(0.1 -0.1)">
       <use xlink:href="#DejaVuSans-32"/>
       <use xlink:href="#DejaVuSans-2e" transform="translate(63.623047 0)"/>
       <use xlink:href="#DejaVuSans-30" transform="translate(95.410156 0)"/>
      </g>
     </g>
    </g>
    <g id="xtick_13">
     <g id="line2d_54">
      <path d="M 314.206674 384.48 
L 314.206674 303.348293 
" clip-path="url(#p73a747005a)" style="fill: none; stroke-dasharray: 1.85,0.8; stroke-dashoffset: 0; stroke: #b0b0b0; stroke-width: 0.5"/>
     </g>
     <g id="line2d_55">
      <g>
       <use xlink:href="#m316346a630" x="314.206674" y="384.48" style="stroke: #000000; stroke-width: 0.8"/>
      </g>
     </g>
     <g id="text_17">
      <!-- 2.5 -->
      <g transform="translate(306.255112 399.078438) scale(0.1 -0.1)">
       <use xlink:href="#DejaVuSans-32"/>
       <use xlink:href="#DejaVuSans-2e" transform="translate(63.623047 0)"/>
       <use xlink:href="#DejaVuSans-35" transform="translate(95.410156 0)"/>
      </g>
     </g>
    </g>
    <g id="xtick_14">
     <g id="line2d_56">
      <path d="M 365.576064 384.48 
L 365.576064 303.348293 
" clip-path="url(#p73a747005a)" style="fill: none; stroke-dasharray: 1.85,0.8; stroke-dashoffset: 0; stroke: #b0b0b0; stroke-width: 0.5"/>
     </g>
     <g id="line2d_57">
      <g>
       <use xlink:href="#m316346a630" x="365.576064" y="384.48" style="stroke: #000000; stroke-width: 0.8"/>
      </g>
     </g>
     <g id="text_18">
      <!-- 3.0 -->
      <g transform="translate(357.624502 399.078438) scale(0.1 -0.1)">
       <use xlink:href="#DejaVuSans-33"/>
       <use xlink:href="#DejaVuSans-2e" transform="translate(63.623047 0)"/>
       <use xlink:href="#DejaVuSans-30" transform="translate(95.410156 0)"/>
      </g>
     </g>
    </g>
    <g id="xtick_15">
     <g id="line2d_58">
      <path d="M 416.945455 384.48 
L 416.945455 303.348293 
" clip-path="url(#p73a747005a)" style="fill: none; stroke-dasharray: 1.85,0.8; stroke-dashoffset: 0; stroke: #b0b0b0; stroke-width: 0.5"/>
     </g>
     <g id="line2d_59">
      <g>
       <use xlink:href="#m316346a630" x="416.945455" y="384.48" style="stroke: #000000; stroke-width: 0.8"/>
      </g>
     </g>
     <g id="text_19">
      <!-- 3.5 -->
      <g transform="translate(408.993892 399.078438) scale(0.1 -0.1)">
       <use xlink:href="#DejaVuSans-33"/>
       <use xlink:href="#DejaVuSans-2e" transform="translate(63.623047 0)"/>
       <use xlink:href="#DejaVuSans-35" transform="translate(95.410156 0)"/>
      </g>
     </g>
    </g>
    <g id="xtick_16">
     <g id="line2d_60">
      <path d="M 468.314845 384.48 
L 468.314845 303.348293 
" clip-path="url(#p73a747005a)" style="fill: none; stroke-dasharray: 1.85,0.8; stroke-dashoffset: 0; stroke: #b0b0b0; stroke-width: 0.5"/>
     </g>
     <g id="line2d_61">
      <g>
       <use xlink:href="#m316346a630" x="468.314845" y="384.48" style="stroke: #000000; stroke-width: 0.8"/>
      </g>
     </g>
     <g id="text_20">
      <!-- 4.0 -->
      <g transform="translate(460.363282 399.078438) scale(0.1 -0.1)">
       <use xlink:href="#DejaVuSans-34"/>
       <use xlink:href="#DejaVuSans-2e" transform="translate(63.623047 0)"/>
       <use xlink:href="#DejaVuSans-30" transform="translate(95.410156 0)"/>
      </g>
     </g>
    </g>
    <g id="text_21">
     <!-- $\Delta$ Abstand (cm) -->
     <g transform="translate(256.5 412.756563) scale(0.1 -0.1)">
      <defs>
       <path id="DejaVuSans-394" d="M 2188 4044 
L 906 525 
L 3472 525 
L 2188 4044 
z
M 50 0 
L 1831 4666 
L 2547 4666 
L 4325 0 
L 50 0 
z
" transform="scale(0.015625)"/>
       <path id="DejaVuSans-41" d="M 2188 4044 
L 1331 1722 
L 3047 1722 
L 2188 4044 
z
M 1831 4666 
L 2547 4666 
L 4325 0 
L 3669 0 
L 3244 1197 
L 1141 1197 
L 716 0 
L 50 0 
L 1831 4666 
z
" transform="scale(0.015625)"/>
       <path id="DejaVuSans-64" d="M 2906 2969 
L 2906 4863 
L 3481 4863 
L 3481 0 
L 2906 0 
L 2906 525 
Q 2725 213 2448 61 
Q 2172 -91 1784 -91 
Q 1150 -91 751 415 
Q 353 922 353 1747 
Q 353 2572 751 3078 
Q 1150 3584 1784 3584 
Q 2172 3584 2448 3432 
Q 2725 3281 2906 2969 
z
M 947 1747 
Q 947 1113 1208 752 
Q 1469 391 1925 391 
Q 2381 391 2643 752 
Q 2906 1113 2906 1747 
Q 2906 2381 2643 2742 
Q 2381 3103 1925 3103 
Q 1469 3103 1208 2742 
Q 947 2381 947 1747 
z
" transform="scale(0.015625)"/>
      </defs>
      <use xlink:href="#DejaVuSans-394" transform="translate(0 0.015625)"/>
      <use xlink:href="#DejaVuSans-20" transform="translate(68.408203 0.015625)"/>
      <use xlink:href="#DejaVuSans-41" transform="translate(100.195312 0.015625)"/>
      <use xlink:href="#DejaVuSans-62" transform="translate(168.603516 0.015625)"/>
      <use xlink:href="#DejaVuSans-73" transform="translate(232.080078 0.015625)"/>
      <use xlink:href="#DejaVuSans-74" transform="translate(284.179688 0.015625)"/>
      <use xlink:href="#DejaVuSans-61" transform="translate(323.388672 0.015625)"/>
      <use xlink:href="#DejaVuSans-6e" transform="translate(384.667969 0.015625)"/>
      <use xlink:href="#DejaVuSans-64" transform="translate(448.046875 0.015625)"/>
      <use xlink:href="#DejaVuSans-20" transform="translate(511.523438 0.015625)"/>
      <use xlink:href="#DejaVuSans-28" transform="translate(543.310547 0.015625)"/>
      <use xlink:href="#DejaVuSans-63" transform="translate(582.324219 0.015625)"/>
      <use xlink:href="#DejaVuSans-6d" transform="translate(637.304688 0.015625)"/>
      <use xlink:href="#DejaVuSans-29" transform="translate(734.716797 0.015625)"/>
     </g>
    </g>
   </g>
   <g id="matplotlib.axis_4">
    <g id="ytick_9">
     <g id="line2d_62">
      <path d="M 72 382.494189 
L 518.4 382.494189 
" clip-path="url(#p73a747005a)" style="fill: none; stroke-dasharray: 1.85,0.8; stroke-dashoffset: 0; stroke: #b0b0b0; stroke-width: 0.5"/>
     </g>
     <g id="line2d_63">
      <g>
       <use xlink:href="#m116c80d5f7" x="72" y="382.494189" style="stroke: #000000; stroke-width: 0.8"/>
      </g>
     </g>
     <g id="text_22">
      <!-- −500 -->
      <g transform="translate(37.532812 386.293408) scale(0.1 -0.1)">
       <defs>
        <path id="DejaVuSans-2212" d="M 678 2272 
L 4684 2272 
L 4684 1741 
L 678 1741 
L 678 2272 
z
" transform="scale(0.015625)"/>
       </defs>
       <use xlink:href="#DejaVuSans-2212"/>
       <use xlink:href="#DejaVuSans-35" transform="translate(83.789062 0)"/>
       <use xlink:href="#DejaVuSans-30" transform="translate(147.412109 0)"/>
       <use xlink:href="#DejaVuSans-30" transform="translate(211.035156 0)"/>
      </g>
     </g>
    </g>
    <g id="ytick_10">
     <g id="line2d_64">
      <path d="M 72 356.327404 
L 518.4 356.327404 
" clip-path="url(#p73a747005a)" style="fill: none; stroke-dasharray: 1.85,0.8; stroke-dashoffset: 0; stroke: #b0b0b0; stroke-width: 0.5"/>
     </g>
     <g id="line2d_65">
      <g>
       <use xlink:href="#m116c80d5f7" x="72" y="356.327404" style="stroke: #000000; stroke-width: 0.8"/>
      </g>
     </g>
     <g id="text_23">
      <!-- 0 -->
      <g transform="translate(58.6375 360.126623) scale(0.1 -0.1)">
       <use xlink:href="#DejaVuSans-30"/>
      </g>
     </g>
    </g>
    <g id="ytick_11">
     <g id="line2d_66">
      <path d="M 72 330.160619 
L 518.4 330.160619 
" clip-path="url(#p73a747005a)" style="fill: none; stroke-dasharray: 1.85,0.8; stroke-dashoffset: 0; stroke: #b0b0b0; stroke-width: 0.5"/>
     </g>
     <g id="line2d_67">
      <g>
       <use xlink:href="#m116c80d5f7" x="72" y="330.160619" style="stroke: #000000; stroke-width: 0.8"/>
      </g>
     </g>
     <g id="text_24">
      <!-- 500 -->
      <g transform="translate(45.9125 333.959838) scale(0.1 -0.1)">
       <use xlink:href="#DejaVuSans-35"/>
       <use xlink:href="#DejaVuSans-30" transform="translate(63.623047 0)"/>
       <use xlink:href="#DejaVuSans-30" transform="translate(127.246094 0)"/>
      </g>
     </g>
    </g>
    <g id="ytick_12">
     <g id="line2d_68">
      <path d="M 72 303.993834 
L 518.4 303.993834 
" clip-path="url(#p73a747005a)" style="fill: none; stroke-dasharray: 1.85,0.8; stroke-dashoffset: 0; stroke: #b0b0b0; stroke-width: 0.5"/>
     </g>
     <g id="line2d_69">
      <g>
       <use xlink:href="#m116c80d5f7" x="72" y="303.993834" style="stroke: #000000; stroke-width: 0.8"/>
      </g>
     </g>
     <g id="text_25">
      <!-- 1000 -->
      <g transform="translate(39.55 307.793053) scale(0.1 -0.1)">
       <use xlink:href="#DejaVuSans-31"/>
       <use xlink:href="#DejaVuSans-30" transform="translate(63.623047 0)"/>
       <use xlink:href="#DejaVuSans-30" transform="translate(127.246094 0)"/>
       <use xlink:href="#DejaVuSans-30" transform="translate(190.869141 0)"/>
      </g>
     </g>
    </g>
    <g id="text_26">
     <!-- Residuen -->
     <g transform="translate(31.453125 366.821959) rotate(-90) scale(0.1 -0.1)">
      <defs>
       <path id="DejaVuSans-52" d="M 2841 2188 
Q 3044 2119 3236 1894 
Q 3428 1669 3622 1275 
L 4263 0 
L 3584 0 
L 2988 1197 
Q 2756 1666 2539 1819 
Q 2322 1972 1947 1972 
L 1259 1972 
L 1259 0 
L 628 0 
L 628 4666 
L 2053 4666 
Q 2853 4666 3247 4331 
Q 3641 3997 3641 3322 
Q 3641 2881 3436 2590 
Q 3231 2300 2841 2188 
z
M 1259 4147 
L 1259 2491 
L 2053 2491 
Q 2509 2491 2742 2702 
Q 2975 2913 2975 3322 
Q 2975 3731 2742 3939 
Q 2509 4147 2053 4147 
L 1259 4147 
z
" transform="scale(0.015625)"/>
       <path id="DejaVuSans-75" d="M 544 1381 
L 544 3500 
L 1119 3500 
L 1119 1403 
Q 1119 906 1312 657 
Q 1506 409 1894 409 
Q 2359 409 2629 706 
Q 2900 1003 2900 1516 
L 2900 3500 
L 3475 3500 
L 3475 0 
L 2900 0 
L 2900 538 
Q 2691 219 2414 64 
Q 2138 -91 1772 -91 
Q 1169 -91 856 284 
Q 544 659 544 1381 
z
M 1991 3584 
L 1991 3584 
z
" transform="scale(0.015625)"/>
      </defs>
      <use xlink:href="#DejaVuSans-52"/>
      <use xlink:href="#DejaVuSans-65" transform="translate(64.982422 0)"/>
      <use xlink:href="#DejaVuSans-73" transform="translate(126.505859 0)"/>
      <use xlink:href="#DejaVuSans-69" transform="translate(178.605469 0)"/>
      <use xlink:href="#DejaVuSans-64" transform="translate(206.388672 0)"/>
      <use xlink:href="#DejaVuSans-75" transform="translate(269.865234 0)"/>
      <use xlink:href="#DejaVuSans-65" transform="translate(333.244141 0)"/>
      <use xlink:href="#DejaVuSans-6e" transform="translate(394.767578 0)"/>
     </g>
    </g>
   </g>
   <g id="LineCollection_5">
    <path d="M 92.290909 369.899964 
L 102.564787 369.899964 
" clip-path="url(#p73a747005a)" style="fill: none; stroke: #800000; stroke-width: 1.5"/>
    <path d="M 153.934177 337.470758 
L 164.208055 337.470758 
" clip-path="url(#p73a747005a)" style="fill: none; stroke: #800000; stroke-width: 1.5"/>
    <path d="M 236.125201 309.652776 
L 246.399079 309.652776 
" clip-path="url(#p73a747005a)" style="fill: none; stroke: #800000; stroke-width: 1.5"/>
    <path d="M 477.561335 378.175517 
L 498.109091 378.175517 
" clip-path="url(#p73a747005a)" style="fill: none; stroke: #800000; stroke-width: 1.5"/>
   </g>
   <g id="LineCollection_6">
    <path d="M 97.427848 371.208303 
L 97.427848 368.591625 
" clip-path="url(#p73a747005a)" style="fill: none; stroke: #800000; stroke-width: 1.5"/>
    <path d="M 159.071116 339.564101 
L 159.071116 335.377415 
" clip-path="url(#p73a747005a)" style="fill: none; stroke: #800000; stroke-width: 1.5"/>
    <path d="M 241.26214 312.269455 
L 241.26214 307.036098 
" clip-path="url(#p73a747005a)" style="fill: none; stroke: #800000; stroke-width: 1.5"/>
    <path d="M 487.835213 380.792195 
L 487.835213 375.558838 
" clip-path="url(#p73a747005a)" style="fill: none; stroke: #800000; stroke-width: 1.5"/>
   </g>
   <g id="line2d_70">
    <defs>
     <path id="m0d6ea286d3" d="M 0 5 
L 0 -5 
" style="stroke: #800000"/>
    </defs>
    <g clip-path="url(#p73a747005a)">
     <use xlink:href="#m0d6ea286d3" x="92.290909" y="369.899964" style="fill: #800000; stroke: #800000"/>
     <use xlink:href="#m0d6ea286d3" x="153.934177" y="337.470758" style="fill: #800000; stroke: #800000"/>
     <use xlink:href="#m0d6ea286d3" x="236.125201" y="309.652776" style="fill: #800000; stroke: #800000"/>
     <use xlink:href="#m0d6ea286d3" x="477.561335" y="378.175517" style="fill: #800000; stroke: #800000"/>
    </g>
   </g>
   <g id="line2d_71">
    <g clip-path="url(#p73a747005a)">
     <use xlink:href="#m0d6ea286d3" x="102.564787" y="369.899964" style="fill: #800000; stroke: #800000"/>
     <use xlink:href="#m0d6ea286d3" x="164.208055" y="337.470758" style="fill: #800000; stroke: #800000"/>
     <use xlink:href="#m0d6ea286d3" x="246.399079" y="309.652776" style="fill: #800000; stroke: #800000"/>
     <use xlink:href="#m0d6ea286d3" x="498.109091" y="378.175517" style="fill: #800000; stroke: #800000"/>
    </g>
   </g>
   <g id="line2d_72">
    <defs>
     <path id="m7cdc630552" d="M 5 0 
L -5 -0 
" style="stroke: #800000"/>
    </defs>
    <g clip-path="url(#p73a747005a)">
     <use xlink:href="#m7cdc630552" x="97.427848" y="371.208303" style="fill: #800000; stroke: #800000"/>
     <use xlink:href="#m7cdc630552" x="159.071116" y="339.564101" style="fill: #800000; stroke: #800000"/>
     <use xlink:href="#m7cdc630552" x="241.26214" y="312.269455" style="fill: #800000; stroke: #800000"/>
     <use xlink:href="#m7cdc630552" x="487.835213" y="380.792195" style="fill: #800000; stroke: #800000"/>
    </g>
   </g>
   <g id="line2d_73">
    <g clip-path="url(#p73a747005a)">
     <use xlink:href="#m7cdc630552" x="97.427848" y="368.591625" style="fill: #800000; stroke: #800000"/>
     <use xlink:href="#m7cdc630552" x="159.071116" y="335.377415" style="fill: #800000; stroke: #800000"/>
     <use xlink:href="#m7cdc630552" x="241.26214" y="307.036098" style="fill: #800000; stroke: #800000"/>
     <use xlink:href="#m7cdc630552" x="487.835213" y="375.558838" style="fill: #800000; stroke: #800000"/>
    </g>
   </g>
   <g id="line2d_74">
    <defs>
     <path id="m72350b382a" d="M 0 3 
C 0.795609 3 1.55874 2.683901 2.12132 2.12132 
C 2.683901 1.55874 3 0.795609 3 0 
C 3 -0.795609 2.683901 -1.55874 2.12132 -2.12132 
C 1.55874 -2.683901 0.795609 -3 0 -3 
C -0.795609 -3 -1.55874 -2.683901 -2.12132 -2.12132 
C -2.683901 -1.55874 -3 -0.795609 -3 0 
C -3 0.795609 -2.683901 1.55874 -2.12132 2.12132 
C -1.55874 2.683901 -0.795609 3 0 3 
z
" style="stroke: #800000"/>
    </defs>
    <g clip-path="url(#p73a747005a)">
     <use xlink:href="#m72350b382a" x="97.427848" y="369.899964" style="fill: #800000; stroke: #800000"/>
     <use xlink:href="#m72350b382a" x="159.071116" y="337.470758" style="fill: #800000; stroke: #800000"/>
     <use xlink:href="#m72350b382a" x="241.26214" y="309.652776" style="fill: #800000; stroke: #800000"/>
     <use xlink:href="#m72350b382a" x="487.835213" y="378.175517" style="fill: #800000; stroke: #800000"/>
    </g>
   </g>
   <g id="patch_10">
    <path d="M 72 384.48 
L 72 303.348293 
" style="fill: none; stroke: #000000; stroke-width: 0.8; stroke-linejoin: miter; stroke-linecap: square"/>
   </g>
   <g id="patch_11">
    <path d="M 518.4 384.48 
L 518.4 303.348293 
" style="fill: none; stroke: #000000; stroke-width: 0.8; stroke-linejoin: miter; stroke-linecap: square"/>
   </g>
   <g id="patch_12">
    <path d="M 72 384.48 
L 518.4 384.48 
" style="fill: none; stroke: #000000; stroke-width: 0.8; stroke-linejoin: miter; stroke-linecap: square"/>
   </g>
   <g id="patch_13">
    <path d="M 72 303.348293 
L 518.4 303.348293 
" style="fill: none; stroke: #000000; stroke-width: 0.8; stroke-linejoin: miter; stroke-linecap: square"/>
   </g>
   <g id="line2d_75">
    <path d="M 72 356.327404 
L 518.4 356.327404 
" clip-path="url(#p73a747005a)" style="fill: none; stroke-dasharray: 5.55,2.4; stroke-dashoffset: 0; stroke: #000000; stroke-width: 1.5"/>
   </g>
   <g id="text_27">
    <g id="patch_14">
     <path d="M 183.6 372.330732 
L 314.28 372.330732 
Q 317.88 372.330732 317.88 368.730732 
L 317.88 347.970732 
Q 317.88 344.370732 314.28 344.370732 
L 183.6 344.370732 
Q 180 344.370732 180 347.970732 
L 180 368.730732 
Q 180 372.330732 183.6 372.330732 
z
" style="fill: #ffffff; opacity: 0.5; stroke: #000000; stroke-linejoin: miter"/>
    </g>
    <!-- $\frac{\chi^2}{N_{dof}}$ = 288.32, Ndof=2 -->
    <g transform="translate(183.6 362.610732) scale(0.12 -0.12)">
     <defs>
      <path id="DejaVuSans-Oblique-3c7" d="M 1922 -781 
L 1691 416 
L 394 -1334 
L -284 -1334 
L 1553 1141 
L 1269 2613 
Q 1194 3006 713 3006 
L 559 3006 
L 653 3500 
L 872 3494 
Q 1675 3472 1775 2950 
L 2006 1753 
L 3303 3503 
L 3981 3503 
L 2144 1028 
L 2428 -444 
Q 2503 -838 2984 -838 
L 3138 -838 
L 3044 -1331 
L 2825 -1325 
Q 2022 -1303 1922 -781 
z
" transform="scale(0.015625)"/>
      <path id="DejaVuSans-Oblique-4e" d="M 1081 4666 
L 1931 4666 
L 3219 666 
L 4000 4666 
L 4616 4666 
L 3706 0 
L 2853 0 
L 1569 4025 
L 788 0 
L 172 0 
L 1081 4666 
z
" transform="scale(0.015625)"/>
      <path id="DejaVuSans-Oblique-64" d="M 2675 525 
Q 2444 222 2128 65 
Q 1813 -91 1428 -91 
Q 903 -91 598 267 
Q 294 625 294 1247 
Q 294 1766 478 2236 
Q 663 2706 1013 3078 
Q 1244 3325 1534 3454 
Q 1825 3584 2144 3584 
Q 2481 3584 2739 3421 
Q 2997 3259 3138 2956 
L 3513 4863 
L 4091 4863 
L 3144 0 
L 2566 0 
L 2675 525 
z
M 891 1350 
Q 891 897 1095 644 
Q 1300 391 1663 391 
Q 1931 391 2161 520 
Q 2391 650 2566 903 
Q 2750 1166 2856 1509 
Q 2963 1853 2963 2188 
Q 2963 2622 2758 2865 
Q 2553 3109 2194 3109 
Q 1922 3109 1687 2981 
Q 1453 2853 1288 2613 
Q 1106 2353 998 2009 
Q 891 1666 891 1350 
z
" transform="scale(0.015625)"/>
      <path id="DejaVuSans-Oblique-6f" d="M 1625 -91 
Q 1009 -91 651 289 
Q 294 669 294 1325 
Q 294 1706 417 2101 
Q 541 2497 738 2766 
Q 1047 3184 1428 3384 
Q 1809 3584 2291 3584 
Q 2888 3584 3255 3212 
Q 3622 2841 3622 2241 
Q 3622 1825 3500 1412 
Q 3378 1000 3181 728 
Q 2875 309 2494 109 
Q 2113 -91 1625 -91 
z
M 891 1344 
Q 891 869 1089 633 
Q 1288 397 1691 397 
Q 2269 397 2648 901 
Q 3028 1406 3028 2181 
Q 3028 2634 2825 2865 
Q 2622 3097 2228 3097 
Q 1903 3097 1650 2945 
Q 1397 2794 1197 2484 
Q 1050 2253 970 1956 
Q 891 1659 891 1344 
z
" transform="scale(0.015625)"/>
      <path id="DejaVuSans-Oblique-66" d="M 3059 4863 
L 2969 4384 
L 2419 4384 
Q 2106 4384 1964 4261 
Q 1822 4138 1753 3809 
L 1691 3500 
L 2638 3500 
L 2553 3053 
L 1606 3053 
L 1013 0 
L 434 0 
L 1031 3053 
L 481 3053 
L 563 3500 
L 1113 3500 
L 1159 3744 
Q 1278 4363 1576 4613 
Q 1875 4863 2516 4863 
L 3059 4863 
z
" transform="scale(0.015625)"/>
      <path id="DejaVuSans-2c" d="M 750 794 
L 1409 794 
L 1409 256 
L 897 -744 
L 494 -744 
L 750 256 
L 750 794 
z
" transform="scale(0.015625)"/>
      <path id="DejaVuSans-4e" d="M 628 4666 
L 1478 4666 
L 3547 763 
L 3547 4666 
L 4159 4666 
L 4159 0 
L 3309 0 
L 1241 3903 
L 1241 0 
L 628 0 
L 628 4666 
z
" transform="scale(0.015625)"/>
      <path id="DejaVuSans-66" d="M 2375 4863 
L 2375 4384 
L 1825 4384 
Q 1516 4384 1395 4259 
Q 1275 4134 1275 3809 
L 1275 3500 
L 2222 3500 
L 2222 3053 
L 1275 3053 
L 1275 0 
L 697 0 
L 697 3053 
L 147 3053 
L 147 3500 
L 697 3500 
L 697 3744 
Q 697 4328 969 4595 
Q 1241 4863 1831 4863 
L 2375 4863 
z
" transform="scale(0.015625)"/>
     </defs>
     <use xlink:href="#DejaVuSans-Oblique-3c7" transform="translate(27 58.835938) scale(0.7)"/>
     <use xlink:href="#DejaVuSans-32" transform="translate(71.556677 85.632813) scale(0.49)"/>
     <use xlink:href="#DejaVuSans-Oblique-4e" transform="translate(0 -38.039062) scale(0.7)"/>
     <use xlink:href="#DejaVuSans-Oblique-64" transform="translate(52.363281 -49.523438) scale(0.49)"/>
     <use xlink:href="#DejaVuSans-Oblique-6f" transform="translate(83.466797 -49.523438) scale(0.49)"/>
     <use xlink:href="#DejaVuSans-Oblique-66" transform="translate(113.445801 -49.523438) scale(0.49)"/>
     <use xlink:href="#DejaVuSans-20" transform="translate(145.110352 0.448437)"/>
     <use xlink:href="#DejaVuSans-3d" transform="translate(176.897461 0.448437)"/>
     <use xlink:href="#DejaVuSans-20" transform="translate(260.686523 0.448437)"/>
     <use xlink:href="#DejaVuSans-32" transform="translate(292.473633 0.448437)"/>
     <use xlink:href="#DejaVuSans-38" transform="translate(356.09668 0.448437)"/>
     <use xlink:href="#DejaVuSans-38" transform="translate(419.719727 0.448437)"/>
     <use xlink:href="#DejaVuSans-2e" transform="translate(483.342773 0.448437)"/>
     <use xlink:href="#DejaVuSans-33" transform="translate(515.129883 0.448437)"/>
     <use xlink:href="#DejaVuSans-32" transform="translate(578.75293 0.448437)"/>
     <use xlink:href="#DejaVuSans-2c" transform="translate(642.375977 0.448437)"/>
     <use xlink:href="#DejaVuSans-20" transform="translate(674.163086 0.448437)"/>
     <use xlink:href="#DejaVuSans-4e" transform="translate(705.950195 0.448437)"/>
     <use xlink:href="#DejaVuSans-64" transform="translate(780.754883 0.448437)"/>
     <use xlink:href="#DejaVuSans-6f" transform="translate(844.231445 0.448437)"/>
     <use xlink:href="#DejaVuSans-66" transform="translate(905.413086 0.448437)"/>
     <use xlink:href="#DejaVuSans-3d" transform="translate(940.618164 0.448437)"/>
     <use xlink:href="#DejaVuSans-32" transform="translate(1024.407227 0.448437)"/>
     <path d="M 0 19.245313 
L 0 25.495313 
L 132.610352 25.495313 
L 132.610352 19.245313 
L 0 19.245313 
z
"/>
    </g>
   </g>
   <g id="legend_2">
    <g id="patch_15">
     <path d="M 433.584375 326.026418 
L 511.4 326.026418 
Q 513.4 326.026418 513.4 324.026418 
L 513.4 310.348293 
Q 513.4 308.348293 511.4 308.348293 
L 433.584375 308.348293 
Q 431.584375 308.348293 431.584375 310.348293 
L 431.584375 324.026418 
Q 431.584375 326.026418 433.584375 326.026418 
z
" style="fill: #ffffff; opacity: 0.8; stroke: #cccccc; stroke-linejoin: miter"/>
    </g>
    <g id="LineCollection_7">
     <path d="M 440.584375 316.44673 
L 450.584375 316.44673 
" style="fill: none; stroke: #800000; stroke-width: 1.5"/>
    </g>
    <g id="LineCollection_8">
     <path d="M 445.584375 321.44673 
L 445.584375 311.44673 
" style="fill: none; stroke: #800000; stroke-width: 1.5"/>
    </g>
    <g id="line2d_76">
     <g>
      <use xlink:href="#m0d6ea286d3" x="440.584375" y="316.44673" style="fill: #800000; stroke: #800000"/>
     </g>
    </g>
    <g id="line2d_77">
     <g>
      <use xlink:href="#m0d6ea286d3" x="450.584375" y="316.44673" style="fill: #800000; stroke: #800000"/>
     </g>
    </g>
    <g id="line2d_78">
     <g>
      <use xlink:href="#m7cdc630552" x="445.584375" y="321.44673" style="fill: #800000; stroke: #800000"/>
     </g>
    </g>
    <g id="line2d_79">
     <g>
      <use xlink:href="#m7cdc630552" x="445.584375" y="311.44673" style="fill: #800000; stroke: #800000"/>
     </g>
    </g>
    <g id="line2d_80"/>
    <g id="line2d_81">
     <g>
      <use xlink:href="#m72350b382a" x="445.584375" y="316.44673" style="fill: #800000; stroke: #800000"/>
     </g>
    </g>
    <g id="text_28">
     <!-- Residuen -->
     <g transform="translate(463.584375 319.94673) scale(0.1 -0.1)">
      <use xlink:href="#DejaVuSans-52"/>
      <use xlink:href="#DejaVuSans-65" transform="translate(64.982422 0)"/>
      <use xlink:href="#DejaVuSans-73" transform="translate(126.505859 0)"/>
      <use xlink:href="#DejaVuSans-69" transform="translate(178.605469 0)"/>
      <use xlink:href="#DejaVuSans-64" transform="translate(206.388672 0)"/>
      <use xlink:href="#DejaVuSans-75" transform="translate(269.865234 0)"/>
      <use xlink:href="#DejaVuSans-65" transform="translate(333.244141 0)"/>
      <use xlink:href="#DejaVuSans-6e" transform="translate(394.767578 0)"/>
     </g>
    </g>
   </g>
  </g>
  <g id="text_29">
   <!-- Peakpositionen des 7.69 MeV-Peaks in Abhängigkeit des Abstandes -->
   <g transform="translate(85.966875 17.758125) scale(0.12 -0.12)">
    <defs>
     <path id="DejaVuSans-4d" d="M 628 4666 
L 1569 4666 
L 2759 1491 
L 3956 4666 
L 4897 4666 
L 4897 0 
L 4281 0 
L 4281 4097 
L 3078 897 
L 2444 897 
L 1241 4097 
L 1241 0 
L 628 0 
L 628 4666 
z
" transform="scale(0.015625)"/>
     <path id="DejaVuSans-56" d="M 1831 0 
L 50 4666 
L 709 4666 
L 2188 738 
L 3669 4666 
L 4325 4666 
L 2547 0 
L 1831 0 
z
" transform="scale(0.015625)"/>
     <path id="DejaVuSans-e4" d="M 2194 1759 
Q 1497 1759 1228 1600 
Q 959 1441 959 1056 
Q 959 750 1161 570 
Q 1363 391 1709 391 
Q 2188 391 2477 730 
Q 2766 1069 2766 1631 
L 2766 1759 
L 2194 1759 
z
M 3341 1997 
L 3341 0 
L 2766 0 
L 2766 531 
Q 2569 213 2275 61 
Q 1981 -91 1556 -91 
Q 1019 -91 701 211 
Q 384 513 384 1019 
Q 384 1609 779 1909 
Q 1175 2209 1959 2209 
L 2766 2209 
L 2766 2266 
Q 2766 2663 2505 2880 
Q 2244 3097 1772 3097 
Q 1472 3097 1187 3025 
Q 903 2953 641 2809 
L 641 3341 
Q 956 3463 1253 3523 
Q 1550 3584 1831 3584 
Q 2591 3584 2966 3190 
Q 3341 2797 3341 1997 
z
M 2150 4850 
L 2784 4850 
L 2784 4219 
L 2150 4219 
L 2150 4850 
z
M 928 4850 
L 1563 4850 
L 1563 4219 
L 928 4219 
L 928 4850 
z
" transform="scale(0.015625)"/>
     <path id="DejaVuSans-67" d="M 2906 1791 
Q 2906 2416 2648 2759 
Q 2391 3103 1925 3103 
Q 1463 3103 1205 2759 
Q 947 2416 947 1791 
Q 947 1169 1205 825 
Q 1463 481 1925 481 
Q 2391 481 2648 825 
Q 2906 1169 2906 1791 
z
M 3481 434 
Q 3481 -459 3084 -895 
Q 2688 -1331 1869 -1331 
Q 1566 -1331 1297 -1286 
Q 1028 -1241 775 -1147 
L 775 -588 
Q 1028 -725 1275 -790 
Q 1522 -856 1778 -856 
Q 2344 -856 2625 -561 
Q 2906 -266 2906 331 
L 2906 616 
Q 2728 306 2450 153 
Q 2172 0 1784 0 
Q 1141 0 747 490 
Q 353 981 353 1791 
Q 353 2603 747 3093 
Q 1141 3584 1784 3584 
Q 2172 3584 2450 3431 
Q 2728 3278 2906 2969 
L 2906 3500 
L 3481 3500 
L 3481 434 
z
" transform="scale(0.015625)"/>
    </defs>
    <use xlink:href="#DejaVuSans-50"/>
    <use xlink:href="#DejaVuSans-65" transform="translate(56.677734 0)"/>
    <use xlink:href="#DejaVuSans-61" transform="translate(118.201172 0)"/>
    <use xlink:href="#DejaVuSans-6b" transform="translate(179.480469 0)"/>
    <use xlink:href="#DejaVuSans-70" transform="translate(237.390625 0)"/>
    <use xlink:href="#DejaVuSans-6f" transform="translate(300.867188 0)"/>
    <use xlink:href="#DejaVuSans-73" transform="translate(362.048828 0)"/>
    <use xlink:href="#DejaVuSans-69" transform="translate(414.148438 0)"/>
    <use xlink:href="#DejaVuSans-74" transform="translate(441.931641 0)"/>
    <use xlink:href="#DejaVuSans-69" transform="translate(481.140625 0)"/>
    <use xlink:href="#DejaVuSans-6f" transform="translate(508.923828 0)"/>
    <use xlink:href="#DejaVuSans-6e" transform="translate(570.105469 0)"/>
    <use xlink:href="#DejaVuSans-65" transform="translate(633.484375 0)"/>
    <use xlink:href="#DejaVuSans-6e" transform="translate(695.007812 0)"/>
    <use xlink:href="#DejaVuSans-20" transform="translate(758.386719 0)"/>
    <use xlink:href="#DejaVuSans-64" transform="translate(790.173828 0)"/>
    <use xlink:href="#DejaVuSans-65" transform="translate(853.650391 0)"/>
    <use xlink:href="#DejaVuSans-73" transform="translate(915.173828 0)"/>
    <use xlink:href="#DejaVuSans-20" transform="translate(967.273438 0)"/>
    <use xlink:href="#DejaVuSans-37" transform="translate(999.060547 0)"/>
    <use xlink:href="#DejaVuSans-2e" transform="translate(1062.683594 0)"/>
    <use xlink:href="#DejaVuSans-36" transform="translate(1094.470703 0)"/>
    <use xlink:href="#DejaVuSans-39" transform="translate(1158.09375 0)"/>
    <use xlink:href="#DejaVuSans-20" transform="translate(1221.716797 0)"/>
    <use xlink:href="#DejaVuSans-4d" transform="translate(1253.503906 0)"/>
    <use xlink:href="#DejaVuSans-65" transform="translate(1339.783203 0)"/>
    <use xlink:href="#DejaVuSans-56" transform="translate(1401.306641 0)"/>
    <use xlink:href="#DejaVuSans-2d" transform="translate(1463.839844 0)"/>
    <use xlink:href="#DejaVuSans-50" transform="translate(1499.923828 0)"/>
    <use xlink:href="#DejaVuSans-65" transform="translate(1556.601562 0)"/>
    <use xlink:href="#DejaVuSans-61" transform="translate(1618.125 0)"/>
    <use xlink:href="#DejaVuSans-6b" transform="translate(1679.404297 0)"/>
    <use xlink:href="#DejaVuSans-73" transform="translate(1737.314453 0)"/>
    <use xlink:href="#DejaVuSans-20" transform="translate(1789.414062 0)"/>
    <use xlink:href="#DejaVuSans-69" transform="translate(1821.201172 0)"/>
    <use xlink:href="#DejaVuSans-6e" transform="translate(1848.984375 0)"/>
    <use xlink:href="#DejaVuSans-20" transform="translate(1912.363281 0)"/>
    <use xlink:href="#DejaVuSans-41" transform="translate(1944.150391 0)"/>
    <use xlink:href="#DejaVuSans-62" transform="translate(2012.558594 0)"/>
    <use xlink:href="#DejaVuSans-68" transform="translate(2076.035156 0)"/>
    <use xlink:href="#DejaVuSans-e4" transform="translate(2139.414062 0)"/>
    <use xlink:href="#DejaVuSans-6e" transform="translate(2200.693359 0)"/>
    <use xlink:href="#DejaVuSans-67" transform="translate(2264.072266 0)"/>
    <use xlink:href="#DejaVuSans-69" transform="translate(2327.548828 0)"/>
    <use xlink:href="#DejaVuSans-67" transform="translate(2355.332031 0)"/>
    <use xlink:href="#DejaVuSans-6b" transform="translate(2418.808594 0)"/>
    <use xlink:href="#DejaVuSans-65" transform="translate(2473.09375 0)"/>
    <use xlink:href="#DejaVuSans-69" transform="translate(2534.617188 0)"/>
    <use xlink:href="#DejaVuSans-74" transform="translate(2562.400391 0)"/>
    <use xlink:href="#DejaVuSans-20" transform="translate(2601.609375 0)"/>
    <use xlink:href="#DejaVuSans-64" transform="translate(2633.396484 0)"/>
    <use xlink:href="#DejaVuSans-65" transform="translate(2696.873047 0)"/>
    <use xlink:href="#DejaVuSans-73" transform="translate(2758.396484 0)"/>
    <use xlink:href="#DejaVuSans-20" transform="translate(2810.496094 0)"/>
    <use xlink:href="#DejaVuSans-41" transform="translate(2842.283203 0)"/>
    <use xlink:href="#DejaVuSans-62" transform="translate(2910.691406 0)"/>
    <use xlink:href="#DejaVuSans-73" transform="translate(2974.167969 0)"/>
    <use xlink:href="#DejaVuSans-74" transform="translate(3026.267578 0)"/>
    <use xlink:href="#DejaVuSans-61" transform="translate(3065.476562 0)"/>
    <use xlink:href="#DejaVuSans-6e" transform="translate(3126.755859 0)"/>
    <use xlink:href="#DejaVuSans-64" transform="translate(3190.134766 0)"/>
    <use xlink:href="#DejaVuSans-65" transform="translate(3253.611328 0)"/>
    <use xlink:href="#DejaVuSans-73" transform="translate(3315.134766 0)"/>
   </g>
  </g>
 </g>
 <defs>
  <clipPath id="p3b04d07c7f">
   <rect x="72" y="51.84" width="446.4" height="243.395122"/>
  </clipPath>
  <clipPath id="p73a747005a">
   <rect x="72" y="303.348293" width="446.4" height="81.131707"/>
  </clipPath>
 </defs>
</svg>
