<?xml version="1.0" encoding="utf-8" standalone="no"?>
<!DOCTYPE svg PUBLIC "-//W3C//DTD SVG 1.1//EN"
  "http://www.w3.org/Graphics/SVG/1.1/DTD/svg11.dtd">
<svg xmlns:xlink="http://www.w3.org/1999/xlink" width="576pt" height="432pt" viewBox="0 0 576 432" xmlns="http://www.w3.org/2000/svg" version="1.1">
 <metadata>
  <rdf:RDF xmlns:dc="http://purl.org/dc/elements/1.1/" xmlns:cc="http://creativecommons.org/ns#" xmlns:rdf="http://www.w3.org/1999/02/22-rdf-syntax-ns#">
   <cc:Work>
    <dc:type rdf:resource="http://purl.org/dc/dcmitype/StillImage"/>
    <dc:date>2026-03-19T20:49:00.478260</dc:date>
    <dc:format>image/svg+xml</dc:format>
    <dc:creator>
     <cc:Agent>
      <dc:title>Matplotlib v3.10.6, https://matplotlib.org/</dc:title>
     </cc:Agent>
    </dc:creator>
   </cc:Work>
  </rdf:RDF>
 </metadata>
 <defs>
  <style type="text/css">*{stroke-linejoin: round; stroke-linecap: butt}</style>
 </defs>
 <g id="figure_1">
  <g id="patch_1">
   <path d="M 0 432 
L 576 432 
L 576 0 
L 0 0 
z
" style="fill: #ffffff"/>
  </g>
  <g id="axes_1">
   <g id="patch_2">
    <path d="M 72 384.48 
L 518.4 384.48 
L 518.4 51.84 
L 72 51.84 
z
" style="fill: #ffffff"/>
   </g>
   <g id="patch_3">
    <path d="M 470.974638 384.48 
L 498.109091 384.48 
L 498.109091 51.84 
L 470.974638 51.84 
z
" clip-path="url(#p3f9df1e589)" style="fill: #808080; opacity: 0.2; stroke: #808080; stroke-linejoin: miter"/>
   </g>
   <g id="matplotlib.axis_1">
    <g id="xtick_1">
     <g id="line2d_1">
      <path d="M 93.173267 384.48 
L 93.173267 51.84 
" clip-path="url(#p3f9df1e589)" style="fill: none; stroke-dasharray: 1.85,0.8; stroke-dashoffset: 0; stroke: #b0b0b0; stroke-width: 0.5"/>
     </g>
     <g id="line2d_2">
      <defs>
       <path id="mb788f00a0b" d="M 0 0 
L 0 3.5 
" style="stroke: #000000; stroke-width: 0.8"/>
      </defs>
      <g>
       <use xlink:href="#mb788f00a0b" x="93.173267" y="384.48" style="stroke: #000000; stroke-width: 0.8"/>
      </g>
     </g>
     <g id="text_1">
      <!-- 0 -->
      <g transform="translate(89.992017 399.078438) scale(0.1 -0.1)">
       <defs>
        <path id="DejaVuSans-30" d="M 2034 4250 
Q 1547 4250 1301 3770 
Q 1056 3291 1056 2328 
Q 1056 1369 1301 889 
Q 1547 409 2034 409 
Q 2525 409 2770 889 
Q 3016 1369 3016 2328 
Q 3016 3291 2770 3770 
Q 2525 4250 2034 4250 
z
M 2034 4750 
Q 2819 4750 3233 4129 
Q 3647 3509 3647 2328 
Q 3647 1150 3233 529 
Q 2819 -91 2034 -91 
Q 1250 -91 836 529 
Q 422 1150 422 2328 
Q 422 3509 836 4129 
Q 1250 4750 2034 4750 
z
" transform="scale(0.015625)"/>
       </defs>
       <use xlink:href="#DejaVuSans-30"/>
      </g>
     </g>
    </g>
    <g id="xtick_2">
     <g id="line2d_3">
      <path d="M 181.409084 384.48 
L 181.409084 51.84 
" clip-path="url(#p3f9df1e589)" style="fill: none; stroke-dasharray: 1.85,0.8; stroke-dashoffset: 0; stroke: #b0b0b0; stroke-width: 0.5"/>
     </g>
     <g id="line2d_4">
      <g>
       <use xlink:href="#mb788f00a0b" x="181.409084" y="384.48" style="stroke: #000000; stroke-width: 0.8"/>
      </g>
     </g>
     <g id="text_2">
      <!-- 1 -->
      <g transform="translate(178.227834 399.078438) scale(0.1 -0.1)">
       <defs>
        <path id="DejaVuSans-31" d="M 794 531 
L 1825 531 
L 1825 4091 
L 703 3866 
L 703 4441 
L 1819 4666 
L 2450 4666 
L 2450 531 
L 3481 531 
L 3481 0 
L 794 0 
L 794 531 
z
" transform="scale(0.015625)"/>
       </defs>
       <use xlink:href="#DejaVuSans-31"/>
      </g>
     </g>
    </g>
    <g id="xtick_3">
     <g id="line2d_5">
      <path d="M 269.644901 384.48 
L 269.644901 51.84 
" clip-path="url(#p3f9df1e589)" style="fill: none; stroke-dasharray: 1.85,0.8; stroke-dashoffset: 0; stroke: #b0b0b0; stroke-width: 0.5"/>
     </g>
     <g id="line2d_6">
      <g>
       <use xlink:href="#mb788f00a0b" x="269.644901" y="384.48" style="stroke: #000000; stroke-width: 0.8"/>
      </g>
     </g>
     <g id="text_3">
      <!-- 2 -->
      <g transform="translate(266.463651 399.078438) scale(0.1 -0.1)">
       <defs>
        <path id="DejaVuSans-32" d="M 1228 531 
L 3431 531 
L 3431 0 
L 469 0 
L 469 531 
Q 828 903 1448 1529 
Q 2069 2156 2228 2338 
Q 2531 2678 2651 2914 
Q 2772 3150 2772 3378 
Q 2772 3750 2511 3984 
Q 2250 4219 1831 4219 
Q 1534 4219 1204 4116 
Q 875 4013 500 3803 
L 500 4441 
Q 881 4594 1212 4672 
Q 1544 4750 1819 4750 
Q 2544 4750 2975 4387 
Q 3406 4025 3406 3419 
Q 3406 3131 3298 2873 
Q 3191 2616 2906 2266 
Q 2828 2175 2409 1742 
Q 1991 1309 1228 531 
z
" transform="scale(0.015625)"/>
       </defs>
       <use xlink:href="#DejaVuSans-32"/>
      </g>
     </g>
    </g>
    <g id="xtick_4">
     <g id="line2d_7">
      <path d="M 357.880718 384.48 
L 357.880718 51.84 
" clip-path="url(#p3f9df1e589)" style="fill: none; stroke-dasharray: 1.85,0.8; stroke-dashoffset: 0; stroke: #b0b0b0; stroke-width: 0.5"/>
     </g>
     <g id="line2d_8">
      <g>
       <use xlink:href="#mb788f00a0b" x="357.880718" y="384.48" style="stroke: #000000; stroke-width: 0.8"/>
      </g>
     </g>
     <g id="text_4">
      <!-- 3 -->
      <g transform="translate(354.699468 399.078438) scale(0.1 -0.1)">
       <defs>
        <path id="DejaVuSans-33" d="M 2597 2516 
Q 3050 2419 3304 2112 
Q 3559 1806 3559 1356 
Q 3559 666 3084 287 
Q 2609 -91 1734 -91 
Q 1441 -91 1130 -33 
Q 819 25 488 141 
L 488 750 
Q 750 597 1062 519 
Q 1375 441 1716 441 
Q 2309 441 2620 675 
Q 2931 909 2931 1356 
Q 2931 1769 2642 2001 
Q 2353 2234 1838 2234 
L 1294 2234 
L 1294 2753 
L 1863 2753 
Q 2328 2753 2575 2939 
Q 2822 3125 2822 3475 
Q 2822 3834 2567 4026 
Q 2313 4219 1838 4219 
Q 1578 4219 1281 4162 
Q 984 4106 628 3988 
L 628 4550 
Q 988 4650 1302 4700 
Q 1616 4750 1894 4750 
Q 2613 4750 3031 4423 
Q 3450 4097 3450 3541 
Q 3450 3153 3228 2886 
Q 3006 2619 2597 2516 
z
" transform="scale(0.015625)"/>
       </defs>
       <use xlink:href="#DejaVuSans-33"/>
      </g>
     </g>
    </g>
    <g id="xtick_5">
     <g id="line2d_9">
      <path d="M 446.116534 384.48 
L 446.116534 51.84 
" clip-path="url(#p3f9df1e589)" style="fill: none; stroke-dasharray: 1.85,0.8; stroke-dashoffset: 0; stroke: #b0b0b0; stroke-width: 0.5"/>
     </g>
     <g id="line2d_10">
      <g>
       <use xlink:href="#mb788f00a0b" x="446.116534" y="384.48" style="stroke: #000000; stroke-width: 0.8"/>
      </g>
     </g>
     <g id="text_5">
      <!-- 4 -->
      <g transform="translate(442.935284 399.078438) scale(0.1 -0.1)">
       <defs>
        <path id="DejaVuSans-34" d="M 2419 4116 
L 825 1625 
L 2419 1625 
L 2419 4116 
z
M 2253 4666 
L 3047 4666 
L 3047 1625 
L 3713 1625 
L 3713 1100 
L 3047 1100 
L 3047 0 
L 2419 0 
L 2419 1100 
L 313 1100 
L 313 1709 
L 2253 4666 
z
" transform="scale(0.015625)"/>
       </defs>
       <use xlink:href="#DejaVuSans-34"/>
      </g>
     </g>
    </g>
    <g id="text_6">
     <!-- $\Delta$ Abstand (cm) -->
     <g transform="translate(256.5 412.756563) scale(0.1 -0.1)">
      <defs>
       <path id="DejaVuSans-394" d="M 2188 4044 
L 906 525 
L 3472 525 
L 2188 4044 
z
M 50 0 
L 1831 4666 
L 2547 4666 
L 4325 0 
L 50 0 
z
" transform="scale(0.015625)"/>
       <path id="DejaVuSans-20" transform="scale(0.015625)"/>
       <path id="DejaVuSans-41" d="M 2188 4044 
L 1331 1722 
L 3047 1722 
L 2188 4044 
z
M 1831 4666 
L 2547 4666 
L 4325 0 
L 3669 0 
L 3244 1197 
L 1141 1197 
L 716 0 
L 50 0 
L 1831 4666 
z
" transform="scale(0.015625)"/>
       <path id="DejaVuSans-62" d="M 3116 1747 
Q 3116 2381 2855 2742 
Q 2594 3103 2138 3103 
Q 1681 3103 1420 2742 
Q 1159 2381 1159 1747 
Q 1159 1113 1420 752 
Q 1681 391 2138 391 
Q 2594 391 2855 752 
Q 3116 1113 3116 1747 
z
M 1159 2969 
Q 1341 3281 1617 3432 
Q 1894 3584 2278 3584 
Q 2916 3584 3314 3078 
Q 3713 2572 3713 1747 
Q 3713 922 3314 415 
Q 2916 -91 2278 -91 
Q 1894 -91 1617 61 
Q 1341 213 1159 525 
L 1159 0 
L 581 0 
L 581 4863 
L 1159 4863 
L 1159 2969 
z
" transform="scale(0.015625)"/>
       <path id="DejaVuSans-73" d="M 2834 3397 
L 2834 2853 
Q 2591 2978 2328 3040 
Q 2066 3103 1784 3103 
Q 1356 3103 1142 2972 
Q 928 2841 928 2578 
Q 928 2378 1081 2264 
Q 1234 2150 1697 2047 
L 1894 2003 
Q 2506 1872 2764 1633 
Q 3022 1394 3022 966 
Q 3022 478 2636 193 
Q 2250 -91 1575 -91 
Q 1294 -91 989 -36 
Q 684 19 347 128 
L 347 722 
Q 666 556 975 473 
Q 1284 391 1588 391 
Q 1994 391 2212 530 
Q 2431 669 2431 922 
Q 2431 1156 2273 1281 
Q 2116 1406 1581 1522 
L 1381 1569 
Q 847 1681 609 1914 
Q 372 2147 372 2553 
Q 372 3047 722 3315 
Q 1072 3584 1716 3584 
Q 2034 3584 2315 3537 
Q 2597 3491 2834 3397 
z
" transform="scale(0.015625)"/>
       <path id="DejaVuSans-74" d="M 1172 4494 
L 1172 3500 
L 2356 3500 
L 2356 3053 
L 1172 3053 
L 1172 1153 
Q 1172 725 1289 603 
Q 1406 481 1766 481 
L 2356 481 
L 2356 0 
L 1766 0 
Q 1100 0 847 248 
Q 594 497 594 1153 
L 594 3053 
L 172 3053 
L 172 3500 
L 594 3500 
L 594 4494 
L 1172 4494 
z
" transform="scale(0.015625)"/>
       <path id="DejaVuSans-61" d="M 2194 1759 
Q 1497 1759 1228 1600 
Q 959 1441 959 1056 
Q 959 750 1161 570 
Q 1363 391 1709 391 
Q 2188 391 2477 730 
Q 2766 1069 2766 1631 
L 2766 1759 
L 2194 1759 
z
M 3341 1997 
L 3341 0 
L 2766 0 
L 2766 531 
Q 2569 213 2275 61 
Q 1981 -91 1556 -91 
Q 1019 -91 701 211 
Q 384 513 384 1019 
Q 384 1609 779 1909 
Q 1175 2209 1959 2209 
L 2766 2209 
L 2766 2266 
Q 2766 2663 2505 2880 
Q 2244 3097 1772 3097 
Q 1472 3097 1187 3025 
Q 903 2953 641 2809 
L 641 3341 
Q 956 3463 1253 3523 
Q 1550 3584 1831 3584 
Q 2591 3584 2966 3190 
Q 3341 2797 3341 1997 
z
" transform="scale(0.015625)"/>
       <path id="DejaVuSans-6e" d="M 3513 2113 
L 3513 0 
L 2938 0 
L 2938 2094 
Q 2938 2591 2744 2837 
Q 2550 3084 2163 3084 
Q 1697 3084 1428 2787 
Q 1159 2491 1159 1978 
L 1159 0 
L 581 0 
L 581 3500 
L 1159 3500 
L 1159 2956 
Q 1366 3272 1645 3428 
Q 1925 3584 2291 3584 
Q 2894 3584 3203 3211 
Q 3513 2838 3513 2113 
z
" transform="scale(0.015625)"/>
       <path id="DejaVuSans-64" d="M 2906 2969 
L 2906 4863 
L 3481 4863 
L 3481 0 
L 2906 0 
L 2906 525 
Q 2725 213 2448 61 
Q 2172 -91 1784 -91 
Q 1150 -91 751 415 
Q 353 922 353 1747 
Q 353 2572 751 3078 
Q 1150 3584 1784 3584 
Q 2172 3584 2448 3432 
Q 2725 3281 2906 2969 
z
M 947 1747 
Q 947 1113 1208 752 
Q 1469 391 1925 391 
Q 2381 391 2643 752 
Q 2906 1113 2906 1747 
Q 2906 2381 2643 2742 
Q 2381 3103 1925 3103 
Q 1469 3103 1208 2742 
Q 947 2381 947 1747 
z
" transform="scale(0.015625)"/>
       <path id="DejaVuSans-28" d="M 1984 4856 
Q 1566 4138 1362 3434 
Q 1159 2731 1159 2009 
Q 1159 1288 1364 580 
Q 1569 -128 1984 -844 
L 1484 -844 
Q 1016 -109 783 600 
Q 550 1309 550 2009 
Q 550 2706 781 3412 
Q 1013 4119 1484 4856 
L 1984 4856 
z
" transform="scale(0.015625)"/>
       <path id="DejaVuSans-63" d="M 3122 3366 
L 3122 2828 
Q 2878 2963 2633 3030 
Q 2388 3097 2138 3097 
Q 1578 3097 1268 2742 
Q 959 2388 959 1747 
Q 959 1106 1268 751 
Q 1578 397 2138 397 
Q 2388 397 2633 464 
Q 2878 531 3122 666 
L 3122 134 
Q 2881 22 2623 -34 
Q 2366 -91 2075 -91 
Q 1284 -91 818 406 
Q 353 903 353 1747 
Q 353 2603 823 3093 
Q 1294 3584 2113 3584 
Q 2378 3584 2631 3529 
Q 2884 3475 3122 3366 
z
" transform="scale(0.015625)"/>
       <path id="DejaVuSans-6d" d="M 3328 2828 
Q 3544 3216 3844 3400 
Q 4144 3584 4550 3584 
Q 5097 3584 5394 3201 
Q 5691 2819 5691 2113 
L 5691 0 
L 5113 0 
L 5113 2094 
Q 5113 2597 4934 2840 
Q 4756 3084 4391 3084 
Q 3944 3084 3684 2787 
Q 3425 2491 3425 1978 
L 3425 0 
L 2847 0 
L 2847 2094 
Q 2847 2600 2669 2842 
Q 2491 3084 2119 3084 
Q 1678 3084 1418 2786 
Q 1159 2488 1159 1978 
L 1159 0 
L 581 0 
L 581 3500 
L 1159 3500 
L 1159 2956 
Q 1356 3278 1631 3431 
Q 1906 3584 2284 3584 
Q 2666 3584 2933 3390 
Q 3200 3197 3328 2828 
z
" transform="scale(0.015625)"/>
       <path id="DejaVuSans-29" d="M 513 4856 
L 1013 4856 
Q 1481 4119 1714 3412 
Q 1947 2706 1947 2009 
Q 1947 1309 1714 600 
Q 1481 -109 1013 -844 
L 513 -844 
Q 928 -128 1133 580 
Q 1338 1288 1338 2009 
Q 1338 2731 1133 3434 
Q 928 4138 513 4856 
z
" transform="scale(0.015625)"/>
      </defs>
      <use xlink:href="#DejaVuSans-394" transform="translate(0 0.015625)"/>
      <use xlink:href="#DejaVuSans-20" transform="translate(68.408203 0.015625)"/>
      <use xlink:href="#DejaVuSans-41" transform="translate(100.195312 0.015625)"/>
      <use xlink:href="#DejaVuSans-62" transform="translate(168.603516 0.015625)"/>
      <use xlink:href="#DejaVuSans-73" transform="translate(232.080078 0.015625)"/>
      <use xlink:href="#DejaVuSans-74" transform="translate(284.179688 0.015625)"/>
      <use xlink:href="#DejaVuSans-61" transform="translate(323.388672 0.015625)"/>
      <use xlink:href="#DejaVuSans-6e" transform="translate(384.667969 0.015625)"/>
      <use xlink:href="#DejaVuSans-64" transform="translate(448.046875 0.015625)"/>
      <use xlink:href="#DejaVuSans-20" transform="translate(511.523438 0.015625)"/>
      <use xlink:href="#DejaVuSans-28" transform="translate(543.310547 0.015625)"/>
      <use xlink:href="#DejaVuSans-63" transform="translate(582.324219 0.015625)"/>
      <use xlink:href="#DejaVuSans-6d" transform="translate(637.304688 0.015625)"/>
      <use xlink:href="#DejaVuSans-29" transform="translate(734.716797 0.015625)"/>
     </g>
    </g>
   </g>
   <g id="matplotlib.axis_2">
    <g id="ytick_1">
     <g id="line2d_11">
      <path d="M 72 371.333555 
L 518.4 371.333555 
" clip-path="url(#p3f9df1e589)" style="fill: none; stroke-dasharray: 1.85,0.8; stroke-dashoffset: 0; stroke: #b0b0b0; stroke-width: 0.5"/>
     </g>
     <g id="line2d_12">
      <defs>
       <path id="m33f7c3bafa" d="M 0 0 
L -3.5 0 
" style="stroke: #000000; stroke-width: 0.8"/>
      </defs>
      <g>
       <use xlink:href="#m33f7c3bafa" x="72" y="371.333555" style="stroke: #000000; stroke-width: 0.8"/>
      </g>
     </g>
     <g id="text_7">
      <!-- 0 -->
      <g transform="translate(58.6375 375.132774) scale(0.1 -0.1)">
       <use xlink:href="#DejaVuSans-30"/>
      </g>
     </g>
    </g>
    <g id="ytick_2">
     <g id="line2d_13">
      <path d="M 72 314.438707 
L 518.4 314.438707 
" clip-path="url(#p3f9df1e589)" style="fill: none; stroke-dasharray: 1.85,0.8; stroke-dashoffset: 0; stroke: #b0b0b0; stroke-width: 0.5"/>
     </g>
     <g id="line2d_14">
      <g>
       <use xlink:href="#m33f7c3bafa" x="72" y="314.438707" style="stroke: #000000; stroke-width: 0.8"/>
      </g>
     </g>
     <g id="text_8">
      <!-- 200 -->
      <g transform="translate(45.9125 318.237926) scale(0.1 -0.1)">
       <use xlink:href="#DejaVuSans-32"/>
       <use xlink:href="#DejaVuSans-30" transform="translate(63.623047 0)"/>
       <use xlink:href="#DejaVuSans-30" transform="translate(127.246094 0)"/>
      </g>
     </g>
    </g>
    <g id="ytick_3">
     <g id="line2d_15">
      <path d="M 72 257.543859 
L 518.4 257.543859 
" clip-path="url(#p3f9df1e589)" style="fill: none; stroke-dasharray: 1.85,0.8; stroke-dashoffset: 0; stroke: #b0b0b0; stroke-width: 0.5"/>
     </g>
     <g id="line2d_16">
      <g>
       <use xlink:href="#m33f7c3bafa" x="72" y="257.543859" style="stroke: #000000; stroke-width: 0.8"/>
      </g>
     </g>
     <g id="text_9">
      <!-- 400 -->
      <g transform="translate(45.9125 261.343078) scale(0.1 -0.1)">
       <use xlink:href="#DejaVuSans-34"/>
       <use xlink:href="#DejaVuSans-30" transform="translate(63.623047 0)"/>
       <use xlink:href="#DejaVuSans-30" transform="translate(127.246094 0)"/>
      </g>
     </g>
    </g>
    <g id="ytick_4">
     <g id="line2d_17">
      <path d="M 72 200.649012 
L 518.4 200.649012 
" clip-path="url(#p3f9df1e589)" style="fill: none; stroke-dasharray: 1.85,0.8; stroke-dashoffset: 0; stroke: #b0b0b0; stroke-width: 0.5"/>
     </g>
     <g id="line2d_18">
      <g>
       <use xlink:href="#m33f7c3bafa" x="72" y="200.649012" style="stroke: #000000; stroke-width: 0.8"/>
      </g>
     </g>
     <g id="text_10">
      <!-- 600 -->
      <g transform="translate(45.9125 204.448231) scale(0.1 -0.1)">
       <defs>
        <path id="DejaVuSans-36" d="M 2113 2584 
Q 1688 2584 1439 2293 
Q 1191 2003 1191 1497 
Q 1191 994 1439 701 
Q 1688 409 2113 409 
Q 2538 409 2786 701 
Q 3034 994 3034 1497 
Q 3034 2003 2786 2293 
Q 2538 2584 2113 2584 
z
M 3366 4563 
L 3366 3988 
Q 3128 4100 2886 4159 
Q 2644 4219 2406 4219 
Q 1781 4219 1451 3797 
Q 1122 3375 1075 2522 
Q 1259 2794 1537 2939 
Q 1816 3084 2150 3084 
Q 2853 3084 3261 2657 
Q 3669 2231 3669 1497 
Q 3669 778 3244 343 
Q 2819 -91 2113 -91 
Q 1303 -91 875 529 
Q 447 1150 447 2328 
Q 447 3434 972 4092 
Q 1497 4750 2381 4750 
Q 2619 4750 2861 4703 
Q 3103 4656 3366 4563 
z
" transform="scale(0.015625)"/>
       </defs>
       <use xlink:href="#DejaVuSans-36"/>
       <use xlink:href="#DejaVuSans-30" transform="translate(63.623047 0)"/>
       <use xlink:href="#DejaVuSans-30" transform="translate(127.246094 0)"/>
      </g>
     </g>
    </g>
    <g id="ytick_5">
     <g id="line2d_19">
      <path d="M 72 143.754164 
L 518.4 143.754164 
" clip-path="url(#p3f9df1e589)" style="fill: none; stroke-dasharray: 1.85,0.8; stroke-dashoffset: 0; stroke: #b0b0b0; stroke-width: 0.5"/>
     </g>
     <g id="line2d_20">
      <g>
       <use xlink:href="#m33f7c3bafa" x="72" y="143.754164" style="stroke: #000000; stroke-width: 0.8"/>
      </g>
     </g>
     <g id="text_11">
      <!-- 800 -->
      <g transform="translate(45.9125 147.553383) scale(0.1 -0.1)">
       <defs>
        <path id="DejaVuSans-38" d="M 2034 2216 
Q 1584 2216 1326 1975 
Q 1069 1734 1069 1313 
Q 1069 891 1326 650 
Q 1584 409 2034 409 
Q 2484 409 2743 651 
Q 3003 894 3003 1313 
Q 3003 1734 2745 1975 
Q 2488 2216 2034 2216 
z
M 1403 2484 
Q 997 2584 770 2862 
Q 544 3141 544 3541 
Q 544 4100 942 4425 
Q 1341 4750 2034 4750 
Q 2731 4750 3128 4425 
Q 3525 4100 3525 3541 
Q 3525 3141 3298 2862 
Q 3072 2584 2669 2484 
Q 3125 2378 3379 2068 
Q 3634 1759 3634 1313 
Q 3634 634 3220 271 
Q 2806 -91 2034 -91 
Q 1263 -91 848 271 
Q 434 634 434 1313 
Q 434 1759 690 2068 
Q 947 2378 1403 2484 
z
M 1172 3481 
Q 1172 3119 1398 2916 
Q 1625 2713 2034 2713 
Q 2441 2713 2670 2916 
Q 2900 3119 2900 3481 
Q 2900 3844 2670 4047 
Q 2441 4250 2034 4250 
Q 1625 4250 1398 4047 
Q 1172 3844 1172 3481 
z
" transform="scale(0.015625)"/>
       </defs>
       <use xlink:href="#DejaVuSans-38"/>
       <use xlink:href="#DejaVuSans-30" transform="translate(63.623047 0)"/>
       <use xlink:href="#DejaVuSans-30" transform="translate(127.246094 0)"/>
      </g>
     </g>
    </g>
    <g id="ytick_6">
     <g id="line2d_21">
      <path d="M 72 86.859316 
L 518.4 86.859316 
" clip-path="url(#p3f9df1e589)" style="fill: none; stroke-dasharray: 1.85,0.8; stroke-dashoffset: 0; stroke: #b0b0b0; stroke-width: 0.5"/>
     </g>
     <g id="line2d_22">
      <g>
       <use xlink:href="#m33f7c3bafa" x="72" y="86.859316" style="stroke: #000000; stroke-width: 0.8"/>
      </g>
     </g>
     <g id="text_12">
      <!-- 1000 -->
      <g transform="translate(39.55 90.658535) scale(0.1 -0.1)">
       <use xlink:href="#DejaVuSans-31"/>
       <use xlink:href="#DejaVuSans-30" transform="translate(63.623047 0)"/>
       <use xlink:href="#DejaVuSans-30" transform="translate(127.246094 0)"/>
       <use xlink:href="#DejaVuSans-30" transform="translate(190.869141 0)"/>
      </g>
     </g>
    </g>
    <g id="text_13">
     <!-- Rate (counts/s) -->
     <g transform="translate(33.470312 256.113125) rotate(-90) scale(0.1 -0.1)">
      <defs>
       <path id="DejaVuSans-52" d="M 2841 2188 
Q 3044 2119 3236 1894 
Q 3428 1669 3622 1275 
L 4263 0 
L 3584 0 
L 2988 1197 
Q 2756 1666 2539 1819 
Q 2322 1972 1947 1972 
L 1259 1972 
L 1259 0 
L 628 0 
L 628 4666 
L 2053 4666 
Q 2853 4666 3247 4331 
Q 3641 3997 3641 3322 
Q 3641 2881 3436 2590 
Q 3231 2300 2841 2188 
z
M 1259 4147 
L 1259 2491 
L 2053 2491 
Q 2509 2491 2742 2702 
Q 2975 2913 2975 3322 
Q 2975 3731 2742 3939 
Q 2509 4147 2053 4147 
L 1259 4147 
z
" transform="scale(0.015625)"/>
       <path id="DejaVuSans-65" d="M 3597 1894 
L 3597 1613 
L 953 1613 
Q 991 1019 1311 708 
Q 1631 397 2203 397 
Q 2534 397 2845 478 
Q 3156 559 3463 722 
L 3463 178 
Q 3153 47 2828 -22 
Q 2503 -91 2169 -91 
Q 1331 -91 842 396 
Q 353 884 353 1716 
Q 353 2575 817 3079 
Q 1281 3584 2069 3584 
Q 2775 3584 3186 3129 
Q 3597 2675 3597 1894 
z
M 3022 2063 
Q 3016 2534 2758 2815 
Q 2500 3097 2075 3097 
Q 1594 3097 1305 2825 
Q 1016 2553 972 2059 
L 3022 2063 
z
" transform="scale(0.015625)"/>
       <path id="DejaVuSans-6f" d="M 1959 3097 
Q 1497 3097 1228 2736 
Q 959 2375 959 1747 
Q 959 1119 1226 758 
Q 1494 397 1959 397 
Q 2419 397 2687 759 
Q 2956 1122 2956 1747 
Q 2956 2369 2687 2733 
Q 2419 3097 1959 3097 
z
M 1959 3584 
Q 2709 3584 3137 3096 
Q 3566 2609 3566 1747 
Q 3566 888 3137 398 
Q 2709 -91 1959 -91 
Q 1206 -91 779 398 
Q 353 888 353 1747 
Q 353 2609 779 3096 
Q 1206 3584 1959 3584 
z
" transform="scale(0.015625)"/>
       <path id="DejaVuSans-75" d="M 544 1381 
L 544 3500 
L 1119 3500 
L 1119 1403 
Q 1119 906 1312 657 
Q 1506 409 1894 409 
Q 2359 409 2629 706 
Q 2900 1003 2900 1516 
L 2900 3500 
L 3475 3500 
L 3475 0 
L 2900 0 
L 2900 538 
Q 2691 219 2414 64 
Q 2138 -91 1772 -91 
Q 1169 -91 856 284 
Q 544 659 544 1381 
z
M 1991 3584 
L 1991 3584 
z
" transform="scale(0.015625)"/>
       <path id="DejaVuSans-2f" d="M 1625 4666 
L 2156 4666 
L 531 -594 
L 0 -594 
L 1625 4666 
z
" transform="scale(0.015625)"/>
      </defs>
      <use xlink:href="#DejaVuSans-52"/>
      <use xlink:href="#DejaVuSans-61" transform="translate(67.232422 0)"/>
      <use xlink:href="#DejaVuSans-74" transform="translate(128.511719 0)"/>
      <use xlink:href="#DejaVuSans-65" transform="translate(167.720703 0)"/>
      <use xlink:href="#DejaVuSans-20" transform="translate(229.244141 0)"/>
      <use xlink:href="#DejaVuSans-28" transform="translate(261.03125 0)"/>
      <use xlink:href="#DejaVuSans-63" transform="translate(300.044922 0)"/>
      <use xlink:href="#DejaVuSans-6f" transform="translate(355.025391 0)"/>
      <use xlink:href="#DejaVuSans-75" transform="translate(416.207031 0)"/>
      <use xlink:href="#DejaVuSans-6e" transform="translate(479.585938 0)"/>
      <use xlink:href="#DejaVuSans-74" transform="translate(542.964844 0)"/>
      <use xlink:href="#DejaVuSans-73" transform="translate(582.173828 0)"/>
      <use xlink:href="#DejaVuSans-2f" transform="translate(634.273438 0)"/>
      <use xlink:href="#DejaVuSans-73" transform="translate(667.964844 0)"/>
      <use xlink:href="#DejaVuSans-29" transform="translate(720.064453 0)"/>
     </g>
    </g>
   </g>
   <g id="line2d_23">
    <path d="M 401.116268 330.30934 
L 401.918412 330.703791 
L 402.720555 331.098242 
L 403.522699 331.492694 
L 404.324843 331.887145 
L 405.126987 332.281596 
L 405.929131 332.676047 
L 406.731274 333.070498 
L 407.533418 333.464949 
L 408.335562 333.8594 
L 409.137706 334.253851 
L 409.93985 334.648302 
L 410.741993 335.042754 
L 411.544137 335.437205 
L 412.346281 335.831656 
L 413.148425 336.226107 
L 413.950569 336.620558 
L 414.752712 337.015009 
L 415.554856 337.40946 
L 416.357 337.803911 
L 417.159144 338.198362 
L 417.961287 338.592814 
L 418.763431 338.987265 
L 419.565575 339.381716 
L 420.367719 339.776167 
L 421.169863 340.170618 
L 421.972006 340.565069 
L 422.77415 340.95952 
L 423.576294 341.353971 
L 424.378438 341.748422 
L 425.180582 342.142873 
L 425.982725 342.537325 
L 426.784869 342.931776 
L 427.587013 343.326227 
L 428.389157 343.720678 
L 429.191301 344.115129 
L 429.993444 344.50958 
L 430.795588 344.904031 
L 431.597732 345.298482 
L 432.399876 345.692933 
L 433.202019 346.087385 
L 434.004163 346.481836 
L 434.806307 346.876287 
L 435.608451 347.270738 
L 436.410595 347.665189 
L 437.212738 348.05964 
L 438.014882 348.454091 
L 438.817026 348.848542 
L 439.61917 349.242993 
L 440.421314 349.637445 
L 441.223457 350.031896 
L 442.025601 350.426347 
L 442.827745 350.820798 
L 443.629889 351.215249 
L 444.432033 351.6097 
L 445.234176 352.004151 
L 446.03632 352.398602 
L 446.838464 352.793053 
L 447.640608 353.187505 
L 448.442751 353.581956 
L 449.244895 353.976407 
L 450.047039 354.370858 
L 450.849183 354.765309 
L 451.651327 355.15976 
L 452.45347 355.554211 
L 453.255614 355.948662 
L 454.057758 356.343113 
L 454.859902 356.737565 
L 455.662046 357.132016 
L 456.464189 357.526467 
L 457.266333 357.920918 
L 458.068477 358.315369 
L 458.870621 358.70982 
L 459.672765 359.104271 
L 460.474908 359.498722 
L 461.277052 359.893173 
L 462.079196 360.287624 
L 462.88134 360.682076 
L 463.683483 361.076527 
L 464.485627 361.470978 
L 465.287771 361.865429 
L 466.089915 362.25988 
L 466.892059 362.654331 
L 467.694202 363.048782 
L 468.496346 363.443233 
L 469.29849 363.837684 
L 470.100634 364.232136 
L 470.902778 364.626587 
L 471.704921 365.021038 
L 472.507065 365.415489 
L 473.309209 365.80994 
L 474.111353 366.204391 
L 474.913497 366.598842 
L 475.71564 366.993293 
L 476.517784 367.387744 
L 477.319928 367.782196 
L 478.122072 368.176647 
L 478.924215 368.571098 
L 479.726359 368.965549 
L 480.528503 369.36 
" clip-path="url(#p3f9df1e589)" style="fill: none; stroke: #0000ff; stroke-width: 1.5; stroke-linecap: square"/>
   </g>
   <g id="line2d_24">
    <path d="M 484.541864 384.48 
L 484.541864 51.84 
" clip-path="url(#p3f9df1e589)" style="fill: none; stroke-dasharray: 5.55,2.4; stroke-dashoffset: 0; stroke: #808080; stroke-width: 1.5"/>
   </g>
   <g id="LineCollection_1">
    <path d="M 92.290909 67.496761 
L 94.055625 67.496761 
" clip-path="url(#p3f9df1e589)" style="fill: none; stroke: #800000; stroke-width: 1.5"/>
    <path d="M 126.702878 109.159019 
L 128.467594 109.159019 
" clip-path="url(#p3f9df1e589)" style="fill: none; stroke: #800000; stroke-width: 1.5"/>
    <path d="M 135.526459 122.894988 
L 137.291176 122.894988 
" clip-path="url(#p3f9df1e589)" style="fill: none; stroke: #800000; stroke-width: 1.5"/>
    <path d="M 144.350041 132.551209 
L 146.114757 132.551209 
" clip-path="url(#p3f9df1e589)" style="fill: none; stroke: #800000; stroke-width: 1.5"/>
    <path d="M 170.820786 187.046564 
L 172.585502 187.046564 
" clip-path="url(#p3f9df1e589)" style="fill: none; stroke: #800000; stroke-width: 1.5"/>
    <path d="M 179.644368 198.458178 
L 181.409084 198.458178 
" clip-path="url(#p3f9df1e589)" style="fill: none; stroke: #800000; stroke-width: 1.5"/>
    <path d="M 188.467949 215.240452 
L 190.232666 215.240452 
" clip-path="url(#p3f9df1e589)" style="fill: none; stroke: #800000; stroke-width: 1.5"/>
    <path d="M 241.409439 268.133865 
L 243.174156 268.133865 
" clip-path="url(#p3f9df1e589)" style="fill: none; stroke: #800000; stroke-width: 1.5"/>
    <path d="M 250.233021 274.995022 
L 251.997738 274.995022 
" clip-path="url(#p3f9df1e589)" style="fill: none; stroke: #800000; stroke-width: 1.5"/>
    <path d="M 259.056603 281.444153 
L 260.821319 281.444153 
" clip-path="url(#p3f9df1e589)" style="fill: none; stroke: #800000; stroke-width: 1.5"/>
    <path d="M 449.645967 356.415252 
L 458.469549 356.415252 
" clip-path="url(#p3f9df1e589)" style="fill: none; stroke: #800000; stroke-width: 1.5"/>
    <path d="M 458.469549 360.578058 
L 467.293131 360.578058 
" clip-path="url(#p3f9df1e589)" style="fill: none; stroke: #800000; stroke-width: 1.5"/>
    <path d="M 467.293131 365.051415 
L 476.116712 365.051415 
" clip-path="url(#p3f9df1e589)" style="fill: none; stroke: #800000; stroke-width: 1.5"/>
   </g>
   <g id="LineCollection_2">
    <path d="M 93.173267 68.033522 
L 93.173267 66.96 
" clip-path="url(#p3f9df1e589)" style="fill: none; stroke: #800000; stroke-width: 1.5"/>
    <path d="M 127.585236 110.069342 
L 127.585236 108.248696 
" clip-path="url(#p3f9df1e589)" style="fill: none; stroke: #800000; stroke-width: 1.5"/>
    <path d="M 136.408817 123.781143 
L 136.408817 122.008832 
" clip-path="url(#p3f9df1e589)" style="fill: none; stroke: #800000; stroke-width: 1.5"/>
    <path d="M 145.232399 133.419972 
L 145.232399 131.682446 
" clip-path="url(#p3f9df1e589)" style="fill: none; stroke: #800000; stroke-width: 1.5"/>
    <path d="M 171.703144 187.80978 
L 171.703144 186.283348 
" clip-path="url(#p3f9df1e589)" style="fill: none; stroke: #800000; stroke-width: 1.5"/>
    <path d="M 180.526726 199.197386 
L 180.526726 197.71897 
" clip-path="url(#p3f9df1e589)" style="fill: none; stroke: #800000; stroke-width: 1.5"/>
    <path d="M 189.350308 215.942865 
L 189.350308 214.53804 
" clip-path="url(#p3f9df1e589)" style="fill: none; stroke: #800000; stroke-width: 1.5"/>
    <path d="M 242.291798 268.705001 
L 242.291798 267.562729 
" clip-path="url(#p3f9df1e589)" style="fill: none; stroke: #800000; stroke-width: 1.5"/>
    <path d="M 251.115379 275.546846 
L 251.115379 274.443198 
" clip-path="url(#p3f9df1e589)" style="fill: none; stroke: #800000; stroke-width: 1.5"/>
    <path d="M 259.938961 281.977187 
L 259.938961 280.91112 
" clip-path="url(#p3f9df1e589)" style="fill: none; stroke: #800000; stroke-width: 1.5"/>
    <path d="M 454.057758 356.603309 
L 454.057758 356.227194 
" clip-path="url(#p3f9df1e589)" style="fill: none; stroke: #800000; stroke-width: 1.5"/>
    <path d="M 462.88134 360.737736 
L 462.88134 360.41838 
" clip-path="url(#p3f9df1e589)" style="fill: none; stroke: #800000; stroke-width: 1.5"/>
    <path d="M 471.704921 365.17345 
L 471.704921 364.92938 
" clip-path="url(#p3f9df1e589)" style="fill: none; stroke: #800000; stroke-width: 1.5"/>
   </g>
   <g id="line2d_25">
    <defs>
     <path id="mc9481b903b" d="M 0 5 
L 0 -5 
" style="stroke: #800000"/>
    </defs>
    <g clip-path="url(#p3f9df1e589)">
     <use xlink:href="#mc9481b903b" x="92.290909" y="67.496761" style="fill: #800000; stroke: #800000"/>
     <use xlink:href="#mc9481b903b" x="126.702878" y="109.159019" style="fill: #800000; stroke: #800000"/>
     <use xlink:href="#mc9481b903b" x="135.526459" y="122.894988" style="fill: #800000; stroke: #800000"/>
     <use xlink:href="#mc9481b903b" x="144.350041" y="132.551209" style="fill: #800000; stroke: #800000"/>
     <use xlink:href="#mc9481b903b" x="170.820786" y="187.046564" style="fill: #800000; stroke: #800000"/>
     <use xlink:href="#mc9481b903b" x="179.644368" y="198.458178" style="fill: #800000; stroke: #800000"/>
     <use xlink:href="#mc9481b903b" x="188.467949" y="215.240452" style="fill: #800000; stroke: #800000"/>
     <use xlink:href="#mc9481b903b" x="241.409439" y="268.133865" style="fill: #800000; stroke: #800000"/>
     <use xlink:href="#mc9481b903b" x="250.233021" y="274.995022" style="fill: #800000; stroke: #800000"/>
     <use xlink:href="#mc9481b903b" x="259.056603" y="281.444153" style="fill: #800000; stroke: #800000"/>
     <use xlink:href="#mc9481b903b" x="449.645967" y="356.415252" style="fill: #800000; stroke: #800000"/>
     <use xlink:href="#mc9481b903b" x="458.469549" y="360.578058" style="fill: #800000; stroke: #800000"/>
     <use xlink:href="#mc9481b903b" x="467.293131" y="365.051415" style="fill: #800000; stroke: #800000"/>
    </g>
   </g>
   <g id="line2d_26">
    <g clip-path="url(#p3f9df1e589)">
     <use xlink:href="#mc9481b903b" x="94.055625" y="67.496761" style="fill: #800000; stroke: #800000"/>
     <use xlink:href="#mc9481b903b" x="128.467594" y="109.159019" style="fill: #800000; stroke: #800000"/>
     <use xlink:href="#mc9481b903b" x="137.291176" y="122.894988" style="fill: #800000; stroke: #800000"/>
     <use xlink:href="#mc9481b903b" x="146.114757" y="132.551209" style="fill: #800000; stroke: #800000"/>
     <use xlink:href="#mc9481b903b" x="172.585502" y="187.046564" style="fill: #800000; stroke: #800000"/>
     <use xlink:href="#mc9481b903b" x="181.409084" y="198.458178" style="fill: #800000; stroke: #800000"/>
     <use xlink:href="#mc9481b903b" x="190.232666" y="215.240452" style="fill: #800000; stroke: #800000"/>
     <use xlink:href="#mc9481b903b" x="243.174156" y="268.133865" style="fill: #800000; stroke: #800000"/>
     <use xlink:href="#mc9481b903b" x="251.997738" y="274.995022" style="fill: #800000; stroke: #800000"/>
     <use xlink:href="#mc9481b903b" x="260.821319" y="281.444153" style="fill: #800000; stroke: #800000"/>
     <use xlink:href="#mc9481b903b" x="458.469549" y="356.415252" style="fill: #800000; stroke: #800000"/>
     <use xlink:href="#mc9481b903b" x="467.293131" y="360.578058" style="fill: #800000; stroke: #800000"/>
     <use xlink:href="#mc9481b903b" x="476.116712" y="365.051415" style="fill: #800000; stroke: #800000"/>
    </g>
   </g>
   <g id="line2d_27">
    <defs>
     <path id="m5b4290a16f" d="M 5 0 
L -5 -0 
" style="stroke: #800000"/>
    </defs>
    <g clip-path="url(#p3f9df1e589)">
     <use xlink:href="#m5b4290a16f" x="93.173267" y="68.033522" style="fill: #800000; stroke: #800000"/>
     <use xlink:href="#m5b4290a16f" x="127.585236" y="110.069342" style="fill: #800000; stroke: #800000"/>
     <use xlink:href="#m5b4290a16f" x="136.408817" y="123.781143" style="fill: #800000; stroke: #800000"/>
     <use xlink:href="#m5b4290a16f" x="145.232399" y="133.419972" style="fill: #800000; stroke: #800000"/>
     <use xlink:href="#m5b4290a16f" x="171.703144" y="187.80978" style="fill: #800000; stroke: #800000"/>
     <use xlink:href="#m5b4290a16f" x="180.526726" y="199.197386" style="fill: #800000; stroke: #800000"/>
     <use xlink:href="#m5b4290a16f" x="189.350308" y="215.942865" style="fill: #800000; stroke: #800000"/>
     <use xlink:href="#m5b4290a16f" x="242.291798" y="268.705001" style="fill: #800000; stroke: #800000"/>
     <use xlink:href="#m5b4290a16f" x="251.115379" y="275.546846" style="fill: #800000; stroke: #800000"/>
     <use xlink:href="#m5b4290a16f" x="259.938961" y="281.977187" style="fill: #800000; stroke: #800000"/>
     <use xlink:href="#m5b4290a16f" x="454.057758" y="356.603309" style="fill: #800000; stroke: #800000"/>
     <use xlink:href="#m5b4290a16f" x="462.88134" y="360.737736" style="fill: #800000; stroke: #800000"/>
     <use xlink:href="#m5b4290a16f" x="471.704921" y="365.17345" style="fill: #800000; stroke: #800000"/>
    </g>
   </g>
   <g id="line2d_28">
    <g clip-path="url(#p3f9df1e589)">
     <use xlink:href="#m5b4290a16f" x="93.173267" y="66.96" style="fill: #800000; stroke: #800000"/>
     <use xlink:href="#m5b4290a16f" x="127.585236" y="108.248696" style="fill: #800000; stroke: #800000"/>
     <use xlink:href="#m5b4290a16f" x="136.408817" y="122.008832" style="fill: #800000; stroke: #800000"/>
     <use xlink:href="#m5b4290a16f" x="145.232399" y="131.682446" style="fill: #800000; stroke: #800000"/>
     <use xlink:href="#m5b4290a16f" x="171.703144" y="186.283348" style="fill: #800000; stroke: #800000"/>
     <use xlink:href="#m5b4290a16f" x="180.526726" y="197.71897" style="fill: #800000; stroke: #800000"/>
     <use xlink:href="#m5b4290a16f" x="189.350308" y="214.53804" style="fill: #800000; stroke: #800000"/>
     <use xlink:href="#m5b4290a16f" x="242.291798" y="267.562729" style="fill: #800000; stroke: #800000"/>
     <use xlink:href="#m5b4290a16f" x="251.115379" y="274.443198" style="fill: #800000; stroke: #800000"/>
     <use xlink:href="#m5b4290a16f" x="259.938961" y="280.91112" style="fill: #800000; stroke: #800000"/>
     <use xlink:href="#m5b4290a16f" x="454.057758" y="356.227194" style="fill: #800000; stroke: #800000"/>
     <use xlink:href="#m5b4290a16f" x="462.88134" y="360.41838" style="fill: #800000; stroke: #800000"/>
     <use xlink:href="#m5b4290a16f" x="471.704921" y="364.92938" style="fill: #800000; stroke: #800000"/>
    </g>
   </g>
   <g id="line2d_29">
    <defs>
     <path id="m58c5edca66" d="M 0 3 
C 0.795609 3 1.55874 2.683901 2.12132 2.12132 
C 2.683901 1.55874 3 0.795609 3 0 
C 3 -0.795609 2.683901 -1.55874 2.12132 -2.12132 
C 1.55874 -2.683901 0.795609 -3 0 -3 
C -0.795609 -3 -1.55874 -2.683901 -2.12132 -2.12132 
C -2.683901 -1.55874 -3 -0.795609 -3 0 
C -3 0.795609 -2.683901 1.55874 -2.12132 2.12132 
C -1.55874 2.683901 -0.795609 3 0 3 
z
" style="stroke: #800000"/>
    </defs>
    <g clip-path="url(#p3f9df1e589)">
     <use xlink:href="#m58c5edca66" x="93.173267" y="67.496761" style="fill: #800000; stroke: #800000"/>
     <use xlink:href="#m58c5edca66" x="127.585236" y="109.159019" style="fill: #800000; stroke: #800000"/>
     <use xlink:href="#m58c5edca66" x="136.408817" y="122.894988" style="fill: #800000; stroke: #800000"/>
     <use xlink:href="#m58c5edca66" x="145.232399" y="132.551209" style="fill: #800000; stroke: #800000"/>
     <use xlink:href="#m58c5edca66" x="171.703144" y="187.046564" style="fill: #800000; stroke: #800000"/>
     <use xlink:href="#m58c5edca66" x="180.526726" y="198.458178" style="fill: #800000; stroke: #800000"/>
     <use xlink:href="#m58c5edca66" x="189.350308" y="215.240452" style="fill: #800000; stroke: #800000"/>
     <use xlink:href="#m58c5edca66" x="242.291798" y="268.133865" style="fill: #800000; stroke: #800000"/>
     <use xlink:href="#m58c5edca66" x="251.115379" y="274.995022" style="fill: #800000; stroke: #800000"/>
     <use xlink:href="#m58c5edca66" x="259.938961" y="281.444153" style="fill: #800000; stroke: #800000"/>
     <use xlink:href="#m58c5edca66" x="454.057758" y="356.415252" style="fill: #800000; stroke: #800000"/>
     <use xlink:href="#m58c5edca66" x="462.88134" y="360.578058" style="fill: #800000; stroke: #800000"/>
     <use xlink:href="#m58c5edca66" x="471.704921" y="365.051415" style="fill: #800000; stroke: #800000"/>
    </g>
   </g>
   <g id="patch_4">
    <path d="M 72 384.48 
L 72 51.84 
" style="fill: none; stroke: #000000; stroke-width: 0.8; stroke-linejoin: miter; stroke-linecap: square"/>
   </g>
   <g id="patch_5">
    <path d="M 518.4 384.48 
L 518.4 51.84 
" style="fill: none; stroke: #000000; stroke-width: 0.8; stroke-linejoin: miter; stroke-linecap: square"/>
   </g>
   <g id="patch_6">
    <path d="M 72 384.48 
L 518.4 384.48 
" style="fill: none; stroke: #000000; stroke-width: 0.8; stroke-linejoin: miter; stroke-linecap: square"/>
   </g>
   <g id="patch_7">
    <path d="M 72 51.84 
L 518.4 51.84 
" style="fill: none; stroke: #000000; stroke-width: 0.8; stroke-linejoin: miter; stroke-linecap: square"/>
   </g>
   <g id="text_14">
    <g id="patch_8">
     <path d="M 205.92 180.30975 
L 442.123125 180.30975 
Q 445.723125 180.30975 445.723125 176.70975 
L 445.723125 151.656375 
Q 445.723125 148.056375 442.123125 148.056375 
L 205.92 148.056375 
Q 202.32 148.056375 202.32 151.656375 
L 202.32 176.70975 
Q 202.32 180.30975 205.92 180.30975 
z
" style="fill: #ffffff; opacity: 0.5; stroke: #000000; stroke-linejoin: miter"/>
    </g>
    <!-- Die maximale Reichweite der 7.69 MeV -->
    <g transform="translate(205.92 160.750125) scale(0.12 -0.12)">
     <defs>
      <path id="DejaVuSans-44" d="M 1259 4147 
L 1259 519 
L 2022 519 
Q 2988 519 3436 956 
Q 3884 1394 3884 2338 
Q 3884 3275 3436 3711 
Q 2988 4147 2022 4147 
L 1259 4147 
z
M 628 4666 
L 1925 4666 
Q 3281 4666 3915 4102 
Q 4550 3538 4550 2338 
Q 4550 1131 3912 565 
Q 3275 0 1925 0 
L 628 0 
L 628 4666 
z
" transform="scale(0.015625)"/>
      <path id="DejaVuSans-69" d="M 603 3500 
L 1178 3500 
L 1178 0 
L 603 0 
L 603 3500 
z
M 603 4863 
L 1178 4863 
L 1178 4134 
L 603 4134 
L 603 4863 
z
" transform="scale(0.015625)"/>
      <path id="DejaVuSans-78" d="M 3513 3500 
L 2247 1797 
L 3578 0 
L 2900 0 
L 1881 1375 
L 863 0 
L 184 0 
L 1544 1831 
L 300 3500 
L 978 3500 
L 1906 2253 
L 2834 3500 
L 3513 3500 
z
" transform="scale(0.015625)"/>
      <path id="DejaVuSans-6c" d="M 603 4863 
L 1178 4863 
L 1178 0 
L 603 0 
L 603 4863 
z
" transform="scale(0.015625)"/>
      <path id="DejaVuSans-68" d="M 3513 2113 
L 3513 0 
L 2938 0 
L 2938 2094 
Q 2938 2591 2744 2837 
Q 2550 3084 2163 3084 
Q 1697 3084 1428 2787 
Q 1159 2491 1159 1978 
L 1159 0 
L 581 0 
L 581 4863 
L 1159 4863 
L 1159 2956 
Q 1366 3272 1645 3428 
Q 1925 3584 2291 3584 
Q 2894 3584 3203 3211 
Q 3513 2838 3513 2113 
z
" transform="scale(0.015625)"/>
      <path id="DejaVuSans-77" d="M 269 3500 
L 844 3500 
L 1563 769 
L 2278 3500 
L 2956 3500 
L 3675 769 
L 4391 3500 
L 4966 3500 
L 4050 0 
L 3372 0 
L 2619 2869 
L 1863 0 
L 1184 0 
L 269 3500 
z
" transform="scale(0.015625)"/>
      <path id="DejaVuSans-72" d="M 2631 2963 
Q 2534 3019 2420 3045 
Q 2306 3072 2169 3072 
Q 1681 3072 1420 2755 
Q 1159 2438 1159 1844 
L 1159 0 
L 581 0 
L 581 3500 
L 1159 3500 
L 1159 2956 
Q 1341 3275 1631 3429 
Q 1922 3584 2338 3584 
Q 2397 3584 2469 3576 
Q 2541 3569 2628 3553 
L 2631 2963 
z
" transform="scale(0.015625)"/>
      <path id="DejaVuSans-37" d="M 525 4666 
L 3525 4666 
L 3525 4397 
L 1831 0 
L 1172 0 
L 2766 4134 
L 525 4134 
L 525 4666 
z
" transform="scale(0.015625)"/>
      <path id="DejaVuSans-2e" d="M 684 794 
L 1344 794 
L 1344 0 
L 684 0 
L 684 794 
z
" transform="scale(0.015625)"/>
      <path id="DejaVuSans-39" d="M 703 97 
L 703 672 
Q 941 559 1184 500 
Q 1428 441 1663 441 
Q 2288 441 2617 861 
Q 2947 1281 2994 2138 
Q 2813 1869 2534 1725 
Q 2256 1581 1919 1581 
Q 1219 1581 811 2004 
Q 403 2428 403 3163 
Q 403 3881 828 4315 
Q 1253 4750 1959 4750 
Q 2769 4750 3195 4129 
Q 3622 3509 3622 2328 
Q 3622 1225 3098 567 
Q 2575 -91 1691 -91 
Q 1453 -91 1209 -44 
Q 966 3 703 97 
z
M 1959 2075 
Q 2384 2075 2632 2365 
Q 2881 2656 2881 3163 
Q 2881 3666 2632 3958 
Q 2384 4250 1959 4250 
Q 1534 4250 1286 3958 
Q 1038 3666 1038 3163 
Q 1038 2656 1286 2365 
Q 1534 2075 1959 2075 
z
" transform="scale(0.015625)"/>
      <path id="DejaVuSans-4d" d="M 628 4666 
L 1569 4666 
L 2759 1491 
L 3956 4666 
L 4897 4666 
L 4897 0 
L 4281 0 
L 4281 4097 
L 3078 897 
L 2444 897 
L 1241 4097 
L 1241 0 
L 628 0 
L 628 4666 
z
" transform="scale(0.015625)"/>
      <path id="DejaVuSans-56" d="M 1831 0 
L 50 4666 
L 709 4666 
L 2188 738 
L 3669 4666 
L 4325 4666 
L 2547 0 
L 1831 0 
z
" transform="scale(0.015625)"/>
     </defs>
     <use xlink:href="#DejaVuSans-44"/>
     <use xlink:href="#DejaVuSans-69" transform="translate(77.001953 0)"/>
     <use xlink:href="#DejaVuSans-65" transform="translate(104.785156 0)"/>
     <use xlink:href="#DejaVuSans-20" transform="translate(166.308594 0)"/>
     <use xlink:href="#DejaVuSans-6d" transform="translate(198.095703 0)"/>
     <use xlink:href="#DejaVuSans-61" transform="translate(295.507812 0)"/>
     <use xlink:href="#DejaVuSans-78" transform="translate(356.787109 0)"/>
     <use xlink:href="#DejaVuSans-69" transform="translate(415.966797 0)"/>
     <use xlink:href="#DejaVuSans-6d" transform="translate(443.75 0)"/>
     <use xlink:href="#DejaVuSans-61" transform="translate(541.162109 0)"/>
     <use xlink:href="#DejaVuSans-6c" transform="translate(602.441406 0)"/>
     <use xlink:href="#DejaVuSans-65" transform="translate(630.224609 0)"/>
     <use xlink:href="#DejaVuSans-20" transform="translate(691.748047 0)"/>
     <use xlink:href="#DejaVuSans-52" transform="translate(723.535156 0)"/>
     <use xlink:href="#DejaVuSans-65" transform="translate(788.517578 0)"/>
     <use xlink:href="#DejaVuSans-69" transform="translate(850.041016 0)"/>
     <use xlink:href="#DejaVuSans-63" transform="translate(877.824219 0)"/>
     <use xlink:href="#DejaVuSans-68" transform="translate(932.804688 0)"/>
     <use xlink:href="#DejaVuSans-77" transform="translate(996.183594 0)"/>
     <use xlink:href="#DejaVuSans-65" transform="translate(1077.970703 0)"/>
     <use xlink:href="#DejaVuSans-69" transform="translate(1139.494141 0)"/>
     <use xlink:href="#DejaVuSans-74" transform="translate(1167.277344 0)"/>
     <use xlink:href="#DejaVuSans-65" transform="translate(1206.486328 0)"/>
     <use xlink:href="#DejaVuSans-20" transform="translate(1268.009766 0)"/>
     <use xlink:href="#DejaVuSans-64" transform="translate(1299.796875 0)"/>
     <use xlink:href="#DejaVuSans-65" transform="translate(1363.273438 0)"/>
     <use xlink:href="#DejaVuSans-72" transform="translate(1424.796875 0)"/>
     <use xlink:href="#DejaVuSans-20" transform="translate(1465.910156 0)"/>
     <use xlink:href="#DejaVuSans-37" transform="translate(1497.697266 0)"/>
     <use xlink:href="#DejaVuSans-2e" transform="translate(1561.320312 0)"/>
     <use xlink:href="#DejaVuSans-36" transform="translate(1593.107422 0)"/>
     <use xlink:href="#DejaVuSans-39" transform="translate(1656.730469 0)"/>
     <use xlink:href="#DejaVuSans-20" transform="translate(1720.353516 0)"/>
     <use xlink:href="#DejaVuSans-4d" transform="translate(1752.140625 0)"/>
     <use xlink:href="#DejaVuSans-65" transform="translate(1838.419922 0)"/>
     <use xlink:href="#DejaVuSans-56" transform="translate(1899.943359 0)"/>
    </g>
    <!-- $\alpha$-Teilchen liegt bei 4.44 $\pm$ 0.15 cm -->
    <g transform="translate(205.92 174.18975) scale(0.12 -0.12)">
     <defs>
      <path id="DejaVuSans-Oblique-3b1" d="M 2619 1628 
L 2622 2350 
Q 2625 3088 2069 3091 
Q 1653 3094 1394 2747 
Q 1069 2319 959 1747 
Q 825 1059 994 731 
Q 1169 397 1547 397 
Q 1966 397 2319 1063 
L 2619 1628 
z
M 2166 3578 
Q 3141 3594 3128 2584 
Q 3128 2584 3616 3500 
L 4128 3500 
L 3119 1603 
L 3109 919 
Q 3109 766 3194 638 
Q 3291 488 3391 488 
L 3669 488 
L 3575 0 
L 3228 0 
Q 2934 0 2722 263 
Q 2622 394 2619 669 
Q 2416 334 2066 50 
Q 1900 -81 1453 -78 
Q 722 -72 456 397 
Q 184 884 353 1747 
Q 534 2675 1009 3097 
Q 1544 3569 2166 3578 
z
" transform="scale(0.015625)"/>
      <path id="DejaVuSans-2d" d="M 313 2009 
L 1997 2009 
L 1997 1497 
L 313 1497 
L 313 2009 
z
" transform="scale(0.015625)"/>
      <path id="DejaVuSans-54" d="M -19 4666 
L 3928 4666 
L 3928 4134 
L 2272 4134 
L 2272 0 
L 1638 0 
L 1638 4134 
L -19 4134 
L -19 4666 
z
" transform="scale(0.015625)"/>
      <path id="DejaVuSans-67" d="M 2906 1791 
Q 2906 2416 2648 2759 
Q 2391 3103 1925 3103 
Q 1463 3103 1205 2759 
Q 947 2416 947 1791 
Q 947 1169 1205 825 
Q 1463 481 1925 481 
Q 2391 481 2648 825 
Q 2906 1169 2906 1791 
z
M 3481 434 
Q 3481 -459 3084 -895 
Q 2688 -1331 1869 -1331 
Q 1566 -1331 1297 -1286 
Q 1028 -1241 775 -1147 
L 775 -588 
Q 1028 -725 1275 -790 
Q 1522 -856 1778 -856 
Q 2344 -856 2625 -561 
Q 2906 -266 2906 331 
L 2906 616 
Q 2728 306 2450 153 
Q 2172 0 1784 0 
Q 1141 0 747 490 
Q 353 981 353 1791 
Q 353 2603 747 3093 
Q 1141 3584 1784 3584 
Q 2172 3584 2450 3431 
Q 2728 3278 2906 2969 
L 2906 3500 
L 3481 3500 
L 3481 434 
z
" transform="scale(0.015625)"/>
      <path id="DejaVuSans-b1" d="M 2944 4013 
L 2944 2803 
L 4684 2803 
L 4684 2272 
L 2944 2272 
L 2944 1063 
L 2419 1063 
L 2419 2272 
L 678 2272 
L 678 2803 
L 2419 2803 
L 2419 4013 
L 2944 4013 
z
M 678 531 
L 4684 531 
L 4684 0 
L 678 0 
L 678 531 
z
" transform="scale(0.015625)"/>
      <path id="DejaVuSans-35" d="M 691 4666 
L 3169 4666 
L 3169 4134 
L 1269 4134 
L 1269 2991 
Q 1406 3038 1543 3061 
Q 1681 3084 1819 3084 
Q 2600 3084 3056 2656 
Q 3513 2228 3513 1497 
Q 3513 744 3044 326 
Q 2575 -91 1722 -91 
Q 1428 -91 1123 -41 
Q 819 9 494 109 
L 494 744 
Q 775 591 1075 516 
Q 1375 441 1709 441 
Q 2250 441 2565 725 
Q 2881 1009 2881 1497 
Q 2881 1984 2565 2268 
Q 2250 2553 1709 2553 
Q 1456 2553 1204 2497 
Q 953 2441 691 2322 
L 691 4666 
z
" transform="scale(0.015625)"/>
     </defs>
     <use xlink:href="#DejaVuSans-Oblique-3b1" transform="translate(0 0.015625)"/>
     <use xlink:href="#DejaVuSans-2d" transform="translate(65.917969 0.015625)"/>
     <use xlink:href="#DejaVuSans-54" transform="translate(102.001953 0.015625)"/>
     <use xlink:href="#DejaVuSans-65" transform="translate(163.085938 0.015625)"/>
     <use xlink:href="#DejaVuSans-69" transform="translate(224.609375 0.015625)"/>
     <use xlink:href="#DejaVuSans-6c" transform="translate(252.392578 0.015625)"/>
     <use xlink:href="#DejaVuSans-63" transform="translate(280.175781 0.015625)"/>
     <use xlink:href="#DejaVuSans-68" transform="translate(335.15625 0.015625)"/>
     <use xlink:href="#DejaVuSans-65" transform="translate(398.535156 0.015625)"/>
     <use xlink:href="#DejaVuSans-6e" transform="translate(460.058594 0.015625)"/>
     <use xlink:href="#DejaVuSans-20" transform="translate(523.4375 0.015625)"/>
     <use xlink:href="#DejaVuSans-6c" transform="translate(555.224609 0.015625)"/>
     <use xlink:href="#DejaVuSans-69" transform="translate(583.007812 0.015625)"/>
     <use xlink:href="#DejaVuSans-65" transform="translate(610.791016 0.015625)"/>
     <use xlink:href="#DejaVuSans-67" transform="translate(672.314453 0.015625)"/>
     <use xlink:href="#DejaVuSans-74" transform="translate(735.791016 0.015625)"/>
     <use xlink:href="#DejaVuSans-20" transform="translate(775 0.015625)"/>
     <use xlink:href="#DejaVuSans-62" transform="translate(806.787109 0.015625)"/>
     <use xlink:href="#DejaVuSans-65" transform="translate(870.263672 0.015625)"/>
     <use xlink:href="#DejaVuSans-69" transform="translate(931.787109 0.015625)"/>
     <use xlink:href="#DejaVuSans-20" transform="translate(959.570312 0.015625)"/>
     <use xlink:href="#DejaVuSans-34" transform="translate(991.357422 0.015625)"/>
     <use xlink:href="#DejaVuSans-2e" transform="translate(1054.980469 0.015625)"/>
     <use xlink:href="#DejaVuSans-34" transform="translate(1086.767578 0.015625)"/>
     <use xlink:href="#DejaVuSans-34" transform="translate(1150.390625 0.015625)"/>
     <use xlink:href="#DejaVuSans-20" transform="translate(1214.013672 0.015625)"/>
     <use xlink:href="#DejaVuSans-b1" transform="translate(1245.800781 0.015625)"/>
     <use xlink:href="#DejaVuSans-20" transform="translate(1329.589844 0.015625)"/>
     <use xlink:href="#DejaVuSans-30" transform="translate(1361.376953 0.015625)"/>
     <use xlink:href="#DejaVuSans-2e" transform="translate(1425 0.015625)"/>
     <use xlink:href="#DejaVuSans-31" transform="translate(1456.787109 0.015625)"/>
     <use xlink:href="#DejaVuSans-35" transform="translate(1520.410156 0.015625)"/>
     <use xlink:href="#DejaVuSans-20" transform="translate(1584.033203 0.015625)"/>
     <use xlink:href="#DejaVuSans-63" transform="translate(1615.820312 0.015625)"/>
     <use xlink:href="#DejaVuSans-6d" transform="translate(1670.800781 0.015625)"/>
    </g>
   </g>
   <g id="text_15">
    <!-- Raten in Abhängigkeit des Abstandes -->
    <g transform="translate(182.97375 45.84) scale(0.12 -0.12)">
     <defs>
      <path id="DejaVuSans-e4" d="M 2194 1759 
Q 1497 1759 1228 1600 
Q 959 1441 959 1056 
Q 959 750 1161 570 
Q 1363 391 1709 391 
Q 2188 391 2477 730 
Q 2766 1069 2766 1631 
L 2766 1759 
L 2194 1759 
z
M 3341 1997 
L 3341 0 
L 2766 0 
L 2766 531 
Q 2569 213 2275 61 
Q 1981 -91 1556 -91 
Q 1019 -91 701 211 
Q 384 513 384 1019 
Q 384 1609 779 1909 
Q 1175 2209 1959 2209 
L 2766 2209 
L 2766 2266 
Q 2766 2663 2505 2880 
Q 2244 3097 1772 3097 
Q 1472 3097 1187 3025 
Q 903 2953 641 2809 
L 641 3341 
Q 956 3463 1253 3523 
Q 1550 3584 1831 3584 
Q 2591 3584 2966 3190 
Q 3341 2797 3341 1997 
z
M 2150 4850 
L 2784 4850 
L 2784 4219 
L 2150 4219 
L 2150 4850 
z
M 928 4850 
L 1563 4850 
L 1563 4219 
L 928 4219 
L 928 4850 
z
" transform="scale(0.015625)"/>
      <path id="DejaVuSans-6b" d="M 581 4863 
L 1159 4863 
L 1159 1991 
L 2875 3500 
L 3609 3500 
L 1753 1863 
L 3688 0 
L 2938 0 
L 1159 1709 
L 1159 0 
L 581 0 
L 581 4863 
z
" transform="scale(0.015625)"/>
     </defs>
     <use xlink:href="#DejaVuSans-52"/>
     <use xlink:href="#DejaVuSans-61" transform="translate(67.232422 0)"/>
     <use xlink:href="#DejaVuSans-74" transform="translate(128.511719 0)"/>
     <use xlink:href="#DejaVuSans-65" transform="translate(167.720703 0)"/>
     <use xlink:href="#DejaVuSans-6e" transform="translate(229.244141 0)"/>
     <use xlink:href="#DejaVuSans-20" transform="translate(292.623047 0)"/>
     <use xlink:href="#DejaVuSans-69" transform="translate(324.410156 0)"/>
     <use xlink:href="#DejaVuSans-6e" transform="translate(352.193359 0)"/>
     <use xlink:href="#DejaVuSans-20" transform="translate(415.572266 0)"/>
     <use xlink:href="#DejaVuSans-41" transform="translate(447.359375 0)"/>
     <use xlink:href="#DejaVuSans-62" transform="translate(515.767578 0)"/>
     <use xlink:href="#DejaVuSans-68" transform="translate(579.244141 0)"/>
     <use xlink:href="#DejaVuSans-e4" transform="translate(642.623047 0)"/>
     <use xlink:href="#DejaVuSans-6e" transform="translate(703.902344 0)"/>
     <use xlink:href="#DejaVuSans-67" transform="translate(767.28125 0)"/>
     <use xlink:href="#DejaVuSans-69" transform="translate(830.757812 0)"/>
     <use xlink:href="#DejaVuSans-67" transform="translate(858.541016 0)"/>
     <use xlink:href="#DejaVuSans-6b" transform="translate(922.017578 0)"/>
     <use xlink:href="#DejaVuSans-65" transform="translate(976.302734 0)"/>
     <use xlink:href="#DejaVuSans-69" transform="translate(1037.826172 0)"/>
     <use xlink:href="#DejaVuSans-74" transform="translate(1065.609375 0)"/>
     <use xlink:href="#DejaVuSans-20" transform="translate(1104.818359 0)"/>
     <use xlink:href="#DejaVuSans-64" transform="translate(1136.605469 0)"/>
     <use xlink:href="#DejaVuSans-65" transform="translate(1200.082031 0)"/>
     <use xlink:href="#DejaVuSans-73" transform="translate(1261.605469 0)"/>
     <use xlink:href="#DejaVuSans-20" transform="translate(1313.705078 0)"/>
     <use xlink:href="#DejaVuSans-41" transform="translate(1345.492188 0)"/>
     <use xlink:href="#DejaVuSans-62" transform="translate(1413.900391 0)"/>
     <use xlink:href="#DejaVuSans-73" transform="translate(1477.376953 0)"/>
     <use xlink:href="#DejaVuSans-74" transform="translate(1529.476562 0)"/>
     <use xlink:href="#DejaVuSans-61" transform="translate(1568.685547 0)"/>
     <use xlink:href="#DejaVuSans-6e" transform="translate(1629.964844 0)"/>
     <use xlink:href="#DejaVuSans-64" transform="translate(1693.34375 0)"/>
     <use xlink:href="#DejaVuSans-65" transform="translate(1756.820312 0)"/>
     <use xlink:href="#DejaVuSans-73" transform="translate(1818.34375 0)"/>
    </g>
   </g>
   <g id="legend_1">
    <g id="patch_9">
     <path d="M 79 379.48 
L 217.992188 379.48 
Q 219.992188 379.48 219.992188 377.48 
L 219.992188 334.445625 
Q 219.992188 332.445625 217.992188 332.445625 
L 79 332.445625 
Q 77 332.445625 77 334.445625 
L 77 377.48 
Q 77 379.48 79 379.48 
z
" style="fill: #ffffff; opacity: 0.8; stroke: #cccccc; stroke-linejoin: miter"/>
    </g>
    <g id="line2d_30">
     <path d="M 81 340.544062 
L 91 340.544062 
L 101 340.544062 
" style="fill: none; stroke: #0000ff; stroke-width: 1.5; stroke-linecap: square"/>
    </g>
    <g id="text_16">
     <!-- Fit -->
     <g transform="translate(109 344.044062) scale(0.1 -0.1)">
      <defs>
       <path id="DejaVuSans-46" d="M 628 4666 
L 3309 4666 
L 3309 4134 
L 1259 4134 
L 1259 2759 
L 3109 2759 
L 3109 2228 
L 1259 2228 
L 1259 0 
L 628 0 
L 628 4666 
z
" transform="scale(0.015625)"/>
      </defs>
      <use xlink:href="#DejaVuSans-46"/>
      <use xlink:href="#DejaVuSans-69" transform="translate(50.269531 0)"/>
      <use xlink:href="#DejaVuSans-74" transform="translate(78.052734 0)"/>
     </g>
    </g>
    <g id="line2d_31">
     <path d="M 81 355.222188 
L 91 355.222188 
L 101 355.222188 
" style="fill: none; stroke-dasharray: 5.55,2.4; stroke-dashoffset: 0; stroke: #808080; stroke-width: 1.5"/>
    </g>
    <g id="text_17">
     <!-- maximale Reichweite -->
     <g transform="translate(109 358.722188) scale(0.1 -0.1)">
      <use xlink:href="#DejaVuSans-6d"/>
      <use xlink:href="#DejaVuSans-61" transform="translate(97.412109 0)"/>
      <use xlink:href="#DejaVuSans-78" transform="translate(158.691406 0)"/>
      <use xlink:href="#DejaVuSans-69" transform="translate(217.871094 0)"/>
      <use xlink:href="#DejaVuSans-6d" transform="translate(245.654297 0)"/>
      <use xlink:href="#DejaVuSans-61" transform="translate(343.066406 0)"/>
      <use xlink:href="#DejaVuSans-6c" transform="translate(404.345703 0)"/>
      <use xlink:href="#DejaVuSans-65" transform="translate(432.128906 0)"/>
      <use xlink:href="#DejaVuSans-20" transform="translate(493.652344 0)"/>
      <use xlink:href="#DejaVuSans-52" transform="translate(525.439453 0)"/>
      <use xlink:href="#DejaVuSans-65" transform="translate(590.421875 0)"/>
      <use xlink:href="#DejaVuSans-69" transform="translate(651.945312 0)"/>
      <use xlink:href="#DejaVuSans-63" transform="translate(679.728516 0)"/>
      <use xlink:href="#DejaVuSans-68" transform="translate(734.708984 0)"/>
      <use xlink:href="#DejaVuSans-77" transform="translate(798.087891 0)"/>
      <use xlink:href="#DejaVuSans-65" transform="translate(879.875 0)"/>
      <use xlink:href="#DejaVuSans-69" transform="translate(941.398438 0)"/>
      <use xlink:href="#DejaVuSans-74" transform="translate(969.181641 0)"/>
      <use xlink:href="#DejaVuSans-65" transform="translate(1008.390625 0)"/>
     </g>
    </g>
    <g id="LineCollection_3">
     <path d="M 86 369.900312 
L 96 369.900312 
" style="fill: none; stroke: #800000; stroke-width: 1.5"/>
    </g>
    <g id="LineCollection_4">
     <path d="M 91 374.900312 
L 91 364.900312 
" style="fill: none; stroke: #800000; stroke-width: 1.5"/>
    </g>
    <g id="line2d_32">
     <g>
      <use xlink:href="#mc9481b903b" x="86" y="369.900312" style="fill: #800000; stroke: #800000"/>
     </g>
    </g>
    <g id="line2d_33">
     <g>
      <use xlink:href="#mc9481b903b" x="96" y="369.900312" style="fill: #800000; stroke: #800000"/>
     </g>
    </g>
    <g id="line2d_34">
     <g>
      <use xlink:href="#m5b4290a16f" x="91" y="374.900312" style="fill: #800000; stroke: #800000"/>
     </g>
    </g>
    <g id="line2d_35">
     <g>
      <use xlink:href="#m5b4290a16f" x="91" y="364.900312" style="fill: #800000; stroke: #800000"/>
     </g>
    </g>
    <g id="line2d_36"/>
    <g id="line2d_37">
     <g>
      <use xlink:href="#m58c5edca66" x="91" y="369.900312" style="fill: #800000; stroke: #800000"/>
     </g>
    </g>
    <g id="text_18">
     <!-- Raten -->
     <g transform="translate(109 373.400312) scale(0.1 -0.1)">
      <use xlink:href="#DejaVuSans-52"/>
      <use xlink:href="#DejaVuSans-61" transform="translate(67.232422 0)"/>
      <use xlink:href="#DejaVuSans-74" transform="translate(128.511719 0)"/>
      <use xlink:href="#DejaVuSans-65" transform="translate(167.720703 0)"/>
      <use xlink:href="#DejaVuSans-6e" transform="translate(229.244141 0)"/>
     </g>
    </g>
   </g>
  </g>
 </g>
 <defs>
  <clipPath id="p3f9df1e589">
   <rect x="72" y="51.84" width="446.4" height="332.64"/>
  </clipPath>
 </defs>
</svg>
