
<!DOCTYPE svg PUBLIC "-//W3C//DTD SVG 1.1//EN" "http://www.w3.org/Graphics/SVG/1.1/DTD/svg11.dtd">
<svg xmlns:xlink="http://www.w3.org/1999/xlink" width="460.8pt" height="345.6pt" viewBox="0 0 460.8 345.6" xmlns="http://www.w3.org/2000/svg" version="1.1">
 <metadata>
  <rdf:RDF xmlns:dc="http://purl.org/dc/elements/1.1/" xmlns:cc="http://creativecommons.org/ns#" xmlns:rdf="http://www.w3.org/1999/02/22-rdf-syntax-ns#">
   <cc:Work>
    <dc:type rdf:resource="http://purl.org/dc/dcmitype/StillImage"/>
    <dc:date>2026-03-15T13:47:37.805131</dc:date>
    <dc:format>image/svg+xml</dc:format>
    <dc:creator>
     <cc:Agent>
      <dc:title>Matplotlib v3.10.3, https://matplotlib.org/</dc:title>
     </cc:Agent>
    </dc:creator>
   </cc:Work>
  </rdf:RDF>
 </metadata>
 <defs>
  <style type="text/css">*{stroke-linejoin: round; stroke-linecap: butt}</style>
 </defs>
 <g id="figure_1">
  <g id="patch_1">
   <path d="M 0 345.6  L 460.8 345.6  L 460.8 0  L 0 0  z " style="fill: #ffffff"/>
  </g>
  <g id="axes_1">
   <g id="patch_2">
    <path d="M 57.6 307.584  L 414.72 307.584  L 414.72 41.472  L 57.6 41.472  z " style="fill: #ffffff"/>
   </g>
   <g id="matplotlib.axis_1">
    <g id="xtick_1">
     <g id="line2d_1">
      <path d="M 73.832727 307.584  L 73.832727 41.472  " clip-path="url(#pe32fd58c37)" style="fill: none; stroke: #b0b0b0; stroke-width: 0.8; stroke-linecap: square"/>
     </g>
     <g id="line2d_2">
      <defs>
       <path id="m2715bc44f9" d="M 0 0  L 0 3.5  " style="stroke: #000000; stroke-width: 0.8"/>
      </defs>
      <g>
       <use xlink:href="#m2715bc44f9" x="73.832727" y="307.584" style="stroke: #000000; stroke-width: 0.8"/>
      </g>
     </g>
     <g id="text_1">
      <!-- 0 -->
      <g transform="translate(70.496165 323.173375) scale(0.12 -0.12)">
       <defs>
        <path id="Arial-BoldMT-30" d="M 1756 4600  Q 2422 4600 2797 4125  Q 3244 3563 3244 2259  Q 3244 959 2794 391  Q 2422 -78 1756 -78  Q 1088 -78 678 436  Q 269 950 269 2269  Q 269 3563 719 4131  Q 1091 4600 1756 4600  z M 1756 3872  Q 1597 3872 1472 3770  Q 1347 3669 1278 3406  Q 1188 3066 1188 2259  Q 1188 1453 1269 1151  Q 1350 850 1473 750  Q 1597 650 1756 650  Q 1916 650 2041 751  Q 2166 853 2234 1116  Q 2325 1453 2325 2259  Q 2325 3066 2244 3367  Q 2163 3669 2039 3770  Q 1916 3872 1756 3872  z " transform="scale(0.015625)"/>
       </defs>
       <use xlink:href="#Arial-BoldMT-30"/>
      </g>
     </g>
    </g>
    <g id="xtick_2">
     <g id="line2d_3">
      <path d="M 137.303802 307.584  L 137.303802 41.472  " clip-path="url(#pe32fd58c37)" style="fill: none; stroke: #b0b0b0; stroke-width: 0.8; stroke-linecap: square"/>
     </g>
     <g id="line2d_4">
      <g>
       <use xlink:href="#m2715bc44f9" x="137.303802" y="307.584" style="stroke: #000000; stroke-width: 0.8"/>
      </g>
     </g>
     <g id="text_2">
      <!-- 200 -->
      <g transform="translate(127.294114 323.173375) scale(0.12 -0.12)">
       <defs>
        <path id="Arial-BoldMT-32" d="M 3238 816  L 3238 0  L 159 0  Q 209 463 459 877  Q 709 1291 1447 1975  Q 2041 2528 2175 2725  Q 2356 2997 2356 3263  Q 2356 3556 2198 3714  Q 2041 3872 1763 3872  Q 1488 3872 1325 3706  Q 1163 3541 1138 3156  L 263 3244  Q 341 3969 753 4284  Q 1166 4600 1784 4600  Q 2463 4600 2850 4234  Q 3238 3869 3238 3325  Q 3238 3016 3127 2736  Q 3016 2456 2775 2150  Q 2616 1947 2200 1565  Q 1784 1184 1673 1059  Q 1563 934 1494 816  L 3238 816  z " transform="scale(0.015625)"/>
       </defs>
       <use xlink:href="#Arial-BoldMT-32"/>
       <use xlink:href="#Arial-BoldMT-30" transform="translate(55.615234 0)"/>
       <use xlink:href="#Arial-BoldMT-30" transform="translate(111.230469 0)"/>
      </g>
     </g>
    </g>
    <g id="xtick_3">
     <g id="line2d_5">
      <path d="M 200.774876 307.584  L 200.774876 41.472  " clip-path="url(#pe32fd58c37)" style="fill: none; stroke: #b0b0b0; stroke-width: 0.8; stroke-linecap: square"/>
     </g>
     <g id="line2d_6">
      <g>
       <use xlink:href="#m2715bc44f9" x="200.774876" y="307.584" style="stroke: #000000; stroke-width: 0.8"/>
      </g>
     </g>
     <g id="text_3">
      <!-- 400 -->
      <g transform="translate(190.765189 323.173375) scale(0.12 -0.12)">
       <defs>
        <path id="Arial-BoldMT-34" d="M 1994 0  L 1994 922  L 119 922  L 119 1691  L 2106 4600  L 2844 4600  L 2844 1694  L 3413 1694  L 3413 922  L 2844 922  L 2844 0  L 1994 0  z M 1994 1694  L 1994 3259  L 941 1694  L 1994 1694  z " transform="scale(0.015625)"/>
       </defs>
       <use xlink:href="#Arial-BoldMT-34"/>
       <use xlink:href="#Arial-BoldMT-30" transform="translate(55.615234 0)"/>
       <use xlink:href="#Arial-BoldMT-30" transform="translate(111.230469 0)"/>
      </g>
     </g>
    </g>
    <g id="xtick_4">
     <g id="line2d_7">
      <path d="M 264.24595 307.584  L 264.24595 41.472  " clip-path="url(#pe32fd58c37)" style="fill: none; stroke: #b0b0b0; stroke-width: 0.8; stroke-linecap: square"/>
     </g>
     <g id="line2d_8">
      <g>
       <use xlink:href="#m2715bc44f9" x="264.24595" y="307.584" style="stroke: #000000; stroke-width: 0.8"/>
      </g>
     </g>
     <g id="text_4">
      <!-- 600 -->
      <g transform="translate(254.236263 323.173375) scale(0.12 -0.12)">
       <defs>
        <path id="Arial-BoldMT-36" d="M 3247 3459  L 2397 3366  Q 2366 3628 2234 3753  Q 2103 3878 1894 3878  Q 1616 3878 1423 3628  Q 1231 3378 1181 2588  Q 1509 2975 1997 2975  Q 2547 2975 2939 2556  Q 3331 2138 3331 1475  Q 3331 772 2918 347  Q 2506 -78 1859 -78  Q 1166 -78 719 461  Q 272 1000 272 2228  Q 272 3488 737 4044  Q 1203 4600 1947 4600  Q 2469 4600 2811 4308  Q 3153 4016 3247 3459  z M 1256 1544  Q 1256 1116 1453 883  Q 1650 650 1903 650  Q 2147 650 2309 840  Q 2472 1031 2472 1466  Q 2472 1913 2297 2120  Q 2122 2328 1859 2328  Q 1606 2328 1431 2129  Q 1256 1931 1256 1544  z " transform="scale(0.015625)"/>
       </defs>
       <use xlink:href="#Arial-BoldMT-36"/>
       <use xlink:href="#Arial-BoldMT-30" transform="translate(55.615234 0)"/>
       <use xlink:href="#Arial-BoldMT-30" transform="translate(111.230469 0)"/>
      </g>
     </g>
    </g>
    <g id="xtick_5">
     <g id="line2d_9">
      <path d="M 327.717025 307.584  L 327.717025 41.472  " clip-path="url(#pe32fd58c37)" style="fill: none; stroke: #b0b0b0; stroke-width: 0.8; stroke-linecap: square"/>
     </g>
     <g id="line2d_10">
      <g>
       <use xlink:href="#m2715bc44f9" x="327.717025" y="307.584" style="stroke: #000000; stroke-width: 0.8"/>
      </g>
     </g>
     <g id="text_5">
      <!-- 800 -->
      <g transform="translate(317.707337 323.173375) scale(0.12 -0.12)">
       <defs>
        <path id="Arial-BoldMT-38" d="M 1025 2472  Q 684 2616 529 2867  Q 375 3119 375 3419  Q 375 3931 733 4265  Q 1091 4600 1750 4600  Q 2403 4600 2764 4265  Q 3125 3931 3125 3419  Q 3125 3100 2959 2851  Q 2794 2603 2494 2472  Q 2875 2319 3073 2025  Q 3272 1731 3272 1347  Q 3272 713 2867 316  Q 2463 -81 1791 -81  Q 1166 -81 750 247  Q 259 634 259 1309  Q 259 1681 443 1992  Q 628 2303 1025 2472  z M 1206 3356  Q 1206 3094 1354 2947  Q 1503 2800 1750 2800  Q 2000 2800 2150 2948  Q 2300 3097 2300 3359  Q 2300 3606 2151 3754  Q 2003 3903 1759 3903  Q 1506 3903 1356 3753  Q 1206 3603 1206 3356  z M 1125 1394  Q 1125 1031 1311 828  Q 1497 625 1775 625  Q 2047 625 2225 820  Q 2403 1016 2403 1384  Q 2403 1706 2222 1901  Q 2041 2097 1763 2097  Q 1441 2097 1283 1875  Q 1125 1653 1125 1394  z " transform="scale(0.015625)"/>
       </defs>
       <use xlink:href="#Arial-BoldMT-38"/>
       <use xlink:href="#Arial-BoldMT-30" transform="translate(55.615234 0)"/>
       <use xlink:href="#Arial-BoldMT-30" transform="translate(111.230469 0)"/>
      </g>
     </g>
    </g>
    <g id="xtick_6">
     <g id="line2d_11">
      <path d="M 391.188099 307.584  L 391.188099 41.472  " clip-path="url(#pe32fd58c37)" style="fill: none; stroke: #b0b0b0; stroke-width: 0.8; stroke-linecap: square"/>
     </g>
     <g id="line2d_12">
      <g>
       <use xlink:href="#m2715bc44f9" x="391.188099" y="307.584" style="stroke: #000000; stroke-width: 0.8"/>
      </g>
     </g>
     <g id="text_6">
      <!-- 1000 -->
      <g transform="translate(377.841849 323.173375) scale(0.12 -0.12)">
       <defs>
        <path id="Arial-BoldMT-31" d="M 2519 0  L 1641 0  L 1641 3309  Q 1159 2859 506 2644  L 506 3441  Q 850 3553 1253 3867  Q 1656 4181 1806 4600  L 2519 4600  L 2519 0  z " transform="scale(0.015625)"/>
       </defs>
       <use xlink:href="#Arial-BoldMT-31"/>
       <use xlink:href="#Arial-BoldMT-30" transform="translate(55.615234 0)"/>
       <use xlink:href="#Arial-BoldMT-30" transform="translate(111.230469 0)"/>
       <use xlink:href="#Arial-BoldMT-30" transform="translate(166.845703 0)"/>
      </g>
     </g>
    </g>
    <g id="text_7">
     <!-- Kanalnummer -->
     <g transform="translate(196.150312 338.130875) scale(0.12 -0.12)">
      <defs>
       <path id="Arial-BoldMT-4b" d="M 478 0  L 478 4581  L 1403 4581  L 1403 2547  L 3272 4581  L 4516 4581  L 2791 2797  L 4609 0  L 3413 0  L 2153 2150  L 1403 1384  L 1403 0  L 478 0  z " transform="scale(0.015625)"/>
       <path id="Arial-BoldMT-61" d="M 1116 2306  L 319 2450  Q 453 2931 781 3162  Q 1109 3394 1756 3394  Q 2344 3394 2631 3255  Q 2919 3116 3036 2902  Q 3153 2688 3153 2116  L 3144 1091  Q 3144 653 3186 445  Q 3228 238 3344 0  L 2475 0  Q 2441 88 2391 259  Q 2369 338 2359 363  Q 2134 144 1878 34  Q 1622 -75 1331 -75  Q 819 -75 523 203  Q 228 481 228 906  Q 228 1188 362 1408  Q 497 1628 739 1745  Q 981 1863 1438 1950  Q 2053 2066 2291 2166  L 2291 2253  Q 2291 2506 2166 2614  Q 2041 2722 1694 2722  Q 1459 2722 1328 2630  Q 1197 2538 1116 2306  z M 2291 1594  Q 2122 1538 1756 1459  Q 1391 1381 1278 1306  Q 1106 1184 1106 997  Q 1106 813 1243 678  Q 1381 544 1594 544  Q 1831 544 2047 700  Q 2206 819 2256 991  Q 2291 1103 2291 1419  L 2291 1594  z " transform="scale(0.015625)"/>
       <path id="Arial-BoldMT-6e" d="M 3478 0  L 2600 0  L 2600 1694  Q 2600 2231 2544 2389  Q 2488 2547 2361 2634  Q 2234 2722 2056 2722  Q 1828 2722 1647 2597  Q 1466 2472 1398 2265  Q 1331 2059 1331 1503  L 1331 0  L 453 0  L 453 3319  L 1269 3319  L 1269 2831  Q 1703 3394 2363 3394  Q 2653 3394 2893 3289  Q 3134 3184 3257 3021  Q 3381 2859 3429 2653  Q 3478 2447 3478 2063  L 3478 0  z " transform="scale(0.015625)"/>
       <path id="Arial-BoldMT-6c" d="M 459 0  L 459 4581  L 1338 4581  L 1338 0  L 459 0  z " transform="scale(0.015625)"/>
       <path id="Arial-BoldMT-75" d="M 2644 0  L 2644 497  Q 2463 231 2167 78  Q 1872 -75 1544 -75  Q 1209 -75 943 72  Q 678 219 559 484  Q 441 750 441 1219  L 441 3319  L 1319 3319  L 1319 1794  Q 1319 1094 1367 936  Q 1416 778 1544 686  Q 1672 594 1869 594  Q 2094 594 2272 717  Q 2450 841 2515 1023  Q 2581 1206 2581 1919  L 2581 3319  L 3459 3319  L 3459 0  L 2644 0  z " transform="scale(0.015625)"/>
       <path id="Arial-BoldMT-6d" d="M 394 3319  L 1203 3319  L 1203 2866  Q 1638 3394 2238 3394  Q 2556 3394 2790 3262  Q 3025 3131 3175 2866  Q 3394 3131 3647 3262  Q 3900 3394 4188 3394  Q 4553 3394 4806 3245  Q 5059 3097 5184 2809  Q 5275 2597 5275 2122  L 5275 0  L 4397 0  L 4397 1897  Q 4397 2391 4306 2534  Q 4184 2722 3931 2722  Q 3747 2722 3584 2609  Q 3422 2497 3350 2280  Q 3278 2063 3278 1594  L 3278 0  L 2400 0  L 2400 1819  Q 2400 2303 2353 2443  Q 2306 2584 2207 2653  Q 2109 2722 1941 2722  Q 1738 2722 1575 2612  Q 1413 2503 1342 2297  Q 1272 2091 1272 1613  L 1272 0  L 394 0  L 394 3319  z " transform="scale(0.015625)"/>
       <path id="Arial-BoldMT-65" d="M 2381 1056  L 3256 909  Q 3088 428 2723 176  Q 2359 -75 1813 -75  Q 947 -75 531 491  Q 203 944 203 1634  Q 203 2459 634 2926  Q 1066 3394 1725 3394  Q 2466 3394 2894 2905  Q 3322 2416 3303 1406  L 1103 1406  Q 1113 1016 1316 798  Q 1519 581 1822 581  Q 2028 581 2168 693  Q 2309 806 2381 1056  z M 2431 1944  Q 2422 2325 2234 2523  Q 2047 2722 1778 2722  Q 1491 2722 1303 2513  Q 1116 2303 1119 1944  L 2431 1944  z " transform="scale(0.015625)"/>
       <path id="Arial-BoldMT-72" d="M 1300 0  L 422 0  L 422 3319  L 1238 3319  L 1238 2847  Q 1447 3181 1614 3287  Q 1781 3394 1994 3394  Q 2294 3394 2572 3228  L 2300 2463  Q 2078 2606 1888 2606  Q 1703 2606 1575 2504  Q 1447 2403 1373 2137  Q 1300 1872 1300 1025  L 1300 0  z " transform="scale(0.015625)"/>
      </defs>
      <use xlink:href="#Arial-BoldMT-4b"/>
      <use xlink:href="#Arial-BoldMT-61" transform="translate(72.216797 0)"/>
      <use xlink:href="#Arial-BoldMT-6e" transform="translate(127.832031 0)"/>
      <use xlink:href="#Arial-BoldMT-61" transform="translate(188.916016 0)"/>
      <use xlink:href="#Arial-BoldMT-6c" transform="translate(244.53125 0)"/>
      <use xlink:href="#Arial-BoldMT-6e" transform="translate(272.314453 0)"/>
      <use xlink:href="#Arial-BoldMT-75" transform="translate(333.398438 0)"/>
      <use xlink:href="#Arial-BoldMT-6d" transform="translate(394.482422 0)"/>
      <use xlink:href="#Arial-BoldMT-6d" transform="translate(483.398438 0)"/>
      <use xlink:href="#Arial-BoldMT-65" transform="translate(572.314453 0)"/>
      <use xlink:href="#Arial-BoldMT-72" transform="translate(627.929688 0)"/>
     </g>
    </g>
   </g>
   <g id="matplotlib.axis_2">
    <g id="ytick_1">
     <g id="line2d_13">
      <path d="M 57.6 295.488  L 414.72 295.488  " clip-path="url(#pe32fd58c37)" style="fill: none; stroke: #b0b0b0; stroke-width: 0.8; stroke-linecap: square"/>
     </g>
     <g id="line2d_14">
      <defs>
       <path id="ma97c5a69c0" d="M 0 0  L -3.5 0  " style="stroke: #000000; stroke-width: 0.8"/>
      </defs>
      <g>
       <use xlink:href="#ma97c5a69c0" x="57.6" y="295.488" style="stroke: #000000; stroke-width: 0.8"/>
      </g>
     </g>
     <g id="text_8">
      <!-- 0 -->
      <g transform="translate(43.926875 299.782687) scale(0.12 -0.12)">
       <use xlink:href="#Arial-BoldMT-30"/>
      </g>
     </g>
    </g>
    <g id="ytick_2">
     <g id="line2d_15">
      <path d="M 57.6 265.248  L 414.72 265.248  " clip-path="url(#pe32fd58c37)" style="fill: none; stroke: #b0b0b0; stroke-width: 0.8; stroke-linecap: square"/>
     </g>
     <g id="line2d_16">
      <g>
       <use xlink:href="#ma97c5a69c0" x="57.6" y="265.248" style="stroke: #000000; stroke-width: 0.8"/>
      </g>
     </g>
     <g id="text_9">
      <!-- 2500 -->
      <g transform="translate(23.9075 269.542687) scale(0.12 -0.12)">
       <defs>
        <path id="Arial-BoldMT-35" d="M 284 1178  L 1159 1269  Q 1197 972 1381 798  Q 1566 625 1806 625  Q 2081 625 2272 848  Q 2463 1072 2463 1522  Q 2463 1944 2273 2155  Q 2084 2366 1781 2366  Q 1403 2366 1103 2031  L 391 2134  L 841 4519  L 3163 4519  L 3163 3697  L 1506 3697  L 1369 2919  Q 1663 3066 1969 3066  Q 2553 3066 2959 2641  Q 3366 2216 3366 1538  Q 3366 972 3038 528  Q 2591 -78 1797 -78  Q 1163 -78 763 262  Q 363 603 284 1178  z " transform="scale(0.015625)"/>
       </defs>
       <use xlink:href="#Arial-BoldMT-32"/>
       <use xlink:href="#Arial-BoldMT-35" transform="translate(55.615234 0)"/>
       <use xlink:href="#Arial-BoldMT-30" transform="translate(111.230469 0)"/>
       <use xlink:href="#Arial-BoldMT-30" transform="translate(166.845703 0)"/>
      </g>
     </g>
    </g>
    <g id="ytick_3">
     <g id="line2d_17">
      <path d="M 57.6 235.008  L 414.72 235.008  " clip-path="url(#pe32fd58c37)" style="fill: none; stroke: #b0b0b0; stroke-width: 0.8; stroke-linecap: square"/>
     </g>
     <g id="line2d_18">
      <g>
       <use xlink:href="#ma97c5a69c0" x="57.6" y="235.008" style="stroke: #000000; stroke-width: 0.8"/>
      </g>
     </g>
     <g id="text_10">
      <!-- 5000 -->
      <g transform="translate(23.9075 239.302687) scale(0.12 -0.12)">
       <use xlink:href="#Arial-BoldMT-35"/>
       <use xlink:href="#Arial-BoldMT-30" transform="translate(55.615234 0)"/>
       <use xlink:href="#Arial-BoldMT-30" transform="translate(111.230469 0)"/>
       <use xlink:href="#Arial-BoldMT-30" transform="translate(166.845703 0)"/>
      </g>
     </g>
    </g>
    <g id="ytick_4">
     <g id="line2d_19">
      <path d="M 57.6 204.768  L 414.72 204.768  " clip-path="url(#pe32fd58c37)" style="fill: none; stroke: #b0b0b0; stroke-width: 0.8; stroke-linecap: square"/>
     </g>
     <g id="line2d_20">
      <g>
       <use xlink:href="#ma97c5a69c0" x="57.6" y="204.768" style="stroke: #000000; stroke-width: 0.8"/>
      </g>
     </g>
     <g id="text_11">
      <!-- 7500 -->
      <g transform="translate(23.9075 209.062688) scale(0.12 -0.12)">
       <defs>
        <path id="Arial-BoldMT-37" d="M 272 3703  L 272 4519  L 3275 4519  L 3275 3881  Q 2903 3516 2518 2831  Q 2134 2147 1932 1376  Q 1731 606 1734 0  L 888 0  Q 909 950 1279 1937  Q 1650 2925 2269 3703  L 272 3703  z " transform="scale(0.015625)"/>
       </defs>
       <use xlink:href="#Arial-BoldMT-37"/>
       <use xlink:href="#Arial-BoldMT-35" transform="translate(55.615234 0)"/>
       <use xlink:href="#Arial-BoldMT-30" transform="translate(111.230469 0)"/>
       <use xlink:href="#Arial-BoldMT-30" transform="translate(166.845703 0)"/>
      </g>
     </g>
    </g>
    <g id="ytick_5">
     <g id="line2d_21">
      <path d="M 57.6 174.528  L 414.72 174.528  " clip-path="url(#pe32fd58c37)" style="fill: none; stroke: #b0b0b0; stroke-width: 0.8; stroke-linecap: square"/>
     </g>
     <g id="line2d_22">
      <g>
       <use xlink:href="#ma97c5a69c0" x="57.6" y="174.528" style="stroke: #000000; stroke-width: 0.8"/>
      </g>
     </g>
     <g id="text_12">
      <!-- 10000 -->
      <g transform="translate(17.234375 178.822688) scale(0.12 -0.12)">
       <use xlink:href="#Arial-BoldMT-31"/>
       <use xlink:href="#Arial-BoldMT-30" transform="translate(55.615234 0)"/>
       <use xlink:href="#Arial-BoldMT-30" transform="translate(111.230469 0)"/>
       <use xlink:href="#Arial-BoldMT-30" transform="translate(166.845703 0)"/>
       <use xlink:href="#Arial-BoldMT-30" transform="translate(222.460938 0)"/>
      </g>
     </g>
    </g>
    <g id="ytick_6">
     <g id="line2d_23">
      <path d="M 57.6 144.288  L 414.72 144.288  " clip-path="url(#pe32fd58c37)" style="fill: none; stroke: #b0b0b0; stroke-width: 0.8; stroke-linecap: square"/>
     </g>
     <g id="line2d_24">
      <g>
       <use xlink:href="#ma97c5a69c0" x="57.6" y="144.288" style="stroke: #000000; stroke-width: 0.8"/>
      </g>
     </g>
     <g id="text_13">
      <!-- 12500 -->
      <g transform="translate(17.234375 148.582688) scale(0.12 -0.12)">
       <use xlink:href="#Arial-BoldMT-31"/>
       <use xlink:href="#Arial-BoldMT-32" transform="translate(55.615234 0)"/>
       <use xlink:href="#Arial-BoldMT-35" transform="translate(111.230469 0)"/>
       <use xlink:href="#Arial-BoldMT-30" transform="translate(166.845703 0)"/>
       <use xlink:href="#Arial-BoldMT-30" transform="translate(222.460938 0)"/>
      </g>
     </g>
    </g>
    <g id="ytick_7">
     <g id="line2d_25">
      <path d="M 57.6 114.048  L 414.72 114.048  " clip-path="url(#pe32fd58c37)" style="fill: none; stroke: #b0b0b0; stroke-width: 0.8; stroke-linecap: square"/>
     </g>
     <g id="line2d_26">
      <g>
       <use xlink:href="#ma97c5a69c0" x="57.6" y="114.048" style="stroke: #000000; stroke-width: 0.8"/>
      </g>
     </g>
     <g id="text_14">
      <!-- 15000 -->
      <g transform="translate(17.234375 118.342688) scale(0.12 -0.12)">
       <use xlink:href="#Arial-BoldMT-31"/>
       <use xlink:href="#Arial-BoldMT-35" transform="translate(55.615234 0)"/>
       <use xlink:href="#Arial-BoldMT-30" transform="translate(111.230469 0)"/>
       <use xlink:href="#Arial-BoldMT-30" transform="translate(166.845703 0)"/>
       <use xlink:href="#Arial-BoldMT-30" transform="translate(222.460938 0)"/>
      </g>
     </g>
    </g>
    <g id="ytick_8">
     <g id="line2d_27">
      <path d="M 57.6 83.808  L 414.72 83.808  " clip-path="url(#pe32fd58c37)" style="fill: none; stroke: #b0b0b0; stroke-width: 0.8; stroke-linecap: square"/>
     </g>
     <g id="line2d_28">
      <g>
       <use xlink:href="#ma97c5a69c0" x="57.6" y="83.808" style="stroke: #000000; stroke-width: 0.8"/>
      </g>
     </g>
     <g id="text_15">
      <!-- 17500 -->
      <g transform="translate(17.234375 88.102688) scale(0.12 -0.12)">
       <use xlink:href="#Arial-BoldMT-31"/>
       <use xlink:href="#Arial-BoldMT-37" transform="translate(55.615234 0)"/>
       <use xlink:href="#Arial-BoldMT-35" transform="translate(111.230469 0)"/>
       <use xlink:href="#Arial-BoldMT-30" transform="translate(166.845703 0)"/>
       <use xlink:href="#Arial-BoldMT-30" transform="translate(222.460938 0)"/>
      </g>
     </g>
    </g>
    <g id="ytick_9">
     <g id="line2d_29">
      <path d="M 57.6 53.568  L 414.72 53.568  " clip-path="url(#pe32fd58c37)" style="fill: none; stroke: #b0b0b0; stroke-width: 0.8; stroke-linecap: square"/>
     </g>
     <g id="line2d_30">
      <g>
       <use xlink:href="#ma97c5a69c0" x="57.6" y="53.568" style="stroke: #000000; stroke-width: 0.8"/>
      </g>
     </g>
     <g id="text_16">
      <!-- 20000 -->
      <g transform="translate(17.234375 57.862688) scale(0.12 -0.12)">
       <use xlink:href="#Arial-BoldMT-32"/>
       <use xlink:href="#Arial-BoldMT-30" transform="translate(55.615234 0)"/>
       <use xlink:href="#Arial-BoldMT-30" transform="translate(111.230469 0)"/>
       <use xlink:href="#Arial-BoldMT-30" transform="translate(166.845703 0)"/>
       <use xlink:href="#Arial-BoldMT-30" transform="translate(222.460938 0)"/>
      </g>
     </g>
    </g>
    <g id="text_17">
     <!-- Anzahl der Ereignisse -->
     <g transform="translate(10.70875 237.211125) rotate(-90) scale(0.12 -0.12)">
      <defs>
       <path id="Arial-BoldMT-41" d="M 4597 0  L 3591 0  L 3191 1041  L 1359 1041  L 981 0  L 0 0  L 1784 4581  L 2763 4581  L 4597 0  z M 2894 1813  L 2263 3513  L 1644 1813  L 2894 1813  z " transform="scale(0.015625)"/>
       <path id="Arial-BoldMT-7a" d="M 106 0  L 106 684  L 1350 2113  Q 1656 2463 1803 2609  Q 1650 2600 1400 2597  L 228 2591  L 228 3319  L 2972 3319  L 2972 2697  L 1703 1234  L 1256 750  Q 1622 772 1709 772  L 3069 772  L 3069 0  L 106 0  z " transform="scale(0.015625)"/>
       <path id="Arial-BoldMT-68" d="M 1334 4581  L 1334 2897  Q 1759 3394 2350 3394  Q 2653 3394 2897 3281  Q 3141 3169 3264 2994  Q 3388 2819 3433 2606  Q 3478 2394 3478 1947  L 3478 0  L 2600 0  L 2600 1753  Q 2600 2275 2550 2415  Q 2500 2556 2373 2639  Q 2247 2722 2056 2722  Q 1838 2722 1666 2615  Q 1494 2509 1414 2295  Q 1334 2081 1334 1663  L 1334 0  L 456 0  L 456 4581  L 1334 4581  z " transform="scale(0.015625)"/>
       <path id="Arial-BoldMT-20" transform="scale(0.015625)"/>
       <path id="Arial-BoldMT-64" d="M 3503 0  L 2688 0  L 2688 488  Q 2484 203 2207 64  Q 1931 -75 1650 -75  Q 1078 -75 670 386  Q 263 847 263 1672  Q 263 2516 659 2955  Q 1056 3394 1663 3394  Q 2219 3394 2625 2931  L 2625 4581  L 3503 4581  L 3503 0  z M 1159 1731  Q 1159 1200 1306 963  Q 1519 619 1900 619  Q 2203 619 2415 876  Q 2628 1134 2628 1647  Q 2628 2219 2422 2470  Q 2216 2722 1894 2722  Q 1581 2722 1370 2473  Q 1159 2225 1159 1731  z " transform="scale(0.015625)"/>
       <path id="Arial-BoldMT-45" d="M 466 0  L 466 4581  L 3863 4581  L 3863 3806  L 1391 3806  L 1391 2791  L 3691 2791  L 3691 2019  L 1391 2019  L 1391 772  L 3950 772  L 3950 0  L 466 0  z " transform="scale(0.015625)"/>
       <path id="Arial-BoldMT-69" d="M 459 3769  L 459 4581  L 1338 4581  L 1338 3769  L 459 3769  z M 459 0  L 459 3319  L 1338 3319  L 1338 0  L 459 0  z " transform="scale(0.015625)"/>
       <path id="Arial-BoldMT-67" d="M 378 -219  L 1381 -341  Q 1406 -516 1497 -581  Q 1622 -675 1891 -675  Q 2234 -675 2406 -572  Q 2522 -503 2581 -350  Q 2622 -241 2622 53  L 2622 538  Q 2228 0 1628 0  Q 959 0 569 566  Q 263 1013 263 1678  Q 263 2513 664 2953  Q 1066 3394 1663 3394  Q 2278 3394 2678 2853  L 2678 3319  L 3500 3319  L 3500 341  Q 3500 -247 3403 -537  Q 3306 -828 3131 -993  Q 2956 -1159 2664 -1253  Q 2372 -1347 1925 -1347  Q 1081 -1347 728 -1058  Q 375 -769 375 -325  Q 375 -281 378 -219  z M 1163 1728  Q 1163 1200 1367 954  Q 1572 709 1872 709  Q 2194 709 2416 961  Q 2638 1213 2638 1706  Q 2638 2222 2425 2472  Q 2213 2722 1888 2722  Q 1572 2722 1367 2476  Q 1163 2231 1163 1728  z " transform="scale(0.015625)"/>
       <path id="Arial-BoldMT-73" d="M 150 947  L 1031 1081  Q 1088 825 1259 692  Q 1431 559 1741 559  Q 2081 559 2253 684  Q 2369 772 2369 919  Q 2369 1019 2306 1084  Q 2241 1147 2013 1200  Q 950 1434 666 1628  Q 272 1897 272 2375  Q 272 2806 612 3100  Q 953 3394 1669 3394  Q 2350 3394 2681 3172  Q 3013 2950 3138 2516  L 2309 2363  Q 2256 2556 2107 2659  Q 1959 2763 1684 2763  Q 1338 2763 1188 2666  Q 1088 2597 1088 2488  Q 1088 2394 1175 2328  Q 1294 2241 1995 2081  Q 2697 1922 2975 1691  Q 3250 1456 3250 1038  Q 3250 581 2869 253  Q 2488 -75 1741 -75  Q 1063 -75 667 200  Q 272 475 150 947  z " transform="scale(0.015625)"/>
      </defs>
      <use xlink:href="#Arial-BoldMT-41"/>
      <use xlink:href="#Arial-BoldMT-6e" transform="translate(72.216797 0)"/>
      <use xlink:href="#Arial-BoldMT-7a" transform="translate(133.300781 0)"/>
      <use xlink:href="#Arial-BoldMT-61" transform="translate(183.300781 0)"/>
      <use xlink:href="#Arial-BoldMT-68" transform="translate(238.916016 0)"/>
      <use xlink:href="#Arial-BoldMT-6c" transform="translate(300 0)"/>
      <use xlink:href="#Arial-BoldMT-20" transform="translate(327.783203 0)"/>
      <use xlink:href="#Arial-BoldMT-64" transform="translate(355.566406 0)"/>
      <use xlink:href="#Arial-BoldMT-65" transform="translate(416.650391 0)"/>
      <use xlink:href="#Arial-BoldMT-72" transform="translate(472.265625 0)"/>
      <use xlink:href="#Arial-BoldMT-20" transform="translate(511.181641 0)"/>
      <use xlink:href="#Arial-BoldMT-45" transform="translate(538.964844 0)"/>
      <use xlink:href="#Arial-BoldMT-72" transform="translate(605.664062 0)"/>
      <use xlink:href="#Arial-BoldMT-65" transform="translate(644.580078 0)"/>
      <use xlink:href="#Arial-BoldMT-69" transform="translate(700.195312 0)"/>
      <use xlink:href="#Arial-BoldMT-67" transform="translate(727.978516 0)"/>
      <use xlink:href="#Arial-BoldMT-6e" transform="translate(789.0625 0)"/>
      <use xlink:href="#Arial-BoldMT-69" transform="translate(850.146484 0)"/>
      <use xlink:href="#Arial-BoldMT-73" transform="translate(877.929688 0)"/>
      <use xlink:href="#Arial-BoldMT-73" transform="translate(933.544922 0)"/>
      <use xlink:href="#Arial-BoldMT-65" transform="translate(989.160156 0)"/>
     </g>
    </g>
   </g>
   <g id="line2d_31">
    <path d="M 73.832727 290.6496  L 74.150083 290.46816  L 74.467438 295.451712  L 74.784793 293.49216  L 75.102149 279.21888  L 75.419504 274.513536  L 75.73686 274.997376  L 76.054215 272.92896  L 76.688926 265.211712  L 77.006281 266.989824  L 77.323636 272.166912  L 77.640992 275.493312  L 77.958347 277.065792  L 78.275702 277.900416  L 78.593058 277.803648  L 78.910413 276.67872  L 79.227769 276.158592  L 79.545124 276.31584  L 79.862479 276.19488  L 80.179835 275.904576  L 80.49719 275.263488  L 80.814545 273.557952  L 81.131901 275.190912  L 81.449256 274.114368  L 82.083967 271.090368  L 82.401322 271.489536  L 82.718678 271.53792  L 83.353388 265.97376  L 83.988099 254.518848  L 84.305455 243.571968  L 84.940165 200.159424  L 85.892231 87.775488  L 86.209587 67.309056  L 86.526942 74.844864  L 87.796364 202.239936  L 88.74843 237.802176  L 89.38314 252.474624  L 89.700496 257.034816  L 90.017851 258.607296  L 90.335207 258.183936  L 90.969917 256.466304  L 91.287273 256.284864  L 92.239339 254.010816  L 94.778182 236.411136  L 95.412893 231.330816  L 95.730248 231.6816  L 96.047603 228.464064  L 96.364959 229.32288  L 96.999669 222.742656  L 97.317025 222.633792  L 97.63438 220.783104  L 98.269091 215.097984  L 98.586446 215.134272  L 99.538512 205.43328  L 99.855868 203.957568  L 100.173223 198.792576  L 100.490579 195.804864  L 100.807934 189.031104  L 101.125289 185.849856  L 101.76 176.064192  L 102.394711 168.576768  L 103.029421 166.254336  L 103.346777 165.431808  L 103.664132 166.084992  L 103.981488 165.468096  L 104.298843 161.94816  L 104.616198 161.113536  L 104.933554 160.85952  L 105.250909 158.658048  L 105.568264 158.029056  L 106.520331 165.69792  L 108.741818 221.448384  L 109.693884 237.269952  L 110.01124 239.447232  L 110.64595 248.13216  L 110.963306 249.426432  L 111.598017 254.42208  L 111.915372 254.748672  L 112.232727 256.4784  L 112.550083 257.300928  L 113.184793 261.3168  L 113.502149 260.881344  L 113.819504 262.88928  L 114.13686 263.832768  L 114.454215 263.699712  L 114.77157 265.356864  L 115.088926 265.538304  L 115.406281 265.42944  L 115.723636 266.481792  L 116.040992 266.69952  L 116.358347 265.695552  L 116.675702 266.893056  L 116.993058 266.94144  L 117.310413 266.868864  L 117.627769 268.005888  L 117.945124 267.413184  L 118.262479 268.949376  L 118.579835 267.255936  L 118.89719 268.562304  L 119.531901 267.159168  L 119.849256 268.368768  L 120.166612 268.780032  L 120.801322 268.562304  L 121.118678 267.352704  L 121.436033 267.957504  L 121.753388 267.340608  L 122.070744 267.401088  L 122.388099 269.094528  L 122.705455 268.163136  L 123.02281 268.63488  L 123.657521 268.054272  L 123.974876 267.703488  L 124.292231 268.187328  L 124.609587 267.086592  L 124.926942 268.477632  L 125.244298 267.582528  L 125.561653 267.3648  L 125.879008 268.417152  L 126.196364 266.965632  L 126.513719 267.050304  L 127.14843 268.042176  L 127.465785 268.114752  L 127.78314 267.328512  L 128.100496 268.15104  L 128.417851 267.12288  L 128.735207 268.09056  L 129.052562 268.15104  L 129.369917 268.39296  L 129.687273 268.175232  L 130.004628 267.691392  L 130.321983 267.6672  L 130.639339 266.905152  L 131.27405 268.767936  L 131.591405 267.171264  L 131.90876 267.776064  L 132.226116 267.509952  L 132.543471 266.784192  L 132.860826 266.614848  L 133.178182 268.054272  L 133.495537 267.558336  L 133.812893 267.352704  L 134.130248 266.4576  L 134.764959 265.526208  L 135.082314 266.602752  L 135.399669 265.18752  L 135.717025 265.163328  L 136.03438 265.526208  L 136.351736 265.18752  L 136.986446 263.687616  L 137.621157 262.8288  L 137.938512 262.175616  L 138.255868 261.207936  L 138.890579 260.191872  L 139.207934 258.47424  L 139.525289 259.296768  L 139.842645 258.8976  L 140.16 256.925952  L 140.477355 256.563072  L 140.794711 257.179968  L 141.112066 255.317184  L 141.429421 254.930112  L 141.746777 255.2688  L 142.064132 255.946176  L 142.381488 255.063168  L 142.698843 253.841472  L 143.016198 255.280896  L 143.333554 254.325312  L 143.968264 254.9664  L 144.28562 255.825216  L 144.602975 255.680064  L 144.920331 254.325312  L 145.237686 255.667968  L 145.555041 254.615616  L 145.872397 255.32928  L 146.189752 255.280896  L 146.507107 256.079232  L 146.824463 255.474432  L 147.141818 256.647744  L 147.459174 255.667968  L 147.776529 256.23648  L 148.093884 256.127616  L 148.41124 257.373504  L 148.728595 257.071104  L 149.04595 258.5952  L 149.363306 257.167872  L 149.680661 258.486336  L 149.998017 258.377472  L 150.315372 259.659648  L 150.632727 258.873408  L 150.950083 259.599168  L 151.267438 259.901568  L 151.584793 259.671744  L 151.902149 260.542656  L 152.219504 260.433792  L 152.53686 260.808768  L 152.854215 260.784576  L 153.17157 261.13536  L 153.488926 260.736192  L 153.806281 261.37728  L 154.123636 261.328896  L 154.440992 263.058624  L 154.758347 260.627328  L 155.075702 262.272384  L 155.393058 262.490112  L 155.710413 262.211904  L 156.027769 262.46592  L 156.345124 263.179584  L 156.662479 261.957888  L 156.979835 262.030464  L 157.29719 264.050496  L 157.614545 262.8288  L 157.931901 263.61504  L 158.249256 262.502208  L 158.566612 264.752064  L 159.201322 263.022336  L 159.518678 264.389184  L 159.836033 263.227968  L 160.153388 263.324736  L 160.470744 265.102848  L 160.788099 265.284288  L 161.105455 264.377088  L 161.42281 264.788352  L 161.740165 266.09472  L 162.057521 264.268224  L 162.374876 266.445504  L 162.692231 264.485952  L 163.009587 265.937472  L 163.326942 266.590656  L 163.961653 265.453632  L 164.279008 266.179392  L 164.596364 267.18336  L 164.913719 266.929344  L 165.231074 265.719744  L 165.54843 266.917248  L 165.865785 266.082624  L 166.18314 267.72768  L 166.817851 265.8528  L 167.135207 267.509952  L 167.452562 266.796288  L 167.769917 266.953536  L 168.087273 267.897024  L 168.721983 266.772096  L 169.039339 267.957504  L 169.67405 267.655104  L 169.991405 266.832576  L 170.30876 267.703488  L 170.626116 267.54624  L 170.943471 267.739776  L 171.260826 269.578368  L 171.578182 268.767936  L 171.895537 267.18336  L 172.212893 268.09056  L 172.530248 268.138944  L 172.847603 269.1792  L 173.164959 268.441344  L 173.482314 269.711424  L 173.799669 269.457408  L 174.117025 268.780032  L 174.43438 268.69536  L 175.069091 269.735616  L 175.386446 268.477632  L 175.703802 268.526016  L 176.021157 270.074304  L 176.338512 269.348544  L 176.655868 270.279936  L 176.973223 269.687232  L 177.290579 269.469504  L 177.607934 269.675136  L 177.925289 270.364608  L 178.242645 270.110592  L 178.56 270.292032  L 178.877355 269.699328  L 179.512066 270.533952  L 179.829421 270.412992  L 180.146777 269.820288  L 180.464132 269.72352  L 180.781488 272.070144  L 181.416198 270.485568  L 181.733554 270.9936  L 182.050909 272.299968  L 182.368264 271.404864  L 182.68562 271.11456  L 183.320331 270.062208  L 183.637686 271.562112  L 183.955041 271.17504  L 184.272397 272.070144  L 184.589752 271.5984  L 185.541818 271.47744  L 185.859174 272.469312  L 186.176529 271.11456  L 186.493884 271.283904  L 186.81124 271.078272  L 187.128595 271.731456  L 187.44595 270.824256  L 187.763306 271.634688  L 188.080661 272.009664  L 188.398017 272.56608  L 188.715372 271.937088  L 189.032727 271.816128  L 189.350083 272.14272  L 189.667438 271.77984  L 189.984793 270.860544  L 190.302149 271.924992  L 190.619504 272.154816  L 191.254215 272.239488  L 191.57157 271.755648  L 191.888926 272.759616  L 192.206281 272.553984  L 192.523636 272.215296  L 192.840992 272.08224  L 193.475702 272.578176  L 193.793058 271.707264  L 194.110413 272.033856  L 194.427769 272.578176  L 194.745124 272.408832  L 195.062479 272.033856  L 195.379835 272.287872  L 196.014545 273.122496  L 196.331901 272.2032  L 196.649256 272.009664  L 196.966612 271.5984  L 197.283967 272.904768  L 197.601322 273.243456  L 197.918678 272.759616  L 198.236033 271.973376  L 198.553388 272.38464  L 199.188099 273.606336  L 199.82281 272.469312  L 200.140165 272.941056  L 200.457521 273.908736  L 200.774876 274.005504  L 201.092231 272.106432  L 201.409587 273.134592  L 201.726942 272.68704  L 202.044298 272.941056  L 202.361653 272.650752  L 202.679008 273.122496  L 202.996364 272.287872  L 203.313719 273.364416  L 203.631074 273.328128  L 204.265785 273.848256  L 204.58314 271.997568  L 204.900496 273.303936  L 205.217851 272.674944  L 205.535207 272.541888  L 205.852562 273.799872  L 206.169917 272.723328  L 206.487273 273.400704  L 206.804628 273.424896  L 207.439339 272.965248  L 207.756694 273.77568  L 208.07405 272.130624  L 208.391405 273.29184  L 208.70876 273.424896  L 209.026116 272.735424  L 209.343471 273.497472  L 209.660826 272.820096  L 209.978182 273.570048  L 210.295537 272.614464  L 210.612893 273.799872  L 210.930248 272.74752  L 211.247603 272.5056  L 211.882314 273.364416  L 212.199669 272.553984  L 212.517025 272.723328  L 212.83438 273.1104  L 213.151736 272.590272  L 213.469091 272.904768  L 214.103802 272.275776  L 214.421157 272.62656  L 214.738512 271.71936  L 215.055868 272.783808  L 215.373223 272.239488  L 216.007934 272.977344  L 216.325289 272.977344  L 216.96 271.912896  L 217.277355 272.166912  L 217.594711 271.247616  L 217.912066 272.106432  L 218.229421 271.368576  L 218.546777 272.711232  L 218.864132 272.86848  L 219.181488 271.296  L 219.498843 271.5984  L 219.816198 271.344384  L 220.133554 273.086208  L 220.450909 271.308096  L 220.768264 272.251584  L 221.08562 271.985472  L 221.402975 272.650752  L 221.720331 272.154816  L 222.037686 272.457216  L 222.355041 272.481408  L 222.672397 272.74752  L 222.989752 272.38464  L 223.307107 271.5984  L 223.624463 271.610496  L 223.941818 271.949184  L 224.259174 272.711232  L 224.893884 272.844288  L 225.21124 272.251584  L 225.528595 273.545856  L 225.84595 273.739392  L 226.163306 272.856384  L 226.480661 272.832192  L 226.798017 274.25952  L 227.115372 274.07808  L 227.432727 274.247424  L 228.067438 275.021568  L 228.702149 274.416768  L 229.019504 275.59008  L 229.33686 275.239296  L 229.654215 275.396544  L 229.97157 276.715008  L 230.288926 276.086016  L 230.606281 276.473088  L 230.923636 276.545664  L 231.240992 277.489152  L 231.558347 277.198848  L 231.875702 278.214912  L 232.193058 277.392384  L 232.510413 278.481024  L 232.827769 278.61408  L 233.145124 279.09792  L 233.462479 279.170496  L 233.779835 279.726912  L 234.09719 281.142144  L 234.414545 280.295424  L 235.049256 281.795328  L 235.366612 281.674368  L 235.683967 281.867904  L 236.001322 282.581568  L 236.318678 282.617856  L 236.953388 283.742784  L 237.270744 283.27104  L 237.588099 283.186368  L 237.905455 284.444352  L 238.22281 285.097536  L 238.540165 284.904  L 238.857521 285.278976  L 239.174876 285.133824  L 239.809587 286.307136  L 240.126942 286.35552  L 240.444298 286.827264  L 240.761653 286.47648  L 241.079008 287.105472  L 241.396364 287.117568  L 241.713719 286.59744  L 242.34843 288.036864  L 242.665785 287.347392  L 242.98314 287.347392  L 243.935207 288.569088  L 244.252562 288.206208  L 244.569917 288.29088  L 245.204628 289.004544  L 245.521983 288.617472  L 245.839339 288.629568  L 246.156694 289.222272  L 246.47405 289.31904  L 246.791405 289.052928  L 247.10876 289.185984  L 247.426116 289.80288  L 247.743471 289.669824  L 248.060826 289.790784  L 248.378182 289.778688  L 248.695537 290.093184  L 249.012893 289.488384  L 249.330248 289.7424  L 249.647603 290.250432  L 249.964959 290.383488  L 250.282314 290.202048  L 250.599669 290.564928  L 250.917025 290.564928  L 251.23438 290.697984  L 251.551736 290.564928  L 251.869091 290.855232  L 252.186446 290.661696  L 253.455868 290.89152  L 254.090579 291.339072  L 254.407934 290.915712  L 254.725289 291.169728  L 255.042645 291.01248  L 255.36 291.544704  L 255.994711 291.13344  L 256.629421 291.822912  L 256.946777 291.8592  L 257.264132 291.605184  L 257.581488 291.593088  L 258.216198 291.907584  L 258.850909 291.91968  L 259.168264 292.173696  L 259.48562 291.992256  L 259.802975 292.391424  L 260.120331 292.185792  L 260.437686 292.318848  L 260.755041 292.149504  L 261.389752 292.742208  L 261.707107 292.28256  L 262.024463 292.234176  L 262.341818 292.415616  L 262.659174 292.294656  L 262.976529 292.415616  L 263.293884 292.355136  L 263.61124 292.657536  L 263.928595 292.621248  L 264.24595 292.246272  L 264.563306 292.657536  L 264.880661 292.790592  L 265.198017 292.451904  L 265.515372 292.730112  L 265.832727 292.512384  L 266.784793 292.451904  L 267.102149 292.7664  L 267.419504 292.730112  L 267.73686 292.863168  L 268.054215 292.633344  L 268.37157 293.141376  L 268.688926 292.657536  L 269.006281 292.959936  L 269.323636 292.984128  L 269.640992 292.548672  L 270.275702 292.778496  L 271.227769 292.718016  L 271.545124 292.548672  L 271.862479 292.790592  L 272.179835 292.681728  L 272.49719 292.814784  L 272.814545 292.64544  L 273.131901 292.7664  L 273.766612 292.621248  L 274.083967 292.597056  L 274.718678 293.00832  L 275.036033 292.7664  L 275.353388 292.742208  L 275.670744 292.58496  L 275.988099 292.899456  L 276.305455 292.28256  L 276.62281 292.089024  L 276.940165 292.113216  L 277.257521 292.451904  L 277.574876 292.125312  L 277.892231 292.004352  L 278.209587 291.593088  L 278.526942 291.762432  L 278.844298 291.387456  L 279.161653 291.629376  L 279.796364 290.661696  L 280.113719 290.782656  L 280.431074 290.46816  L 281.065785 289.25856  L 281.700496 288.5328  L 282.017851 288.218304  L 282.652562 285.799104  L 282.969917 285.847488  L 283.287273 284.565312  L 283.604628 284.081472  L 283.921983 281.686464  L 284.239339 281.238912  L 284.87405 278.783424  L 285.50876 275.10624  L 285.826116 273.811968  L 286.143471 270.75168  L 286.460826 269.288064  L 286.778182 265.91328  L 287.095537 263.929536  L 287.412893 260.53056  L 287.730248 258.47424  L 288.999669 242.955072  L 289.317025 240.366528  L 289.951736 230.580864  L 290.269091 223.5168  L 290.903802 216.186624  L 291.855868 196.494336  L 292.173223 193.796928  L 292.807934 181.132416  L 293.125289 173.657088  L 293.442645 169.774272  L 294.077355 154.400256  L 294.394711 151.581888  L 295.029421 139.836672  L 295.981488 124.232832  L 296.298843 119.73312  L 296.616198 113.56416  L 296.933554 110.588544  L 297.568264 101.492352  L 297.88562 100.524672  L 298.202975 96.230592  L 298.520331 95.081472  L 298.837686 91.48896  L 299.155041 91.30752  L 299.472397 93.1824  L 299.789752 93.073536  L 300.107107 89.964864  L 300.424463 94.87584  L 300.741818 94.113792  L 301.059174 94.343616  L 301.376529 98.928  L 301.693884 106.66944  L 302.01124 107.21376  L 302.328595 110.1168  L 303.915372 139.171392  L 304.232727 140.332608  L 304.867438 157.2912  L 305.184793 160.581312  L 307.088926 199.881216  L 308.993058 235.73376  L 309.627769 242.50752  L 309.945124 245.942784  L 310.579835 256.381632  L 311.849256 270.473472  L 312.166612 272.118528  L 312.801322 277.089984  L 313.118678 279.88416  L 313.436033 280.029312  L 313.753388 283.343616  L 314.070744 284.2992  L 314.388099 286.089408  L 314.705455 286.670016  L 315.340165 289.01664  L 315.657521 289.948032  L 315.974876 290.395584  L 316.292231 291.665664  L 316.609587 291.460032  L 316.926942 292.488192  L 317.244298 292.935744  L 317.561653 292.790592  L 318.196364 293.842944  L 319.465785 294.314688  L 319.78314 294.592896  L 320.735207 294.5808  L 321.369917 294.738048  L 321.687273 294.907392  L 322.321983 294.70176  L 322.639339 294.94368  L 322.956694 294.665472  L 323.90876 294.94368  L 324.543471 294.895296  L 324.860826 294.846912  L 325.178182 294.677568  L 325.495537 295.00416  L 325.812893 294.810624  L 326.130248 294.859008  L 326.447603 295.052544  L 327.082314 294.8832  L 327.717025 294.895296  L 328.351736 295.06464  L 328.986446 294.907392  L 329.621157 294.979968  L 329.938512 294.8832  L 330.255868 295.076736  L 332.16 294.94368  L 332.794711 295.00416  L 334.698843 294.931584  L 335.333554 295.221888  L 335.650909 295.040448  L 335.968264 295.173504  L 336.28562 295.016256  L 336.602975 295.197696  L 338.507107 295.052544  L 340.728595 295.161408  L 341.04595 295.12512  L 341.363306 295.233984  L 341.680661 295.06464  L 342.315372 295.137216  L 344.854215 295.318656  L 345.488926 295.113024  L 346.440992 295.258176  L 347.075702 295.173504  L 347.393058 295.161408  L 347.710413 295.330752  L 348.027769 295.076736  L 348.345124 295.233984  L 349.931901 295.197696  L 350.249256 294.992064  L 350.566612 295.233984  L 352.153388 295.1856  L 352.470744 295.258176  L 352.788099 295.149312  L 353.42281 295.197696  L 354.057521 295.100928  L 354.374876 295.161408  L 354.692231 295.088832  L 355.644298 295.221888  L 356.279008 295.209792  L 357.231074 295.113024  L 357.865785 295.294464  L 358.817851 295.258176  L 359.135207 295.076736  L 359.452562 295.318656  L 360.404628 295.137216  L 361.356694 295.282368  L 361.67405 295.342848  L 361.991405 295.06464  L 362.30876 295.233984  L 362.943471 295.258176  L 363.260826 295.294464  L 363.578182 295.100928  L 364.212893 295.209792  L 364.530248 295.137216  L 364.847603 295.270272  L 365.164959 295.12512  L 365.482314 295.233984  L 365.799669 295.149312  L 367.386446 295.294464  L 367.703802 295.113024  L 368.338512 295.197696  L 370.242645 295.24608  L 370.56 295.040448  L 370.877355 295.209792  L 371.194711 295.1856  L 371.512066 295.028352  L 371.829421 295.197696  L 372.146777 295.149312  L 372.464132 295.270272  L 372.781488 295.258176  L 373.098843 295.100928  L 373.416198 295.173504  L 373.733554 295.100928  L 374.050909 295.270272  L 374.68562 295.113024  L 375.320331 295.258176  L 375.637686 295.149312  L 376.589752 295.149312  L 376.907107 295.076736  L 377.224463 295.294464  L 379.128595 295.1856  L 379.44595 295.161408  L 379.763306 295.282368  L 380.080661 295.028352  L 380.715372 295.294464  L 381.350083 295.161408  L 381.984793 295.221888  L 382.302149 295.076736  L 382.619504 295.197696  L 383.57157 295.197696  L 386.427769 295.161408  L 386.745124 295.318656  L 388.014545 295.221888  L 389.283967 295.270272  L 389.918678 295.24608  L 390.236033 295.137216  L 391.188099 295.30656  L 391.82281 295.137216  L 392.140165 295.379136  L 393.092231 295.173504  L 393.409587 295.294464  L 394.044298 295.197696  L 394.361653 295.294464  L 394.996364 295.258176  L 396.58314 295.233984  L 397.852562 295.258176  L 398.487273 295.24608  L 398.487273 295.24608  " clip-path="url(#pe32fd58c37)" style="fill: none; stroke: #1f77b4; stroke-width: 2; stroke-linecap: square"/>
   </g>
   <g id="LineCollection_1">
    <path d="M 124.609587 295.488  L 124.609587 53.568  " clip-path="url(#pe32fd58c37)" style="fill: none; stroke-dasharray: 7.4,3.2; stroke-dashoffset: 0; stroke: #ff0000; stroke-width: 2"/>
   </g>
   <g id="LineCollection_2">
    <path d="M 73.832727 295.488  L 73.832727 53.568  " clip-path="url(#pe32fd58c37)" style="fill: none; stroke-dasharray: 7.4,3.2; stroke-dashoffset: 0; stroke: #ff0000; stroke-width: 2"/>
   </g>
   <g id="patch_3">
    <path d="M 57.6 307.584  L 57.6 41.472  " style="fill: none; stroke: #000000; stroke-width: 1.2; stroke-linejoin: miter; stroke-linecap: square"/>
   </g>
   <g id="patch_4">
    <path d="M 414.72 307.584  L 414.72 41.472  " style="fill: none; stroke: #000000; stroke-width: 1.2; stroke-linejoin: miter; stroke-linecap: square"/>
   </g>
   <g id="patch_5">
    <path d="M 57.6 307.584  L 414.72 307.584  " style="fill: none; stroke: #000000; stroke-width: 1.2; stroke-linejoin: miter; stroke-linecap: square"/>
   </g>
   <g id="patch_6">
    <path d="M 57.6 41.472  L 414.72 41.472  " style="fill: none; stroke: #000000; stroke-width: 1.2; stroke-linejoin: miter; stroke-linecap: square"/>
   </g>
   <g id="text_18">
    <!-- Spektrum von $^{137}$Cs ohne Bleischirm -->
    <g transform="translate(116.928 35.472) scale(0.144 -0.144)">
     <defs>
      <path id="ArialMT-53" d="M 288 1472  L 859 1522  Q 900 1178 1048 958  Q 1197 738 1509 602  Q 1822 466 2213 466  Q 2559 466 2825 569  Q 3091 672 3220 851  Q 3350 1031 3350 1244  Q 3350 1459 3225 1620  Q 3100 1781 2813 1891  Q 2628 1963 1997 2114  Q 1366 2266 1113 2400  Q 784 2572 623 2826  Q 463 3081 463 3397  Q 463 3744 659 4045  Q 856 4347 1234 4503  Q 1613 4659 2075 4659  Q 2584 4659 2973 4495  Q 3363 4331 3572 4012  Q 3781 3694 3797 3291  L 3216 3247  Q 3169 3681 2898 3903  Q 2628 4125 2100 4125  Q 1550 4125 1298 3923  Q 1047 3722 1047 3438  Q 1047 3191 1225 3031  Q 1400 2872 2139 2705  Q 2878 2538 3153 2413  Q 3553 2228 3743 1945  Q 3934 1663 3934 1294  Q 3934 928 3725 604  Q 3516 281 3123 101  Q 2731 -78 2241 -78  Q 1619 -78 1198 103  Q 778 284 539 648  Q 300 1013 288 1472  z " transform="scale(0.015625)"/>
      <path id="ArialMT-70" d="M 422 -1272  L 422 3319  L 934 3319  L 934 2888  Q 1116 3141 1344 3267  Q 1572 3394 1897 3394  Q 2322 3394 2647 3175  Q 2972 2956 3137 2557  Q 3303 2159 3303 1684  Q 3303 1175 3120 767  Q 2938 359 2589 142  Q 2241 -75 1856 -75  Q 1575 -75 1351 44  Q 1128 163 984 344  L 984 -1272  L 422 -1272  z M 931 1641  Q 931 1000 1190 694  Q 1450 388 1819 388  Q 2194 388 2461 705  Q 2728 1022 2728 1688  Q 2728 2322 2467 2637  Q 2206 2953 1844 2953  Q 1484 2953 1207 2617  Q 931 2281 931 1641  z " transform="scale(0.015625)"/>
      <path id="ArialMT-65" d="M 2694 1069  L 3275 997  Q 3138 488 2766 206  Q 2394 -75 1816 -75  Q 1088 -75 661 373  Q 234 822 234 1631  Q 234 2469 665 2931  Q 1097 3394 1784 3394  Q 2450 3394 2872 2941  Q 3294 2488 3294 1666  Q 3294 1616 3291 1516  L 816 1516  Q 847 969 1125 678  Q 1403 388 1819 388  Q 2128 388 2347 550  Q 2566 713 2694 1069  z M 847 1978  L 2700 1978  Q 2663 2397 2488 2606  Q 2219 2931 1791 2931  Q 1403 2931 1139 2672  Q 875 2413 847 1978  z " transform="scale(0.015625)"/>
      <path id="ArialMT-6b" d="M 425 0  L 425 4581  L 988 4581  L 988 1969  L 2319 3319  L 3047 3319  L 1778 2088  L 3175 0  L 2481 0  L 1384 1697  L 988 1316  L 988 0  L 425 0  z " transform="scale(0.015625)"/>
      <path id="ArialMT-74" d="M 1650 503  L 1731 6  Q 1494 -44 1306 -44  Q 1000 -44 831 53  Q 663 150 594 308  Q 525 466 525 972  L 525 2881  L 113 2881  L 113 3319  L 525 3319  L 525 4141  L 1084 4478  L 1084 3319  L 1650 3319  L 1650 2881  L 1084 2881  L 1084 941  Q 1084 700 1114 631  Q 1144 563 1211 522  Q 1278 481 1403 481  Q 1497 481 1650 503  z " transform="scale(0.015625)"/>
      <path id="ArialMT-72" d="M 416 0  L 416 3319  L 922 3319  L 922 2816  Q 1116 3169 1280 3281  Q 1444 3394 1641 3394  Q 1925 3394 2219 3213  L 2025 2691  Q 1819 2813 1613 2813  Q 1428 2813 1281 2702  Q 1134 2591 1072 2394  Q 978 2094 978 1738  L 978 0  L 416 0  z " transform="scale(0.015625)"/>
      <path id="ArialMT-75" d="M 2597 0  L 2597 488  Q 2209 -75 1544 -75  Q 1250 -75 995 37  Q 741 150 617 320  Q 494 491 444 738  Q 409 903 409 1263  L 409 3319  L 972 3319  L 972 1478  Q 972 1038 1006 884  Q 1059 663 1231 536  Q 1403 409 1656 409  Q 1909 409 2131 539  Q 2353 669 2445 892  Q 2538 1116 2538 1541  L 2538 3319  L 3100 3319  L 3100 0  L 2597 0  z " transform="scale(0.015625)"/>
      <path id="ArialMT-6d" d="M 422 0  L 422 3319  L 925 3319  L 925 2853  Q 1081 3097 1340 3245  Q 1600 3394 1931 3394  Q 2300 3394 2536 3241  Q 2772 3088 2869 2813  Q 3263 3394 3894 3394  Q 4388 3394 4653 3120  Q 4919 2847 4919 2278  L 4919 0  L 4359 0  L 4359 2091  Q 4359 2428 4304 2576  Q 4250 2725 4106 2815  Q 3963 2906 3769 2906  Q 3419 2906 3187 2673  Q 2956 2441 2956 1928  L 2956 0  L 2394 0  L 2394 2156  Q 2394 2531 2256 2718  Q 2119 2906 1806 2906  Q 1569 2906 1367 2781  Q 1166 2656 1075 2415  Q 984 2175 984 1722  L 984 0  L 422 0  z " transform="scale(0.015625)"/>
      <path id="ArialMT-20" transform="scale(0.015625)"/>
      <path id="ArialMT-76" d="M 1344 0  L 81 3319  L 675 3319  L 1388 1331  Q 1503 1009 1600 663  Q 1675 925 1809 1294  L 2547 3319  L 3125 3319  L 1869 0  L 1344 0  z " transform="scale(0.015625)"/>
      <path id="ArialMT-6f" d="M 213 1659  Q 213 2581 725 3025  Q 1153 3394 1769 3394  Q 2453 3394 2887 2945  Q 3322 2497 3322 1706  Q 3322 1066 3130 698  Q 2938 331 2570 128  Q 2203 -75 1769 -75  Q 1072 -75 642 372  Q 213 819 213 1659  z M 791 1659  Q 791 1022 1069 705  Q 1347 388 1769 388  Q 2188 388 2466 706  Q 2744 1025 2744 1678  Q 2744 2294 2464 2611  Q 2184 2928 1769 2928  Q 1347 2928 1069 2612  Q 791 2297 791 1659  z " transform="scale(0.015625)"/>
      <path id="ArialMT-6e" d="M 422 0  L 422 3319  L 928 3319  L 928 2847  Q 1294 3394 1984 3394  Q 2284 3394 2536 3286  Q 2788 3178 2913 3003  Q 3038 2828 3088 2588  Q 3119 2431 3119 2041  L 3119 0  L 2556 0  L 2556 2019  Q 2556 2363 2490 2533  Q 2425 2703 2258 2804  Q 2091 2906 1866 2906  Q 1506 2906 1245 2678  Q 984 2450 984 1813  L 984 0  L 422 0  z " transform="scale(0.015625)"/>
      <path id="DejaVuSans-Bold-31" d="M 750 831  L 1813 831  L 1813 3847  L 722 3622  L 722 4441  L 1806 4666  L 2950 4666  L 2950 831  L 4013 831  L 4013 0  L 750 0  L 750 831  z " transform="scale(0.015625)"/>
      <path id="DejaVuSans-Bold-33" d="M 2981 2516  Q 3453 2394 3698 2092  Q 3944 1791 3944 1325  Q 3944 631 3412 270  Q 2881 -91 1863 -91  Q 1503 -91 1142 -33  Q 781 25 428 141  L 428 1069  Q 766 900 1098 814  Q 1431 728 1753 728  Q 2231 728 2486 893  Q 2741 1059 2741 1369  Q 2741 1688 2480 1852  Q 2219 2016 1709 2016  L 1228 2016  L 1228 2791  L 1734 2791  Q 2188 2791 2409 2933  Q 2631 3075 2631 3366  Q 2631 3634 2415 3781  Q 2200 3928 1806 3928  Q 1516 3928 1219 3862  Q 922 3797 628 3669  L 628 4550  Q 984 4650 1334 4700  Q 1684 4750 2022 4750  Q 2931 4750 3382 4451  Q 3834 4153 3834 3553  Q 3834 3144 3618 2883  Q 3403 2622 2981 2516  z " transform="scale(0.015625)"/>
      <path id="DejaVuSans-Bold-37" d="M 428 4666  L 3944 4666  L 3944 3988  L 2125 0  L 953 0  L 2675 3781  L 428 3781  L 428 4666  z " transform="scale(0.015625)"/>
      <path id="ArialMT-43" d="M 3763 1606  L 4369 1453  Q 4178 706 3683 314  Q 3188 -78 2472 -78  Q 1731 -78 1267 223  Q 803 525 561 1097  Q 319 1669 319 2325  Q 319 3041 592 3573  Q 866 4106 1370 4382  Q 1875 4659 2481 4659  Q 3169 4659 3637 4309  Q 4106 3959 4291 3325  L 3694 3184  Q 3534 3684 3231 3912  Q 2928 4141 2469 4141  Q 1941 4141 1586 3887  Q 1231 3634 1087 3207  Q 944 2781 944 2328  Q 944 1744 1114 1308  Q 1284 872 1643 656  Q 2003 441 2422 441  Q 2931 441 3284 734  Q 3638 1028 3763 1606  z " transform="scale(0.015625)"/>
      <path id="ArialMT-73" d="M 197 991  L 753 1078  Q 800 744 1014 566  Q 1228 388 1613 388  Q 2000 388 2187 545  Q 2375 703 2375 916  Q 2375 1106 2209 1216  Q 2094 1291 1634 1406  Q 1016 1563 777 1677  Q 538 1791 414 1992  Q 291 2194 291 2438  Q 291 2659 392 2848  Q 494 3038 669 3163  Q 800 3259 1026 3326  Q 1253 3394 1513 3394  Q 1903 3394 2198 3281  Q 2494 3169 2634 2976  Q 2775 2784 2828 2463  L 2278 2388  Q 2241 2644 2061 2787  Q 1881 2931 1553 2931  Q 1166 2931 1000 2803  Q 834 2675 834 2503  Q 834 2394 903 2306  Q 972 2216 1119 2156  Q 1203 2125 1616 2013  Q 2213 1853 2448 1751  Q 2684 1650 2818 1456  Q 2953 1263 2953 975  Q 2953 694 2789 445  Q 2625 197 2315 61  Q 2006 -75 1616 -75  Q 969 -75 630 194  Q 291 463 197 991  z " transform="scale(0.015625)"/>
      <path id="ArialMT-68" d="M 422 0  L 422 4581  L 984 4581  L 984 2938  Q 1378 3394 1978 3394  Q 2347 3394 2619 3248  Q 2891 3103 3008 2847  Q 3125 2591 3125 2103  L 3125 0  L 2563 0  L 2563 2103  Q 2563 2525 2380 2717  Q 2197 2909 1863 2909  Q 1613 2909 1392 2779  Q 1172 2650 1078 2428  Q 984 2206 984 1816  L 984 0  L 422 0  z " transform="scale(0.015625)"/>
      <path id="ArialMT-42" d="M 469 0  L 469 4581  L 2188 4581  Q 2713 4581 3030 4442  Q 3347 4303 3526 4014  Q 3706 3725 3706 3409  Q 3706 3116 3547 2856  Q 3388 2597 3066 2438  Q 3481 2316 3704 2022  Q 3928 1728 3928 1328  Q 3928 1006 3792 729  Q 3656 453 3456 303  Q 3256 153 2954 76  Q 2653 0 2216 0  L 469 0  z M 1075 2656  L 2066 2656  Q 2469 2656 2644 2709  Q 2875 2778 2992 2937  Q 3109 3097 3109 3338  Q 3109 3566 3000 3739  Q 2891 3913 2687 3977  Q 2484 4041 1991 4041  L 1075 4041  L 1075 2656  z M 1075 541  L 2216 541  Q 2509 541 2628 563  Q 2838 600 2978 687  Q 3119 775 3209 942  Q 3300 1109 3300 1328  Q 3300 1584 3169 1773  Q 3038 1963 2805 2039  Q 2572 2116 2134 2116  L 1075 2116  L 1075 541  z " transform="scale(0.015625)"/>
      <path id="ArialMT-6c" d="M 409 0  L 409 4581  L 972 4581  L 972 0  L 409 0  z " transform="scale(0.015625)"/>
      <path id="ArialMT-69" d="M 425 3934  L 425 4581  L 988 4581  L 988 3934  L 425 3934  z M 425 0  L 425 3319  L 988 3319  L 988 0  L 425 0  z " transform="scale(0.015625)"/>
      <path id="ArialMT-63" d="M 2588 1216  L 3141 1144  Q 3050 572 2676 248  Q 2303 -75 1759 -75  Q 1078 -75 664 370  Q 250 816 250 1647  Q 250 2184 428 2587  Q 606 2991 970 3192  Q 1334 3394 1763 3394  Q 2303 3394 2647 3120  Q 2991 2847 3088 2344  L 2541 2259  Q 2463 2594 2264 2762  Q 2066 2931 1784 2931  Q 1359 2931 1093 2626  Q 828 2322 828 1663  Q 828 994 1084 691  Q 1341 388 1753 388  Q 2084 388 2306 591  Q 2528 794 2588 1216  z " transform="scale(0.015625)"/>
     </defs>
     <use xlink:href="#ArialMT-53" transform="translate(0 0.765625)"/>
     <use xlink:href="#ArialMT-70" transform="translate(66.699219 0.765625)"/>
     <use xlink:href="#ArialMT-65" transform="translate(122.314453 0.765625)"/>
     <use xlink:href="#ArialMT-6b" transform="translate(177.929688 0.765625)"/>
     <use xlink:href="#ArialMT-74" transform="translate(227.929688 0.765625)"/>
     <use xlink:href="#ArialMT-72" transform="translate(255.712891 0.765625)"/>
     <use xlink:href="#ArialMT-75" transform="translate(289.013672 0.765625)"/>
     <use xlink:href="#ArialMT-6d" transform="translate(344.628906 0.765625)"/>
     <use xlink:href="#ArialMT-20" transform="translate(427.929688 0.765625)"/>
     <use xlink:href="#ArialMT-76" transform="translate(455.712891 0.765625)"/>
     <use xlink:href="#ArialMT-6f" transform="translate(505.712891 0.765625)"/>
     <use xlink:href="#ArialMT-6e" transform="translate(561.328125 0.765625)"/>
     <use xlink:href="#ArialMT-20" transform="translate(616.943359 0.765625)"/>
     <use xlink:href="#DejaVuSans-Bold-31" transform="translate(645.683594 39.046875) scale(0.7)"/>
     <use xlink:href="#DejaVuSans-Bold-33" transform="translate(694.389648 39.046875) scale(0.7)"/>
     <use xlink:href="#DejaVuSans-Bold-37" transform="translate(743.095703 39.046875) scale(0.7)"/>
     <use xlink:href="#ArialMT-43" transform="translate(794.536133 0.765625)"/>
     <use xlink:href="#ArialMT-73" transform="translate(866.75293 0.765625)"/>
     <use xlink:href="#ArialMT-20" transform="translate(916.75293 0.765625)"/>
     <use xlink:href="#ArialMT-6f" transform="translate(944.536133 0.765625)"/>
     <use xlink:href="#ArialMT-68" transform="translate(1000.151367 0.765625)"/>
     <use xlink:href="#ArialMT-6e" transform="translate(1055.766602 0.765625)"/>
     <use xlink:href="#ArialMT-65" transform="translate(1111.381836 0.765625)"/>
     <use xlink:href="#ArialMT-20" transform="translate(1166.99707 0.765625)"/>
     <use xlink:href="#ArialMT-42" transform="translate(1194.780273 0.765625)"/>
     <use xlink:href="#ArialMT-6c" transform="translate(1261.479492 0.765625)"/>
     <use xlink:href="#ArialMT-65" transform="translate(1283.696289 0.765625)"/>
     <use xlink:href="#ArialMT-69" transform="translate(1339.311523 0.765625)"/>
     <use xlink:href="#ArialMT-73" transform="translate(1361.52832 0.765625)"/>
     <use xlink:href="#ArialMT-63" transform="translate(1411.52832 0.765625)"/>
     <use xlink:href="#ArialMT-68" transform="translate(1461.52832 0.765625)"/>
     <use xlink:href="#ArialMT-69" transform="translate(1517.143555 0.765625)"/>
     <use xlink:href="#ArialMT-72" transform="translate(1539.360352 0.765625)"/>
     <use xlink:href="#ArialMT-6d" transform="translate(1572.661133 0.765625)"/>
    </g>
   </g>
   <g id="legend_1">
    <g id="patch_7">
     <path d="M 179.2125 68.0295  L 406.32 68.0295  Q 408.72 68.0295 408.72 65.6295  L 408.72 49.872  Q 408.72 47.472 406.32 47.472  L 179.2125 47.472  Q 176.8125 47.472 176.8125 49.872  L 176.8125 65.6295  Q 176.8125 68.0295 179.2125 68.0295  z " style="fill: #ffffff; opacity: 0.8; stroke: #cccccc; stroke-linejoin: miter"/>
    </g>
    <g id="line2d_32">
     <path d="M 181.6125 56.661375  L 205.6125 56.661375  " style="fill: none; stroke-dasharray: 7.4,3.2; stroke-dashoffset: 0; stroke: #ff0000; stroke-width: 2"/>
    </g>
    <g id="text_19">
     <!-- Einfluss des Mößbauer-Versuchs -->
     <g transform="translate(215.2125 60.861375) scale(0.12 -0.12)">
      <defs>
       <path id="Arial-BoldMT-66" d="M 75 3319  L 563 3319  L 563 3569  Q 563 3988 652 4194  Q 741 4400 980 4529  Q 1219 4659 1584 4659  Q 1959 4659 2319 4547  L 2200 3934  Q 1991 3984 1797 3984  Q 1606 3984 1523 3895  Q 1441 3806 1441 3553  L 1441 3319  L 2097 3319  L 2097 2628  L 1441 2628  L 1441 0  L 563 0  L 563 2628  L 75 2628  L 75 3319  z " transform="scale(0.015625)"/>
       <path id="Arial-BoldMT-4d" d="M 453 0  L 453 4581  L 1838 4581  L 2669 1456  L 3491 4581  L 4878 4581  L 4878 0  L 4019 0  L 4019 3606  L 3109 0  L 2219 0  L 1313 3606  L 1313 0  L 453 0  z " transform="scale(0.015625)"/>
       <path id="Arial-BoldMT-f6" d="M 256 1706  Q 256 2144 472 2553  Q 688 2963 1083 3178  Q 1478 3394 1966 3394  Q 2719 3394 3200 2905  Q 3681 2416 3681 1669  Q 3681 916 3195 420  Q 2709 -75 1972 -75  Q 1516 -75 1102 131  Q 688 338 472 736  Q 256 1134 256 1706  z M 1156 1659  Q 1156 1166 1390 903  Q 1625 641 1969 641  Q 2313 641 2545 903  Q 2778 1166 2778 1666  Q 2778 2153 2545 2415  Q 2313 2678 1969 2678  Q 1625 2678 1390 2415  Q 1156 2153 1156 1659  z M 888 3906  L 888 4659  L 1641 4659  L 1641 3906  L 888 3906  z M 2231 3906  L 2231 4659  L 2988 4659  L 2988 3906  L 2231 3906  z " transform="scale(0.015625)"/>
       <path id="Arial-BoldMT-df" d="M 434 0  L 434 2975  Q 434 3600 545 3925  Q 656 4250 975 4454  Q 1294 4659 1803 4659  Q 2441 4659 2756 4387  Q 3072 4116 3072 3713  Q 3072 3441 2901 3130  Q 2731 2819 2706 2750  Q 2681 2681 2681 2631  Q 2681 2528 2759 2416  Q 2809 2344 3134 2016  Q 3459 1688 3571 1459  Q 3684 1231 3684 988  Q 3684 534 3370 229  Q 3056 -75 2575 -75  Q 2244 -75 1972 95  Q 1700 266 1563 516  L 2175 875  Q 2241 753 2322 690  Q 2403 628 2500 628  Q 2628 628 2717 720  Q 2806 813 2806 950  Q 2806 1078 2713 1209  Q 2659 1288 2281 1644  Q 1753 2150 1753 2441  Q 1753 2625 1956 3047  Q 2116 3372 2144 3459  Q 2172 3547 2172 3641  Q 2172 3778 2069 3875  Q 1966 3972 1794 3972  Q 1638 3972 1523 3890  Q 1409 3809 1369 3681  Q 1313 3509 1313 2975  L 1313 0  L 434 0  z " transform="scale(0.015625)"/>
       <path id="Arial-BoldMT-62" d="M 422 0  L 422 4581  L 1300 4581  L 1300 2931  Q 1706 3394 2263 3394  Q 2869 3394 3266 2955  Q 3663 2516 3663 1694  Q 3663 844 3258 384  Q 2853 -75 2275 -75  Q 1991 -75 1714 67  Q 1438 209 1238 488  L 1238 0  L 422 0  z M 1294 1731  Q 1294 1216 1456 969  Q 1684 619 2063 619  Q 2353 619 2558 867  Q 2763 1116 2763 1650  Q 2763 2219 2556 2470  Q 2350 2722 2028 2722  Q 1713 2722 1503 2476  Q 1294 2231 1294 1731  z " transform="scale(0.015625)"/>
       <path id="Arial-BoldMT-2d" d="M 359 1222  L 359 2100  L 2084 2100  L 2084 1222  L 359 1222  z " transform="scale(0.015625)"/>
       <path id="Arial-BoldMT-56" d="M 1634 0  L -3 4581  L 1000 4581  L 2159 1191  L 3281 4581  L 4263 4581  L 2622 0  L 1634 0  z " transform="scale(0.015625)"/>
       <path id="Arial-BoldMT-63" d="M 3353 2338  L 2488 2181  Q 2444 2441 2289 2572  Q 2134 2703 1888 2703  Q 1559 2703 1364 2476  Q 1169 2250 1169 1719  Q 1169 1128 1367 884  Q 1566 641 1900 641  Q 2150 641 2309 783  Q 2469 925 2534 1272  L 3397 1125  Q 3263 531 2881 228  Q 2500 -75 1859 -75  Q 1131 -75 698 384  Q 266 844 266 1656  Q 266 2478 700 2936  Q 1134 3394 1875 3394  Q 2481 3394 2839 3133  Q 3197 2872 3353 2338  z " transform="scale(0.015625)"/>
      </defs>
      <use xlink:href="#Arial-BoldMT-45"/>
      <use xlink:href="#Arial-BoldMT-69" transform="translate(66.699219 0)"/>
      <use xlink:href="#Arial-BoldMT-6e" transform="translate(94.482422 0)"/>
      <use xlink:href="#Arial-BoldMT-66" transform="translate(155.566406 0)"/>
      <use xlink:href="#Arial-BoldMT-6c" transform="translate(188.867188 0)"/>
      <use xlink:href="#Arial-BoldMT-75" transform="translate(216.650391 0)"/>
      <use xlink:href="#Arial-BoldMT-73" transform="translate(277.734375 0)"/>
      <use xlink:href="#Arial-BoldMT-73" transform="translate(333.349609 0)"/>
      <use xlink:href="#Arial-BoldMT-20" transform="translate(388.964844 0)"/>
      <use xlink:href="#Arial-BoldMT-64" transform="translate(416.748047 0)"/>
      <use xlink:href="#Arial-BoldMT-65" transform="translate(477.832031 0)"/>
      <use xlink:href="#Arial-BoldMT-73" transform="translate(533.447266 0)"/>
      <use xlink:href="#Arial-BoldMT-20" transform="translate(589.0625 0)"/>
      <use xlink:href="#Arial-BoldMT-4d" transform="translate(616.845703 0)"/>
      <use xlink:href="#Arial-BoldMT-f6" transform="translate(700.146484 0)"/>
      <use xlink:href="#Arial-BoldMT-df" transform="translate(761.230469 0)"/>
      <use xlink:href="#Arial-BoldMT-62" transform="translate(822.314453 0)"/>
      <use xlink:href="#Arial-BoldMT-61" transform="translate(883.398438 0)"/>
      <use xlink:href="#Arial-BoldMT-75" transform="translate(939.013672 0)"/>
      <use xlink:href="#Arial-BoldMT-65" transform="translate(1000.097656 0)"/>
      <use xlink:href="#Arial-BoldMT-72" transform="translate(1055.712891 0)"/>
      <use xlink:href="#Arial-BoldMT-2d" transform="translate(1094.628906 0)"/>
      <use xlink:href="#Arial-BoldMT-56" transform="translate(1127.929688 0)"/>
      <use xlink:href="#Arial-BoldMT-65" transform="translate(1189.128906 0)"/>
      <use xlink:href="#Arial-BoldMT-72" transform="translate(1244.744141 0)"/>
      <use xlink:href="#Arial-BoldMT-73" transform="translate(1283.660156 0)"/>
      <use xlink:href="#Arial-BoldMT-75" transform="translate(1339.275391 0)"/>
      <use xlink:href="#Arial-BoldMT-63" transform="translate(1400.359375 0)"/>
      <use xlink:href="#Arial-BoldMT-68" transform="translate(1455.974609 0)"/>
      <use xlink:href="#Arial-BoldMT-73" transform="translate(1517.058594 0)"/>
     </g>
    </g>
   </g>
  </g>
 </g>
 <defs>
  <clipPath id="pe32fd58c37">
   <rect x="57.6" y="41.472" width="357.12" height="266.112"/>
  </clipPath>
 </defs>
</svg>